<svg preserveAspectRatio="none" width="100%" height="100%" overflow="visible" style="display: block;" viewBox="0 0 20 16" fill="none" xmlns="http://www.w3.org/2000/svg">
<path id="Vector" d="M8.29785 0.046875C8.45339 0.046875 8.60235 0.106359 8.71191 0.211914C8.82138 0.317529 8.88273 0.460771 8.88281 0.609375C8.88281 0.758085 8.82145 0.901151 8.71191 1.00684L2.14844 7.35059L2.06445 7.43066H19.3613C19.5187 7.43066 19.6695 7.49173 19.7803 7.59863C19.891 7.70547 19.9531 7.84968 19.9531 8C19.9531 8.15032 19.891 8.29453 19.7803 8.40137C19.6695 8.50827 19.5187 8.56934 19.3613 8.56934H2.06445L2.14844 8.64941L8.71191 14.9932C8.76616 15.0455 8.8096 15.1076 8.83887 15.1758C8.86803 15.2438 8.88281 15.3171 8.88281 15.3906C8.88277 15.4642 8.86809 15.5374 8.83887 15.6055C8.80961 15.6736 8.76612 15.7358 8.71191 15.7881C8.65776 15.8403 8.59338 15.8818 8.52246 15.9102C8.45136 15.9386 8.3749 15.9531 8.29785 15.9531C8.22081 15.9531 8.14434 15.9386 8.07324 15.9102C8.00233 15.8818 7.93794 15.8403 7.88379 15.7881L0.223633 8.39746V8.39648L0.148438 8.3125C0.126607 8.28221 0.107908 8.24984 0.0927734 8.21582C0.0625024 8.14767 0.0468751 8.07403 0.046875 8C0.046875 7.92597 0.0625023 7.85233 0.0927734 7.78418C0.123044 7.71614 0.167868 7.65476 0.223633 7.60352V7.60254L7.88379 0.211914C7.99335 0.106351 8.14231 0.0468803 8.29785 0.046875Z" fill="var(--fill-0, #010214)" stroke="var(--stroke-0, #1F2937)" stroke-width="0.09375"/>
</svg>
