<svg width="107" height="107" viewBox="0 0 107 107" fill="none" xmlns="http://www.w3.org/2000/svg">
<circle cx="53.5" cy="53.5" r="53.5" fill="#F1F4FC"/>
<g clip-path="url(#clip0_369_1853)">
<path d="M48.3058 53.2149C46.9391 52.0914 45.9474 50.5625 45.4674 48.839C44.9873 47.1154 45.0427 45.2824 45.6258 43.5924C46.2089 41.9023 47.2909 40.4386 48.7228 39.4033C50.1547 38.368 51.8658 37.812 53.6201 37.812C55.3745 37.812 57.0856 38.368 58.5175 39.4033C59.9494 40.4386 61.0315 41.9023 61.6146 43.5924C62.1977 45.2824 62.2529 47.1154 61.7729 48.839C61.2929 50.5625 60.3011 52.0914 58.9344 53.2149C59.6784 53.7848 60.4756 54.3005 61.1665 54.9248C62.3901 55.9891 63.3731 57.312 64.0475 58.8021C64.7218 60.2922 65.0715 61.9141 65.0724 63.5557C65.0724 64.9399 65.0724 66.2695 65.0724 67.7351C65.0724 69.2252 64.493 70.6543 63.4615 71.7079C62.43 72.7615 61.0309 73.3535 59.5721 73.3535H47.5087C46.7832 73.3571 46.0641 73.2131 45.3934 72.9304C44.7228 72.6476 44.114 72.2315 43.6022 71.7062C43.0904 71.1809 42.6858 70.5572 42.4123 69.8708C42.1387 69.1844 42.0014 68.449 42.0084 67.708C41.9073 65.9001 41.9073 64.0877 42.0084 62.2798C42.1931 60.552 42.7697 58.8919 43.6922 57.4314C44.6147 55.9709 45.8577 54.7503 47.3227 53.8662L48.3058 53.2149ZM53.6201 70.2322H59.5721C59.8998 70.2395 60.2258 70.1795 60.5303 70.0556C60.8348 69.9317 61.1117 69.7464 61.3447 69.511C61.5778 69.2755 61.762 68.9944 61.8866 68.6847C62.0112 68.375 62.0735 68.0428 62.0698 67.708C62.0698 66.948 62.0698 66.1882 62.0698 65.4282C62.1018 64.2489 62.0396 63.0688 61.8838 61.8998C61.4904 59.92 60.4275 58.1448 58.8812 56.8851C57.335 55.6254 55.4039 54.9617 53.4267 55.0102C51.4494 55.0588 49.5519 55.8167 48.0666 57.1508C46.5814 58.4849 45.6031 60.3101 45.3033 62.307C45.1173 64.0168 45.3033 65.7811 45.3033 67.491C45.2798 67.8536 45.3324 68.2173 45.4577 68.5574C45.5829 68.8976 45.7779 69.2063 46.0295 69.4632C46.2811 69.7202 46.5834 69.9194 46.9165 70.0473C47.2495 70.1753 47.6054 70.229 47.9604 70.205L53.6201 70.2322ZM53.6201 40.7845C52.5387 40.7899 51.4831 41.1221 50.5864 41.7397C49.6898 42.3573 48.9923 43.2326 48.582 44.2546C48.1718 45.2767 48.0673 46.3998 48.2815 47.4826C48.4957 48.5653 49.019 49.5593 49.7856 50.3385C50.5521 51.1177 51.5276 51.6473 52.5887 51.8608C53.6497 52.0744 54.749 51.9621 55.7476 51.5381C56.7463 51.1142 57.5995 50.3976 58.1998 49.4787C58.8001 48.5599 59.1204 47.48 59.1205 46.3753C59.1171 45.6283 58.968 44.8894 58.6818 44.202C58.3955 43.5145 57.9778 42.8924 57.4532 42.3718C56.9287 41.8512 56.3078 41.4427 55.6268 41.1702C54.9458 40.8976 54.2185 40.7665 53.4873 40.7845H53.6201Z" fill="#130D6F"/>
<path d="M66.613 47.1896C65.44 46.1773 64.5999 44.8214 64.2062 43.3054C63.8126 41.7893 63.8844 40.1864 64.4121 38.7134C64.9397 37.2405 65.8977 35.9686 67.1563 35.07C68.4149 34.1715 69.9134 33.6895 71.449 33.6895C72.9846 33.6895 74.4831 34.1715 75.7417 35.07C77.0003 35.9686 77.9582 37.2405 78.4858 38.7134C79.0135 40.1864 79.0854 41.7893 78.6918 43.3054C78.2981 44.8214 77.458 46.1773 76.285 47.1896C76.8962 47.7324 77.5871 48.2209 78.1451 48.818C78.9966 49.6804 79.6704 50.7085 80.1267 51.8412C80.5831 52.9739 80.8128 54.1885 80.8022 55.4134C80.8954 56.4878 80.8954 57.5685 80.8022 58.643C80.5974 59.8632 79.9903 60.9752 79.0817 61.7947C78.1731 62.6142 77.0176 63.0919 75.8068 63.1484C73.1496 63.1484 70.2533 63.1484 67.4899 63.1484C67.2807 63.1522 67.0729 63.1123 66.8793 63.0315C66.6856 62.9506 66.5101 62.8306 66.3634 62.6783C66.2167 62.5259 66.1021 62.3447 66.0262 62.1455C65.9503 61.9464 65.9149 61.7336 65.9221 61.52C65.9282 61.3177 65.9753 61.1188 66.0604 60.9359C66.1455 60.7531 66.2668 60.5901 66.4166 60.4575C66.5664 60.3249 66.7414 60.2254 66.9307 60.1653C67.12 60.1053 67.3195 60.0861 67.5165 60.1087H75.2221C75.5782 60.1372 75.936 60.0865 76.2711 59.9602C76.6062 59.8339 76.9105 59.6351 77.1631 59.3771C77.4156 59.1192 77.6105 58.8083 77.7341 58.466C77.8577 58.1238 77.9072 57.7583 77.8793 57.3946C77.9074 56.2315 77.8274 55.0681 77.6402 53.9205C77.3037 52.5001 76.5055 51.2382 75.3762 50.341C74.2469 49.4438 72.853 48.9646 71.4224 48.981C69.9943 48.9714 68.6041 49.4496 67.4727 50.3397C66.3413 51.2298 65.5337 52.4805 65.1782 53.8933C65.141 54.0787 65.0876 54.2603 65.0188 54.436C64.9024 54.8017 64.6523 55.1077 64.3206 55.2898C63.9889 55.4718 63.6012 55.5161 63.2384 55.4134C62.8757 55.3111 62.5643 55.0721 62.3671 54.7448C62.1699 54.4174 62.1016 54.026 62.1756 53.6491C62.6255 51.2264 63.9903 49.0815 65.9753 47.678L66.613 47.1896ZM71.4224 45.7782C72.0394 45.8268 72.6595 45.7445 73.2439 45.5367C73.8283 45.3289 74.3644 45 74.8185 44.5706C75.2725 44.1412 75.6348 43.6208 75.8825 43.0416C76.1303 42.4624 76.2581 41.8369 76.2581 41.2049C76.2581 40.5728 76.1303 39.9476 75.8825 39.3684C75.6348 38.7892 75.2725 38.2688 74.8185 37.8394C74.3644 37.41 73.8283 37.0811 73.2439 36.8733C72.6595 36.6655 72.0394 36.5832 71.4224 36.6318C70.8055 36.5832 70.1854 36.6655 69.601 36.8733C69.0166 37.0811 68.4804 37.41 68.0264 37.8394C67.5723 38.2688 67.2101 38.7892 66.9623 39.3684C66.7146 39.9476 66.5867 40.5728 66.5867 41.2049C66.5867 41.8369 66.7146 42.4624 66.9623 43.0416C67.2101 43.6208 67.5723 44.1412 68.0264 44.5706C68.4804 45 69.0166 45.3289 69.601 45.5367C70.1854 45.7445 70.8055 45.8268 71.4224 45.7782Z" fill="#130D6F"/>
<path d="M30.8479 47.1896C30.0364 46.5571 29.36 45.7619 28.8601 44.8528C28.3602 43.9438 28.0474 42.9401 27.9409 41.9032C27.8344 40.8663 27.9363 39.8182 28.2406 38.823C28.5449 37.8278 29.0451 36.9063 29.7104 36.1156C30.3758 35.3249 31.1923 34.6816 32.1099 34.2248C33.0274 33.7679 34.0266 33.5074 35.0463 33.4591C36.0659 33.4109 37.0845 33.5759 38.0395 33.9442C38.9944 34.3124 39.8657 34.8759 40.5998 35.6004C41.3919 36.3396 42.0211 37.2422 42.4459 38.2485C42.8706 39.2549 43.0812 40.342 43.0636 41.4377C43.046 42.5335 42.8007 43.6128 42.3439 44.6044C41.887 45.5959 41.2292 46.4773 40.4138 47.1896C42.0441 48.1724 43.3418 49.6399 44.1337 51.3962C44.4402 52.1136 44.6804 52.8589 44.8512 53.6219C44.9346 53.997 44.8731 54.3903 44.6794 54.7202C44.4858 55.0501 44.175 55.2909 43.8118 55.3924C43.4485 55.4939 43.0609 55.4484 42.7299 55.2652C42.3988 55.082 42.1497 54.7753 42.0346 54.4091C41.9017 54.0563 41.822 53.6762 41.7157 53.3234C41.1983 51.8796 40.2052 50.6647 38.9066 49.8871C37.6081 49.1095 36.0852 48.8175 34.599 49.0614C33.1128 49.3054 31.756 50.0699 30.7613 51.2239C29.7667 52.3779 29.1961 53.8495 29.1475 55.3861V57.476C29.124 57.8386 29.1765 58.202 29.3017 58.5422C29.427 58.8823 29.622 59.1913 29.8736 59.4483C30.1252 59.7053 30.4275 59.9045 30.7605 60.0324C31.0936 60.1603 31.4496 60.2141 31.8046 60.1901C34.4618 60.1901 36.9594 60.1901 39.5103 60.1901C39.9937 60.2222 40.4566 60.4017 40.8388 60.7056C41.0607 60.8908 41.2135 61.1482 41.2715 61.4348C41.3296 61.7214 41.2894 62.0197 41.1577 62.2797C41.0754 62.5562 40.9055 62.7971 40.6746 62.9641C40.4437 63.1312 40.165 63.2152 39.8823 63.2027C37.0392 63.2027 34.196 63.2027 31.3528 63.2027C30.1551 63.1355 29.015 62.6564 28.1177 61.8433C27.2203 61.0303 26.6187 59.931 26.4106 58.7244C26.069 56.7459 26.1689 54.714 26.7028 52.7804C27.343 50.4486 28.8241 48.4511 30.8479 47.1896ZM35.6043 45.8597C36.4947 45.865 37.3665 45.5999 38.109 45.098C38.8516 44.5961 39.4313 43.8798 39.7745 43.0406C40.1176 42.2013 40.2088 41.2771 40.0364 40.3848C39.864 39.4925 39.4357 38.6726 38.8061 38.0295C38.1765 37.3864 37.3739 36.949 36.5004 36.7729C35.6268 36.5968 34.7218 36.6901 33.9002 37.0406C33.0785 37.3911 32.3775 37.9831 31.8861 38.7415C31.3947 39.5 31.1351 40.3904 31.1404 41.2999C31.1613 42.495 31.6407 43.6339 32.4756 44.4715C33.3105 45.3091 34.4341 45.7784 35.6043 45.7782V45.8597Z" fill="#130D6F"/>
</g>
<defs>
<clipPath id="clip0_369_1853">
<rect width="54.7638" height="39.5984" fill="white" transform="translate(26.1182 33.7007)"/>
</clipPath>
</defs>
</svg>
