<svg width="62" height="30" viewBox="0 0 62 30" fill="none" xmlns="http://www.w3.org/2000/svg">
<path d="M2 12.7275C0.89543 12.7275 0 13.623 0 14.7275C0 15.8321 0.89543 16.7275 2 16.7275V12.7275ZM61.4142 16.1418C62.1953 15.3607 62.1953 14.0944 61.4142 13.3133L48.6863 0.585403C47.9052 -0.195645 46.6389 -0.195645 45.8579 0.585403C45.0768 1.36645 45.0768 2.63278 45.8579 3.41383L57.1716 14.7275L45.8579 26.0412C45.0768 26.8223 45.0768 28.0886 45.8579 28.8697C46.6389 29.6507 47.9052 29.6507 48.6863 28.8697L61.4142 16.1418ZM2 16.7275H60V12.7275H2V16.7275Z" fill="#130D6F"/>
</svg>
