<svg width="107" height="107" viewBox="0 0 107 107" fill="none" xmlns="http://www.w3.org/2000/svg">
<circle cx="53.5" cy="53.5" r="53.5" fill="#F1F4FC"/>
<g clip-path="url(#clip0_369_1859)">
<path d="M76.6903 51.8356C76.6075 56.2211 75.3096 60.5013 72.9367 64.2146C72.8647 64.333 72.8266 64.4686 72.8266 64.6067C72.8266 64.7448 72.8647 64.8801 72.9367 64.9986C73.5868 66.3603 74.1949 67.7219 74.803 69.1249C75.0975 69.7022 75.1995 70.3562 75.0948 70.9939C74.9901 71.6316 74.6839 72.2207 74.2197 72.6775C73.7554 73.1343 73.1569 73.4356 72.5087 73.5386C71.8606 73.6416 71.1959 73.5409 70.6091 73.2512L66.4153 71.4356C66.302 71.3661 66.1712 71.3293 66.0377 71.3293C65.9043 71.3293 65.7736 71.3661 65.6604 71.4356C61.2223 74.2495 55.9374 75.4804 50.6882 74.9225C46.3442 74.4865 42.2087 72.8707 38.7442 70.2557C35.2797 67.6407 32.6226 64.1294 31.0694 60.1142C29.5162 56.0989 29.1283 51.7378 29.949 47.5181C30.7697 43.2985 32.7667 39.3865 35.7168 36.2191C38.667 33.0517 42.4541 30.7536 46.6551 29.5818C50.8561 28.41 55.3056 28.4105 59.5063 29.5833C63.707 30.7561 67.4934 33.055 70.4428 36.2231C73.3921 39.3912 75.3882 43.3038 76.2078 47.5237C76.4175 48.9266 76.5016 50.3914 76.6903 51.8356ZM71.9092 70.404C71.1334 68.6504 70.3993 67 69.6234 65.3907C69.4411 65.0413 69.3643 64.6479 69.4015 64.2569C69.4386 63.8658 69.5884 63.4932 69.8333 63.183C71.451 60.9195 72.5639 58.3451 73.0987 55.6285C73.6336 52.9119 73.5784 50.1145 72.9367 47.4204C72.1002 43.7704 70.2434 40.4231 67.5761 37.7561C64.9088 35.0892 61.537 33.209 57.8412 32.3273C54.1453 31.4456 50.2726 31.5975 46.66 32.7662C43.0473 33.935 39.8385 36.0739 37.3958 38.9416C34.953 41.8093 33.3735 45.2915 32.8353 48.9955C32.2972 52.6995 32.8219 56.4779 34.3502 59.9041C35.8785 63.3303 38.3498 66.2679 41.4849 68.3857C44.6201 70.5035 48.2941 71.7173 52.093 71.8897C56.5788 72.1007 61.0075 70.8298 64.6746 68.2792C64.9523 68.0681 65.286 67.94 65.6356 67.9107C65.9852 67.8815 66.336 67.9521 66.6459 68.114C68.3654 68.8773 70.0849 69.5994 71.9092 70.404Z" fill="#130D6F"/>
<path d="M70.2948 51.815C70.299 55.1782 69.2892 58.4672 67.3931 61.2657C65.497 64.0641 62.7999 66.2464 59.643 67.5362C56.4861 68.8261 53.0111 69.1656 49.658 68.5119C46.3048 67.8583 43.2242 66.2407 40.8056 63.864C38.3871 61.4873 36.7393 58.4581 36.0709 55.1598C35.4025 51.8615 35.7433 48.4422 37.0505 45.3346C38.3577 42.227 40.5723 39.5707 43.4143 37.7018C46.2562 35.8328 49.5978 34.8352 53.0161 34.8352C57.5951 34.8352 61.9868 36.6235 65.2266 39.8072C68.4664 42.991 70.2893 47.3098 70.2948 51.815ZM67.1704 51.815C67.1787 49.0638 66.3574 46.3721 64.8103 44.0804C63.2633 41.7886 61.0602 39.9998 58.4796 38.9404C55.899 37.8809 53.0571 37.5987 50.3133 38.1289C47.5695 38.6591 45.0472 39.978 43.0656 41.919C41.084 43.86 39.7321 46.3358 39.181 49.033C38.6299 51.7302 38.9044 54.5277 39.9696 57.0714C41.0349 59.615 42.843 61.7907 45.1654 63.323C47.4877 64.8553 50.2199 65.6755 53.0161 65.6796C56.743 65.6635 60.3136 64.2039 62.9548 61.6168C65.596 59.0296 67.0954 55.5231 67.1284 51.8563L67.1704 51.815Z" fill="#130D6F"/>
<path d="M51.4639 50.3089C50.2896 50.0819 49.6816 49.2773 49.9542 48.2457C50.0405 47.9255 50.2302 47.6417 50.495 47.437C50.7598 47.2323 51.0852 47.118 51.4219 47.1111H52.9526C53.1725 47.1024 53.3919 47.1386 53.5969 47.2174C53.8019 47.2962 53.988 47.4159 54.1437 47.569C54.2993 47.7221 54.4212 47.9053 54.5013 48.107C54.5814 48.3087 54.6182 48.5245 54.6093 48.7409V57.8808L55.0706 58.0044C55.4149 58.1116 55.7113 58.3322 55.9099 58.629C56.1085 58.9258 56.1971 59.2809 56.161 59.6344C56.1181 59.9969 55.948 60.3333 55.68 60.5856C55.4121 60.838 55.0629 60.9905 54.693 61.0168H53.1203C52.9004 61.0255 52.681 60.9894 52.476 60.9105C52.271 60.8317 52.0849 60.7118 51.9292 60.5587C51.7736 60.4056 51.652 60.2224 51.5719 60.0207C51.4918 59.8191 51.455 59.6032 51.4639 59.3868V50.2265V50.3089Z" fill="#130D6F"/>
<path d="M53.0576 42.5719C53.3677 42.576 53.6695 42.6702 53.9253 42.8427C54.1812 43.0151 54.3795 43.2582 54.4954 43.5413C54.6112 43.8244 54.6395 44.1348 54.5765 44.4336C54.5135 44.7324 54.3619 45.0063 54.1411 45.2206C53.9203 45.435 53.6403 45.5801 53.3358 45.6382C53.0313 45.6962 52.7161 45.6645 52.4299 45.5468C52.1438 45.4291 51.8994 45.2308 51.7275 44.9768C51.5556 44.7228 51.4639 44.4244 51.4639 44.1193C51.4638 43.9143 51.5051 43.7115 51.5855 43.5224C51.6658 43.3333 51.7835 43.1619 51.9318 43.0179C52.0801 42.874 52.2559 42.7603 52.4491 42.6837C52.6423 42.6072 52.8493 42.5692 53.0576 42.5719Z" fill="#130D6F"/>
</g>
<defs>
<clipPath id="clip0_369_1859">
<rect width="47.1811" height="46.3386" fill="white" transform="translate(29.4883 28.6458)"/>
</clipPath>
</defs>
</svg>
