<svg width="107" height="107" viewBox="0 0 107 107" fill="none" xmlns="http://www.w3.org/2000/svg">
<circle cx="53.5" cy="53.5" r="53.5" fill="#FEEFEF"/>
<g clip-path="url(#clip0_2230_3040)">
<path d="M46.1047 73.2476C44.96 72.7755 43.9952 71.9529 43.3483 70.8982C42.7015 69.8435 42.4061 68.6111 42.505 67.3783C42.505 66.131 42.505 64.9329 42.505 63.6123C42.5202 63.4488 42.4895 63.284 42.416 63.1371C42.3424 62.9901 42.2291 62.8666 42.0889 62.7806C37.7802 59.851 34.7846 55.3593 33.7384 50.2595C33.001 46.711 33.2354 43.0297 34.417 39.603C35.5986 36.1764 37.6837 33.1313 40.4526 30.7887C43.2216 28.4461 46.5719 26.8928 50.1507 26.292C53.7294 25.6913 57.4042 26.0653 60.7879 27.3751C64.1716 28.6848 67.1387 30.8818 69.3772 33.7343C71.6157 36.5868 73.0427 39.9893 73.5075 43.5836C73.9723 47.1779 73.4577 50.8309 72.0183 54.1577C70.5788 57.4845 68.2675 60.362 65.328 62.4872C65.0432 62.656 64.8115 62.9015 64.6599 63.1956C64.5083 63.4897 64.4427 63.8207 64.4707 64.1503C64.581 65.7053 64.581 67.266 64.4707 68.821C64.37 69.7496 64.0248 70.6351 63.4699 71.3869C62.9149 72.1387 62.1703 72.73 61.3119 73.1007C61.1855 73.1486 61.0785 73.237 61.0076 73.3521C60.9367 73.4671 60.9059 73.6023 60.92 73.7366C60.8596 75.5057 60.1607 77.1936 58.9522 78.4885C57.7438 79.7835 56.1071 80.5983 54.3443 80.783C52.5814 80.9677 50.8113 80.5097 49.36 79.4934C47.9087 78.4771 46.8743 76.9709 46.4476 75.2528C46.2899 74.5925 46.1753 73.9228 46.1047 73.2476ZM51.6635 62.5606H55.3367H56.0715C59.1501 62.0718 62.0268 60.7209 64.3676 58.6649C66.7083 56.6088 68.4171 53.9319 69.2956 50.945C70.1742 47.958 70.1867 44.7834 69.3312 41.7897C68.4758 38.7961 66.7877 36.1062 64.4629 34.0322C62.1381 31.9582 59.2718 30.5852 56.197 30.0726C53.1222 29.5599 49.9651 29.9288 47.0917 31.1362C44.2184 32.3436 41.7469 34.3401 39.9642 36.8939C38.1814 39.4477 37.1603 42.4543 37.0198 45.5643C36.8732 48.2322 37.3941 50.8945 38.5356 53.3111C39.6771 55.7276 41.4033 57.8221 43.5582 59.4058C45.899 61.2158 48.7136 62.3114 51.6635 62.5606ZM46.1782 65.0062V65.6175C46.1782 66.4246 46.1782 67.2316 46.1782 68.0631C46.1961 68.5851 46.4103 69.0811 46.7779 69.4527C47.1454 69.8243 47.6395 70.044 48.1619 70.0683H58.8141C59.3179 70.0635 59.8014 69.8698 60.1688 69.5256C60.5363 69.1813 60.7606 68.7115 60.7975 68.2097C60.7975 67.1825 60.7975 66.1312 60.7975 65.0551C56.1046 66.8166 50.9266 66.7904 46.2518 64.9817L46.1782 65.0062ZM49.8759 73.7121C49.8721 74.2042 49.9686 74.6921 50.1599 75.1456C50.3512 75.5992 50.6333 76.0091 50.9885 76.3502C51.3438 76.6912 51.7648 76.9564 52.2261 77.1293C52.6874 77.3023 53.1795 77.3795 53.6717 77.3562C54.6071 77.318 55.4899 76.9148 56.131 76.2335C56.772 75.5521 57.1201 74.6468 57.1001 73.7121H49.8759Z" fill="#F35757"/>
<path d="M35.4523 30.0596C35.4545 30.3807 35.3712 30.6966 35.2108 30.9749C35.0503 31.2532 34.8186 31.484 34.5394 31.6433C34.2602 31.8026 33.9435 31.8848 33.622 31.8815C33.3005 31.8783 32.9856 31.7897 32.7097 31.6248C31.5832 30.8911 30.5059 30.1086 29.4529 29.1793C29.095 28.8908 28.8623 28.4758 28.803 28.0204C28.7437 27.5649 28.8624 27.104 29.1345 26.7337C29.259 26.5368 29.4213 26.3666 29.6122 26.2328C29.8031 26.099 30.0188 26.0043 30.2465 25.9543C30.4743 25.9042 30.7097 25.8997 30.9391 25.9411C31.1686 25.9826 31.3876 26.0692 31.5833 26.1958C32.7042 26.9521 33.7831 27.7685 34.8156 28.6413C35.1513 29.0285 35.4241 29.4659 35.6239 29.9375L35.4523 30.0596Z" fill="#F35757"/>
<path d="M28.8404 64.8351C28.8243 64.5383 28.8858 64.2424 29.0189 63.9766C29.152 63.7107 29.3519 63.4838 29.5994 63.3186C30.5789 62.585 31.5586 61.8758 32.5626 61.191C32.9491 60.9024 33.4344 60.7789 33.912 60.8477C34.3896 60.9165 34.8202 61.172 35.1092 61.5579C35.3982 61.9438 35.5218 62.4288 35.453 62.9058C35.3841 63.3827 35.1285 63.8127 34.7421 64.1014C33.7381 64.8839 32.6851 65.6177 31.6321 66.3269C31.3546 66.5172 31.0259 66.6188 30.6893 66.6188C30.3527 66.6188 30.0239 66.5172 29.7465 66.3269C29.4771 66.1802 29.2513 65.9647 29.0921 65.7027C28.933 65.4407 28.8462 65.1415 28.8404 64.8351Z" fill="#F35757"/>
<path d="M76.3719 26C76.7403 26.0241 77.0944 26.1514 77.3934 26.3678C77.6923 26.5841 77.9238 26.8807 78.0615 27.2228C78.2024 27.5599 78.2335 27.9326 78.1499 28.2882C78.0664 28.6439 77.8727 28.9642 77.5963 29.2035C76.5189 30.0513 75.3924 30.8665 74.217 31.649C74.0204 31.7804 73.7985 31.8695 73.5656 31.9111C73.3328 31.9527 73.0938 31.946 72.8637 31.8908C72.6337 31.8357 72.4177 31.7334 72.2291 31.5908C72.0405 31.4482 71.8837 31.2683 71.7682 31.0621C71.49 30.694 71.3673 30.2316 71.4268 29.7743C71.4863 29.317 71.7234 28.9014 72.0865 28.6166C73.1395 27.7851 74.2414 27.027 75.3678 26.1711C75.6916 26.0622 76.0304 26.0045 76.3719 26Z" fill="#F35757"/>
<path d="M71.5717 62.634C71.5763 62.3186 71.6634 62.0099 71.8243 61.7384C71.9852 61.467 72.2144 61.2421 72.4891 61.0864C72.7638 60.9307 73.0745 60.8494 73.3904 60.8506C73.7062 60.8518 74.0163 60.9355 74.2898 61.0933C75.4163 61.827 76.5184 62.634 77.5714 63.5388C77.7531 63.6795 77.9045 63.855 78.0168 64.0553C78.1291 64.2556 78.1997 64.4764 78.2249 64.7046C78.25 64.9327 78.229 65.1636 78.163 65.3834C78.097 65.6033 77.9874 65.8077 77.8408 65.9844C77.5776 66.3701 77.1718 66.6358 76.7126 66.7229C76.2534 66.81 75.7784 66.7114 75.392 66.4489C74.3145 65.7152 73.2369 64.9328 72.2084 64.1502C71.974 63.9794 71.7909 63.7479 71.6787 63.4806C71.5665 63.2134 71.5293 62.9207 71.5717 62.634Z" fill="#F35757"/>
<path d="M27.8369 47.5208C27.4716 47.5207 27.1145 47.4117 26.8115 47.2079C26.5085 47.0041 26.2734 46.7148 26.136 46.3768C25.9985 46.0388 25.9651 45.6676 26.04 45.3105C26.1149 44.9534 26.2948 44.6267 26.5566 44.3722C26.8183 44.1178 27.1501 43.9472 27.5095 43.882C27.869 43.8169 28.2397 43.8602 28.5743 44.0065C28.9089 44.1529 29.1922 44.3956 29.388 44.7036C29.5838 45.0116 29.6832 45.3709 29.6735 45.7356C29.6607 46.2135 29.4617 46.6676 29.1186 47.0011C28.7756 47.3345 28.3156 47.521 27.8369 47.5208Z" fill="#F35757"/>
<path d="M77.3268 45.6618C77.33 45.4242 77.3802 45.1897 77.4742 44.9713C77.5682 44.753 77.7045 44.5553 77.8751 44.3895C78.0456 44.2237 78.247 44.093 78.4681 44.005C78.6892 43.917 78.9254 43.8734 79.1634 43.8766C79.5287 43.8768 79.8857 43.9857 80.1887 44.1895C80.4917 44.3933 80.7272 44.6826 80.8646 45.0206C81.0021 45.3586 81.0355 45.7299 80.9606 46.0869C80.8856 46.444 80.7058 46.7707 80.444 47.0252C80.1822 47.2796 79.8505 47.4502 79.491 47.5154C79.1316 47.5805 78.7609 47.5372 78.4263 47.3909C78.0917 47.2445 77.8081 47.0018 77.6123 46.6938C77.4165 46.3858 77.3171 46.0265 77.3268 45.6618Z" fill="#F35757"/>
<path d="M51.6639 62.5608V57.4498C49.9023 56.9886 48.3751 55.8904 47.3785 54.3684C47.0856 53.9219 46.8397 53.4464 46.644 52.9498C46.5394 52.7275 46.481 52.4865 46.4727 52.2411C46.4644 51.9956 46.5062 51.751 46.5956 51.5222C46.6849 51.2934 46.82 51.0852 46.9925 50.9102C47.1651 50.7352 47.3714 50.597 47.5991 50.5042C47.8348 50.4117 48.0869 50.3683 48.3401 50.3765C48.5933 50.3847 48.842 50.4444 49.0713 50.552C49.3005 50.6596 49.5054 50.8127 49.6733 51.0022C49.8412 51.1916 49.9688 51.4135 50.0479 51.6539C50.2548 52.1893 50.5838 52.6691 51.0089 53.0554C51.434 53.4418 51.9434 53.7237 52.4967 53.8791C53.3902 54.1557 54.3559 54.0792 55.1945 53.665C56.033 53.2509 56.6802 52.5309 57.0024 51.6539C57.1053 51.351 57.2846 51.0797 57.5231 50.8663C57.7616 50.653 58.0513 50.5047 58.364 50.4359C58.6767 50.367 59.002 50.3798 59.3083 50.4732C59.6145 50.5666 59.8915 50.7375 60.1124 50.969C60.3508 51.2027 60.5132 51.5026 60.5787 51.8297C60.6442 52.1568 60.6098 52.4959 60.4798 52.8032C60.1133 53.8526 59.5126 54.805 58.7236 55.5887C57.9345 56.3725 56.9775 56.967 55.9247 57.3274L55.4106 57.4987V62.5853L51.6639 62.5608Z" fill="#F35757"/>
</g>
<defs>
<clipPath id="clip0_2230_3040">
<rect width="55" height="55" fill="white" transform="translate(26 26)"/>
</clipPath>
</defs>
</svg>
