<svg width="107" height="107" viewBox="0 0 107 107" fill="none" xmlns="http://www.w3.org/2000/svg">
<circle cx="53.5" cy="53.5" r="53.5" fill="#F1F4FC"/>
<g clip-path="url(#clip0_369_1866)">
<path d="M74.1188 52.7637C74.1318 57.1745 72.699 61.4722 70.0321 65.0206C67.3651 68.5691 63.6059 71.1798 59.3109 72.4663C54.8741 73.7476 50.1277 73.5271 45.8336 71.8407C41.5394 70.1542 37.9464 67.0995 35.6318 63.1667C33.5084 59.6531 32.5624 55.5729 32.9271 51.5026C33.1469 48.3977 34.1082 45.3875 35.733 42.7156C37.3579 40.0437 39.6004 37.7853 42.2793 36.1234C46.0069 33.6794 50.4659 32.5445 54.9326 32.9034C55.712 32.9034 56.5143 33.061 57.2249 33.1735C57.6531 33.2414 58.0401 33.4639 58.3103 33.7972C58.5804 34.1306 58.7145 34.551 58.6858 34.9761C58.6571 35.4013 58.4678 35.8008 58.1553 36.0962C57.8427 36.3917 57.4293 36.5619 56.9957 36.5737C56.1705 36.5737 55.3454 36.371 54.5202 36.2809C52.462 36.0874 50.3853 36.3176 48.4227 36.9566C45.5556 37.7689 42.9606 39.3175 40.9057 41.443C38.8508 43.5684 37.4103 46.1937 36.7323 49.0483C35.7924 52.7213 36.149 56.5988 37.7438 60.0469C39.3386 63.495 42.077 66.3094 45.5115 68.0302C48.1299 69.42 51.0902 70.0673 54.0616 69.8993C57.0674 69.7987 59.9914 68.9107 62.5305 67.3271C65.0695 65.7435 67.1315 63.5219 68.5029 60.8924C69.9165 58.3976 70.6137 55.5724 70.5201 52.7186C70.4698 51.7675 70.3626 50.8202 70.1991 49.8814C70.1132 49.5414 70.1328 49.1838 70.2553 48.8548C70.3779 48.5258 70.5976 48.2402 70.8866 48.0349C71.1732 47.8412 71.5131 47.7377 71.8609 47.7377C72.2088 47.7377 72.5486 47.8412 72.8353 48.0349C73.0548 48.1525 73.2421 48.3203 73.3817 48.5241C73.5214 48.7279 73.6092 48.9617 73.6375 49.2058C73.8667 50.4217 73.9812 51.5928 74.1188 52.7637Z" fill="#130D6F"/>
<path d="M65.2709 53.4616C65.3005 56.1834 64.3254 58.8238 62.5259 60.8937C60.7264 62.9637 58.2243 64.3229 55.4829 64.7202C52.3968 65.1417 49.2647 64.3687 46.7479 62.5644C44.2311 60.7601 42.5266 58.0657 41.9941 55.05C41.4616 52.0344 42.1431 48.9333 43.8943 46.4018C45.6455 43.8703 48.3297 42.1066 51.38 41.4825C52.2281 41.3438 53.0877 41.2833 53.9473 41.3022C54.2613 41.2931 54.5718 41.3687 54.8452 41.5207C55.1186 41.6728 55.3442 41.8955 55.4977 42.1647C55.6513 42.434 55.727 42.7395 55.7163 43.0479C55.7056 43.3563 55.6089 43.656 55.437 43.9143C55.2398 44.1982 54.9659 44.4224 54.646 44.5616C54.326 44.7008 53.9729 44.7496 53.6263 44.7023C52.0175 44.6142 50.4192 45.0067 49.0418 45.8282C47.7596 46.5364 46.6952 47.571 45.9611 48.8232C45.2269 50.0753 44.8499 51.4988 44.8698 52.9437C44.7881 54.8974 45.4203 56.8154 46.6519 58.3515C47.8835 59.8875 49.6336 60.9403 51.5862 61.3201C52.8568 61.6084 54.178 61.605 55.4471 61.3102C56.7162 61.0154 57.8991 60.4372 58.9037 59.6203C59.9082 58.8034 60.7074 57.77 61.2393 56.6003C61.7711 55.4306 62.0213 54.1562 61.9702 52.8761C61.9382 52.635 61.9618 52.3899 62.0393 52.159C62.1168 51.928 62.2462 51.7173 62.4179 51.5422C62.5896 51.367 62.799 51.232 63.0309 51.1472C63.2629 51.0624 63.5114 51.03 63.7579 51.0523C64.1402 51.0679 64.5034 51.2209 64.7781 51.4825C65.0529 51.7441 65.2201 52.0961 65.2479 52.4709C65.2938 52.7862 65.2709 53.1238 65.2709 53.4616Z" fill="#130D6F"/>
<path d="M65.4537 41.2795H67.9754C68.1564 41.2572 68.3251 41.1783 68.4567 41.0543L71.1388 38.42C71.3841 38.1652 71.7087 37.998 72.0616 37.945C72.4145 37.892 72.7755 37.9562 73.0871 38.1273C73.4138 38.2806 73.679 38.5365 73.8409 38.8546C74.0029 39.1727 74.0522 39.5347 73.9811 39.8834C73.8926 40.2338 73.7195 40.5583 73.4766 40.8292C72.3763 41.9551 71.1845 43.0809 70.13 44.1392C69.9388 44.3202 69.7122 44.4614 69.4641 44.5542C69.2159 44.6471 68.9513 44.6897 68.6859 44.6796C67.4022 44.6796 66.1187 44.6796 64.8351 44.6796C64.5745 44.6908 64.3247 44.7858 64.1243 44.9498C61.0069 47.9896 57.9124 51.0521 54.772 54.0919C54.4733 54.4 54.0918 54.6186 53.6718 54.7225C53.3259 54.7968 52.9643 54.7496 52.6502 54.5891C52.3361 54.4287 52.0893 54.1651 51.9526 53.8442C51.7787 53.5303 51.7136 53.1692 51.7674 52.8157C51.8212 52.4622 51.9906 52.1356 52.2503 51.8853L54.8179 49.3859L61.6947 42.6307C61.8842 42.4459 61.9911 42.1948 61.9924 41.9325C61.9924 40.6716 61.9924 39.4105 61.9924 38.1495C61.9843 37.8731 62.0352 37.5982 62.1418 37.3422C62.2484 37.0863 62.4084 36.8552 62.6114 36.6636C63.7117 35.6278 64.7662 34.5469 65.8665 33.4886C65.9905 33.2579 66.1681 33.059 66.3847 32.9081C66.6013 32.7571 66.8507 32.6583 67.1133 32.6194C67.3759 32.5806 67.644 32.6028 67.8963 32.6843C68.1485 32.7659 68.3778 32.9045 68.5656 33.0889C68.7534 33.2734 68.8945 33.4986 68.9775 33.7464C69.0605 33.9942 69.0831 34.2575 69.0435 34.5155C69.0039 34.7734 68.9034 35.0185 68.7497 35.2312C68.596 35.444 68.3935 35.6184 68.1587 35.7403C67.3106 36.596 66.4166 37.4291 65.5914 38.2848C65.4339 38.4409 65.3437 38.6505 65.3393 38.8702C65.431 39.6809 65.4537 40.4463 65.4537 41.2795Z" fill="#130D6F"/>
</g>
<defs>
<clipPath id="clip0_369_1866">
<rect width="41.2835" height="40.4409" fill="white" transform="translate(32.8584 32.8582)"/>
</clipPath>
</defs>
</svg>
