<svg width="25" height="25" viewBox="0 0 25 25" fill="none" xmlns="http://www.w3.org/2000/svg">
<path d="M2.73438 14.6484C2.73438 14.7002 2.75495 14.7499 2.79158 14.7865C2.82821 14.8232 2.87789 14.8438 2.92969 14.8438H8.00781V16.748C8.00781 17.0149 8.2219 17.2318 8.4877 17.2363L8.49609 17.2363C8.76577 17.2363 8.98438 17.0177 8.98438 16.748V14.8438H16.0156V16.748C16.0156 17.0149 16.2297 17.2318 16.4955 17.2363L16.5039 17.2363C16.7736 17.2363 16.9922 17.0177 16.9922 16.748V14.8438H22.0703C22.1211 14.8437 22.1698 14.824 22.2062 14.7887C22.2427 14.7534 22.2639 14.7053 22.2655 14.6545L22.2656 14.6484V19.8242C22.2656 21.1726 21.1726 22.2656 19.8242 22.2656H5.17578C3.82744 22.2656 2.73438 21.1726 2.73438 19.8242V14.6484ZM14.6973 4.44336H10.3027V6.34766H14.6973V4.44336ZM2.73438 9.08203C2.73438 7.73369 3.82744 6.64062 5.17578 6.64062H8.59456C8.59402 6.62435 8.59375 6.60808 8.59375 6.5918V4.19922C8.59375 3.39021 9.24958 2.73438 10.0586 2.73438H14.9414C15.7504 2.73438 16.4062 3.39021 16.4062 4.19922V6.5918C16.4062 6.60815 16.406 6.62441 16.4054 6.64062H19.8242C21.1726 6.64062 22.2656 7.73369 22.2656 9.08203V14.0625C22.2656 14.0107 22.245 13.961 22.2084 13.9244C22.1718 13.8878 22.1221 13.8672 22.0703 13.8672H16.9922V11.9629C16.9922 11.696 16.7781 11.4792 16.5123 11.4747L16.5039 11.4746C16.2342 11.4746 16.0156 11.6932 16.0156 11.9629V13.8672H8.98438V11.9629C8.98438 11.696 8.77029 11.4792 8.50449 11.4747L8.49609 11.4746C8.22642 11.4746 8.00781 11.6932 8.00781 11.9629V13.8672H2.92969C2.87894 13.8672 2.83019 13.8869 2.79376 13.9223C2.75732 13.9576 2.73606 14.0057 2.73447 14.0564L2.73438 14.0625V9.08203Z" fill="#B0F809"/>
</svg>
