<svg width="66" height="71" viewBox="0 0 66 71" fill="none" xmlns="http://www.w3.org/2000/svg">
<path d="M4.24395 8.08846H10.2861V4.24347C10.2861 2.42329 11.7616 0.947754 13.5818 0.947754H48.3753C48.958 0.947754 49.5168 1.17924 49.9289 1.59128L57.9797 9.64208C58.3917 10.0541 58.6232 10.613 58.6232 11.1957V59.172C58.6232 60.9922 57.1477 62.4677 55.3275 62.4677H4.24395C2.42378 62.4677 0.948242 60.9922 0.948242 59.172V11.3842C0.948242 9.564 2.42378 8.08846 4.24395 8.08846Z" fill="white" stroke="#1F2937" stroke-width="1.89506"/>
<path d="M48.1885 0.947754V6.9899C48.1885 9.41679 50.1559 11.3842 52.5828 11.3842H58.6249" stroke="black" stroke-width="1.89506"/>
<path d="M10.2897 8.0874V57.0237C10.2897 59.7202 9.19116 62.4667 4.79688 62.4667" stroke="black" stroke-width="1.89506"/>
<rect x="15.7803" y="6.98926" width="9.88714" height="9.88714" rx="2.19714" fill="#D9D9D9"/>
<path d="M28.7422 15.1592H38.08" stroke="black" stroke-width="1.89506"/>
<path d="M16.1064 22.3027L51.2607 22.3027" stroke="black" stroke-width="1.89506"/>
<path d="M16.1064 29.9917L51.2607 29.9917" stroke="black" stroke-width="1.89506"/>
<path d="M16.1064 37.6846L51.2607 37.6846" stroke="black" stroke-width="1.89506"/>
<rect x="43.2412" y="48.7329" width="21.9714" height="21.9714" rx="3.29571" fill="#B0F809"/>
<path d="M54.2256 64.2104V55.2388" stroke="#1F2937" stroke-width="1.28167" stroke-linecap="round" stroke-linejoin="round"/>
<path d="M49.7383 59.7222L54.2241 55.2363L58.71 59.7222" stroke="#1F2937" stroke-width="1.28167" stroke-linecap="round" stroke-linejoin="round"/>
</svg>
