<svg width="24" height="24" viewBox="0 0 24 24" fill="none" xmlns="http://www.w3.org/2000/svg">
<path d="M8.79032 5.25765L8.92943 5.32669C9.49167 5.61434 9.94957 6.06883 10.2394 6.62687L10.3089 6.76495C10.5872 7.31148 11.3755 7.31148 11.6595 6.76495L11.729 6.62687C12.0188 6.06883 12.4767 5.61434 13.039 5.32669L13.1781 5.25765C13.7287 4.98151 13.7287 4.1991 13.1781 3.9172L13.039 3.84816C12.4767 3.56051 12.0188 3.10602 11.729 2.54798L11.6595 2.4099C11.3812 1.86337 10.593 1.86337 10.3089 2.4099L10.2394 2.54798C9.94957 3.10602 9.49167 3.56051 8.92943 3.84816L8.79032 3.9172C8.23967 4.19334 8.23967 4.97575 8.79032 5.25765Z" fill="black"/>
<path d="M9.88581 10.6482C10.4538 10.3606 10.4538 9.56092 9.88581 9.27327L9.03956 8.84179C8.28605 8.45634 7.67164 7.84652 7.28329 7.09862L6.84857 6.25868C6.55876 5.69488 5.75308 5.69488 5.46327 6.25868L5.02855 7.09862C4.6402 7.84652 4.02579 8.45634 3.27228 8.84179L2.42603 9.27327C1.85799 9.56092 1.85799 10.3606 2.42603 10.6482L3.27228 11.0797C4.02579 11.4652 4.6402 12.075 5.02855 12.8229L5.46327 13.6628C5.75308 14.2266 6.55876 14.2266 6.84857 13.6628L7.28329 12.8229C7.67164 12.075 8.28605 11.4652 9.03956 11.0797L9.88581 10.6482Z" fill="black"/>
<path d="M20.7596 14.0886L19.9018 13.6513C18.8642 13.1278 18.0354 12.3051 17.5079 11.2753L17.0674 10.4239C16.679 9.66447 15.9023 9.19273 15.0445 9.19273C14.1866 9.19273 13.4099 9.66447 13.0216 10.4239L12.5811 11.2753C12.0536 12.3051 11.2248 13.1278 10.1872 13.6513L9.32937 14.0886C8.56427 14.474 8.08897 15.2449 8.08897 16.0964C8.08897 16.9478 8.56427 17.7187 9.32937 18.1042L10.1872 18.5414C11.2248 19.0649 12.0536 19.8876 12.5811 20.9174L13.0216 21.7689C13.4099 22.5283 14.1866 23 15.0445 23C15.9023 23 16.679 22.5283 17.0674 21.7689L17.5079 20.9174C18.0354 19.8876 18.8642 19.0649 19.9018 18.5414L20.7596 18.1042C21.5247 17.7187 22 16.9478 22 16.0964C22 15.2449 21.5247 14.474 20.7596 14.0886ZM19.9713 16.5681L19.1135 17.0053C17.7455 17.6957 16.6558 18.7773 15.9603 20.135L15.5198 20.9864C15.3865 21.2453 15.143 21.2741 15.0445 21.2741C14.9459 21.2741 14.7025 21.2453 14.5692 20.9864L14.1287 20.135C13.4331 18.7773 12.3434 17.6957 10.9755 17.0053L10.1177 16.5681C9.85683 16.4358 9.82785 16.1942 9.82785 16.0964C9.82785 15.9986 9.85683 15.7569 10.1177 15.6246L10.9755 15.1874C12.3434 14.497 13.4331 13.4155 14.1287 12.0577L14.5692 11.2063C14.7025 10.9474 14.9459 10.9186 15.0445 10.9186C15.143 10.9186 15.3865 10.9474 15.5198 11.2063L15.9603 12.0577C16.6558 13.4155 17.7455 14.497 19.1135 15.1874L19.9713 15.6246C20.2321 15.7569 20.2611 15.9986 20.2611 16.0964C20.2611 16.1942 20.2321 16.4358 19.9713 16.5681Z" fill="black"/>
</svg>
