<svg width="200" height="200" viewBox="0 0 200 200" fill="none" xmlns="http://www.w3.org/2000/svg">
<path d="M179.141 93.3735L109.964 23.996C108.357 22.3896 106.349 21.5863 104.04 21.5863C101.831 21.5863 99.7229 22.49 98.1165 23.996C95.1044 27.008 94.8032 31.7269 97.4137 35.0402L153.739 91.5663H27.3333C22.7149 91.5663 19 95.2811 19 99.8996C19 104.518 22.7149 108.233 27.3333 108.233H153.739L96.1084 166.064C94.4016 169.478 94.9036 173.494 97.5141 176.104C99.0201 177.61 101.129 178.514 103.438 178.514C105.948 178.514 108.257 177.51 110.064 175.703L114.683 171.084L127.333 158.333L129.743 156.024L179.141 106.426C180.747 104.819 181.651 102.51 181.45 100.1V99.6988C181.55 97.2892 180.747 94.9799 179.141 93.3735Z" fill="black"/>
</svg>
