<svg width="20" height="20" viewBox="0 0 20 20" fill="none" xmlns="http://www.w3.org/2000/svg">
<path d="M9.98149 0C4.46959 0 0 4.54496 0 10.1519C0 14.6373 2.86 18.4428 6.82595 19.7852C7.32479 19.8791 7.50793 19.5649 7.50793 19.2968C7.50793 19.0547 7.49868 18.255 7.49438 17.4067C4.71752 18.0208 4.13157 16.2089 4.13157 16.2089C3.67752 15.0354 3.02331 14.7234 3.02331 14.7234C2.11769 14.0933 3.09157 14.1063 3.09157 14.1063C4.09388 14.1777 4.62165 15.1524 4.62165 15.1524C5.5119 16.7045 6.95669 16.2558 7.52628 15.9964C7.61587 15.3404 7.87455 14.8922 8.16 14.6389C5.94298 14.3821 3.6124 13.5117 3.6124 9.62166C3.6124 8.51329 4.00231 7.60766 4.64083 6.89671C4.53719 6.64084 4.19554 5.60845 4.73752 4.21008C4.73752 4.21008 5.5757 3.93723 7.48314 5.2507C8.27934 5.02577 9.13322 4.91296 9.98149 4.90909C10.8298 4.91296 11.6843 5.02577 12.482 5.2507C14.3871 3.93723 15.2241 4.21008 15.2241 4.21008C15.7674 5.60845 15.4256 6.64084 15.322 6.89671C15.962 7.60766 16.3493 8.51329 16.3493 9.62166C16.3493 13.5209 14.0142 14.3795 11.7916 14.6308C12.1496 14.9458 12.4686 15.5637 12.4686 16.5108C12.4686 17.869 12.457 18.9622 12.457 19.2968C12.457 19.5669 12.6367 19.8835 13.1426 19.7838C17.1064 18.4399 19.9628 14.6358 19.9628 10.1519C19.9628 4.54496 15.4939 0 9.98149 0" fill="black"/>
<path d="M3.7805 14.576C3.75852 14.6266 3.6805 14.6415 3.60943 14.6069C3.53703 14.5738 3.49637 14.505 3.51984 14.4544C3.54133 14.4025 3.61951 14.3882 3.69174 14.4227C3.7643 14.4559 3.80562 14.5254 3.7805 14.576" fill="black"/>
<path d="M4.18479 15.0346C4.13719 15.0795 4.04413 15.0587 3.98099 14.9877C3.9157 14.9169 3.90347 14.8223 3.95173 14.7767C4.00082 14.7318 4.09107 14.7529 4.15653 14.8236C4.22182 14.8952 4.23454 14.9892 4.18479 15.0346" fill="black"/>
<path d="M4.57825 15.6193C4.51709 15.6625 4.41709 15.622 4.35527 15.5317C4.29412 15.4414 4.29412 15.3332 4.3566 15.2898C4.41858 15.2464 4.51709 15.2854 4.57974 15.375C4.64073 15.4666 4.64073 15.5751 4.57825 15.6193" fill="black"/>
<path d="M5.11761 16.1842C5.0629 16.2455 4.94637 16.2291 4.86108 16.1454C4.77381 16.0635 4.74951 15.9473 4.80439 15.886C4.85976 15.8244 4.97695 15.8417 5.0629 15.9248C5.14951 16.0065 5.17596 16.1235 5.11761 16.1842" fill="black"/>
<path d="M5.86137 16.5121C5.83724 16.5917 5.72501 16.6278 5.61195 16.594C5.49906 16.5592 5.42517 16.4661 5.44798 16.3857C5.47145 16.3057 5.58418 16.268 5.69807 16.3042C5.81079 16.3388 5.88484 16.4313 5.86137 16.5121" fill="black"/>
<path d="M6.67819 16.573C6.681 16.6568 6.58514 16.7262 6.46646 16.7275C6.34712 16.7304 6.25059 16.6626 6.24927 16.5803C6.24927 16.4957 6.34299 16.4269 6.46233 16.4249C6.581 16.4226 6.67819 16.4898 6.67819 16.573" fill="black"/>
<path d="M7.43827 16.4414C7.45248 16.5231 7.37 16.607 7.25215 16.6292C7.13628 16.6509 7.02901 16.6004 7.0143 16.5194C6.99992 16.4357 7.08389 16.3518 7.19959 16.3301C7.31761 16.3093 7.42322 16.3583 7.43827 16.4414" fill="black"/>
</svg>
