<svg width="20" height="20" viewBox="0 0 20 20" fill="none" xmlns="http://www.w3.org/2000/svg">
<path d="M10 0C15.5228 1.28852e-07 20 4.47715 20 10C20 15.5228 15.5228 20 10 20C4.47715 20 1.28855e-07 15.5228 0 10C0 4.47715 4.47715 0 10 0ZM4.80078 15.0918H7.06641V8.28223H4.80078V15.0918ZM12.6309 8.12207C11.4277 8.12207 10.8887 8.78345 10.5879 9.24707V8.28223H8.32129C8.35116 8.92115 8.32129 15.0918 8.32129 15.0918H10.5879V11.2891C10.5879 11.0856 10.6022 10.882 10.6621 10.7363C10.8259 10.3299 11.1992 9.90919 11.8252 9.90918C12.6455 9.90918 12.9735 10.5335 12.9736 11.4482V15.0918H15.2393V11.1875C15.2393 9.09624 14.1219 8.12224 12.6309 8.12207ZM5.94922 5C5.17409 5 4.66717 5.50833 4.66699 6.17578C4.66699 6.82946 5.15835 7.35333 5.91895 7.35352H5.93359C6.72379 7.35352 7.21582 6.82958 7.21582 6.17578C7.20096 5.50846 6.72407 5.0002 5.94922 5Z" fill="black"/>
</svg>
