<svg width="1026" height="629" viewBox="0 0 1026 629" fill="none" xmlns="http://www.w3.org/2000/svg">
<path d="M944 12.8522C945.543 13.6875 945.543 13.6875 947.117 14.5397C965.499 24.9014 982.066 38.2346 998.289 51.6373C1002.63 55.1801 1007.04 58.6273 1011.45 62.0787C1011.97 62.5156 1012.49 62.9524 1013.04 63.4025C1014.96 64.9318 1014.96 64.9318 1017.28 65.8826C1020.39 67.5444 1021.97 68.9386 1024 71.8522C1025.83 78.9039 1025.17 86.5834 1025.08 93.8019C1025.09 96.1013 1025.09 98.4007 1025.11 100.7C1025.13 107.024 1025.09 113.347 1025.04 119.671C1025.01 125.788 1025.02 131.905 1025.02 138.022C1025.04 150.536 1025.01 163.048 1024.95 175.561C1024.9 187.951 1024.86 200.34 1024.85 212.73C1024.85 213.5 1024.85 214.27 1024.85 215.064C1024.85 218.976 1024.85 222.888 1024.84 226.8C1024.82 254.51 1024.76 282.219 1024.68 309.929C1024.6 336.849 1024.53 363.768 1024.49 390.688C1024.49 392.381 1024.49 394.073 1024.49 395.766C1024.47 409.521 1024.45 423.275 1024.43 437.03C1024.35 500.638 1024.17 564.245 1024 627.852C937.21 627.852 850.42 627.852 761 627.852C764.508 624.344 767.746 622.07 771.937 619.602C786.46 610.771 800.35 600.227 812.498 588.323C813.583 587.26 814.675 586.205 815.771 585.155C824.667 576.627 832.79 567.855 840 557.852C840.655 556.947 840.655 556.947 841.324 556.025C847.712 547.1 852.761 537.97 857 527.852C857.411 526.874 857.822 525.895 858.246 524.887C865.191 507.155 865.844 483.941 858.937 466.102C852.765 452.359 845.283 440.846 835 429.852C834.291 429.071 834.291 429.071 833.567 428.275C821.538 415.074 806.548 405.685 791.063 397.009C789.738 396.266 788.417 395.516 787.1 394.757C768.443 384.022 747.712 375.786 727.312 369.001C724 367.852 724 367.852 720.863 366.446C715.49 364.095 709.81 362.611 704.187 360.977C702.978 360.623 701.769 360.268 700.524 359.903C691.851 357.37 683.168 354.885 674.449 352.519C671.642 351.755 668.839 350.979 666.035 350.204C614.31 335.987 561.149 325.971 508.309 316.869C398.213 297.901 401.5 301.852 383.5 283.352C381.031 280.815 379.309 273.957 381 270.852C389.665 254.941 413.888 250.767 430 244.852C447.865 238.236 463.188 229.801 478 217.852C478.827 217.199 478.827 217.199 479.67 216.532C488.508 209.513 496.463 201.568 504.437 193.602C504.958 193.082 505.479 192.563 506.016 192.027C511.363 186.679 516.641 181.306 521.533 175.531C523.115 173.72 524.784 172.035 526.5 170.352C528.834 168.054 531.046 165.706 533.187 163.227C545.207 149.342 557.903 135.653 572 123.852C572.949 123.014 573.897 122.176 574.875 121.313C594.148 104.392 617.496 90.2692 643.949 91.4889C660.222 92.7161 675.697 101.526 690.449 107.912C706.312 114.731 723.094 118.048 739.879 112.172C749.82 107.967 757.868 101.841 766 94.8522C767.464 93.6649 767.464 93.6649 768.957 92.4537C778.399 84.7242 786.925 76.0814 795.473 67.3929C800.256 62.5396 805.065 57.8011 810.252 53.3749C812.974 51.0031 815.48 48.4353 818 45.8522C822.505 41.3039 827.058 36.93 832 32.8522C832.519 32.4194 833.038 31.9866 833.573 31.5407C846.737 20.6013 860.105 11.3584 876 4.85218C877.061 4.41647 878.122 3.98077 879.215 3.53186C901.879 -4.32501 923.841 1.86979 944 12.8522Z" fill="#030303"/>
<path d="M0 231.852C135.96 231.852 271.92 231.852 412 231.852C408.999 234.853 405.267 234.978 401.227 235.735C400.328 235.91 399.43 236.085 398.504 236.266C396.561 236.644 394.618 237.02 392.674 237.392C387.527 238.38 382.384 239.395 377.242 240.411C376.204 240.616 375.165 240.82 374.095 241.031C359.001 244.022 343.996 247.408 329 250.852C327.223 251.256 327.223 251.256 325.41 251.668C311.303 254.881 297.489 258.673 283.692 263.022C281.136 263.81 278.571 264.554 275.996 265.278C266.451 267.978 257.218 271.181 248 274.852C246.986 275.255 245.971 275.659 244.926 276.074C227.247 282.57 227.247 282.57 213.789 294.887C212.597 297.856 212.5 299.667 213 302.852C221.746 317.612 245.793 321.757 261 325.852C267.406 327.489 273.851 328.917 280.32 330.28C282.981 330.848 285.633 331.447 288.285 332.055C305.409 335.95 322.701 338.87 340 341.852C467.741 363.871 467.741 363.871 506.036 375.276C508.933 376.126 511.846 376.921 514.758 377.719C517.047 378.348 519.332 378.987 521.617 379.63C524.347 380.396 527.078 381.135 529.82 381.856C550.464 387.415 571.241 395.616 590 405.852C591.003 406.36 592.006 406.868 593.039 407.391C606.369 414.258 619.16 424.711 625 438.852C628.173 449.176 625.585 459.404 621 468.852C618.301 473.133 615.271 476.996 612 480.852C611.276 481.727 610.551 482.603 609.805 483.505C604.454 489.727 598.533 494.911 592 499.852C591.047 500.577 591.047 500.577 590.074 501.317C578.534 510.032 566.517 517.628 554 524.852C553.128 525.362 552.256 525.872 551.358 526.398C515.264 547.497 477.399 564.003 438 577.852C436.135 578.51 436.135 578.51 434.232 579.18C413.306 586.543 392.36 593.609 370.882 599.193C365.264 600.662 359.692 602.235 354.139 603.934C343.158 607.29 332.106 610.23 320.961 612.992C318.056 613.713 315.153 614.444 312.25 615.176C308.251 616.182 304.244 617.145 300.229 618.088C295.418 619.231 290.674 620.511 285.925 621.887C258.648 629.343 231.394 628.919 203.312 628.679C196.23 628.62 189.148 628.615 182.066 628.609C163.46 628.567 144.855 628.456 126.25 628.352C84.5875 628.187 42.925 628.022 0 627.852C0 497.172 0 366.492 0 231.852Z" fill="#030303"/>
</svg>
