<svg width="654" height="473" viewBox="0 0 654 473" fill="none" xmlns="http://www.w3.org/2000/svg">
<g clip-path="url(#clip0_2253_3532)">
<path d="M574.668 60.1599V72.1499H607.588C609.108 70.0399 609.998 67.4599 609.998 64.6599C609.998 62.4299 609.438 60.3399 608.438 58.5099C605.718 58.4999 603.508 56.2799 603.508 53.5599V53.4899C603.538 51.1899 605.158 49.2699 607.308 48.7599C607.678 48.6699 608.058 48.6199 608.458 48.6199C611.188 48.6199 613.398 50.8299 613.398 53.5599C613.398 53.9899 613.338 54.4099 613.228 54.8099C614.978 57.6699 615.988 61.0299 615.988 64.6299C615.988 67.3099 615.428 69.8499 614.418 72.1499H619.598V60.1599C619.598 47.7999 609.488 37.6899 597.138 37.6899C590.958 37.6899 585.338 40.2199 581.268 44.2899C577.198 48.3599 574.668 53.9799 574.668 60.1599Z" fill="white" stroke="#BDBDBD" stroke-width="2" stroke-miterlimit="10" stroke-linecap="round" stroke-linejoin="round"/>
<path d="M578.668 24.3198C578.668 34.9298 587.268 43.5298 597.878 43.5298C607.048 43.5298 614.718 37.1098 616.638 28.5198C616.138 28.7298 615.588 28.8498 615.018 28.8498C612.738 28.8498 610.878 26.9998 610.878 24.7098C610.878 23.9798 611.068 23.2798 611.408 22.6898L610.618 16.3298C610.368 16.3698 610.108 16.3898 609.848 16.3898C607.008 16.3898 604.698 14.1098 604.668 11.2798H583.768C580.598 14.6998 578.668 19.2898 578.668 24.3198Z" fill="#FFC9C5" stroke="#C89996" stroke-width="2" stroke-miterlimit="10" stroke-linecap="round" stroke-linejoin="round"/>
<path d="M597.688 20.3999V22.6899" stroke="#333333" stroke-width="2" stroke-miterlimit="10" stroke-linecap="round" stroke-linejoin="round"/>
<path d="M587.938 20.3999V22.6899" stroke="#333333" stroke-width="2" stroke-miterlimit="10" stroke-linecap="round" stroke-linejoin="round"/>
<path d="M598.179 15.3501H597.139" stroke="#333333" stroke-width="2" stroke-miterlimit="10" stroke-linecap="round" stroke-linejoin="round"/>
<path d="M588.478 15.3501H587.438" stroke="#333333" stroke-width="2" stroke-miterlimit="10" stroke-linecap="round" stroke-linejoin="round"/>
<path d="M598.178 27.9502C598.178 27.9502 597.688 33.1802 593.058 33.1802C588.488 33.1802 587.938 27.9502 587.938 27.9502" stroke="#FF575D" stroke-width="2" stroke-miterlimit="10" stroke-linecap="round" stroke-linejoin="round"/>
<path d="M610.869 24.7098C610.869 26.9898 612.719 28.8498 615.009 28.8498C615.579 28.8498 616.129 28.7398 616.629 28.5198V28.5098C618.109 27.8898 619.149 26.4198 619.149 24.7098C619.149 23.9798 618.969 23.2798 618.629 22.6898C618.209 21.9498 617.569 21.3498 616.799 20.9798C616.259 20.7198 615.659 20.5698 615.019 20.5698C613.469 20.5698 612.119 21.4298 611.409 22.6898C611.069 23.2798 610.869 23.9798 610.869 24.7098Z" fill="#FFC9C5" stroke="#C89996" stroke-width="2" stroke-miterlimit="10" stroke-linecap="round" stroke-linejoin="round"/>
<path d="M580.039 6.04C580.039 7.96 581.079 9.62 582.619 10.51C583.039 10.75 583.499 10.94 583.979 11.05C583.909 11.12 583.839 11.2 583.769 11.27H604.669C604.699 14.1 606.999 16.38 609.849 16.38C610.109 16.38 610.369 16.36 610.619 16.32L611.409 22.68C612.109 21.42 613.469 20.56 615.019 20.56C615.659 20.56 616.259 20.7 616.799 20.97C616.369 18.47 615.459 16.15 614.139 14.08C613.299 12.75 612.309 11.51 611.159 10.43C609.979 9.29 608.649 8.31 607.209 7.51C607.009 7.39 606.799 7.29 606.589 7.18C603.969 5.85 601.019 5.09 597.879 5.09H588.689C586.419 4.88 584.579 3.2 584.129 1C581.779 1.49 580.039 3.56 580.039 6.04Z" fill="#726453" stroke="#5E5858" stroke-width="2" stroke-miterlimit="10" stroke-linecap="round" stroke-linejoin="round"/>
<path d="M574.668 72.1499V77.3499C574.668 78.2899 574.728 79.2099 574.858 80.1199H600.568C600.278 79.4799 600.108 78.7699 600.108 78.0199C600.108 77.7199 600.138 77.4299 600.188 77.1499C600.598 74.8299 602.618 73.0799 605.048 73.0799C605.598 73.0799 606.128 73.1699 606.618 73.3399C606.968 72.9599 607.288 72.5699 607.588 72.1499H574.668V72.1499Z" fill="#2B88B8" stroke="#175382" stroke-width="2" stroke-miterlimit="10" stroke-linecap="round" stroke-linejoin="round"/>
<path d="M609.518 80.1199H619.448C619.548 79.2999 619.598 78.4699 619.598 77.6299V72.1499H614.418C613.388 74.5499 611.858 76.6799 609.978 78.4299C609.928 79.0299 609.768 79.5999 609.518 80.1199Z" fill="#2B88B8" stroke="#175382" stroke-width="2" stroke-miterlimit="10" stroke-linecap="round" stroke-linejoin="round"/>
<path d="M580.921 80.1235L591.131 80.1235L591.131 72.1535L580.921 72.1535L580.921 80.1235Z" fill="#2B88B8" stroke="#175382" stroke-width="2" stroke-miterlimit="10" stroke-linecap="round" stroke-linejoin="round"/>
<path d="M574.857 80.1201C575.547 85.5101 578.267 90.2601 582.217 93.5901C585.087 96.0201 588.617 97.7001 592.487 98.3201C591.877 97.7801 591.297 97.2001 590.747 96.5901C590.587 96.4101 590.427 96.2201 590.267 96.0301C590.157 95.9001 590.047 95.7701 589.947 95.6301C589.937 95.6201 589.927 95.6001 589.917 95.5901C589.757 95.4101 589.617 95.2201 589.477 95.0201C589.467 95.0101 589.457 94.9901 589.447 94.9801C589.397 94.9301 589.357 94.8801 589.327 94.8201C589.117 94.5501 588.927 94.2701 588.747 93.9901C588.527 93.6701 588.327 93.3501 588.137 93.0201C588.137 93.0201 588.127 93.0201 588.127 93.0101C587.937 92.6801 587.757 92.3501 587.577 92.0201C587.537 91.9501 587.507 91.8701 587.467 91.8001C587.327 91.5301 587.197 91.2601 587.077 90.9901C586.947 90.7001 586.827 90.4201 586.707 90.1201C586.587 89.8301 586.467 89.5301 586.367 89.2301C586.267 88.9801 586.187 88.7301 586.107 88.4701C586.097 88.4401 586.087 88.4101 586.077 88.3801C586.067 88.3301 586.047 88.2901 586.037 88.2401C585.957 87.9701 585.877 87.7101 585.807 87.4301C585.707 87.0801 585.627 86.7301 585.547 86.3701C585.457 85.9501 585.377 85.5301 585.317 85.1101C585.277 84.8901 585.247 84.6701 585.227 84.4501V84.4101C585.187 84.1601 585.167 83.9201 585.147 83.6701C585.117 83.3701 585.097 83.0701 585.087 82.7701C585.067 82.4201 585.057 82.0701 585.057 81.7101V80.1201H574.857V80.1201Z" fill="#2B88B8" stroke="#175382" stroke-width="2" stroke-miterlimit="10" stroke-linecap="round" stroke-linejoin="round"/>
<path d="M585.059 80.1201V81.7101C585.059 82.0701 585.069 82.4201 585.089 82.7701C585.099 83.0701 585.119 83.3701 585.149 83.6701C585.169 83.9201 585.199 84.1601 585.229 84.4101V84.4501C585.249 84.6701 585.279 84.8901 585.319 85.1101C585.379 85.5301 585.459 85.9501 585.549 86.3701C585.629 86.7301 585.709 87.0801 585.809 87.4301C585.879 87.7101 585.959 87.9701 586.039 88.2401C586.049 88.2901 586.069 88.3301 586.079 88.3801C586.089 88.4101 586.099 88.4401 586.109 88.4701C586.189 88.7301 586.279 88.9801 586.369 89.2301C586.469 89.5301 586.589 89.8301 586.709 90.1201C586.829 90.4201 586.949 90.7001 587.079 90.9901C587.199 91.2601 587.329 91.5301 587.469 91.8001C587.509 91.8701 587.539 91.9501 587.579 92.0201C587.759 92.3501 587.939 92.6801 588.129 93.0101C588.129 93.0201 588.139 93.0201 588.139 93.0201C588.329 93.3501 588.529 93.6701 588.749 93.9901C588.929 94.2701 589.119 94.5501 589.329 94.8201C589.359 94.8801 589.399 94.9301 589.449 94.9801C589.459 94.9901 589.469 95.0101 589.479 95.0201C589.619 95.2201 589.759 95.4101 589.919 95.5901C589.929 95.6001 589.939 95.6201 589.949 95.6301C590.049 95.7701 590.159 95.9001 590.269 96.0301C590.429 96.2201 590.589 96.4101 590.749 96.5901C591.299 97.2001 591.879 97.7801 592.489 98.3201C592.989 98.4101 593.489 98.4801 593.999 98.5201C594.639 98.5801 595.279 98.6101 595.929 98.6101H598.619C599.399 98.6101 600.169 98.5701 600.929 98.4801V94.9601C600.929 93.3201 601.599 91.8301 602.689 90.7401C603.769 89.6601 605.259 88.9901 606.899 88.9901C609.599 88.9901 611.889 90.8001 612.619 93.2601C616.309 89.9401 618.829 85.3201 619.449 80.1201H609.519C608.739 81.8001 607.029 82.9601 605.049 82.9601C604.339 82.9601 603.659 82.8101 603.049 82.5301C601.959 82.0501 601.079 81.1901 600.569 80.1201H585.059V80.1201Z" fill="#2B88B8" stroke="#175382" stroke-width="2" stroke-miterlimit="10" stroke-linecap="round" stroke-linejoin="round"/>
<path d="M596.859 127.62C596.859 129.06 596.409 130.4 595.629 131.5C595.859 131.83 596.119 132.14 596.399 132.42C597.629 133.66 599.329 134.42 601.199 134.42H609.219C612.959 134.42 616.009 131.36 616.009 127.62C616.009 125.76 615.249 124.06 614.019 122.83C612.999 121.81 611.649 121.1 610.149 120.91V116.98H603.659V120.83H601.199C598.899 120.83 596.859 121.99 595.629 123.75C596.409 124.85 596.859 126.19 596.859 127.62Z" fill="#FFC9C5" stroke="#C89996" stroke-width="2" stroke-miterlimit="10" stroke-linecap="round" stroke-linejoin="round"/>
<path d="M575.258 127.62C575.258 129.49 576.018 131.19 577.248 132.42C578.478 133.66 580.178 134.42 582.048 134.42H590.068C592.368 134.42 594.408 133.26 595.628 131.5C596.408 130.4 596.858 129.06 596.858 127.62C596.858 126.19 596.408 124.85 595.628 123.75C595.408 123.42 595.148 123.11 594.868 122.83C593.908 121.87 592.658 121.19 591.268 120.95V116.98H584.778V120.83H582.048C578.308 120.83 575.258 123.89 575.258 127.62Z" fill="#FFC9C5" stroke="#C89996" stroke-width="2" stroke-miterlimit="10" stroke-linecap="round" stroke-linejoin="round"/>
<path d="M582.059 94.9598V116.98H593.999V98.5198C593.489 98.4798 592.989 98.4098 592.489 98.3198C588.619 97.6998 585.089 96.0198 582.219 93.5898C582.119 94.0298 582.059 94.4898 582.059 94.9598Z" fill="#2B88B8" stroke="#175382" stroke-width="2" stroke-miterlimit="10" stroke-linecap="round" stroke-linejoin="round"/>
<path d="M600.107 78.0201C600.107 78.7701 600.277 79.4801 600.567 80.1201C601.077 81.1901 601.957 82.0501 603.047 82.5301C603.657 82.8101 604.337 82.9601 605.047 82.9601C607.027 82.9601 608.737 81.8001 609.517 80.1201C609.767 79.6001 609.927 79.0301 609.977 78.4301C611.857 76.6801 613.387 74.5501 614.417 72.1501C615.427 69.8501 615.987 67.3101 615.987 64.6301C615.987 61.0301 614.977 57.6701 613.227 54.8101C613.337 54.4101 613.397 53.9901 613.397 53.5601C613.397 50.8301 611.187 48.6201 608.457 48.6201C608.057 48.6201 607.677 48.6701 607.307 48.7601C605.157 49.2701 603.537 51.1901 603.507 53.4901V53.5601C603.507 56.2801 605.717 58.5001 608.437 58.5101C609.437 60.3401 609.997 62.4301 609.997 64.6601C609.997 67.4601 609.107 70.0401 607.587 72.1501C607.287 72.5701 606.967 72.9601 606.617 73.3401C606.127 73.1701 605.597 73.0801 605.047 73.0801C602.617 73.0801 600.597 74.8301 600.187 77.1501C600.137 77.4301 600.107 77.7201 600.107 78.0201Z" fill="#FFC9C5" stroke="#C89996" stroke-width="2" stroke-miterlimit="10" stroke-linecap="round" stroke-linejoin="round"/>
<path d="M600.928 94.9602V116.98H612.868V94.9602C612.868 94.3702 612.778 93.8002 612.618 93.2602C611.888 90.8002 609.598 88.9902 606.898 88.9902C605.258 88.9902 603.768 89.6602 602.688 90.7402C601.598 91.8302 600.928 93.3202 600.928 94.9602Z" fill="#2B88B8" stroke="#175382" stroke-width="2" stroke-miterlimit="10" stroke-linecap="round" stroke-linejoin="round"/>
<path d="M550.709 66.1302C551.169 68.0602 552.699 69.4502 554.509 69.8202C555.069 69.9402 555.669 69.9602 556.259 69.8702C558.399 71.2902 560.829 72.2802 563.399 72.7302C565.879 73.1702 568.479 73.1302 571.079 72.5002C572.339 72.2002 573.539 71.7802 574.669 71.2402V64.2502C573.239 65.3802 571.549 66.2302 569.659 66.6802C566.929 67.3402 564.219 67.0702 561.809 66.0802C561.329 65.8902 560.879 65.6702 560.429 65.4202C560.479 64.9002 560.439 64.3702 560.319 63.8302C559.749 61.4702 557.579 59.9102 555.229 60.0502C554.939 60.0702 554.649 60.1102 554.359 60.1802C553.629 60.3502 552.979 60.6802 552.429 61.1202C551.499 61.8602 550.869 62.9202 550.659 64.0902C550.529 64.7502 550.539 65.4402 550.709 66.1302Z" fill="#FFC9C5" stroke="#C89996" stroke-width="2" stroke-miterlimit="10" stroke-linecap="round" stroke-linejoin="round"/>
</g>
<g clip-path="url(#clip1_2253_3532)">
<path d="M478.779 198.8L454.249 216.78L441.369 226.23C423.209 204.85 396.139 191.29 365.889 191.29V145C411.459 145 452.139 165.98 478.779 198.8Z" fill="#98C091"/>
<path d="M511.208 290.32C511.208 370.57 446.148 435.63 365.888 435.63C285.628 435.63 220.568 370.57 220.568 290.32C220.568 210.06 285.628 145 365.888 145V191.29C311.198 191.29 266.868 235.63 266.868 290.31C266.868 345 311.198 389.34 365.888 389.34C420.578 389.34 464.908 345 464.908 290.31C464.908 265.87 456.058 243.5 441.368 226.23L454.248 216.78L478.778 198.8C499.048 223.79 511.208 255.63 511.208 290.32Z" fill="#FF7876"/>
</g>
<path d="M42.5684 472H228.552L285.568 390" stroke="black"/>
<g clip-path="url(#clip2_2253_3532)">
<path d="M91.6337 454.2C91.6337 455.64 92.0853 456.98 92.8679 458.08C92.6371 458.41 92.3762 458.72 92.0953 459C90.8611 460.24 89.1552 461 87.2788 461H79.2313C75.4784 461 72.418 457.94 72.418 454.2C72.418 452.339 73.1806 450.639 74.4148 449.409C75.4383 448.389 76.7929 447.679 78.2981 447.489V425.147L84.8104 425.167V447.409H87.2788C89.5867 447.409 91.6337 448.569 92.8679 450.329C92.0853 451.429 91.6337 452.77 91.6337 454.2Z" fill="#FFC9C5" stroke="#C89996" stroke-width="2" stroke-miterlimit="10" stroke-linecap="round" stroke-linejoin="round"/>
<path d="M113.309 454.199C113.309 456.069 112.546 457.769 111.312 459C110.078 460.24 108.372 461 106.496 461H98.4481C96.1402 461 94.0932 459.84 92.869 458.08C92.0863 456.979 91.6348 455.639 91.6348 454.199C91.6348 452.769 92.0863 451.429 92.869 450.329C93.0897 449.999 93.3506 449.689 93.6316 449.409C94.5949 448.449 95.8492 447.769 97.244 447.529V425.207L103.756 425.237V447.409H106.496C110.248 447.409 113.309 450.469 113.309 454.199Z" fill="#FFC9C5" stroke="#C89996" stroke-width="2" stroke-miterlimit="10" stroke-linecap="round" stroke-linejoin="round"/>
<path d="M138.425 392.705C137.963 394.635 136.428 396.025 134.612 396.395C134.05 396.515 133.448 396.535 132.856 396.445C130.709 397.865 128.27 398.855 125.691 399.305C123.203 399.745 120.594 399.705 117.985 399.075C116.721 398.775 115.517 398.355 114.383 397.815V390.825C115.818 391.955 117.514 392.805 119.41 393.255C122.149 393.915 124.869 393.645 127.287 392.655C127.769 392.465 128.22 392.245 128.672 391.995C128.622 391.475 128.662 390.945 128.782 390.405C129.354 388.045 131.531 386.484 133.89 386.624C134.181 386.644 134.472 386.684 134.763 386.754C135.495 386.924 136.147 387.254 136.699 387.695C137.632 388.435 138.265 389.495 138.475 390.665C138.606 391.325 138.596 392.015 138.425 392.705Z" fill="#FFC9C5" stroke="#C89996" stroke-width="2" stroke-miterlimit="10" stroke-linecap="round" stroke-linejoin="round"/>
<path d="M107.81 370.923C103.747 366.833 98.1173 364.283 91.9261 364.263C79.5237 364.223 69.3388 374.304 69.2987 386.665L69.1582 425.117L78.2995 425.147L84.8118 425.167L97.2443 425.207L103.757 425.237L114.242 425.267L114.383 386.815C114.403 380.634 111.884 375.004 107.81 370.923ZM105.121 404.616C105.111 404.626 105.111 404.626 105.111 404.626C101.669 408.006 96.9734 410.076 91.7655 410.056C81.3098 410.026 72.8709 401.556 72.901 391.145C72.911 387.855 73.764 384.764 75.2591 382.084C74.9881 381.474 74.8376 380.784 74.8376 380.074C74.8477 377.344 77.0753 375.144 79.8147 375.154C80.3866 375.154 80.9385 375.264 81.4503 375.444C83.3869 376.114 84.7616 377.954 84.7515 380.114C84.7515 380.244 84.7515 380.374 84.7315 380.494C84.5509 382.794 82.8049 384.644 80.5472 384.974C79.5237 386.815 78.9316 388.935 78.9216 391.195C78.9015 398.295 84.6512 404.076 91.7856 404.096C94.8862 404.106 97.736 403.026 99.9736 401.206C99.8131 400.726 99.7328 400.216 99.7328 399.685C99.7428 397.115 101.71 395.015 104.228 394.785C104.389 394.765 104.559 394.755 104.72 394.755C106.907 394.765 108.774 396.185 109.416 398.155V398.165C109.576 398.655 109.667 399.185 109.657 399.725C109.647 402.316 107.66 404.426 105.121 404.616Z" fill="#FF8078" stroke="#BD6767" stroke-width="2" stroke-miterlimit="10" stroke-linecap="round" stroke-linejoin="round"/>
<path d="M79.8041 352.892C79.8041 354.772 78.5097 356.362 76.7637 356.822C76.4326 356.902 76.0914 356.952 75.7302 356.952C75.1683 356.952 74.6364 356.842 74.1548 356.632H74.1448C73.7434 356.462 73.3822 356.232 73.0611 355.952C72.1981 355.212 71.6562 354.112 71.6562 352.892C71.6562 351.272 72.6095 349.872 73.9842 349.232C74.2953 349.072 74.6364 348.962 74.9876 348.902H74.9977C75.2385 348.852 75.4793 348.832 75.7302 348.832C76.4627 348.832 77.145 349.022 77.7371 349.362C78.9713 350.052 79.8041 351.382 79.8041 352.892Z" fill="#FFC9C5" stroke="#C89996" stroke-width="2" stroke-miterlimit="10" stroke-linecap="round" stroke-linejoin="round"/>
<path d="M111.613 352.572C111.613 353.912 111.462 355.222 111.201 356.482C110.007 361.983 106.425 366.583 101.598 369.153C98.9193 370.583 95.8688 371.383 92.6378 371.373C88.2628 371.353 84.229 369.863 81.0281 367.343C81.3692 366.423 81.5699 365.433 81.5699 364.393C81.58 361.053 79.6534 358.152 76.8438 356.772C78.5897 356.322 79.8942 354.732 79.8942 352.852C79.9042 351.342 79.0714 350.012 77.8371 349.312C78.2486 349.342 78.67 349.362 79.1015 349.362C87.8012 349.402 94.8754 342.431 94.9758 333.791C104.368 334.911 111.643 342.901 111.613 352.572Z" fill="#FFC9C5" stroke="#C89996" stroke-width="2" stroke-miterlimit="10" stroke-linecap="round" stroke-linejoin="round"/>
<path d="M92.8691 355.682C92.8691 355.682 93.3307 360.823 97.8963 360.843C102.402 360.863 102.954 355.722 102.954 355.722" stroke="#FF575D" stroke-width="2" stroke-miterlimit="10" stroke-linecap="round" stroke-linejoin="round"/>
<path d="M92.7891 348.662V350.902" stroke="#333333" stroke-width="2" stroke-miterlimit="10" stroke-linecap="round" stroke-linejoin="round"/>
<path d="M102.502 348.702L102.492 350.942" stroke="#333333" stroke-width="2" stroke-miterlimit="10" stroke-linecap="round" stroke-linejoin="round"/>
<path d="M92.3164 343.701H93.3399" stroke="#333333" stroke-width="2" stroke-miterlimit="10" stroke-linecap="round" stroke-linejoin="round"/>
<path d="M101.98 343.741H103.004" stroke="#333333" stroke-width="2" stroke-miterlimit="10" stroke-linecap="round" stroke-linejoin="round"/>
<path d="M117.262 364.633C117.242 369.313 113.429 373.093 108.733 373.073C106.897 373.063 105.201 372.483 103.826 371.493C102.933 370.863 102.181 370.063 101.599 369.143C106.435 366.583 110.008 361.973 111.202 356.472C111.462 355.212 111.613 353.902 111.613 352.562C111.643 342.901 104.368 334.911 94.9761 333.79C94.8757 342.431 87.8116 349.402 79.1118 349.372C78.6803 349.372 78.2589 349.352 77.8475 349.322C77.2555 348.982 76.5731 348.792 75.8406 348.782C75.5898 348.782 75.3489 348.802 75.1081 348.852H75.0981C74.7469 348.912 74.4057 349.022 74.0947 349.182C72.72 349.822 71.7567 351.212 71.7567 352.832C71.7567 354.052 72.2885 355.152 73.1514 355.892C73.4725 356.172 73.8338 356.402 74.2351 356.572H74.2452C74.7268 356.782 75.2586 356.892 75.8206 356.902C76.1818 356.902 76.523 356.852 76.8541 356.772C79.6737 358.152 81.6003 361.053 81.5803 364.393C81.5803 365.433 81.3796 366.423 81.0384 367.343C80.5367 368.703 79.6737 369.903 78.59 370.823C77.105 372.073 75.1583 372.843 73.0511 372.833C68.355 372.813 64.562 369.013 64.5821 364.333C64.5921 360.932 66.609 358.002 69.529 356.672C69.2581 355.302 69.1277 353.882 69.1277 352.432C69.1377 350.352 69.4187 348.342 69.9705 346.431C72.6296 336.911 81.3896 329.96 91.7751 330C92.7284 330 93.6716 330.07 94.5948 330.19C105.733 331.61 114.312 341.101 114.272 352.582C114.262 354.332 114.061 356.042 113.66 357.682C115.847 359.212 117.272 361.763 117.262 364.633Z" fill="#726453" stroke="#5E5858" stroke-width="2" stroke-miterlimit="10" stroke-linecap="round" stroke-linejoin="round"/>
<path d="M109.666 399.715C109.656 402.305 107.659 404.416 105.12 404.606C105.11 404.616 105.11 404.616 105.11 404.616C101.679 407.996 96.9726 410.066 91.7648 410.046C81.309 410.016 72.8702 401.545 72.9103 391.135C72.9203 387.844 73.7733 384.754 75.2684 382.074C74.9874 381.464 74.8369 380.784 74.8469 380.074C74.857 377.344 77.0846 375.143 79.824 375.153C80.3959 375.153 80.9478 375.253 81.4595 375.443C83.3962 376.123 84.7709 377.954 84.7608 380.114C84.7608 380.244 84.7608 380.374 84.7408 380.494C84.5602 382.794 82.8142 384.644 80.5565 384.984C79.5229 386.824 78.9409 388.934 78.9309 391.195C78.9108 398.295 84.6605 404.076 91.7949 404.096C94.8955 404.106 97.7453 403.025 99.9829 401.205C99.8224 400.725 99.7421 400.215 99.7521 399.685C99.7622 397.115 101.729 395.015 104.248 394.785C104.408 394.765 104.579 394.755 104.739 394.755C106.927 394.765 108.793 396.185 109.435 398.165V398.175C109.576 398.655 109.666 399.175 109.666 399.715Z" fill="#FFC9C5" stroke="#BD6767" stroke-width="2" stroke-miterlimit="10" stroke-linecap="round" stroke-linejoin="round"/>
</g>
<path d="M653.068 141.5H448.068L425.568 175.5" stroke="black"/>
<path d="M141.296 401.864H152.768V403.568H143.264V409.328H152.264V411.032H143.264V419H141.296V401.864ZM160.02 406.256C162.012 406.256 163.524 406.928 164.532 408.272C165.444 409.472 165.924 411.176 165.972 413.336H156.18C156.276 414.728 156.636 415.808 157.308 416.576C157.98 417.344 158.916 417.728 160.092 417.728C161.1 417.728 161.94 417.464 162.564 416.96C163.092 416.528 163.5 415.88 163.812 415.016H165.732C165.444 416.216 164.892 417.176 164.052 417.944C163.02 418.856 161.7 419.336 160.092 419.336C158.316 419.336 156.876 418.736 155.82 417.584C154.716 416.384 154.188 414.8 154.188 412.784C154.188 410.96 154.692 409.424 155.748 408.2C156.804 406.904 158.22 406.256 160.02 406.256ZM160.068 407.864C158.964 407.864 158.076 408.224 157.404 408.944C156.732 409.664 156.348 410.624 156.228 411.848H163.98C163.74 409.184 162.42 407.864 160.068 407.864ZM173.644 406.256C175.54 406.256 176.836 407.024 177.532 408.608C178.012 407.792 178.588 407.192 179.26 406.832C179.86 406.448 180.58 406.256 181.444 406.256C182.74 406.256 183.772 406.664 184.588 407.48C185.356 408.32 185.764 409.448 185.764 410.864V419H183.844V411.176C183.844 410.072 183.604 409.256 183.148 408.728C182.668 408.152 181.9 407.888 180.844 407.888C180.028 407.888 179.332 408.176 178.804 408.8C178.228 409.424 177.964 410.216 177.964 411.224V419H176.044V411.176C176.044 408.968 175.084 407.888 173.188 407.888C172.3 407.888 171.58 408.224 171.004 408.944C170.428 409.616 170.14 410.456 170.14 411.44V419H168.22V406.592H170.14V408.248C171.076 406.904 172.252 406.256 173.644 406.256ZM194.152 406.256C195.928 406.256 197.224 406.712 198.088 407.648C198.808 408.464 199.192 409.592 199.192 411.032V419H197.392V416.912C196.912 417.584 196.264 418.136 195.496 418.568C194.584 419.072 193.552 419.336 192.4 419.336C191.152 419.336 190.168 419.024 189.424 418.4C188.656 417.752 188.272 416.912 188.272 415.904C188.272 414.488 188.824 413.432 189.976 412.712C190.984 412.04 192.424 411.68 194.296 411.656L197.272 411.608V410.96C197.272 408.872 196.192 407.84 194.032 407.84C193.12 407.84 192.376 408.008 191.8 408.392C191.152 408.776 190.744 409.376 190.552 410.168L188.656 410.024C188.92 408.728 189.568 407.744 190.576 407.12C191.488 406.544 192.664 406.256 194.152 406.256ZM197.272 413.048L194.416 413.096C191.632 413.144 190.24 414.056 190.24 415.856C190.24 416.432 190.456 416.888 190.936 417.272C191.416 417.632 192.04 417.824 192.808 417.824C193.984 417.824 195.016 417.44 195.928 416.672C196.816 415.928 197.272 415.064 197.272 414.104V413.048ZM202.542 401.528H204.438V419H202.542V401.528ZM146.768 441.528C148.592 441.528 150.056 442.008 151.16 442.992C152.12 443.856 152.624 444.936 152.624 446.232C152.624 447.096 152.432 447.84 152.048 448.44C151.616 449.064 150.992 449.568 150.152 449.904V449.952C150.944 450.168 151.64 450.648 152.216 451.392C152.864 452.208 153.2 453.144 153.2 454.2C153.2 455.736 152.624 456.96 151.52 457.92C150.392 458.856 148.808 459.336 146.768 459.336C144.704 459.336 143.12 458.856 142.016 457.92C140.888 456.96 140.336 455.736 140.336 454.2C140.336 453.144 140.648 452.208 141.32 451.392C141.896 450.648 142.568 450.168 143.384 449.952V449.904C142.52 449.568 141.896 449.064 141.488 448.44C141.104 447.84 140.912 447.096 140.912 446.232C140.912 444.936 141.392 443.856 142.376 442.992C143.456 442.008 144.92 441.528 146.768 441.528ZM146.768 443.76C145.76 443.76 144.944 444.024 144.344 444.576C143.816 445.056 143.552 445.632 143.552 446.328C143.552 447.12 143.768 447.744 144.2 448.2C144.728 448.752 145.568 449.04 146.768 449.04C147.944 449.04 148.808 448.752 149.336 448.2C149.768 447.744 149.984 447.12 149.984 446.328C149.984 445.632 149.72 445.056 149.192 444.576C148.568 444.024 147.776 443.76 146.768 443.76ZM146.768 451.128C145.568 451.128 144.656 451.416 144.032 451.992C143.408 452.544 143.12 453.288 143.12 454.2C143.12 455.064 143.432 455.76 144.08 456.288C144.704 456.816 145.592 457.08 146.768 457.08C147.92 457.08 148.832 456.792 149.504 456.264C150.104 455.736 150.416 455.064 150.416 454.2C150.416 453.288 150.104 452.544 149.528 452.016C148.88 451.416 147.968 451.128 146.768 451.128ZM162.791 441.864H165.359V453.096H167.903V455.328H165.359V459H162.695V455.328H154.415V452.664L162.791 441.864ZM162.623 445.416L156.695 453.096H162.695V445.416H162.623ZM171.638 455.376C172.166 455.376 172.598 455.544 172.982 455.928C173.342 456.288 173.534 456.744 173.534 457.272C173.534 457.8 173.342 458.232 172.982 458.616C172.598 458.952 172.166 459.144 171.638 459.144C171.11 459.144 170.654 458.952 170.318 458.616C169.934 458.232 169.766 457.8 169.766 457.272C169.766 456.744 169.934 456.288 170.318 455.928C170.654 455.544 171.11 455.376 171.638 455.376ZM175.679 441.864H187.271V444.12L181.271 459H178.295L184.439 444.408H175.679V441.864ZM206.393 449.616C207.737 449.616 208.769 450.072 209.489 451.032C210.113 451.848 210.449 452.952 210.449 454.32C210.449 455.664 210.113 456.768 209.489 457.608C208.769 458.52 207.737 459 206.393 459C205.049 459 203.993 458.52 203.273 457.608C202.601 456.744 202.289 455.664 202.289 454.32C202.289 452.952 202.601 451.848 203.273 451.032C203.993 450.072 205.049 449.616 206.393 449.616ZM203.945 441.528H206.033L196.409 459.336H194.321L203.945 441.528ZM194.009 441.864C195.353 441.864 196.385 442.32 197.105 443.28C197.729 444.096 198.065 445.2 198.065 446.568C198.065 447.912 197.729 449.016 197.105 449.856C196.385 450.768 195.353 451.248 194.009 451.248C192.665 451.248 191.609 450.768 190.889 449.856C190.217 448.992 189.905 447.912 189.905 446.568C189.905 445.2 190.217 444.096 190.889 443.28C191.609 442.32 192.665 441.864 194.009 441.864ZM206.393 451.368C205.793 451.368 205.361 451.68 205.121 452.304C204.929 452.784 204.833 453.456 204.833 454.32C204.833 455.16 204.929 455.832 205.121 456.312C205.361 456.936 205.793 457.248 206.393 457.248C206.969 457.248 207.377 456.912 207.641 456.264C207.809 455.784 207.905 455.136 207.905 454.32C207.905 453.456 207.809 452.808 207.617 452.328C207.377 451.68 206.969 451.368 206.393 451.368ZM194.009 443.616C193.409 443.616 192.977 443.928 192.737 444.552C192.545 445.032 192.449 445.704 192.449 446.568C192.449 447.408 192.545 448.08 192.737 448.56C192.977 449.184 193.409 449.496 194.009 449.496C194.585 449.496 194.993 449.16 195.257 448.512C195.425 448.032 195.521 447.384 195.521 446.568C195.521 445.704 195.425 445.056 195.233 444.576C194.993 443.928 194.585 443.616 194.009 443.616Z" fill="black"/>
<path d="M478.296 71.864H480.744L487.128 86.48H487.2L493.56 71.864H496.008V89H494.04V75.368H493.968L488.04 89H486.264L480.336 75.368H480.264V89H478.296V71.864ZM504.62 76.256C506.396 76.256 507.692 76.712 508.556 77.648C509.276 78.464 509.66 79.592 509.66 81.032V89H507.86V86.912C507.38 87.584 506.732 88.136 505.964 88.568C505.052 89.072 504.02 89.336 502.868 89.336C501.62 89.336 500.636 89.024 499.892 88.4C499.124 87.752 498.74 86.912 498.74 85.904C498.74 84.488 499.292 83.432 500.444 82.712C501.452 82.04 502.892 81.68 504.764 81.656L507.74 81.608V80.96C507.74 78.872 506.66 77.84 504.5 77.84C503.588 77.84 502.844 78.008 502.268 78.392C501.62 78.776 501.212 79.376 501.02 80.168L499.124 80.024C499.388 78.728 500.036 77.744 501.044 77.12C501.956 76.544 503.132 76.256 504.62 76.256ZM507.74 83.048L504.884 83.096C502.1 83.144 500.708 84.056 500.708 85.856C500.708 86.432 500.924 86.888 501.404 87.272C501.884 87.632 502.508 87.824 503.276 87.824C504.452 87.824 505.484 87.44 506.396 86.672C507.284 85.928 507.74 85.064 507.74 84.104V83.048ZM513.011 71.528H514.907V89H513.011V71.528ZM523.387 76.256C525.379 76.256 526.891 76.928 527.899 78.272C528.811 79.472 529.291 81.176 529.339 83.336H519.547C519.643 84.728 520.003 85.808 520.675 86.576C521.347 87.344 522.283 87.728 523.459 87.728C524.467 87.728 525.307 87.464 525.931 86.96C526.459 86.528 526.867 85.88 527.179 85.016H529.099C528.811 86.216 528.259 87.176 527.419 87.944C526.387 88.856 525.067 89.336 523.459 89.336C521.683 89.336 520.243 88.736 519.187 87.584C518.083 86.384 517.555 84.8 517.555 82.784C517.555 80.96 518.059 79.424 519.115 78.2C520.171 76.904 521.587 76.256 523.387 76.256ZM523.435 77.864C522.331 77.864 521.443 78.224 520.771 78.944C520.099 79.664 519.715 80.624 519.595 81.848H527.347C527.107 79.184 525.787 77.864 523.435 77.864ZM482.136 111.864H484.248V129H481.44V115.248C480.408 116.184 479.112 116.88 477.528 117.336V114.552C478.296 114.36 479.112 114.024 479.976 113.544C480.84 113.016 481.56 112.464 482.136 111.864ZM488.62 111.864H499.06V114.336H490.876L490.396 119.04H490.468C490.996 118.512 491.596 118.128 492.292 117.888C492.916 117.648 493.612 117.528 494.38 117.528C495.988 117.528 497.308 118.056 498.316 119.112C499.324 120.168 499.852 121.632 499.852 123.48C499.852 125.256 499.18 126.696 497.836 127.824C496.588 128.832 495.124 129.336 493.42 129.336C491.86 129.336 490.516 128.904 489.412 128.064C488.164 127.128 487.492 125.856 487.372 124.272H490.132C490.252 125.208 490.612 125.904 491.236 126.36C491.764 126.744 492.508 126.96 493.444 126.96C494.452 126.96 495.316 126.648 496.012 126.024C496.684 125.4 497.044 124.56 497.044 123.504C497.044 122.352 496.732 121.44 496.156 120.792C495.58 120.12 494.716 119.808 493.612 119.808C492.868 119.808 492.22 119.928 491.692 120.192C491.092 120.48 490.636 120.912 490.3 121.512H487.684L488.62 111.864ZM504.091 125.376C504.619 125.376 505.051 125.544 505.435 125.928C505.795 126.288 505.987 126.744 505.987 127.272C505.987 127.8 505.795 128.232 505.435 128.616C505.051 128.952 504.619 129.144 504.091 129.144C503.563 129.144 503.107 128.952 502.771 128.616C502.387 128.232 502.219 127.8 502.219 127.272C502.219 126.744 502.387 126.288 502.771 125.928C503.107 125.544 503.563 125.376 504.091 125.376ZM514.78 111.528C516.508 111.528 517.924 111.936 518.98 112.776C520.012 113.616 520.54 114.768 520.54 116.256C520.54 118.128 519.58 119.376 517.684 120C518.692 120.312 519.484 120.768 520.012 121.392C520.588 122.04 520.876 122.88 520.876 123.888C520.876 125.472 520.324 126.768 519.22 127.776C518.068 128.808 516.556 129.336 514.684 129.336C512.908 129.336 511.468 128.88 510.388 127.968C509.188 126.96 508.516 125.472 508.372 123.552H511.228C511.276 124.656 511.612 125.52 512.284 126.12C512.884 126.672 513.676 126.96 514.66 126.96C515.74 126.96 516.604 126.648 517.228 126.048C517.78 125.496 518.068 124.824 518.068 124.008C518.068 123.024 517.756 122.304 517.18 121.848C516.604 121.368 515.764 121.152 514.66 121.152H513.46V119.04H514.66C515.668 119.04 516.436 118.824 516.964 118.392C517.468 117.96 517.732 117.312 517.732 116.472C517.732 115.632 517.492 115.008 517.036 114.576C516.532 114.144 515.788 113.928 514.804 113.928C513.796 113.928 513.028 114.168 512.476 114.672C511.9 115.176 511.564 115.944 511.468 116.976H508.708C508.852 115.248 509.476 113.904 510.628 112.944C511.708 111.984 513.1 111.528 514.78 111.528ZM539.971 119.616C541.315 119.616 542.347 120.072 543.067 121.032C543.691 121.848 544.027 122.952 544.027 124.32C544.027 125.664 543.691 126.768 543.067 127.608C542.347 128.52 541.315 129 539.971 129C538.627 129 537.571 128.52 536.851 127.608C536.179 126.744 535.867 125.664 535.867 124.32C535.867 122.952 536.179 121.848 536.851 121.032C537.571 120.072 538.627 119.616 539.971 119.616ZM537.523 111.528H539.611L529.987 129.336H527.899L537.523 111.528ZM527.587 111.864C528.931 111.864 529.963 112.32 530.683 113.28C531.307 114.096 531.643 115.2 531.643 116.568C531.643 117.912 531.307 119.016 530.683 119.856C529.963 120.768 528.931 121.248 527.587 121.248C526.243 121.248 525.187 120.768 524.467 119.856C523.795 118.992 523.483 117.912 523.483 116.568C523.483 115.2 523.795 114.096 524.467 113.28C525.187 112.32 526.243 111.864 527.587 111.864ZM539.971 121.368C539.371 121.368 538.939 121.68 538.699 122.304C538.507 122.784 538.411 123.456 538.411 124.32C538.411 125.16 538.507 125.832 538.699 126.312C538.939 126.936 539.371 127.248 539.971 127.248C540.547 127.248 540.955 126.912 541.219 126.264C541.387 125.784 541.483 125.136 541.483 124.32C541.483 123.456 541.387 122.808 541.195 122.328C540.955 121.68 540.547 121.368 539.971 121.368ZM527.587 113.616C526.987 113.616 526.555 113.928 526.315 114.552C526.123 115.032 526.027 115.704 526.027 116.568C526.027 117.408 526.123 118.08 526.315 118.56C526.555 119.184 526.987 119.496 527.587 119.496C528.163 119.496 528.571 119.16 528.835 118.512C529.003 118.032 529.099 117.384 529.099 116.568C529.099 115.704 529.003 115.056 528.811 114.576C528.571 113.928 528.163 113.616 527.587 113.616Z" fill="black"/>
<rect x="121.568" y="28" width="141" height="31" fill="#F8BB2A"/>
<rect x="121.568" y="71" width="308" height="31" fill="#F8BB2A"/>
<rect x="121.568" y="114" width="116" height="31" fill="#F8BB2A"/>
<rect x="121.568" y="157" width="26" height="31" fill="#F8BB2A"/>
<path d="M208.148 36.896C209.336 36.896 210.308 37.238 211.082 37.922C211.838 38.606 212.234 39.524 212.234 40.64C212.234 41.756 211.802 42.764 210.974 43.664C210.524 44.132 209.642 44.834 208.31 45.734C206.672 46.832 205.736 47.822 205.502 48.686H212.252V50H203.684C203.684 48.83 204.098 47.768 204.962 46.814C205.466 46.238 206.384 45.464 207.752 44.528C208.76 43.808 209.426 43.286 209.768 42.926C210.416 42.224 210.758 41.45 210.758 40.622C210.758 39.83 210.524 39.236 210.056 38.804C209.588 38.372 208.922 38.156 208.094 38.156C207.212 38.156 206.528 38.444 206.06 39.056C205.556 39.632 205.286 40.496 205.268 41.63H203.792C203.792 40.19 204.206 39.038 204.998 38.192C205.79 37.328 206.852 36.896 208.148 36.896ZM218.941 36.896C220.129 36.896 221.101 37.238 221.875 37.922C222.631 38.606 223.027 39.524 223.027 40.64C223.027 41.756 222.595 42.764 221.767 43.664C221.317 44.132 220.435 44.834 219.103 45.734C217.465 46.832 216.529 47.822 216.295 48.686H223.045V50H214.477C214.477 48.83 214.891 47.768 215.755 46.814C216.259 46.238 217.177 45.464 218.545 44.528C219.553 43.808 220.219 43.286 220.561 42.926C221.209 42.224 221.551 41.45 221.551 40.622C221.551 39.83 221.317 39.236 220.849 38.804C220.381 38.372 219.715 38.156 218.887 38.156C218.005 38.156 217.321 38.444 216.853 39.056C216.349 39.632 216.079 40.496 216.061 41.63H214.585C214.585 40.19 214.999 39.038 215.791 38.192C216.583 37.328 217.645 36.896 218.941 36.896ZM226.53 47.858C226.818 47.858 227.088 47.966 227.304 48.182C227.52 48.398 227.628 48.65 227.628 48.974C227.628 49.28 227.52 49.532 227.304 49.748C227.088 49.964 226.818 50.072 226.53 50.072C226.206 50.072 225.954 49.964 225.756 49.748C225.54 49.532 225.432 49.28 225.432 48.974C225.432 48.65 225.54 48.398 225.756 48.182C225.954 47.966 226.206 47.858 226.53 47.858ZM229.512 37.148H237.954V38.354L233.22 50H231.654L236.442 38.498H229.512V37.148ZM252.046 42.962C253 42.962 253.738 43.304 254.26 44.024C254.71 44.636 254.944 45.464 254.944 46.49C254.944 47.498 254.71 48.326 254.26 48.956C253.738 49.64 253 50 252.046 50C251.074 50 250.336 49.64 249.832 48.956C249.364 48.308 249.148 47.498 249.148 46.49C249.148 45.464 249.364 44.636 249.832 44.024C250.336 43.304 251.074 42.962 252.046 42.962ZM250.498 36.896H251.65L244.45 50.252H243.28L250.498 36.896ZM242.902 37.148C243.856 37.148 244.594 37.49 245.116 38.21C245.566 38.822 245.8 39.65 245.8 40.676C245.8 41.684 245.566 42.512 245.116 43.142C244.594 43.826 243.856 44.186 242.902 44.186C241.93 44.186 241.192 43.826 240.688 43.142C240.22 42.494 240.004 41.684 240.004 40.676C240.004 39.65 240.22 38.822 240.688 38.21C241.192 37.49 241.93 37.148 242.902 37.148ZM252.046 43.934C251.488 43.934 251.092 44.186 250.84 44.69C250.606 45.122 250.498 45.716 250.498 46.49C250.498 47.228 250.606 47.822 250.84 48.254C251.092 48.758 251.488 49.028 252.046 49.028C252.586 49.028 252.982 48.758 253.252 48.236C253.468 47.804 253.594 47.228 253.594 46.49C253.594 45.734 253.468 45.14 253.252 44.708C252.982 44.186 252.586 43.934 252.046 43.934ZM242.902 38.12C242.344 38.12 241.948 38.372 241.696 38.876C241.462 39.308 241.354 39.902 241.354 40.676C241.354 41.414 241.462 42.008 241.696 42.44C241.948 42.944 242.344 43.214 242.902 43.214C243.442 43.214 243.838 42.944 244.108 42.422C244.324 41.99 244.45 41.414 244.45 40.676C244.45 39.92 244.324 39.326 244.09 38.894C243.838 38.372 243.442 38.12 242.902 38.12Z" fill="white"/>
<path d="M366.458 80.148H373.928V81.462H367.664L367.232 85.764H367.304C367.664 85.332 368.132 85.008 368.69 84.792C369.194 84.576 369.734 84.486 370.328 84.486C371.552 84.486 372.542 84.864 373.298 85.638C374.054 86.43 374.45 87.51 374.45 88.896C374.45 90.192 373.982 91.254 373.064 92.082C372.2 92.856 371.12 93.252 369.86 93.252C368.726 93.252 367.754 92.946 366.962 92.334C366.062 91.65 365.576 90.714 365.486 89.544H366.944C367.016 90.354 367.34 90.984 367.916 91.416C368.42 91.794 369.086 91.992 369.878 91.992C370.778 91.992 371.516 91.704 372.11 91.128C372.686 90.552 372.992 89.814 372.992 88.914C372.992 87.888 372.704 87.096 372.164 86.538C371.642 85.962 370.904 85.692 369.968 85.692C369.356 85.692 368.816 85.818 368.33 86.088C367.826 86.34 367.43 86.736 367.178 87.24H365.774L366.458 80.148ZM382.273 80.148H383.659V88.878H385.747V90.084H383.659V93H382.255V90.084H375.793V88.68L382.273 80.148ZM382.201 82.074L377.035 88.878H382.255V82.074H382.201ZM388.53 90.858C388.818 90.858 389.088 90.966 389.304 91.182C389.52 91.398 389.628 91.65 389.628 91.974C389.628 92.28 389.52 92.532 389.304 92.748C389.088 92.964 388.818 93.072 388.53 93.072C388.206 93.072 387.954 92.964 387.756 92.748C387.54 92.532 387.432 92.28 387.432 91.974C387.432 91.65 387.54 91.398 387.756 91.182C387.954 90.966 388.206 90.858 388.53 90.858ZM392.79 80.148H400.26V81.462H393.996L393.564 85.764H393.636C393.996 85.332 394.464 85.008 395.022 84.792C395.526 84.576 396.066 84.486 396.66 84.486C397.884 84.486 398.874 84.864 399.63 85.638C400.386 86.43 400.782 87.51 400.782 88.896C400.782 90.192 400.314 91.254 399.396 92.082C398.532 92.856 397.452 93.252 396.192 93.252C395.058 93.252 394.086 92.946 393.294 92.334C392.394 91.65 391.908 90.714 391.818 89.544H393.276C393.348 90.354 393.672 90.984 394.248 91.416C394.752 91.794 395.418 91.992 396.21 91.992C397.11 91.992 397.848 91.704 398.442 91.128C399.018 90.552 399.324 89.814 399.324 88.914C399.324 87.888 399.036 87.096 398.496 86.538C397.974 85.962 397.236 85.692 396.3 85.692C395.688 85.692 395.148 85.818 394.662 86.088C394.158 86.34 393.762 86.736 393.51 87.24H392.106L392.79 80.148ZM414.995 85.962C415.949 85.962 416.687 86.304 417.209 87.024C417.659 87.636 417.893 88.464 417.893 89.49C417.893 90.498 417.659 91.326 417.209 91.956C416.687 92.64 415.949 93 414.995 93C414.023 93 413.285 92.64 412.781 91.956C412.313 91.308 412.097 90.498 412.097 89.49C412.097 88.464 412.313 87.636 412.781 87.024C413.285 86.304 414.023 85.962 414.995 85.962ZM413.447 79.896H414.599L407.399 93.252H406.229L413.447 79.896ZM405.851 80.148C406.805 80.148 407.543 80.49 408.065 81.21C408.515 81.822 408.749 82.65 408.749 83.676C408.749 84.684 408.515 85.512 408.065 86.142C407.543 86.826 406.805 87.186 405.851 87.186C404.879 87.186 404.141 86.826 403.637 86.142C403.169 85.494 402.953 84.684 402.953 83.676C402.953 82.65 403.169 81.822 403.637 81.21C404.141 80.49 404.879 80.148 405.851 80.148ZM414.995 86.934C414.437 86.934 414.041 87.186 413.789 87.69C413.555 88.122 413.447 88.716 413.447 89.49C413.447 90.228 413.555 90.822 413.789 91.254C414.041 91.758 414.437 92.028 414.995 92.028C415.535 92.028 415.931 91.758 416.201 91.236C416.417 90.804 416.543 90.228 416.543 89.49C416.543 88.734 416.417 88.14 416.201 87.708C415.931 87.186 415.535 86.934 414.995 86.934ZM405.851 81.12C405.293 81.12 404.897 81.372 404.645 81.876C404.411 82.308 404.303 82.902 404.303 83.676C404.303 84.414 404.411 85.008 404.645 85.44C404.897 85.944 405.293 86.214 405.851 86.214C406.391 86.214 406.787 85.944 407.057 85.422C407.273 84.99 407.399 84.414 407.399 83.676C407.399 82.92 407.273 82.326 407.039 81.894C406.787 81.372 406.391 81.12 405.851 81.12Z" fill="white"/>
<path d="M182.708 123.148H183.86V136H182.384V124.948C181.574 125.776 180.566 126.352 179.36 126.712V125.236C179.936 125.074 180.548 124.822 181.16 124.462C181.772 124.066 182.276 123.634 182.708 123.148ZM191.049 122.896C192.597 122.896 193.767 123.472 194.559 124.624C195.315 125.704 195.693 127.252 195.693 129.232C195.693 131.284 195.279 132.94 194.487 134.236C193.623 135.568 192.471 136.252 191.031 136.252C188.637 136.252 187.269 135.1 186.927 132.814H188.385C188.655 134.272 189.537 135.01 191.049 135.01C192.039 135.01 192.831 134.506 193.425 133.516C193.983 132.562 194.271 131.356 194.271 129.916C194.271 129.826 194.253 129.664 194.253 129.448H194.181C193.857 130.096 193.389 130.618 192.795 130.996C192.219 131.356 191.553 131.554 190.797 131.554C189.555 131.554 188.565 131.14 187.809 130.33C187.071 129.556 186.711 128.548 186.711 127.306C186.711 126.028 187.107 124.984 187.935 124.156C188.745 123.31 189.789 122.896 191.049 122.896ZM191.085 124.138C190.203 124.138 189.501 124.426 188.961 125.02C188.421 125.614 188.169 126.37 188.169 127.306C188.169 128.206 188.421 128.944 188.961 129.484C189.483 130.042 190.185 130.33 191.085 130.33C191.913 130.33 192.615 130.042 193.191 129.466C193.731 128.89 194.019 128.152 194.019 127.27C194.019 126.37 193.749 125.632 193.227 125.056C192.687 124.444 191.967 124.138 191.085 124.138ZM198.962 133.858C199.25 133.858 199.52 133.966 199.736 134.182C199.952 134.398 200.06 134.65 200.06 134.974C200.06 135.28 199.952 135.532 199.736 135.748C199.52 135.964 199.25 136.072 198.962 136.072C198.638 136.072 198.386 135.964 198.188 135.748C197.972 135.532 197.864 135.28 197.864 134.974C197.864 134.65 197.972 134.398 198.188 134.182C198.386 133.966 198.638 133.858 198.962 133.858ZM206.732 122.896C208.262 122.896 209.414 123.562 210.206 124.93C210.89 126.082 211.232 127.63 211.232 129.574C211.232 131.518 210.89 133.066 210.206 134.218C209.414 135.568 208.262 136.252 206.732 136.252C205.184 136.252 204.032 135.568 203.258 134.218C202.574 133.066 202.232 131.518 202.232 129.574C202.232 127.63 202.574 126.082 203.258 124.93C204.032 123.562 205.184 122.896 206.732 122.896ZM206.732 124.156C205.58 124.156 204.752 124.768 204.248 126.01C203.888 126.874 203.708 128.062 203.708 129.574C203.708 131.068 203.888 132.256 204.248 133.138C204.752 134.362 205.58 134.992 206.732 134.992C207.884 134.992 208.712 134.362 209.216 133.138C209.576 132.256 209.774 131.068 209.774 129.574C209.774 128.062 209.576 126.874 209.216 126.01C208.712 124.768 207.884 124.156 206.732 124.156ZM225.427 128.962C226.381 128.962 227.119 129.304 227.641 130.024C228.091 130.636 228.325 131.464 228.325 132.49C228.325 133.498 228.091 134.326 227.641 134.956C227.119 135.64 226.381 136 225.427 136C224.455 136 223.717 135.64 223.213 134.956C222.745 134.308 222.529 133.498 222.529 132.49C222.529 131.464 222.745 130.636 223.213 130.024C223.717 129.304 224.455 128.962 225.427 128.962ZM223.879 122.896H225.031L217.831 136.252H216.661L223.879 122.896ZM216.283 123.148C217.237 123.148 217.975 123.49 218.497 124.21C218.947 124.822 219.181 125.65 219.181 126.676C219.181 127.684 218.947 128.512 218.497 129.142C217.975 129.826 217.237 130.186 216.283 130.186C215.311 130.186 214.573 129.826 214.069 129.142C213.601 128.494 213.385 127.684 213.385 126.676C213.385 125.65 213.601 124.822 214.069 124.21C214.573 123.49 215.311 123.148 216.283 123.148ZM225.427 129.934C224.869 129.934 224.473 130.186 224.221 130.69C223.987 131.122 223.879 131.716 223.879 132.49C223.879 133.228 223.987 133.822 224.221 134.254C224.473 134.758 224.869 135.028 225.427 135.028C225.967 135.028 226.363 134.758 226.633 134.236C226.849 133.804 226.975 133.228 226.975 132.49C226.975 131.734 226.849 131.14 226.633 130.708C226.363 130.186 225.967 129.934 225.427 129.934ZM216.283 124.12C215.725 124.12 215.329 124.372 215.077 124.876C214.843 125.308 214.735 125.902 214.735 126.676C214.735 127.414 214.843 128.008 215.077 128.44C215.329 128.944 215.725 129.214 216.283 129.214C216.823 129.214 217.219 128.944 217.489 128.422C217.705 127.99 217.831 127.414 217.831 126.676C217.831 125.92 217.705 125.326 217.471 124.894C217.219 124.372 216.823 124.12 216.283 124.12Z" fill="white"/>
<path d="M153.094 164.896C151.87 164.896 150.88 165.238 150.124 165.94C149.332 166.642 148.864 167.614 148.756 168.856H150.214C150.304 167.992 150.592 167.326 151.096 166.858C151.582 166.39 152.248 166.174 153.112 166.174C153.94 166.174 154.606 166.372 155.074 166.804C155.506 167.2 155.74 167.758 155.74 168.478C155.74 169.198 155.506 169.756 155.056 170.152C154.606 170.53 153.958 170.728 153.094 170.728H152.104V171.88H153.148C154.048 171.88 154.732 172.078 155.236 172.51C155.74 172.942 155.992 173.536 155.992 174.31C155.992 175.066 155.722 175.696 155.218 176.2C154.66 176.722 153.922 176.992 153.004 176.992C152.194 176.992 151.528 176.758 150.988 176.326C150.358 175.804 150.016 175.03 149.98 174.022H148.486C148.594 175.462 149.098 176.56 150.016 177.316C150.79 177.928 151.78 178.252 153.004 178.252C154.336 178.252 155.416 177.874 156.244 177.118C157.054 176.38 157.468 175.426 157.468 174.256C157.468 173.5 157.252 172.87 156.82 172.366C156.424 171.862 155.848 171.502 155.092 171.268C156.496 170.8 157.198 169.828 157.198 168.388C157.198 167.308 156.82 166.462 156.082 165.832C155.326 165.202 154.318 164.896 153.094 164.896ZM160.737 175.858C160.413 175.858 160.161 175.966 159.963 176.182C159.747 176.398 159.639 176.65 159.639 176.974C159.639 177.28 159.747 177.532 159.963 177.748C160.161 177.964 160.413 178.072 160.737 178.072C161.025 178.072 161.295 177.964 161.511 177.748C161.727 177.532 161.835 177.28 161.835 176.974C161.835 176.65 161.727 176.398 161.511 176.182C161.295 175.966 161.025 175.858 160.737 175.858ZM168.363 164.896C167.103 164.896 166.059 165.31 165.249 166.156C164.421 166.984 164.025 168.028 164.025 169.306C164.025 170.548 164.385 171.556 165.123 172.33C165.879 173.14 166.869 173.554 168.111 173.554C168.867 173.554 169.533 173.356 170.109 172.996C170.703 172.618 171.171 172.096 171.495 171.448H171.567C171.567 171.664 171.585 171.826 171.585 171.916C171.585 173.356 171.297 174.562 170.739 175.516C170.145 176.506 169.353 177.01 168.363 177.01C166.851 177.01 165.969 176.272 165.699 174.814H164.241C164.583 177.1 165.951 178.252 168.345 178.252C169.785 178.252 170.937 177.568 171.801 176.236C172.593 174.94 173.007 173.284 173.007 171.232C173.007 169.252 172.629 167.704 171.873 166.624C171.081 165.472 169.911 164.896 168.363 164.896ZM168.399 166.138C169.281 166.138 170.001 166.444 170.541 167.056C171.063 167.632 171.333 168.37 171.333 169.27C171.333 170.152 171.045 170.89 170.505 171.466C169.929 172.042 169.227 172.33 168.399 172.33C167.499 172.33 166.797 172.042 166.275 171.484C165.735 170.944 165.483 170.206 165.483 169.306C165.483 168.37 165.735 167.614 166.275 167.02C166.815 166.426 167.517 166.138 168.399 166.138ZM187.202 170.962C186.23 170.962 185.492 171.304 184.988 172.024C184.52 172.636 184.304 173.464 184.304 174.49C184.304 175.498 184.52 176.308 184.988 176.956C185.492 177.64 186.23 178 187.202 178C188.156 178 188.894 177.64 189.416 176.956C189.866 176.326 190.1 175.498 190.1 174.49C190.1 173.464 189.866 172.636 189.416 172.024C188.894 171.304 188.156 170.962 187.202 170.962ZM185.654 164.896L178.436 178.252H179.606L186.806 164.896H185.654ZM178.058 165.148C177.086 165.148 176.348 165.49 175.844 166.21C175.376 166.822 175.16 167.65 175.16 168.676C175.16 169.684 175.376 170.494 175.844 171.142C176.348 171.826 177.086 172.186 178.058 172.186C179.012 172.186 179.75 171.826 180.272 171.142C180.722 170.512 180.956 169.684 180.956 168.676C180.956 167.65 180.722 166.822 180.272 166.21C179.75 165.49 179.012 165.148 178.058 165.148ZM187.202 171.934C187.742 171.934 188.138 172.186 188.408 172.708C188.624 173.14 188.75 173.734 188.75 174.49C188.75 175.228 188.624 175.804 188.408 176.236C188.138 176.758 187.742 177.028 187.202 177.028C186.644 177.028 186.248 176.758 185.996 176.254C185.762 175.822 185.654 175.228 185.654 174.49C185.654 173.716 185.762 173.122 185.996 172.69C186.248 172.186 186.644 171.934 187.202 171.934ZM178.058 166.12C178.598 166.12 178.994 166.372 179.246 166.894C179.48 167.326 179.606 167.92 179.606 168.676C179.606 169.414 179.48 169.99 179.264 170.422C178.994 170.944 178.598 171.214 178.058 171.214C177.5 171.214 177.104 170.944 176.852 170.44C176.618 170.008 176.51 169.414 176.51 168.676C176.51 167.902 176.618 167.308 176.852 166.876C177.104 166.372 177.5 166.12 178.058 166.12Z" fill="black"/>
<path d="M5.14836 29.896C6.33636 29.896 7.30836 30.238 8.08236 30.922C8.83836 31.606 9.23436 32.524 9.23436 33.64C9.23436 34.756 8.80236 35.764 7.97436 36.664C7.52436 37.132 6.64236 37.834 5.31036 38.734C3.67236 39.832 2.73636 40.822 2.50236 41.686H9.25236V43H0.684359C0.684359 41.83 1.09836 40.768 1.96236 39.814C2.46636 39.238 3.38436 38.464 4.75236 37.528C5.76036 36.808 6.42636 36.286 6.76836 35.926C7.41636 35.224 7.75836 34.45 7.75836 33.622C7.75836 32.83 7.52436 32.236 7.05636 31.804C6.58836 31.372 5.92236 31.156 5.09436 31.156C4.21236 31.156 3.52836 31.444 3.06036 32.056C2.55636 32.632 2.28636 33.496 2.26836 34.63H0.792359C0.792359 33.19 1.20636 32.038 1.99836 31.192C2.79036 30.328 3.85236 29.896 5.14836 29.896ZM12.2513 30.148H19.7213V31.462H13.4573L13.0253 35.764H13.0973C13.4573 35.332 13.9253 35.008 14.4833 34.792C14.9873 34.576 15.5273 34.486 16.1213 34.486C17.3453 34.486 18.3353 34.864 19.0913 35.638C19.8473 36.43 20.2433 37.51 20.2433 38.896C20.2433 40.192 19.7753 41.254 18.8573 42.082C17.9933 42.856 16.9133 43.252 15.6533 43.252C14.5193 43.252 13.5473 42.946 12.7553 42.334C11.8553 41.65 11.3693 40.714 11.2793 39.544H12.7373C12.8093 40.354 13.1333 40.984 13.7093 41.416C14.2133 41.794 14.8793 41.992 15.6713 41.992C16.5713 41.992 17.3093 41.704 17.9033 41.128C18.4793 40.552 18.7853 39.814 18.7853 38.914C18.7853 37.888 18.4973 37.096 17.9573 36.538C17.4353 35.962 16.6973 35.692 15.7613 35.692C15.1493 35.692 14.6093 35.818 14.1233 36.088C13.6193 36.34 13.2233 36.736 12.9713 37.24H11.5673L12.2513 30.148ZM27.2384 33.694H28.8044L31.6484 41.038L34.4024 33.694H35.9864L30.8924 46.564H29.3264L30.9284 42.784L27.2384 33.694ZM41.0281 33.442C42.5221 33.442 43.6561 33.946 44.4121 34.954C45.0961 35.854 45.4561 37.132 45.4921 38.752H38.1481C38.2201 39.796 38.4901 40.606 38.9941 41.182C39.4981 41.758 40.2001 42.046 41.0821 42.046C41.8381 42.046 42.4681 41.848 42.9361 41.47C43.3321 41.146 43.6381 40.66 43.8721 40.012H45.3121C45.0961 40.912 44.6821 41.632 44.0521 42.208C43.2781 42.892 42.2881 43.252 41.0821 43.252C39.7501 43.252 38.6701 42.802 37.8781 41.938C37.0501 41.038 36.6541 39.85 36.6541 38.338C36.6541 36.97 37.0321 35.818 37.8241 34.9C38.6161 33.928 39.6781 33.442 41.0281 33.442ZM41.0641 34.648C40.2361 34.648 39.5701 34.918 39.0661 35.458C38.5621 35.998 38.2741 36.718 38.1841 37.636H43.9981C43.8181 35.638 42.8281 34.648 41.0641 34.648ZM51.2285 33.442C52.5605 33.442 53.5325 33.784 54.1805 34.486C54.7205 35.098 55.0085 35.944 55.0085 37.024V43H53.6585V41.434C53.2985 41.938 52.8125 42.352 52.2365 42.676C51.5525 43.054 50.7785 43.252 49.9145 43.252C48.9785 43.252 48.2405 43.018 47.6825 42.55C47.1065 42.064 46.8185 41.434 46.8185 40.678C46.8185 39.616 47.2325 38.824 48.0965 38.284C48.8525 37.78 49.9325 37.51 51.3365 37.492L53.5685 37.456V36.97C53.5685 35.404 52.7585 34.63 51.1385 34.63C50.4545 34.63 49.8965 34.756 49.4645 35.044C48.9785 35.332 48.6725 35.782 48.5285 36.376L47.1065 36.268C47.3045 35.296 47.7905 34.558 48.5465 34.09C49.2305 33.658 50.1125 33.442 51.2285 33.442ZM53.5685 38.536L51.4265 38.572C49.3385 38.608 48.2945 39.292 48.2945 40.642C48.2945 41.074 48.4565 41.416 48.8165 41.704C49.1765 41.974 49.6445 42.118 50.2205 42.118C51.1025 42.118 51.8765 41.83 52.5605 41.254C53.2265 40.696 53.5685 40.048 53.5685 39.328V38.536ZM61.3192 33.442C61.8232 33.442 62.2552 33.514 62.5972 33.658V35.098C62.1292 34.954 61.6612 34.9 61.2112 34.9C60.4912 34.9 59.8792 35.206 59.3932 35.854C58.8892 36.466 58.6552 37.204 58.6552 38.068V43H57.2332V33.694H58.6552V35.314C58.9072 34.774 59.2312 34.342 59.6272 34.036C60.1132 33.64 60.6712 33.442 61.3192 33.442ZM67.1014 33.442C69.4054 33.442 70.6654 34.396 70.9174 36.34H69.5134C69.3874 35.764 69.1534 35.332 68.7934 35.08C68.3974 34.792 67.8214 34.648 67.0834 34.648C66.4354 34.648 65.9314 34.756 65.5714 35.008C65.1754 35.242 64.9774 35.566 64.9774 35.98C64.9774 36.376 65.2294 36.718 65.7694 36.988C66.1114 37.15 66.7594 37.348 67.6954 37.6C68.8114 37.87 69.6034 38.158 70.0894 38.464C70.8274 38.932 71.2054 39.562 71.2054 40.372C71.2054 42.28 69.8914 43.252 67.2634 43.252C64.8154 43.252 63.4834 42.172 63.2674 40.03H64.6714C64.7794 40.768 65.0494 41.29 65.4454 41.614C65.8414 41.902 66.4354 42.046 67.2274 42.046C68.8834 42.046 69.7294 41.506 69.7294 40.462C69.7294 39.94 69.4234 39.544 68.8474 39.256C68.5414 39.112 67.8754 38.914 66.8674 38.662C65.7694 38.392 64.9954 38.122 64.5634 37.834C63.8434 37.402 63.5014 36.808 63.5014 36.016C63.5014 35.224 63.8434 34.612 64.5454 34.144C65.1934 33.676 66.0574 33.442 67.1014 33.442ZM83.0474 33.442C84.4334 33.442 85.5494 33.91 86.3774 34.882C87.1694 35.8 87.5654 36.952 87.5654 38.356C87.5654 39.742 87.1694 40.894 86.3954 41.794C85.5494 42.766 84.4334 43.252 83.0474 43.252C81.6434 43.252 80.5454 42.766 79.7174 41.794C78.9254 40.894 78.5294 39.742 78.5294 38.356C78.5294 36.952 78.9254 35.8 79.7174 34.882C80.5454 33.91 81.6434 33.442 83.0474 33.442ZM83.0474 34.648C82.0574 34.648 81.2834 35.026 80.7434 35.782C80.2394 36.466 80.0054 37.312 80.0054 38.356C80.0054 39.382 80.2394 40.228 80.7434 40.912C81.2834 41.668 82.0574 42.046 83.0474 42.046C84.0194 42.046 84.7934 41.668 85.3694 40.912C85.8554 40.228 86.1074 39.364 86.1074 38.356C86.1074 37.312 85.8554 36.466 85.3694 35.782C84.7934 35.026 84.0194 34.648 83.0474 34.648ZM89.7243 29.896H91.1463V43H89.7243V29.896ZM100.549 29.896H101.989V43H100.639V41.47C99.9906 42.658 98.9466 43.252 97.5426 43.252C96.1746 43.252 95.1126 42.748 94.3566 41.776C93.6546 40.876 93.3126 39.724 93.3126 38.32C93.3126 36.952 93.6546 35.836 94.3566 34.936C95.1126 33.928 96.1386 33.442 97.4706 33.442C98.8026 33.442 99.8286 34.09 100.549 35.404V29.896ZM97.7766 34.63C96.7506 34.63 95.9766 34.99 95.4726 35.71C95.0046 36.34 94.7886 37.204 94.7886 38.32C94.7886 39.436 95.0046 40.318 95.4546 40.966C95.9586 41.686 96.7146 42.064 97.7226 42.064C98.6586 42.064 99.3786 41.704 99.9006 40.984C100.351 40.336 100.585 39.49 100.585 38.446V38.266C100.585 37.186 100.315 36.304 99.8106 35.638C99.2886 34.954 98.6046 34.63 97.7766 34.63ZM4.73436 51.442C6.06636 51.442 7.03836 51.784 7.68636 52.486C8.22636 53.098 8.51436 53.944 8.51436 55.024V61H7.16436V59.434C6.80436 59.938 6.31836 60.352 5.74236 60.676C5.05836 61.054 4.28436 61.252 3.42036 61.252C2.48436 61.252 1.74636 61.018 1.18836 60.55C0.612359 60.064 0.324359 59.434 0.324359 58.678C0.324359 57.616 0.738359 56.824 1.60236 56.284C2.35836 55.78 3.43836 55.51 4.84236 55.492L7.07436 55.456V54.97C7.07436 53.404 6.26436 52.63 4.64436 52.63C3.96036 52.63 3.40236 52.756 2.97036 53.044C2.48436 53.332 2.17836 53.782 2.03436 54.376L0.612359 54.268C0.810359 53.296 1.29636 52.558 2.05236 52.09C2.73636 51.658 3.61836 51.442 4.73436 51.442ZM7.07436 56.536L4.93236 56.572C2.84436 56.608 1.80036 57.292 1.80036 58.642C1.80036 59.074 1.96236 59.416 2.32236 59.704C2.68236 59.974 3.15036 60.118 3.72636 60.118C4.60836 60.118 5.38236 59.83 6.06636 59.254C6.73236 58.696 7.07436 58.048 7.07436 57.328V56.536ZM15.095 51.442C17.399 51.442 18.569 52.72 18.569 55.276V61H17.129V55.384C17.129 53.566 16.301 52.666 14.681 52.666C14.033 52.666 13.475 52.9 13.007 53.368C12.503 53.872 12.233 54.538 12.179 55.384V61H10.739V51.694H12.179V53.062C12.503 52.54 12.917 52.144 13.421 51.874C13.925 51.586 14.483 51.442 15.095 51.442ZM27.6697 47.896H29.1097V61H27.7597V59.47C27.1117 60.658 26.0677 61.252 24.6637 61.252C23.2957 61.252 22.2337 60.748 21.4777 59.776C20.7757 58.876 20.4337 57.724 20.4337 56.32C20.4337 54.952 20.7757 53.836 21.4777 52.936C22.2337 51.928 23.2597 51.442 24.5917 51.442C25.9237 51.442 26.9497 52.09 27.6697 53.404V47.896ZM24.8977 52.63C23.8717 52.63 23.0977 52.99 22.5937 53.71C22.1257 54.34 21.9097 55.204 21.9097 56.32C21.9097 57.436 22.1257 58.318 22.5757 58.966C23.0797 59.686 23.8357 60.064 24.8437 60.064C25.7797 60.064 26.4997 59.704 27.0217 58.984C27.4717 58.336 27.7057 57.49 27.7057 56.446V56.266C27.7057 55.186 27.4357 54.304 26.9317 53.638C26.4097 52.954 25.7257 52.63 24.8977 52.63ZM37.3348 47.896H38.7748V53.404C39.4948 52.09 40.5208 51.442 41.8528 51.442C43.1668 51.442 44.2108 51.928 44.9668 52.936C45.6508 53.836 46.0108 54.952 46.0108 56.32C46.0108 57.724 45.6508 58.876 44.9668 59.776C44.1928 60.748 43.1308 61.252 41.7808 61.252C40.3408 61.252 39.3148 60.658 38.6848 59.47V61H37.3348V47.896ZM41.5468 52.63C40.7008 52.63 40.0168 52.954 39.5128 53.638C38.9728 54.304 38.7208 55.186 38.7208 56.266V56.446C38.7208 57.49 38.9548 58.336 39.4228 58.984C39.9268 59.704 40.6648 60.064 41.6008 60.064C42.6088 60.064 43.3648 59.686 43.8688 58.966C44.3008 58.318 44.5348 57.436 44.5348 56.32C44.5348 55.204 44.3008 54.34 43.8328 53.71C43.3108 52.99 42.5548 52.63 41.5468 52.63ZM51.7156 51.442C53.2096 51.442 54.3436 51.946 55.0996 52.954C55.7836 53.854 56.1436 55.132 56.1796 56.752H48.8356C48.9076 57.796 49.1776 58.606 49.6816 59.182C50.1856 59.758 50.8876 60.046 51.7696 60.046C52.5256 60.046 53.1556 59.848 53.6236 59.47C54.0196 59.146 54.3256 58.66 54.5596 58.012H55.9996C55.7836 58.912 55.3696 59.632 54.7396 60.208C53.9656 60.892 52.9756 61.252 51.7696 61.252C50.4376 61.252 49.3576 60.802 48.5656 59.938C47.7376 59.038 47.3416 57.85 47.3416 56.338C47.3416 54.97 47.7196 53.818 48.5116 52.9C49.3036 51.928 50.3656 51.442 51.7156 51.442ZM51.7516 52.648C50.9236 52.648 50.2576 52.918 49.7536 53.458C49.2496 53.998 48.9616 54.718 48.8716 55.636H54.6856C54.5056 53.638 53.5156 52.648 51.7516 52.648ZM58.154 47.896H59.576V61H58.154V47.896ZM66.2603 51.442C67.6463 51.442 68.7623 51.91 69.5903 52.882C70.3823 53.8 70.7783 54.952 70.7783 56.356C70.7783 57.742 70.3823 58.894 69.6083 59.794C68.7623 60.766 67.6463 61.252 66.2603 61.252C64.8563 61.252 63.7583 60.766 62.9303 59.794C62.1383 58.894 61.7423 57.742 61.7423 56.356C61.7423 54.952 62.1383 53.8 62.9303 52.882C63.7583 51.91 64.8563 51.442 66.2603 51.442ZM66.2603 52.648C65.2703 52.648 64.4963 53.026 63.9563 53.782C63.4523 54.466 63.2183 55.312 63.2183 56.356C63.2183 57.382 63.4523 58.228 63.9563 58.912C64.4963 59.668 65.2703 60.046 66.2603 60.046C67.2323 60.046 68.0063 59.668 68.5823 58.912C69.0683 58.228 69.3203 57.364 69.3203 56.356C69.3203 55.312 69.0683 54.466 68.5823 53.782C68.0063 53.026 67.2323 52.648 66.2603 52.648ZM71.6232 51.694H73.2072L75.4932 59.236L77.6532 51.694H79.0032L81.1632 59.236L83.4492 51.694H85.0332L81.8652 61H80.4972L78.3372 53.512L76.1412 61H74.7912L71.6232 51.694Z" fill="black"/>
<path d="M6.48036 157.148H7.86636V165.878H9.95436V167.084H7.86636V170H6.46236V167.084H0.000359379V165.68L6.48036 157.148ZM6.40836 159.074L1.24236 165.878H6.46236V159.074H6.40836ZM12.2513 157.148H19.7213V158.462H13.4573L13.0253 162.764H13.0973C13.4573 162.332 13.9253 162.008 14.4833 161.792C14.9873 161.576 15.5273 161.486 16.1213 161.486C17.3453 161.486 18.3353 161.864 19.0913 162.638C19.8473 163.43 20.2433 164.51 20.2433 165.896C20.2433 167.192 19.7753 168.254 18.8573 169.082C17.9933 169.856 16.9133 170.252 15.6533 170.252C14.5193 170.252 13.5473 169.946 12.7553 169.334C11.8553 168.65 11.3693 167.714 11.2793 166.544H12.7373C12.8093 167.354 13.1333 167.984 13.7093 168.416C14.2133 168.794 14.8793 168.992 15.6713 168.992C16.5713 168.992 17.3093 168.704 17.9033 168.128C18.4793 167.552 18.7853 166.814 18.7853 165.914C18.7853 164.888 18.4973 164.096 17.9573 163.538C17.4353 162.962 16.6973 162.692 15.7613 162.692C15.1493 162.692 14.6093 162.818 14.1233 163.088C13.6193 163.34 13.2233 163.736 12.9713 164.24H11.5673L12.2513 157.148ZM27.2384 160.694H28.8044L31.6484 168.038L34.4024 160.694H35.9864L30.8924 173.564H29.3264L30.9284 169.784L27.2384 160.694ZM41.0281 160.442C42.5221 160.442 43.6561 160.946 44.4121 161.954C45.0961 162.854 45.4561 164.132 45.4921 165.752H38.1481C38.2201 166.796 38.4901 167.606 38.9941 168.182C39.4981 168.758 40.2001 169.046 41.0821 169.046C41.8381 169.046 42.4681 168.848 42.9361 168.47C43.3321 168.146 43.6381 167.66 43.8721 167.012H45.3121C45.0961 167.912 44.6821 168.632 44.0521 169.208C43.2781 169.892 42.2881 170.252 41.0821 170.252C39.7501 170.252 38.6701 169.802 37.8781 168.938C37.0501 168.038 36.6541 166.85 36.6541 165.338C36.6541 163.97 37.0321 162.818 37.8241 161.9C38.6161 160.928 39.6781 160.442 41.0281 160.442ZM41.0641 161.648C40.2361 161.648 39.5701 161.918 39.0661 162.458C38.5621 162.998 38.2741 163.718 38.1841 164.636H43.9981C43.8181 162.638 42.8281 161.648 41.0641 161.648ZM51.2285 160.442C52.5605 160.442 53.5325 160.784 54.1805 161.486C54.7205 162.098 55.0085 162.944 55.0085 164.024V170H53.6585V168.434C53.2985 168.938 52.8125 169.352 52.2365 169.676C51.5525 170.054 50.7785 170.252 49.9145 170.252C48.9785 170.252 48.2405 170.018 47.6825 169.55C47.1065 169.064 46.8185 168.434 46.8185 167.678C46.8185 166.616 47.2325 165.824 48.0965 165.284C48.8525 164.78 49.9325 164.51 51.3365 164.492L53.5685 164.456V163.97C53.5685 162.404 52.7585 161.63 51.1385 161.63C50.4545 161.63 49.8965 161.756 49.4645 162.044C48.9785 162.332 48.6725 162.782 48.5285 163.376L47.1065 163.268C47.3045 162.296 47.7905 161.558 48.5465 161.09C49.2305 160.658 50.1125 160.442 51.2285 160.442ZM53.5685 165.536L51.4265 165.572C49.3385 165.608 48.2945 166.292 48.2945 167.642C48.2945 168.074 48.4565 168.416 48.8165 168.704C49.1765 168.974 49.6445 169.118 50.2205 169.118C51.1025 169.118 51.8765 168.83 52.5605 168.254C53.2265 167.696 53.5685 167.048 53.5685 166.328V165.536ZM61.3192 160.442C61.8232 160.442 62.2552 160.514 62.5972 160.658V162.098C62.1292 161.954 61.6612 161.9 61.2112 161.9C60.4912 161.9 59.8792 162.206 59.3932 162.854C58.8892 163.466 58.6552 164.204 58.6552 165.068V170H57.2332V160.694H58.6552V162.314C58.9072 161.774 59.2312 161.342 59.6272 161.036C60.1132 160.64 60.6712 160.442 61.3192 160.442ZM67.1014 160.442C69.4054 160.442 70.6654 161.396 70.9174 163.34H69.5134C69.3874 162.764 69.1534 162.332 68.7934 162.08C68.3974 161.792 67.8214 161.648 67.0834 161.648C66.4354 161.648 65.9314 161.756 65.5714 162.008C65.1754 162.242 64.9774 162.566 64.9774 162.98C64.9774 163.376 65.2294 163.718 65.7694 163.988C66.1114 164.15 66.7594 164.348 67.6954 164.6C68.8114 164.87 69.6034 165.158 70.0894 165.464C70.8274 165.932 71.2054 166.562 71.2054 167.372C71.2054 169.28 69.8914 170.252 67.2634 170.252C64.8154 170.252 63.4834 169.172 63.2674 167.03H64.6714C64.7794 167.768 65.0494 168.29 65.4454 168.614C65.8414 168.902 66.4354 169.046 67.2274 169.046C68.8834 169.046 69.7294 168.506 69.7294 167.462C69.7294 166.94 69.4234 166.544 68.8474 166.256C68.5414 166.112 67.8754 165.914 66.8674 165.662C65.7694 165.392 64.9954 165.122 64.5634 164.834C63.8434 164.402 63.5014 163.808 63.5014 163.016C63.5014 162.224 63.8434 161.612 64.5454 161.144C65.1934 160.676 66.0574 160.442 67.1014 160.442ZM83.0474 160.442C84.4334 160.442 85.5494 160.91 86.3774 161.882C87.1694 162.8 87.5654 163.952 87.5654 165.356C87.5654 166.742 87.1694 167.894 86.3954 168.794C85.5494 169.766 84.4334 170.252 83.0474 170.252C81.6434 170.252 80.5454 169.766 79.7174 168.794C78.9254 167.894 78.5294 166.742 78.5294 165.356C78.5294 163.952 78.9254 162.8 79.7174 161.882C80.5454 160.91 81.6434 160.442 83.0474 160.442ZM83.0474 161.648C82.0574 161.648 81.2834 162.026 80.7434 162.782C80.2394 163.466 80.0054 164.312 80.0054 165.356C80.0054 166.382 80.2394 167.228 80.7434 167.912C81.2834 168.668 82.0574 169.046 83.0474 169.046C84.0194 169.046 84.7934 168.668 85.3694 167.912C85.8554 167.228 86.1074 166.364 86.1074 165.356C86.1074 164.312 85.8554 163.466 85.3694 162.782C84.7934 162.026 84.0194 161.648 83.0474 161.648ZM89.7243 156.896H91.1463V170H89.7243V156.896ZM100.549 156.896H101.989V170H100.639V168.47C99.9906 169.658 98.9466 170.252 97.5426 170.252C96.1746 170.252 95.1126 169.748 94.3566 168.776C93.6546 167.876 93.3126 166.724 93.3126 165.32C93.3126 163.952 93.6546 162.836 94.3566 161.936C95.1126 160.928 96.1386 160.442 97.4706 160.442C98.8026 160.442 99.8286 161.09 100.549 162.404V156.896ZM97.7766 161.63C96.7506 161.63 95.9766 161.99 95.4726 162.71C95.0046 163.34 94.7886 164.204 94.7886 165.32C94.7886 166.436 95.0046 167.318 95.4546 167.966C95.9586 168.686 96.7146 169.064 97.7226 169.064C98.6586 169.064 99.3786 168.704 99.9006 167.984C100.351 167.336 100.585 166.49 100.585 165.446V165.266C100.585 164.186 100.315 163.304 99.8106 162.638C99.2886 161.954 98.6046 161.63 97.7766 161.63ZM4.73436 178.442C6.06636 178.442 7.03836 178.784 7.68636 179.486C8.22636 180.098 8.51436 180.944 8.51436 182.024V188H7.16436V186.434C6.80436 186.938 6.31836 187.352 5.74236 187.676C5.05836 188.054 4.28436 188.252 3.42036 188.252C2.48436 188.252 1.74636 188.018 1.18836 187.55C0.612359 187.064 0.324359 186.434 0.324359 185.678C0.324359 184.616 0.738359 183.824 1.60236 183.284C2.35836 182.78 3.43836 182.51 4.84236 182.492L7.07436 182.456V181.97C7.07436 180.404 6.26436 179.63 4.64436 179.63C3.96036 179.63 3.40236 179.756 2.97036 180.044C2.48436 180.332 2.17836 180.782 2.03436 181.376L0.612359 181.268C0.810359 180.296 1.29636 179.558 2.05236 179.09C2.73636 178.658 3.61836 178.442 4.73436 178.442ZM7.07436 183.536L4.93236 183.572C2.84436 183.608 1.80036 184.292 1.80036 185.642C1.80036 186.074 1.96236 186.416 2.32236 186.704C2.68236 186.974 3.15036 187.118 3.72636 187.118C4.60836 187.118 5.38236 186.83 6.06636 186.254C6.73236 185.696 7.07436 185.048 7.07436 184.328V183.536ZM15.095 178.442C17.399 178.442 18.569 179.72 18.569 182.276V188H17.129V182.384C17.129 180.566 16.301 179.666 14.681 179.666C14.033 179.666 13.475 179.9 13.007 180.368C12.503 180.872 12.233 181.538 12.179 182.384V188H10.739V178.694H12.179V180.062C12.503 179.54 12.917 179.144 13.421 178.874C13.925 178.586 14.483 178.442 15.095 178.442ZM27.6697 174.896H29.1097V188H27.7597V186.47C27.1117 187.658 26.0677 188.252 24.6637 188.252C23.2957 188.252 22.2337 187.748 21.4777 186.776C20.7757 185.876 20.4337 184.724 20.4337 183.32C20.4337 181.952 20.7757 180.836 21.4777 179.936C22.2337 178.928 23.2597 178.442 24.5917 178.442C25.9237 178.442 26.9497 179.09 27.6697 180.404V174.896ZM24.8977 179.63C23.8717 179.63 23.0977 179.99 22.5937 180.71C22.1257 181.34 21.9097 182.204 21.9097 183.32C21.9097 184.436 22.1257 185.318 22.5757 185.966C23.0797 186.686 23.8357 187.064 24.8437 187.064C25.7797 187.064 26.4997 186.704 27.0217 185.984C27.4717 185.336 27.7057 184.49 27.7057 183.446V183.266C27.7057 182.186 27.4357 181.304 26.9317 180.638C26.4097 179.954 25.7257 179.63 24.8977 179.63ZM41.3848 178.442C42.7168 178.442 43.6888 178.784 44.3368 179.486C44.8768 180.098 45.1648 180.944 45.1648 182.024V188H43.8148V186.434C43.4548 186.938 42.9688 187.352 42.3928 187.676C41.7088 188.054 40.9348 188.252 40.0708 188.252C39.1348 188.252 38.3968 188.018 37.8388 187.55C37.2628 187.064 36.9748 186.434 36.9748 185.678C36.9748 184.616 37.3888 183.824 38.2528 183.284C39.0088 182.78 40.0888 182.51 41.4928 182.492L43.7248 182.456V181.97C43.7248 180.404 42.9148 179.63 41.2948 179.63C40.6108 179.63 40.0528 179.756 39.6208 180.044C39.1348 180.332 38.8288 180.782 38.6848 181.376L37.2628 181.268C37.4608 180.296 37.9468 179.558 38.7028 179.09C39.3868 178.658 40.2688 178.442 41.3848 178.442ZM43.7248 183.536L41.5828 183.572C39.4948 183.608 38.4508 184.292 38.4508 185.642C38.4508 186.074 38.6128 186.416 38.9728 186.704C39.3328 186.974 39.8008 187.118 40.3768 187.118C41.2588 187.118 42.0328 186.83 42.7168 186.254C43.3828 185.696 43.7248 185.048 43.7248 184.328V183.536ZM47.3894 174.896H48.8294V180.404C49.5494 179.09 50.5754 178.442 51.9074 178.442C53.2214 178.442 54.2654 178.928 55.0214 179.936C55.7054 180.836 56.0654 181.952 56.0654 183.32C56.0654 184.724 55.7054 185.876 55.0214 186.776C54.2474 187.748 53.1854 188.252 51.8354 188.252C50.3954 188.252 49.3694 187.658 48.7394 186.47V188H47.3894V174.896ZM51.6014 179.63C50.7554 179.63 50.0714 179.954 49.5674 180.638C49.0274 181.304 48.7754 182.186 48.7754 183.266V183.446C48.7754 184.49 49.0094 185.336 49.4774 185.984C49.9814 186.704 50.7194 187.064 51.6554 187.064C52.6634 187.064 53.4194 186.686 53.9234 185.966C54.3554 185.318 54.5894 184.436 54.5894 183.32C54.5894 182.204 54.3554 181.34 53.8874 180.71C53.3654 179.99 52.6094 179.63 51.6014 179.63ZM62.0943 178.442C63.4803 178.442 64.5963 178.91 65.4243 179.882C66.2163 180.8 66.6123 181.952 66.6123 183.356C66.6123 184.742 66.2163 185.894 65.4423 186.794C64.5963 187.766 63.4803 188.252 62.0943 188.252C60.6903 188.252 59.5923 187.766 58.7643 186.794C57.9723 185.894 57.5763 184.742 57.5763 183.356C57.5763 181.952 57.9723 180.8 58.7643 179.882C59.5923 178.91 60.6903 178.442 62.0943 178.442ZM62.0943 179.648C61.1043 179.648 60.3303 180.026 59.7903 180.782C59.2863 181.466 59.0523 182.312 59.0523 183.356C59.0523 184.382 59.2863 185.228 59.7903 185.912C60.3303 186.668 61.1043 187.046 62.0943 187.046C63.0663 187.046 63.8403 186.668 64.4163 185.912C64.9023 185.228 65.1543 184.364 65.1543 183.356C65.1543 182.312 64.9023 181.466 64.4163 180.782C63.8403 180.026 63.0663 179.648 62.0943 179.648ZM67.4572 178.694H69.0412L71.7052 186.2L74.3692 178.694H75.9532L72.4252 188H70.9672L67.4572 178.694ZM81.0008 178.442C82.4948 178.442 83.6288 178.946 84.3848 179.954C85.0688 180.854 85.4288 182.132 85.4648 183.752H78.1208C78.1928 184.796 78.4628 185.606 78.9668 186.182C79.4708 186.758 80.1728 187.046 81.0548 187.046C81.8108 187.046 82.4408 186.848 82.9088 186.47C83.3048 186.146 83.6108 185.66 83.8448 185.012H85.2848C85.0688 185.912 84.6548 186.632 84.0248 187.208C83.2508 187.892 82.2608 188.252 81.0548 188.252C79.7228 188.252 78.6428 187.802 77.8508 186.938C77.0228 186.038 76.6268 184.85 76.6268 183.338C76.6268 181.97 77.0048 180.818 77.7968 179.9C78.5888 178.928 79.6508 178.442 81.0008 178.442ZM81.0368 179.648C80.2088 179.648 79.5428 179.918 79.0388 180.458C78.5348 180.998 78.2468 181.718 78.1568 182.636H83.9708C83.7908 180.638 82.8008 179.648 81.0368 179.648Z" fill="black"/>
<path d="M58.078 82.896C59.266 82.896 60.238 83.238 61.012 83.922C61.768 84.606 62.164 85.524 62.164 86.64C62.164 87.756 61.732 88.764 60.904 89.664C60.454 90.132 59.572 90.834 58.24 91.734C56.602 92.832 55.666 93.822 55.432 94.686H62.182V96H53.614C53.614 94.83 54.028 93.768 54.892 92.814C55.396 92.238 56.314 91.464 57.682 90.528C58.69 89.808 59.356 89.286 59.698 88.926C60.346 88.224 60.688 87.45 60.688 86.622C60.688 85.83 60.454 85.236 59.986 84.804C59.518 84.372 58.852 84.156 58.024 84.156C57.142 84.156 56.458 84.444 55.99 85.056C55.486 85.632 55.216 86.496 55.198 87.63H53.722C53.722 86.19 54.136 85.038 54.928 84.192C55.72 83.328 56.782 82.896 58.078 82.896ZM68.871 82.896C71.247 82.896 72.615 84.03 72.975 86.334H71.517C71.229 84.858 70.347 84.138 68.853 84.138C67.845 84.138 67.053 84.624 66.477 85.632C65.901 86.568 65.631 87.774 65.631 89.232C65.631 89.304 65.631 89.466 65.649 89.7H65.721C66.045 89.034 66.495 88.512 67.107 88.152C67.683 87.774 68.349 87.594 69.105 87.594C70.329 87.594 71.319 87.99 72.075 88.782C72.813 89.574 73.191 90.582 73.191 91.842C73.191 93.102 72.777 94.164 71.967 94.992C71.139 95.82 70.113 96.252 68.853 96.252C67.287 96.252 66.117 95.658 65.325 94.506C64.569 93.408 64.209 91.878 64.209 89.916C64.209 87.864 64.605 86.19 65.415 84.912C66.261 83.562 67.413 82.896 68.871 82.896ZM68.817 88.818C67.971 88.818 67.269 89.106 66.711 89.682C66.153 90.258 65.883 90.978 65.883 91.878C65.883 92.778 66.135 93.516 66.675 94.092C67.215 94.704 67.917 95.01 68.817 95.01C69.681 95.01 70.383 94.704 70.923 94.128C71.463 93.516 71.733 92.76 71.733 91.842C71.733 90.924 71.463 90.204 70.941 89.664C70.401 89.088 69.699 88.818 68.817 88.818ZM74.984 90.726H84.074V91.95H74.984V90.726ZM90.5084 82.896C91.7324 82.896 92.7404 83.202 93.4964 83.832C94.2344 84.462 94.6124 85.308 94.6124 86.388C94.6124 87.828 93.9104 88.8 92.5064 89.268C93.2624 89.502 93.8384 89.862 94.2344 90.366C94.6664 90.87 94.8824 91.5 94.8824 92.256C94.8824 93.426 94.4684 94.38 93.6584 95.118C92.8304 95.874 91.7504 96.252 90.4184 96.252C89.1944 96.252 88.2044 95.928 87.4304 95.316C86.5124 94.56 86.0084 93.462 85.9004 92.022H87.3944C87.4304 93.03 87.7724 93.804 88.4024 94.326C88.9424 94.758 89.6084 94.992 90.4184 94.992C91.3364 94.992 92.0744 94.722 92.6324 94.2C93.1364 93.696 93.4064 93.066 93.4064 92.31C93.4064 91.536 93.1544 90.942 92.6504 90.51C92.1464 90.078 91.4624 89.88 90.5624 89.88H89.5184V88.728H90.5084C91.3724 88.728 92.0204 88.53 92.4704 88.152C92.9204 87.756 93.1544 87.198 93.1544 86.478C93.1544 85.758 92.9204 85.2 92.4884 84.804C92.0204 84.372 91.3544 84.174 90.5264 84.174C89.6624 84.174 88.9964 84.39 88.5104 84.858C88.0064 85.326 87.7184 85.992 87.6284 86.856H86.1704C86.2784 85.614 86.7464 84.642 87.5384 83.94C88.2944 83.238 89.2844 82.896 90.5084 82.896ZM97.6654 83.148H105.135V84.462H98.8714L98.4394 88.764H98.5114C98.8714 88.332 99.3394 88.008 99.8974 87.792C100.401 87.576 100.941 87.486 101.535 87.486C102.759 87.486 103.749 87.864 104.505 88.638C105.261 89.43 105.657 90.51 105.657 91.896C105.657 93.192 105.189 94.254 104.271 95.082C103.407 95.856 102.327 96.252 101.067 96.252C99.9334 96.252 98.9614 95.946 98.1694 95.334C97.2694 94.65 96.7834 93.714 96.6934 92.544H98.1514C98.2234 93.354 98.5474 93.984 99.1234 94.416C99.6274 94.794 100.293 94.992 101.085 94.992C101.985 94.992 102.723 94.704 103.317 94.128C103.893 93.552 104.199 92.814 104.199 91.914C104.199 90.888 103.911 90.096 103.371 89.538C102.849 88.962 102.111 88.692 101.175 88.692C100.563 88.692 100.023 88.818 99.5374 89.088C99.0334 89.34 98.6374 89.736 98.3854 90.24H96.9814L97.6654 83.148Z" fill="black"/>
<path d="M58.024 123.896C59.248 123.896 60.256 124.202 61.012 124.832C61.75 125.462 62.128 126.308 62.128 127.388C62.128 128.828 61.426 129.8 60.022 130.268C60.778 130.502 61.354 130.862 61.75 131.366C62.182 131.87 62.398 132.5 62.398 133.256C62.398 134.426 61.984 135.38 61.174 136.118C60.346 136.874 59.266 137.252 57.934 137.252C56.71 137.252 55.72 136.928 54.946 136.316C54.028 135.56 53.524 134.462 53.416 133.022H54.91C54.946 134.03 55.288 134.804 55.918 135.326C56.458 135.758 57.124 135.992 57.934 135.992C58.852 135.992 59.59 135.722 60.148 135.2C60.652 134.696 60.922 134.066 60.922 133.31C60.922 132.536 60.67 131.942 60.166 131.51C59.662 131.078 58.978 130.88 58.078 130.88H57.034V129.728H58.024C58.888 129.728 59.536 129.53 59.986 129.152C60.436 128.756 60.67 128.198 60.67 127.478C60.67 126.758 60.436 126.2 60.004 125.804C59.536 125.372 58.87 125.174 58.042 125.174C57.178 125.174 56.512 125.39 56.026 125.858C55.522 126.326 55.234 126.992 55.144 127.856H53.686C53.794 126.614 54.262 125.642 55.054 124.94C55.81 124.238 56.8 123.896 58.024 123.896ZM68.871 123.896C71.247 123.896 72.615 125.03 72.975 127.334H71.517C71.229 125.858 70.347 125.138 68.853 125.138C67.845 125.138 67.053 125.624 66.477 126.632C65.901 127.568 65.631 128.774 65.631 130.232C65.631 130.304 65.631 130.466 65.649 130.7H65.721C66.045 130.034 66.495 129.512 67.107 129.152C67.683 128.774 68.349 128.594 69.105 128.594C70.329 128.594 71.319 128.99 72.075 129.782C72.813 130.574 73.191 131.582 73.191 132.842C73.191 134.102 72.777 135.164 71.967 135.992C71.139 136.82 70.113 137.252 68.853 137.252C67.287 137.252 66.117 136.658 65.325 135.506C64.569 134.408 64.209 132.878 64.209 130.916C64.209 128.864 64.605 127.19 65.415 125.912C66.261 124.562 67.413 123.896 68.871 123.896ZM68.817 129.818C67.971 129.818 67.269 130.106 66.711 130.682C66.153 131.258 65.883 131.978 65.883 132.878C65.883 133.778 66.135 134.516 66.675 135.092C67.215 135.704 67.917 136.01 68.817 136.01C69.681 136.01 70.383 135.704 70.923 135.128C71.463 134.516 71.733 133.76 71.733 132.842C71.733 131.924 71.463 131.204 70.941 130.664C70.401 130.088 69.699 129.818 68.817 129.818ZM74.984 131.726H84.074V132.95H74.984V131.726ZM91.8944 124.148H93.2804V132.878H95.3684V134.084H93.2804V137H91.8764V134.084H85.4144V132.68L91.8944 124.148ZM91.8224 126.074L86.6564 132.878H91.8764V126.074H91.8224ZM97.6654 124.148H105.135V125.462H98.8714L98.4394 129.764H98.5114C98.8714 129.332 99.3394 129.008 99.8974 128.792C100.401 128.576 100.941 128.486 101.535 128.486C102.759 128.486 103.749 128.864 104.505 129.638C105.261 130.43 105.657 131.51 105.657 132.896C105.657 134.192 105.189 135.254 104.271 136.082C103.407 136.856 102.327 137.252 101.067 137.252C99.9334 137.252 98.9614 136.946 98.1694 136.334C97.2694 135.65 96.7834 134.714 96.6934 133.544H98.1514C98.2234 134.354 98.5474 134.984 99.1234 135.416C99.6274 135.794 100.293 135.992 101.085 135.992C101.985 135.992 102.723 135.704 103.317 135.128C103.893 134.552 104.199 133.814 104.199 132.914C104.199 131.888 103.911 131.096 103.371 130.538C102.849 129.962 102.111 129.692 101.175 129.692C100.563 129.692 100.023 129.818 99.5374 130.088C99.0334 130.34 98.6374 130.736 98.3854 131.24H96.9814L97.6654 124.148Z" fill="black"/>
<line x1="122.068" y1="28" x2="122.068" y2="188" stroke="black"/>
<defs>
<clipPath id="clip0_2253_3532">
<rect width="71.03" height="135.42" fill="white" transform="translate(549.568)"/>
</clipPath>
<clipPath id="clip1_2253_3532">
<rect width="290.64" height="290.63" fill="white" transform="translate(220.568 145)"/>
</clipPath>
<clipPath id="clip2_2253_3532">
<rect width="76" height="133" fill="white" transform="translate(63.5684 329)"/>
</clipPath>
</defs>
</svg>
