<svg width="358" height="271" viewBox="0 0 358 271" fill="none" xmlns="http://www.w3.org/2000/svg">
<path opacity="0.12" d="M343.408 124.447C336.592 114.151 327.87 105.255 317.71 98.2403C316.966 87.0035 314.338 75.9716 309.931 65.6082C304.347 52.8859 296.305 41.3935 286.261 31.7933C276.277 21.4582 264.317 13.2358 251.092 7.61522C238.022 2.43394 224.066 -0.150322 210.007 0.00675362C188.708 -0.167529 167.851 6.07777 150.154 17.9287C140.267 24.5203 131.529 32.688 124.285 42.1067C118.754 40.7363 113.075 40.055 107.377 40.0778C98.7456 39.9732 90.1783 41.5775 82.1693 44.7987C74.1604 48.0196 66.8677 52.7934 60.7121 58.8453C53.6672 65.7422 48.2853 74.153 44.9751 83.4396C41.6648 92.726 40.5128 102.645 41.6065 112.443C33.1136 117.536 25.5634 124.056 19.2885 131.717C6.49923 146.875 -0.35018 166.162 0.0137946 185.991C-0.101129 197.306 2.12221 208.523 6.54446 218.938C10.9667 229.354 17.4926 238.744 25.7132 246.521C33.8279 254.36 43.4135 260.519 53.9178 264.64C64.4222 268.761 75.6379 270.762 86.9193 270.529H261.406C273.949 270.581 286.378 268.162 297.984 263.402C309.59 258.645 320.141 251.644 329.038 242.802C338.163 234.068 345.462 223.607 350.51 212.029C355.372 200.411 357.842 187.933 357.781 175.339C358.114 157.329 353.116 139.622 343.408 124.447Z" fill="#FF7876"/>
<path d="M114.505 159.718V196.284H124.795V159.718H114.505ZM96.2216 164.114V193.787H106.312V164.114H96.2216ZM133.187 171.907C135.185 176.103 138.382 180.099 142.778 183.896C138.183 185.295 132.887 186.493 126.893 187.492L130.49 194.086C123.996 198.682 117.802 202.479 111.907 205.276C110.109 205.975 106.912 206.375 102.516 206.375L104.314 215.067C111.807 214.567 119.4 214.168 127.093 213.768C119.1 217.165 111.507 219.663 104.314 221.261C101.317 221.261 98.3197 221.161 95.3224 220.961L97.4205 230.253C107.811 229.853 119.1 229.453 131.089 228.854V239.544C131.089 241.442 130.29 242.441 128.691 242.441C126.094 242.441 123.396 242.142 120.599 241.742L122.797 251.533H132.188C138.482 251.533 141.679 248.336 141.679 242.042V228.255C149.372 227.855 157.465 227.355 165.857 226.756C167.855 228.954 169.653 231.052 171.352 233.25L179.744 227.555C175.548 222.56 169.653 216.565 161.86 209.772L153.768 214.767C155.666 216.466 157.564 218.264 159.363 220.062C148.073 220.762 136.584 221.361 124.895 221.86C138.482 217.664 150.871 212.269 162.06 205.875L153.268 200.081C149.372 202.379 145.476 204.577 141.679 206.675L124.395 207.674C129.79 205.076 134.986 202.079 139.981 198.682L135.285 195.185C141.579 193.787 147.174 192.188 152.17 190.29C157.964 193.487 165.157 196.484 173.65 199.182L179.244 190.29C172.85 188.791 167.255 187.093 162.36 185.195C168.255 181.398 172.251 176.703 174.349 171.308V162.516H129.591V171.907H133.187ZM152.17 180.299C147.973 177.802 144.776 175.004 142.578 171.907H163.759C161.161 175.104 157.365 177.901 152.17 180.299ZM151.37 230.552L146.275 238.245C155.866 241.242 165.257 245.339 174.349 250.634L179.844 241.842C171.252 237.446 161.761 233.65 151.37 230.552ZM118.401 230.752C111.308 234.848 102.316 238.245 91.3262 240.843L95.822 250.234C107.211 246.837 116.802 242.741 124.595 237.746L118.401 230.752ZM231.995 159.519V199.581H225.102V209.772H231.995V238.145C231.995 240.343 230.696 241.942 228.099 242.941L232.595 252.532C242.386 249.834 250.978 246.438 258.57 242.242L256.572 232.351C251.677 235.248 246.881 237.546 242.086 239.344V209.772H250.778C256.472 227.655 264.765 241.242 275.655 250.634L282.848 242.541C273.157 234.848 265.564 223.959 260.169 209.772H281.05V199.581H242.086V159.519H231.995ZM270.559 163.815C264.964 172.407 256.372 179.999 244.783 186.793L250.878 194.986C262.866 187.892 271.758 179.999 277.753 171.308L270.559 163.815ZM203.022 194.286H221.105V162.516H191.133V172.107H211.215V184.795H193.831L190.534 216.765H212.413C212.413 227.156 212.014 233.849 211.314 236.946C210.515 240.143 207.618 241.742 202.523 241.742C199.525 241.742 196.528 241.542 193.731 241.342L196.328 250.834C199.226 251.033 202.023 251.233 204.82 251.233C214.312 250.634 219.707 247.437 220.906 241.642C222.004 235.847 222.604 224.458 222.604 207.374H201.424L203.022 194.286Z" fill="#FF7876"/>
<path d="M77.983 69.7689C76.5677 70.99 75.0136 72.1 73.3207 73.0436L73.8758 74.9862C75.3189 74.0704 76.6232 73.0714 77.8443 71.989C77.4558 76.0131 76.4567 79.2878 74.7916 81.7855L76.2902 83.1176C78.6213 79.5931 79.8424 74.903 79.9534 69.0473V61.8318H97.9922V59.9447H89.1948C88.8341 59.0566 88.4455 58.2518 88.057 57.5303L86.0034 57.8911C86.4474 58.5016 86.8637 59.1954 87.2522 59.9447H78.0108V69.0473C78.0108 69.2693 77.983 69.5191 77.983 69.7689ZM74.8748 62.1093L73.293 62.7754C74.181 64.274 74.9858 66.0501 75.7351 68.076L77.3725 67.3822C76.6787 65.5228 75.8461 63.7745 74.8748 62.1093ZM94.8562 82.951C96.4658 82.951 97.2706 82.174 97.2706 80.6199V69.1306H91.0542C90.9987 69.0751 90.9155 69.0196 90.8599 68.9918C92.9691 67.9095 94.8562 66.6884 96.4658 65.3563V63.7745H81.9238V65.5506H93.6906C92.303 66.4664 90.9155 67.2712 89.4724 67.965C88.39 67.2157 87.1689 66.4664 85.8091 65.7171L84.588 66.8827C86.0034 67.632 87.2522 68.3813 88.3623 69.1306H81.8406V83.1453H83.6999V78.5107H88.6398V82.7013H90.4992V78.5107H95.4113V80.2314C95.4113 80.8974 95.0227 81.2582 94.2734 81.2582L92.1643 81.1749L92.6361 82.951H94.8562ZM83.6999 76.9011V74.7087H88.6398V76.9011H83.6999ZM90.4992 74.7087H95.4113V76.9011H90.4992V74.7087ZM83.6999 73.0991V70.7679H88.6398V73.0991H83.6999ZM90.4992 70.7679H95.4113V73.0991H90.4992V70.7679ZM101.6 60.3332V62.2759H108.177V64.829H110.175V62.2759H117.391V64.829H119.389V62.2759H125.966V60.3332H119.389V57.8911H117.391V60.3332H110.175V57.8911H108.177V60.3332H101.6ZM101.905 67.2712V69.2138H112.784V72.6828H105.18V83.2841H107.123V81.7855H120.444V83.2841H122.386V72.6828H114.782V69.2138H125.661V67.2712H114.782V63.8577H112.784V67.2712H101.905ZM107.123 79.9261V74.5422H120.444V79.9261H107.123Z" fill="#FF7876"/>
<path d="M43.7589 187.16H6.23831V195.685H10.4122V191.111H39.585V195.641H43.7589V187.16ZM5.57227 178.501V182.453H15.4742V185.916H19.7369V182.453H30.3492V185.916H34.6119V182.453H44.3806V178.501H34.6119V174.815H30.3492V178.501H19.7369V174.86H15.4742V178.501H5.57227ZM21.2022 193.065V195.463L21.1134 196.884H9.08011V200.614H20.4473C19.8701 202.567 19.0264 204.344 17.8719 205.898C15.785 208.384 11.8775 210.471 6.1051 212.114L8.32526 215.622C14.1421 213.935 18.3604 211.626 20.9357 208.606C22.7119 206.43 23.9107 203.766 24.6212 200.614H35.9884C35.8552 205.409 35.5 208.384 34.8783 209.494C34.1679 210.649 32.5694 211.226 30.0828 211.27L25.4205 211.048L26.4417 214.823C28.2623 214.956 29.772 215.045 31.0152 215.045C34.3899 215.045 36.7432 214.157 38.1197 212.469C39.4518 210.782 40.1623 205.587 40.2511 196.884H25.1984L25.2872 195.463V193.065H21.2022ZM67.6478 215.355C70.312 215.355 71.6885 213.979 71.6885 211.27V204.965C75.2407 204.743 78.9706 204.521 82.8781 204.255C83.6773 205.143 84.3878 206.075 85.0982 206.963L88.4729 204.61C86.6967 202.434 84.2102 199.859 80.9243 196.928L77.6829 198.971C78.571 199.814 79.459 200.658 80.3027 201.502C74.7967 201.857 69.2463 202.168 63.6071 202.345C69.9124 200.436 75.6404 197.905 80.8799 194.797L77.3721 192.443C75.6848 193.42 74.0419 194.397 72.3989 195.33C69.2019 195.507 65.9605 195.729 62.7191 195.907C64.9392 194.664 67.1594 193.198 69.3351 191.511H85.187V175.97H53.572V191.511H63.7847C61.9642 192.799 60.1881 193.909 58.5008 194.841C57.7459 195.108 56.4582 195.285 54.6821 195.285L55.437 198.838C59.1668 198.571 62.9411 198.305 66.7597 198.127C62.6747 199.992 58.8116 201.324 55.1705 202.123C53.9716 202.123 52.7728 202.079 51.5295 201.99L52.3731 205.809C56.9911 205.631 62.0086 205.454 67.4258 205.187V210.294C67.4258 211.182 67.0262 211.67 66.2269 211.67C65.0724 211.67 63.8735 211.537 62.6303 211.359L63.5183 215.355H67.6478ZM76.1288 206.208L74.0863 209.361C78.349 210.693 82.4784 212.514 86.5191 214.867L88.7837 211.359C84.965 209.317 80.7467 207.629 76.1288 206.208ZM61.6978 206.297C58.5452 208.162 54.5045 209.716 49.6201 210.96L51.4407 214.778C56.5026 213.269 60.7653 211.359 64.2288 209.139L61.6978 206.297ZM81.1463 188.181H71.4665V185.383H81.1463V188.181ZM71.4665 182.098V179.3H81.1463V182.098H71.4665ZM67.2926 188.181H57.6127V185.383H67.2926V188.181ZM57.6127 182.098V179.3H67.2926V182.098H57.6127Z" fill="#FF7876"/>
<path opacity="0.9" d="M157.676 116.625C155.478 121.287 152.88 125.217 149.883 128.547L154.945 132.144C158.009 128.481 160.74 124.151 163.004 119.222L157.676 116.625ZM173.861 117.957L167.933 119.156C169.132 122.819 170.197 127.015 171.13 131.811L177.391 130.345C176.392 125.883 175.193 121.753 173.861 117.957ZM187.581 117.158L181.72 118.423C183.585 122.22 185.117 126.616 186.449 131.678L192.577 130.212C191.111 125.55 189.446 121.154 187.581 117.158ZM201.635 116.359L196.506 119.556C199.97 124.085 202.767 128.214 204.765 131.944L209.96 128.281C208.029 124.95 205.232 120.954 201.635 116.359ZM157.809 91.9812V115.026H205.898V109.298H186.116V104.17H202.301V98.7749H186.116V93.7795H202.301V88.4512H186.116V83.1894H205.098V77.528H186.049C185.317 74.7306 184.584 72.1996 183.851 69.9351L177.324 71.0007C178.19 72.9989 178.989 75.1968 179.722 77.528H165.935C166.734 75.5298 167.6 73.4651 168.466 71.2672L162.471 69.9351C158.741 79.7259 154.346 87.3855 149.15 92.8471L153.213 97.6426C154.812 95.9109 156.344 94.0459 157.809 91.9812ZM179.922 109.298H164.136V104.17H179.922V109.298ZM179.922 98.7749H164.136V93.7795H179.922V98.7749ZM179.922 88.4512H164.136V83.1894H179.922V88.4512ZM239.933 70.0683V82.1903H221.35V102.705C221.217 112.762 219.552 121.087 216.354 127.615L221.017 131.744C225.146 123.685 227.211 113.961 227.211 102.638V87.5853H268.239C267.573 89.8499 266.774 91.848 265.842 93.6463L271.77 95.2448C273.168 91.848 274.167 88.4512 274.833 84.9877V82.1903H246.127V78.3938H269.505V73.1321H246.127V70.0683H239.933ZM263.311 90.7157L246.06 92.7804V88.7842H240.066V93.5131L228.943 94.7786L229.675 99.9071L240.066 98.7083V100.906C240.066 104.37 242.397 106.101 247.059 106.101H263.444C265.842 106.101 267.707 105.702 268.906 104.969C270.104 104.17 270.97 101.639 271.503 97.5094L265.642 95.6445C265.509 98.3086 265.109 99.8405 264.51 100.24C264.043 100.706 263.311 100.973 262.312 100.973H248.658C246.926 100.973 246.06 100.573 246.06 99.7739V97.9756L264.11 95.8443L263.311 90.7157ZM230.608 111.963C229.675 117.158 228.077 122.086 225.812 126.682L231.007 129.946C233.272 125.217 235.004 119.622 236.336 113.161L230.608 111.963ZM252.388 107.034L247.259 108.699C249.657 111.963 251.921 115.759 253.92 120.088L259.181 117.691C257.25 113.894 254.985 110.364 252.388 107.034ZM270.304 110.164L264.709 112.029C267.374 116.758 269.771 122.22 271.969 128.414L277.498 125.883C275.433 120.288 273.035 115.093 270.304 110.164ZM259.248 131.345C261.512 131.345 263.244 130.812 264.376 129.879C265.509 128.747 266.308 125.417 266.841 119.955L261.046 118.157C260.913 121.62 260.58 123.752 260.047 124.484C259.648 125.017 259.048 125.35 258.116 125.35H247.459C245.794 125.35 244.994 124.484 244.994 122.753V110.897H238.8V124.085C238.8 128.88 240.998 131.345 245.527 131.345H259.248Z" fill="#FF7876"/>
<path d="M58.224 94.8119V98.4252H74.9306C71.5116 105.263 65.5283 111.091 57.0195 115.909L59.4673 119.134C64.9455 115.87 69.4524 112.14 73.0268 107.983V128.963H76.8344V102.699C77.6503 101.339 78.3885 99.9016 79.0879 98.4252H91.6373V94.8119H58.224ZM81.7299 105.38L79.0879 107.944C83.7113 111.752 87.2858 115.287 89.8501 118.59L92.764 115.676C89.7724 112.257 86.0814 108.799 81.7299 105.38ZM130.335 96.5603H115.804C115.26 95.1616 114.716 93.8794 114.172 92.7139L110.015 93.4132C110.636 94.3845 111.18 95.4336 111.685 96.5603H97.1932V105.302H100.923V100.135H126.605V105.341H130.335V96.5603ZM96.5716 107.322V110.897H105.352C104.148 112.995 102.905 115.093 101.584 117.23C105.041 118.318 108.538 119.639 112.035 121.115C108.072 123.913 102.905 125.35 96.5327 125.389L98.6696 128.808C105.741 128.614 111.491 126.593 115.881 122.786C119.844 124.612 123.846 126.71 127.848 129.041L130.373 125.778C126.333 123.602 122.409 121.659 118.562 120.027C120.349 117.774 122.02 114.704 123.574 110.897H131.073V107.322H111.685C112.501 105.768 113.356 104.137 114.288 102.427L110.481 101.3C109.471 103.321 108.422 105.302 107.334 107.322H96.5716ZM109.704 110.897H119.534C118.329 113.85 116.775 116.414 114.91 118.512C112.152 117.424 109.432 116.531 106.79 115.754C107.683 114.316 108.655 112.684 109.704 110.897Z" fill="#FF7876"/>
<path d="M166.878 26.8089V29.906H175.803V40.7626H165.08V43.8597H190.057V40.7626H178.934V29.906H188.225V26.8089H178.934V20.4481H175.803V26.8089H166.878ZM183.463 31.3047L180.998 32.8699C182.763 35.4342 184.195 37.7653 185.261 39.8967L187.792 38.1317C186.76 36.1668 185.328 33.9023 183.463 31.3047ZM189.224 15.5194H162.049V26.3093C161.983 33.436 161.05 39.0308 159.252 43.0271L161.65 45.1585C163.914 40.4295 165.08 34.1687 165.213 26.3093V18.5499H189.224V15.5194ZM205.009 14.4204V17.9505C204.976 18.9162 204.943 19.882 204.876 20.8811H195.252V23.9449H204.61C204.21 27.5415 203.477 30.6719 202.445 33.2695C200.847 36.9661 197.883 39.9966 193.487 42.3944L195.185 45.0586C199.648 42.8606 202.878 39.6969 204.876 35.6007C206.308 32.4703 207.274 28.5739 207.807 23.9449H217.564C217.398 31.4046 217.031 36.3 216.465 38.5979C215.933 40.7626 214.767 41.8615 213.002 41.8615C211.77 41.8615 210.471 41.8282 209.072 41.7616L209.938 44.8254H214.567C216.332 44.6922 217.598 43.9596 218.397 42.5942C219.196 41.1622 219.762 38.6645 220.095 35.1012C220.428 31.4712 220.628 26.7423 220.761 20.8811H208.073C208.14 19.9153 208.173 18.9495 208.206 17.9505V14.4204H205.009Z" fill="#FF7876"/>
<path d="M194.308 50.3754C191.128 51.1414 187.132 51.541 182.303 51.541L182.669 52.6234C184.734 52.6234 186.649 52.5401 188.414 52.4069V55.121H182.636V56.2866H188.414V59.0174H181.254V60.1663H188.414V63.5465C188.414 64.0127 188.147 64.2625 187.648 64.2625C186.882 64.2625 186.066 64.2292 185.217 64.1959L185.483 65.3615H188.064C189.097 65.3615 189.629 64.8453 189.629 63.8462V60.1663H196.19V59.0174H189.629V56.2866H194.941V55.121H189.629V52.307C191.628 52.1072 193.376 51.7908 194.891 51.3912L194.308 50.3754ZM203.766 53.4393V54.5882H205.248V64.9785H212.525V63.7963H206.447V54.5882H213.058V53.4393H209.394C209.061 52.307 208.728 51.3079 208.379 50.4254L207.097 50.6252C207.479 51.4744 207.829 52.4069 208.146 53.4393H203.766ZM198.388 53.6557C198.355 55.171 198.155 56.603 197.805 57.9684L198.854 58.2515C199.187 56.8195 199.37 55.3208 199.42 53.739L198.388 53.6557ZM202.601 52.9397L201.685 53.2394C202.068 54.4716 202.384 55.7704 202.634 57.1192L203.666 56.8694C203.35 55.3874 203 54.072 202.601 52.9397ZM200.136 50.2256V65.4781H201.352V50.2256H200.136ZM216.305 55.9702H218.12V58.7843H216.305V55.9702ZM218.12 54.8879H216.305V51.9906H218.12V54.8879ZM216.288 59.8833H218.12V63.9128C218.12 64.2625 217.936 64.4457 217.587 64.4457C217.304 64.4457 217.004 64.429 216.688 64.4124L216.954 65.4448H217.92C218.769 65.4448 219.202 65.0618 219.202 64.2958V50.9249H215.206V59.134C215.189 61.3985 214.906 63.2468 214.34 64.6954L215.206 65.4781C215.838 64.0128 216.205 62.1478 216.288 59.8833ZM221.65 50.5253V52.973H219.968V54.0554H221.65V57.0026H219.668V58.0849H221.483C221 59.8 220.517 61.3652 220.051 62.7972C219.968 62.9804 219.835 63.0969 219.651 63.1302L219.885 64.1793C221.5 63.9128 222.732 63.6464 223.581 63.3967L223.848 64.7121L224.763 64.3458C224.514 62.9804 224.147 61.4485 223.681 59.7667L222.749 60.0331C222.965 60.7991 223.165 61.5983 223.365 62.4309C222.699 62.6307 221.933 62.8139 221.083 62.9804C221.483 61.7981 221.966 60.1663 222.532 58.0849H224.697V57.0026H222.765V54.0554H224.447V52.973H222.765V50.5253H221.65ZM227.794 63.6464C228.593 63.6464 229.009 63.1968 229.009 62.3143V51.1081H225.246V65.4781H226.295V52.1571H227.944V62.0979C227.944 62.4309 227.761 62.6141 227.428 62.6141L226.678 62.5641L226.978 63.6464H227.794ZM231.141 54.9545V56.1034H234.687V58.9008H231.89V65.3115H233.089V64.5123H237.518V65.3115H238.7V58.9008H235.903V56.1034H239.333V54.9545H235.903V52.257C237.019 52.0905 238.001 51.8741 238.867 51.5743L238.284 50.5586C236.469 51.1414 234.188 51.4411 231.441 51.4411L231.79 52.5068C232.823 52.5068 233.788 52.4568 234.687 52.3902V54.9545H231.141ZM233.089 63.3634V59.9998H237.518V63.3634H233.089ZM244.195 65.2116C244.828 65.2116 245.278 65.0285 245.577 64.6788C245.91 64.2792 246.127 63.1469 246.243 61.2653L245.094 60.899C245.028 62.4642 244.911 63.3967 244.728 63.713C244.578 63.9794 244.329 64.1127 243.979 64.1127H242.23C241.764 64.1127 241.548 63.8629 241.548 63.3634V50.4754H240.349V63.6131C240.349 64.6788 240.848 65.2116 241.864 65.2116H244.195Z" fill="#FF7876"/>
<path d="M31.6695 148.684V150.582H40.3948V152.914H27.207V154.978H40.3948V156.344H42.8591V154.978H56.0801V152.914H42.8591V150.582H51.6176V148.684H42.8591V146.486H53.4493V144.721H55.3142V139.093H43.1921C42.8258 138.027 42.4595 137.062 42.0599 136.196L39.4956 136.595C39.9285 137.361 40.3281 138.194 40.7278 139.093H28.0063V145.354H29.8046V146.486H40.3948V148.684H31.6695ZM52.983 144.521H42.8591V142.523H40.3948V144.521H30.3375V141.291H52.983V144.521ZM52.5168 157.443H30.7704V167.067H33.1015V165.702H50.1856V167.067H52.5168V157.443ZM33.1015 163.637V159.507H50.1856V163.637H33.1015ZM88.45 141.657H79.9912C80.7905 140.125 81.3899 138.46 81.8228 136.662L79.3585 136.329C79.0254 138.194 78.4593 139.959 77.6601 141.657H73.1642V166.901H75.4621V165.136H86.1188V166.934H88.45V141.657ZM75.4621 162.904V154.312H86.1188V162.904H75.4621ZM75.4621 152.181V143.822H86.1188V152.181H75.4621ZM61.0089 142.956C60.909 146.087 60.4094 149.084 59.5436 151.881L61.5084 152.447C62.3743 149.517 62.8405 146.386 62.9071 143.089L61.0089 142.956ZM69.2013 142.29L67.5028 142.823C68.4353 145.221 69.2013 147.718 69.8007 150.316L71.6323 149.85C70.8997 146.986 70.1004 144.488 69.2013 142.29ZM64.5056 136.595V166.967H66.8035V136.595H64.5056Z" fill="#FF7876"/>
<path d="M29.8174 222.538L28.9682 223.37C30.2004 224.253 31.1828 225.085 31.8988 225.885L32.748 225.035C31.9487 224.203 30.983 223.37 29.8174 222.538ZM29.3512 226.534L28.502 227.367C29.6675 228.249 30.5833 229.082 31.2494 229.864L32.1153 229.015C31.366 228.182 30.4501 227.367 29.3512 226.534ZM31.4159 231.063C30.6666 233.028 29.7841 234.943 28.7684 236.824L29.9673 237.341C30.8997 235.509 31.7323 233.561 32.4982 231.496L31.4159 231.063ZM34.563 230.68C35.0958 232.212 35.995 233.544 37.2438 234.643C35.9783 235.409 34.4631 236.025 32.6647 236.508L33.2642 237.607C35.1791 237.024 36.8275 236.292 38.2096 235.392C39.5417 236.358 41.2234 237.107 43.2549 237.657L43.8543 236.575C42.0227 236.142 40.4575 235.509 39.192 234.676C40.6073 233.544 41.6397 232.195 42.3058 230.63V229.531H33.514V230.68H34.563ZM38.2262 233.977C37.1273 233.061 36.2947 231.962 35.7286 230.68H40.9737C40.3909 231.946 39.4751 233.045 38.2262 233.977ZM35.0792 222.937V224.985C35.0792 226.317 34.3132 227.333 32.8146 228.049L33.6139 228.965C35.3789 227.999 36.278 226.634 36.278 224.852V224.07H39.7914V226.834C39.7914 227.783 40.291 228.266 41.29 228.266H43.488V227.133H41.5898C41.1735 227.133 40.9737 226.934 40.9737 226.567V222.937H35.0792ZM50.2317 228.282H56.8422V230.097H50.2317V228.282ZM56.8422 231.146V232.911H50.2317V231.146H56.8422ZM56.8422 233.96V235.859C56.8422 236.258 56.6258 236.458 56.1928 236.458C55.6433 236.458 55.0439 236.425 54.4112 236.391L54.7109 237.49H56.5758C57.5083 237.457 57.9745 237.041 57.9745 236.225V227.233H50.2484C50.648 226.617 50.9977 225.968 51.3307 225.302H60.1059V224.136H51.8302C52.0633 223.553 52.2632 222.954 52.463 222.338L51.2474 222.188C51.0476 222.837 50.7979 223.487 50.5148 224.136H45.5527V225.302H49.9653C48.8164 227.45 47.2012 229.348 45.1032 231.013L45.8858 232.029C47.0847 231.063 48.167 229.981 49.0994 228.815V237.524H50.2317V233.96H56.8422ZM71.4953 232.145V235.825H67.4823V236.991H76.7737V235.825H72.7274V232.145H76.0077V230.98H68.2316V232.145H71.4953ZM72.6442 227.45C74.0928 228.416 75.2418 229.348 76.1076 230.231L76.9901 229.348C76.0244 228.465 74.8255 227.583 73.4268 226.7C74.1927 225.885 74.7922 224.985 75.2251 223.986V223.037H68.0984V224.186H73.7931C72.5942 226.317 70.4296 227.983 67.3158 229.148L68.0651 230.131C69.8967 229.415 71.4287 228.515 72.6442 227.45ZM67.3158 233.86C65.7506 234.66 63.919 235.309 61.8376 235.792L62.0041 236.941C63.9689 236.441 65.7506 235.792 67.3158 234.993V233.86ZM64.6683 222.271C64.0189 224.203 63.2529 225.935 62.3704 227.433C62.2206 227.65 62.054 227.799 61.8709 227.883L62.1706 228.982C63.1197 228.848 64.0688 228.715 65.018 228.565C64.0855 230.164 63.2862 231.296 62.6202 231.962C62.4703 232.095 62.2872 232.212 62.0873 232.295L62.4037 233.394C63.9856 233.178 65.634 232.778 67.3491 232.179V231.08C66.1835 231.496 65.0346 231.829 63.869 232.079C64.8847 230.88 66.1669 228.882 67.6988 226.068L66.5998 225.651C66.2668 226.301 65.9338 226.917 65.6174 227.5C64.8348 227.633 64.0688 227.733 63.3029 227.799C64.1521 226.534 64.9847 224.852 65.8172 222.721L64.6683 222.271ZM86.5812 227.183V228.216H91.2602V227.183C91.8263 227.799 92.4591 228.382 93.1751 228.932L93.8245 227.933C91.7597 226.334 90.2944 224.486 89.4619 222.355H88.3629C87.3638 224.669 85.9152 226.551 84.0502 227.999L84.683 228.965C85.349 228.449 85.9818 227.849 86.5812 227.183ZM91.2102 227.117H86.6312C87.497 226.118 88.2463 224.919 88.9124 223.52C89.4785 224.819 90.2445 226.018 91.2102 227.117ZM84.5331 235.825V236.974H93.6247V235.825H91.1103C91.7764 233.994 92.3259 231.896 92.7921 229.531L91.6432 229.248C91.1436 231.862 90.5775 234.06 89.9447 235.825H84.5331ZM86.065 229.731L85.0327 230.081C85.6154 231.579 86.0983 233.128 86.4647 234.76L87.497 234.51C87.0641 232.712 86.5979 231.113 86.065 229.731ZM88.6293 229.248L87.5969 229.564C88.0965 230.996 88.4961 232.495 88.7958 234.044L89.8448 233.794C89.4785 232.079 89.0789 230.564 88.6293 229.248ZM82.6682 224.153L81.9355 229.914H79.9707L80.6367 225.335L79.5378 225.268L78.7552 230.98H83.0012C83.0012 233.511 82.9013 235.026 82.7348 235.559C82.5683 236.058 82.0854 236.325 81.2861 236.325C81.053 236.325 80.6367 236.292 80.054 236.225L80.3703 237.291C80.77 237.324 81.1696 237.341 81.5526 237.341C82.6016 237.341 83.2843 237.041 83.6173 236.475C83.9337 235.892 84.1002 233.711 84.1002 229.914H83.0678L83.8671 223.054H78.6386V224.153H82.6682ZM82.0521 232.462C80.9531 232.861 79.6543 233.178 78.189 233.428L78.3389 234.56C79.7209 234.293 80.9531 233.96 82.0521 233.544V232.462Z" fill="#FF7876"/>
<path d="M57.4637 248.413V258.504H64.707V248.413H57.4637ZM63.558 257.421H58.6126V254.025H63.558V257.421ZM58.6126 252.959V249.496H63.558V252.959H58.6126ZM55.8652 260.652V261.784H65.8892V260.652H55.8652ZM56.6145 253.925C55.8985 254.308 55.1658 254.657 54.4165 254.974V251.46H56.5146V250.295H54.4165V247.298H53.2676V250.295H50.9531V251.46H53.2676V255.407C52.4184 255.706 51.5359 255.956 50.6367 256.173L50.9198 257.322C51.719 257.088 52.5016 256.839 53.2676 256.556V260.402C53.2676 260.935 53.0178 261.218 52.535 261.218C52.0687 261.218 51.6025 261.185 51.1029 261.135L51.3694 262.284H52.9512C53.917 262.284 54.4165 261.751 54.4165 260.702V256.123C55.1658 255.823 55.8985 255.49 56.6145 255.124V253.925ZM67.9373 250.511C67.8873 252.076 67.6209 253.558 67.1547 254.957L68.1204 255.224C68.57 253.758 68.8198 252.21 68.8864 250.578L67.9373 250.511ZM72.0168 250.128L71.151 250.411C71.5839 251.61 71.9336 252.876 72.2 254.174L73.1491 253.908C72.8161 252.493 72.4497 251.227 72.0168 250.128ZM69.619 247.298V262.483H70.7846V247.298H69.619ZM75.8965 247.298V251.327H73.2656V252.493H75.8466C75.6135 256.689 74.4479 259.786 72.3498 261.784L73.2323 262.567C75.4969 260.369 76.7457 257.022 77.0122 252.493H78.0778V260.885C78.0778 261.801 78.4941 262.267 79.3267 262.267H81.075C81.4747 262.25 81.7744 262.084 81.9909 261.784C82.2073 261.418 82.3738 260.335 82.4737 258.57L81.3914 258.221C81.3581 259.753 81.2749 260.635 81.1583 260.885C81.0584 261.068 80.9418 261.168 80.792 261.168H79.643C79.36 261.168 79.2268 261.001 79.2268 260.668V252.493H82.0575V251.327H77.0621V247.298H75.8965ZM79.0603 247.581L78.2776 248.33C79.2434 249.113 80.0094 249.862 80.5755 250.578L81.3914 249.762C80.7587 249.029 79.9927 248.297 79.0603 247.581ZM89.9834 250.145H87.3026C87.6356 249.312 87.8854 248.397 88.0852 247.414L86.8863 247.248C86.7364 248.247 86.5033 249.212 86.1703 250.145H84.6217V261.984H85.7873V260.552H88.8178V261.501H89.9834V250.145ZM85.7873 259.436V255.79H88.8178V259.436H85.7873ZM85.7873 254.707V251.277H88.8178V254.707H85.7873ZM92.8807 254.008L91.9149 254.607C93.0639 255.973 93.9797 257.205 94.6624 258.304L95.6115 257.638C94.9788 256.606 94.0796 255.39 92.8807 254.008ZM98.5921 250.162H93.2803C93.5801 249.296 93.8132 248.363 94.013 247.381L92.8308 247.231C92.3978 249.595 91.6152 251.594 90.4496 253.225L91.1656 254.174C91.815 253.325 92.3645 252.376 92.8308 251.327H97.4098C97.3765 256.123 97.3099 259.003 97.21 259.936C97.0768 260.785 96.6272 261.218 95.8446 261.218C95.3284 261.218 94.729 261.201 94.0297 261.168L94.3127 262.267C95.112 262.3 95.6781 262.334 96.0111 262.334C97.4098 262.334 98.1758 261.684 98.3423 260.419C98.5088 259.12 98.5921 255.69 98.5921 250.162Z" fill="#FF7876"/>
<path d="M126.35 142.362C126.3 143.977 126.067 145.509 125.65 146.958L126.666 147.241C127.099 145.726 127.332 144.127 127.399 142.445L126.35 142.362ZM131.412 141.246C130.912 141.996 130.279 142.728 129.547 143.428V139.248H128.381V145.359C128.348 149.039 127.465 151.72 125.734 153.385L126.616 154.168C127.848 152.969 128.698 151.304 129.147 149.189C129.73 149.888 130.446 150.887 131.278 152.17L131.994 151.121C131.095 149.955 130.213 148.923 129.347 148.007C129.464 147.174 129.53 146.292 129.547 145.359V144.71C130.596 143.861 131.445 142.995 132.094 142.129L131.412 141.246ZM132.011 139.731V140.83H135.674C135.608 141.463 135.525 142.096 135.408 142.695H132.661V150.538H133.826V143.794H138.755V150.538H139.92V142.695H136.624C136.723 142.096 136.807 141.48 136.873 140.83H140.586V139.731H132.011ZM137.506 150.604L136.723 151.37C138.089 152.419 139.154 153.418 139.937 154.351L140.77 153.518C139.887 152.553 138.805 151.57 137.506 150.604ZM135.691 144.793V147.591C135.658 149.089 135.325 150.288 134.709 151.22C134.043 152.103 132.894 152.819 131.245 153.352L131.878 154.368C133.61 153.785 134.842 152.986 135.591 151.986C136.374 150.887 136.79 149.422 136.84 147.591V144.793H135.691ZM142.901 139.698V144.876H144.966V151.803C144.616 151.92 144.25 152.036 143.883 152.153V146.558H142.884V152.436C142.651 152.503 142.435 152.553 142.218 152.619L142.568 153.768C144.483 153.202 146.165 152.603 147.597 151.936V150.788C147.114 150.987 146.614 151.204 146.081 151.404V148.59H147.663V147.507H146.081V144.876H147.53V139.698H142.901ZM146.364 143.777H144.05V140.814H146.364V143.777ZM150.96 149.972C150.228 151.171 149.129 152.153 147.647 152.952L148.279 153.968C149.961 152.919 151.177 151.587 151.943 149.972H152.042V154.334H153.208V149.972H153.325C153.991 151.404 155.156 152.719 156.788 153.918L157.587 152.936C156.072 152.07 154.973 151.071 154.307 149.972H157.254V148.856H153.208V147.707H152.042V148.856H148.096V149.972H150.96ZM149.595 139.631V143.028H155.639V139.631H149.595ZM154.557 142.079H150.677V140.58H154.557V142.079ZM148.263 144.011V147.341H152.109V144.011H148.263ZM151.127 146.442H149.278V144.91H151.127V146.442ZM153.108 144.011V147.341H156.971V144.011H153.108ZM155.956 146.442H154.107V144.91H155.956V146.442ZM164.914 141.912H162.233C162.566 141.08 162.816 140.164 163.016 139.182L161.817 139.015C161.667 140.014 161.434 140.98 161.101 141.912H159.552V153.751H160.718V152.319H163.748V153.269H164.914V141.912ZM160.718 151.204V147.557H163.748V151.204H160.718ZM160.718 146.475V143.045H163.748V146.475H160.718ZM167.811 145.776L166.845 146.375C167.994 147.74 168.91 148.973 169.593 150.072L170.542 149.406C169.909 148.373 169.01 147.158 167.811 145.776ZM173.522 141.929H168.211C168.51 141.063 168.744 140.131 168.943 139.148L167.761 138.999C167.328 141.363 166.546 143.361 165.38 144.993L166.096 145.942C166.745 145.093 167.295 144.144 167.761 143.095H172.34C172.307 147.89 172.24 150.771 172.14 151.703C172.007 152.553 171.558 152.986 170.775 152.986C170.259 152.986 169.659 152.969 168.96 152.936L169.243 154.035C170.042 154.068 170.609 154.101 170.942 154.101C172.34 154.101 173.106 153.452 173.273 152.186C173.439 150.887 173.522 147.457 173.522 141.929Z" fill="#FF7876"/>
<path d="M247.941 144.166V145.198H254.452L253.886 146.397H249.34V151.576H250.472V147.43H252.97V151.376H254.119V147.43H256.583V151.376H257.732V147.43H260.413V149.794C260.413 150.277 260.197 150.527 259.764 150.527L258.648 150.477L258.915 151.509H260.097C261.079 151.509 261.579 151.01 261.579 150.044V146.397H255.101L255.668 145.198H262.694V144.166H247.941ZM248.957 136.823V137.805H254.735V138.854H248.341V142.284H249.49V139.803H254.735V143.483H255.901V139.803H261.146V142.284H262.295V138.854H255.901V137.805H261.695V136.823H248.957ZM250.389 140.736V141.535H253.853V140.736H250.389ZM250.389 142.401V143.2H253.853V142.401H250.389ZM256.767 140.736V141.535H260.213V140.736H256.767ZM256.783 142.401V143.2H260.263V142.401H256.783ZM264.609 136.923V138.005H269.521V139.487H265.642V143.683H270.021C269.754 144.149 269.471 144.649 269.172 145.165H264.393V146.264H268.506C268.139 146.83 267.773 147.413 267.373 147.996C268.755 148.312 270.137 148.678 271.519 149.095C270.021 149.677 267.773 150.144 264.809 150.493L265.259 151.559C268.855 151.076 271.453 150.41 273.035 149.561C274.883 150.16 276.731 150.843 278.563 151.626L279.312 150.643C277.547 149.944 275.815 149.344 274.117 148.828C275 148.112 275.616 147.263 275.949 146.264H279.529V145.165H270.52C270.787 144.699 271.07 144.216 271.37 143.683H278.296V139.487H274.417V138.005H279.329V136.923H264.609ZM272.835 148.445C271.553 148.079 270.304 147.763 269.072 147.496C269.321 147.13 269.588 146.714 269.871 146.264H274.733C274.4 147.13 273.767 147.862 272.835 148.445ZM273.268 139.487H270.67V138.005H273.268V139.487ZM277.148 142.651H274.417V140.536H277.148V142.651ZM273.268 142.651H270.67V140.536H273.268V142.651ZM269.521 142.651H266.791V140.536H269.521V142.651ZM288.753 139.703C290.835 139.287 293.033 138.654 295.331 137.789L294.665 136.839C292.733 137.639 290.768 138.238 288.753 138.638V136.357H287.604V140.986C287.604 141.951 288.087 142.451 289.053 142.451H293.832C294.465 142.451 294.948 142.318 295.247 142.051C295.58 141.752 295.813 140.919 295.93 139.52L294.831 139.171C294.764 140.236 294.615 140.869 294.415 141.085C294.248 141.252 293.982 141.335 293.616 141.335H289.403C288.97 141.335 288.753 141.135 288.753 140.736V139.703ZM283.308 151.376C284.224 151.376 284.691 150.876 284.691 149.894V145.198C285.373 144.932 286.056 144.632 286.722 144.332V143.117C286.056 143.433 285.39 143.733 284.691 144.016V140.603H286.539V139.454H284.691V136.323H283.542V139.454H281.294V140.603H283.542V144.416C282.709 144.682 281.876 144.915 281.027 145.098L281.31 146.297C282.06 146.097 282.809 145.864 283.542 145.615V149.594C283.542 150.06 283.325 150.31 282.892 150.31C282.393 150.31 281.86 150.277 281.294 150.227L281.543 151.376H283.308ZM295.331 143.733H287.738V151.526H288.92V150.677H294.132V151.526H295.331V143.733ZM288.92 149.611V147.713H294.132V149.611H288.92ZM288.92 146.647V144.782H294.132V146.647H288.92ZM297.762 145.481V146.647H307.902V149.877C307.902 150.277 307.652 150.477 307.17 150.477C306.537 150.477 305.887 150.443 305.188 150.393L305.455 151.576H307.586C308.585 151.576 309.101 151.109 309.101 150.177V146.647H312.764V145.481H309.101V144.432H307.902V145.481H297.762ZM310.25 136.906H299.51V142.501C299.51 143.4 299.993 143.866 300.992 143.866H310.683C311.382 143.833 311.849 143.583 312.082 143.084C312.215 142.751 312.331 142.218 312.415 141.468L311.282 141.102C311.216 141.801 311.116 142.234 311.016 142.418C310.883 142.617 310.666 142.734 310.333 142.751H301.425C300.959 142.751 300.709 142.517 300.709 142.068V140.869H310.25V136.906ZM300.709 139.77V137.988H309.051V139.77H300.709ZM301.591 147.147L300.742 147.962C301.908 148.912 302.84 149.811 303.506 150.66L304.405 149.761C303.64 148.895 302.707 148.012 301.591 147.147Z" fill="#FF7876"/>
<path d="M287.093 220.379V221.561H294.486C293.021 224.658 290.39 227.289 286.627 229.453L287.41 230.503C289.941 228.987 291.989 227.256 293.554 225.307V234.815H294.786V223.542C295.169 222.91 295.519 222.244 295.818 221.561H301.247V220.379H287.093ZM296.884 224.858L296.018 225.674C298.033 227.322 299.615 228.871 300.78 230.336L301.696 229.404C300.397 227.888 298.799 226.373 296.884 224.858ZM308.224 220.562V221.528H310.538V222.56H311.62V221.528H315.084V222.277H316.183V221.528H318.481V220.562H316.183V219.496H315.084V220.562H311.62V219.513H310.538V220.562H308.224ZM308.74 224.758V225.657H312.803V226.506H309.372V230.836H312.803V231.735H308.623V232.634H312.803V233.516H308.04V234.482H318.447V233.516H313.918V232.634H317.998V231.735H313.918V230.836H317.415V226.506H313.918V225.657H318.331V224.758H313.918V223.792C315.417 223.692 316.749 223.559 317.881 223.376L317.382 222.51C315.15 222.843 312.353 223.026 308.956 223.043L309.256 223.925C310.505 223.925 311.687 223.892 312.803 223.859V224.758H308.74ZM316.316 229.986H313.918V229.071H316.316V229.986ZM312.803 229.986H310.471V229.071H312.803V229.986ZM310.471 228.271V227.355H312.803V228.271H310.471ZM313.918 227.355H316.316V228.271H313.918V227.355ZM303.761 222.726C303.694 224.325 303.461 225.84 303.045 227.289L303.977 227.539C304.377 226.04 304.61 224.458 304.677 222.793L303.761 222.726ZM307.607 222.31L306.808 222.577C307.208 223.975 307.541 225.424 307.807 226.922L308.673 226.723C308.357 225.058 308.007 223.592 307.607 222.31ZM305.36 219.546V234.732H306.525V219.546H305.36Z" fill="#FF7876"/>
<path d="M246.071 252.321H256.361V251.272H246.62C246.787 250.889 246.936 250.489 247.07 250.089L245.887 249.89C245.271 251.755 244.106 253.32 242.391 254.619L243.107 255.551C243.839 255.002 244.472 254.402 245.038 253.753V258.731H247.17C246.27 259.93 244.872 260.913 242.957 261.679L243.573 262.694C244.439 262.295 245.221 261.845 245.904 261.379C246.803 262.162 247.819 262.828 248.951 263.377C247.236 263.877 245.171 264.176 242.757 264.276L243.24 265.325C246.037 265.159 248.402 264.726 250.367 263.993C252.265 264.726 254.446 265.142 256.877 265.259L257.16 264.16C255.195 264.093 253.397 263.827 251.799 263.36C253.164 262.661 254.263 261.795 255.095 260.73V259.864H247.636C247.935 259.497 248.219 259.131 248.468 258.731H255.062V253.47H245.271C245.554 253.103 245.821 252.72 246.071 252.321ZM250.383 262.894C249.034 262.361 247.836 261.679 246.77 260.846H253.614C252.798 261.662 251.715 262.345 250.383 262.894ZM253.897 257.766H246.22V256.533H253.897V257.766ZM246.22 255.634V254.419H253.897V255.634H246.22ZM259.308 258.681V259.847H265.885V263.46C265.885 263.893 265.669 264.11 265.236 264.11C264.637 264.11 264.004 264.076 263.338 264.026L263.588 265.209H265.652C266.618 265.209 267.118 264.726 267.118 263.76V259.847H273.528V258.681H267.118V256.966H265.885V258.681H259.308ZM269.948 260.496L269.132 261.262C270.664 262.561 271.847 263.76 272.712 264.892L273.645 263.977C272.646 262.811 271.414 261.662 269.948 260.496ZM262.688 260.413C261.656 261.712 260.407 262.861 258.909 263.827L259.675 264.826C261.206 263.777 262.489 262.561 263.538 261.179L262.688 260.413ZM264.587 249.956C264.52 250.656 264.403 251.288 264.254 251.888H259.858V253.037H263.871C263.654 253.536 263.404 254.002 263.105 254.402C262.322 255.434 261.023 256.217 259.225 256.767L259.691 257.866C261.789 257.216 263.271 256.317 264.104 255.168C264.537 254.552 264.903 253.836 265.186 253.037H268.816V255.568C268.816 256.617 269.332 257.15 270.398 257.15H271.896C272.762 257.15 273.279 256.767 273.445 256.001C273.545 255.751 273.645 255.085 273.745 254.019L272.579 253.669C272.579 254.236 272.546 254.752 272.479 255.251C272.396 255.751 272.196 256.017 271.88 256.017H270.581C270.198 256.017 270.015 255.801 270.015 255.401V251.888H265.502C265.636 251.322 265.719 250.722 265.786 250.089L264.587 249.956ZM281.471 252.92H278.79C279.123 252.088 279.373 251.172 279.573 250.189L278.374 250.023C278.224 251.022 277.991 251.988 277.658 252.92H276.109V264.759H277.275V263.327H280.305V264.276H281.471V252.92ZM277.275 262.212V258.565H280.305V262.212H277.275ZM277.275 257.483V254.052H280.305V257.483H277.275ZM284.368 256.783L283.402 257.383C284.551 258.748 285.467 259.98 286.15 261.079L287.099 260.413C286.466 259.381 285.567 258.165 284.368 256.783ZM290.08 252.937H284.768C285.068 252.071 285.301 251.138 285.5 250.156L284.318 250.006C283.885 252.371 283.103 254.369 281.937 256.001L282.653 256.95C283.303 256.101 283.852 255.151 284.318 254.102H288.897C288.864 258.898 288.797 261.779 288.698 262.711C288.564 263.56 288.115 263.993 287.332 263.993C286.816 263.993 286.216 263.977 285.517 263.943L285.8 265.042C286.599 265.076 287.166 265.109 287.499 265.109C288.897 265.109 289.663 264.459 289.83 263.194C289.996 261.895 290.08 258.465 290.08 252.937Z" fill="#FF7876"/>
<path d="M299.832 160.296V162.21H302.302V179.528H314.429V177.557H304.3V162.21H315.317V160.296H309.212C308.657 158.408 308.102 156.743 307.519 155.272L305.382 155.605C306.02 157.021 306.603 158.575 307.13 160.296H299.832ZM290.868 160.656C290.812 163.182 290.479 165.568 289.896 167.844L291.645 168.316C292.2 165.929 292.505 163.432 292.588 160.795L290.868 160.656ZM297.889 159.463L296.363 159.963C297.001 162.016 297.528 164.181 297.945 166.429L299.665 166.012C299.138 163.543 298.555 161.35 297.889 159.463ZM293.782 154.939V180.36H295.808V154.939H293.782ZM327.972 164.764V166.568H334.133V169.481C332.19 172.368 329.97 174.671 327.417 176.364L328.444 178.112C330.609 176.419 332.496 174.366 334.133 171.924V177.446C334.133 178.168 333.856 178.529 333.328 178.529C332.607 178.529 331.857 178.473 331.08 178.39L331.497 180.249H333.994C335.326 180.249 336.02 179.472 336.02 177.918V171.535C337.713 174.394 339.711 176.669 342.015 178.362L343.014 176.614C341.293 175.476 339.794 174.088 338.462 172.479C339.794 171.618 340.988 170.37 342.042 168.76L340.599 167.594C339.711 169.121 338.684 170.314 337.491 171.174C336.964 170.453 336.464 169.648 336.02 168.788V166.568H342.237V164.764H339.656V156.05H329.332V157.881H337.769V160.518H330.026V162.266H337.769V164.764H327.972ZM321.339 158.408C320.729 162.405 319.397 165.929 317.399 169.037L318.453 170.73C319.008 169.953 319.508 169.148 319.98 168.288V179.5H321.867V177.752H324.781V179.222H326.64V164.653H321.645C322.366 162.71 322.894 160.629 323.254 158.408H327.528V156.466H318.037V158.408H321.339ZM321.867 175.892V166.484H324.781V175.892H321.867ZM328.971 168.122L328.055 169.481C329.138 170.092 330.192 170.98 331.247 172.09L332.135 170.703C331.164 169.703 330.109 168.843 328.971 168.122Z" fill="#FF7876"/>
<path d="M304.116 213.246C305.481 213.246 306.514 212.813 307.18 211.981C307.912 211.048 308.412 208.251 308.678 203.522L305.681 202.523C305.548 206.253 305.281 208.451 304.948 209.183C304.649 209.816 304.182 210.149 303.516 210.149H297.689C296.556 210.149 295.99 209.683 295.99 208.75V190.567H292.826V209.416C292.826 211.947 294.125 213.246 296.723 213.246H304.116ZM287.798 193.864C287.065 198.926 285.899 203.688 284.234 208.151L286.965 209.849C288.63 205.553 289.929 200.425 290.828 194.497L287.798 193.864ZM310.177 192.965L307.113 193.997C309.045 198.194 310.81 203.056 312.408 208.517L315.305 207.218C313.84 202.157 312.108 197.428 310.177 192.965ZM298.321 183.541L295.724 185.172C298.554 188.436 300.786 191.433 302.451 194.164L305.115 192.366C303.516 189.835 301.252 186.904 298.321 183.541ZM331.723 214.245C333.722 214.245 334.754 213.213 334.754 211.181V206.453C337.418 206.286 340.216 206.119 343.146 205.92C343.746 206.586 344.278 207.285 344.811 207.951L347.342 206.186C346.01 204.554 344.145 202.623 341.681 200.425L339.25 201.957C339.916 202.589 340.582 203.222 341.215 203.855C337.085 204.121 332.922 204.354 328.693 204.488C333.422 203.056 337.718 201.157 341.648 198.826L339.017 197.061C337.751 197.794 336.519 198.527 335.287 199.226C332.889 199.359 330.458 199.526 328.027 199.659C329.692 198.726 331.357 197.627 332.989 196.362H344.878V184.706H321.167V196.362H328.826C327.461 197.328 326.129 198.16 324.863 198.86C324.297 199.059 323.331 199.193 321.999 199.193L322.565 201.857C325.363 201.657 328.193 201.457 331.057 201.324C327.994 202.723 325.096 203.722 322.366 204.321C321.466 204.321 320.567 204.288 319.635 204.221L320.267 207.085C323.731 206.952 327.494 206.819 331.557 206.619V210.449C331.557 211.115 331.257 211.481 330.658 211.481C329.792 211.481 328.893 211.381 327.96 211.248L328.626 214.245H331.723ZM338.084 207.385L336.552 209.749C339.749 210.749 342.846 212.114 345.877 213.879L347.575 211.248C344.711 209.716 341.548 208.451 338.084 207.385ZM327.261 207.452C324.897 208.85 321.866 210.016 318.203 210.948L319.568 213.812C323.365 212.68 326.562 211.248 329.159 209.583L327.261 207.452ZM341.847 193.864H334.588V191.766H341.847V193.864ZM334.588 189.302V187.204H341.847V189.302H334.588ZM331.457 193.864H324.197V191.766H331.457V193.864ZM324.197 189.302V187.204H331.457V189.302H324.197Z" fill="#FF7876"/>
<path d="M163.176 253.714V254.88H167.955V255.995C167.938 257.028 167.871 258.01 167.738 258.909H162.06V260.058H167.538C167.322 261.107 167.022 262.056 166.623 262.889C165.723 264.587 164.142 265.936 161.844 266.969L162.51 268.034C164.824 267.035 166.489 265.62 167.522 263.821C168.088 262.756 168.504 261.507 168.771 260.058H170.119V266.119C170.119 267.252 170.652 267.818 171.751 267.818H174.449C175.148 267.818 175.648 267.668 175.964 267.368C176.33 267.002 176.58 266.019 176.713 264.388L175.581 264.021C175.498 265.32 175.348 266.086 175.115 266.352C174.932 266.569 174.632 266.685 174.232 266.685H172.118C171.585 266.685 171.318 266.402 171.318 265.87V260.058H176.48V258.909H168.954C169.07 258.01 169.137 257.028 169.17 255.995V254.88H175.131V253.714H163.176ZM181.992 258.593V259.675H189.818V258.576H182.025C183.307 257.777 184.356 256.795 185.172 255.662H186.937C188.103 257.394 190.051 258.809 192.815 259.908L193.314 258.843C191.05 258.077 189.351 257.011 188.252 255.662H192.449V254.547H185.855C186.121 254.047 186.338 253.531 186.537 252.965L185.355 252.815C185.155 253.414 184.889 253.997 184.556 254.547H179.477V255.662H183.723C182.525 257.028 180.809 258.11 178.578 258.926L179.144 259.942C180.193 259.559 181.142 259.109 181.992 258.593ZM179.91 261.357V262.456H185.488V266.136C185.488 266.669 185.255 266.952 184.806 266.952C184.206 266.952 183.59 266.919 182.924 266.869L183.174 268.001H185.205C186.171 268.001 186.671 267.468 186.671 266.419V262.456H191.949V261.357H179.91ZM188.985 263.305L188.203 264.055C189.884 265.237 191.2 266.352 192.166 267.401L193.031 266.552C191.932 265.47 190.584 264.388 188.985 263.305ZM182.758 263.389C181.659 264.554 180.31 265.586 178.711 266.452L179.461 267.418C181.092 266.486 182.475 265.387 183.59 264.121L182.758 263.389ZM200.991 255.696H198.31C198.643 254.863 198.893 253.947 199.092 252.965L197.894 252.798C197.744 253.797 197.511 254.763 197.178 255.696H195.629V267.535H196.795V266.103H199.825V267.052H200.991V255.696ZM196.795 264.987V261.34H199.825V264.987H196.795ZM196.795 260.258V256.828H199.825V260.258H196.795ZM203.888 259.559L202.922 260.158C204.071 261.524 204.987 262.756 205.67 263.855L206.619 263.189C205.986 262.156 205.087 260.941 203.888 259.559ZM209.599 255.712H204.288C204.587 254.846 204.82 253.914 205.02 252.932L203.838 252.782C203.405 255.146 202.622 257.144 201.457 258.776L202.173 259.725C202.822 258.876 203.372 257.927 203.838 256.878H208.417C208.384 261.673 208.317 264.554 208.217 265.487C208.084 266.336 207.634 266.769 206.852 266.769C206.336 266.769 205.736 266.752 205.037 266.719L205.32 267.818C206.119 267.851 206.685 267.884 207.018 267.884C208.417 267.884 209.183 267.235 209.35 265.969C209.516 264.671 209.599 261.241 209.599 255.712Z" fill="#FF7876"/>
<path d="M228.586 33.3194V34.4683H230.568C229.985 36.9327 229.069 38.9641 227.804 40.546L228.42 41.5617C229.486 40.0798 230.301 38.2648 230.868 36.1168V43.2934H232.017V36.0002C232.433 36.7329 232.932 37.6653 233.515 38.7976L234.165 37.8319C233.432 36.7329 232.716 35.7338 232.017 34.868V34.4683H233.698V33.3194H232.017V31.188H230.868V33.3194H228.586ZM234.281 33.3194V34.4683H236.079C235.463 36.8661 234.481 38.8309 233.132 40.3795L233.782 41.3952C234.98 39.8467 235.88 37.9318 236.479 35.6339V43.2934H237.628V35.5673C238.161 37.682 238.96 39.6302 240.059 41.3952L240.842 40.4461C239.51 38.6811 238.594 36.6996 238.061 34.4683H240.142V33.3194H237.628V31.188H236.479V33.3194H234.281ZM240.342 29.3065H234.264C234.081 28.7736 233.898 28.3074 233.715 27.8911L232.366 28.1242C232.566 28.4906 232.766 28.8735 232.932 29.3065H226.655V35.9336C226.622 38.7144 226.222 40.8957 225.473 42.4609L226.372 43.2601C227.304 41.4285 227.787 38.9808 227.837 35.9336V30.4554H240.342V29.3065ZM242.906 31.3546C242.856 32.9697 242.623 34.5016 242.207 35.9503L243.223 36.2333C243.656 34.7181 243.889 33.1196 243.955 31.4378L242.906 31.3546ZM247.968 30.2389C247.469 30.9882 246.836 31.7209 246.103 32.4202V28.2408H244.938V34.3518C244.905 38.0317 244.022 40.7125 242.29 42.3776L243.173 43.1602C244.405 41.9613 245.254 40.2962 245.704 38.1815C246.287 38.8809 247.003 39.88 247.835 41.1621L248.551 40.1131C247.652 38.9475 246.769 37.9151 245.904 36.9993C246.02 36.1667 246.087 35.2842 246.103 34.3518V33.7024C247.152 32.8532 248.002 31.9873 248.651 31.1214L247.968 30.2389ZM248.568 28.7237V29.8227H252.231C252.164 30.4554 252.081 31.0881 251.965 31.6876H249.217V39.5303H250.383V32.7866H255.312V39.5303H256.477V31.6876H253.18C253.28 31.0881 253.363 30.472 253.43 29.8227H257.143V28.7237H248.568ZM254.063 39.5969L253.28 40.3628C254.645 41.4119 255.711 42.4109 256.494 43.3434L257.326 42.5108C256.444 41.5451 255.361 40.5626 254.063 39.5969ZM252.248 33.7856V36.583C252.214 38.0816 251.881 39.2805 251.265 40.213C250.599 41.0955 249.45 41.8115 247.802 42.3443L248.435 43.36C250.166 42.7773 251.399 41.978 252.148 40.9789C252.93 39.88 253.347 38.4146 253.397 36.583V33.7856H252.248ZM264.819 30.905H262.139C262.472 30.0724 262.721 29.1566 262.921 28.1742L261.722 28.0077C261.572 29.0067 261.339 29.9725 261.006 30.905H259.458V42.744H260.623V41.312H263.654V42.2611H264.819V30.905ZM260.623 40.1963V36.5497H263.654V40.1963H260.623ZM260.623 35.4674V32.0373H263.654V35.4674H260.623ZM267.717 34.768L266.751 35.3675C267.9 36.7329 268.816 37.9651 269.498 39.064L270.447 38.398C269.815 37.3656 268.916 36.1501 267.717 34.768ZM273.428 30.9216H268.116C268.416 30.0558 268.649 29.1233 268.849 28.1409L267.667 27.991C267.234 30.3555 266.451 32.3536 265.286 33.9854L266.002 34.9346C266.651 34.0853 267.2 33.1362 267.667 32.0872H272.246C272.212 36.8827 272.146 39.7634 272.046 40.6959C271.913 41.5451 271.463 41.978 270.681 41.978C270.164 41.978 269.565 41.9613 268.866 41.928L269.149 43.027C269.948 43.0603 270.514 43.0936 270.847 43.0936C272.246 43.0936 273.012 42.4442 273.178 41.1787C273.345 39.88 273.428 36.4498 273.428 30.9216Z" fill="#FF7876"/>
</svg>
