<svg width="548" height="124" viewBox="0 0 548 124" fill="none" xmlns="http://www.w3.org/2000/svg">
<path d="M301 2H237V26H301V2Z" fill="#98C091"/>
<path d="M301 34H237V58H301V34Z" fill="#98C091"/>
<path d="M301 66H237V90H301V66Z" fill="#FF7876"/>
<path d="M301 98H237V122H301V98Z" fill="#FF7876"/>
<mask id="mask0_2250_3301" style="mask-type:luminance" maskUnits="userSpaceOnUse" x="307" y="0" width="28" height="28">
<path d="M335 0H307V28H335V0Z" fill="white"/>
</mask>
<g mask="url(#mask0_2250_3301)">
<path d="M322.904 13.73C322.819 13.7302 322.734 13.7108 322.658 13.6734C322.581 13.6359 322.514 13.5813 322.462 13.5138L320.331 10.7749C320.284 10.717 320.249 10.6504 320.228 10.5788C320.207 10.5073 320.2 10.4322 320.209 10.3581C320.217 10.284 320.24 10.2123 320.277 10.1473C320.313 10.0823 320.362 10.0252 320.421 9.97938C320.48 9.93358 320.547 9.9 320.619 9.8806C320.691 9.86121 320.767 9.85639 320.841 9.86643C320.914 9.87647 320.985 9.90118 321.05 9.93909C321.114 9.977 321.17 10.0273 321.215 10.0872L323.345 12.8262C323.41 12.9089 323.449 13.0079 323.46 13.1122C323.471 13.2164 323.453 13.3215 323.407 13.4157C323.361 13.5098 323.289 13.5892 323.2 13.6448C323.111 13.7003 323.009 13.7299 322.904 13.73Z" fill="#98C091"/>
<path d="M323.37 13.6863C323.266 13.6862 323.164 13.6572 323.076 13.6027C322.988 13.5481 322.917 13.4701 322.87 13.3774C322.824 13.2846 322.804 13.1808 322.813 13.0774C322.822 12.974 322.859 12.8752 322.921 12.792L324.897 10.1392C324.988 10.0242 325.119 9.94906 325.264 9.92973C325.409 9.9104 325.556 9.94848 325.673 10.0358C325.79 10.1232 325.868 10.2529 325.891 10.3972C325.914 10.5416 325.88 10.6892 325.795 10.8084L323.819 13.4612C323.767 13.5312 323.699 13.5881 323.621 13.6272C323.543 13.6663 323.457 13.6866 323.37 13.6863Z" fill="#98C091"/>
<path d="M326.356 13.6864H320.021C319.872 13.6864 319.73 13.6274 319.625 13.5224C319.52 13.4174 319.461 13.2749 319.461 13.1264C319.461 12.9779 319.52 12.8354 319.625 12.7304C319.73 12.6254 319.872 12.5664 320.021 12.5664H326.356C326.504 12.5664 326.647 12.6254 326.752 12.7304C326.857 12.8354 326.916 12.9779 326.916 13.1264C326.916 13.2749 326.857 13.4174 326.752 13.5224C326.647 13.6274 326.504 13.6864 326.356 13.6864ZM326.054 15.8726H320.322C320.174 15.8726 320.031 15.8136 319.926 15.7086C319.821 15.6036 319.762 15.4612 319.762 15.3126C319.762 15.1641 319.821 15.0217 319.926 14.9167C320.031 14.8116 320.174 14.7526 320.322 14.7526H326.054C326.202 14.7526 326.345 14.8116 326.45 14.9167C326.555 15.0217 326.614 15.1641 326.614 15.3126C326.614 15.4612 326.555 15.6036 326.45 15.7086C326.345 15.8136 326.202 15.8726 326.054 15.8726Z" fill="#98C091"/>
<path d="M323.093 19.1375C322.945 19.1375 322.802 19.0785 322.697 18.9734C322.592 18.8684 322.533 18.726 322.533 18.5774V13.1264C322.533 12.9779 322.592 12.8354 322.697 12.7304C322.802 12.6254 322.945 12.5664 323.093 12.5664C323.242 12.5664 323.384 12.6254 323.489 12.7304C323.594 12.8354 323.653 12.9779 323.653 13.1264V18.5774C323.653 18.726 323.594 18.8684 323.489 18.9734C323.384 19.0785 323.242 19.1375 323.093 19.1375Z" fill="#98C091"/>
<path d="M323.188 26.5069C316.57 26.5069 311.186 21.1225 311.186 14.5039C311.186 7.88586 316.57 2.50146 323.188 2.50146C329.806 2.50146 335.191 7.88643 335.191 14.5039C335.191 21.1225 329.806 26.5069 323.188 26.5069ZM323.188 3.62203C317.188 3.62203 312.306 8.50353 312.306 14.5045C312.306 20.5054 317.188 25.3875 323.188 25.3875C329.189 25.3875 334.071 20.5054 334.071 14.5045C334.071 8.50353 329.189 3.62203 323.188 3.62203Z" fill="#98C091"/>
<path d="M323.188 23.529C318.212 23.529 314.164 19.4807 314.164 14.5046C314.164 9.52895 318.212 5.48071 323.188 5.48071C328.165 5.48071 332.213 9.52839 332.213 14.504C332.213 19.4802 328.165 23.529 323.188 23.529ZM323.188 6.32015C318.675 6.32015 315.004 9.99151 315.004 14.504C315.004 19.017 318.675 22.6884 323.188 22.6884C327.701 22.6884 331.373 19.017 331.373 14.504C331.373 9.99151 327.701 6.32015 323.188 6.32015Z" fill="#98C091"/>
</g>
<mask id="mask1_2250_3301" style="mask-type:luminance" maskUnits="userSpaceOnUse" x="307" y="32" width="28" height="28">
<path d="M335 32H307V60H335V32Z" fill="white"/>
</mask>
<g mask="url(#mask1_2250_3301)">
<path d="M322.904 45.73C322.819 45.7302 322.734 45.7108 322.658 45.6734C322.581 45.6359 322.514 45.5813 322.462 45.5138L320.331 42.7749C320.284 42.717 320.249 42.6504 320.228 42.5788C320.207 42.5073 320.2 42.4322 320.209 42.3581C320.217 42.284 320.24 42.2123 320.277 42.1473C320.313 42.0823 320.362 42.0252 320.421 41.9794C320.48 41.9336 320.547 41.9 320.619 41.8806C320.691 41.8612 320.767 41.8564 320.841 41.8664C320.914 41.8765 320.985 41.9012 321.05 41.9391C321.114 41.977 321.17 42.0273 321.215 42.0872L323.345 44.8262C323.41 44.9089 323.449 45.0079 323.46 45.1122C323.471 45.2164 323.453 45.3215 323.407 45.4157C323.361 45.5098 323.289 45.5892 323.2 45.6448C323.111 45.7003 323.009 45.7299 322.904 45.73Z" fill="#98C091"/>
<path d="M323.37 45.6863C323.266 45.6862 323.164 45.6572 323.076 45.6027C322.988 45.5481 322.917 45.4701 322.87 45.3774C322.824 45.2846 322.804 45.1808 322.813 45.0774C322.822 44.974 322.859 44.8752 322.921 44.792L324.897 42.1392C324.988 42.0242 325.119 41.949 325.264 41.9297C325.409 41.9104 325.556 41.9484 325.673 42.0358C325.79 42.1232 325.868 42.2529 325.891 42.3972C325.914 42.5416 325.88 42.6892 325.795 42.8084L323.819 45.4612C323.767 45.5312 323.699 45.5881 323.621 45.6272C323.543 45.6663 323.457 45.6866 323.37 45.6863Z" fill="#98C091"/>
<path d="M326.356 45.6864H320.021C319.872 45.6864 319.73 45.6274 319.625 45.5224C319.52 45.4174 319.461 45.2749 319.461 45.1264C319.461 44.9779 319.52 44.8354 319.625 44.7304C319.73 44.6254 319.872 44.5664 320.021 44.5664H326.356C326.504 44.5664 326.647 44.6254 326.752 44.7304C326.857 44.8354 326.916 44.9779 326.916 45.1264C326.916 45.2749 326.857 45.4174 326.752 45.5224C326.647 45.6274 326.504 45.6864 326.356 45.6864ZM326.054 47.8726H320.322C320.174 47.8726 320.031 47.8136 319.926 47.7086C319.821 47.6036 319.762 47.4612 319.762 47.3126C319.762 47.1641 319.821 47.0217 319.926 46.9167C320.031 46.8116 320.174 46.7526 320.322 46.7526H326.054C326.202 46.7526 326.345 46.8116 326.45 46.9167C326.555 47.0217 326.614 47.1641 326.614 47.3126C326.614 47.4612 326.555 47.6036 326.45 47.7086C326.345 47.8136 326.202 47.8726 326.054 47.8726Z" fill="#98C091"/>
<path d="M323.093 51.1375C322.945 51.1375 322.802 51.0785 322.697 50.9734C322.592 50.8684 322.533 50.726 322.533 50.5774V45.1264C322.533 44.9779 322.592 44.8354 322.697 44.7304C322.802 44.6254 322.945 44.5664 323.093 44.5664C323.242 44.5664 323.384 44.6254 323.489 44.7304C323.594 44.8354 323.653 44.9779 323.653 45.1264V50.5774C323.653 50.726 323.594 50.8684 323.489 50.9734C323.384 51.0785 323.242 51.1375 323.093 51.1375Z" fill="#98C091"/>
<path d="M323.188 58.507C316.57 58.507 311.186 53.1226 311.186 46.504C311.186 39.8859 316.57 34.5015 323.188 34.5015C329.806 34.5015 335.191 39.8865 335.191 46.504C335.191 53.1226 329.806 58.507 323.188 58.507ZM323.188 35.6221C317.188 35.6221 312.306 40.5036 312.306 46.5046C312.306 52.5055 317.188 57.3876 323.188 57.3876C329.189 57.3876 334.071 52.5055 334.071 46.5046C334.071 40.5036 329.189 35.6221 323.188 35.6221Z" fill="#98C091"/>
<path d="M323.188 55.529C318.212 55.529 314.164 51.4807 314.164 46.5046C314.164 41.529 318.212 37.4807 323.188 37.4807C328.165 37.4807 332.213 41.5284 332.213 46.504C332.213 51.4802 328.165 55.529 323.188 55.529ZM323.188 38.3202C318.675 38.3202 315.004 41.9915 315.004 46.504C315.004 51.017 318.675 54.6884 323.188 54.6884C327.701 54.6884 331.373 51.017 331.373 46.504C331.373 41.9915 327.701 38.3202 323.188 38.3202Z" fill="#98C091"/>
</g>
<mask id="mask2_2250_3301" style="mask-type:luminance" maskUnits="userSpaceOnUse" x="307" y="64" width="28" height="28">
<path d="M335 64H307V92H335V64Z" fill="white"/>
</mask>
<g mask="url(#mask2_2250_3301)">
<path d="M322.904 77.73C322.819 77.7302 322.734 77.7108 322.658 77.6734C322.581 77.6359 322.514 77.5813 322.462 77.5138L320.331 74.7749C320.284 74.717 320.249 74.6504 320.228 74.5788C320.207 74.5073 320.2 74.4322 320.209 74.3581C320.217 74.284 320.24 74.2123 320.277 74.1473C320.313 74.0823 320.362 74.0252 320.421 73.9794C320.48 73.9336 320.547 73.9 320.619 73.8806C320.691 73.8612 320.767 73.8564 320.841 73.8664C320.914 73.8765 320.985 73.9012 321.05 73.9391C321.114 73.977 321.17 74.0273 321.215 74.0872L323.345 76.8262C323.41 76.9089 323.449 77.0079 323.46 77.1122C323.471 77.2164 323.453 77.3215 323.407 77.4157C323.361 77.5098 323.289 77.5892 323.2 77.6448C323.111 77.7003 323.009 77.7299 322.904 77.73Z" fill="#FF7876"/>
<path d="M323.37 77.6863C323.266 77.6862 323.164 77.6572 323.076 77.6027C322.988 77.5481 322.917 77.4701 322.87 77.3774C322.824 77.2846 322.804 77.1808 322.813 77.0774C322.822 76.974 322.859 76.8752 322.921 76.792L324.897 74.1392C324.988 74.0242 325.119 73.949 325.264 73.9297C325.409 73.9104 325.556 73.9484 325.673 74.0358C325.79 74.1232 325.868 74.2529 325.891 74.3972C325.914 74.5416 325.88 74.6892 325.795 74.8084L323.819 77.4612C323.767 77.5312 323.699 77.5881 323.621 77.6272C323.543 77.6663 323.457 77.6866 323.37 77.6863Z" fill="#FF7876"/>
<path d="M326.356 77.6864H320.021C319.872 77.6864 319.73 77.6274 319.625 77.5224C319.52 77.4174 319.461 77.2749 319.461 77.1264C319.461 76.9779 319.52 76.8354 319.625 76.7304C319.73 76.6254 319.872 76.5664 320.021 76.5664H326.356C326.504 76.5664 326.647 76.6254 326.752 76.7304C326.857 76.8354 326.916 76.9779 326.916 77.1264C326.916 77.2749 326.857 77.4174 326.752 77.5224C326.647 77.6274 326.504 77.6864 326.356 77.6864ZM326.054 79.8726H320.322C320.174 79.8726 320.031 79.8136 319.926 79.7086C319.821 79.6036 319.762 79.4612 319.762 79.3126C319.762 79.1641 319.821 79.0217 319.926 78.9167C320.031 78.8116 320.174 78.7526 320.322 78.7526H326.054C326.202 78.7526 326.345 78.8116 326.45 78.9167C326.555 79.0217 326.614 79.1641 326.614 79.3126C326.614 79.4612 326.555 79.6036 326.45 79.7086C326.345 79.8136 326.202 79.8726 326.054 79.8726Z" fill="#FF7876"/>
<path d="M323.093 83.1375C322.945 83.1375 322.802 83.0785 322.697 82.9734C322.592 82.8684 322.533 82.726 322.533 82.5774V77.1264C322.533 76.9779 322.592 76.8354 322.697 76.7304C322.802 76.6254 322.945 76.5664 323.093 76.5664C323.242 76.5664 323.384 76.6254 323.489 76.7304C323.594 76.8354 323.653 76.9779 323.653 77.1264V82.5774C323.653 82.726 323.594 82.8684 323.489 82.9734C323.384 83.0785 323.242 83.1375 323.093 83.1375Z" fill="#FF7876"/>
<path d="M323.188 90.507C316.57 90.507 311.186 85.1226 311.186 78.504C311.186 71.8859 316.57 66.5015 323.188 66.5015C329.806 66.5015 335.191 71.8865 335.191 78.504C335.191 85.1226 329.806 90.507 323.188 90.507ZM323.188 67.6221C317.188 67.6221 312.306 72.5036 312.306 78.5046C312.306 84.5055 317.188 89.3876 323.188 89.3876C329.189 89.3876 334.071 84.5055 334.071 78.5046C334.071 72.5036 329.189 67.6221 323.188 67.6221Z" fill="#FF7876"/>
<path d="M323.188 87.529C318.212 87.529 314.164 83.4807 314.164 78.5046C314.164 73.529 318.212 69.4807 323.188 69.4807C328.165 69.4807 332.213 73.5284 332.213 78.504C332.213 83.4802 328.165 87.529 323.188 87.529ZM323.188 70.3202C318.675 70.3202 315.004 73.9915 315.004 78.504C315.004 83.017 318.675 86.6884 323.188 86.6884C327.701 86.6884 331.373 83.017 331.373 78.504C331.373 73.9915 327.701 70.3202 323.188 70.3202Z" fill="#FF7876"/>
</g>
<mask id="mask3_2250_3301" style="mask-type:luminance" maskUnits="userSpaceOnUse" x="344" y="0" width="28" height="28">
<path d="M372 0H344V28H372V0Z" fill="white"/>
</mask>
<g mask="url(#mask3_2250_3301)">
<path d="M359.904 13.73C359.819 13.7302 359.734 13.7108 359.658 13.6734C359.581 13.6359 359.514 13.5813 359.462 13.5138L357.331 10.7749C357.284 10.717 357.249 10.6504 357.228 10.5788C357.207 10.5073 357.2 10.4322 357.209 10.3581C357.217 10.284 357.24 10.2123 357.277 10.1473C357.313 10.0823 357.362 10.0252 357.421 9.97938C357.48 9.93358 357.547 9.9 357.619 9.8806C357.691 9.86121 357.767 9.85639 357.84 9.86643C357.914 9.87647 357.986 9.90118 358.05 9.93909C358.114 9.977 358.17 10.0273 358.214 10.0872L360.345 12.8262C360.41 12.9089 360.449 13.0079 360.46 13.1122C360.471 13.2164 360.452 13.3215 360.406 13.4157C360.361 13.5098 360.289 13.5892 360.2 13.6448C360.111 13.7003 360.009 13.7299 359.904 13.73Z" fill="#98C091"/>
<path d="M360.37 13.6863C360.266 13.6862 360.164 13.6572 360.076 13.6027C359.988 13.5481 359.917 13.4701 359.87 13.3774C359.823 13.2846 359.804 13.1808 359.813 13.0774C359.822 12.974 359.859 12.8752 359.921 12.792L361.898 10.1392C361.988 10.0242 362.119 9.94906 362.264 9.92973C362.409 9.9104 362.556 9.94848 362.673 10.0358C362.79 10.1232 362.868 10.2529 362.891 10.3972C362.914 10.5416 362.88 10.6892 362.795 10.8084L360.819 13.4612C360.767 13.5312 360.699 13.5881 360.621 13.6272C360.543 13.6663 360.457 13.6866 360.37 13.6863Z" fill="#98C091"/>
<path d="M363.356 13.6864H357.021C356.872 13.6864 356.73 13.6274 356.625 13.5224C356.52 13.4174 356.461 13.2749 356.461 13.1264C356.461 12.9779 356.52 12.8354 356.625 12.7304C356.73 12.6254 356.872 12.5664 357.021 12.5664H363.356C363.504 12.5664 363.647 12.6254 363.752 12.7304C363.857 12.8354 363.916 12.9779 363.916 13.1264C363.916 13.2749 363.857 13.4174 363.752 13.5224C363.647 13.6274 363.504 13.6864 363.356 13.6864ZM363.054 15.8726H357.322C357.174 15.8726 357.031 15.8136 356.926 15.7086C356.821 15.6036 356.762 15.4612 356.762 15.3126C356.762 15.1641 356.821 15.0217 356.926 14.9167C357.031 14.8116 357.174 14.7526 357.322 14.7526H363.054C363.202 14.7526 363.345 14.8116 363.45 14.9167C363.555 15.0217 363.614 15.1641 363.614 15.3126C363.614 15.4612 363.555 15.6036 363.45 15.7086C363.345 15.8136 363.202 15.8726 363.054 15.8726Z" fill="#98C091"/>
<path d="M360.093 19.1375C359.945 19.1375 359.802 19.0785 359.697 18.9734C359.592 18.8684 359.533 18.726 359.533 18.5774V13.1264C359.533 12.9779 359.592 12.8354 359.697 12.7304C359.802 12.6254 359.945 12.5664 360.093 12.5664C360.242 12.5664 360.384 12.6254 360.489 12.7304C360.594 12.8354 360.653 12.9779 360.653 13.1264V18.5774C360.653 18.726 360.594 18.8684 360.489 18.9734C360.384 19.0785 360.242 19.1375 360.093 19.1375Z" fill="#98C091"/>
<path d="M360.188 26.5069C353.57 26.5069 348.186 21.1225 348.186 14.5039C348.186 7.88586 353.57 2.50146 360.188 2.50146C366.806 2.50146 372.191 7.88643 372.191 14.5039C372.191 21.1225 366.806 26.5069 360.188 26.5069ZM360.188 3.62203C354.188 3.62203 349.306 8.50353 349.306 14.5045C349.306 20.5054 354.188 25.3875 360.188 25.3875C366.189 25.3875 371.071 20.5054 371.071 14.5045C371.071 8.50353 366.189 3.62203 360.188 3.62203Z" fill="#98C091"/>
<path d="M360.188 23.529C355.212 23.529 351.164 19.4807 351.164 14.5046C351.164 9.52895 355.212 5.48071 360.188 5.48071C365.165 5.48071 369.213 9.52839 369.213 14.504C369.213 19.4802 365.165 23.529 360.188 23.529ZM360.188 6.32015C355.675 6.32015 352.004 9.99151 352.004 14.504C352.004 19.017 355.675 22.6884 360.188 22.6884C364.702 22.6884 368.373 19.017 368.373 14.504C368.373 9.99151 364.702 6.32015 360.188 6.32015Z" fill="#98C091"/>
</g>
<path d="M359.904 45.73C359.819 45.7302 359.734 45.7108 359.658 45.6734C359.581 45.6359 359.514 45.5813 359.462 45.5138L357.331 42.7749C357.284 42.717 357.249 42.6504 357.228 42.5788C357.207 42.5073 357.2 42.4322 357.209 42.3581C357.217 42.284 357.24 42.2123 357.277 42.1473C357.313 42.0823 357.362 42.0252 357.421 41.9794C357.48 41.9336 357.547 41.9 357.619 41.8806C357.691 41.8612 357.767 41.8564 357.84 41.8664C357.914 41.8765 357.986 41.9012 358.05 41.9391C358.114 41.977 358.17 42.0273 358.214 42.0872L360.345 44.8262C360.41 44.9089 360.449 45.0079 360.46 45.1122C360.471 45.2164 360.452 45.3215 360.406 45.4157C360.361 45.5098 360.289 45.5892 360.2 45.6448C360.111 45.7003 360.009 45.7299 359.904 45.73Z" fill="#98C091"/>
<path d="M360.37 45.6863C360.266 45.6862 360.164 45.6572 360.076 45.6027C359.988 45.5481 359.917 45.4701 359.87 45.3774C359.823 45.2846 359.804 45.1808 359.813 45.0774C359.822 44.974 359.859 44.8752 359.921 44.792L361.898 42.1392C361.988 42.0242 362.119 41.949 362.264 41.9297C362.409 41.9104 362.556 41.9484 362.673 42.0358C362.79 42.1232 362.868 42.2529 362.891 42.3972C362.914 42.5416 362.88 42.6892 362.795 42.8084L360.819 45.4612C360.767 45.5312 360.699 45.5881 360.621 45.6272C360.543 45.6663 360.457 45.6866 360.37 45.6863Z" fill="#98C091"/>
<path d="M363.356 45.6864H357.021C356.872 45.6864 356.73 45.6274 356.625 45.5224C356.52 45.4174 356.461 45.2749 356.461 45.1264C356.461 44.9779 356.52 44.8354 356.625 44.7304C356.73 44.6254 356.872 44.5664 357.021 44.5664H363.356C363.504 44.5664 363.647 44.6254 363.752 44.7304C363.857 44.8354 363.916 44.9779 363.916 45.1264C363.916 45.2749 363.857 45.4174 363.752 45.5224C363.647 45.6274 363.504 45.6864 363.356 45.6864ZM363.054 47.8726H357.322C357.174 47.8726 357.031 47.8136 356.926 47.7086C356.821 47.6036 356.762 47.4612 356.762 47.3126C356.762 47.1641 356.821 47.0217 356.926 46.9167C357.031 46.8116 357.174 46.7526 357.322 46.7526H363.054C363.202 46.7526 363.345 46.8116 363.45 46.9167C363.555 47.0217 363.614 47.1641 363.614 47.3126C363.614 47.4612 363.555 47.6036 363.45 47.7086C363.345 47.8136 363.202 47.8726 363.054 47.8726Z" fill="#98C091"/>
<path d="M360.093 51.1375C359.945 51.1375 359.802 51.0785 359.697 50.9734C359.592 50.8684 359.533 50.726 359.533 50.5774V45.1264C359.533 44.9779 359.592 44.8354 359.697 44.7304C359.802 44.6254 359.945 44.5664 360.093 44.5664C360.242 44.5664 360.384 44.6254 360.489 44.7304C360.594 44.8354 360.653 44.9779 360.653 45.1264V50.5774C360.653 50.726 360.594 50.8684 360.489 50.9734C360.384 51.0785 360.242 51.1375 360.093 51.1375Z" fill="#98C091"/>
<path d="M360.188 58.507C353.57 58.507 348.186 53.1226 348.186 46.504C348.186 39.8859 353.57 34.5015 360.188 34.5015C366.806 34.5015 372.191 39.8865 372.191 46.504C372.191 53.1226 366.806 58.507 360.188 58.507ZM360.188 35.6221C354.188 35.6221 349.306 40.5036 349.306 46.5046C349.306 52.5055 354.188 57.3876 360.188 57.3876C366.189 57.3876 371.071 52.5055 371.071 46.5046C371.071 40.5036 366.189 35.6221 360.188 35.6221Z" fill="#98C091"/>
<path d="M360.188 55.529C355.212 55.529 351.164 51.4807 351.164 46.5046C351.164 41.529 355.212 37.4807 360.188 37.4807C365.165 37.4807 369.213 41.5284 369.213 46.504C369.213 51.4802 365.165 55.529 360.188 55.529ZM360.188 38.3202C355.675 38.3202 352.004 41.9915 352.004 46.504C352.004 51.017 355.675 54.6884 360.188 54.6884C364.702 54.6884 368.373 51.017 368.373 46.504C368.373 41.9915 364.702 38.3202 360.188 38.3202Z" fill="#98C091"/>
<mask id="mask4_2250_3301" style="mask-type:luminance" maskUnits="userSpaceOnUse" x="309" y="96" width="28" height="28">
<path d="M337 96H309V124H337V96Z" fill="white"/>
</mask>
<g mask="url(#mask4_2250_3301)">
<path d="M324.904 109.73C324.819 109.73 324.734 109.711 324.658 109.673C324.581 109.636 324.514 109.581 324.462 109.514L322.331 106.775C322.284 106.717 322.249 106.65 322.228 106.579C322.207 106.507 322.2 106.432 322.209 106.358C322.217 106.284 322.24 106.212 322.277 106.147C322.313 106.082 322.362 106.025 322.421 105.979C322.48 105.934 322.547 105.9 322.619 105.881C322.691 105.861 322.767 105.856 322.841 105.867C322.914 105.877 322.985 105.901 323.05 105.939C323.114 105.977 323.17 106.027 323.215 106.087L325.345 108.826C325.41 108.909 325.449 109.008 325.46 109.112C325.471 109.216 325.453 109.322 325.407 109.416C325.361 109.51 325.289 109.589 325.2 109.645C325.111 109.7 325.009 109.73 324.904 109.73Z" fill="#FF7876"/>
<path d="M325.37 109.686C325.266 109.686 325.164 109.657 325.076 109.603C324.988 109.548 324.917 109.47 324.87 109.377C324.824 109.285 324.804 109.181 324.813 109.077C324.822 108.974 324.859 108.875 324.921 108.792L326.897 106.139C326.988 106.024 327.119 105.949 327.264 105.93C327.409 105.91 327.556 105.949 327.673 106.036C327.79 106.123 327.868 106.253 327.891 106.397C327.914 106.542 327.88 106.689 327.795 106.809L325.819 109.461C325.767 109.531 325.699 109.588 325.621 109.627C325.543 109.666 325.457 109.687 325.37 109.686Z" fill="#FF7876"/>
<path d="M328.356 109.686H322.021C321.872 109.686 321.73 109.627 321.625 109.522C321.52 109.417 321.461 109.275 321.461 109.126C321.461 108.978 321.52 108.835 321.625 108.73C321.73 108.625 321.872 108.566 322.021 108.566H328.356C328.504 108.566 328.647 108.625 328.752 108.73C328.857 108.835 328.916 108.978 328.916 109.126C328.916 109.275 328.857 109.417 328.752 109.522C328.647 109.627 328.504 109.686 328.356 109.686ZM328.054 111.873H322.322C322.174 111.873 322.031 111.814 321.926 111.709C321.821 111.604 321.762 111.461 321.762 111.313C321.762 111.164 321.821 111.022 321.926 110.917C322.031 110.812 322.174 110.753 322.322 110.753H328.054C328.202 110.753 328.345 110.812 328.45 110.917C328.555 111.022 328.614 111.164 328.614 111.313C328.614 111.461 328.555 111.604 328.45 111.709C328.345 111.814 328.202 111.873 328.054 111.873Z" fill="#FF7876"/>
<path d="M325.093 115.137C324.945 115.137 324.802 115.078 324.697 114.973C324.592 114.868 324.533 114.726 324.533 114.577V109.126C324.533 108.978 324.592 108.835 324.697 108.73C324.802 108.625 324.945 108.566 325.093 108.566C325.242 108.566 325.384 108.625 325.489 108.73C325.594 108.835 325.653 108.978 325.653 109.126V114.577C325.653 114.726 325.594 114.868 325.489 114.973C325.384 115.078 325.242 115.137 325.093 115.137Z" fill="#FF7876"/>
<path d="M325.188 122.507C318.57 122.507 313.186 117.123 313.186 110.504C313.186 103.886 318.57 98.5015 325.188 98.5015C331.806 98.5015 337.191 103.886 337.191 110.504C337.191 117.123 331.806 122.507 325.188 122.507ZM325.188 99.6221C319.188 99.6221 314.306 104.504 314.306 110.505C314.306 116.506 319.188 121.388 325.188 121.388C331.189 121.388 336.071 116.506 336.071 110.505C336.071 104.504 331.189 99.6221 325.188 99.6221Z" fill="#FF7876"/>
<path d="M325.188 119.529C320.212 119.529 316.164 115.481 316.164 110.505C316.164 105.529 320.212 101.481 325.188 101.481C330.165 101.481 334.213 105.528 334.213 110.504C334.213 115.48 330.165 119.529 325.188 119.529ZM325.188 102.32C320.675 102.32 317.004 105.992 317.004 110.504C317.004 115.017 320.675 118.688 325.188 118.688C329.701 118.688 333.373 115.017 333.373 110.504C333.373 105.992 329.701 102.32 325.188 102.32Z" fill="#FF7876"/>
</g>
<path d="M359.904 77.73C359.819 77.7302 359.734 77.7108 359.658 77.6734C359.581 77.6359 359.514 77.5813 359.462 77.5138L357.331 74.7749C357.284 74.717 357.249 74.6504 357.228 74.5788C357.207 74.5073 357.2 74.4322 357.209 74.3581C357.217 74.284 357.24 74.2123 357.277 74.1473C357.313 74.0823 357.362 74.0252 357.421 73.9794C357.48 73.9336 357.547 73.9 357.619 73.8806C357.691 73.8612 357.767 73.8564 357.84 73.8664C357.914 73.8765 357.986 73.9012 358.05 73.9391C358.114 73.977 358.17 74.0273 358.214 74.0872L360.345 76.8262C360.41 76.9089 360.449 77.0079 360.46 77.1122C360.471 77.2164 360.452 77.3215 360.406 77.4157C360.361 77.5098 360.289 77.5892 360.2 77.6448C360.111 77.7003 360.009 77.7299 359.904 77.73Z" fill="#FF7876"/>
<path d="M360.37 77.6863C360.266 77.6862 360.164 77.6572 360.076 77.6027C359.988 77.5481 359.917 77.4701 359.87 77.3774C359.823 77.2846 359.804 77.1808 359.813 77.0774C359.822 76.974 359.859 76.8752 359.921 76.792L361.898 74.1392C361.988 74.0242 362.119 73.949 362.264 73.9297C362.409 73.9104 362.556 73.9484 362.673 74.0358C362.79 74.1232 362.868 74.2529 362.891 74.3972C362.914 74.5416 362.88 74.6892 362.795 74.8084L360.819 77.4612C360.767 77.5312 360.699 77.5881 360.621 77.6272C360.543 77.6663 360.457 77.6866 360.37 77.6863Z" fill="#FF7876"/>
<path d="M363.356 77.6864H357.021C356.872 77.6864 356.73 77.6274 356.625 77.5224C356.52 77.4174 356.461 77.2749 356.461 77.1264C356.461 76.9779 356.52 76.8354 356.625 76.7304C356.73 76.6254 356.872 76.5664 357.021 76.5664H363.356C363.504 76.5664 363.647 76.6254 363.752 76.7304C363.857 76.8354 363.916 76.9779 363.916 77.1264C363.916 77.2749 363.857 77.4174 363.752 77.5224C363.647 77.6274 363.504 77.6864 363.356 77.6864ZM363.054 79.8726H357.322C357.174 79.8726 357.031 79.8136 356.926 79.7086C356.821 79.6036 356.762 79.4612 356.762 79.3126C356.762 79.1641 356.821 79.0217 356.926 78.9167C357.031 78.8116 357.174 78.7526 357.322 78.7526H363.054C363.202 78.7526 363.345 78.8116 363.45 78.9167C363.555 79.0217 363.614 79.1641 363.614 79.3126C363.614 79.4612 363.555 79.6036 363.45 79.7086C363.345 79.8136 363.202 79.8726 363.054 79.8726Z" fill="#FF7876"/>
<path d="M360.093 83.1375C359.945 83.1375 359.802 83.0785 359.697 82.9734C359.592 82.8684 359.533 82.726 359.533 82.5774V77.1264C359.533 76.9779 359.592 76.8354 359.697 76.7304C359.802 76.6254 359.945 76.5664 360.093 76.5664C360.242 76.5664 360.384 76.6254 360.489 76.7304C360.594 76.8354 360.653 76.9779 360.653 77.1264V82.5774C360.653 82.726 360.594 82.8684 360.489 82.9734C360.384 83.0785 360.242 83.1375 360.093 83.1375Z" fill="#FF7876"/>
<path d="M360.188 90.507C353.57 90.507 348.186 85.1226 348.186 78.504C348.186 71.8859 353.57 66.5015 360.188 66.5015C366.806 66.5015 372.191 71.8865 372.191 78.504C372.191 85.1226 366.806 90.507 360.188 90.507ZM360.188 67.6221C354.188 67.6221 349.306 72.5036 349.306 78.5046C349.306 84.5055 354.188 89.3876 360.188 89.3876C366.189 89.3876 371.071 84.5055 371.071 78.5046C371.071 72.5036 366.189 67.6221 360.188 67.6221Z" fill="#FF7876"/>
<path d="M360.188 87.529C355.212 87.529 351.164 83.4807 351.164 78.5046C351.164 73.529 355.212 69.4807 360.188 69.4807C365.165 69.4807 369.213 73.5284 369.213 78.504C369.213 83.4802 365.165 87.529 360.188 87.529ZM360.188 70.3202C355.675 70.3202 352.004 73.9915 352.004 78.504C352.004 83.017 355.675 86.6884 360.188 86.6884C364.702 86.6884 368.373 83.017 368.373 78.504C368.373 73.9915 364.702 70.3202 360.188 70.3202Z" fill="#FF7876"/>
<mask id="mask5_2250_3301" style="mask-type:luminance" maskUnits="userSpaceOnUse" x="381" y="0" width="28" height="28">
<path d="M409 0H381V28H409V0Z" fill="white"/>
</mask>
<g mask="url(#mask5_2250_3301)">
<path d="M396.904 13.73C396.819 13.7302 396.734 13.7108 396.658 13.6734C396.581 13.6359 396.514 13.5813 396.462 13.5138L394.331 10.7749C394.284 10.717 394.249 10.6504 394.228 10.5788C394.207 10.5073 394.2 10.4322 394.209 10.3581C394.217 10.284 394.24 10.2123 394.277 10.1473C394.313 10.0823 394.362 10.0252 394.421 9.97938C394.48 9.93358 394.547 9.9 394.619 9.8806C394.691 9.86121 394.767 9.85639 394.84 9.86643C394.914 9.87647 394.986 9.90118 395.05 9.93909C395.114 9.977 395.17 10.0273 395.214 10.0872L397.345 12.8262C397.41 12.9089 397.449 13.0079 397.46 13.1122C397.471 13.2164 397.452 13.3215 397.406 13.4157C397.361 13.5098 397.289 13.5892 397.2 13.6448C397.111 13.7003 397.009 13.7299 396.904 13.73Z" fill="#98C091"/>
<path d="M397.37 13.6863C397.266 13.6862 397.164 13.6572 397.076 13.6027C396.988 13.5481 396.917 13.4701 396.87 13.3774C396.823 13.2846 396.804 13.1808 396.813 13.0774C396.822 12.974 396.859 12.8752 396.921 12.792L398.898 10.1392C398.988 10.0242 399.119 9.94906 399.264 9.92973C399.409 9.9104 399.556 9.94848 399.673 10.0358C399.79 10.1232 399.868 10.2529 399.891 10.3972C399.914 10.5416 399.88 10.6892 399.795 10.8084L397.819 13.4612C397.767 13.5312 397.699 13.5881 397.621 13.6272C397.543 13.6663 397.457 13.6866 397.37 13.6863Z" fill="#98C091"/>
<path d="M400.356 13.6864H394.021C393.872 13.6864 393.73 13.6274 393.625 13.5224C393.52 13.4174 393.461 13.2749 393.461 13.1264C393.461 12.9779 393.52 12.8354 393.625 12.7304C393.73 12.6254 393.872 12.5664 394.021 12.5664H400.356C400.504 12.5664 400.647 12.6254 400.752 12.7304C400.857 12.8354 400.916 12.9779 400.916 13.1264C400.916 13.2749 400.857 13.4174 400.752 13.5224C400.647 13.6274 400.504 13.6864 400.356 13.6864ZM400.054 15.8726H394.322C394.174 15.8726 394.031 15.8136 393.926 15.7086C393.821 15.6036 393.762 15.4612 393.762 15.3126C393.762 15.1641 393.821 15.0217 393.926 14.9167C394.031 14.8116 394.174 14.7526 394.322 14.7526H400.054C400.202 14.7526 400.345 14.8116 400.45 14.9167C400.555 15.0217 400.614 15.1641 400.614 15.3126C400.614 15.4612 400.555 15.6036 400.45 15.7086C400.345 15.8136 400.202 15.8726 400.054 15.8726Z" fill="#98C091"/>
<path d="M397.093 19.1375C396.945 19.1375 396.802 19.0785 396.697 18.9734C396.592 18.8684 396.533 18.726 396.533 18.5774V13.1264C396.533 12.9779 396.592 12.8354 396.697 12.7304C396.802 12.6254 396.945 12.5664 397.093 12.5664C397.242 12.5664 397.384 12.6254 397.489 12.7304C397.594 12.8354 397.653 12.9779 397.653 13.1264V18.5774C397.653 18.726 397.594 18.8684 397.489 18.9734C397.384 19.0785 397.242 19.1375 397.093 19.1375Z" fill="#98C091"/>
<path d="M397.188 26.5069C390.57 26.5069 385.186 21.1225 385.186 14.5039C385.186 7.88586 390.57 2.50146 397.188 2.50146C403.806 2.50146 409.191 7.88643 409.191 14.5039C409.191 21.1225 403.806 26.5069 397.188 26.5069ZM397.188 3.62203C391.188 3.62203 386.306 8.50353 386.306 14.5045C386.306 20.5054 391.188 25.3875 397.188 25.3875C403.189 25.3875 408.071 20.5054 408.071 14.5045C408.071 8.50353 403.189 3.62203 397.188 3.62203Z" fill="#98C091"/>
<path d="M397.188 23.529C392.212 23.529 388.164 19.4807 388.164 14.5046C388.164 9.52895 392.212 5.48071 397.188 5.48071C402.165 5.48071 406.213 9.52839 406.213 14.504C406.213 19.4802 402.165 23.529 397.188 23.529ZM397.188 6.32015C392.675 6.32015 389.004 9.99151 389.004 14.504C389.004 19.017 392.675 22.6884 397.188 22.6884C401.702 22.6884 405.373 19.017 405.373 14.504C405.373 9.99151 401.702 6.32015 397.188 6.32015Z" fill="#98C091"/>
</g>
<path d="M396.904 45.73C396.819 45.7302 396.734 45.7108 396.658 45.6734C396.581 45.6359 396.514 45.5813 396.462 45.5138L394.331 42.7749C394.284 42.717 394.249 42.6504 394.228 42.5788C394.207 42.5073 394.2 42.4322 394.209 42.3581C394.217 42.284 394.24 42.2123 394.277 42.1473C394.313 42.0823 394.362 42.0252 394.421 41.9794C394.48 41.9336 394.547 41.9 394.619 41.8806C394.691 41.8612 394.767 41.8564 394.84 41.8664C394.914 41.8765 394.986 41.9012 395.05 41.9391C395.114 41.977 395.17 42.0273 395.214 42.0872L397.345 44.8262C397.41 44.9089 397.449 45.0079 397.46 45.1122C397.471 45.2164 397.452 45.3215 397.406 45.4157C397.361 45.5098 397.289 45.5892 397.2 45.6448C397.111 45.7003 397.009 45.7299 396.904 45.73Z" fill="#98C091"/>
<path d="M397.37 45.6863C397.266 45.6862 397.164 45.6572 397.076 45.6027C396.988 45.5481 396.917 45.4701 396.87 45.3774C396.823 45.2846 396.804 45.1808 396.813 45.0774C396.822 44.974 396.859 44.8752 396.921 44.792L398.898 42.1392C398.988 42.0242 399.119 41.949 399.264 41.9297C399.409 41.9104 399.556 41.9484 399.673 42.0358C399.79 42.1232 399.868 42.2529 399.891 42.3972C399.914 42.5416 399.88 42.6892 399.795 42.8084L397.819 45.4612C397.767 45.5312 397.699 45.5881 397.621 45.6272C397.543 45.6663 397.457 45.6866 397.37 45.6863Z" fill="#98C091"/>
<path d="M400.356 45.6864H394.021C393.872 45.6864 393.73 45.6274 393.625 45.5224C393.52 45.4174 393.461 45.2749 393.461 45.1264C393.461 44.9779 393.52 44.8354 393.625 44.7304C393.73 44.6254 393.872 44.5664 394.021 44.5664H400.356C400.504 44.5664 400.647 44.6254 400.752 44.7304C400.857 44.8354 400.916 44.9779 400.916 45.1264C400.916 45.2749 400.857 45.4174 400.752 45.5224C400.647 45.6274 400.504 45.6864 400.356 45.6864ZM400.054 47.8726H394.322C394.174 47.8726 394.031 47.8136 393.926 47.7086C393.821 47.6036 393.762 47.4612 393.762 47.3126C393.762 47.1641 393.821 47.0217 393.926 46.9167C394.031 46.8116 394.174 46.7526 394.322 46.7526H400.054C400.202 46.7526 400.345 46.8116 400.45 46.9167C400.555 47.0217 400.614 47.1641 400.614 47.3126C400.614 47.4612 400.555 47.6036 400.45 47.7086C400.345 47.8136 400.202 47.8726 400.054 47.8726Z" fill="#98C091"/>
<path d="M397.093 51.1375C396.945 51.1375 396.802 51.0785 396.697 50.9734C396.592 50.8684 396.533 50.726 396.533 50.5774V45.1264C396.533 44.9779 396.592 44.8354 396.697 44.7304C396.802 44.6254 396.945 44.5664 397.093 44.5664C397.242 44.5664 397.384 44.6254 397.489 44.7304C397.594 44.8354 397.653 44.9779 397.653 45.1264V50.5774C397.653 50.726 397.594 50.8684 397.489 50.9734C397.384 51.0785 397.242 51.1375 397.093 51.1375Z" fill="#98C091"/>
<path d="M397.188 58.507C390.57 58.507 385.186 53.1226 385.186 46.504C385.186 39.8859 390.57 34.5015 397.188 34.5015C403.806 34.5015 409.191 39.8865 409.191 46.504C409.191 53.1226 403.806 58.507 397.188 58.507ZM397.188 35.6221C391.188 35.6221 386.306 40.5036 386.306 46.5046C386.306 52.5055 391.188 57.3876 397.188 57.3876C403.189 57.3876 408.071 52.5055 408.071 46.5046C408.071 40.5036 403.189 35.6221 397.188 35.6221Z" fill="#98C091"/>
<path d="M397.188 55.529C392.212 55.529 388.164 51.4807 388.164 46.5046C388.164 41.529 392.212 37.4807 397.188 37.4807C402.165 37.4807 406.213 41.5284 406.213 46.504C406.213 51.4802 402.165 55.529 397.188 55.529ZM397.188 38.3202C392.675 38.3202 389.004 41.9915 389.004 46.504C389.004 51.017 392.675 54.6884 397.188 54.6884C401.702 54.6884 405.373 51.017 405.373 46.504C405.373 41.9915 401.702 38.3202 397.188 38.3202Z" fill="#98C091"/>
<path d="M360.904 109.73C360.819 109.73 360.734 109.711 360.658 109.673C360.581 109.636 360.514 109.581 360.462 109.514L358.331 106.775C358.284 106.717 358.249 106.65 358.228 106.579C358.207 106.507 358.2 106.432 358.209 106.358C358.217 106.284 358.24 106.212 358.277 106.147C358.313 106.082 358.362 106.025 358.421 105.979C358.48 105.934 358.547 105.9 358.619 105.881C358.691 105.861 358.767 105.856 358.84 105.867C358.914 105.877 358.986 105.901 359.05 105.939C359.114 105.977 359.17 106.027 359.214 106.087L361.345 108.826C361.41 108.909 361.449 109.008 361.46 109.112C361.471 109.216 361.452 109.322 361.406 109.416C361.361 109.51 361.289 109.589 361.2 109.645C361.111 109.7 361.009 109.73 360.904 109.73Z" fill="#FF7876"/>
<path d="M361.37 109.686C361.266 109.686 361.164 109.657 361.076 109.603C360.988 109.548 360.917 109.47 360.87 109.377C360.823 109.285 360.804 109.181 360.813 109.077C360.822 108.974 360.859 108.875 360.921 108.792L362.898 106.139C362.988 106.024 363.119 105.949 363.264 105.93C363.409 105.91 363.556 105.949 363.673 106.036C363.79 106.123 363.868 106.253 363.891 106.397C363.914 106.542 363.88 106.689 363.795 106.809L361.819 109.461C361.767 109.531 361.699 109.588 361.621 109.627C361.543 109.666 361.457 109.687 361.37 109.686Z" fill="#FF7876"/>
<path d="M364.356 109.686H358.021C357.872 109.686 357.73 109.627 357.625 109.522C357.52 109.417 357.461 109.275 357.461 109.126C357.461 108.978 357.52 108.835 357.625 108.73C357.73 108.625 357.872 108.566 358.021 108.566H364.356C364.504 108.566 364.647 108.625 364.752 108.73C364.857 108.835 364.916 108.978 364.916 109.126C364.916 109.275 364.857 109.417 364.752 109.522C364.647 109.627 364.504 109.686 364.356 109.686ZM364.054 111.873H358.322C358.174 111.873 358.031 111.814 357.926 111.709C357.821 111.604 357.762 111.461 357.762 111.313C357.762 111.164 357.821 111.022 357.926 110.917C358.031 110.812 358.174 110.753 358.322 110.753H364.054C364.202 110.753 364.345 110.812 364.45 110.917C364.555 111.022 364.614 111.164 364.614 111.313C364.614 111.461 364.555 111.604 364.45 111.709C364.345 111.814 364.202 111.873 364.054 111.873Z" fill="#FF7876"/>
<path d="M361.093 115.137C360.945 115.137 360.802 115.078 360.697 114.973C360.592 114.868 360.533 114.726 360.533 114.577V109.126C360.533 108.978 360.592 108.835 360.697 108.73C360.802 108.625 360.945 108.566 361.093 108.566C361.242 108.566 361.384 108.625 361.489 108.73C361.594 108.835 361.653 108.978 361.653 109.126V114.577C361.653 114.726 361.594 114.868 361.489 114.973C361.384 115.078 361.242 115.137 361.093 115.137Z" fill="#FF7876"/>
<path d="M361.188 122.507C354.57 122.507 349.186 117.123 349.186 110.504C349.186 103.886 354.57 98.5015 361.188 98.5015C367.806 98.5015 373.191 103.886 373.191 110.504C373.191 117.123 367.806 122.507 361.188 122.507ZM361.188 99.6221C355.188 99.6221 350.306 104.504 350.306 110.505C350.306 116.506 355.188 121.388 361.188 121.388C367.189 121.388 372.071 116.506 372.071 110.505C372.071 104.504 367.189 99.6221 361.188 99.6221Z" fill="#FF7876"/>
<path d="M361.188 119.529C356.212 119.529 352.164 115.481 352.164 110.505C352.164 105.529 356.212 101.481 361.188 101.481C366.165 101.481 370.213 105.528 370.213 110.504C370.213 115.48 366.165 119.529 361.188 119.529ZM361.188 102.32C356.675 102.32 353.004 105.992 353.004 110.504C353.004 115.017 356.675 118.688 361.188 118.688C365.702 118.688 369.373 115.017 369.373 110.504C369.373 105.992 365.702 102.32 361.188 102.32Z" fill="#FF7876"/>
<path d="M396.904 77.73C396.819 77.7302 396.734 77.7108 396.658 77.6734C396.581 77.6359 396.514 77.5813 396.462 77.5138L394.331 74.7749C394.284 74.717 394.249 74.6504 394.228 74.5788C394.207 74.5073 394.2 74.4322 394.209 74.3581C394.217 74.284 394.24 74.2123 394.277 74.1473C394.313 74.0823 394.362 74.0252 394.421 73.9794C394.48 73.9336 394.547 73.9 394.619 73.8806C394.691 73.8612 394.767 73.8564 394.84 73.8664C394.914 73.8765 394.986 73.9012 395.05 73.9391C395.114 73.977 395.17 74.0273 395.214 74.0872L397.345 76.8262C397.41 76.9089 397.449 77.0079 397.46 77.1122C397.471 77.2164 397.452 77.3215 397.406 77.4157C397.361 77.5098 397.289 77.5892 397.2 77.6448C397.111 77.7003 397.009 77.7299 396.904 77.73Z" fill="#FF7876"/>
<path d="M397.37 77.6863C397.266 77.6862 397.164 77.6572 397.076 77.6027C396.988 77.5481 396.917 77.4701 396.87 77.3774C396.823 77.2846 396.804 77.1808 396.813 77.0774C396.822 76.974 396.859 76.8752 396.921 76.792L398.898 74.1392C398.988 74.0242 399.119 73.949 399.264 73.9297C399.409 73.9104 399.556 73.9484 399.673 74.0358C399.79 74.1232 399.868 74.2529 399.891 74.3972C399.914 74.5416 399.88 74.6892 399.795 74.8084L397.819 77.4612C397.767 77.5312 397.699 77.5881 397.621 77.6272C397.543 77.6663 397.457 77.6866 397.37 77.6863Z" fill="#FF7876"/>
<path d="M400.356 77.6864H394.021C393.872 77.6864 393.73 77.6274 393.625 77.5224C393.52 77.4174 393.461 77.2749 393.461 77.1264C393.461 76.9779 393.52 76.8354 393.625 76.7304C393.73 76.6254 393.872 76.5664 394.021 76.5664H400.356C400.504 76.5664 400.647 76.6254 400.752 76.7304C400.857 76.8354 400.916 76.9779 400.916 77.1264C400.916 77.2749 400.857 77.4174 400.752 77.5224C400.647 77.6274 400.504 77.6864 400.356 77.6864ZM400.054 79.8726H394.322C394.174 79.8726 394.031 79.8136 393.926 79.7086C393.821 79.6036 393.762 79.4612 393.762 79.3126C393.762 79.1641 393.821 79.0217 393.926 78.9167C394.031 78.8116 394.174 78.7526 394.322 78.7526H400.054C400.202 78.7526 400.345 78.8116 400.45 78.9167C400.555 79.0217 400.614 79.1641 400.614 79.3126C400.614 79.4612 400.555 79.6036 400.45 79.7086C400.345 79.8136 400.202 79.8726 400.054 79.8726Z" fill="#FF7876"/>
<path d="M397.093 83.1375C396.945 83.1375 396.802 83.0785 396.697 82.9734C396.592 82.8684 396.533 82.726 396.533 82.5774V77.1264C396.533 76.9779 396.592 76.8354 396.697 76.7304C396.802 76.6254 396.945 76.5664 397.093 76.5664C397.242 76.5664 397.384 76.6254 397.489 76.7304C397.594 76.8354 397.653 76.9779 397.653 77.1264V82.5774C397.653 82.726 397.594 82.8684 397.489 82.9734C397.384 83.0785 397.242 83.1375 397.093 83.1375Z" fill="#FF7876"/>
<path d="M397.188 90.507C390.57 90.507 385.186 85.1226 385.186 78.504C385.186 71.8859 390.57 66.5015 397.188 66.5015C403.806 66.5015 409.191 71.8865 409.191 78.504C409.191 85.1226 403.806 90.507 397.188 90.507ZM397.188 67.6221C391.188 67.6221 386.306 72.5036 386.306 78.5046C386.306 84.5055 391.188 89.3876 397.188 89.3876C403.189 89.3876 408.071 84.5055 408.071 78.5046C408.071 72.5036 403.189 67.6221 397.188 67.6221Z" fill="#FF7876"/>
<path d="M397.188 87.529C392.212 87.529 388.164 83.4807 388.164 78.5046C388.164 73.529 392.212 69.4807 397.188 69.4807C402.165 69.4807 406.213 73.5284 406.213 78.504C406.213 83.4802 402.165 87.529 397.188 87.529ZM397.188 70.3202C392.675 70.3202 389.004 73.9915 389.004 78.504C389.004 83.017 392.675 86.6884 397.188 86.6884C401.702 86.6884 405.373 83.017 405.373 78.504C405.373 73.9915 401.702 70.3202 397.188 70.3202Z" fill="#FF7876"/>
<mask id="mask6_2250_3301" style="mask-type:luminance" maskUnits="userSpaceOnUse" x="418" y="0" width="28" height="28">
<path d="M446 0H418.031V28H446V0Z" fill="white"/>
</mask>
<g mask="url(#mask6_2250_3301)">
<path d="M433.92 13.73C433.835 13.7302 433.751 13.7108 433.674 13.6734C433.598 13.6359 433.531 13.5813 433.479 13.5138L431.35 10.7749C431.303 10.717 431.268 10.6504 431.247 10.5788C431.226 10.5073 431.22 10.4322 431.228 10.3581C431.237 10.284 431.26 10.2123 431.296 10.1473C431.333 10.0823 431.382 10.0252 431.44 9.97938C431.499 9.93358 431.567 9.9 431.638 9.8806C431.71 9.86121 431.785 9.85639 431.859 9.86643C431.933 9.87647 432.004 9.90118 432.068 9.93909C432.132 9.977 432.188 10.0273 432.233 10.0872L434.361 12.8262C434.426 12.9089 434.465 13.0079 434.476 13.1122C434.487 13.2164 434.468 13.3215 434.422 13.4157C434.376 13.5098 434.305 13.5892 434.216 13.6448C434.128 13.7003 434.025 13.7299 433.92 13.73Z" fill="#BDBDBD"/>
<path d="M434.385 13.6863C434.281 13.6862 434.18 13.6572 434.091 13.6027C434.003 13.5481 433.932 13.4701 433.886 13.3774C433.839 13.2846 433.819 13.1808 433.828 13.0774C433.837 12.974 433.875 12.8752 433.937 12.792L435.911 10.1392C436.001 10.0242 436.132 9.94906 436.277 9.92973C436.422 9.9104 436.568 9.94848 436.685 10.0358C436.802 10.1232 436.881 10.2529 436.903 10.3972C436.926 10.5416 436.892 10.6892 436.807 10.8084L434.833 13.4612C434.782 13.5312 434.714 13.5881 434.636 13.6272C434.558 13.6663 434.472 13.6866 434.385 13.6863Z" fill="#BDBDBD"/>
<path d="M437.367 13.6864H431.04C430.891 13.6864 430.749 13.6274 430.644 13.5224C430.539 13.4174 430.48 13.2749 430.48 13.1264C430.48 12.9779 430.539 12.8354 430.644 12.7304C430.749 12.6254 430.891 12.5664 431.04 12.5664H437.367C437.516 12.5664 437.658 12.6254 437.763 12.7304C437.868 12.8354 437.927 12.9779 437.927 13.1264C437.927 13.2749 437.868 13.4174 437.763 13.5224C437.658 13.6274 437.516 13.6864 437.367 13.6864ZM437.066 15.8726H431.341C431.192 15.8726 431.05 15.8136 430.945 15.7086C430.84 15.6036 430.781 15.4612 430.781 15.3126C430.781 15.1641 430.84 15.0217 430.945 14.9167C431.05 14.8116 431.192 14.7526 431.341 14.7526H437.066C437.214 14.7526 437.357 14.8116 437.461 14.9167C437.566 15.0217 437.625 15.1641 437.625 15.3126C437.625 15.4612 437.566 15.6036 437.461 15.7086C437.357 15.8136 437.214 15.8726 437.066 15.8726Z" fill="#BDBDBD"/>
<path d="M434.108 19.1375C433.96 19.1375 433.818 19.0785 433.713 18.9734C433.608 18.8684 433.549 18.726 433.549 18.5774V13.1264C433.549 12.9779 433.608 12.8354 433.713 12.7304C433.818 12.6254 433.96 12.5664 434.108 12.5664C434.257 12.5664 434.399 12.6254 434.504 12.7304C434.609 12.8354 434.668 12.9779 434.668 13.1264V18.5774C434.668 18.726 434.609 18.8684 434.504 18.9734C434.399 19.0785 434.257 19.1375 434.108 19.1375Z" fill="#BDBDBD"/>
<path d="M434.204 26.5069C427.593 26.5069 422.215 21.1225 422.215 14.5039C422.215 7.88586 427.593 2.50146 434.204 2.50146C440.814 2.50146 446.193 7.88643 446.193 14.5039C446.193 21.1225 440.814 26.5069 434.204 26.5069ZM434.204 3.62203C428.21 3.62203 423.334 8.50353 423.334 14.5045C423.334 20.5054 428.21 25.3875 434.204 25.3875C440.198 25.3875 445.075 20.5054 445.075 14.5045C445.075 8.50353 440.198 3.62203 434.204 3.62203Z" fill="#BDBDBD"/>
<path d="M434.204 23.529C429.233 23.529 425.189 19.4807 425.189 14.5046C425.189 9.52895 429.233 5.48071 434.204 5.48071C439.174 5.48071 443.218 9.52839 443.218 14.504C443.218 19.4802 439.174 23.529 434.204 23.529ZM434.204 6.32015C429.696 6.32015 426.029 9.99151 426.029 14.504C426.029 19.017 429.696 22.6884 434.204 22.6884C438.712 22.6884 442.379 19.017 442.379 14.504C442.379 9.99151 438.712 6.32015 434.204 6.32015Z" fill="#BDBDBD"/>
</g>
<mask id="mask7_2250_3301" style="mask-type:luminance" maskUnits="userSpaceOnUse" x="418" y="0" width="12" height="28">
<path d="M430 0H418V28H430V0Z" fill="white"/>
</mask>
<g mask="url(#mask7_2250_3301)">
<path d="M434.173 26.5069C427.562 26.5069 422.184 21.1225 422.184 14.5039C422.184 7.88586 427.562 2.50146 434.173 2.50146C440.783 2.50146 446.162 7.88643 446.162 14.5039C446.162 21.1225 440.783 26.5069 434.173 26.5069ZM434.173 3.62203C428.179 3.62203 423.302 8.50353 423.302 14.5045C423.302 20.5054 428.179 25.3875 434.173 25.3875C440.167 25.3875 445.043 20.5054 445.043 14.5045C445.043 8.50353 440.167 3.62203 434.173 3.62203Z" fill="#98C091"/>
<path d="M434.172 23.529C429.202 23.529 425.158 19.4807 425.158 14.5046C425.158 9.52895 429.202 5.48071 434.172 5.48071C439.143 5.48071 443.187 9.52839 443.187 14.504C443.187 19.4802 439.143 23.529 434.172 23.529ZM434.172 6.32015C429.664 6.32015 425.997 9.99151 425.997 14.504C425.997 19.017 429.664 22.6884 434.172 22.6884C438.68 22.6884 442.348 19.017 442.348 14.504C442.348 9.99151 438.68 6.32015 434.172 6.32015Z" fill="#98C091"/>
</g>
<path d="M433.92 47.73C433.835 47.7302 433.751 47.7108 433.674 47.6734C433.598 47.6359 433.531 47.5813 433.479 47.5138L431.35 44.7749C431.303 44.717 431.268 44.6504 431.247 44.5788C431.226 44.5073 431.22 44.4322 431.228 44.3581C431.237 44.284 431.26 44.2123 431.296 44.1473C431.333 44.0823 431.382 44.0252 431.44 43.9794C431.499 43.9336 431.567 43.9 431.638 43.8806C431.71 43.8612 431.785 43.8564 431.859 43.8664C431.933 43.8765 432.004 43.9012 432.068 43.9391C432.132 43.977 432.188 44.0273 432.233 44.0872L434.361 46.8262C434.426 46.9089 434.465 47.0079 434.476 47.1122C434.487 47.2164 434.468 47.3215 434.422 47.4157C434.376 47.5098 434.305 47.5892 434.216 47.6448C434.128 47.7003 434.025 47.7299 433.92 47.73Z" fill="#BDBDBD"/>
<path d="M434.385 47.6863C434.281 47.6862 434.18 47.6572 434.091 47.6027C434.003 47.5481 433.932 47.4701 433.886 47.3774C433.839 47.2846 433.819 47.1808 433.828 47.0774C433.837 46.974 433.875 46.8752 433.937 46.792L435.911 44.1392C436.001 44.0242 436.132 43.949 436.277 43.9297C436.422 43.9104 436.568 43.9484 436.685 44.0358C436.802 44.1232 436.881 44.2529 436.903 44.3972C436.926 44.5416 436.892 44.6892 436.807 44.8084L434.833 47.4612C434.782 47.5312 434.714 47.5881 434.636 47.6272C434.558 47.6663 434.472 47.6866 434.385 47.6863Z" fill="#BDBDBD"/>
<path d="M437.367 47.6864H431.04C430.891 47.6864 430.749 47.6274 430.644 47.5224C430.539 47.4174 430.48 47.2749 430.48 47.1264C430.48 46.9779 430.539 46.8354 430.644 46.7304C430.749 46.6254 430.891 46.5664 431.04 46.5664H437.367C437.516 46.5664 437.658 46.6254 437.763 46.7304C437.868 46.8354 437.927 46.9779 437.927 47.1264C437.927 47.2749 437.868 47.4174 437.763 47.5224C437.658 47.6274 437.516 47.6864 437.367 47.6864ZM437.066 49.8726H431.341C431.192 49.8726 431.05 49.8136 430.945 49.7086C430.84 49.6036 430.781 49.4612 430.781 49.3126C430.781 49.1641 430.84 49.0217 430.945 48.9167C431.05 48.8116 431.192 48.7526 431.341 48.7526H437.066C437.214 48.7526 437.357 48.8116 437.461 48.9167C437.566 49.0217 437.625 49.1641 437.625 49.3126C437.625 49.4612 437.566 49.6036 437.461 49.7086C437.357 49.8136 437.214 49.8726 437.066 49.8726Z" fill="#BDBDBD"/>
<path d="M434.108 53.1375C433.96 53.1375 433.818 53.0785 433.713 52.9734C433.608 52.8684 433.549 52.726 433.549 52.5774V47.1264C433.549 46.9779 433.608 46.8354 433.713 46.7304C433.818 46.6254 433.96 46.5664 434.108 46.5664C434.257 46.5664 434.399 46.6254 434.504 46.7304C434.609 46.8354 434.668 46.9779 434.668 47.1264V52.5774C434.668 52.726 434.609 52.8684 434.504 52.9734C434.399 53.0785 434.257 53.1375 434.108 53.1375Z" fill="#BDBDBD"/>
<path d="M434.204 60.507C427.593 60.507 422.215 55.1226 422.215 48.504C422.215 41.8859 427.593 36.5015 434.204 36.5015C440.814 36.5015 446.193 41.8865 446.193 48.504C446.193 55.1226 440.814 60.507 434.204 60.507ZM434.204 37.6221C428.21 37.6221 423.334 42.5036 423.334 48.5046C423.334 54.5055 428.21 59.3876 434.204 59.3876C440.198 59.3876 445.075 54.5055 445.075 48.5046C445.075 42.5036 440.198 37.6221 434.204 37.6221Z" fill="#BDBDBD"/>
<path d="M434.204 57.529C429.233 57.529 425.189 53.4807 425.189 48.5046C425.189 43.529 429.233 39.4807 434.204 39.4807C439.174 39.4807 443.218 43.5284 443.218 48.504C443.218 53.4802 439.174 57.529 434.204 57.529ZM434.204 40.3202C429.696 40.3202 426.029 43.9915 426.029 48.504C426.029 53.017 429.696 56.6884 434.204 56.6884C438.712 56.6884 442.379 53.017 442.379 48.504C442.379 43.9915 438.712 40.3202 434.204 40.3202Z" fill="#BDBDBD"/>
<mask id="mask8_2250_3301" style="mask-type:luminance" maskUnits="userSpaceOnUse" x="420" y="34" width="5" height="28">
<path d="M425 34H420V62H425V34Z" fill="white"/>
</mask>
<g mask="url(#mask8_2250_3301)">
<path d="M434.173 60.507C427.562 60.507 422.184 55.1226 422.184 48.504C422.184 41.8859 427.562 36.5015 434.173 36.5015C440.783 36.5015 446.162 41.8865 446.162 48.504C446.162 55.1226 440.783 60.507 434.173 60.507ZM434.173 37.6221C428.179 37.6221 423.302 42.5036 423.302 48.5046C423.302 54.5055 428.179 59.3876 434.173 59.3876C440.167 59.3876 445.043 54.5055 445.043 48.5046C445.043 42.5036 440.167 37.6221 434.173 37.6221Z" fill="#98C091"/>
</g>
<path d="M396.92 109.73C396.835 109.73 396.751 109.711 396.674 109.673C396.598 109.636 396.531 109.581 396.479 109.514L394.35 106.775C394.303 106.717 394.268 106.65 394.247 106.579C394.226 106.507 394.22 106.432 394.228 106.358C394.237 106.284 394.26 106.212 394.296 106.147C394.333 106.082 394.382 106.025 394.44 105.979C394.499 105.934 394.567 105.9 394.638 105.881C394.71 105.861 394.785 105.856 394.859 105.867C394.933 105.877 395.004 105.901 395.068 105.939C395.132 105.977 395.188 106.027 395.233 106.087L397.361 108.826C397.426 108.909 397.465 109.008 397.476 109.112C397.487 109.216 397.468 109.322 397.422 109.416C397.376 109.51 397.305 109.589 397.216 109.645C397.128 109.7 397.025 109.73 396.92 109.73Z" fill="#BDBDBD"/>
<path d="M397.385 109.686C397.281 109.686 397.18 109.657 397.091 109.603C397.003 109.548 396.932 109.47 396.886 109.377C396.839 109.285 396.819 109.181 396.828 109.077C396.837 108.974 396.875 108.875 396.937 108.792L398.911 106.139C399.001 106.024 399.132 105.949 399.277 105.93C399.422 105.91 399.568 105.949 399.685 106.036C399.802 106.123 399.881 106.253 399.903 106.397C399.926 106.542 399.892 106.689 399.807 106.809L397.833 109.461C397.782 109.531 397.714 109.588 397.636 109.627C397.558 109.666 397.472 109.687 397.385 109.686Z" fill="#BDBDBD"/>
<path d="M400.367 109.686H394.04C393.891 109.686 393.749 109.627 393.644 109.522C393.539 109.417 393.48 109.275 393.48 109.126C393.48 108.978 393.539 108.835 393.644 108.73C393.749 108.625 393.891 108.566 394.04 108.566H400.367C400.516 108.566 400.658 108.625 400.763 108.73C400.868 108.835 400.927 108.978 400.927 109.126C400.927 109.275 400.868 109.417 400.763 109.522C400.658 109.627 400.516 109.686 400.367 109.686ZM400.066 111.873H394.341C394.192 111.873 394.05 111.814 393.945 111.709C393.84 111.604 393.781 111.461 393.781 111.313C393.781 111.164 393.84 111.022 393.945 110.917C394.05 110.812 394.192 110.753 394.341 110.753H400.066C400.214 110.753 400.357 110.812 400.461 110.917C400.566 111.022 400.625 111.164 400.625 111.313C400.625 111.461 400.566 111.604 400.461 111.709C400.357 111.814 400.214 111.873 400.066 111.873Z" fill="#BDBDBD"/>
<path d="M397.108 115.137C396.96 115.137 396.818 115.078 396.713 114.973C396.608 114.868 396.549 114.726 396.549 114.577V109.126C396.549 108.978 396.608 108.835 396.713 108.73C396.818 108.625 396.96 108.566 397.108 108.566C397.257 108.566 397.399 108.625 397.504 108.73C397.609 108.835 397.668 108.978 397.668 109.126V114.577C397.668 114.726 397.609 114.868 397.504 114.973C397.399 115.078 397.257 115.137 397.108 115.137Z" fill="#BDBDBD"/>
<path d="M397.204 122.507C390.593 122.507 385.215 117.123 385.215 110.504C385.215 103.886 390.593 98.5015 397.204 98.5015C403.814 98.5015 409.193 103.886 409.193 110.504C409.193 117.123 403.814 122.507 397.204 122.507ZM397.204 99.6221C391.21 99.6221 386.334 104.504 386.334 110.505C386.334 116.506 391.21 121.388 397.204 121.388C403.198 121.388 408.075 116.506 408.075 110.505C408.075 104.504 403.198 99.6221 397.204 99.6221Z" fill="#BDBDBD"/>
<path d="M397.204 119.529C392.233 119.529 388.189 115.481 388.189 110.505C388.189 105.529 392.233 101.481 397.204 101.481C402.174 101.481 406.218 105.528 406.218 110.504C406.218 115.48 402.174 119.529 397.204 119.529ZM397.204 102.32C392.696 102.32 389.029 105.992 389.029 110.504C389.029 115.017 392.696 118.688 397.204 118.688C401.712 118.688 405.379 115.017 405.379 110.504C405.379 105.992 401.712 102.32 397.204 102.32Z" fill="#BDBDBD"/>
<mask id="mask9_2250_3301" style="mask-type:luminance" maskUnits="userSpaceOnUse" x="383" y="96" width="15" height="28">
<path d="M398 96H383V124H398V96Z" fill="white"/>
</mask>
<g mask="url(#mask9_2250_3301)">
<path d="M396.889 109.73C396.804 109.73 396.72 109.711 396.643 109.673C396.567 109.636 396.5 109.581 396.447 109.514L394.319 106.775C394.272 106.717 394.237 106.65 394.216 106.579C394.195 106.507 394.189 106.432 394.197 106.358C394.205 106.284 394.228 106.212 394.265 106.147C394.301 106.082 394.35 106.025 394.409 105.979C394.468 105.934 394.535 105.9 394.607 105.881C394.679 105.861 394.754 105.856 394.828 105.867C394.902 105.877 394.973 105.901 395.037 105.939C395.101 105.977 395.157 106.027 395.202 106.087L397.33 108.826C397.394 108.909 397.434 109.008 397.445 109.112C397.456 109.216 397.437 109.322 397.391 109.416C397.345 109.51 397.274 109.589 397.185 109.645C397.096 109.7 396.994 109.73 396.889 109.73Z" fill="#FF7876"/>
<path d="M397.354 109.686C397.25 109.686 397.148 109.657 397.06 109.603C396.972 109.548 396.901 109.47 396.854 109.377C396.808 109.285 396.788 109.181 396.797 109.077C396.806 108.974 396.844 108.875 396.906 108.792L398.88 106.139C398.97 106.024 399.101 105.949 399.246 105.93C399.39 105.91 399.537 105.949 399.654 106.036C399.771 106.123 399.849 106.253 399.872 106.397C399.895 106.542 399.861 106.689 399.776 106.809L397.802 109.461C397.75 109.531 397.683 109.588 397.605 109.627C397.527 109.666 397.441 109.687 397.354 109.686Z" fill="#FF7876"/>
<path d="M400.336 109.686H394.009C393.86 109.686 393.718 109.627 393.613 109.522C393.508 109.417 393.449 109.275 393.449 109.126C393.449 108.978 393.508 108.835 393.613 108.73C393.718 108.625 393.86 108.566 394.009 108.566H400.336C400.485 108.566 400.627 108.625 400.732 108.73C400.837 108.835 400.896 108.978 400.896 109.126C400.896 109.275 400.837 109.417 400.732 109.522C400.627 109.627 400.485 109.686 400.336 109.686ZM400.035 111.873H394.31C394.161 111.873 394.019 111.814 393.914 111.709C393.809 111.604 393.75 111.461 393.75 111.313C393.75 111.164 393.809 111.022 393.914 110.917C394.019 110.812 394.161 110.753 394.31 110.753H400.035C400.183 110.753 400.325 110.812 400.43 110.917C400.535 111.022 400.594 111.164 400.594 111.313C400.594 111.461 400.535 111.604 400.43 111.709C400.325 111.814 400.183 111.873 400.035 111.873Z" fill="#FF7876"/>
<path d="M397.077 115.137C396.929 115.137 396.786 115.078 396.681 114.973C396.577 114.868 396.518 114.726 396.518 114.577V109.126C396.518 108.978 396.577 108.835 396.681 108.73C396.786 108.625 396.929 108.566 397.077 108.566C397.225 108.566 397.368 108.625 397.472 108.73C397.577 108.835 397.636 108.978 397.636 109.126V114.577C397.636 114.726 397.577 114.868 397.472 114.973C397.368 115.078 397.225 115.137 397.077 115.137Z" fill="#FF7876"/>
<path d="M397.173 122.507C390.562 122.507 385.184 117.123 385.184 110.504C385.184 103.886 390.562 98.5015 397.173 98.5015C403.783 98.5015 409.162 103.886 409.162 110.504C409.162 117.123 403.783 122.507 397.173 122.507ZM397.173 99.6221C391.179 99.6221 386.302 104.504 386.302 110.505C386.302 116.506 391.179 121.388 397.173 121.388C403.167 121.388 408.043 116.506 408.043 110.505C408.043 104.504 403.167 99.6221 397.173 99.6221Z" fill="#FF7876"/>
<path d="M397.172 119.529C392.202 119.529 388.158 115.481 388.158 110.505C388.158 105.529 392.202 101.481 397.172 101.481C402.143 101.481 406.187 105.528 406.187 110.504C406.187 115.48 402.143 119.529 397.172 119.529ZM397.172 102.32C392.664 102.32 388.997 105.992 388.997 110.504C388.997 115.017 392.664 118.688 397.172 118.688C401.68 118.688 405.348 115.017 405.348 110.504C405.348 105.992 401.68 102.32 397.172 102.32Z" fill="#FF7876"/>
</g>
<path d="M522.355 42.8081C521.277 42.8081 520.409 43.1721 519.751 43.9001C519.107 44.5861 518.785 45.4821 518.771 46.6021H520.409C520.437 45.8181 520.605 45.2161 520.913 44.8241C521.221 44.4041 521.683 44.1941 522.299 44.1941C522.873 44.1941 523.307 44.3201 523.601 44.5861C523.881 44.8521 524.035 45.2581 524.035 45.8041C524.035 46.3641 523.811 46.8961 523.377 47.3861C523.097 47.6801 522.649 48.0581 522.005 48.5061C520.843 49.3041 520.073 49.9201 519.709 50.3401C519.037 51.0961 518.715 51.9781 518.715 53.0001H525.687V51.5581H520.759C520.983 51.0541 521.599 50.4661 522.621 49.7941C523.601 49.1361 524.301 48.6041 524.693 48.1841C525.337 47.4701 525.673 46.6861 525.673 45.8181C525.673 44.9221 525.365 44.2081 524.749 43.6481C524.119 43.0881 523.321 42.8081 522.355 42.8081ZM526.816 43.0041V44.4881H531.926L528.342 53.0001H530.078L533.578 44.3201V43.0041H526.816ZM544.732 47.5261C543.948 47.5261 543.332 47.7921 542.912 48.3521C542.52 48.8281 542.338 49.4721 542.338 50.2701C542.338 51.0541 542.52 51.6841 542.912 52.1881C543.332 52.7201 543.948 53.0001 544.732 53.0001C545.516 53.0001 546.118 52.7201 546.538 52.1881C546.902 51.6981 547.098 51.0541 547.098 50.2701C547.098 49.4721 546.902 48.8281 546.538 48.3521C546.118 47.7921 545.516 47.5261 544.732 47.5261ZM543.304 42.8081L537.69 53.1961H538.908L544.522 42.8081H543.304ZM537.508 43.0041C536.724 43.0041 536.108 43.2701 535.688 43.8301C535.296 44.3061 535.114 44.9501 535.114 45.7481C535.114 46.5321 535.296 47.1621 535.688 47.6661C536.108 48.1981 536.724 48.4781 537.508 48.4781C538.292 48.4781 538.894 48.1981 539.314 47.6661C539.678 47.1761 539.874 46.5321 539.874 45.7481C539.874 44.9501 539.678 44.3061 539.314 43.8301C538.894 43.2701 538.292 43.0041 537.508 43.0041ZM544.732 48.5481C545.068 48.5481 545.306 48.7301 545.446 49.1081C545.558 49.3881 545.614 49.7661 545.614 50.2701C545.614 50.7461 545.558 51.1241 545.46 51.4041C545.306 51.7821 545.068 51.9781 544.732 51.9781C544.382 51.9781 544.13 51.7961 543.99 51.4321C543.878 51.1521 543.822 50.7601 543.822 50.2701C543.822 49.7661 543.878 49.3741 543.99 49.0941C544.13 48.7301 544.382 48.5481 544.732 48.5481ZM537.508 44.0261C537.844 44.0261 538.082 44.2081 538.222 44.5861C538.334 44.8661 538.39 45.2441 538.39 45.7481C538.39 46.2241 538.334 46.6021 538.236 46.8821C538.082 47.2601 537.844 47.4561 537.508 47.4561C537.158 47.4561 536.906 47.2741 536.766 46.9101C536.654 46.6301 536.598 46.2381 536.598 45.7481C536.598 45.2441 536.654 44.8521 536.766 44.5721C536.906 44.2081 537.158 44.0261 537.508 44.0261Z" fill="#98C091"/>
<path d="M522.299 10.8081C521.319 10.8081 520.507 11.0741 519.877 11.6341C519.205 12.1941 518.841 12.9781 518.757 13.9861H520.367C520.423 13.3841 520.619 12.9361 520.955 12.6421C521.277 12.3481 521.725 12.2081 522.313 12.2081C522.887 12.2081 523.321 12.3341 523.615 12.5861C523.881 12.8381 524.021 13.2021 524.021 13.6921C524.021 14.1821 523.867 14.5601 523.573 14.8121C523.265 15.0641 522.817 15.1901 522.229 15.1901H521.529V16.4221H522.229C522.873 16.4221 523.363 16.5481 523.699 16.8281C524.035 17.0941 524.217 17.5141 524.217 18.0881C524.217 18.5641 524.049 18.9561 523.727 19.2781C523.363 19.6281 522.859 19.8101 522.229 19.8101C521.655 19.8101 521.193 19.6421 520.843 19.3201C520.451 18.9701 520.255 18.4661 520.227 17.8221H518.561C518.645 18.9421 519.037 19.8101 519.737 20.3981C520.367 20.9301 521.207 21.1961 522.243 21.1961C523.335 21.1961 524.217 20.8881 524.889 20.2861C525.533 19.6981 525.855 18.9421 525.855 18.0181C525.855 17.4301 525.687 16.9401 525.351 16.5621C525.043 16.1981 524.581 15.9321 523.993 15.7501C525.099 15.3861 525.659 14.6581 525.659 13.5661C525.659 12.6981 525.351 12.0261 524.749 11.5361C524.133 11.0461 523.307 10.8081 522.299 10.8081ZM530.596 10.8081C529.42 10.8081 528.51 11.2841 527.866 12.2641C527.25 13.1881 526.942 14.4341 526.942 16.0021C526.942 17.5701 527.25 18.8161 527.866 19.7401C528.51 20.7061 529.42 21.1961 530.596 21.1961C531.758 21.1961 532.668 20.7061 533.326 19.7401C533.942 18.8161 534.25 17.5701 534.25 16.0021C534.25 14.4341 533.942 13.1881 533.326 12.2641C532.668 11.2841 531.758 10.8081 530.596 10.8081ZM530.596 12.1941C531.38 12.1941 531.94 12.6281 532.276 13.5241C532.5 14.1261 532.612 14.9521 532.612 16.0021C532.612 17.0381 532.5 17.8641 532.276 18.4801C531.94 19.3621 531.38 19.8101 530.596 19.8101C529.798 19.8101 529.238 19.3621 528.916 18.4801C528.692 17.8641 528.58 17.0381 528.58 16.0021C528.58 14.9521 528.692 14.1261 528.916 13.5241C529.238 12.6281 529.798 12.1941 530.596 12.1941ZM545.388 15.5261C544.604 15.5261 543.988 15.7921 543.568 16.3521C543.176 16.8281 542.994 17.4721 542.994 18.2701C542.994 19.0541 543.176 19.6841 543.568 20.1881C543.988 20.7201 544.604 21.0001 545.388 21.0001C546.172 21.0001 546.774 20.7201 547.194 20.1881C547.558 19.6981 547.754 19.0541 547.754 18.2701C547.754 17.4721 547.558 16.8281 547.194 16.3521C546.774 15.7921 546.172 15.5261 545.388 15.5261ZM543.96 10.8081L538.346 21.1961H539.564L545.178 10.8081H543.96ZM538.164 11.0041C537.38 11.0041 536.764 11.2701 536.344 11.8301C535.952 12.3061 535.77 12.9501 535.77 13.7481C535.77 14.5321 535.952 15.1621 536.344 15.6661C536.764 16.1981 537.38 16.4781 538.164 16.4781C538.948 16.4781 539.55 16.1981 539.97 15.6661C540.334 15.1761 540.53 14.5321 540.53 13.7481C540.53 12.9501 540.334 12.3061 539.97 11.8301C539.55 11.2701 538.948 11.0041 538.164 11.0041ZM545.388 16.5481C545.724 16.5481 545.962 16.7301 546.102 17.1081C546.214 17.3881 546.27 17.7661 546.27 18.2701C546.27 18.7461 546.214 19.1241 546.116 19.4041C545.962 19.7821 545.724 19.9781 545.388 19.9781C545.038 19.9781 544.786 19.7961 544.646 19.4321C544.534 19.1521 544.478 18.7601 544.478 18.2701C544.478 17.7661 544.534 17.3741 544.646 17.0941C544.786 16.7301 545.038 16.5481 545.388 16.5481ZM538.164 12.0261C538.5 12.0261 538.738 12.2081 538.878 12.5861C538.99 12.8661 539.046 13.2441 539.046 13.7481C539.046 14.2241 538.99 14.6021 538.892 14.8821C538.738 15.2601 538.5 15.4561 538.164 15.4561C537.814 15.4561 537.562 15.2741 537.422 14.9101C537.31 14.6301 537.254 14.2381 537.254 13.7481C537.254 13.2441 537.31 12.8521 537.422 12.5721C537.562 12.2081 537.814 12.0261 538.164 12.0261Z" fill="#98C091"/>
<path d="M522.355 74.8081C521.277 74.8081 520.409 75.1721 519.751 75.9001C519.107 76.5861 518.785 77.4821 518.771 78.6021H520.409C520.437 77.8181 520.605 77.2161 520.913 76.8241C521.221 76.4041 521.683 76.1941 522.299 76.1941C522.873 76.1941 523.307 76.3201 523.601 76.5861C523.881 76.8521 524.035 77.2581 524.035 77.8041C524.035 78.3641 523.811 78.8961 523.377 79.3861C523.097 79.6801 522.649 80.0581 522.005 80.5061C520.843 81.3041 520.073 81.9201 519.709 82.3401C519.037 83.0961 518.715 83.9781 518.715 85.0001H525.687V83.5581H520.759C520.983 83.0541 521.599 82.4661 522.621 81.7941C523.601 81.1361 524.301 80.6041 524.693 80.1841C525.337 79.4701 525.673 78.6861 525.673 77.8181C525.673 76.9221 525.365 76.2081 524.749 75.6481C524.119 75.0881 523.321 74.8081 522.355 74.8081ZM530.736 74.8081C529.574 74.8081 528.65 75.3121 527.978 76.3201C527.292 77.3281 526.956 78.6441 526.956 80.2821C526.956 81.8081 527.264 82.9981 527.908 83.8661C528.552 84.7481 529.49 85.1961 530.722 85.1961C531.716 85.1961 532.556 84.8601 533.228 84.2161C533.9 83.5721 534.25 82.7461 534.25 81.7381C534.25 80.7581 533.956 79.9461 533.368 79.3161C532.78 78.6861 531.996 78.3781 531.016 78.3781C530.512 78.3781 530.064 78.4621 529.672 78.6581C529.252 78.8541 528.902 79.1481 528.622 79.5681H528.552V79.4421C528.552 78.5181 528.734 77.7481 529.126 77.1321C529.518 76.4741 530.05 76.1521 530.722 76.1521C531.674 76.1521 532.262 76.6141 532.458 77.5381H534.054C533.802 75.7181 532.696 74.8081 530.736 74.8081ZM530.666 79.7081C531.268 79.7081 531.744 79.8901 532.108 80.2681C532.444 80.6321 532.626 81.1221 532.626 81.7381C532.626 82.3541 532.444 82.8581 532.08 83.2501C531.716 83.6421 531.254 83.8381 530.666 83.8381C530.092 83.8381 529.63 83.6561 529.266 83.2921C528.902 82.9281 528.72 82.4241 528.72 81.7941C528.72 81.1501 528.888 80.6321 529.238 80.2681C529.574 79.8901 530.05 79.7081 530.666 79.7081ZM545.388 79.5261C544.604 79.5261 543.988 79.7921 543.568 80.3521C543.176 80.8281 542.994 81.4721 542.994 82.2701C542.994 83.0541 543.176 83.6841 543.568 84.1881C543.988 84.7201 544.604 85.0001 545.388 85.0001C546.172 85.0001 546.774 84.7201 547.194 84.1881C547.558 83.6981 547.754 83.0541 547.754 82.2701C547.754 81.4721 547.558 80.8281 547.194 80.3521C546.774 79.7921 546.172 79.5261 545.388 79.5261ZM543.96 74.8081L538.346 85.1961H539.564L545.178 74.8081H543.96ZM538.164 75.0041C537.38 75.0041 536.764 75.2701 536.344 75.8301C535.952 76.3061 535.77 76.9501 535.77 77.7481C535.77 78.5321 535.952 79.1621 536.344 79.6661C536.764 80.1981 537.38 80.4781 538.164 80.4781C538.948 80.4781 539.55 80.1981 539.97 79.6661C540.334 79.1761 540.53 78.5321 540.53 77.7481C540.53 76.9501 540.334 76.3061 539.97 75.8301C539.55 75.2701 538.948 75.0041 538.164 75.0041ZM545.388 80.5481C545.724 80.5481 545.962 80.7301 546.102 81.1081C546.214 81.3881 546.27 81.7661 546.27 82.2701C546.27 82.7461 546.214 83.1241 546.116 83.4041C545.962 83.7821 545.724 83.9781 545.388 83.9781C545.038 83.9781 544.786 83.7961 544.646 83.4321C544.534 83.1521 544.478 82.7601 544.478 82.2701C544.478 81.7661 544.534 81.3741 544.646 81.0941C544.786 80.7301 545.038 80.5481 545.388 80.5481ZM538.164 76.0261C538.5 76.0261 538.738 76.2081 538.878 76.5861C538.99 76.8661 539.046 77.2441 539.046 77.7481C539.046 78.2241 538.99 78.6021 538.892 78.8821C538.738 79.2601 538.5 79.4561 538.164 79.4561C537.814 79.4561 537.562 79.2741 537.422 78.9101C537.31 78.6301 537.254 78.2381 537.254 77.7481C537.254 77.2441 537.31 76.8521 537.422 76.5721C537.562 76.2081 537.814 76.0261 538.164 76.0261Z" fill="#98C091"/>
<path d="M522.355 106.808C521.277 106.808 520.409 107.172 519.751 107.9C519.107 108.586 518.785 109.482 518.771 110.602H520.409C520.437 109.818 520.605 109.216 520.913 108.824C521.221 108.404 521.683 108.194 522.299 108.194C522.873 108.194 523.307 108.32 523.601 108.586C523.881 108.852 524.035 109.258 524.035 109.804C524.035 110.364 523.811 110.896 523.377 111.386C523.097 111.68 522.649 112.058 522.005 112.506C520.843 113.304 520.073 113.92 519.709 114.34C519.037 115.096 518.715 115.978 518.715 117H525.687V115.558H520.759C520.983 115.054 521.599 114.466 522.621 113.794C523.601 113.136 524.301 112.604 524.693 112.184C525.337 111.47 525.673 110.686 525.673 109.818C525.673 108.922 525.365 108.208 524.749 107.648C524.119 107.088 523.321 106.808 522.355 106.808ZM527.684 107.004L527.138 112.632H528.664C528.86 112.282 529.126 112.03 529.476 111.862C529.784 111.708 530.162 111.638 530.596 111.638C531.24 111.638 531.744 111.82 532.08 112.212C532.416 112.59 532.598 113.122 532.598 113.794C532.598 114.41 532.388 114.9 531.996 115.264C531.59 115.628 531.086 115.81 530.498 115.81C529.952 115.81 529.518 115.684 529.21 115.46C528.846 115.194 528.636 114.788 528.566 114.242H526.956C527.026 115.166 527.418 115.908 528.146 116.454C528.79 116.944 529.574 117.196 530.484 117.196C531.478 117.196 532.332 116.902 533.06 116.314C533.844 115.656 534.236 114.816 534.236 113.78C534.236 112.702 533.928 111.848 533.34 111.232C532.752 110.616 531.982 110.308 531.044 110.308C530.596 110.308 530.19 110.378 529.826 110.518C529.42 110.658 529.07 110.882 528.762 111.19H528.72L529 108.446H533.774V107.004H527.684ZM545.388 111.526C544.604 111.526 543.988 111.792 543.568 112.352C543.176 112.828 542.994 113.472 542.994 114.27C542.994 115.054 543.176 115.684 543.568 116.188C543.988 116.72 544.604 117 545.388 117C546.172 117 546.774 116.72 547.194 116.188C547.558 115.698 547.754 115.054 547.754 114.27C547.754 113.472 547.558 112.828 547.194 112.352C546.774 111.792 546.172 111.526 545.388 111.526ZM543.96 106.808L538.346 117.196H539.564L545.178 106.808H543.96ZM538.164 107.004C537.38 107.004 536.764 107.27 536.344 107.83C535.952 108.306 535.77 108.95 535.77 109.748C535.77 110.532 535.952 111.162 536.344 111.666C536.764 112.198 537.38 112.478 538.164 112.478C538.948 112.478 539.55 112.198 539.97 111.666C540.334 111.176 540.53 110.532 540.53 109.748C540.53 108.95 540.334 108.306 539.97 107.83C539.55 107.27 538.948 107.004 538.164 107.004ZM545.388 112.548C545.724 112.548 545.962 112.73 546.102 113.108C546.214 113.388 546.27 113.766 546.27 114.27C546.27 114.746 546.214 115.124 546.116 115.404C545.962 115.782 545.724 115.978 545.388 115.978C545.038 115.978 544.786 115.796 544.646 115.432C544.534 115.152 544.478 114.76 544.478 114.27C544.478 113.766 544.534 113.374 544.646 113.094C544.786 112.73 545.038 112.548 545.388 112.548ZM538.164 108.026C538.5 108.026 538.738 108.208 538.878 108.586C538.99 108.866 539.046 109.244 539.046 109.748C539.046 110.224 538.99 110.602 538.892 110.882C538.738 111.26 538.5 111.456 538.164 111.456C537.814 111.456 537.562 111.274 537.422 110.91C537.31 110.63 537.254 110.238 537.254 109.748C537.254 109.244 537.31 108.852 537.422 108.572C537.562 108.208 537.814 108.026 538.164 108.026Z" fill="#98C091"/>
<path d="M259.626 20.198C258.312 20.198 257.304 19.82 256.728 19.28C256.278 18.902 256.08 18.488 256.08 18.182C256.08 17.678 256.656 17.426 256.692 17.48C257.214 18.38 258.168 19.064 259.608 19.064C261.624 19.064 262.758 17.948 262.956 15.572C262.992 15.212 262.992 14.636 262.974 14.15C262.326 14.996 261.084 15.734 259.536 15.734C257.214 15.734 255.702 14.384 255.702 12.26V12.17C255.702 9.92 257.412 8.156 259.806 8.156C262.524 8.156 264.306 10.028 264.306 13.466V14.726C264.306 18.326 262.632 20.198 259.626 20.198ZM259.788 14.69C261.156 14.69 262.362 13.952 262.938 13.016V12.71C262.722 10.478 261.624 9.254 259.842 9.254C258.186 9.254 257.016 10.442 257.016 12.062V12.152C257.016 13.772 258.042 14.69 259.788 14.69ZM269.766 20.198C268.398 20.198 267.264 19.748 266.562 19.136C266.094 18.758 265.806 18.29 265.806 17.93C265.806 17.426 266.454 17.174 266.508 17.246C267.066 18.308 268.218 19.046 269.766 19.046C271.584 19.046 272.754 18.056 272.754 16.436C272.754 14.852 271.638 13.898 269.928 13.898C268.758 13.898 267.858 14.186 267.12 14.744C266.544 14.69 266.274 14.402 266.274 13.862V9.146C266.274 8.678 266.562 8.354 267.012 8.354H272.862C273.276 8.354 273.492 8.534 273.492 8.912V9.002C273.492 9.362 273.276 9.542 272.862 9.542H267.516V13.412C268.272 12.998 269.154 12.782 270.09 12.782C272.448 12.782 274.068 14.168 274.068 16.4C274.068 18.776 272.376 20.198 269.766 20.198ZM275.678 19.298C275.318 18.992 275.156 18.704 275.156 18.434C275.156 17.984 275.66 17.786 275.714 17.804C276.254 18.578 277.226 19.154 278.63 19.154C279.98 19.154 280.772 18.578 280.772 17.732C280.772 16.724 279.836 16.526 278.378 16.202C277.064 15.932 275.408 15.554 275.408 13.808C275.408 12.278 276.686 11.216 278.666 11.216C280.052 11.216 280.988 11.666 281.474 12.188C281.672 12.386 281.798 12.656 281.798 12.872C281.798 13.322 281.276 13.556 281.24 13.52C280.772 12.8 279.836 12.242 278.684 12.242C277.37 12.242 276.614 12.836 276.614 13.664C276.614 14.6 277.514 14.816 278.936 15.14C280.34 15.446 282.032 15.824 282.032 17.588C282.032 19.154 280.718 20.198 278.612 20.198C277.208 20.198 276.236 19.784 275.678 19.298Z" fill="black"/>
<path d="M258.626 54.198C257.312 54.198 256.304 53.82 255.728 53.28C255.278 52.902 255.08 52.488 255.08 52.182C255.08 51.678 255.656 51.426 255.692 51.48C256.214 52.38 257.168 53.064 258.608 53.064C260.624 53.064 261.758 51.948 261.956 49.572C261.992 49.212 261.992 48.636 261.974 48.15C261.326 48.996 260.084 49.734 258.536 49.734C256.214 49.734 254.702 48.384 254.702 46.26V46.17C254.702 43.92 256.412 42.156 258.806 42.156C261.524 42.156 263.306 44.028 263.306 47.466V48.726C263.306 52.326 261.632 54.198 258.626 54.198ZM258.788 48.69C260.156 48.69 261.362 47.952 261.938 47.016V46.71C261.722 44.478 260.624 43.254 258.842 43.254C257.186 43.254 256.016 44.442 256.016 46.062V46.152C256.016 47.772 257.042 48.69 258.788 48.69ZM269.81 54.198C266.966 54.198 265.22 52.128 265.22 48.78V47.592C265.22 44.244 266.984 42.156 269.828 42.156C272.69 42.156 274.454 44.244 274.454 47.574V48.744C274.454 52.092 272.672 54.198 269.81 54.198ZM269.828 53.046C271.88 53.046 273.086 51.48 273.086 48.798V47.574C273.086 44.892 271.862 43.29 269.828 43.29C267.794 43.29 266.588 44.874 266.588 47.538V48.78C266.588 51.462 267.812 53.046 269.828 53.046ZM276.436 53.298C276.076 52.992 275.914 52.704 275.914 52.434C275.914 51.984 276.418 51.786 276.472 51.804C277.012 52.578 277.984 53.154 279.388 53.154C280.738 53.154 281.53 52.578 281.53 51.732C281.53 50.724 280.594 50.526 279.136 50.202C277.822 49.932 276.166 49.554 276.166 47.808C276.166 46.278 277.444 45.216 279.424 45.216C280.81 45.216 281.746 45.666 282.232 46.188C282.43 46.386 282.556 46.656 282.556 46.872C282.556 47.322 282.034 47.556 281.998 47.52C281.53 46.8 280.594 46.242 279.442 46.242C278.128 46.242 277.372 46.836 277.372 47.664C277.372 48.6 278.272 48.816 279.694 49.14C281.098 49.446 282.79 49.824 282.79 51.588C282.79 53.154 281.476 54.198 279.37 54.198C277.966 54.198 276.994 53.784 276.436 53.298Z" fill="black"/>
<path d="M260.076 85.198C257.358 85.198 255.702 83.884 255.702 81.904C255.702 80.554 256.584 79.42 258.24 78.97C256.764 78.574 256.062 77.584 256.062 76.324C256.062 74.47 257.646 73.156 260.094 73.156C262.56 73.156 264.072 74.398 264.072 76.306C264.072 77.548 263.37 78.538 261.912 78.97C263.604 79.384 264.432 80.518 264.432 81.904C264.432 83.83 262.722 85.198 260.076 85.198ZM260.094 78.484C261.804 78.484 262.758 77.71 262.758 76.396C262.758 75.1 261.804 74.218 260.076 74.218C258.312 74.218 257.376 75.064 257.376 76.396C257.376 77.656 258.384 78.484 260.094 78.484ZM260.094 84.118C262.074 84.118 263.1 83.236 263.1 81.814C263.1 80.428 261.984 79.492 260.076 79.492C258.15 79.492 257.052 80.41 257.052 81.814C257.052 83.164 258.168 84.118 260.094 84.118ZM269.678 85.198C268.31 85.198 267.176 84.748 266.474 84.136C266.006 83.758 265.718 83.29 265.718 82.93C265.718 82.426 266.366 82.174 266.42 82.246C266.978 83.308 268.13 84.046 269.678 84.046C271.496 84.046 272.666 83.056 272.666 81.436C272.666 79.852 271.55 78.898 269.84 78.898C268.67 78.898 267.77 79.186 267.032 79.744C266.456 79.69 266.186 79.402 266.186 78.862V74.146C266.186 73.678 266.474 73.354 266.924 73.354H272.774C273.188 73.354 273.404 73.534 273.404 73.912V74.002C273.404 74.362 273.188 74.542 272.774 74.542H267.428V78.412C268.184 77.998 269.066 77.782 270.002 77.782C272.36 77.782 273.98 79.168 273.98 81.4C273.98 83.776 272.288 85.198 269.678 85.198ZM275.59 84.298C275.23 83.992 275.068 83.704 275.068 83.434C275.068 82.984 275.572 82.786 275.626 82.804C276.166 83.578 277.138 84.154 278.542 84.154C279.892 84.154 280.684 83.578 280.684 82.732C280.684 81.724 279.748 81.526 278.29 81.202C276.976 80.932 275.32 80.554 275.32 78.808C275.32 77.278 276.598 76.216 278.578 76.216C279.964 76.216 280.9 76.666 281.386 77.188C281.584 77.386 281.71 77.656 281.71 77.872C281.71 78.322 281.188 78.556 281.152 78.52C280.684 77.8 279.748 77.242 278.596 77.242C277.282 77.242 276.526 77.836 276.526 78.664C276.526 79.6 277.426 79.816 278.848 80.14C280.252 80.446 281.944 80.824 281.944 82.588C281.944 84.154 280.63 85.198 278.524 85.198C277.12 85.198 276.148 84.784 275.59 84.298Z" fill="black"/>
<path d="M259.076 118.198C256.358 118.198 254.702 116.884 254.702 114.904C254.702 113.554 255.584 112.42 257.24 111.97C255.764 111.574 255.062 110.584 255.062 109.324C255.062 107.47 256.646 106.156 259.094 106.156C261.56 106.156 263.072 107.398 263.072 109.306C263.072 110.548 262.37 111.538 260.912 111.97C262.604 112.384 263.432 113.518 263.432 114.904C263.432 116.83 261.722 118.198 259.076 118.198ZM259.094 111.484C260.804 111.484 261.758 110.71 261.758 109.396C261.758 108.1 260.804 107.218 259.076 107.218C257.312 107.218 256.376 108.064 256.376 109.396C256.376 110.656 257.384 111.484 259.094 111.484ZM259.094 117.118C261.074 117.118 262.1 116.236 262.1 114.814C262.1 113.428 260.984 112.492 259.076 112.492C257.15 112.492 256.052 113.41 256.052 114.814C256.052 116.164 257.168 117.118 259.094 117.118ZM269.722 118.198C266.878 118.198 265.132 116.128 265.132 112.78V111.592C265.132 108.244 266.896 106.156 269.74 106.156C272.602 106.156 274.366 108.244 274.366 111.574V112.744C274.366 116.092 272.584 118.198 269.722 118.198ZM269.74 117.046C271.792 117.046 272.998 115.48 272.998 112.798V111.574C272.998 108.892 271.774 107.29 269.74 107.29C267.706 107.29 266.5 108.874 266.5 111.538V112.78C266.5 115.462 267.724 117.046 269.74 117.046ZM276.348 117.298C275.988 116.992 275.826 116.704 275.826 116.434C275.826 115.984 276.33 115.786 276.384 115.804C276.924 116.578 277.896 117.154 279.3 117.154C280.65 117.154 281.442 116.578 281.442 115.732C281.442 114.724 280.506 114.526 279.048 114.202C277.734 113.932 276.078 113.554 276.078 111.808C276.078 110.278 277.356 109.216 279.336 109.216C280.722 109.216 281.658 109.666 282.144 110.188C282.342 110.386 282.468 110.656 282.468 110.872C282.468 111.322 281.946 111.556 281.91 111.52C281.442 110.8 280.506 110.242 279.354 110.242C278.04 110.242 277.284 110.836 277.284 111.664C277.284 112.6 278.184 112.816 279.606 113.14C281.01 113.446 282.702 113.824 282.702 115.588C282.702 117.154 281.388 118.198 279.282 118.198C277.878 118.198 276.906 117.784 276.348 117.298Z" fill="black"/>
<rect y="2" width="223" height="120" fill="#D9D9D9"/>
<path d="M67.314 58.226V48.146C67.314 47.678 67.638 47.354 68.052 47.354H70.806C74.694 47.354 76.998 49.532 76.998 53.15C76.998 56.786 74.622 59 70.698 59H68.088C67.638 59 67.314 58.658 67.314 58.226ZM70.752 57.83C73.83 57.83 75.594 56.138 75.594 53.168C75.594 50.234 73.812 48.524 70.77 48.524H68.664V57.83H70.752ZM78.8925 47.714C78.8925 47.174 79.1985 46.886 79.7205 46.886C80.2425 46.886 80.5485 47.174 80.5485 47.714C80.5485 48.236 80.2245 48.524 79.7025 48.524C79.1985 48.524 78.8925 48.236 78.8925 47.714ZM79.0545 58.442V50.972C79.0545 50.504 79.2885 50.342 79.6305 50.342H79.7745C80.1165 50.342 80.3505 50.486 80.3505 50.972V58.442C80.3505 58.91 80.1165 59.054 79.7745 59.054H79.6305C79.2885 59.054 79.0545 58.91 79.0545 58.442ZM83.5178 58.442V51.512H82.3118C81.8978 51.512 81.7538 51.332 81.7538 51.008V50.9C81.7538 50.576 81.8978 50.414 82.3118 50.414H83.5178V49.55C83.5178 47.552 84.4358 46.562 86.0198 46.562C86.7038 46.562 87.1718 46.724 87.4778 46.994C87.6758 47.156 87.7658 47.372 87.7658 47.606C87.7658 48.002 87.4778 48.218 87.4418 48.182C87.1898 47.894 86.6678 47.66 86.1458 47.66C85.2098 47.66 84.7598 48.254 84.7598 49.658V50.414H86.4158C86.8298 50.414 86.9918 50.594 86.9918 50.9V51.008C86.9918 51.332 86.8298 51.512 86.4158 51.512H84.7958V58.442C84.7958 58.892 84.5798 59.054 84.2378 59.054H84.0938C83.7518 59.054 83.5178 58.91 83.5178 58.442ZM89.3498 58.442V51.512H88.1438C87.7298 51.512 87.5858 51.332 87.5858 51.008V50.9C87.5858 50.576 87.7298 50.414 88.1438 50.414H89.3498V49.55C89.3498 47.552 90.2678 46.562 91.8518 46.562C92.5358 46.562 93.0038 46.724 93.3098 46.994C93.5078 47.156 93.5978 47.372 93.5978 47.606C93.5978 48.002 93.3098 48.218 93.2738 48.182C93.0218 47.894 92.4998 47.66 91.9778 47.66C91.0418 47.66 90.5918 48.254 90.5918 49.658V50.414H92.2478C92.6618 50.414 92.8238 50.594 92.8238 50.9V51.008C92.8238 51.332 92.6618 51.512 92.2478 51.512H90.6278V58.442C90.6278 58.892 90.4118 59.054 90.0698 59.054H89.9258C89.5838 59.054 89.3498 58.91 89.3498 58.442ZM93.4714 54.752C93.4714 52.142 95.2534 50.216 97.7194 50.216C100.113 50.216 101.661 51.908 101.661 54.446V54.572C101.661 54.878 101.535 54.986 101.211 54.986H94.7134C94.7134 55.058 94.7134 55.148 94.7314 55.238C94.8934 56.966 96.1354 58.118 97.8634 58.118C99.4654 58.118 100.221 57.362 100.653 56.534C100.725 56.498 101.391 56.642 101.391 57.218C101.391 57.488 101.175 57.902 100.707 58.28C100.167 58.748 99.1774 59.198 97.8454 59.198C95.2354 59.198 93.4714 57.38 93.4714 54.752ZM100.383 54.05C100.311 52.376 99.2854 51.26 97.7194 51.26C96.1534 51.26 94.9834 52.412 94.7494 54.05H100.383ZM106.908 50.216C107.682 50.216 108.186 50.594 108.186 51.152C108.186 51.674 107.826 51.89 107.79 51.854C107.574 51.638 107.232 51.494 106.764 51.494C105.36 51.494 104.712 52.88 104.712 55.04V58.442C104.712 58.892 104.478 59.054 104.154 59.054H104.01C103.65 59.054 103.416 58.91 103.416 58.442V50.486C103.416 50.45 103.614 50.342 103.884 50.342C104.244 50.342 104.568 50.522 104.64 51.206C104.658 51.512 104.676 51.818 104.676 52.142C105.018 50.846 105.81 50.216 106.908 50.216ZM108.624 54.752C108.624 52.142 110.406 50.216 112.872 50.216C115.266 50.216 116.814 51.908 116.814 54.446V54.572C116.814 54.878 116.688 54.986 116.364 54.986H109.866C109.866 55.058 109.866 55.148 109.884 55.238C110.046 56.966 111.288 58.118 113.016 58.118C114.618 58.118 115.374 57.362 115.806 56.534C115.878 56.498 116.544 56.642 116.544 57.218C116.544 57.488 116.328 57.902 115.86 58.28C115.32 58.748 114.33 59.198 112.998 59.198C110.388 59.198 108.624 57.38 108.624 54.752ZM115.536 54.05C115.464 52.376 114.438 51.26 112.872 51.26C111.306 51.26 110.136 52.412 109.902 54.05H115.536ZM122.78 50.216C124.994 50.216 126.074 51.746 126.074 53.942V58.442C126.074 58.91 125.84 59.054 125.516 59.054H125.354C125.012 59.054 124.778 58.91 124.778 58.442V54.05C124.778 52.394 123.986 51.368 122.528 51.368C121.268 51.368 120.332 52.07 119.864 53.096V58.442C119.864 58.91 119.63 59.054 119.306 59.054H119.144C118.802 59.054 118.568 58.91 118.568 58.442V50.486C118.568 50.45 118.784 50.342 119.036 50.342C119.432 50.342 119.792 50.54 119.828 51.422V51.926C120.404 50.9 121.412 50.216 122.78 50.216ZM131.222 59.198C129.638 59.198 128.864 58.316 128.864 56.498V51.512H128.018C127.604 51.512 127.46 51.332 127.46 51.026V50.9C127.46 50.594 127.604 50.414 128.018 50.414H128.864V48.902C128.864 48.452 129.098 48.272 129.44 48.272H129.584C129.926 48.272 130.142 48.434 130.142 48.902V50.414H132.32C132.716 50.414 132.878 50.576 132.878 50.9V51.008C132.878 51.332 132.716 51.512 132.302 51.512H130.124V56.3C130.124 57.56 130.502 58.1 131.402 58.1C131.978 58.1 132.41 57.83 132.68 57.434C132.734 57.398 133.04 57.578 133.04 58.028C133.04 58.244 132.95 58.478 132.716 58.694C132.41 58.982 131.924 59.198 131.222 59.198ZM69.996 85.78C67.314 85.78 65.982 84.988 65.982 83.44C65.982 82.18 67.224 81.298 68.79 81.01C68.484 80.83 68.25 80.56 68.25 80.146C68.25 79.768 68.466 79.444 68.772 79.228C67.458 78.814 66.594 77.734 66.594 76.402C66.594 74.62 68.07 73.216 70.068 73.216C70.824 73.216 71.544 73.432 72.102 73.81L72.75 72.838C73.002 72.406 73.29 72.28 73.596 72.316C74.01 72.37 74.244 72.784 74.226 72.892L72.804 74.404C73.272 74.926 73.578 75.592 73.578 76.348C73.578 78.094 72.102 79.426 70.086 79.426C69.924 79.426 69.78 79.426 69.618 79.408C69.438 79.534 69.402 79.696 69.402 79.876C69.42 80.452 70.284 80.542 71.742 80.902C72.984 81.208 74.316 81.82 74.316 83.206C74.316 84.808 72.732 85.78 69.996 85.78ZM70.068 78.526C71.364 78.526 72.282 77.662 72.282 76.366C72.282 75.088 71.4 74.188 70.05 74.188C68.754 74.188 67.854 75.07 67.854 76.366C67.854 77.662 68.772 78.526 70.068 78.526ZM70.032 84.844C71.922 84.844 73.056 84.304 73.056 83.296C73.056 82.504 72.156 82.144 71.166 81.892C70.806 81.802 70.446 81.73 70.104 81.64C68.574 81.766 67.242 82.414 67.242 83.422C67.242 84.34 68.214 84.844 70.032 84.844ZM74.8913 77.752C74.8913 75.142 76.6733 73.216 79.1393 73.216C81.5333 73.216 83.0813 74.908 83.0813 77.446V77.572C83.0813 77.878 82.9553 77.986 82.6313 77.986H76.1333C76.1333 78.058 76.1333 78.148 76.1513 78.238C76.3133 79.966 77.5553 81.118 79.2833 81.118C80.8853 81.118 81.6413 80.362 82.0733 79.534C82.1453 79.498 82.8113 79.642 82.8113 80.218C82.8113 80.488 82.5953 80.902 82.1273 81.28C81.5873 81.748 80.5973 82.198 79.2653 82.198C76.6553 82.198 74.8913 80.38 74.8913 77.752ZM81.8033 77.05C81.7313 75.376 80.7053 74.26 79.1393 74.26C77.5733 74.26 76.4033 75.412 76.1693 77.05H81.8033ZM89.0476 73.216C91.2616 73.216 92.3416 74.746 92.3416 76.942V81.442C92.3416 81.91 92.1076 82.054 91.7836 82.054H91.6216C91.2796 82.054 91.0456 81.91 91.0456 81.442V77.05C91.0456 75.394 90.2536 74.368 88.7956 74.368C87.5356 74.368 86.5996 75.07 86.1316 76.096V81.442C86.1316 81.91 85.8976 82.054 85.5736 82.054H85.4116C85.0696 82.054 84.8356 81.91 84.8356 81.442V73.486C84.8356 73.45 85.0516 73.342 85.3036 73.342C85.6996 73.342 86.0596 73.54 86.0956 74.422V74.926C86.6716 73.9 87.6796 73.216 89.0476 73.216ZM94.0339 77.752C94.0339 75.142 95.8159 73.216 98.2819 73.216C100.676 73.216 102.224 74.908 102.224 77.446V77.572C102.224 77.878 102.098 77.986 101.774 77.986H95.2759C95.2759 78.058 95.2759 78.148 95.2939 78.238C95.4559 79.966 96.6979 81.118 98.4259 81.118C100.028 81.118 100.784 80.362 101.216 79.534C101.288 79.498 101.954 79.642 101.954 80.218C101.954 80.488 101.738 80.902 101.27 81.28C100.73 81.748 99.7399 82.198 98.4079 82.198C95.7979 82.198 94.0339 80.38 94.0339 77.752ZM100.946 77.05C100.874 75.376 99.8479 74.26 98.2819 74.26C96.7159 74.26 95.5459 75.412 95.3119 77.05H100.946ZM107.47 73.216C108.244 73.216 108.748 73.594 108.748 74.152C108.748 74.674 108.388 74.89 108.352 74.854C108.136 74.638 107.794 74.494 107.326 74.494C105.922 74.494 105.274 75.88 105.274 78.04V81.442C105.274 81.892 105.04 82.054 104.716 82.054H104.572C104.212 82.054 103.978 81.91 103.978 81.442V73.486C103.978 73.45 104.176 73.342 104.446 73.342C104.806 73.342 105.13 73.522 105.202 74.206C105.22 74.512 105.238 74.818 105.238 75.142C105.58 73.846 106.372 73.216 107.47 73.216ZM109.467 79.786C109.467 77.842 111.303 77.014 115.353 76.96H115.551V76.6C115.551 75.142 114.705 74.332 113.229 74.332C111.861 74.332 111.033 74.998 110.601 75.862C110.565 75.88 109.809 75.844 109.809 75.196C109.809 74.944 109.989 74.566 110.331 74.242C110.889 73.702 111.879 73.216 113.301 73.216C115.587 73.216 116.829 74.494 116.829 76.618V81.928C116.829 81.982 116.595 82.072 116.361 82.072C115.983 82.072 115.677 81.892 115.605 81.244C115.587 80.992 115.569 80.722 115.569 80.452C114.993 81.496 113.823 82.18 112.383 82.18C110.583 82.18 109.467 81.244 109.467 79.786ZM115.551 78.634V77.806L115.245 77.824C112.113 77.896 110.763 78.436 110.763 79.75C110.763 80.65 111.483 81.208 112.635 81.208C114.291 81.208 115.551 80.092 115.551 78.634ZM121.871 82.198C120.287 82.198 119.513 81.316 119.513 79.498V74.512H118.667C118.253 74.512 118.109 74.332 118.109 74.026V73.9C118.109 73.594 118.253 73.414 118.667 73.414H119.513V71.902C119.513 71.452 119.747 71.272 120.089 71.272H120.233C120.575 71.272 120.791 71.434 120.791 71.902V73.414H122.969C123.365 73.414 123.527 73.576 123.527 73.9V74.008C123.527 74.332 123.365 74.512 122.951 74.512H120.773V79.3C120.773 80.56 121.151 81.1 122.051 81.1C122.627 81.1 123.059 80.83 123.329 80.434C123.383 80.398 123.689 80.578 123.689 81.028C123.689 81.244 123.599 81.478 123.365 81.694C123.059 81.982 122.573 82.198 121.871 82.198ZM125.053 70.714C125.053 70.174 125.359 69.886 125.881 69.886C126.403 69.886 126.709 70.174 126.709 70.714C126.709 71.236 126.385 71.524 125.863 71.524C125.359 71.524 125.053 71.236 125.053 70.714ZM125.215 81.442V73.972C125.215 73.504 125.449 73.342 125.791 73.342H125.935C126.277 73.342 126.511 73.486 126.511 73.972V81.442C126.511 81.91 126.277 82.054 125.935 82.054H125.791C125.449 82.054 125.215 81.91 125.215 81.442ZM128.364 77.698C128.364 75.088 130.164 73.216 132.738 73.216C135.276 73.216 137.076 75.106 137.076 77.734C137.076 80.326 135.276 82.198 132.72 82.198C130.146 82.198 128.364 80.308 128.364 77.698ZM135.816 77.734C135.816 75.754 134.538 74.314 132.738 74.314C130.938 74.314 129.624 75.718 129.624 77.698C129.624 79.678 130.938 81.1 132.738 81.1C134.52 81.1 135.816 79.696 135.816 77.734ZM143.065 73.216C145.279 73.216 146.359 74.746 146.359 76.942V81.442C146.359 81.91 146.125 82.054 145.801 82.054H145.639C145.297 82.054 145.063 81.91 145.063 81.442V77.05C145.063 75.394 144.271 74.368 142.813 74.368C141.553 74.368 140.617 75.07 140.149 76.096V81.442C140.149 81.91 139.915 82.054 139.591 82.054H139.429C139.087 82.054 138.853 81.91 138.853 81.442V73.486C138.853 73.45 139.069 73.342 139.321 73.342C139.717 73.342 140.077 73.54 140.113 74.422V74.926C140.689 73.9 141.697 73.216 143.065 73.216ZM148.465 81.298C148.105 80.992 147.943 80.704 147.943 80.434C147.943 79.984 148.447 79.786 148.501 79.804C149.041 80.578 150.013 81.154 151.417 81.154C152.767 81.154 153.559 80.578 153.559 79.732C153.559 78.724 152.623 78.526 151.165 78.202C149.851 77.932 148.195 77.554 148.195 75.808C148.195 74.278 149.473 73.216 151.453 73.216C152.839 73.216 153.775 73.666 154.261 74.188C154.459 74.386 154.585 74.656 154.585 74.872C154.585 75.322 154.063 75.556 154.027 75.52C153.559 74.8 152.623 74.242 151.471 74.242C150.157 74.242 149.401 74.836 149.401 75.664C149.401 76.6 150.301 76.816 151.723 77.14C153.127 77.446 154.819 77.824 154.819 79.588C154.819 81.154 153.505 82.198 151.399 82.198C149.995 82.198 149.023 81.784 148.465 81.298Z" fill="black"/>
</svg>
