<svg width="597" height="368" viewBox="0 0 597 368" fill="none" xmlns="http://www.w3.org/2000/svg">
<path d="M42.9316 81.5791L126.77 75.5002L214.477 81.5791L299.605 60.5791L381.416 74.7633L464.333 108.842L550.013 119.895" stroke="#F8BB2A"/>
<path d="M15.2939 50.6316C14.9254 51.1842 14.3726 51.5527 13.6356 51.9211C13.0828 52.2895 12.3457 52.4737 11.793 52.6579V54.1316C13.0828 53.7632 14.0041 53.2105 14.9254 52.2895V63.7106H16.3994V50.6316H15.2939ZM24.1383 50.2632C22.8485 50.2632 21.743 50.6316 20.8217 51.5527C20.0846 52.4737 19.5319 53.579 19.5319 55.0527H21.0059C21.0059 53.9474 21.3744 53.0263 21.743 52.4737C22.2957 51.9211 22.8485 51.5527 23.7698 51.5527C24.6911 51.5527 25.2439 51.7369 25.7967 52.2895C26.3494 52.6579 26.5337 53.3948 26.5337 54.1316C26.5337 55.0527 26.1652 55.7895 25.4282 56.5263C25.0596 56.8948 24.3226 57.4474 23.4013 58.1842C21.9272 59.1053 21.0059 60.0263 20.6374 60.579C19.7161 61.5 19.3476 62.6053 19.3476 63.8948H28.192V62.6053H21.1902C21.3744 61.6842 22.48 60.7632 24.1383 59.6579C25.4282 58.7369 26.3495 58 26.9022 57.6316C27.8235 56.7106 28.192 55.6053 28.192 54.5C28.192 53.3948 27.8235 52.4737 27.0865 51.7369C26.3494 50.6316 25.4282 50.2632 24.1383 50.2632ZM31.8772 61.5C31.5087 61.5 31.3244 61.6842 31.1402 61.8684C30.9559 62.0527 30.7717 62.4211 30.7717 62.6053C30.7717 62.9737 30.9559 63.1579 31.1402 63.3421C31.3244 63.7105 31.5087 63.7106 31.8772 63.7106C32.2457 63.7106 32.43 63.5263 32.6143 63.3421C32.7985 63.1579 32.9828 62.7895 32.9828 62.6053C32.9828 62.2369 32.7985 62.0527 32.6143 61.8684C32.43 61.6842 32.2457 61.5 31.8772 61.5ZM39.8004 50.2632C38.142 50.2632 37.0365 51 36.2995 52.2895C35.5624 53.3948 35.1939 55.0527 35.1939 57.079C35.1939 59.1053 35.5624 60.579 36.2995 61.8684C37.0365 63.3421 38.3263 63.8948 39.8004 63.8948C41.4587 63.8948 42.5643 63.1579 43.3013 61.8684C44.0383 60.7632 44.4069 59.1053 44.4069 57.079C44.4069 55.0527 44.0383 53.579 43.3013 52.2895C42.5643 51 41.4587 50.2632 39.8004 50.2632ZM39.8004 51.5527C40.9059 51.5527 41.8272 52.1053 42.38 53.3948C42.7485 54.3158 42.9328 55.4211 42.9328 57.079C42.9328 58.5527 42.7485 59.8421 42.38 60.7632C41.8272 62.0527 41.0902 62.6053 39.8004 62.6053C38.6948 62.6053 37.7735 61.8684 37.2207 60.7632C36.8522 59.8421 36.668 58.7369 36.668 57.079C36.668 55.6053 36.8522 54.3158 37.2207 53.3948C37.7735 52.2895 38.6948 51.5527 39.8004 51.5527ZM50.8559 50.2632C49.3819 50.2632 48.4606 50.6316 47.5393 51.3684C46.8022 52.1053 46.4337 52.8421 46.4337 53.7632C46.4337 54.5 46.618 55.0527 46.9865 55.6053C47.355 56.1579 47.9078 56.5263 48.6448 56.7106C47.9078 56.8948 47.355 57.2632 46.8022 57.8158C46.2494 58.3684 46.0652 59.1053 46.0652 60.0263C46.0652 61.1316 46.4337 62.0527 47.355 62.7895C48.092 63.5263 49.3819 63.8948 50.8559 63.8948C52.33 63.8948 53.6198 63.5263 54.3569 62.7895C55.0939 62.0527 55.6467 61.1316 55.6467 60.0263C55.6467 59.1053 55.4624 58.3684 54.9096 57.8158C54.3569 57.2632 53.8041 56.8948 53.067 56.7106C53.8041 56.5263 54.1726 56.1579 54.7254 55.6053C55.0939 55.0527 55.2782 54.5 55.2782 53.7632C55.2782 52.8421 54.9096 51.9211 54.1726 51.3684C53.4356 50.6316 52.33 50.2632 50.8559 50.2632ZM50.8559 51.5527C51.7772 51.5527 52.5143 51.7369 53.067 52.2895C53.4356 52.6579 53.8041 53.2106 53.8041 53.9474C53.8041 54.6842 53.6198 55.2369 53.2513 55.6053C52.6985 56.1579 51.9615 56.3421 51.0402 56.3421C49.9346 56.3421 49.1976 56.1579 48.8291 55.6053C48.4606 55.2369 48.2763 54.6842 48.2763 53.9474C48.2763 53.3948 48.4606 52.8421 49.0133 52.2895C49.1976 51.7369 49.9346 51.5527 50.8559 51.5527ZM50.8559 57.4474C51.9615 57.4474 52.6985 57.6316 53.2513 58.1842C53.8041 58.7369 53.9883 59.2895 53.9883 60.0263C53.9883 60.7632 53.8041 61.5 53.2513 61.8684C52.6985 62.4211 51.7772 62.6053 50.8559 62.6053C49.7504 62.6053 49.0133 62.4211 48.4606 61.8684C47.9078 61.3158 47.7235 60.7632 47.7235 60.0263C47.7235 59.2895 47.9078 58.5527 48.4606 58.1842C49.0133 57.6316 49.9346 57.4474 50.8559 57.4474ZM66.518 50.2632L59.1476 63.8948H60.2532L67.6235 50.2632H66.518ZM59.5161 50.6316C58.5948 50.6316 57.6735 51 57.305 51.7369C56.7522 52.2895 56.568 53.2105 56.568 54.3158C56.568 55.4211 56.7522 56.1579 57.305 56.8948C57.8578 57.6316 58.5948 58 59.5161 58C60.4374 58 61.1744 57.6316 61.7272 56.8948C62.0957 56.1579 62.4643 55.4211 62.4643 54.3158C62.4643 53.2105 62.28 52.4737 61.7272 51.7369C61.3587 50.8158 60.6217 50.6316 59.5161 50.6316ZM59.5161 51.5527C60.0689 51.5527 60.4374 51.7369 60.8059 52.2895C60.9902 52.6579 61.1744 53.3948 61.1744 54.1316C61.1744 54.8684 60.9902 55.4211 60.8059 55.9737C60.4374 56.5263 60.0689 56.7106 59.5161 56.7106C58.9633 56.7106 58.5948 56.5263 58.2263 55.9737C58.042 55.6053 57.8578 54.8684 57.8578 54.1316C57.8578 53.3948 58.042 52.6579 58.2263 52.2895C58.5948 51.7369 58.9633 51.5527 59.5161 51.5527ZM67.4393 56.5263C66.518 56.5263 65.5967 56.8948 65.2282 57.6316C64.6754 58.1842 64.4911 59.1053 64.4911 60.0263C64.4911 61.1316 64.6754 61.8684 65.2282 62.6053C65.7809 63.3421 66.518 63.7106 67.4393 63.7106C68.3606 63.7106 69.0976 63.3421 69.6504 62.6053C70.0189 61.8684 70.3874 61.1316 70.3874 60.0263C70.3874 58.9211 70.2031 58.1842 69.6504 57.4474C69.0976 56.8948 68.3606 56.5263 67.4393 56.5263ZM67.4393 57.4474C67.992 57.4474 68.3606 57.6316 68.7291 58.1842C68.9133 58.5527 69.0976 59.2895 69.0976 60.0263C69.0976 60.7632 68.9133 61.3158 68.7291 61.8684C68.5448 62.4211 67.992 62.6053 67.4393 62.6053C66.8865 62.6053 66.518 62.4211 66.1495 61.8684C65.9652 61.5 65.7809 60.7632 65.7809 60.0263C65.7809 59.2895 65.9652 58.5527 66.1495 58.1842C66.3337 57.8158 66.8865 57.4474 67.4393 57.4474ZM74.2568 56.5263C73.3356 56.5263 72.5985 56.8948 72.0457 57.6316C71.493 58.1842 71.3087 59.1053 71.3087 60.2106C71.3087 61.3158 71.493 62.0527 72.0457 62.7895C72.5985 63.5263 73.3356 63.8948 74.2568 63.8948C75.1781 63.8948 76.0994 63.5263 76.468 62.7895C76.8365 62.0527 77.205 61.3158 77.205 60.2106C77.205 59.1053 77.0207 58.3684 76.468 57.6316C75.9152 56.8948 75.1781 56.5263 74.2568 56.5263ZM74.2568 57.4474C74.8096 57.4474 75.1781 57.6316 75.5467 58.1842C75.7309 58.5527 75.9152 59.2895 75.9152 60.0263C75.9152 60.7632 75.7309 61.3158 75.5467 61.8684C75.1781 62.4211 74.8096 62.6053 74.2568 62.6053C73.7041 62.6053 73.3356 62.4211 72.967 61.8684C72.7828 61.5 72.5985 60.7632 72.5985 60.0263C72.5985 59.2895 72.7828 58.5527 72.967 58.1842C73.3356 57.8158 73.7041 57.4474 74.2568 57.4474Z" fill="#F8BB2A"/>
<path d="M101.895 46.9475C101.527 47.5002 100.974 47.8686 100.237 48.237C99.6843 48.6054 98.9473 48.7896 98.3945 48.9738V50.4475C99.6843 50.0791 100.606 49.5265 101.527 48.6054V60.0265H103.001V46.9475H101.895ZM110.74 46.5791C109.45 46.5791 108.345 46.9475 107.423 47.8686C106.686 48.7896 106.133 49.8949 106.133 51.3686H107.607C107.607 50.2633 107.976 49.3423 108.345 48.7896C108.897 48.237 109.45 47.8686 110.371 47.8686C111.293 47.8686 111.845 48.0528 112.398 48.6054C112.951 48.9738 113.135 49.7107 113.135 50.4475C113.135 51.3686 112.767 52.1054 112.03 52.8423C111.661 53.2107 110.924 53.7633 110.003 54.5002C108.529 55.4212 107.607 56.3423 107.239 56.8949C106.318 57.8159 105.949 58.9212 105.949 60.2107H114.794V58.9212H107.792C107.976 58.0002 109.082 57.0791 110.74 55.9738C112.03 55.0528 112.951 54.3159 113.504 53.9475C114.425 53.0265 114.794 51.9212 114.794 50.8159C114.794 49.7107 114.425 48.7896 113.688 48.0528C112.951 46.9475 112.03 46.5791 110.74 46.5791ZM118.479 57.8159C118.11 57.8159 117.926 58.0002 117.742 58.1844C117.557 58.3686 117.373 58.737 117.373 58.9212C117.373 59.2896 117.557 59.4738 117.742 59.658C117.926 60.0265 118.11 60.0265 118.479 60.0265C118.847 60.0265 119.032 59.8423 119.216 59.658C119.4 59.4738 119.584 59.1054 119.584 58.9212C119.584 58.5528 119.4 58.3686 119.216 58.1844C119.032 58.0002 118.847 57.8159 118.479 57.8159ZM126.586 46.5791C125.296 46.5791 124.375 46.9475 123.454 47.6844C122.717 48.4212 122.164 49.3423 121.98 50.6317H123.454C123.454 49.7107 123.822 48.9738 124.375 48.6054C124.928 48.0528 125.481 47.8686 126.402 47.8686C127.323 47.8686 127.876 48.0528 128.429 48.4212C128.797 48.7896 129.166 49.3423 129.166 50.0791C129.166 50.8159 128.982 51.3686 128.429 51.737C128.06 52.1054 127.323 52.2896 126.402 52.2896H125.296V53.3949H126.402C127.323 53.3949 128.06 53.5791 128.613 54.1317C129.166 54.5002 129.35 55.237 129.35 55.9738C129.35 56.7107 128.982 57.4475 128.613 57.8159C128.06 58.3686 127.323 58.5528 126.402 58.5528C125.665 58.5528 124.928 58.3686 124.375 57.8159C123.822 57.2633 123.454 56.5265 123.27 55.4212H121.795C121.98 56.8949 122.348 58.0002 123.27 58.737C124.007 59.2896 125.112 59.658 126.402 59.658C127.692 59.658 128.797 59.2896 129.719 58.5528C130.456 57.8159 131.008 56.8949 131.008 55.6054C131.008 54.8686 130.824 54.1317 130.271 53.7633C129.903 53.2107 129.35 52.8423 128.429 52.658C129.903 52.1054 130.64 51.1844 130.64 49.7107C130.64 48.6054 130.271 47.6844 129.534 47.1317C128.982 46.9475 127.876 46.5791 126.586 46.5791ZM132.667 46.9475V48.4212H139.853L134.878 60.0265H136.352L141.143 48.0528V46.7633H132.667V46.9475ZM152.198 46.5791L144.828 60.2107H145.933L153.304 46.5791H152.198ZM145.196 46.9475C144.275 46.9475 143.538 47.3159 142.985 48.0528C142.432 48.6054 142.248 49.5265 142.248 50.6317C142.248 51.737 142.432 52.4738 142.985 53.2107C143.538 53.9475 144.275 54.3159 145.196 54.3159C146.118 54.3159 146.855 53.9475 147.407 53.2107C147.776 52.4738 148.145 51.737 148.145 50.6317C148.145 49.5265 147.96 48.7896 147.407 48.0528C147.039 47.1317 146.302 46.9475 145.196 46.9475ZM145.196 47.8686C145.749 47.8686 146.118 48.0528 146.486 48.6054C146.67 48.9738 146.855 49.7107 146.855 50.4475C146.855 51.1844 146.67 51.737 146.486 52.2896C146.118 52.8423 145.749 53.0265 145.196 53.0265C144.644 53.0265 144.275 52.8423 143.907 52.2896C143.722 51.9212 143.538 51.1844 143.538 50.4475C143.538 49.7107 143.722 48.9738 143.907 48.6054C144.275 48.0528 144.644 47.8686 145.196 47.8686ZM153.12 52.8423C152.198 52.8423 151.461 53.2107 150.908 53.9475C150.356 54.5002 150.171 55.4212 150.171 56.5265C150.171 57.6317 150.356 58.3686 150.908 59.1054C151.461 59.8423 152.198 60.2107 153.12 60.2107C154.041 60.2107 154.778 59.8423 155.331 59.1054C155.699 58.3686 156.068 57.6317 156.068 56.5265C156.068 55.4212 155.883 54.6844 155.331 53.9475C154.778 53.2107 154.041 52.8423 153.12 52.8423ZM153.12 53.7633C153.672 53.7633 154.041 53.9475 154.409 54.5002C154.594 54.8686 154.778 55.6054 154.778 56.3423C154.778 57.0791 154.594 57.6317 154.409 58.1844C154.041 58.737 153.672 58.9212 153.12 58.9212C152.567 58.9212 152.198 58.737 151.83 58.1844C151.645 57.8159 151.461 57.0791 151.461 56.3423C151.461 55.6054 151.645 54.8686 151.83 54.5002C152.014 54.1317 152.382 53.7633 153.12 53.7633ZM159.937 52.8423C159.016 52.8423 158.279 53.2107 157.726 53.9475C157.173 54.5002 156.989 55.4212 156.989 56.5265C156.989 57.6317 157.173 58.3686 157.726 59.1054C158.279 59.8423 159.016 60.2107 159.937 60.2107C160.858 60.2107 161.78 59.8423 162.148 59.1054C162.517 58.3686 162.885 57.6317 162.885 56.5265C162.885 55.4212 162.701 54.6844 162.148 53.9475C161.595 53.2107 160.858 52.8423 159.937 52.8423ZM159.937 53.7633C160.49 53.7633 160.858 53.9475 161.227 54.5002C161.411 54.8686 161.595 55.6054 161.595 56.3423C161.595 57.0791 161.411 57.6317 161.227 58.1844C160.858 58.737 160.49 58.9212 159.937 58.9212C159.384 58.9212 159.016 58.737 158.647 58.1844C158.463 57.8159 158.279 57.0791 158.279 56.3423C158.279 55.6054 158.463 54.8686 158.647 54.5002C158.832 54.1317 159.384 53.7633 159.937 53.7633Z" fill="#F8BB2A"/>
<path d="M186.655 52.4736C186.287 53.0263 185.734 53.3947 184.997 53.7631C184.444 54.1315 183.707 54.3157 183.154 54.5V55.9736C184.444 55.6052 185.365 55.0526 186.287 54.1315V65.5526H187.761V52.4736H186.655ZM195.5 52.1052C194.21 52.1052 193.104 52.4736 192.183 53.3947C191.446 54.3157 190.893 55.421 190.893 56.8947H192.367C192.367 55.7894 192.736 54.8684 193.104 54.3157C193.657 53.7631 194.21 53.3947 195.131 53.3947C196.052 53.3947 196.605 53.5789 197.158 54.1315C197.711 54.5 197.895 55.2368 197.895 55.9736C197.895 56.8947 197.527 57.6315 196.789 58.3684C196.421 58.7368 195.684 59.2894 194.763 60.0263C193.289 60.9473 192.367 61.8684 191.999 62.421C191.077 63.3421 190.709 64.4473 190.709 65.7368H199.553V64.4473H192.552C192.736 63.5263 193.841 62.6052 195.5 61.5C196.789 60.5789 197.711 59.8421 198.264 59.4736C199.185 58.5526 199.553 57.4473 199.553 56.3421C199.553 55.2368 199.185 54.3157 198.448 53.5789C197.711 52.4736 196.789 52.1052 195.5 52.1052ZM203.239 63.3421C202.87 63.3421 202.686 63.5263 202.502 63.7105C202.317 63.8947 202.133 64.2631 202.133 64.4473C202.133 64.8157 202.317 65 202.502 65.1842C202.686 65.3684 202.87 65.5526 203.239 65.5526C203.607 65.5526 203.791 65.3684 203.976 65.1842C204.16 65 204.344 64.6315 204.344 64.4473C204.344 64.0789 204.16 63.8947 203.976 63.7105C203.791 63.5263 203.607 63.3421 203.239 63.3421ZM211.162 52.1052C209.503 52.1052 208.398 52.8421 207.661 54.1315C206.924 55.2368 206.555 56.8947 206.555 58.921C206.555 60.9473 206.924 62.421 207.661 63.7105C208.398 65.1842 209.688 65.7368 211.162 65.7368C212.636 65.7368 213.926 65 214.663 63.7105C215.4 62.6052 215.768 60.9473 215.768 58.921C215.768 56.8947 215.4 55.421 214.663 54.1315C213.926 52.8421 212.82 52.1052 211.162 52.1052ZM211.162 53.3947C212.267 53.3947 213.189 53.9473 213.741 55.2368C214.11 56.1579 214.294 57.2631 214.294 58.921C214.294 60.3947 214.11 61.6842 213.741 62.6052C213.189 63.8947 212.452 64.4473 211.162 64.4473C210.056 64.4473 209.135 63.7105 208.582 62.6052C208.214 61.6842 208.029 60.5789 208.029 58.921C208.029 57.4473 208.214 56.1579 208.582 55.2368C209.135 54.1315 210.056 53.3947 211.162 53.3947ZM217.427 52.4736V53.9473H224.428L219.453 65.7368H221.112L225.902 53.7631V52.4736H217.427ZM236.958 52.1052L229.588 65.7368H230.693L238.064 52.1052H236.958ZM229.956 52.4736C229.035 52.4736 228.298 52.8421 227.745 53.5789C227.192 54.1315 227.008 55.0526 227.008 56.1579C227.008 57.2631 227.192 58 227.745 58.7368C228.298 59.4736 229.035 59.8421 229.956 59.8421C230.877 59.8421 231.614 59.4736 232.167 58.7368C232.536 58 232.904 57.2631 232.904 56.1579C232.904 55.0526 232.72 54.3157 232.167 53.5789C231.799 52.6579 231.062 52.4736 229.956 52.4736ZM229.956 53.3947C230.509 53.3947 230.877 53.5789 231.246 54.1315C231.43 54.5 231.614 55.2368 231.614 55.9736C231.614 56.7105 231.43 57.2631 231.246 57.8157C231.062 58.3684 230.509 58.5526 229.956 58.5526C229.403 58.5526 229.035 58.3684 228.666 57.8157C228.482 57.4473 228.298 56.7105 228.298 55.9736C228.298 55.2368 228.482 54.5 228.666 54.1315C229.035 53.5789 229.403 53.3947 229.956 53.3947ZM237.879 58.3684C236.958 58.3684 236.221 58.7368 235.668 59.4736C235.115 60.0263 234.931 60.9473 234.931 62.0526C234.931 63.1579 235.115 63.8947 235.668 64.6315C236.221 65.3684 236.958 65.7368 237.879 65.7368C238.801 65.7368 239.538 65.3684 240.09 64.6315C240.459 63.8947 240.827 63.1579 240.827 62.0526C240.827 60.9473 240.643 60.2105 240.09 59.4736C239.538 58.7368 238.801 58.3684 237.879 58.3684ZM237.879 59.2894C238.432 59.2894 238.801 59.4736 239.169 60.0263C239.353 60.3947 239.538 61.1315 239.538 61.8684C239.538 62.6052 239.353 63.1579 239.169 63.7105C238.985 64.2631 238.432 64.4473 237.879 64.4473C237.327 64.4473 236.958 64.2631 236.589 63.7105C236.405 63.3421 236.221 62.6052 236.221 61.8684C236.221 61.1315 236.405 60.3947 236.589 60.0263C236.774 59.6579 237.142 59.2894 237.879 59.2894ZM244.697 58.3684C243.776 58.3684 243.039 58.7368 242.486 59.4736C241.933 60.0263 241.749 60.9473 241.749 62.0526C241.749 63.1579 241.933 63.8947 242.486 64.6315C243.039 65.3684 243.776 65.7368 244.697 65.7368C245.618 65.7368 246.355 65.3684 246.908 64.6315C247.277 63.8947 247.645 63.1579 247.645 62.0526C247.645 60.9473 247.461 60.2105 246.908 59.4736C246.355 58.7368 245.618 58.3684 244.697 58.3684ZM244.697 59.2894C245.25 59.2894 245.618 59.4736 245.987 60.0263C246.171 60.3947 246.355 61.1315 246.355 61.8684C246.355 62.6052 246.171 63.1579 245.987 63.7105C245.618 64.2631 245.25 64.4473 244.697 64.4473C244.144 64.4473 243.776 64.2631 243.407 63.7105C243.223 63.3421 243.039 62.6052 243.039 61.8684C243.039 61.1315 243.223 60.3947 243.407 60.0263C243.591 59.6579 244.144 59.2894 244.697 59.2894Z" fill="#F8BB2A"/>
<path d="M275.099 30.3684C274.73 30.9211 274.177 31.2895 273.44 31.6579C272.887 32.0263 272.15 32.2105 271.598 32.3947V33.8684C272.887 33.5 273.809 32.9474 274.73 32.0263V43.4474H276.204V30.3684H275.099ZM283.943 30C282.653 30 281.548 30.3684 280.626 31.2895C279.889 32.2105 279.337 33.3158 279.337 34.7895H280.811C280.811 33.6842 281.179 32.7632 281.548 32.2105C282.1 31.6579 282.653 31.2895 283.575 31.2895C284.496 31.2895 285.049 31.4737 285.601 32.0263C286.154 32.3947 286.338 33.1316 286.338 33.8684C286.338 34.7895 285.97 35.5263 285.417 36.2632C285.049 36.6316 284.312 37.1842 283.39 37.9211C281.916 38.8421 280.995 39.5789 280.442 40.3158C279.521 41.2368 279.152 42.3421 279.152 43.6316H287.997V42.3421H280.995C281.179 41.4211 282.285 40.5 283.943 39.3947C285.233 38.4737 286.154 37.7368 286.707 37.1842C287.628 36.2632 287.997 35.1579 287.997 34.0526C287.997 32.9474 287.628 32.0263 286.891 31.2895C286.154 30.3684 285.233 30 283.943 30ZM291.682 41.2368C291.313 41.2368 291.129 41.4211 290.945 41.6053C290.761 41.7895 290.576 42.1579 290.576 42.3421C290.576 42.7105 290.761 42.8947 290.945 43.0789C291.129 43.2632 291.313 43.4474 291.682 43.4474C292.05 43.4474 292.235 43.2632 292.419 43.0789C292.603 42.8947 292.787 42.5263 292.787 42.3421C292.787 41.9737 292.603 41.7895 292.419 41.6053C292.235 41.4211 292.05 41.2368 291.682 41.2368ZM299.605 30C298.315 30 297.21 30.3684 296.473 31.2895C295.551 32.2105 295.183 33.1316 295.183 34.6053C295.183 35.8947 295.551 36.8158 296.288 37.7368C297.025 38.4737 298.131 39.0263 299.421 39.0263C300.158 39.0263 300.895 38.8421 301.448 38.4737C302 38.1053 302.553 37.5526 302.922 36.8158C302.922 37 302.922 37.1842 302.922 37.3684C302.922 38.8421 302.553 40.1316 302 41.0526C301.448 42.1579 300.526 42.5263 299.605 42.5263C298.131 42.5263 297.21 41.7895 296.841 40.3158H295.367C295.736 42.7105 297.025 43.8158 299.605 43.8158C301.079 43.8158 302.185 43.0789 303.106 41.7895C303.843 40.5 304.396 38.8421 304.396 36.6316C304.396 34.6053 304.027 32.9474 303.29 31.8421C302.369 30.5526 301.079 30 299.605 30ZM299.605 31.2895C300.526 31.2895 301.263 31.6579 301.816 32.2105C302.369 32.7632 302.553 33.5 302.553 34.4211C302.553 35.3421 302.185 36.0789 301.632 36.6316C301.079 37.1842 300.342 37.5526 299.421 37.5526C298.5 37.5526 297.762 37.1842 297.21 36.6316C296.657 36.0789 296.473 35.3421 296.473 34.4211C296.473 33.5 296.657 32.7632 297.21 32.0263C297.947 31.6579 298.684 31.2895 299.605 31.2895ZM307.16 30.3684L306.423 37.5526H307.897C308.081 37 308.634 36.6316 309.002 36.4474C309.555 36.2632 310.108 36.0789 310.661 36.0789C311.582 36.0789 312.319 36.2632 312.872 37C313.425 37.5526 313.793 38.4737 313.793 39.3947C313.793 40.3158 313.425 41.0526 312.872 41.6053C312.319 42.1579 311.582 42.5263 310.661 42.5263C309.924 42.5263 309.187 42.3421 308.634 41.9737C308.081 41.6053 307.712 40.8684 307.712 40.1316H306.238C306.423 41.2368 306.791 42.3421 307.712 43.0789C308.45 43.6316 309.555 44 310.661 44C311.95 44 313.056 43.6316 313.977 42.7105C314.899 41.7895 315.451 40.6842 315.451 39.3947C315.451 37.9211 315.083 36.8158 314.346 36.0789C313.609 35.3421 312.503 34.9737 311.398 34.9737C310.845 34.9737 310.292 34.9737 309.739 35.3421C309.187 35.5263 308.634 35.8947 308.265 36.2632L308.634 31.8421H315.083V30.3684H307.16ZM326.323 30L318.952 43.6316H320.058L327.428 30H326.323ZM319.321 30.3684C318.4 30.3684 317.662 30.7368 317.11 31.4737C316.557 32.0263 316.373 32.9474 316.373 34.0526C316.373 35.1579 316.557 35.8947 317.11 36.6316C317.662 37.3684 318.4 37.7368 319.321 37.7368C320.242 37.7368 320.979 37.3684 321.532 36.6316C321.9 35.8947 322.269 35.1579 322.269 34.0526C322.269 32.9474 322.085 32.2105 321.532 31.4737C321.163 30.7368 320.426 30.3684 319.321 30.3684ZM319.321 31.2895C319.874 31.2895 320.242 31.4737 320.611 32.0263C320.795 32.3947 320.979 33.1316 320.979 33.8684C320.979 34.6053 320.795 35.1579 320.611 35.7105C320.426 36.2632 319.874 36.4474 319.321 36.4474C318.768 36.4474 318.4 36.2632 318.031 35.7105C317.847 35.3421 317.662 34.6053 317.662 33.8684C317.662 33.1316 317.847 32.3947 318.031 32.0263C318.4 31.4737 318.768 31.2895 319.321 31.2895ZM327.244 36.2632C326.323 36.2632 325.586 36.6316 325.033 37.3684C324.48 37.9211 324.296 38.8421 324.296 39.9474C324.296 41.0526 324.48 41.7895 325.033 42.5263C325.586 43.2632 326.323 43.6316 327.244 43.6316C328.165 43.6316 328.902 43.2632 329.455 42.5263C329.824 41.7895 330.192 41.0526 330.192 39.9474C330.192 38.8421 330.008 38.1053 329.455 37.3684C328.902 36.6316 328.165 36.2632 327.244 36.2632ZM327.244 37.1842C327.797 37.1842 328.165 37.3684 328.534 37.9211C328.718 38.2895 328.902 39.0263 328.902 39.7632C328.902 40.5 328.718 41.0526 328.534 41.6053C328.35 42.1579 327.797 42.3421 327.244 42.3421C326.691 42.3421 326.323 42.1579 325.954 41.6053C325.77 41.2368 325.586 40.5 325.586 39.7632C325.586 39.0263 325.77 38.2895 325.954 37.9211C326.138 37.5526 326.691 37.1842 327.244 37.1842ZM334.062 36.2632C333.14 36.2632 332.403 36.6316 331.85 37.3684C331.298 37.9211 331.113 38.8421 331.113 39.9474C331.113 41.0526 331.298 41.7895 331.85 42.5263C332.403 43.2632 333.14 43.6316 334.062 43.6316C334.983 43.6316 335.72 43.2632 336.273 42.5263C336.641 41.7895 337.01 41.0526 337.01 39.9474C337.01 38.8421 336.825 38.1053 336.273 37.3684C335.72 36.6316 334.983 36.2632 334.062 36.2632ZM334.062 37.1842C334.614 37.1842 334.983 37.3684 335.351 37.9211C335.536 38.2895 335.72 39.0263 335.72 39.7632C335.72 40.5 335.536 41.0526 335.351 41.6053C334.983 42.1579 334.614 42.3421 334.062 42.3421C333.509 42.3421 333.14 42.1579 332.772 41.6053C332.587 41.2368 332.403 40.5 332.403 39.7632C332.403 39.0263 332.587 38.2895 332.772 37.9211C333.14 37.5526 333.509 37.1842 334.062 37.1842Z" fill="#F8BB2A"/>
<path d="M358.017 46.9475C357.648 47.5002 357.095 47.8686 356.358 48.237C355.805 48.6054 355.068 48.7896 354.516 48.9738V50.4475C355.805 50.0791 356.727 49.5265 357.648 48.6054V60.0265H359.122V46.9475H358.017ZM366.861 46.5791C365.571 46.5791 364.466 46.9475 363.544 47.8686C362.807 48.7896 362.255 49.8949 362.255 51.3686H363.729C363.729 50.2633 364.097 49.3423 364.466 48.7896C365.018 48.237 365.571 47.8686 366.492 47.8686C367.414 47.8686 367.967 48.0528 368.519 48.6054C369.072 48.9738 369.256 49.7107 369.256 50.4475C369.256 51.3686 368.888 52.1054 368.335 52.8423C367.967 53.2107 367.23 53.7633 366.308 54.5002C364.834 55.4212 363.913 56.3423 363.36 56.8949C362.439 57.8159 362.07 58.9212 362.07 60.2107H370.915V58.9212H363.913C364.097 58.0002 365.203 57.0791 366.861 55.9738C368.151 55.0528 369.072 54.3159 369.625 53.9475C370.546 53.0265 370.915 51.9212 370.915 50.8159C370.915 49.7107 370.546 48.7896 369.809 48.0528C369.072 46.9475 368.151 46.5791 366.861 46.5791ZM374.6 57.8159C374.231 57.8159 374.047 58.0002 373.863 58.1844C373.679 58.3686 373.494 58.737 373.494 58.9212C373.494 59.2896 373.679 59.4738 373.863 59.658C374.047 59.8423 374.231 60.0265 374.6 60.0265C374.968 60.0265 375.153 59.8423 375.337 59.658C375.521 59.4738 375.705 59.1054 375.705 58.9212C375.705 58.5528 375.521 58.3686 375.337 58.1844C375.153 58.0002 374.968 57.8159 374.6 57.8159ZM384.181 46.9475L377.548 55.6054V57.0791H384.181V60.0265H385.655V57.0791H387.867V55.7896H385.655V46.9475H384.181ZM383.997 48.7896V55.7896H378.654L383.997 48.7896ZM393.763 46.5791C392.473 46.5791 391.552 46.9475 390.815 47.6844C390.078 48.4212 389.525 49.3423 389.341 50.6317H390.815C390.815 49.7107 391.183 48.9738 391.736 48.6054C392.289 48.0528 392.842 47.8686 393.763 47.8686C394.684 47.8686 395.237 48.0528 395.79 48.4212C396.158 48.7896 396.527 49.3423 396.527 50.0791C396.527 50.8159 396.342 51.3686 395.79 51.737C395.421 52.1054 394.684 52.2896 393.763 52.2896H392.657V53.3949H393.763C394.684 53.3949 395.421 53.5791 395.974 54.1317C396.527 54.5002 396.711 55.237 396.711 55.9738C396.711 56.7107 396.527 57.4475 395.974 57.8159C395.421 58.3686 394.684 58.5528 393.763 58.5528C393.026 58.5528 392.289 58.3686 391.736 57.8159C390.999 57.2633 390.815 56.5265 390.63 55.4212H389.156C389.341 56.8949 389.709 58.0002 390.815 58.737C391.552 59.2896 392.657 59.658 393.947 59.658C395.237 59.658 396.342 59.2896 397.264 58.5528C398.001 57.8159 398.554 56.8949 398.554 55.6054C398.554 54.8686 398.369 54.1317 397.817 53.7633C397.448 53.2107 396.895 52.8423 395.974 52.658C397.448 52.1054 398.185 51.1844 398.185 49.7107C398.185 48.6054 397.817 47.6844 397.08 47.1317C396.158 46.9475 395.053 46.5791 393.763 46.5791ZM409.241 46.5791L401.87 60.2107H402.976L410.346 46.5791H409.241ZM402.239 46.9475C401.317 46.9475 400.58 47.3159 400.028 48.0528C399.475 48.6054 399.291 49.5265 399.291 50.6317C399.291 51.737 399.475 52.4738 400.028 53.2107C400.58 53.9475 401.317 54.3159 402.239 54.3159C403.16 54.3159 403.897 53.9475 404.45 53.2107C404.818 52.4738 405.187 51.737 405.187 50.6317C405.187 49.5265 405.003 48.7896 404.45 48.0528C404.081 47.1317 403.344 46.9475 402.239 46.9475ZM402.239 47.8686C402.792 47.8686 403.16 48.0528 403.529 48.6054C403.713 48.9738 403.897 49.7107 403.897 50.4475C403.897 51.1844 403.713 51.737 403.529 52.2896C403.344 52.8423 402.792 53.0265 402.239 53.0265C401.686 53.0265 401.317 52.8423 400.949 52.2896C400.765 51.9212 400.58 51.1844 400.58 50.4475C400.58 49.7107 400.765 48.9738 400.949 48.6054C401.317 48.0528 401.686 47.8686 402.239 47.8686ZM410.162 52.8423C409.241 52.8423 408.504 53.2107 407.951 53.9475C407.398 54.5002 407.214 55.4212 407.214 56.5265C407.214 57.6317 407.398 58.3686 407.951 59.1054C408.504 59.8423 409.241 60.2107 410.162 60.2107C411.083 60.2107 411.82 59.8423 412.373 59.1054C412.742 58.3686 413.11 57.6317 413.11 56.5265C413.11 55.4212 412.926 54.6844 412.373 53.9475C411.82 53.2107 411.083 52.8423 410.162 52.8423ZM410.162 53.7633C410.715 53.7633 411.083 53.9475 411.452 54.5002C411.636 54.8686 411.82 55.6054 411.82 56.3423C411.82 57.0791 411.636 57.6317 411.452 58.1844C411.267 58.737 410.715 58.9212 410.162 58.9212C409.609 58.9212 409.241 58.737 408.872 58.1844C408.688 57.8159 408.504 57.0791 408.504 56.3423C408.504 55.6054 408.688 54.8686 408.872 54.5002C409.056 54.1317 409.609 53.7633 410.162 53.7633ZM416.98 52.8423C416.058 52.8423 415.321 53.2107 414.768 53.9475C414.216 54.5002 414.031 55.4212 414.031 56.5265C414.031 57.6317 414.216 58.3686 414.768 59.1054C415.321 59.8423 416.058 60.2107 416.98 60.2107C417.901 60.2107 418.638 59.8423 419.191 59.1054C419.559 58.3686 419.928 57.6317 419.928 56.5265C419.928 55.4212 419.743 54.6844 419.191 53.9475C418.638 53.2107 417.901 52.8423 416.98 52.8423ZM416.98 53.7633C417.532 53.7633 417.901 53.9475 418.269 54.5002C418.454 54.8686 418.638 55.6054 418.638 56.3423C418.638 57.0791 418.454 57.6317 418.269 58.1844C417.901 58.737 417.532 58.9212 416.98 58.9212C416.427 58.9212 416.058 58.737 415.69 58.1844C415.505 57.8159 415.321 57.0791 415.321 56.3423C415.321 55.6054 415.505 54.8686 415.69 54.5002C416.058 54.1317 416.427 53.7633 416.98 53.7633Z" fill="#F8BB2A"/>
<path d="M442.774 74.5789C442.406 75.1315 441.853 75.4999 441.116 75.8683C440.563 76.2368 439.826 76.421 439.273 76.6052V78.0789C440.563 77.7104 441.485 77.1578 442.406 76.2368V87.6578H443.88V74.5789H442.774ZM451.435 74.2104C449.776 74.2104 448.671 74.9473 447.934 76.2368C447.197 77.342 446.828 78.9999 446.828 81.0262C446.828 83.0526 447.197 84.5262 447.934 85.8157C448.671 87.2894 449.96 87.842 451.435 87.842C452.909 87.842 454.198 87.1052 454.935 85.8157C455.673 84.7104 456.041 83.0526 456.041 81.0262C456.041 78.9999 455.673 77.5262 454.935 76.2368C454.198 74.9473 453.093 74.2104 451.435 74.2104ZM451.435 75.4999C452.54 75.4999 453.461 76.0526 454.014 77.342C454.383 78.2631 454.567 79.3683 454.567 81.0262C454.567 82.4999 454.383 83.7894 454.014 84.7105C453.461 85.9999 452.724 86.5526 451.435 86.5526C450.329 86.5526 449.408 85.9999 448.855 84.7105C448.486 83.7894 448.302 82.4999 448.302 81.0262C448.302 79.5526 448.486 78.2631 448.855 77.342C449.408 76.2368 450.329 75.4999 451.435 75.4999ZM459.358 85.4473C458.989 85.4473 458.805 85.6315 458.621 85.8157C458.436 85.9999 458.252 86.3683 458.252 86.5526C458.252 86.921 458.436 87.1052 458.621 87.2894C458.805 87.4736 458.989 87.6578 459.358 87.6578C459.726 87.6578 459.91 87.4736 460.095 87.2894C460.279 87.1052 460.463 86.7368 460.463 86.5526C460.463 86.1841 460.279 85.9999 460.095 85.8157C459.91 85.6315 459.726 85.4473 459.358 85.4473ZM467.281 74.2104C465.991 74.2104 464.885 74.5789 464.148 75.4999C463.227 76.421 462.859 77.342 462.859 78.8157C462.859 80.1052 463.227 81.0262 463.964 81.9473C464.701 82.8683 465.807 83.2368 467.097 83.2368C467.834 83.2368 468.571 83.0526 469.123 82.6841C469.676 82.3157 470.229 81.7631 470.598 81.0262C470.598 81.2105 470.598 81.3947 470.598 81.5789C470.598 83.0526 470.229 84.342 469.676 85.2631C469.123 86.1841 468.202 86.7368 467.281 86.7368C465.807 86.7368 464.885 85.9999 464.517 84.5262H463.043C463.411 86.921 464.701 88.0262 467.281 88.0262C468.755 88.0262 469.86 87.2894 470.782 85.9999C471.519 84.7104 472.072 83.0526 472.072 80.842C472.072 78.8157 471.703 77.1578 470.966 76.0526C470.045 74.7631 468.755 74.2104 467.281 74.2104ZM467.281 75.4999C468.202 75.4999 468.939 75.8683 469.492 76.421C470.045 76.9736 470.229 77.7104 470.229 78.6315C470.229 79.5526 469.86 80.2894 469.308 80.842C468.755 81.3947 468.018 81.7631 467.097 81.7631C466.175 81.7631 465.438 81.3947 464.885 80.842C464.333 80.2894 464.148 79.5526 464.148 78.6315C464.148 77.7104 464.333 76.9736 464.885 76.2368C465.623 75.8683 466.36 75.4999 467.281 75.4999ZM479.995 74.5789L473.361 83.2368V84.7105H479.995V87.6578H481.469V84.7105H483.68V83.421H481.469V74.5789H479.995ZM479.81 76.421V83.421H474.467L479.81 76.421ZM493.998 74.2104L486.628 87.842H487.734L495.104 74.2104H493.998ZM486.997 74.5789C486.075 74.5789 485.154 74.9473 484.785 75.6841C484.233 76.2368 484.048 77.1578 484.048 78.2631C484.048 79.3683 484.233 80.1052 484.785 80.842C485.338 81.5789 486.075 81.9473 486.997 81.9473C487.918 81.9473 488.655 81.5789 489.208 80.842C489.576 80.1052 489.945 79.3683 489.945 78.2631C489.945 77.1578 489.76 76.421 489.208 75.6841C488.839 74.7631 488.102 74.5789 486.997 74.5789ZM486.997 75.4999C487.549 75.4999 487.918 75.6841 488.286 76.2368C488.471 76.6052 488.655 77.342 488.655 78.0789C488.655 78.8157 488.471 79.3683 488.286 79.921C487.918 80.4736 487.549 80.6578 486.997 80.6578C486.444 80.6578 486.075 80.4736 485.707 79.921C485.523 79.5526 485.338 78.8157 485.338 78.0789C485.338 77.342 485.523 76.6052 485.707 76.2368C486.075 75.6841 486.444 75.4999 486.997 75.4999ZM494.92 80.4736C493.998 80.4736 493.077 80.842 492.709 81.5789C492.156 82.1315 491.972 83.0526 491.972 84.1578C491.972 85.2631 492.156 85.9999 492.709 86.7368C493.261 87.4736 493.998 87.842 494.92 87.842C495.841 87.842 496.578 87.4736 497.131 86.7368C497.499 86.1841 497.868 85.2631 497.868 84.1578C497.868 83.0526 497.684 82.3157 497.131 81.5789C496.578 80.842 495.841 80.4736 494.92 80.4736ZM494.92 81.3947C495.473 81.3947 495.841 81.5789 496.21 82.1315C496.394 82.4999 496.578 83.2368 496.578 83.9736C496.578 84.7104 496.394 85.2631 496.21 85.8157C496.025 86.3683 495.473 86.5526 494.92 86.5526C494.367 86.5526 493.998 86.3683 493.63 85.8157C493.446 85.4473 493.261 84.7104 493.261 83.9736C493.261 83.2368 493.446 82.4999 493.63 82.1315C493.814 81.7631 494.367 81.3947 494.92 81.3947ZM501.737 80.4736C500.816 80.4736 500.079 80.842 499.526 81.5789C498.973 82.1315 498.789 83.0526 498.789 84.1578C498.789 85.2631 498.973 85.9999 499.526 86.7368C500.079 87.4736 500.816 87.842 501.737 87.842C502.659 87.842 503.58 87.4736 503.948 86.7368C504.317 86.1841 504.685 85.2631 504.685 84.1578C504.685 83.0526 504.501 82.3157 503.948 81.5789C503.396 80.842 502.659 80.4736 501.737 80.4736ZM501.737 81.3947C502.29 81.3947 502.659 81.5789 503.027 82.1315C503.211 82.4999 503.396 83.2368 503.396 83.9736C503.396 84.7104 503.211 85.2631 503.027 85.8157C502.659 86.3683 502.29 86.5526 501.737 86.5526C501.185 86.5526 500.816 86.3683 500.448 85.8157C500.263 85.4473 500.079 84.7104 500.079 83.9736C500.079 83.2368 500.263 82.4999 500.448 82.1315C500.816 81.7631 501.185 81.3947 501.737 81.3947Z" fill="#F8BB2A"/>
<path d="M525.692 89.3157C525.324 89.8683 524.771 90.2367 524.034 90.6052C523.481 90.9736 522.744 91.1578 522.191 91.342V92.8157C523.481 92.4473 524.403 91.8946 525.324 90.9736V102.395H526.798V89.3157H525.692ZM534.353 88.9473C532.694 88.9473 531.589 89.6841 530.852 90.9736C530.115 92.0788 529.746 93.7367 529.746 95.7631C529.746 97.7894 530.115 99.2631 530.852 100.553C531.589 102.026 532.878 102.579 534.353 102.579C536.011 102.579 537.116 101.842 537.853 100.553C538.59 99.4473 538.959 97.7894 538.959 95.7631C538.959 93.7367 538.59 92.2631 537.853 90.9736C537.116 89.6841 536.011 88.9473 534.353 88.9473ZM534.353 90.2367C535.458 90.2367 536.379 90.7894 536.932 92.0788C537.301 92.9999 537.485 94.1052 537.485 95.7631C537.485 97.2367 537.301 98.5262 536.932 99.4473C536.379 100.737 535.642 101.289 534.353 101.289C533.247 101.289 532.326 100.737 531.773 99.4473C531.404 98.5262 531.22 97.2367 531.22 95.7631C531.22 94.2894 531.404 92.9999 531.773 92.0788C532.326 90.9736 533.247 90.2367 534.353 90.2367ZM542.276 100.184C541.907 100.184 541.723 100.368 541.539 100.553C541.354 100.737 541.17 101.105 541.17 101.289C541.17 101.658 541.354 101.842 541.539 102.026C541.723 102.21 541.907 102.395 542.276 102.395C542.644 102.395 542.828 102.21 543.013 102.026C543.197 101.842 543.381 101.474 543.381 101.289C543.381 100.921 543.197 100.737 543.013 100.553C542.828 100.368 542.644 100.184 542.276 100.184ZM551.857 89.3157L545.224 97.9736V99.4473H551.857V102.395H553.331V99.4473H555.542V98.1578H553.331V89.3157H551.857ZM551.673 91.1578V98.1578H546.329L551.673 91.1578ZM561.254 88.9473C559.78 88.9473 558.859 89.3157 557.938 90.0525C557.201 90.7894 556.832 91.5262 556.832 92.4473C556.832 93.1841 557.016 93.7367 557.385 94.2894C557.753 94.842 558.306 95.2104 559.043 95.3946C558.306 95.5788 557.753 95.9473 557.201 96.4999C556.648 97.0525 556.464 97.7894 556.464 98.7104C556.464 99.8157 556.832 100.737 557.753 101.474C558.675 102.21 559.78 102.579 561.254 102.579C562.728 102.579 564.018 102.21 564.755 101.474C565.492 100.737 566.045 99.8157 566.045 98.7104C566.045 97.7894 565.861 97.0525 565.308 96.4999C564.755 95.9473 564.203 95.5788 563.465 95.3946C564.203 95.2104 564.571 94.842 565.124 94.2894C565.492 93.7367 565.677 93.1841 565.677 92.4473C565.677 91.5262 565.308 90.6052 564.571 90.0525C563.834 89.3157 562.728 88.9473 561.254 88.9473ZM561.254 90.2367C562.176 90.2367 562.913 90.4209 563.465 90.9736C563.834 91.342 564.203 91.8946 564.203 92.6315C564.203 93.3683 564.018 93.9209 563.65 94.2894C563.097 94.842 562.36 95.0262 561.439 95.0262C560.333 95.0262 559.596 94.842 559.228 94.2894C558.859 93.9209 558.675 93.3683 558.675 92.6315C558.675 92.0788 558.859 91.5262 559.412 90.9736C559.596 90.4209 560.333 90.2367 561.254 90.2367ZM561.254 96.1315C562.36 96.1315 563.097 96.3157 563.65 96.8683C564.203 97.4209 564.387 97.9736 564.387 98.7104C564.387 99.4473 564.203 100.184 563.65 100.553C563.097 101.105 562.176 101.289 561.254 101.289C560.149 101.289 559.412 101.105 558.859 100.553C558.306 99.9999 558.122 99.4473 558.122 98.7104C558.122 97.9736 558.306 97.2367 558.859 96.8683C559.412 96.3157 560.333 96.1315 561.254 96.1315ZM576.916 88.9473L569.546 102.579H570.652L578.022 88.9473H576.916ZM569.915 89.3157C568.993 89.3157 568.072 89.6841 567.703 90.4209C567.151 90.9736 566.966 91.8946 566.966 92.9999C566.966 94.1052 567.151 94.842 567.703 95.5788C568.256 96.3157 568.993 96.6841 569.915 96.6841C570.836 96.6841 571.573 96.3157 572.126 95.5788C572.494 95.0262 572.863 94.1052 572.863 92.9999C572.863 91.8946 572.678 91.1578 572.126 90.4209C571.757 89.4999 571.02 89.3157 569.915 89.3157ZM569.915 90.2367C570.467 90.2367 570.836 90.4209 571.204 90.9736C571.389 91.342 571.573 92.0788 571.573 92.8157C571.573 93.5525 571.389 94.1052 571.204 94.6578C570.836 95.2104 570.467 95.3946 569.915 95.3946C569.362 95.3946 568.993 95.2104 568.625 94.6578C568.44 94.2894 568.256 93.5525 568.256 92.8157C568.256 92.0788 568.44 91.342 568.625 90.9736C568.993 90.4209 569.362 90.2367 569.915 90.2367ZM577.838 95.2104C576.916 95.2104 575.995 95.5788 575.627 96.3157C575.074 96.8683 574.89 97.7894 574.89 98.8946C574.89 99.9999 575.074 100.737 575.627 101.474C576.179 102.21 576.916 102.579 577.838 102.579C578.759 102.579 579.496 102.21 580.049 101.474C580.417 100.921 580.786 99.9999 580.786 98.8946C580.786 97.7894 580.602 97.0525 580.049 96.3157C579.496 95.5788 578.759 95.2104 577.838 95.2104ZM577.838 96.1315C578.39 96.1315 578.759 96.3157 579.128 96.8683C579.312 97.2367 579.496 97.9736 579.496 98.7104C579.496 99.4473 579.312 99.9999 579.128 100.553C578.943 101.105 578.39 101.289 577.838 101.289C577.285 101.289 576.916 101.105 576.548 100.553C576.364 100.184 576.179 99.4473 576.179 98.7104C576.179 97.9736 576.364 97.2367 576.548 96.8683C576.732 96.4999 577.285 96.1315 577.838 96.1315ZM584.655 95.2104C583.734 95.2104 582.997 95.5788 582.444 96.3157C581.891 96.8683 581.707 97.7894 581.707 98.8946C581.707 99.9999 581.891 100.737 582.444 101.474C582.997 102.21 583.734 102.579 584.655 102.579C585.577 102.579 586.498 102.21 586.866 101.474C587.235 100.921 587.603 99.9999 587.603 98.8946C587.603 97.7894 587.419 97.0525 586.866 96.3157C586.314 95.5788 585.577 95.2104 584.655 95.2104ZM584.655 96.1315C585.208 96.1315 585.577 96.3157 585.945 96.8683C586.129 97.2367 586.314 97.9736 586.314 98.7104C586.314 99.4473 586.129 99.9999 585.945 100.553C585.577 101.105 585.208 101.289 584.655 101.289C584.103 101.289 583.734 101.105 583.365 100.553C583.181 100.184 582.997 99.4473 582.997 98.7104C582.997 97.9736 583.181 97.2367 583.365 96.8683C583.734 96.4999 584.103 96.1315 584.655 96.1315Z" fill="#F8BB2A"/>
<path d="M44.2219 88.9473C48.2925 88.9473 51.5923 85.6483 51.5923 81.5789C51.5923 77.5094 48.2925 74.2104 44.2219 74.2104C40.1514 74.2104 36.8516 77.5094 36.8516 81.5789C36.8516 85.6483 40.1514 88.9473 44.2219 88.9473Z" fill="#F8BB2A"/>
<path d="M128.245 81.5791C132.316 81.5791 135.616 78.2802 135.616 74.2107C135.616 70.1412 132.316 66.8423 128.245 66.8423C124.175 66.8423 120.875 70.1412 120.875 74.2107C120.875 78.2802 124.175 81.5791 128.245 81.5791Z" fill="#F8BB2A"/>
<path d="M214.661 88.9473C218.732 88.9473 222.032 85.6483 222.032 81.5789C222.032 77.5094 218.732 74.2104 214.661 74.2104C210.591 74.2104 207.291 77.5094 207.291 81.5789C207.291 85.6483 210.591 88.9473 214.661 88.9473Z" fill="#F8BB2A"/>
<path d="M296.657 67.3948C300.728 67.3948 304.028 64.0958 304.028 60.0264C304.028 55.9569 300.728 52.658 296.657 52.658C292.587 52.658 289.287 55.9569 289.287 60.0264C289.287 64.0958 292.587 67.3948 296.657 67.3948Z" fill="#F8BB2A"/>
<path d="M381.417 82.1316C385.488 82.1316 388.788 78.8327 388.788 74.7632C388.788 70.6937 385.488 67.3948 381.417 67.3948C377.347 67.3948 374.047 70.6937 374.047 74.7632C374.047 78.8327 377.347 82.1316 381.417 82.1316Z" fill="#F8BB2A"/>
<path d="M465.808 116.21C469.878 116.21 473.178 112.912 473.178 108.842C473.178 104.773 469.878 101.474 465.808 101.474C461.737 101.474 458.438 104.773 458.438 108.842C458.438 112.912 461.737 116.21 465.808 116.21Z" fill="#F8BB2A"/>
<path d="M549.646 125.974C553.716 125.974 557.016 122.675 557.016 118.605C557.016 114.536 553.716 111.237 549.646 111.237C545.575 111.237 542.275 114.536 542.275 118.605C542.275 122.675 545.575 125.974 549.646 125.974Z" fill="#F8BB2A"/>
<path d="M27.8239 300.79C26.5341 300.79 25.4286 301.158 24.5073 302.079C23.7702 303 23.2175 304.105 23.2175 305.579H24.6915C24.6915 304.474 25.0601 303.553 25.4286 303C25.9814 302.447 26.5341 302.079 27.4554 302.079C28.3767 302.079 28.9295 302.263 29.4823 302.816C30.0351 303.369 30.2193 303.921 30.2193 304.658C30.2193 305.579 29.8508 306.316 29.298 307.053C28.9295 307.421 28.1925 307.974 27.2712 308.711C25.7971 309.632 24.8758 310.369 24.323 311.105C23.4017 312.026 23.0332 313.132 23.0332 314.421H31.8776V313.132H25.0601C25.2443 312.211 26.1656 311.29 28.0082 310.184C29.298 309.263 30.2193 308.526 30.7721 307.974C31.6934 307.053 32.0619 305.947 32.0619 304.842C32.0619 303.737 31.6934 302.816 30.9564 302.079C30.0351 301.158 29.1138 300.79 27.8239 300.79ZM38.6952 300.79C37.0369 300.79 35.9314 301.526 35.1943 302.816C34.4573 303.921 34.0888 305.579 34.0888 307.605C34.0888 309.632 34.4573 311.105 35.1943 312.395C35.9314 313.869 37.2212 314.421 38.6952 314.421C40.3536 314.421 41.4591 313.684 42.1962 312.395C42.9332 311.29 43.3017 309.632 43.3017 307.605C43.3017 305.579 42.9332 304.105 42.1962 302.816C41.4591 301.526 40.1693 300.79 38.6952 300.79ZM38.6952 302.079C39.8008 302.079 40.7221 302.632 41.2749 303.921C41.6434 304.842 41.8277 305.947 41.8277 307.605C41.8277 309.079 41.6434 310.368 41.2749 311.29C40.7221 312.579 39.9851 313.132 38.6952 313.132C37.5897 313.132 36.6684 312.395 36.1156 311.29C35.7471 310.368 35.5628 309.079 35.5628 307.605C35.5628 306.132 35.7471 304.842 36.1156 303.921C36.6684 302.816 37.5897 302.079 38.6952 302.079ZM48.461 301.158C48.0925 301.711 47.5397 302.079 46.8026 302.447C46.2499 302.816 45.5128 303 44.9601 303.184V304.658C46.2499 304.29 47.1712 303.737 48.0925 302.816V314.053H49.5665V300.974H48.461V301.158ZM57.3054 300.79C56.0156 300.79 55.0943 301.158 54.3573 301.895C53.6202 302.632 53.0675 303.553 52.8832 304.842H54.3573C54.3573 303.921 54.7258 303.369 55.2786 302.816C55.8314 302.263 56.3841 302.079 57.3054 302.079C58.2267 302.079 58.7795 302.263 59.3323 302.816C59.7008 303.184 60.0693 303.737 60.0693 304.474C60.0693 305.211 59.8851 305.763 59.3323 306.132C58.7795 306.5 58.2267 306.684 57.3054 306.684H56.3841V307.79H57.4897C58.411 307.79 59.148 307.974 59.7008 308.342C60.2536 308.711 60.4378 309.447 60.4378 310.184C60.4378 310.921 60.0693 311.658 59.7008 312.211C59.148 312.763 58.411 312.947 57.4897 312.947C56.5684 312.947 56.0156 312.763 55.4628 312.211C54.9101 311.658 54.5415 310.921 54.3573 309.816H52.8832C53.0675 311.29 53.436 312.395 54.5415 313.132C55.2786 313.684 56.3841 314.053 57.6739 314.053C58.9638 314.053 60.0693 313.684 60.9906 312.947C61.9119 312.211 62.2804 311.29 62.2804 310C62.2804 309.263 62.0962 308.526 61.5434 307.974C61.1749 307.421 60.6221 307.053 59.7008 306.869C61.1749 306.316 61.9119 305.395 61.9119 303.921C61.9119 302.816 61.5434 301.895 60.8064 301.342C59.5165 301.158 58.5952 300.79 57.3054 300.79Z" fill="black"/>
<path d="M110.739 300.79C109.449 300.79 108.344 301.158 107.423 302.079C106.686 303 106.133 304.105 106.133 305.579H107.607C107.607 304.474 107.975 303.553 108.344 303C108.897 302.447 109.449 302.079 110.371 302.079C111.292 302.079 111.845 302.263 112.398 302.816C112.95 303.369 113.135 303.921 113.135 304.658C113.135 305.579 112.766 306.316 112.213 307.053C111.845 307.421 111.108 307.974 110.187 308.711C108.712 309.632 107.791 310.369 107.423 311.105C106.501 312.026 106.133 313.132 106.133 314.421H114.977V313.132H107.975C108.16 312.211 109.081 311.29 110.924 310.184C112.213 309.263 113.135 308.526 113.687 307.974C114.609 307.053 114.977 305.947 114.977 304.842C114.977 303.737 114.609 302.816 113.872 302.079C112.95 301.158 112.029 300.79 110.739 300.79ZM121.611 300.79C119.952 300.79 118.847 301.526 118.11 302.816C117.373 303.921 117.004 305.579 117.004 307.605C117.004 309.632 117.373 311.105 118.11 312.395C118.847 313.869 120.137 314.421 121.611 314.421C123.085 314.421 124.374 313.684 125.112 312.395C125.849 311.29 126.217 309.632 126.217 307.605C126.217 305.579 125.849 304.105 125.112 302.816C124.374 301.526 123.085 300.79 121.611 300.79ZM121.611 302.079C122.716 302.079 123.637 302.632 124.19 303.921C124.559 304.842 124.743 305.947 124.743 307.605C124.743 309.079 124.559 310.368 124.19 311.29C123.637 312.579 122.9 313.132 121.611 313.132C120.321 313.132 119.584 312.395 119.031 311.29C118.662 310.368 118.478 309.079 118.478 307.605C118.478 306.132 118.662 304.842 119.031 303.921C119.584 302.816 120.505 302.079 121.611 302.079ZM131.376 301.158C131.008 301.711 130.455 302.079 129.718 302.447C129.165 302.816 128.428 303 127.875 303.184V304.658C129.165 304.29 130.087 303.737 131.008 302.816V314.053H132.482V300.974H131.376V301.158ZM141.511 301.158L134.877 309.816V311.29H141.511V314.237H142.985V311.29H145.196V310H142.985V300.974H141.511V301.158ZM141.511 303V310H136.167L141.511 303Z" fill="black"/>
<path d="M195.5 300.79C194.21 300.79 193.104 301.158 192.183 302.079C191.446 303 190.893 304.105 190.893 305.579H192.367C192.367 304.474 192.736 303.553 193.104 303C193.657 302.447 194.21 302.079 195.131 302.079C196.053 302.079 196.605 302.263 197.158 302.816C197.711 303.184 197.895 303.921 197.895 304.658C197.895 305.579 197.527 306.316 196.79 307.053C196.421 307.421 195.684 307.974 194.763 308.711C193.289 309.632 192.367 310.369 191.999 311.105C191.077 312.026 190.709 313.132 190.709 314.421H199.553V313.132H192.552C192.736 312.211 193.841 311.29 195.5 310.184C196.79 309.263 197.711 308.526 198.264 307.974C199.185 307.053 199.553 305.947 199.553 304.842C199.553 303.737 199.185 302.816 198.448 302.079C197.711 301.158 196.79 300.79 195.5 300.79ZM206.371 300.79C204.713 300.79 203.607 301.526 202.87 302.816C202.133 303.921 201.765 305.579 201.765 307.605C201.765 309.632 202.133 311.105 202.87 312.395C203.607 313.869 204.897 314.421 206.371 314.421C207.845 314.421 209.135 313.684 209.872 312.395C210.609 311.29 210.978 309.632 210.978 307.605C210.978 305.579 210.609 304.105 209.872 302.816C209.135 301.526 207.845 300.79 206.371 300.79ZM206.371 302.079C207.477 302.079 208.398 302.632 208.951 303.921C209.319 304.842 209.503 305.947 209.503 307.605C209.503 309.079 209.319 310.368 208.951 311.29C208.398 312.579 207.661 313.132 206.371 313.132C205.081 313.132 204.344 312.395 203.791 311.29C203.423 310.368 203.239 309.079 203.239 307.605C203.239 306.132 203.423 304.842 203.791 303.921C204.344 302.816 205.265 302.079 206.371 302.079ZM216.137 301.158C215.768 301.711 215.215 302.079 214.478 302.447C213.926 302.816 213.189 303 212.636 303.184V304.658C213.926 304.29 214.847 303.737 215.768 302.816V314.053H217.242V300.974H216.137V301.158ZM221.296 301.158L220.559 308.342H222.033C222.217 307.79 222.77 307.421 223.139 307.237C223.691 306.868 224.244 306.869 224.797 306.869C225.718 306.869 226.455 307.053 227.008 307.79C227.561 308.342 227.929 309.263 227.929 310.184C227.929 311.105 227.561 311.842 227.008 312.395C226.455 312.947 225.718 313.316 224.797 313.316C224.06 313.316 223.323 313.132 222.77 312.763C222.217 312.395 221.849 311.658 221.849 310.921H220.375C220.559 312.026 220.928 313.132 221.849 313.869C222.586 314.421 223.691 314.79 224.797 314.79C226.087 314.79 227.192 314.421 228.114 313.684C229.035 312.763 229.588 311.658 229.588 310.368C229.588 308.895 229.219 307.79 228.482 307.053C227.745 306.316 226.64 305.947 225.35 305.947C224.797 305.947 224.244 306.132 223.691 306.316C223.139 306.5 222.586 306.868 222.217 307.237L222.586 302.816H229.035V301.526H221.296V301.158Z" fill="black"/>
<path d="M283.944 300.79C282.654 300.79 281.548 301.158 280.627 302.079C279.89 303 279.337 304.105 279.337 305.579H280.811C280.811 304.474 281.18 303.553 281.548 303C282.101 302.447 282.654 302.079 283.575 302.079C284.497 302.079 285.049 302.263 285.602 302.816C286.155 303.184 286.339 303.921 286.339 304.658C286.339 305.579 285.971 306.316 285.234 307.053C284.865 307.421 284.128 307.974 283.207 308.711C281.733 309.632 280.811 310.369 280.259 311.105C279.337 312.026 278.969 313.132 278.969 314.421H287.813V313.132H280.811C280.996 312.211 281.917 311.29 283.76 310.184C285.049 309.263 285.971 308.526 286.523 307.974C287.445 307.053 287.813 305.947 287.813 304.842C287.813 303.737 287.445 302.816 286.708 302.079C286.155 301.158 285.234 300.79 283.944 300.79ZM294.815 300.79C293.157 300.79 292.051 301.526 291.314 302.816C290.577 303.921 290.209 305.579 290.209 307.605C290.209 309.632 290.577 311.105 291.314 312.395C292.051 313.869 293.341 314.421 294.815 314.421C296.289 314.421 297.579 313.684 298.316 312.395C299.053 311.29 299.422 309.632 299.422 307.605C299.422 305.579 299.053 304.105 298.316 302.816C297.579 301.526 296.289 300.79 294.815 300.79ZM294.815 302.079C295.921 302.079 296.842 302.632 297.395 303.921C297.763 304.842 297.947 305.947 297.947 307.605C297.947 309.079 297.763 310.368 297.395 311.29C296.842 312.579 296.105 313.132 294.815 313.132C293.525 313.132 292.788 312.395 292.235 311.29C291.867 310.368 291.683 309.079 291.683 307.605C291.683 306.132 291.867 304.842 292.235 303.921C292.788 302.816 293.71 302.079 294.815 302.079ZM304.581 301.158C304.212 301.711 303.659 302.079 302.922 302.447C302.37 302.816 301.633 303 301.08 303.184V304.658C302.37 304.29 303.291 303.737 304.212 302.816V314.053H305.686V300.974H304.581V301.158ZM313.425 300.79C311.951 300.79 310.846 301.526 309.924 302.816C309.003 304.105 308.635 305.763 308.635 307.974C308.635 310 309.003 311.474 309.74 312.763C310.477 313.868 311.767 314.605 313.425 314.605C314.715 314.605 315.821 314.237 316.558 313.316C317.295 312.395 317.847 311.29 317.847 310C317.847 308.711 317.479 307.605 316.742 306.869C316.005 306.132 314.899 305.579 313.609 305.579C312.872 305.579 312.135 305.763 311.583 306.132C311.03 306.5 310.477 307.053 310.109 307.79C310.109 307.605 310.109 307.421 310.109 307.237C310.109 305.763 310.293 304.474 311.03 303.553C311.583 302.447 312.504 302.079 313.425 302.079C314.899 302.079 315.821 302.816 316.189 304.29H317.663C317.295 302.079 315.821 300.79 313.425 300.79ZM313.425 306.869C314.347 306.869 315.084 307.237 315.636 307.79C316.189 308.342 316.373 309.079 316.373 310C316.373 310.921 316.189 311.658 315.636 312.395C315.084 312.947 314.347 313.316 313.425 313.316C312.504 313.316 311.767 312.947 311.214 312.395C310.661 311.842 310.477 311.105 310.477 310.184C310.477 309.263 310.661 308.526 311.398 307.974C311.767 307.237 312.504 306.869 313.425 306.869Z" fill="black"/>
<path d="M361.332 300.79C360.043 300.79 358.937 301.158 358.016 302.079C357.279 303 356.726 304.105 356.726 305.579H358.2C358.2 304.474 358.569 303.553 358.937 303C359.49 302.447 360.043 302.079 360.964 302.079C361.885 302.079 362.438 302.263 362.991 302.816C363.544 303.184 363.728 303.921 363.728 304.658C363.728 305.579 363.359 306.316 362.622 307.053C362.254 307.421 361.517 307.974 360.595 308.711C359.121 309.632 358.2 310.369 357.647 311.105C356.726 312.026 356.357 313.132 356.357 314.421H365.202V313.132H358.2C358.384 312.211 359.306 311.29 361.148 310.184C362.438 309.263 363.359 308.526 363.912 307.974C364.833 307.053 365.202 305.947 365.202 304.842C365.202 303.737 364.833 302.816 364.096 302.079C363.544 301.158 362.622 300.79 361.332 300.79ZM372.204 300.79C370.545 300.79 369.44 301.526 368.703 302.816C367.966 303.921 367.597 305.579 367.597 307.605C367.597 309.632 367.966 311.105 368.703 312.395C369.44 313.869 370.73 314.421 372.204 314.421C373.678 314.421 374.968 313.684 375.705 312.395C376.442 311.29 376.81 309.632 376.81 307.605C376.81 305.579 376.442 304.105 375.705 302.816C374.968 301.526 373.678 300.79 372.204 300.79ZM372.204 302.079C373.309 302.079 374.231 302.632 374.783 303.921C375.152 304.842 375.336 305.947 375.336 307.605C375.336 309.079 375.152 310.368 374.783 311.29C374.231 312.579 373.494 313.132 372.204 313.132C370.914 313.132 370.177 312.395 369.624 311.29C369.256 310.368 369.071 309.079 369.071 307.605C369.071 306.132 369.256 304.842 369.624 303.921C370.177 302.816 371.098 302.079 372.204 302.079ZM381.969 301.158C381.601 301.711 381.048 302.079 380.311 302.447C379.758 302.816 379.021 303 378.469 303.184V304.658C379.758 304.29 380.68 303.737 381.601 302.816V314.053H383.075V300.974H381.969V301.158ZM385.655 301.158V302.632H392.841L387.866 314.421H389.524L394.315 302.447V301.158H385.655Z" fill="black"/>
<path d="M451.62 300.79C450.33 300.79 449.224 301.158 448.303 302.079C447.566 303 447.013 304.105 447.013 305.579H448.487C448.487 304.474 448.856 303.553 449.224 303C449.777 302.447 450.33 302.079 451.251 302.079C452.172 302.079 452.725 302.263 453.278 302.816C453.831 303.184 454.015 303.921 454.015 304.658C454.015 305.579 453.646 306.316 452.909 307.053C452.541 307.421 451.804 307.974 450.883 308.711C449.408 309.632 448.487 310.369 447.934 311.105C447.013 312.026 446.645 313.132 446.645 314.421H455.489V313.132H448.487C448.671 312.211 449.593 311.29 451.435 310.184C452.725 309.263 453.646 308.526 454.199 307.974C455.12 307.053 455.489 305.947 455.489 304.842C455.489 303.737 455.12 302.816 454.383 302.079C453.831 301.158 452.909 300.79 451.62 300.79ZM462.491 300.79C460.833 300.79 459.727 301.526 458.99 302.816C458.253 303.921 457.884 305.579 457.884 307.605C457.884 309.632 458.253 311.105 458.99 312.395C459.727 313.869 461.017 314.421 462.491 314.421C463.965 314.421 465.255 313.684 465.992 312.395C466.729 311.29 467.097 309.632 467.097 307.605C467.097 305.579 466.729 304.105 465.992 302.816C465.255 301.526 463.965 300.79 462.491 300.79ZM462.491 302.079C463.596 302.079 464.518 302.632 465.07 303.921C465.439 304.842 465.623 305.947 465.623 307.605C465.623 309.079 465.439 310.368 465.07 311.29C464.518 312.579 463.781 313.132 462.491 313.132C461.201 313.132 460.464 312.395 459.911 311.29C459.543 310.368 459.358 309.079 459.358 307.605C459.358 306.132 459.543 304.842 459.911 303.921C460.464 302.816 461.385 302.079 462.491 302.079ZM472.257 301.158C471.888 301.711 471.335 302.079 470.598 302.447C470.045 302.816 469.308 303 468.756 303.184V304.658C470.045 304.29 470.967 303.737 471.888 302.816V314.053H473.362V300.974H472.257V301.158ZM480.917 300.79C479.443 300.79 478.521 301.158 477.6 301.895C476.863 302.447 476.495 303.369 476.495 304.29C476.495 305.026 476.679 305.579 477.047 306.132C477.416 306.684 477.969 307.053 478.521 307.237C477.784 307.421 477.232 307.79 476.863 308.342C476.31 308.895 476.126 309.632 476.126 310.553C476.126 311.658 476.495 312.579 477.416 313.316C478.337 314.053 479.443 314.421 480.917 314.421C482.391 314.421 483.681 314.053 484.418 313.316C485.155 312.579 485.708 311.658 485.708 310.553C485.708 309.632 485.523 308.895 484.97 308.342C484.418 307.79 483.865 307.421 483.312 307.237C484.049 307.053 484.418 306.684 484.97 306.132C485.339 305.579 485.523 305.026 485.523 304.29C485.523 303.369 485.155 302.447 484.418 301.895C483.312 301.158 482.207 300.79 480.917 300.79ZM480.917 302.079C481.838 302.079 482.575 302.263 483.128 302.816C483.496 303.184 483.865 303.737 483.865 304.474C483.865 305.211 483.681 305.763 483.312 306.132C482.759 306.684 482.022 306.869 481.101 306.869C479.995 306.869 479.258 306.684 478.89 306.132C478.521 305.763 478.337 305.211 478.337 304.474C478.337 303.737 478.521 303.369 479.074 302.816C479.258 302.263 479.995 302.079 480.917 302.079ZM480.917 307.974C482.022 307.974 482.759 308.158 483.312 308.711C483.865 309.263 484.049 309.816 484.049 310.553C484.049 311.29 483.865 312.026 483.312 312.395C482.759 312.947 481.838 313.132 480.917 313.132C479.811 313.132 479.074 312.947 478.521 312.395C477.969 311.842 477.784 311.29 477.784 310.553C477.784 309.816 477.969 309.079 478.521 308.711C479.074 308.158 479.811 307.974 480.917 307.974Z" fill="black"/>
<path d="M534.537 300.79C533.247 300.79 532.141 301.158 531.22 302.079C530.483 303 529.93 304.105 529.93 305.579H531.404C531.404 304.474 531.773 303.553 532.141 303C532.694 302.447 533.247 302.079 534.168 302.079C535.09 302.079 535.642 302.263 536.195 302.816C536.748 303.369 536.932 303.921 536.932 304.658C536.932 305.579 536.564 306.316 536.011 307.053C535.642 307.421 534.905 307.974 533.984 308.711C532.51 309.632 531.589 310.369 531.036 311.105C530.115 312.026 529.746 313.132 529.746 314.421H538.591V313.132H531.589C531.773 312.211 532.694 311.29 534.537 310.184C535.827 309.263 536.748 308.526 537.301 307.974C538.222 307.053 538.591 305.947 538.591 304.842C538.591 303.737 538.222 302.816 537.485 302.079C536.748 301.158 535.827 300.79 534.537 300.79ZM545.408 300.79C543.75 300.79 542.644 301.526 541.907 302.816C541.17 303.921 540.802 305.579 540.802 307.605C540.802 309.632 541.17 311.105 541.907 312.395C542.644 313.869 543.934 314.421 545.408 314.421C547.066 314.421 548.172 313.684 548.909 312.395C549.646 311.29 550.015 309.632 550.015 307.605C550.015 305.579 549.646 304.105 548.909 302.816C548.172 301.526 546.882 300.79 545.408 300.79ZM545.408 302.079C546.514 302.079 547.435 302.632 547.988 303.921C548.356 304.842 548.541 305.947 548.541 307.605C548.541 309.079 548.356 310.368 547.988 311.29C547.435 312.579 546.698 313.132 545.408 313.132C544.303 313.132 543.381 312.395 542.829 311.29C542.46 310.368 542.276 309.079 542.276 307.605C542.276 306.132 542.46 304.842 542.829 303.921C543.381 302.816 544.303 302.079 545.408 302.079ZM555.174 301.158C554.805 301.711 554.253 302.079 553.516 302.447C552.963 302.816 552.226 303 551.673 303.184V304.658C552.963 304.29 553.884 303.737 554.805 302.816V314.053H556.279V300.974H555.174V301.158ZM563.65 300.79C562.36 300.79 561.254 301.158 560.517 302.079C559.596 303 559.228 303.921 559.228 305.395C559.228 306.684 559.596 307.605 560.333 308.526C561.07 309.263 562.176 309.816 563.466 309.816C564.203 309.816 564.94 309.632 565.492 309.263C566.045 308.895 566.598 308.342 566.966 307.605C566.966 307.79 566.966 307.974 566.966 308.158C566.966 309.632 566.598 310.921 566.045 311.842C565.492 312.947 564.571 313.316 563.65 313.316C562.176 313.316 561.254 312.579 560.886 311.105H559.412C559.78 313.5 561.254 314.605 563.65 314.605C565.124 314.605 566.229 313.869 567.151 312.579C567.888 311.29 568.441 309.632 568.441 307.421C568.441 305.395 568.072 303.737 567.335 302.632C566.414 301.342 565.308 300.79 563.65 300.79ZM563.65 302.079C564.571 302.079 565.308 302.447 565.861 303C566.414 303.553 566.598 304.29 566.598 305.211C566.598 306.132 566.229 306.869 565.677 307.421C565.124 307.974 564.387 308.342 563.466 308.342C562.544 308.342 561.807 307.974 561.254 307.421C560.702 306.869 560.517 306.132 560.517 305.211C560.517 304.29 560.702 303.553 561.254 302.816C562.176 302.447 562.913 302.079 563.65 302.079Z" fill="black"/>
<path d="M24.5068 113.263C24.1383 113.816 23.5855 114.184 22.8485 114.553C22.2957 114.921 21.5586 115.105 21.0059 115.29V116.763C22.2957 116.395 23.217 115.842 24.1383 114.921V126.342H25.6123V113.263H24.5068ZM30.0346 124.132C29.666 124.132 29.2975 124.132 29.1133 124.5C28.929 124.684 28.7448 125.053 28.7448 125.421C28.7448 125.79 28.929 125.974 29.1133 126.158C29.4818 126.342 29.666 126.342 30.0346 126.342C30.2188 126.342 30.4031 126.342 30.4031 126.342C30.4031 126.711 30.2188 127.263 30.0346 127.632C29.666 128 29.2975 128.184 28.929 128.368V129.29C29.666 129.105 30.4031 128.737 30.7716 128C31.3244 127.447 31.5086 126.711 31.5086 125.79C31.5086 125.237 31.3244 124.868 31.1401 124.5C30.7716 124.316 30.5873 124.132 30.0346 124.132ZM38.3262 112.895C36.8522 112.895 35.5623 113.632 34.8253 114.921C33.904 116.211 33.5355 117.868 33.5355 120.079C33.5355 122.105 33.904 123.579 34.641 124.684C35.3781 125.79 36.6679 126.526 38.3262 126.526C39.616 126.526 40.7216 126.158 41.4586 125.237C42.3799 124.316 42.7485 123.395 42.7485 121.921C42.7485 120.632 42.3799 119.526 41.6429 118.79C40.9059 118.053 39.8003 117.5 38.6948 117.5C37.9577 117.5 37.2207 117.684 36.6679 118.053C36.1151 118.421 35.5623 118.974 35.1938 119.711C35.1938 119.526 35.1938 119.342 35.1938 119.158C35.1938 117.684 35.5623 116.395 36.1151 115.474C36.6679 114.368 37.5892 114 38.5105 114C39.9846 114 40.9059 114.737 41.2744 116.211H42.3799C42.0114 114 40.7216 112.895 38.3262 112.895ZM38.142 118.974C39.0633 118.974 39.8003 119.342 40.3531 119.895C40.9059 120.447 41.0901 121.184 41.0901 122.105C41.0901 123.026 40.7216 123.763 40.1688 124.5C39.616 125.053 38.879 125.421 37.9577 125.421C37.0364 125.421 36.2994 125.053 35.7466 124.5C35.1938 123.947 35.0096 123.211 35.0096 122.29C35.0096 121.368 35.1938 120.632 35.9309 120.079C36.6679 119.342 37.4049 118.974 38.142 118.974ZM50.6716 113.263L44.0383 121.921V123.395H50.6716V126.342H52.1457V123.395H54.3568V122.105H52.1457V113.263H50.6716ZM50.4873 115.105V122.105H45.1438L50.4873 115.105ZM60.0688 112.895C58.4105 112.895 57.3049 113.632 56.5679 114.921C55.8309 116.026 55.4623 117.684 55.4623 119.711C55.4623 121.737 55.8309 123.211 56.5679 124.5C57.3049 125.974 58.5947 126.526 60.0688 126.526C61.5429 126.526 62.8327 125.79 63.5698 124.5C64.3068 123.395 64.6753 121.737 64.6753 119.711C64.6753 117.684 64.3068 116.211 63.5698 114.921C62.8327 113.632 61.7272 112.895 60.0688 112.895ZM60.0688 114.184C61.1744 114.184 62.0957 114.737 62.6485 116.026C63.017 116.947 63.2012 118.053 63.2012 119.711C63.2012 121.184 63.017 122.474 62.6485 123.395C62.0957 124.684 61.3586 125.237 60.0688 125.237C58.779 125.237 58.042 124.684 57.4892 123.395C57.1207 122.474 56.9364 121.184 56.9364 119.711C56.9364 118.237 57.1207 116.947 57.4892 116.026C58.042 114.921 58.9633 114.184 60.0688 114.184Z" fill="black"/>
<path d="M107.423 113.263C107.054 113.816 106.502 114.184 105.764 114.553C105.212 114.921 104.475 115.105 103.922 115.29V116.763C105.212 116.395 106.133 115.842 107.054 114.921V126.342H108.528V113.263H107.423ZM112.951 124.132C112.582 124.132 112.398 124.132 112.029 124.5C111.845 124.684 111.661 125.053 111.661 125.421C111.661 125.79 111.845 125.974 112.029 126.158C112.398 126.342 112.582 126.342 112.951 126.342C113.135 126.342 113.319 126.342 113.319 126.342C113.319 126.711 113.135 127.263 112.951 127.632C112.582 128 112.214 128.184 111.845 128.368V129.29C112.582 129.105 113.319 128.737 113.688 128C114.24 127.447 114.425 126.711 114.425 125.79C114.425 125.237 114.24 124.868 114.056 124.5C113.688 124.316 113.503 124.132 112.951 124.132ZM121.242 112.895C119.768 112.895 118.663 113.632 117.741 114.921C117.004 116.211 116.452 117.868 116.452 120.079C116.452 122.105 116.82 123.579 117.557 124.684C118.294 125.79 119.584 126.526 121.242 126.526C122.532 126.526 123.638 126.158 124.375 125.237C125.296 124.316 125.664 123.395 125.664 121.921C125.664 120.632 125.296 119.526 124.559 118.79C123.822 118.053 122.716 117.5 121.427 117.5C120.689 117.5 119.952 117.684 119.4 118.053C118.847 118.421 118.294 118.974 117.926 119.711C117.926 119.526 117.926 119.342 117.926 119.158C117.926 117.684 118.294 116.395 118.847 115.474C119.4 114.368 120.321 114 121.242 114C122.716 114 123.638 114.737 124.006 116.211H125.296C124.927 114 123.638 112.895 121.242 112.895ZM121.058 118.974C121.979 118.974 122.716 119.342 123.269 119.895C123.822 120.447 124.006 121.184 124.006 122.105C124.006 123.026 123.638 123.763 123.269 124.5C122.716 125.053 121.979 125.421 121.058 125.421C120.137 125.421 119.4 125.053 118.847 124.5C118.294 123.947 118.11 123.211 118.11 122.29C118.11 121.368 118.478 120.632 119.031 120.079C119.584 119.342 120.321 118.974 121.058 118.974ZM127.139 113.263V114.737H134.14L129.35 126.342H130.824L135.614 114.368V113.079H127.139V113.263ZM142.064 112.895C140.589 112.895 139.668 113.263 138.747 114C138.01 114.737 137.641 115.474 137.641 116.395C137.641 117.132 137.826 117.684 138.194 118.237C138.563 118.79 139.115 119.158 139.668 119.342C138.931 119.526 138.378 119.895 138.01 120.447C137.457 121 137.273 121.737 137.273 122.658C137.273 123.763 137.641 124.684 138.563 125.421C139.484 126.158 140.589 126.526 142.064 126.526C143.538 126.526 144.827 126.158 145.564 125.421C146.302 124.684 146.854 123.763 146.854 122.658C146.854 121.737 146.67 121 146.117 120.447C145.564 119.895 145.012 119.526 144.459 119.342C145.196 119.158 145.564 118.79 145.933 118.237C146.301 117.684 146.486 117.132 146.486 116.395C146.486 115.474 146.117 114.553 145.38 114C144.459 113.263 143.538 112.895 142.064 112.895ZM142.064 114.184C142.985 114.184 143.722 114.368 144.275 114.921C144.643 115.29 145.012 115.842 145.012 116.579C145.012 117.316 144.827 117.868 144.459 118.237C143.906 118.79 143.169 118.974 142.248 118.974C141.142 118.974 140.405 118.79 140.037 118.237C139.668 117.868 139.484 117.316 139.484 116.579C139.484 116.026 139.668 115.474 140.221 114.921C140.405 114.368 141.142 114.184 142.064 114.184ZM142.064 120.079C143.169 120.079 143.906 120.263 144.459 120.816C145.012 121.368 145.196 121.921 145.196 122.658C145.196 123.395 144.827 124.132 144.459 124.5C143.906 125.053 142.985 125.237 142.064 125.237C140.958 125.237 140.221 125.053 139.668 124.5C139.115 123.947 138.931 123.395 138.931 122.658C138.931 121.921 139.115 121.184 139.668 120.816C140.221 120.263 140.958 120.079 142.064 120.079Z" fill="black"/>
<path d="M194.024 113.263C193.656 113.816 193.103 114.184 192.366 114.553C191.813 114.921 191.076 115.105 190.523 115.29V116.763C191.813 116.395 192.735 115.842 193.656 114.921V126.342H195.13V113.263H194.024ZM199.552 124.132C199.184 124.132 198.999 124.132 198.631 124.5C198.447 124.684 198.262 125.053 198.262 125.421C198.262 125.79 198.447 125.974 198.631 126.158C198.815 126.342 199.184 126.526 199.368 126.526C199.552 126.526 199.736 126.526 199.736 126.526C199.736 126.895 199.552 127.447 199.368 127.816C198.999 128.184 198.631 128.368 198.262 128.553V129.474C198.999 129.29 199.736 128.921 200.105 128.184C200.658 127.632 200.842 126.895 200.842 125.974C200.842 125.421 200.658 125.053 200.473 124.684C200.289 124.316 200.105 124.132 199.552 124.132ZM207.844 112.895C206.37 112.895 205.264 113.632 204.343 114.921C203.422 116.211 203.053 117.868 203.053 120.079C203.053 122.105 203.422 123.579 204.159 124.684C204.896 125.79 206.185 126.526 207.844 126.526C209.134 126.526 210.239 126.158 210.976 125.237C211.713 124.316 212.266 123.395 212.266 121.921C212.266 120.632 211.898 119.526 211.16 118.79C210.423 118.053 209.318 117.5 208.028 117.5C207.291 117.5 206.554 117.684 206.001 118.053C205.448 118.421 204.896 118.974 204.527 119.711C204.527 119.526 204.527 119.342 204.527 119.158C204.527 117.684 204.896 116.395 205.448 115.474C206.001 114.368 206.923 114 207.844 114C209.318 114 210.239 114.737 210.608 116.211H212.082C211.529 114 210.239 112.895 207.844 112.895ZM207.66 118.974C208.581 118.974 209.318 119.342 209.871 119.895C210.423 120.447 210.608 121.184 210.608 122.105C210.608 123.026 210.423 123.763 209.871 124.5C209.318 125.053 208.581 125.421 207.66 125.421C206.738 125.421 206.001 125.053 205.448 124.5C204.896 123.947 204.711 123.211 204.711 122.29C204.711 121.368 205.08 120.632 205.633 120.079C206.185 119.342 206.738 118.974 207.66 118.974ZM215.03 113.263L214.293 120.447H215.767C215.951 119.895 216.504 119.526 216.873 119.342C217.425 118.974 217.978 118.974 218.531 118.974C219.452 118.974 220.189 119.342 220.742 119.895C221.295 120.447 221.663 121.368 221.663 122.29C221.663 123.211 221.295 123.947 220.742 124.5C220.189 125.053 219.452 125.421 218.531 125.421C217.794 125.421 217.057 125.237 216.504 124.868C215.951 124.5 215.583 123.763 215.583 123.026H214.109C214.293 124.132 214.661 125.237 215.583 125.79C216.32 126.342 217.425 126.711 218.531 126.711C219.821 126.711 220.926 126.342 221.848 125.605C222.769 124.684 223.322 123.579 223.322 122.29C223.322 120.816 222.953 119.711 222.216 118.974C221.479 118.237 220.373 117.868 219.084 117.868C218.531 117.868 217.978 117.868 217.425 118.237C216.873 118.421 216.32 118.79 215.951 119.158L216.32 114.737H222.769V113.447H215.03V113.263ZM226.085 113.263L225.348 120.447H226.823C227.007 119.895 227.56 119.526 227.928 119.342C228.481 118.974 229.034 118.974 229.586 118.974C230.508 118.974 231.245 119.342 231.798 119.895C232.35 120.447 232.719 121.368 232.719 122.29C232.719 123.211 232.35 123.947 231.798 124.5C231.245 125.053 230.508 125.421 229.586 125.421C228.849 125.421 228.112 125.237 227.56 124.868C227.007 124.5 226.638 123.763 226.638 123.026H225.164C225.348 124.132 225.717 125.237 226.638 125.79C227.375 126.342 228.481 126.711 229.586 126.711C230.876 126.711 231.982 126.342 232.903 125.605C233.824 124.684 234.377 123.579 234.377 122.29C234.377 120.816 234.009 119.711 233.272 118.974C232.535 118.237 231.429 117.868 230.323 117.868C229.771 117.868 229.218 117.868 228.665 118.237C228.112 118.421 227.56 118.79 227.191 119.158L227.56 114.737H234.009V113.447H226.085V113.263Z" fill="black"/>
<path d="M278.784 96.6843C278.416 97.237 277.863 97.6054 277.126 97.9738C276.573 98.3422 275.836 98.5264 275.283 98.7107V100.184C276.573 99.8159 277.494 99.2633 278.416 98.3422V109.763H279.89V96.6843H278.784ZM284.312 107.553C283.943 107.553 283.575 107.553 283.391 107.921C283.206 108.105 283.022 108.474 283.022 108.842C283.022 109.211 283.206 109.395 283.391 109.579C283.575 109.763 283.943 109.947 284.128 109.947C284.312 109.947 284.496 109.947 284.496 109.947C284.496 110.316 284.312 110.869 284.128 111.237C283.759 111.605 283.391 111.79 283.022 111.974V112.895C283.759 112.711 284.496 112.342 284.865 111.605C285.417 111.053 285.602 110.316 285.602 109.395C285.602 108.842 285.417 108.474 285.233 108.105C285.049 107.737 284.865 107.553 284.312 107.553ZM287.444 96.6843V98.158H294.446L289.471 109.947H291.13L295.92 97.9738V96.6843H287.444ZM302.369 96.3159C300.895 96.3159 299.974 96.6843 299.053 97.4212C298.316 98.158 297.947 98.8949 297.947 99.8159C297.947 100.553 298.131 101.105 298.5 101.658C298.868 102.211 299.421 102.579 299.974 102.763C299.237 102.947 298.684 103.316 298.316 103.869C297.763 104.421 297.579 105.158 297.579 106.079C297.579 107.184 297.947 108.105 298.868 108.842C299.605 109.579 300.895 109.947 302.369 109.947C303.843 109.947 305.133 109.579 305.87 108.842C306.607 108.105 307.16 107.184 307.16 106.079C307.16 105.158 306.976 104.421 306.423 103.869C305.87 103.316 305.317 102.947 304.58 102.763C305.317 102.579 305.87 102.211 306.239 101.658C306.607 101.105 306.792 100.553 306.792 99.8159C306.792 98.8949 306.423 97.9738 305.686 97.4212C304.765 96.6843 303.843 96.3159 302.369 96.3159ZM302.369 97.6054C303.291 97.6054 304.028 97.7896 304.58 98.3422C304.949 98.7107 305.317 99.2633 305.317 100C305.317 100.737 305.133 101.29 304.765 101.658C304.212 102.211 303.475 102.395 302.554 102.395C301.448 102.395 300.711 102.211 300.342 101.658C299.974 101.29 299.79 100.737 299.79 100C299.79 99.4475 299.974 98.8949 300.527 98.3422C300.711 97.7896 301.448 97.6054 302.369 97.6054ZM302.369 103.5C303.475 103.5 304.212 103.684 304.765 104.237C305.317 104.79 305.502 105.342 305.502 106.079C305.502 106.816 305.133 107.553 304.765 107.921C304.212 108.474 303.291 108.658 302.369 108.658C301.448 108.658 300.527 108.474 299.974 107.921C299.421 107.369 299.237 106.816 299.237 106.079C299.237 105.342 299.421 104.605 299.974 104.237C300.527 103.684 301.264 103.5 302.369 103.5ZM313.609 96.3159C312.135 96.3159 311.03 97.0528 310.108 98.3422C309.371 99.6317 308.818 101.29 308.818 103.5C308.818 105.526 309.187 107 309.924 108.105C310.661 109.211 311.951 109.947 313.609 109.947C314.899 109.947 316.004 109.579 316.742 108.658C317.479 107.737 318.031 106.816 318.031 105.342C318.031 104.053 317.663 102.947 316.926 102.211C316.189 101.474 315.083 100.921 313.978 100.921C313.241 100.921 312.504 101.105 311.951 101.474C311.398 101.842 310.845 102.395 310.477 103.132C310.477 102.947 310.477 102.763 310.477 102.579C310.477 101.105 310.845 99.8159 311.398 98.8949C311.951 97.7896 312.872 97.4212 313.793 97.4212C315.267 97.4212 316.189 98.158 316.557 99.6317H318.031C317.479 97.4212 316.005 96.3159 313.609 96.3159ZM313.609 102.395C314.53 102.395 315.267 102.763 315.82 103.316C316.373 103.869 316.557 104.605 316.557 105.526C316.557 106.447 316.373 107.184 315.82 107.921C315.267 108.474 314.53 108.842 313.609 108.842C312.688 108.842 311.951 108.474 311.398 107.921C310.845 107.369 310.661 106.632 310.661 105.711C310.661 104.79 311.03 104.053 311.582 103.5C311.951 102.763 312.688 102.395 313.609 102.395Z" fill="black"/>
<path d="M361.7 107.737C361.332 108.289 360.779 108.658 360.042 109.026C359.489 109.395 358.752 109.579 358.199 109.763V111.237C359.489 110.868 360.41 110.316 361.332 109.395V120.816H362.806V107.737H361.7ZM367.228 118.605C366.859 118.605 366.491 118.605 366.307 118.974C366.122 119.158 365.938 119.526 365.938 119.895C365.938 120.263 366.122 120.447 366.307 120.632C366.491 120.816 366.859 121 367.044 121C367.228 121 367.412 121 367.412 121C367.412 121.368 367.228 121.921 367.044 122.289C366.675 122.658 366.307 122.842 365.938 123.026V123.947C366.675 123.763 367.412 123.395 367.781 122.658C368.334 122.105 368.518 121.368 368.518 120.447C368.518 119.895 368.333 119.526 368.149 119.158C367.965 118.789 367.781 118.605 367.228 118.605ZM370.36 107.737V109.211H377.362L372.387 121H374.046L378.836 109.026V107.737H370.36ZM385.47 107.368C384.18 107.368 383.074 107.737 382.153 108.658C381.416 109.579 380.863 110.684 380.863 112.158H382.337C382.337 111.053 382.706 110.132 383.074 109.579C383.627 109.026 384.18 108.658 385.101 108.658C386.022 108.658 386.575 108.842 387.128 109.395C387.681 109.763 387.865 110.5 387.865 111.237C387.865 112.158 387.496 112.895 386.759 113.632C386.391 114 385.654 114.553 384.733 115.289C383.258 116.211 382.337 117.132 381.969 117.684C381.047 118.605 380.679 119.711 380.679 121H389.523V119.711H382.521C382.706 118.789 383.811 117.868 385.47 116.763C386.759 115.842 387.681 115.105 388.233 114.553C389.155 113.632 389.523 112.526 389.523 111.421C389.523 110.316 389.155 109.395 388.418 108.658C387.681 107.737 386.759 107.368 385.47 107.368ZM396.525 107.368C395.235 107.368 394.314 107.737 393.577 108.474C392.84 109.211 392.287 110.132 392.103 111.421H393.577C393.577 110.5 393.946 109.947 394.498 109.395C395.051 108.842 395.604 108.658 396.525 108.658C397.446 108.658 397.999 108.842 398.552 109.211C398.921 109.579 399.289 110.132 399.289 110.868C399.289 111.605 399.105 112.158 398.552 112.526C398.183 112.895 397.446 113.079 396.525 113.079H395.42V114.184H396.525C397.446 114.184 398.183 114.368 398.736 114.921C399.289 115.289 399.473 116.026 399.473 116.763C399.473 117.5 399.289 118.237 398.736 118.605C398.183 119.158 397.446 119.342 396.525 119.342C395.788 119.342 395.051 119.158 394.498 118.605C393.761 118.053 393.577 117.316 393.393 116.211H391.919C392.103 117.684 392.471 118.789 393.577 119.526C394.314 120.079 395.42 120.447 396.709 120.447C397.999 120.447 399.105 120.079 400.026 119.342C400.763 118.605 401.316 117.684 401.316 116.395C401.316 115.658 401.132 114.921 400.579 114.553C400.21 114 399.658 113.632 398.736 113.447C400.21 112.895 400.947 111.974 400.947 110.5C400.947 109.395 400.579 108.474 399.842 107.921C398.736 107.737 397.815 107.368 396.525 107.368Z" fill="black"/>
<path d="M444.618 126.158C444.25 126.711 443.697 127.079 442.96 127.447C442.407 127.816 441.67 128 441.117 128.184V129.658C442.407 129.29 443.328 128.737 444.25 127.816V139.237H445.724V126.158H444.618ZM450.146 137.026C449.777 137.026 449.409 137.211 449.225 137.395C449.04 137.579 448.856 137.947 448.856 138.132C448.856 138.5 449.04 138.684 449.225 138.869C449.409 139.053 449.777 139.237 449.962 139.237C450.146 139.237 450.33 139.237 450.33 139.237C450.33 139.605 450.146 140.158 449.962 140.526C449.593 140.895 449.225 141.079 448.856 141.263V142.184C449.593 142 450.33 141.632 450.699 140.895C451.251 140.342 451.436 139.605 451.436 138.684C451.436 138.132 451.251 137.763 451.067 137.395C450.883 137.211 450.699 137.026 450.146 137.026ZM454.568 126.158L453.831 133.342H455.305C455.489 132.79 456.042 132.421 456.411 132.237C456.963 131.868 457.516 131.868 458.069 131.868C458.99 131.868 459.727 132.237 460.28 132.79C460.833 133.342 461.201 134.263 461.201 135.184C461.201 136.105 460.833 136.842 460.28 137.395C459.727 137.947 458.99 138.316 458.069 138.316C457.332 138.316 456.595 138.132 456.042 137.763C455.489 137.395 455.121 136.658 455.121 135.921H453.647C453.831 137.211 454.2 138.132 455.121 138.684C455.858 139.237 456.964 139.605 458.069 139.605C459.359 139.605 460.464 139.237 461.386 138.316C462.307 137.395 462.86 136.474 462.86 135C462.86 133.526 462.491 132.421 461.754 131.684C461.017 130.947 459.912 130.579 458.806 130.579C458.253 130.579 457.701 130.579 457.148 130.947C456.595 131.132 456.042 131.5 455.674 131.868L456.042 127.447H462.491V126.158H454.568ZM469.309 125.79C468.019 125.79 466.913 126.158 465.992 127.079C465.255 128 464.702 129.105 464.702 130.579H466.176C466.176 129.474 466.545 128.553 466.913 128C467.466 127.447 468.019 127.079 468.94 127.079C469.862 127.079 470.414 127.263 470.967 127.816C471.52 128.184 471.704 128.921 471.704 129.658C471.704 130.579 471.336 131.316 470.599 132.053C470.23 132.421 469.493 132.974 468.572 133.711C467.098 134.632 466.176 135.553 465.624 136.105C464.702 137.026 464.334 138.132 464.334 139.421H473.178V138.132H466.176C466.361 137.211 467.282 136.29 469.125 135.184C470.414 134.263 471.336 133.526 471.889 133.158C472.81 132.237 473.178 131.132 473.178 130.026C473.178 128.921 472.81 128 472.073 127.263C471.52 126.158 470.599 125.79 469.309 125.79ZM480.364 125.79C479.075 125.79 478.153 126.158 477.232 126.895C476.495 127.632 475.942 128.553 475.758 129.842H477.232C477.232 128.921 477.601 128.368 478.153 127.816C478.706 127.263 479.259 127.079 480.18 127.079C481.101 127.079 481.654 127.263 482.207 127.632C482.576 128 482.944 128.553 482.944 129.29C482.944 130.026 482.76 130.579 482.207 130.947C481.839 131.316 481.101 131.5 480.18 131.5H479.075V132.605H480.18C481.101 132.605 481.838 132.79 482.391 133.342C482.944 133.711 483.128 134.447 483.128 135.184C483.128 135.921 482.944 136.658 482.391 137.211C481.838 137.763 481.101 137.947 480.18 137.947C479.443 137.947 478.706 137.763 478.153 137.211C477.416 136.658 477.232 135.921 477.048 134.816H475.574C475.758 136.29 476.126 137.395 477.048 138.132C477.785 138.684 478.89 139.053 480.18 139.053C481.47 139.053 482.576 138.684 483.497 137.947C484.234 137.211 484.787 136.29 484.787 135C484.787 134.263 484.602 133.526 484.05 133.158C483.681 132.605 483.128 132.237 482.207 132.053C483.681 131.5 484.418 130.579 484.418 129.105C484.418 128 484.05 127.079 483.313 126.526C482.76 126.158 481.654 125.79 480.364 125.79Z" fill="black"/>
<path d="M534.905 126.158C534.537 126.711 533.984 127.079 533.247 127.447C532.694 127.816 531.957 128 531.404 128.184V129.658C532.694 129.29 533.615 128.737 534.537 127.816V139.237H536.011V126.158H534.905ZM540.433 137.026C540.064 137.026 539.696 137.211 539.512 137.395C539.327 137.579 539.143 137.947 539.143 138.132C539.143 138.5 539.327 138.684 539.512 138.869C539.696 139.053 540.065 139.237 540.249 139.237C540.433 139.237 540.617 139.237 540.617 139.237C540.617 139.605 540.433 140.158 540.249 140.526C539.88 140.895 539.512 141.079 539.143 141.263V142.184C539.88 142 540.617 141.632 540.986 140.895C541.539 140.342 541.723 139.605 541.723 138.684C541.723 138.132 541.539 137.763 541.354 137.395C541.17 137.211 540.986 137.026 540.433 137.026ZM550.014 126.158L543.381 134.816V136.29H550.014V139.237H551.489V136.29H553.7V135H551.489V126.158H550.014ZM550.014 128V135H544.671L550.014 128ZM559.596 125.79C558.122 125.79 556.832 126.526 556.095 127.816C555.358 129.105 554.805 130.763 554.805 132.974C554.805 135 555.174 136.474 555.911 137.579C556.648 138.684 557.938 139.421 559.596 139.421C560.886 139.421 561.991 139.053 562.728 138.132C563.465 137.211 564.018 136.105 564.018 134.816C564.018 133.526 563.65 132.421 562.913 131.684C562.176 130.947 561.07 130.395 559.964 130.395C559.227 130.395 558.49 130.579 557.938 130.947C557.385 131.316 556.832 131.868 556.464 132.605C556.464 132.421 556.464 132.237 556.464 132.053C556.464 130.579 556.648 129.29 557.385 128.368C557.938 127.263 558.859 126.895 559.78 126.895C561.254 126.895 562.176 127.632 562.544 129.105H564.018C563.465 126.895 562.176 125.79 559.596 125.79ZM559.596 131.868C560.517 131.868 561.254 132.237 561.807 132.79C562.36 133.342 562.544 134.079 562.544 135C562.544 135.921 562.36 136.658 561.623 137.395C561.07 137.947 560.333 138.316 559.412 138.316C558.49 138.316 557.753 137.947 557.201 137.395C556.648 136.842 556.464 136.105 556.464 135.184C556.464 134.263 556.648 133.526 557.385 132.974C558.122 132.237 558.675 131.868 559.596 131.868ZM566.966 126.158L566.229 133.342H567.703C567.888 132.79 568.44 132.421 568.809 132.237C569.362 131.868 569.915 131.868 570.467 131.868C571.389 131.868 572.126 132.237 572.678 132.79C573.231 133.342 573.6 134.263 573.6 135.184C573.6 136.105 573.231 136.842 572.678 137.395C572.126 137.947 571.389 138.316 570.467 138.316C569.73 138.316 568.993 138.132 568.44 137.763C567.888 137.395 567.519 136.658 567.519 135.921H566.045C566.045 137.211 566.598 138.132 567.519 138.684C568.256 139.237 569.362 139.605 570.467 139.605C571.757 139.605 572.863 139.237 573.784 138.316C574.705 137.395 575.258 136.474 575.258 135C575.258 133.526 574.89 132.421 574.152 131.684C573.415 130.947 572.31 130.579 571.02 130.579C570.467 130.579 569.914 130.579 569.362 130.947C568.809 131.132 568.256 131.5 567.888 131.868L568.256 127.447H574.705V126.158H566.966Z" fill="black"/>
<path d="M9.21289 287.526H584.286" stroke="#E0E0E0"/>
<path d="M58.9635 137.395H25.7969V286.605H58.9635V137.395Z" fill="#FF7876"/>
<path d="M143.721 133.71H110.555V286.605H143.721V133.71Z" fill="#FF7876"/>
<path d="M228.481 137.395H195.314V286.605H228.481V137.395Z" fill="#FF7876"/>
<path d="M313.241 122.658H280.074V286.605H313.241V122.658Z" fill="#FF7876"/>
<path d="M398.001 130.026H364.834V286.605H398.001V130.026Z" fill="#FF7876"/>
<path d="M482.758 148.447H449.592V286.605H482.758V148.447Z" fill="#FF7876"/>
<path d="M567.518 153.974H534.352V286.605H567.518V153.974Z" fill="#FF7876"/>
<rect x="85" y="352.316" width="36" height="6" fill="#FF7876"/>
<path d="M129.1 361.876C128.68 361.876 128.46 361.636 128.46 361.196V349.756C128.46 349.236 128.78 348.876 129.28 348.876H132.56C135.62 348.876 137.34 350.316 137.34 352.876C137.34 355.496 135.68 356.936 132.48 356.936H129.96V361.196C129.96 361.596 129.74 361.876 129.3 361.876H129.1ZM132.52 355.696C134.7 355.696 135.82 354.696 135.82 352.916C135.82 351.116 134.7 350.156 132.54 350.156H129.96V355.696H132.52ZM138.637 357.036C138.637 354.136 140.637 352.056 143.497 352.056C146.317 352.056 148.317 354.156 148.317 357.076C148.317 359.956 146.317 362.036 143.477 362.036C140.617 362.036 138.637 359.936 138.637 357.036ZM146.917 357.076C146.917 354.876 145.497 353.276 143.497 353.276C141.497 353.276 140.037 354.836 140.037 357.036C140.037 359.236 141.497 360.816 143.497 360.816C145.477 360.816 146.917 359.256 146.917 357.076ZM155.212 352.056C157.712 352.056 159.612 354.036 159.612 357.016C159.612 359.996 157.752 362.036 155.172 362.036C153.432 362.036 152.232 361.076 151.732 360.036V364.996C151.732 365.496 151.472 365.676 151.112 365.676H150.952C150.572 365.676 150.312 365.496 150.312 364.996V352.356C150.312 352.316 150.532 352.196 150.812 352.196C151.232 352.196 151.632 352.436 151.692 353.276C151.692 353.516 151.712 353.836 151.712 354.096C152.412 352.856 153.552 352.056 155.212 352.056ZM154.912 360.816C156.872 360.816 158.192 359.296 158.192 357.036C158.192 354.816 156.812 353.276 154.952 353.276C153.352 353.276 152.252 354.196 151.712 355.576V357.696C151.712 359.456 153.152 360.816 154.912 360.816ZM169.201 352.196C169.581 352.196 169.841 352.356 169.841 352.876V361.736C169.841 361.776 169.601 361.896 169.321 361.896C168.921 361.896 168.561 361.696 168.481 360.956C168.461 360.696 168.441 360.436 168.441 360.176C167.801 361.236 166.701 362.036 165.161 362.036C162.701 362.036 161.501 360.336 161.501 357.876V352.876C161.501 352.356 161.761 352.196 162.141 352.196H162.301C162.681 352.196 162.941 352.356 162.941 352.876V357.776C162.941 359.616 163.841 360.756 165.461 360.756C166.841 360.756 167.881 359.976 168.401 358.816V352.876C168.401 352.356 168.661 352.196 169.021 352.196H169.201ZM173.141 361.876C172.761 361.876 172.501 361.716 172.501 361.196V348.336C172.501 348.276 172.741 348.176 173.021 348.176C173.481 348.176 173.941 348.416 173.941 349.456V361.196C173.941 361.716 173.681 361.876 173.301 361.876H173.141ZM176 359.356C176 357.196 178.04 356.276 182.54 356.216H182.76V355.816C182.76 354.196 181.82 353.296 180.18 353.296C178.66 353.296 177.74 354.036 177.26 354.996C177.22 355.016 176.38 354.976 176.38 354.256C176.38 353.976 176.58 353.556 176.96 353.196C177.58 352.596 178.68 352.056 180.26 352.056C182.8 352.056 184.18 353.476 184.18 355.836V361.736C184.18 361.796 183.92 361.896 183.66 361.896C183.24 361.896 182.9 361.696 182.82 360.976C182.8 360.696 182.78 360.396 182.78 360.096C182.14 361.256 180.84 362.016 179.24 362.016C177.24 362.016 176 360.976 176 359.356ZM182.76 358.076V357.156L182.42 357.176C178.94 357.256 177.44 357.856 177.44 359.316C177.44 360.316 178.24 360.936 179.52 360.936C181.36 360.936 182.76 359.696 182.76 358.076ZM189.782 362.036C188.022 362.036 187.162 361.056 187.162 359.036V353.496H186.222C185.762 353.496 185.602 353.296 185.602 352.956V352.816C185.602 352.476 185.762 352.276 186.222 352.276H187.162V350.596C187.162 350.096 187.422 349.896 187.802 349.896H187.962C188.342 349.896 188.582 350.076 188.582 350.596V352.276H191.002C191.442 352.276 191.622 352.456 191.622 352.816V352.936C191.622 353.296 191.442 353.496 190.982 353.496H188.562V358.816C188.562 360.216 188.982 360.816 189.982 360.816C190.622 360.816 191.102 360.516 191.402 360.076C191.462 360.036 191.802 360.236 191.802 360.736C191.802 360.976 191.702 361.236 191.442 361.476C191.102 361.796 190.562 362.036 189.782 362.036ZM193.317 349.276C193.317 348.676 193.657 348.356 194.237 348.356C194.817 348.356 195.157 348.676 195.157 349.276C195.157 349.856 194.797 350.176 194.217 350.176C193.657 350.176 193.317 349.856 193.317 349.276ZM193.497 361.196V352.896C193.497 352.376 193.757 352.196 194.137 352.196H194.297C194.677 352.196 194.937 352.356 194.937 352.896V361.196C194.937 361.716 194.677 361.876 194.297 361.876H194.137C193.757 361.876 193.497 361.716 193.497 361.196ZM196.996 357.036C196.996 354.136 198.996 352.056 201.856 352.056C204.676 352.056 206.676 354.156 206.676 357.076C206.676 359.956 204.676 362.036 201.836 362.036C198.976 362.036 196.996 359.936 196.996 357.036ZM205.276 357.076C205.276 354.876 203.856 353.276 201.856 353.276C199.856 353.276 198.396 354.836 198.396 357.036C198.396 359.236 199.856 360.816 201.856 360.816C203.836 360.816 205.276 359.256 205.276 357.076ZM213.331 352.056C215.791 352.056 216.991 353.756 216.991 356.196V361.196C216.991 361.716 216.731 361.876 216.371 361.876H216.191C215.811 361.876 215.551 361.716 215.551 361.196V356.316C215.551 354.476 214.671 353.336 213.051 353.336C211.651 353.336 210.611 354.116 210.091 355.256V361.196C210.091 361.716 209.831 361.876 209.471 361.876H209.291C208.911 361.876 208.651 361.716 208.651 361.196V352.356C208.651 352.316 208.891 352.196 209.171 352.196C209.611 352.196 210.011 352.416 210.051 353.396V353.956C210.691 352.816 211.811 352.056 213.331 352.056ZM224.531 365.736C223.731 365.736 222.631 365.256 221.651 364.216C220.231 362.736 219.211 360.296 219.211 357.256C219.211 354.296 220.291 351.776 221.671 350.336C222.671 349.276 223.731 348.796 224.531 348.796C224.951 348.796 225.171 348.976 225.171 349.356C225.171 349.576 225.031 349.856 224.951 349.876C222.331 350.476 220.671 353.616 220.671 357.236C220.671 360.976 222.331 364.056 224.951 364.656C225.011 364.676 225.171 364.936 225.171 365.176C225.171 365.556 224.951 365.736 224.531 365.736ZM229.299 361.896C228.879 361.896 228.679 361.656 228.679 361.196V351.076C228.359 351.516 227.839 351.796 227.219 351.796C226.739 351.796 226.339 351.636 226.079 351.396C225.879 351.196 225.759 350.936 225.759 350.636C225.759 350.136 226.139 349.836 226.199 349.876C226.439 350.156 226.819 350.356 227.339 350.356C228.199 350.356 228.899 349.676 228.959 348.796H229.499C229.939 348.796 230.159 349.036 230.159 349.496V361.196C230.159 361.656 229.939 361.896 229.499 361.896H229.299ZM238.414 362.036C235.254 362.036 233.314 359.736 233.314 356.016V354.696C233.314 350.976 235.274 348.656 238.434 348.656C241.614 348.656 243.574 350.976 243.574 354.676V355.976C243.574 359.696 241.594 362.036 238.414 362.036ZM238.434 360.756C240.714 360.756 242.054 359.016 242.054 356.036V354.676C242.054 351.696 240.694 349.916 238.434 349.916C236.174 349.916 234.834 351.676 234.834 354.636V356.016C234.834 358.996 236.194 360.756 238.434 360.756ZM245.937 361.196V348.336C245.937 348.276 246.157 348.176 246.437 348.176C246.897 348.176 247.357 348.416 247.357 349.456V356.616L251.137 352.736C251.437 352.376 251.757 352.216 252.017 352.196C252.537 352.176 252.817 352.676 252.777 352.796L248.857 356.756L253.297 361.256C253.337 361.396 253.057 361.916 252.517 361.896C252.217 361.876 251.937 361.716 251.637 361.356L247.357 357.036V361.196C247.357 361.716 247.097 361.876 246.737 361.876H246.557C246.197 361.876 245.937 361.736 245.937 361.196ZM254.304 365.736C253.884 365.736 253.644 365.556 253.644 365.176C253.644 364.936 253.824 364.676 253.864 364.656C256.504 364.056 258.144 360.976 258.144 357.236C258.144 353.616 256.504 350.476 253.864 349.876C253.804 349.856 253.644 349.576 253.644 349.356C253.644 348.976 253.884 348.796 254.304 348.796C255.144 348.796 256.244 349.316 257.244 350.436C258.604 351.876 259.624 354.376 259.624 357.256C259.624 360.236 258.624 362.636 257.264 364.116C256.244 365.216 255.144 365.736 254.304 365.736Z" fill="black"/>
<line x1="339" y1="355.316" x2="373" y2="355.316" stroke="#F8BB2A"/>
<circle cx="356.5" cy="355.316" r="6.5" fill="#F8BB2A"/>
<path d="M380.28 361.816C379.78 361.816 379.46 361.456 379.46 360.936V349.756C379.46 349.236 379.78 348.876 380.28 348.876H384.36C387.1 348.876 388.56 350.056 388.56 352.196C388.56 353.656 387.74 354.616 386.2 355.036C388.18 355.436 389.12 356.616 389.12 358.236C389.12 360.656 387.58 361.816 384.4 361.816H380.28ZM380.96 354.656H384.26C385.98 354.656 387 353.736 387 352.356C387 350.876 386.08 350.116 384.2 350.116H380.96V354.656ZM380.96 360.576H384.34C386.58 360.576 387.56 359.876 387.56 358.136C387.56 356.556 386.5 355.796 384.36 355.796H380.96V360.576ZM391.095 349.276C391.095 348.676 391.435 348.356 392.015 348.356C392.595 348.356 392.935 348.676 392.935 349.276C392.935 349.856 392.575 350.176 391.995 350.176C391.435 350.176 391.095 349.856 391.095 349.276ZM391.275 361.196V352.896C391.275 352.376 391.535 352.196 391.915 352.196H392.075C392.455 352.196 392.715 352.356 392.715 352.896V361.196C392.715 361.716 392.455 361.876 392.075 361.876H391.915C391.535 361.876 391.275 361.716 391.275 361.196ZM399.254 352.056C400.114 352.056 400.674 352.476 400.674 353.096C400.674 353.676 400.274 353.916 400.234 353.876C399.994 353.636 399.614 353.476 399.094 353.476C397.534 353.476 396.814 355.016 396.814 357.416V361.196C396.814 361.696 396.554 361.876 396.194 361.876H396.034C395.634 361.876 395.374 361.716 395.374 361.196V352.356C395.374 352.316 395.594 352.196 395.894 352.196C396.294 352.196 396.654 352.396 396.734 353.156C396.754 353.496 396.774 353.836 396.774 354.196C397.154 352.756 398.034 352.056 399.254 352.056ZM405.528 362.036C403.768 362.036 402.908 361.056 402.908 359.036V353.496H401.968C401.508 353.496 401.348 353.296 401.348 352.956V352.816C401.348 352.476 401.508 352.276 401.968 352.276H402.908V350.596C402.908 350.096 403.168 349.896 403.548 349.896H403.708C404.088 349.896 404.328 350.076 404.328 350.596V352.276H406.748C407.188 352.276 407.368 352.456 407.368 352.816V352.936C407.368 353.296 407.188 353.496 406.728 353.496H404.308V358.816C404.308 360.216 404.728 360.816 405.728 360.816C406.368 360.816 406.848 360.516 407.148 360.076C407.208 360.036 407.548 360.236 407.548 360.736C407.548 360.976 407.448 361.236 407.188 361.476C406.848 361.796 406.308 362.036 405.528 362.036ZM413.803 352.056C416.283 352.056 417.483 353.756 417.483 356.216V361.196C417.483 361.716 417.223 361.876 416.863 361.876H416.683C416.303 361.876 416.043 361.716 416.043 361.196V356.316C416.043 354.476 415.143 353.356 413.523 353.356C411.823 353.356 410.603 354.516 410.583 356.296V361.196C410.583 361.716 410.323 361.876 409.963 361.876H409.783C409.403 361.876 409.143 361.716 409.143 361.196V348.336C409.143 348.276 409.383 348.176 409.663 348.176C410.123 348.176 410.583 348.416 410.583 349.456V354.016C411.183 352.836 412.303 352.056 413.803 352.056ZM427.262 352.056C428.122 352.056 428.682 352.476 428.682 353.096C428.682 353.676 428.282 353.916 428.242 353.876C428.002 353.636 427.622 353.476 427.102 353.476C425.542 353.476 424.822 355.016 424.822 357.416V361.196C424.822 361.696 424.562 361.876 424.202 361.876H424.042C423.642 361.876 423.382 361.716 423.382 361.196V352.356C423.382 352.316 423.602 352.196 423.902 352.196C424.302 352.196 424.662 352.396 424.742 353.156C424.762 353.496 424.782 353.836 424.782 354.196C425.162 352.756 426.042 352.056 427.262 352.056ZM429.481 359.356C429.481 357.196 431.521 356.276 436.021 356.216H436.241V355.816C436.241 354.196 435.301 353.296 433.661 353.296C432.141 353.296 431.221 354.036 430.741 354.996C430.701 355.016 429.861 354.976 429.861 354.256C429.861 353.976 430.061 353.556 430.441 353.196C431.061 352.596 432.161 352.056 433.741 352.056C436.281 352.056 437.661 353.476 437.661 355.836V361.736C437.661 361.796 437.401 361.896 437.141 361.896C436.721 361.896 436.381 361.696 436.301 360.976C436.281 360.696 436.261 360.396 436.261 360.096C435.621 361.256 434.321 362.016 432.721 362.016C430.721 362.016 429.481 360.976 429.481 359.356ZM436.241 358.076V357.156L435.901 357.176C432.421 357.256 430.921 357.856 430.921 359.316C430.921 360.316 431.721 360.936 433.001 360.936C434.841 360.936 436.241 359.696 436.241 358.076ZM443.262 362.036C441.502 362.036 440.642 361.056 440.642 359.036V353.496H439.702C439.242 353.496 439.082 353.296 439.082 352.956V352.816C439.082 352.476 439.242 352.276 439.702 352.276H440.642V350.596C440.642 350.096 440.902 349.896 441.282 349.896H441.442C441.822 349.896 442.062 350.076 442.062 350.596V352.276H444.482C444.922 352.276 445.102 352.456 445.102 352.816V352.936C445.102 353.296 444.922 353.496 444.462 353.496H442.042V358.816C442.042 360.216 442.462 360.816 443.462 360.816C444.102 360.816 444.582 360.516 444.882 360.076C444.942 360.036 445.282 360.236 445.282 360.736C445.282 360.976 445.182 361.236 444.922 361.476C444.582 361.796 444.042 362.036 443.262 362.036ZM446.278 357.096C446.278 354.196 448.258 352.056 450.998 352.056C453.658 352.056 455.378 353.936 455.378 356.756V356.896C455.378 357.236 455.238 357.356 454.878 357.356H447.658C447.658 357.436 447.658 357.536 447.678 357.636C447.858 359.556 449.238 360.836 451.158 360.836C452.938 360.836 453.778 359.996 454.258 359.076C454.338 359.036 455.078 359.196 455.078 359.836C455.078 360.136 454.838 360.596 454.318 361.016C453.718 361.536 452.618 362.036 451.138 362.036C448.238 362.036 446.278 360.016 446.278 357.096ZM453.958 356.316C453.878 354.456 452.738 353.216 450.998 353.216C449.258 353.216 447.958 354.496 447.698 356.316H453.958ZM462.387 365.736C461.587 365.736 460.487 365.256 459.507 364.216C458.087 362.736 457.067 360.296 457.067 357.256C457.067 354.296 458.147 351.776 459.527 350.336C460.527 349.276 461.587 348.796 462.387 348.796C462.807 348.796 463.027 348.976 463.027 349.356C463.027 349.576 462.887 349.856 462.807 349.876C460.187 350.476 458.527 353.616 458.527 357.236C458.527 360.976 460.187 364.056 462.807 364.656C462.867 364.676 463.027 364.936 463.027 365.176C463.027 365.556 462.807 365.736 462.387 365.736ZM465.455 361.956C465.395 362.036 464.775 361.836 464.795 361.396C464.795 361.096 464.895 360.896 465.255 360.496L475.095 348.656C475.175 348.596 475.775 348.756 475.775 349.216C475.775 349.456 475.635 349.736 475.295 350.136L465.455 361.956ZM466.855 354.776C465.175 354.776 463.915 353.496 463.915 351.816V351.676C463.915 349.996 465.195 348.696 466.875 348.696C468.555 348.696 469.795 349.976 469.795 351.636V351.796C469.795 353.456 468.515 354.776 466.855 354.776ZM466.875 353.776C467.895 353.776 468.635 352.956 468.635 351.856V351.616C468.635 350.496 467.875 349.676 466.855 349.676C465.835 349.676 465.075 350.496 465.075 351.616V351.856C465.075 352.956 465.835 353.776 466.875 353.776ZM473.775 361.936C472.095 361.936 470.835 360.636 470.835 358.976V358.816C470.835 357.156 472.115 355.836 473.795 355.836C475.475 355.836 476.715 357.136 476.715 358.776V358.956C476.715 360.596 475.455 361.936 473.775 361.936ZM480.615 361.936C478.935 361.936 477.675 360.636 477.675 358.976V358.816C477.675 357.156 478.955 355.836 480.635 355.836C482.315 355.836 483.555 357.136 483.555 358.776V358.956C483.555 360.596 482.275 361.936 480.615 361.936ZM473.795 360.916C474.815 360.916 475.555 360.116 475.555 358.996V358.756C475.555 357.656 474.795 356.836 473.775 356.836C472.735 356.836 472.015 357.636 472.015 358.756V358.996C472.015 360.096 472.755 360.916 473.795 360.916ZM480.635 360.916C481.655 360.916 482.395 360.116 482.395 358.996V358.756C482.395 357.656 481.635 356.836 480.615 356.836C479.575 356.836 478.835 357.636 478.835 358.756V358.996C478.835 360.096 479.595 360.916 480.635 360.916ZM485.031 365.736C484.611 365.736 484.371 365.556 484.371 365.176C484.371 364.936 484.551 364.676 484.591 364.656C487.231 364.056 488.871 360.976 488.871 357.236C488.871 353.616 487.231 350.476 484.591 349.876C484.531 349.856 484.371 349.576 484.371 349.356C484.371 348.976 484.611 348.796 485.031 348.796C485.871 348.796 486.971 349.316 487.971 350.436C489.331 351.876 490.351 354.376 490.351 357.256C490.351 360.236 489.351 362.636 487.991 364.116C486.971 365.216 485.871 365.736 485.031 365.736Z" fill="black"/>
</svg>
