<svg width="366" height="201" viewBox="0 0 366 201" fill="none" xmlns="http://www.w3.org/2000/svg">
<path d="M103.704 23.336C99.456 23.336 96.912 20.504 96.912 16.016V14.48C96.912 9.992 99.48 7.136 103.704 7.136C107.928 7.136 110.472 9.968 110.472 14.456V15.968C110.472 20.48 107.928 23.336 103.704 23.336ZM103.704 20.432C105.816 20.432 106.944 18.968 106.944 16.232V14.24C106.944 11.504 105.768 9.992 103.704 9.992C101.592 9.992 100.488 11.456 100.488 14.192V16.232C100.488 18.944 101.616 20.432 103.704 20.432ZM112.262 17.384V16.856C112.262 16.16 112.742 15.56 113.654 15.56H119.366C120.302 15.56 120.758 16.16 120.758 16.856V17.384C120.758 18.104 120.302 18.68 119.366 18.68H113.654C112.742 18.68 112.262 18.104 112.262 17.384ZM127.905 23.336C126.009 23.336 124.521 22.856 123.513 22.16C122.505 21.488 121.953 20.6 121.953 19.784C121.953 18.008 124.017 17.96 124.041 18.104C124.545 19.712 125.985 20.576 127.881 20.576C129.753 20.576 130.929 19.736 130.929 18.368C130.929 16.952 129.993 16.232 128.169 16.232H127.353C126.177 16.232 125.721 15.8 125.721 15.032V14.84C125.721 14 126.249 13.64 127.305 13.64H128.457C129.897 13.64 130.665 12.944 130.665 11.816C130.665 10.616 129.609 9.872 127.833 9.872C125.817 9.872 124.833 10.952 124.377 12.104C124.353 12.248 122.337 12.176 122.337 10.448C122.337 9.632 122.889 8.816 123.849 8.192C124.809 7.568 126.201 7.136 127.905 7.136C131.817 7.136 134.001 8.672 134.001 11.408C134.001 13.04 133.065 14.12 131.289 14.648C133.233 15.296 134.313 16.688 134.313 18.584C134.313 21.584 131.985 23.336 127.905 23.336ZM144.356 27.608C143.372 27.608 142.484 26.84 142.556 26.672L144.476 22.256C143.948 22.16 143.588 21.992 143.396 21.488L139.364 12.152C139.292 11.96 140.18 11.168 141.212 11.144C142.028 11.144 142.7 11.552 143.132 12.848L145.628 19.568L147.884 12.872C148.292 11.552 149.012 11.144 149.78 11.144C150.716 11.144 151.676 11.936 151.604 12.104L146.276 25.952C145.772 27.224 145.1 27.608 144.356 27.608ZM152.383 17.24C152.383 13.664 154.927 11.024 158.455 11.024C161.935 11.024 164.287 13.448 164.287 16.88V17.096C164.263 17.672 164.095 17.984 163.471 17.984H155.359L155.431 18.368C155.791 19.904 157.063 20.888 158.791 20.888C160.543 20.888 161.551 20.12 162.079 19.184C162.103 19.136 163.735 19.28 163.735 20.624C163.735 21.272 163.279 21.944 162.439 22.448C161.575 22.976 160.327 23.336 158.695 23.336C154.879 23.336 152.383 20.96 152.383 17.24ZM161.167 16.136C161.071 14.432 160.039 13.352 158.431 13.352C156.823 13.352 155.623 14.504 155.407 16.136H161.167ZM165.578 19.904C165.578 17.288 168.122 16.088 173.09 16.016H173.474C173.474 15.896 173.474 15.776 173.45 15.68C173.402 14.312 172.562 13.568 171.074 13.568C169.466 13.568 168.602 14.384 168.194 15.272C168.17 15.32 166.01 15.488 166.01 13.928C166.01 13.4 166.25 12.848 166.73 12.392C167.522 11.576 169.034 11.024 171.29 11.024C175.01 11.024 176.81 12.728 176.81 15.872V22.784C176.81 22.952 176.186 23.168 175.538 23.168C174.722 23.168 174.074 22.832 173.762 22.04C173.69 21.824 173.618 21.56 173.57 21.248C172.754 22.52 171.266 23.264 169.514 23.264C167.066 23.264 165.578 21.92 165.578 19.904ZM173.474 18.56V17.72H172.826C170.162 17.816 168.746 18.32 168.746 19.64C168.746 20.528 169.442 21.08 170.57 21.08C172.25 21.08 173.45 20.048 173.474 18.56ZM185.425 11.024C186.769 11.024 187.585 11.792 187.585 12.992C187.585 14.336 186.553 14.816 186.505 14.768C186.145 14.456 185.617 14.192 184.969 14.192C183.337 14.192 182.617 15.632 182.617 17.984V21.488C182.617 22.712 181.993 23.096 181.129 23.096H180.769C179.857 23.096 179.233 22.736 179.233 21.488V11.552C179.233 11.432 179.809 11.168 180.505 11.168C181.201 11.168 181.969 11.456 182.353 12.44C182.425 12.656 182.473 12.944 182.521 13.256C182.977 11.864 183.961 11.024 185.425 11.024ZM189.27 22.376C188.598 21.92 188.238 21.344 188.238 20.696C188.238 19.832 189.174 19.28 189.27 19.352C190.062 20.24 191.406 20.936 193.134 20.936C194.454 20.936 195.174 20.48 195.174 19.736C195.174 18.824 194.238 18.656 192.678 18.32C191.07 17.984 188.574 17.456 188.574 14.816C188.574 12.536 190.422 11.024 193.446 11.024C195.822 11.024 197.286 11.672 197.886 12.584C198.078 12.872 198.174 13.208 198.174 13.544C198.174 14.432 197.142 15.032 197.094 14.96C196.302 14.048 195.03 13.376 193.662 13.376C192.366 13.376 191.67 13.856 191.67 14.6C191.67 15.44 192.582 15.608 194.166 15.968C195.822 16.328 198.462 16.856 198.462 19.496C198.462 21.848 196.59 23.264 193.302 23.264C191.454 23.264 190.11 22.904 189.27 22.376ZM203.899 17.144C203.899 13.544 206.443 11.024 210.163 11.024C213.859 11.024 216.379 13.544 216.379 17.192C216.379 20.84 213.835 23.336 210.115 23.336C206.395 23.336 203.899 20.84 203.899 17.144ZM213.379 17.192C213.379 15.128 212.035 13.664 210.139 13.664C208.243 13.664 206.875 15.128 206.875 17.144C206.875 19.184 208.243 20.672 210.139 20.672C212.011 20.672 213.379 19.184 213.379 17.192ZM219.911 23.096C219.023 23.096 218.375 22.736 218.375 21.488V6.704C218.375 6.608 218.975 6.32 219.647 6.32C220.655 6.32 221.759 6.848 221.759 9.032V21.488C221.759 22.712 221.135 23.096 220.271 23.096H219.911ZM229.173 23.336C226.005 23.336 223.797 20.84 223.797 17.168C223.797 13.448 226.005 11.024 229.245 11.024C230.925 11.024 232.269 11.792 232.941 12.8V6.704C232.941 6.608 233.541 6.32 234.213 6.32C235.221 6.32 236.325 6.848 236.325 9.032V21.488C236.325 22.712 235.725 23.096 234.837 23.096H234.501C233.733 23.096 233.157 22.832 233.037 21.92C233.013 21.656 232.989 21.392 232.989 21.104C232.197 22.472 230.901 23.336 229.173 23.336ZM232.965 17.816V15.608C232.461 14.456 231.501 13.736 230.061 13.736C228.237 13.736 227.013 15.056 227.013 17.168C227.013 19.208 228.261 20.624 230.013 20.624C231.621 20.624 232.965 19.496 232.965 17.816ZM242.84 7.688C242.84 6.608 243.56 5.936 244.736 5.936C245.912 5.936 246.632 6.608 246.632 7.688C246.632 8.768 245.936 9.44 244.736 9.44C243.584 9.44 242.84 8.768 242.84 7.688ZM243.032 21.488V12.8C243.032 11.576 243.68 11.168 244.544 11.168H244.904C245.792 11.168 246.416 11.552 246.416 12.8V21.488C246.416 22.712 245.792 23.096 244.904 23.096H244.568C243.656 23.096 243.032 22.736 243.032 21.488ZM256.182 11.024C259.23 11.024 260.526 13.184 260.526 15.848V21.488C260.526 22.712 259.878 23.096 259.014 23.096H258.654C257.766 23.096 257.142 22.736 257.142 21.488V16.376C257.142 14.816 256.35 13.856 254.982 13.856C253.806 13.856 252.894 14.48 252.414 15.392V21.488C252.414 22.712 251.79 23.096 250.926 23.096H250.566C249.654 23.096 249.03 22.736 249.03 21.488V11.552C249.03 11.432 249.63 11.168 250.302 11.168C251.214 11.168 252.126 11.624 252.318 13.136C253.158 11.888 254.382 11.024 256.182 11.024ZM264.176 21.488V13.928H263.24C262.256 13.928 261.824 13.496 261.824 12.68V12.464C261.824 11.696 262.256 11.288 263.24 11.288H264.2V10.664C264.2 7.424 265.808 6.176 268.232 6.176C269.336 6.176 270.104 6.44 270.584 6.8C271.016 7.136 271.208 7.568 271.208 8.024C271.208 8.84 270.536 9.464 270.488 9.392C270.152 9.08 269.552 8.768 268.88 8.768C267.896 8.768 267.44 9.32 267.44 10.664V11.288H268.952C269.936 11.288 270.368 11.72 270.368 12.536V12.728C270.368 13.52 269.936 13.928 268.952 13.928H267.56V21.488C267.56 22.736 266.96 23.096 266.072 23.096H265.712C264.848 23.096 264.176 22.712 264.176 21.488ZM271.258 19.904C271.258 17.288 273.802 16.088 278.77 16.016H279.154C279.154 15.896 279.154 15.776 279.13 15.68C279.082 14.312 278.242 13.568 276.754 13.568C275.146 13.568 274.282 14.384 273.874 15.272C273.85 15.32 271.69 15.488 271.69 13.928C271.69 13.4 271.93 12.848 272.41 12.392C273.202 11.576 274.714 11.024 276.97 11.024C280.69 11.024 282.49 12.728 282.49 15.872V22.784C282.49 22.952 281.866 23.168 281.218 23.168C280.402 23.168 279.754 22.832 279.442 22.04C279.37 21.824 279.298 21.56 279.25 21.248C278.434 22.52 276.946 23.264 275.194 23.264C272.746 23.264 271.258 21.92 271.258 19.904ZM279.154 18.56V17.72H278.506C275.842 17.816 274.426 18.32 274.426 19.64C274.426 20.528 275.122 21.08 276.25 21.08C277.93 21.08 279.13 20.048 279.154 18.56ZM292.065 11.024C295.113 11.024 296.409 13.184 296.409 15.848V21.488C296.409 22.712 295.761 23.096 294.897 23.096H294.537C293.649 23.096 293.025 22.736 293.025 21.488V16.376C293.025 14.816 292.233 13.856 290.865 13.856C289.689 13.856 288.777 14.48 288.297 15.392V21.488C288.297 22.712 287.673 23.096 286.809 23.096H286.449C285.537 23.096 284.913 22.736 284.913 21.488V11.552C284.913 11.432 285.513 11.168 286.185 11.168C287.097 11.168 288.009 11.624 288.201 13.136C289.041 11.888 290.265 11.024 292.065 11.024ZM303.635 23.336C301.067 23.336 299.867 21.968 299.867 19.304V13.928H299.267C298.307 13.928 297.875 13.496 297.875 12.728V12.536C297.875 11.744 298.307 11.288 299.243 11.288H299.867V9.8C299.867 8.696 300.419 8.168 301.379 8.168H301.691C302.579 8.168 303.179 8.552 303.179 9.8V11.288H305.219C306.179 11.288 306.587 11.696 306.587 12.464V12.68C306.587 13.496 306.155 13.928 305.195 13.928H303.131V18.92C303.131 20.072 303.491 20.648 304.427 20.648C305.099 20.648 305.579 20.312 305.891 19.856C306.011 19.808 306.731 20.288 306.731 21.176C306.731 21.68 306.539 22.112 306.155 22.472C305.627 23 304.763 23.336 303.635 23.336ZM308.684 22.376C308.012 21.92 307.652 21.344 307.652 20.696C307.652 19.832 308.588 19.28 308.684 19.352C309.476 20.24 310.82 20.936 312.548 20.936C313.868 20.936 314.588 20.48 314.588 19.736C314.588 18.824 313.652 18.656 312.092 18.32C310.484 17.984 307.988 17.456 307.988 14.816C307.988 12.536 309.836 11.024 312.86 11.024C315.236 11.024 316.7 11.672 317.3 12.584C317.492 12.872 317.588 13.208 317.588 13.544C317.588 14.432 316.556 15.032 316.508 14.96C315.716 14.048 314.444 13.376 313.076 13.376C311.78 13.376 311.084 13.856 311.084 14.6C311.084 15.44 311.996 15.608 313.58 15.968C315.236 16.328 317.876 16.856 317.876 19.496C317.876 21.848 316.004 23.264 312.716 23.264C310.868 23.264 309.524 22.904 308.684 22.376Z" fill="#FF7876"/>
<path d="M102.288 139.336C100.392 139.336 98.904 138.856 97.896 138.16C96.888 137.488 96.336 136.6 96.336 135.784C96.336 134.008 98.4 133.96 98.424 134.104C98.928 135.712 100.368 136.576 102.264 136.576C104.136 136.576 105.312 135.736 105.312 134.368C105.312 132.952 104.376 132.232 102.552 132.232H101.736C100.56 132.232 100.104 131.8 100.104 131.032V130.84C100.104 130 100.632 129.64 101.688 129.64H102.84C104.28 129.64 105.048 128.944 105.048 127.816C105.048 126.616 103.992 125.872 102.216 125.872C100.2 125.872 99.216 126.952 98.76 128.104C98.736 128.248 96.72 128.176 96.72 126.448C96.72 125.632 97.272 124.816 98.232 124.192C99.192 123.568 100.584 123.136 102.288 123.136C106.2 123.136 108.384 124.672 108.384 127.408C108.384 129.04 107.448 130.12 105.672 130.648C107.616 131.296 108.696 132.688 108.696 134.584C108.696 137.584 106.368 139.336 102.288 139.336ZM115.765 138.688C115.045 138.688 114.565 138.28 114.565 137.296V134.056H111.565C110.581 134.056 110.173 133.576 110.173 132.856V132.688C110.173 131.992 110.581 131.512 111.565 131.512H114.565V128.416C114.565 127.456 115.045 127.024 115.765 127.024H116.053C116.725 127.024 117.253 127.456 117.253 128.416V131.512H120.253C121.237 131.512 121.645 131.992 121.645 132.688V132.856C121.645 133.576 121.237 134.056 120.253 134.056H117.253V137.296C117.253 138.28 116.725 138.688 116.053 138.688H115.765ZM131.606 143.608C130.622 143.608 129.734 142.84 129.806 142.672L131.726 138.256C131.198 138.16 130.838 137.992 130.646 137.488L126.614 128.152C126.542 127.96 127.43 127.168 128.462 127.144C129.278 127.144 129.95 127.552 130.382 128.848L132.878 135.568L135.134 128.872C135.542 127.552 136.262 127.144 137.03 127.144C137.966 127.144 138.926 127.936 138.854 128.104L133.526 141.952C133.022 143.224 132.35 143.608 131.606 143.608ZM139.633 133.24C139.633 129.664 142.177 127.024 145.705 127.024C149.185 127.024 151.537 129.448 151.537 132.88V133.096C151.513 133.672 151.345 133.984 150.721 133.984H142.609L142.681 134.368C143.041 135.904 144.313 136.888 146.041 136.888C147.793 136.888 148.801 136.12 149.329 135.184C149.353 135.136 150.985 135.28 150.985 136.624C150.985 137.272 150.529 137.944 149.689 138.448C148.825 138.976 147.577 139.336 145.945 139.336C142.129 139.336 139.633 136.96 139.633 133.24ZM148.417 132.136C148.321 130.432 147.289 129.352 145.681 129.352C144.073 129.352 142.873 130.504 142.657 132.136H148.417ZM152.828 135.904C152.828 133.288 155.372 132.088 160.34 132.016H160.724C160.724 131.896 160.724 131.776 160.7 131.68C160.652 130.312 159.812 129.568 158.324 129.568C156.716 129.568 155.852 130.384 155.444 131.272C155.42 131.32 153.26 131.488 153.26 129.928C153.26 129.4 153.5 128.848 153.98 128.392C154.772 127.576 156.284 127.024 158.54 127.024C162.26 127.024 164.06 128.728 164.06 131.872V138.784C164.06 138.952 163.436 139.168 162.788 139.168C161.972 139.168 161.324 138.832 161.012 138.04C160.94 137.824 160.868 137.56 160.82 137.248C160.004 138.52 158.516 139.264 156.764 139.264C154.316 139.264 152.828 137.92 152.828 135.904ZM160.724 134.56V133.72H160.076C157.412 133.816 155.996 134.32 155.996 135.64C155.996 136.528 156.692 137.08 157.82 137.08C159.5 137.08 160.7 136.048 160.724 134.56ZM172.675 127.024C174.019 127.024 174.835 127.792 174.835 128.992C174.835 130.336 173.803 130.816 173.755 130.768C173.395 130.456 172.867 130.192 172.219 130.192C170.587 130.192 169.867 131.632 169.867 133.984V137.488C169.867 138.712 169.243 139.096 168.379 139.096H168.019C167.107 139.096 166.483 138.736 166.483 137.488V127.552C166.483 127.432 167.059 127.168 167.755 127.168C168.451 127.168 169.219 127.456 169.603 128.44C169.675 128.656 169.723 128.944 169.771 129.256C170.227 127.864 171.211 127.024 172.675 127.024ZM176.52 138.376C175.848 137.92 175.488 137.344 175.488 136.696C175.488 135.832 176.424 135.28 176.52 135.352C177.312 136.24 178.656 136.936 180.384 136.936C181.704 136.936 182.424 136.48 182.424 135.736C182.424 134.824 181.488 134.656 179.928 134.32C178.32 133.984 175.824 133.456 175.824 130.816C175.824 128.536 177.672 127.024 180.696 127.024C183.072 127.024 184.536 127.672 185.136 128.584C185.328 128.872 185.424 129.208 185.424 129.544C185.424 130.432 184.392 131.032 184.344 130.96C183.552 130.048 182.28 129.376 180.912 129.376C179.616 129.376 178.92 129.856 178.92 130.6C178.92 131.44 179.832 131.608 181.416 131.968C183.072 132.328 185.712 132.856 185.712 135.496C185.712 137.848 183.84 139.264 180.552 139.264C178.704 139.264 177.36 138.904 176.52 138.376ZM191.149 133.144C191.149 129.544 193.693 127.024 197.413 127.024C201.109 127.024 203.629 129.544 203.629 133.192C203.629 136.84 201.085 139.336 197.365 139.336C193.645 139.336 191.149 136.84 191.149 133.144ZM200.629 133.192C200.629 131.128 199.285 129.664 197.389 129.664C195.493 129.664 194.125 131.128 194.125 133.144C194.125 135.184 195.493 136.672 197.389 136.672C199.261 136.672 200.629 135.184 200.629 133.192ZM207.161 139.096C206.273 139.096 205.625 138.736 205.625 137.488V122.704C205.625 122.608 206.225 122.32 206.897 122.32C207.905 122.32 209.009 122.848 209.009 125.032V137.488C209.009 138.712 208.385 139.096 207.521 139.096H207.161ZM216.423 139.336C213.255 139.336 211.047 136.84 211.047 133.168C211.047 129.448 213.255 127.024 216.495 127.024C218.175 127.024 219.519 127.792 220.191 128.8V122.704C220.191 122.608 220.791 122.32 221.463 122.32C222.471 122.32 223.575 122.848 223.575 125.032V137.488C223.575 138.712 222.975 139.096 222.087 139.096H221.751C220.983 139.096 220.407 138.832 220.287 137.92C220.263 137.656 220.239 137.392 220.239 137.104C219.447 138.472 218.151 139.336 216.423 139.336ZM220.215 133.816V131.608C219.711 130.456 218.751 129.736 217.311 129.736C215.487 129.736 214.263 131.056 214.263 133.168C214.263 135.208 215.511 136.624 217.263 136.624C218.871 136.624 220.215 135.496 220.215 133.816ZM229.61 133.144C229.61 129.592 232.178 127.024 235.73 127.024C237.53 127.024 238.778 127.552 239.57 128.2C240.362 128.848 240.722 129.64 240.722 130.216C240.722 131.584 238.898 131.848 238.826 131.704C238.37 130.576 237.53 129.76 235.874 129.76C234.05 129.76 232.706 131.176 232.706 133.144C232.706 135.16 234.026 136.6 235.874 136.6C237.482 136.6 238.37 135.784 238.826 134.656C238.898 134.512 240.722 134.704 240.722 136.168C240.722 136.72 240.362 137.512 239.546 138.136C238.754 138.808 237.482 139.336 235.73 139.336C232.13 139.336 229.61 136.792 229.61 133.144ZM249.666 127.024C252.738 127.024 254.034 129.232 254.034 131.968V137.488C254.034 138.712 253.386 139.096 252.522 139.096H252.162C251.274 139.096 250.65 138.736 250.65 137.488V132.424C250.65 130.816 249.834 129.856 248.49 129.856C246.906 129.856 245.922 130.888 245.922 132.592V137.488C245.922 138.712 245.274 139.096 244.41 139.096H244.05C243.162 139.096 242.538 138.736 242.538 137.488V122.704C242.538 122.608 243.114 122.32 243.81 122.32C244.794 122.32 245.922 122.848 245.922 125.032V129.136C246.738 127.864 247.89 127.024 249.666 127.024ZM256.34 123.688C256.34 122.608 257.06 121.936 258.236 121.936C259.412 121.936 260.132 122.608 260.132 123.688C260.132 124.768 259.436 125.44 258.236 125.44C257.084 125.44 256.34 124.768 256.34 123.688ZM256.532 137.488V128.8C256.532 127.576 257.18 127.168 258.044 127.168H258.404C259.292 127.168 259.916 127.552 259.916 128.8V137.488C259.916 138.712 259.292 139.096 258.404 139.096H258.068C257.156 139.096 256.532 138.736 256.532 137.488ZM264.208 139.096C263.32 139.096 262.672 138.736 262.672 137.488V122.704C262.672 122.608 263.272 122.32 263.944 122.32C264.952 122.32 266.056 122.848 266.056 125.032V137.488C266.056 138.712 265.432 139.096 264.568 139.096H264.208ZM273.47 139.336C270.302 139.336 268.094 136.84 268.094 133.168C268.094 129.448 270.302 127.024 273.542 127.024C275.222 127.024 276.566 127.792 277.238 128.8V122.704C277.238 122.608 277.838 122.32 278.51 122.32C279.518 122.32 280.622 122.848 280.622 125.032V137.488C280.622 138.712 280.022 139.096 279.134 139.096H278.798C278.03 139.096 277.454 138.832 277.334 137.92C277.31 137.656 277.286 137.392 277.286 137.104C276.494 138.472 275.198 139.336 273.47 139.336ZM277.262 133.816V131.608C276.758 130.456 275.798 129.736 274.358 129.736C272.534 129.736 271.31 131.056 271.31 133.168C271.31 135.208 272.558 136.624 274.31 136.624C275.918 136.624 277.262 135.496 277.262 133.816ZM289.37 127.024C290.714 127.024 291.53 127.792 291.53 128.992C291.53 130.336 290.498 130.816 290.45 130.768C290.09 130.456 289.562 130.192 288.914 130.192C287.282 130.192 286.562 131.632 286.562 133.984V137.488C286.562 138.712 285.938 139.096 285.074 139.096H284.714C283.802 139.096 283.178 138.736 283.178 137.488V127.552C283.178 127.432 283.754 127.168 284.45 127.168C285.146 127.168 285.914 127.456 286.298 128.44C286.37 128.656 286.418 128.944 286.466 129.256C286.922 127.864 287.906 127.024 289.37 127.024ZM291.766 133.24C291.766 129.664 294.31 127.024 297.838 127.024C301.318 127.024 303.67 129.448 303.67 132.88V133.096C303.646 133.672 303.478 133.984 302.854 133.984H294.742L294.814 134.368C295.174 135.904 296.446 136.888 298.174 136.888C299.926 136.888 300.934 136.12 301.462 135.184C301.486 135.136 303.118 135.28 303.118 136.624C303.118 137.272 302.662 137.944 301.822 138.448C300.958 138.976 299.71 139.336 298.078 139.336C294.262 139.336 291.766 136.96 291.766 133.24ZM300.55 132.136C300.454 130.432 299.422 129.352 297.814 129.352C296.206 129.352 295.006 130.504 294.79 132.136H300.55ZM312.713 127.024C315.761 127.024 317.057 129.184 317.057 131.848V137.488C317.057 138.712 316.409 139.096 315.545 139.096H315.185C314.297 139.096 313.673 138.736 313.673 137.488V132.376C313.673 130.816 312.881 129.856 311.513 129.856C310.337 129.856 309.425 130.48 308.945 131.392V137.488C308.945 138.712 308.321 139.096 307.457 139.096H307.097C306.185 139.096 305.561 138.736 305.561 137.488V127.552C305.561 127.432 306.161 127.168 306.833 127.168C307.745 127.168 308.657 127.624 308.849 129.136C309.689 127.888 310.913 127.024 312.713 127.024Z" fill="#FF7876"/>
<path d="M101.92 42.42H98.1C97.6467 42.42 97.42 42.2067 97.42 41.78V41.7C97.42 41.2733 97.6467 41.06 98.1 41.06H107.22C107.687 41.06 107.92 41.2733 107.92 41.7V41.78C107.92 42.2067 107.687 42.42 107.22 42.42H103.42V53.38C103.42 53.8333 103.2 54.06 102.76 54.06H102.56C102.133 54.06 101.92 53.8333 101.92 53.38V42.42ZM114.268 44.24C115.468 44.24 116.381 44.62 117.008 45.38C117.635 46.1267 117.948 47.1333 117.948 48.4V53.38C117.948 53.8333 117.741 54.06 117.328 54.06H117.148C116.721 54.06 116.508 53.8333 116.508 53.38V48.5C116.508 47.5667 116.288 46.84 115.848 46.32C115.408 45.8 114.788 45.54 113.988 45.54C113.135 45.54 112.435 45.8133 111.888 46.36C111.341 46.8933 111.061 47.6 111.048 48.48V53.38C111.048 53.8333 110.841 54.06 110.428 54.06H110.248C109.821 54.06 109.608 53.8333 109.608 53.38V40.52C109.608 40.4933 109.661 40.46 109.768 40.42C109.875 40.38 109.995 40.36 110.128 40.36C110.741 40.36 111.048 40.7867 111.048 41.64V46.2C111.355 45.5867 111.781 45.1067 112.328 44.76C112.888 44.4133 113.535 44.24 114.268 44.24ZM119.828 49.28C119.828 48.32 120.028 47.46 120.428 46.7C120.842 45.9267 121.402 45.3267 122.108 44.9C122.828 44.46 123.642 44.24 124.548 44.24C125.428 44.24 126.195 44.44 126.848 44.84C127.515 45.2267 128.028 45.7733 128.388 46.48C128.748 47.1867 128.928 48.0067 128.928 48.94V49.08C128.928 49.2533 128.888 49.3733 128.808 49.44C128.742 49.5067 128.615 49.54 128.428 49.54H121.208C121.208 49.66 121.215 49.7533 121.228 49.82C121.322 50.78 121.682 51.5533 122.308 52.14C122.948 52.7267 123.748 53.02 124.708 53.02C125.522 53.02 126.168 52.86 126.648 52.54C127.142 52.22 127.528 51.7933 127.808 51.26C127.848 51.2467 127.935 51.2667 128.068 51.32C128.215 51.36 128.342 51.44 128.448 51.56C128.568 51.68 128.628 51.8333 128.628 52.02C128.628 52.18 128.562 52.3667 128.428 52.58C128.308 52.7933 128.122 53 127.868 53.2C127.535 53.4933 127.095 53.74 126.548 53.94C126.002 54.1267 125.382 54.22 124.688 54.22C123.728 54.22 122.882 54.0133 122.148 53.6C121.415 53.1867 120.842 52.6067 120.428 51.86C120.028 51.1 119.828 50.24 119.828 49.28ZM127.508 48.5C127.468 47.5667 127.182 46.82 126.648 46.26C126.115 45.6867 125.415 45.4 124.548 45.4C123.682 45.4 122.948 45.6867 122.348 46.26C121.748 46.8333 121.382 47.58 121.248 48.5H127.508ZM139.216 44.24C140.042 44.24 140.789 44.4467 141.456 44.86C142.136 45.2733 142.662 45.86 143.036 46.62C143.422 47.3667 143.616 48.2267 143.616 49.2C143.616 50.1733 143.422 51.0467 143.036 51.82C142.662 52.58 142.136 53.1733 141.456 53.6C140.789 54.0133 140.029 54.22 139.176 54.22C138.362 54.22 137.649 54.0333 137.036 53.66C136.436 53.2733 136.002 52.7933 135.736 52.22V57.18C135.736 57.6333 135.529 57.86 135.116 57.86H134.956C134.529 57.86 134.316 57.6333 134.316 57.18V44.54C134.316 44.5133 134.369 44.48 134.476 44.44C134.582 44.4 134.696 44.38 134.816 44.38C135.349 44.38 135.642 44.74 135.696 45.46L135.716 46.28C136.076 45.64 136.549 45.14 137.136 44.78C137.722 44.42 138.416 44.24 139.216 44.24ZM138.916 53C139.902 53 140.696 52.6533 141.296 51.96C141.896 51.2667 142.196 50.3533 142.196 49.22C142.196 48.4867 142.056 47.84 141.776 47.28C141.496 46.7067 141.109 46.26 140.616 45.94C140.122 45.62 139.569 45.46 138.956 45.46C138.182 45.46 137.516 45.6667 136.956 46.08C136.409 46.48 135.996 47.04 135.716 47.76V49.88C135.716 50.4533 135.856 50.98 136.136 51.46C136.429 51.94 136.822 52.32 137.316 52.6C137.809 52.8667 138.342 53 138.916 53ZM149.465 44.24C149.891 44.24 150.231 44.34 150.485 44.54C150.751 44.7267 150.885 44.9733 150.885 45.28C150.885 45.4533 150.851 45.6 150.785 45.72C150.731 45.84 150.665 45.9333 150.585 46C150.505 46.0533 150.458 46.0733 150.445 46.06C150.178 45.7933 149.798 45.66 149.305 45.66C148.545 45.66 147.971 46.0067 147.585 46.7C147.211 47.3933 147.025 48.36 147.025 49.6V53.38C147.025 53.8333 146.818 54.06 146.405 54.06H146.245C145.805 54.06 145.585 53.8333 145.585 53.38V44.54C145.585 44.5133 145.638 44.48 145.745 44.44C145.851 44.4 145.971 44.38 146.105 44.38C146.598 44.38 146.878 44.7 146.945 45.34C146.971 45.7933 146.985 46.14 146.985 46.38C147.171 45.6733 147.478 45.14 147.905 44.78C148.331 44.42 148.851 44.24 149.465 44.24ZM151.371 49.22C151.371 48.26 151.578 47.4067 151.991 46.66C152.405 45.9 152.978 45.3067 153.711 44.88C154.445 44.4533 155.285 44.24 156.231 44.24C157.165 44.24 157.991 44.4533 158.711 44.88C159.445 45.3067 160.018 45.9067 160.431 46.68C160.845 47.44 161.051 48.3 161.051 49.26C161.051 50.2067 160.845 51.06 160.431 51.82C160.018 52.5667 159.445 53.1533 158.711 53.58C157.978 54.0067 157.145 54.22 156.211 54.22C155.278 54.22 154.438 54.0067 153.691 53.58C152.958 53.1533 152.385 52.56 151.971 51.8C151.571 51.04 151.371 50.18 151.371 49.22ZM159.651 49.26C159.651 48.54 159.505 47.8933 159.211 47.32C158.918 46.7333 158.511 46.28 157.991 45.96C157.471 45.6267 156.885 45.46 156.231 45.46C155.578 45.46 154.985 45.62 154.451 45.94C153.931 46.26 153.518 46.7067 153.211 47.28C152.918 47.8533 152.771 48.5 152.771 49.22C152.771 49.94 152.918 50.5867 153.211 51.16C153.518 51.7333 153.931 52.1867 154.451 52.52C154.985 52.84 155.578 53 156.231 53C156.885 53 157.471 52.84 157.991 52.52C158.511 52.2 158.918 51.76 159.211 51.2C159.505 50.6267 159.651 49.98 159.651 49.26ZM167.946 44.24C168.773 44.24 169.519 44.4467 170.186 44.86C170.866 45.2733 171.393 45.86 171.766 46.62C172.153 47.3667 172.346 48.2267 172.346 49.2C172.346 50.1733 172.153 51.0467 171.766 51.82C171.393 52.58 170.866 53.1733 170.186 53.6C169.519 54.0133 168.759 54.22 167.906 54.22C167.093 54.22 166.379 54.0333 165.766 53.66C165.166 53.2733 164.733 52.7933 164.466 52.22V57.18C164.466 57.6333 164.259 57.86 163.846 57.86H163.686C163.259 57.86 163.046 57.6333 163.046 57.18V44.54C163.046 44.5133 163.099 44.48 163.206 44.44C163.313 44.4 163.426 44.38 163.546 44.38C164.079 44.38 164.373 44.74 164.426 45.46L164.446 46.28C164.806 45.64 165.279 45.14 165.866 44.78C166.453 44.42 167.146 44.24 167.946 44.24ZM167.646 53C168.633 53 169.426 52.6533 170.026 51.96C170.626 51.2667 170.926 50.3533 170.926 49.22C170.926 48.4867 170.786 47.84 170.506 47.28C170.226 46.7067 169.839 46.26 169.346 45.94C168.853 45.62 168.299 45.46 167.686 45.46C166.913 45.46 166.246 45.6667 165.686 46.08C165.139 46.48 164.726 47.04 164.446 47.76V49.88C164.446 50.4533 164.586 50.98 164.866 51.46C165.159 51.94 165.553 52.32 166.046 52.6C166.539 52.8667 167.073 53 167.646 53ZM173.715 49.22C173.715 48.26 173.922 47.4067 174.335 46.66C174.748 45.9 175.322 45.3067 176.055 44.88C176.788 44.4533 177.628 44.24 178.575 44.24C179.508 44.24 180.335 44.4533 181.055 44.88C181.788 45.3067 182.362 45.9067 182.775 46.68C183.188 47.44 183.395 48.3 183.395 49.26C183.395 50.2067 183.188 51.06 182.775 51.82C182.362 52.5667 181.788 53.1533 181.055 53.58C180.322 54.0067 179.488 54.22 178.555 54.22C177.622 54.22 176.782 54.0067 176.035 53.58C175.302 53.1533 174.728 52.56 174.315 51.8C173.915 51.04 173.715 50.18 173.715 49.22ZM181.995 49.26C181.995 48.54 181.848 47.8933 181.555 47.32C181.262 46.7333 180.855 46.28 180.335 45.96C179.815 45.6267 179.228 45.46 178.575 45.46C177.922 45.46 177.328 45.62 176.795 45.94C176.275 46.26 175.862 46.7067 175.555 47.28C175.262 47.8533 175.115 48.5 175.115 49.22C175.115 49.94 175.262 50.5867 175.555 51.16C175.862 51.7333 176.275 52.1867 176.795 52.52C177.328 52.84 177.922 53 178.575 53C179.228 53 179.815 52.84 180.335 52.52C180.855 52.2 181.262 51.76 181.555 51.2C181.848 50.6267 181.995 49.98 181.995 49.26ZM189.25 44.24C189.677 44.24 190.017 44.34 190.27 44.54C190.537 44.7267 190.67 44.9733 190.67 45.28C190.67 45.4533 190.637 45.6 190.57 45.72C190.517 45.84 190.45 45.9333 190.37 46C190.29 46.0533 190.243 46.0733 190.23 46.06C189.963 45.7933 189.583 45.66 189.09 45.66C188.33 45.66 187.757 46.0067 187.37 46.7C186.997 47.3933 186.81 48.36 186.81 49.6V53.38C186.81 53.8333 186.603 54.06 186.19 54.06H186.03C185.59 54.06 185.37 53.8333 185.37 53.38V44.54C185.37 44.5133 185.423 44.48 185.53 44.44C185.637 44.4 185.757 44.38 185.89 44.38C186.383 44.38 186.663 44.7 186.73 45.34C186.757 45.7933 186.77 46.14 186.77 46.38C186.957 45.6733 187.263 45.14 187.69 44.78C188.117 44.42 188.637 44.24 189.25 44.24ZM195.524 54.22C194.644 54.22 193.984 53.9733 193.544 53.48C193.117 52.9867 192.904 52.2333 192.904 51.22V45.68H191.964C191.551 45.68 191.344 45.5 191.344 45.14V45C191.344 44.64 191.551 44.46 191.964 44.46H192.904V42.78C192.904 42.3133 193.117 42.08 193.544 42.08H193.704C194.117 42.08 194.324 42.3133 194.324 42.78V44.46H196.744C197.157 44.46 197.364 44.64 197.364 45V45.12C197.364 45.4933 197.151 45.68 196.724 45.68H194.304V51C194.304 51.7067 194.417 52.22 194.644 52.54C194.871 52.8467 195.231 53 195.724 53C196.337 53 196.811 52.7533 197.144 52.26C197.171 52.2467 197.217 52.2667 197.284 52.32C197.351 52.36 197.411 52.4333 197.464 52.54C197.517 52.6467 197.544 52.7733 197.544 52.92C197.544 53.1867 197.424 53.4333 197.184 53.66C196.784 54.0333 196.231 54.22 195.524 54.22ZM199.059 41.46C199.059 41.1667 199.139 40.94 199.299 40.78C199.459 40.62 199.686 40.54 199.979 40.54C200.273 40.54 200.499 40.62 200.659 40.78C200.819 40.94 200.899 41.1667 200.899 41.46C200.899 41.7533 200.813 41.98 200.639 42.14C200.479 42.2867 200.253 42.36 199.959 42.36C199.679 42.36 199.459 42.2867 199.299 42.14C199.139 41.98 199.059 41.7533 199.059 41.46ZM199.239 45.08C199.239 44.6133 199.453 44.38 199.879 44.38H200.039C200.466 44.38 200.679 44.6133 200.679 45.08V53.38C200.679 53.8333 200.466 54.06 200.039 54.06H199.879C199.453 54.06 199.239 53.8333 199.239 53.38V45.08ZM202.739 49.22C202.739 48.26 202.945 47.4067 203.359 46.66C203.772 45.9 204.345 45.3067 205.079 44.88C205.812 44.4533 206.652 44.24 207.599 44.24C208.532 44.24 209.359 44.4533 210.079 44.88C210.812 45.3067 211.385 45.9067 211.799 46.68C212.212 47.44 212.419 48.3 212.419 49.26C212.419 50.2067 212.212 51.06 211.799 51.82C211.385 52.5667 210.812 53.1533 210.079 53.58C209.345 54.0067 208.512 54.22 207.579 54.22C206.645 54.22 205.805 54.0067 205.059 53.58C204.325 53.1533 203.752 52.56 203.339 51.8C202.939 51.04 202.739 50.18 202.739 49.22ZM211.019 49.26C211.019 48.54 210.872 47.8933 210.579 47.32C210.285 46.7333 209.879 46.28 209.359 45.96C208.839 45.6267 208.252 45.46 207.599 45.46C206.945 45.46 206.352 45.62 205.819 45.94C205.299 46.26 204.885 46.7067 204.579 47.28C204.285 47.8533 204.139 48.5 204.139 49.22C204.139 49.94 204.285 50.5867 204.579 51.16C204.885 51.7333 205.299 52.1867 205.819 52.52C206.352 52.84 206.945 53 207.599 53C208.252 53 208.839 52.84 209.359 52.52C209.879 52.2 210.285 51.76 210.579 51.2C210.872 50.6267 211.019 49.98 211.019 49.26ZM219.073 44.24C220.273 44.24 221.18 44.6133 221.793 45.36C222.42 46.1067 222.733 47.1133 222.733 48.38V53.38C222.733 53.8333 222.527 54.06 222.113 54.06H221.933C221.507 54.06 221.293 53.8333 221.293 53.38V48.5C221.293 47.5667 221.073 46.84 220.633 46.32C220.207 45.7867 219.593 45.52 218.793 45.52C218.113 45.52 217.513 45.6933 216.993 46.04C216.487 46.3867 216.1 46.8533 215.833 47.44V53.38C215.833 53.8333 215.627 54.06 215.213 54.06H215.033C214.607 54.06 214.393 53.8333 214.393 53.38V44.54C214.393 44.5133 214.447 44.48 214.553 44.44C214.673 44.4 214.793 44.38 214.913 44.38C215.473 44.38 215.767 44.78 215.793 45.58V46.14C216.127 45.5533 216.573 45.0933 217.133 44.76C217.693 44.4133 218.34 44.24 219.073 44.24ZM230.76 54.1C230.467 54.1 230.247 54.0667 230.1 54C229.967 53.92 229.873 53.7867 229.82 53.6L227.5 44.78C227.487 44.7267 227.573 44.6467 227.76 44.54C227.96 44.42 228.147 44.36 228.32 44.36C228.733 44.3867 229 44.68 229.12 45.24L230.82 52.64L232.84 46.32C232.893 46.1333 232.987 46 233.12 45.92C233.267 45.8267 233.487 45.78 233.78 45.78C234.06 45.78 234.267 45.82 234.4 45.9C234.547 45.98 234.653 46.12 234.72 46.32L236.72 52.62L238.4 45.24C238.467 44.92 238.573 44.6933 238.72 44.56C238.88 44.4267 239.047 44.3667 239.22 44.38C239.407 44.38 239.58 44.4333 239.74 44.54C239.913 44.6467 240 44.7267 240 44.78L237.68 53.6C237.64 53.7867 237.547 53.92 237.4 54C237.253 54.0667 237.033 54.1 236.74 54.1C236.447 54.1 236.233 54.0667 236.1 54C235.98 53.92 235.887 53.7733 235.82 53.56L233.76 47.3L231.66 53.56C231.593 53.76 231.5 53.9 231.38 53.98C231.26 54.06 231.053 54.1 230.76 54.1ZM241.677 41.46C241.677 41.1667 241.757 40.94 241.917 40.78C242.077 40.62 242.303 40.54 242.597 40.54C242.89 40.54 243.117 40.62 243.277 40.78C243.437 40.94 243.517 41.1667 243.517 41.46C243.517 41.7533 243.43 41.98 243.257 42.14C243.097 42.2867 242.87 42.36 242.577 42.36C242.297 42.36 242.077 42.2867 241.917 42.14C241.757 41.98 241.677 41.7533 241.677 41.46ZM241.857 45.08C241.857 44.6133 242.07 44.38 242.497 44.38H242.657C243.083 44.38 243.297 44.6133 243.297 45.08V53.38C243.297 53.8333 243.083 54.06 242.657 54.06H242.497C242.07 54.06 241.857 53.8333 241.857 53.38V45.08ZM246.715 54.06C246.289 54.06 246.075 53.8333 246.075 53.38V40.52C246.075 40.4933 246.129 40.46 246.235 40.42C246.342 40.38 246.462 40.36 246.595 40.36C247.209 40.36 247.515 40.7867 247.515 41.64V53.38C247.515 53.8333 247.302 54.06 246.875 54.06H246.715ZM250.915 54.06C250.488 54.06 250.275 53.8333 250.275 53.38V40.52C250.275 40.4933 250.328 40.46 250.435 40.42C250.541 40.38 250.661 40.36 250.795 40.36C251.408 40.36 251.715 40.7867 251.715 41.64V53.38C251.715 53.8333 251.501 54.06 251.075 54.06H250.915ZM257.172 49.2C257.172 48.2533 257.379 47.4067 257.792 46.66C258.206 45.9 258.779 45.3067 259.512 44.88C260.246 44.4533 261.072 44.24 261.992 44.24C262.686 44.24 263.299 44.3467 263.832 44.56C264.366 44.7733 264.812 45.0533 265.172 45.4C265.426 45.64 265.619 45.8933 265.752 46.16C265.886 46.4133 265.952 46.64 265.952 46.84C265.952 47.0267 265.886 47.18 265.752 47.3C265.619 47.4067 265.472 47.48 265.312 47.52C265.152 47.56 265.059 47.56 265.032 47.52C264.512 46.16 263.506 45.48 262.012 45.48C261.359 45.48 260.772 45.64 260.252 45.96C259.732 46.28 259.326 46.7267 259.032 47.3C258.739 47.86 258.592 48.4933 258.592 49.2C258.592 49.92 258.732 50.5733 259.012 51.16C259.306 51.7333 259.712 52.18 260.232 52.5C260.752 52.82 261.346 52.98 262.012 52.98C262.812 52.98 263.452 52.7933 263.932 52.42C264.426 52.0467 264.792 51.5533 265.032 50.94C265.046 50.9 265.132 50.9 265.292 50.94C265.466 50.9667 265.619 51.04 265.752 51.16C265.886 51.28 265.952 51.44 265.952 51.64C265.952 51.8133 265.886 52.0333 265.752 52.3C265.619 52.5533 265.426 52.8 265.172 53.04C264.839 53.4 264.399 53.6867 263.852 53.9C263.319 54.1133 262.692 54.22 261.972 54.22C261.052 54.22 260.226 54.0067 259.492 53.58C258.772 53.1533 258.206 52.56 257.792 51.8C257.379 51.0267 257.172 50.16 257.172 49.2ZM267.25 49.22C267.25 48.26 267.457 47.4067 267.87 46.66C268.284 45.9 268.857 45.3067 269.59 44.88C270.324 44.4533 271.164 44.24 272.11 44.24C273.044 44.24 273.87 44.4533 274.59 44.88C275.324 45.3067 275.897 45.9067 276.31 46.68C276.724 47.44 276.93 48.3 276.93 49.26C276.93 50.2067 276.724 51.06 276.31 51.82C275.897 52.5667 275.324 53.1533 274.59 53.58C273.857 54.0067 273.024 54.22 272.09 54.22C271.157 54.22 270.317 54.0067 269.57 53.58C268.837 53.1533 268.264 52.56 267.85 51.8C267.45 51.04 267.25 50.18 267.25 49.22ZM275.53 49.26C275.53 48.54 275.384 47.8933 275.09 47.32C274.797 46.7333 274.39 46.28 273.87 45.96C273.35 45.6267 272.764 45.46 272.11 45.46C271.457 45.46 270.864 45.62 270.33 45.94C269.81 46.26 269.397 46.7067 269.09 47.28C268.797 47.8533 268.65 48.5 268.65 49.22C268.65 49.94 268.797 50.5867 269.09 51.16C269.397 51.7333 269.81 52.1867 270.33 52.52C270.864 52.84 271.457 53 272.11 53C272.764 53 273.35 52.84 273.87 52.52C274.39 52.2 274.797 51.76 275.09 51.2C275.384 50.6267 275.53 49.98 275.53 49.26ZM283.585 44.24C284.785 44.24 285.692 44.6133 286.305 45.36C286.932 46.1067 287.245 47.1133 287.245 48.38V53.38C287.245 53.8333 287.038 54.06 286.625 54.06H286.445C286.018 54.06 285.805 53.8333 285.805 53.38V48.5C285.805 47.5667 285.585 46.84 285.145 46.32C284.718 45.7867 284.105 45.52 283.305 45.52C282.625 45.52 282.025 45.6933 281.505 46.04C280.998 46.3867 280.612 46.8533 280.345 47.44V53.38C280.345 53.8333 280.138 54.06 279.725 54.06H279.545C279.118 54.06 278.905 53.8333 278.905 53.38V44.54C278.905 44.5133 278.958 44.48 279.065 44.44C279.185 44.4 279.305 44.38 279.425 44.38C279.985 44.38 280.278 44.78 280.305 45.58V46.14C280.638 45.5533 281.085 45.0933 281.645 44.76C282.205 44.4133 282.852 44.24 283.585 44.24ZM292.965 54.22C292.085 54.22 291.425 53.9733 290.985 53.48C290.559 52.9867 290.345 52.2333 290.345 51.22V45.68H289.405C288.992 45.68 288.785 45.5 288.785 45.14V45C288.785 44.64 288.992 44.46 289.405 44.46H290.345V42.78C290.345 42.3133 290.559 42.08 290.985 42.08H291.145C291.559 42.08 291.765 42.3133 291.765 42.78V44.46H294.185C294.599 44.46 294.805 44.64 294.805 45V45.12C294.805 45.4933 294.592 45.68 294.165 45.68H291.745V51C291.745 51.7067 291.859 52.22 292.085 52.54C292.312 52.8467 292.672 53 293.165 53C293.779 53 294.252 52.7533 294.585 52.26C294.612 52.2467 294.659 52.2667 294.725 52.32C294.792 52.36 294.852 52.4333 294.905 52.54C294.959 52.6467 294.985 52.7733 294.985 52.92C294.985 53.1867 294.865 53.4333 294.625 53.66C294.225 54.0333 293.672 54.22 292.965 54.22ZM296.501 41.46C296.501 41.1667 296.581 40.94 296.741 40.78C296.901 40.62 297.127 40.54 297.421 40.54C297.714 40.54 297.941 40.62 298.101 40.78C298.261 40.94 298.341 41.1667 298.341 41.46C298.341 41.7533 298.254 41.98 298.081 42.14C297.921 42.2867 297.694 42.36 297.401 42.36C297.121 42.36 296.901 42.2867 296.741 42.14C296.581 41.98 296.501 41.7533 296.501 41.46ZM296.681 45.08C296.681 44.6133 296.894 44.38 297.321 44.38H297.481C297.907 44.38 298.121 44.6133 298.121 45.08V53.38C298.121 53.8333 297.907 54.06 297.481 54.06H297.321C296.894 54.06 296.681 53.8333 296.681 53.38V45.08ZM305.46 44.24C306.66 44.24 307.567 44.6133 308.18 45.36C308.807 46.1067 309.12 47.1133 309.12 48.38V53.38C309.12 53.8333 308.913 54.06 308.5 54.06H308.32C307.893 54.06 307.68 53.8333 307.68 53.38V48.5C307.68 47.5667 307.46 46.84 307.02 46.32C306.593 45.7867 305.98 45.52 305.18 45.52C304.5 45.52 303.9 45.6933 303.38 46.04C302.873 46.3867 302.487 46.8533 302.22 47.44V53.38C302.22 53.8333 302.013 54.06 301.6 54.06H301.42C300.993 54.06 300.78 53.8333 300.78 53.38V44.54C300.78 44.5133 300.833 44.48 300.94 44.44C301.06 44.4 301.18 44.38 301.3 44.38C301.86 44.38 302.153 44.78 302.18 45.58V46.14C302.513 45.5533 302.96 45.0933 303.52 44.76C304.08 44.4133 304.727 44.24 305.46 44.24ZM319.22 44.38C319.647 44.38 319.86 44.6067 319.86 45.06V53.92C319.86 53.9467 319.8 53.98 319.68 54.02C319.574 54.06 319.46 54.08 319.34 54.08C318.847 54.08 318.567 53.7667 318.5 53.14C318.474 52.7933 318.46 52.5333 318.46 52.36C318.114 52.92 317.66 53.3733 317.1 53.72C316.554 54.0533 315.914 54.22 315.18 54.22C313.98 54.22 313.067 53.8467 312.44 53.1C311.827 52.34 311.52 51.3267 311.52 50.06V45.06C311.52 44.6067 311.734 44.38 312.16 44.38H312.32C312.747 44.38 312.96 44.6067 312.96 45.06V49.96C312.96 50.8933 313.18 51.6267 313.62 52.16C314.06 52.68 314.68 52.94 315.48 52.94C316.147 52.94 316.734 52.7667 317.24 52.42C317.76 52.0733 318.154 51.6 318.42 51V45.06C318.42 44.6067 318.627 44.38 319.04 44.38H319.22ZM321.625 49.28C321.625 48.32 321.825 47.46 322.225 46.7C322.639 45.9267 323.199 45.3267 323.905 44.9C324.625 44.46 325.439 44.24 326.345 44.24C327.225 44.24 327.992 44.44 328.645 44.84C329.312 45.2267 329.825 45.7733 330.185 46.48C330.545 47.1867 330.725 48.0067 330.725 48.94V49.08C330.725 49.2533 330.685 49.3733 330.605 49.44C330.539 49.5067 330.412 49.54 330.225 49.54H323.005C323.005 49.66 323.012 49.7533 323.025 49.82C323.119 50.78 323.479 51.5533 324.105 52.14C324.745 52.7267 325.545 53.02 326.505 53.02C327.319 53.02 327.965 52.86 328.445 52.54C328.939 52.22 329.325 51.7933 329.605 51.26C329.645 51.2467 329.732 51.2667 329.865 51.32C330.012 51.36 330.139 51.44 330.245 51.56C330.365 51.68 330.425 51.8333 330.425 52.02C330.425 52.18 330.359 52.3667 330.225 52.58C330.105 52.7933 329.919 53 329.665 53.2C329.332 53.4933 328.892 53.74 328.345 53.94C327.799 54.1267 327.179 54.22 326.485 54.22C325.525 54.22 324.679 54.0133 323.945 53.6C323.212 53.1867 322.639 52.6067 322.225 51.86C321.825 51.1 321.625 50.24 321.625 49.28ZM329.305 48.5C329.265 47.5667 328.979 46.82 328.445 46.26C327.912 45.6867 327.212 45.4 326.345 45.4C325.479 45.4 324.745 45.6867 324.145 46.26C323.545 46.8333 323.179 47.58 323.045 48.5H329.305ZM339 54.22C338.12 54.22 337.46 53.9733 337.02 53.48C336.594 52.9867 336.38 52.2333 336.38 51.22V45.68H335.44C335.027 45.68 334.82 45.5 334.82 45.14V45C334.82 44.64 335.027 44.46 335.44 44.46H336.38V42.78C336.38 42.3133 336.594 42.08 337.02 42.08H337.18C337.594 42.08 337.8 42.3133 337.8 42.78V44.46H340.22C340.634 44.46 340.84 44.64 340.84 45V45.12C340.84 45.4933 340.627 45.68 340.2 45.68H337.78V51C337.78 51.7067 337.894 52.22 338.12 52.54C338.347 52.8467 338.707 53 339.2 53C339.814 53 340.287 52.7533 340.62 52.26C340.647 52.2467 340.694 52.2667 340.76 52.32C340.827 52.36 340.887 52.4333 340.94 52.54C340.994 52.6467 341.02 52.7733 341.02 52.92C341.02 53.1867 340.9 53.4333 340.66 53.66C340.26 54.0333 339.707 54.22 339 54.22ZM342.016 49.22C342.016 48.26 342.223 47.4067 342.636 46.66C343.049 45.9 343.623 45.3067 344.356 44.88C345.089 44.4533 345.929 44.24 346.876 44.24C347.809 44.24 348.636 44.4533 349.356 44.88C350.089 45.3067 350.663 45.9067 351.076 46.68C351.489 47.44 351.696 48.3 351.696 49.26C351.696 50.2067 351.489 51.06 351.076 51.82C350.663 52.5667 350.089 53.1533 349.356 53.58C348.623 54.0067 347.789 54.22 346.856 54.22C345.923 54.22 345.083 54.0067 344.336 53.58C343.603 53.1533 343.029 52.56 342.616 51.8C342.216 51.04 342.016 50.18 342.016 49.22ZM350.296 49.26C350.296 48.54 350.149 47.8933 349.856 47.32C349.563 46.7333 349.156 46.28 348.636 45.96C348.116 45.6267 347.529 45.46 346.876 45.46C346.223 45.46 345.629 45.62 345.096 45.94C344.576 46.26 344.163 46.7067 343.856 47.28C343.563 47.8533 343.416 48.5 343.416 49.22C343.416 49.94 343.563 50.5867 343.856 51.16C344.163 51.7333 344.576 52.1867 345.096 52.52C345.629 52.84 346.223 53 346.876 53C347.529 53 348.116 52.84 348.636 52.52C349.156 52.2 349.563 51.76 349.856 51.2C350.149 50.6267 350.296 49.98 350.296 49.26ZM99.7 78.44C99.6867 78.8533 99.4867 79.06 99.1 79.06H98.94C98.74 79.06 98.58 79.0067 98.46 78.9C98.3533 78.7933 98.3 78.6067 98.3 78.34V65.52C98.3 65.48 98.3467 65.4467 98.44 65.42C98.5467 65.38 98.6667 65.36 98.8 65.36C99.4133 65.36 99.72 65.7867 99.72 66.64V71.22C100.533 69.9 101.707 69.24 103.24 69.24C104.053 69.24 104.793 69.4467 105.46 69.86C106.127 70.2733 106.647 70.86 107.02 71.62C107.407 72.3667 107.6 73.2267 107.6 74.2C107.6 75.1733 107.407 76.0467 107.02 76.82C106.647 77.58 106.12 78.1733 105.44 78.6C104.773 79.0133 104.013 79.22 103.16 79.22C102.32 79.22 101.6 79.0333 101 78.66C100.4 78.2867 99.9667 77.8133 99.7 77.24V78.44ZM106.18 74.22C106.18 73.4867 106.04 72.84 105.76 72.28C105.48 71.7067 105.093 71.26 104.6 70.94C104.12 70.62 103.573 70.46 102.96 70.46C102.173 70.46 101.5 70.6667 100.94 71.08C100.393 71.48 99.98 72.04 99.7 72.76V74.92C99.7 75.4933 99.8467 76.0133 100.14 76.48C100.433 76.9467 100.82 77.32 101.3 77.6C101.793 77.8667 102.333 78 102.92 78C103.893 78 104.68 77.6533 105.28 76.96C105.88 76.2667 106.18 75.3533 106.18 74.22ZM108.969 74.28C108.969 73.32 109.169 72.46 109.569 71.7C109.982 70.9267 110.542 70.3267 111.249 69.9C111.969 69.46 112.782 69.24 113.689 69.24C114.569 69.24 115.336 69.44 115.989 69.84C116.656 70.2267 117.169 70.7733 117.529 71.48C117.889 72.1867 118.069 73.0067 118.069 73.94V74.08C118.069 74.2533 118.029 74.3733 117.949 74.44C117.882 74.5067 117.756 74.54 117.569 74.54H110.349C110.349 74.66 110.356 74.7533 110.369 74.82C110.462 75.78 110.822 76.5533 111.449 77.14C112.089 77.7267 112.889 78.02 113.849 78.02C114.662 78.02 115.309 77.86 115.789 77.54C116.282 77.22 116.669 76.7933 116.949 76.26C116.989 76.2467 117.076 76.2667 117.209 76.32C117.356 76.36 117.482 76.44 117.589 76.56C117.709 76.68 117.769 76.8333 117.769 77.02C117.769 77.18 117.702 77.3667 117.569 77.58C117.449 77.7933 117.262 78 117.009 78.2C116.676 78.4933 116.236 78.74 115.689 78.94C115.142 79.1267 114.522 79.22 113.829 79.22C112.869 79.22 112.022 79.0133 111.289 78.6C110.556 78.1867 109.982 77.6067 109.569 76.86C109.169 76.1 108.969 75.24 108.969 74.28ZM116.649 73.5C116.609 72.5667 116.322 71.82 115.789 71.26C115.256 70.6867 114.556 70.4 113.689 70.4C112.822 70.4 112.089 70.6867 111.489 71.26C110.889 71.8333 110.522 72.58 110.389 73.5H116.649ZM123.356 66.46C123.356 66.1667 123.436 65.94 123.596 65.78C123.756 65.62 123.983 65.54 124.276 65.54C124.57 65.54 124.796 65.62 124.956 65.78C125.116 65.94 125.196 66.1667 125.196 66.46C125.196 66.7533 125.11 66.98 124.936 67.14C124.776 67.2867 124.55 67.36 124.256 67.36C123.976 67.36 123.756 67.2867 123.596 67.14C123.436 66.98 123.356 66.7533 123.356 66.46ZM123.536 70.08C123.536 69.6133 123.75 69.38 124.176 69.38H124.336C124.763 69.38 124.976 69.6133 124.976 70.08V78.38C124.976 78.8333 124.763 79.06 124.336 79.06H124.176C123.75 79.06 123.536 78.8333 123.536 78.38V70.08ZM132.315 69.24C133.515 69.24 134.422 69.6133 135.035 70.36C135.662 71.1067 135.975 72.1133 135.975 73.38V78.38C135.975 78.8333 135.769 79.06 135.355 79.06H135.175C134.749 79.06 134.535 78.8333 134.535 78.38V73.5C134.535 72.5667 134.315 71.84 133.875 71.32C133.449 70.7867 132.835 70.52 132.035 70.52C131.355 70.52 130.755 70.6933 130.235 71.04C129.729 71.3867 129.342 71.8533 129.075 72.44V78.38C129.075 78.8333 128.869 79.06 128.455 79.06H128.275C127.849 79.06 127.635 78.8333 127.635 78.38V69.54C127.635 69.5133 127.689 69.48 127.795 69.44C127.915 69.4 128.035 69.38 128.155 69.38C128.715 69.38 129.009 69.78 129.035 70.58V71.14C129.369 70.5533 129.815 70.0933 130.375 69.76C130.935 69.4133 131.582 69.24 132.315 69.24ZM141.274 76.54C141.274 75.4733 141.794 74.6933 142.834 74.2C143.887 73.6933 145.547 73.4267 147.814 73.4H148.034V73C148.034 72.1867 147.807 71.5667 147.354 71.14C146.914 70.7 146.28 70.48 145.454 70.48C144.734 70.48 144.127 70.6333 143.634 70.94C143.154 71.2467 142.787 71.66 142.534 72.18C142.507 72.1933 142.414 72.1867 142.254 72.16C142.107 72.12 141.967 72.0467 141.834 71.94C141.714 71.82 141.654 71.6533 141.654 71.44C141.654 71.2933 141.7 71.1267 141.794 70.94C141.9 70.74 142.047 70.5533 142.234 70.38C142.58 70.0467 143.034 69.7733 143.594 69.56C144.154 69.3467 144.8 69.24 145.534 69.24C146.787 69.24 147.754 69.5733 148.434 70.24C149.114 70.9067 149.454 71.8333 149.454 73.02V78.92C149.454 78.9467 149.394 78.98 149.274 79.02C149.167 79.06 149.054 79.08 148.934 79.08C148.44 79.08 148.16 78.7733 148.094 78.16C148.067 77.7867 148.054 77.4933 148.054 77.28C147.734 77.8667 147.26 78.3333 146.634 78.68C146.007 79.0267 145.3 79.2 144.514 79.2C143.514 79.2 142.72 78.96 142.134 78.48C141.56 78 141.274 77.3533 141.274 76.54ZM148.034 74.34L147.694 74.36C145.934 74.4 144.66 74.5867 143.874 74.92C143.1 75.2533 142.714 75.78 142.714 76.5C142.714 76.9933 142.9 77.3867 143.274 77.68C143.647 77.9733 144.154 78.12 144.794 78.12C145.394 78.12 145.94 77.9933 146.434 77.74C146.927 77.4867 147.314 77.1467 147.594 76.72C147.887 76.28 148.034 75.7933 148.034 75.26V74.34ZM159.11 79.28C158.244 79.28 157.47 79.0667 156.79 78.64C156.11 78.2 155.577 77.5933 155.19 76.82C154.817 76.0467 154.63 75.1533 154.63 74.14C154.63 73.1133 154.817 72.2133 155.19 71.44C155.577 70.6667 156.11 70.0733 156.79 69.66C157.484 69.2333 158.277 69.02 159.17 69.02C159.85 69.02 160.457 69.16 160.99 69.44C161.537 69.7067 161.957 70.06 162.25 70.5V65.42C162.25 65.3667 162.364 65.3 162.59 65.22C162.817 65.14 163.057 65.1 163.31 65.1C163.817 65.1 164.237 65.2733 164.57 65.62C164.904 65.9533 165.07 66.5333 165.07 67.36V77.74C165.07 78.22 164.964 78.5667 164.75 78.78C164.537 78.98 164.23 79.08 163.83 79.08H163.55C163.204 79.08 162.924 79.0067 162.71 78.86C162.51 78.7133 162.384 78.46 162.33 78.1C162.304 77.8067 162.29 77.58 162.29 77.42C161.957 78.0067 161.517 78.4667 160.97 78.8C160.437 79.12 159.817 79.28 159.11 79.28ZM162.27 72.84C162.057 72.3467 161.744 71.9667 161.33 71.7C160.93 71.42 160.437 71.28 159.85 71.28C159.09 71.28 158.477 71.54 158.01 72.06C157.544 72.5667 157.31 73.26 157.31 74.14C157.31 74.9933 157.544 75.6867 158.01 76.22C158.477 76.7533 159.077 77.02 159.81 77.02C160.49 77.02 161.07 76.8 161.55 76.36C162.03 75.92 162.27 75.36 162.27 74.68V72.84ZM166.701 74.12C166.701 73.1333 166.921 72.2533 167.361 71.48C167.801 70.7067 168.414 70.1067 169.201 69.68C169.987 69.24 170.894 69.02 171.921 69.02C172.934 69.02 173.834 69.24 174.621 69.68C175.407 70.1067 176.014 70.7133 176.441 71.5C176.881 72.2733 177.101 73.16 177.101 74.16C177.101 75.16 176.881 76.0467 176.441 76.82C176.001 77.5933 175.387 78.2 174.601 78.64C173.814 79.0667 172.907 79.28 171.881 79.28C170.854 79.28 169.947 79.0667 169.161 78.64C168.387 78.2 167.781 77.5933 167.341 76.82C166.914 76.0333 166.701 75.1333 166.701 74.12ZM174.601 74.16C174.601 73.2933 174.347 72.5867 173.841 72.04C173.334 71.4933 172.687 71.22 171.901 71.22C171.114 71.22 170.461 71.4933 169.941 72.04C169.434 72.5867 169.181 73.28 169.181 74.12C169.181 74.9733 169.434 75.68 169.941 76.24C170.461 76.7867 171.114 77.06 171.901 77.06C172.674 77.06 173.314 76.7867 173.821 76.24C174.341 75.68 174.601 74.9867 174.601 74.16ZM182.005 79.12C181.605 79.12 181.271 79.06 181.005 78.94C180.751 78.82 180.571 78.6067 180.465 78.3L177.945 69.96C177.918 69.8933 177.998 69.7933 178.185 69.66C178.371 69.5267 178.598 69.4067 178.865 69.3C179.145 69.18 179.405 69.12 179.645 69.12C179.965 69.12 180.251 69.22 180.505 69.42C180.758 69.6067 180.925 69.92 181.005 70.36L182.205 76.2L183.785 71.12C183.945 70.5067 184.445 70.2 185.285 70.2C186.111 70.2 186.605 70.5067 186.765 71.12L188.245 76.08L189.425 70.36C189.505 69.92 189.665 69.6067 189.905 69.42C190.145 69.22 190.425 69.12 190.745 69.12C190.985 69.12 191.238 69.18 191.505 69.3C191.771 69.4067 191.991 69.5333 192.165 69.68C192.338 69.8133 192.418 69.9067 192.405 69.96L189.925 78.3C189.778 78.8467 189.271 79.12 188.405 79.12C187.898 79.12 187.531 79.06 187.305 78.94C187.091 78.8067 186.918 78.5533 186.785 78.18L185.205 73.24L183.605 78.18C183.485 78.54 183.305 78.7867 183.065 78.92C182.838 79.0533 182.485 79.12 182.005 79.12ZM199.723 69.02C200.936 69.02 201.843 69.3933 202.443 70.14C203.043 70.8867 203.343 71.8533 203.343 73.04V77.74C203.343 78.6333 202.923 79.08 202.083 79.08H201.783C201.383 79.08 201.07 78.98 200.843 78.78C200.63 78.58 200.523 78.2333 200.523 77.74V73.48C200.523 72.8267 200.363 72.3133 200.043 71.94C199.736 71.5667 199.296 71.38 198.723 71.38C198.243 71.38 197.816 71.5 197.443 71.74C197.07 71.9667 196.783 72.2733 196.583 72.66V77.74C196.583 78.6333 196.17 79.08 195.343 79.08H195.043C194.63 79.08 194.31 78.98 194.083 78.78C193.87 78.58 193.763 78.2333 193.763 77.74V69.46C193.763 69.4067 193.876 69.34 194.103 69.26C194.33 69.18 194.57 69.14 194.823 69.14C195.25 69.14 195.616 69.2667 195.923 69.52C196.23 69.7733 196.423 70.1933 196.503 70.78C197.29 69.6067 198.363 69.02 199.723 69.02ZM208.665 79.12C208.265 79.12 207.931 79.06 207.665 78.94C207.411 78.82 207.231 78.6067 207.125 78.3L204.605 69.96C204.578 69.8933 204.658 69.7933 204.845 69.66C205.031 69.5267 205.258 69.4067 205.525 69.3C205.805 69.18 206.065 69.12 206.305 69.12C206.625 69.12 206.911 69.22 207.165 69.42C207.418 69.6067 207.585 69.92 207.665 70.36L208.865 76.2L210.445 71.12C210.605 70.5067 211.105 70.2 211.945 70.2C212.771 70.2 213.265 70.5067 213.425 71.12L214.905 76.08L216.085 70.36C216.165 69.92 216.325 69.6067 216.565 69.42C216.805 69.22 217.085 69.12 217.405 69.12C217.645 69.12 217.898 69.18 218.165 69.3C218.431 69.4067 218.651 69.5333 218.825 69.68C218.998 69.8133 219.078 69.9067 219.065 69.96L216.585 78.3C216.438 78.8467 215.931 79.12 215.065 79.12C214.558 79.12 214.191 79.06 213.965 78.94C213.751 78.8067 213.578 78.5533 213.445 78.18L211.865 73.24L210.265 78.18C210.145 78.54 209.965 78.7867 209.725 78.92C209.498 79.0533 209.145 79.12 208.665 79.12ZM219.708 76.42C219.708 75.34 220.228 74.54 221.268 74.02C222.308 73.4867 223.875 73.2067 225.968 73.18H226.288C226.288 73.0467 226.282 72.9533 226.268 72.9C226.255 72.3267 226.075 71.8933 225.728 71.6C225.395 71.2933 224.915 71.14 224.288 71.14C223.662 71.14 223.148 71.2733 222.748 71.54C222.362 71.8067 222.075 72.1467 221.888 72.56L221.628 72.58C221.255 72.58 220.902 72.5 220.568 72.34C220.235 72.1667 220.068 71.8667 220.068 71.44C220.068 70.96 220.268 70.5333 220.668 70.16C221.015 69.8 221.508 69.52 222.148 69.32C222.788 69.12 223.562 69.02 224.468 69.02C226.002 69.02 227.148 69.3667 227.908 70.06C228.682 70.74 229.068 71.74 229.068 73.06V78.82C229.068 78.8867 228.955 78.9533 228.728 79.02C228.515 79.1 228.275 79.14 228.008 79.14C227.275 79.14 226.782 78.8267 226.528 78.2C226.462 77.9867 226.408 77.7667 226.368 77.54C226.022 78.0733 225.555 78.4867 224.968 78.78C224.382 79.0733 223.722 79.22 222.988 79.22C221.975 79.22 221.175 78.9667 220.588 78.46C220.002 77.9533 219.708 77.2733 219.708 76.42ZM226.288 74.6H225.748C224.602 74.64 223.748 74.7867 223.188 75.04C222.628 75.28 222.348 75.6667 222.348 76.2C222.348 76.5733 222.482 76.8667 222.748 77.08C223.028 77.2933 223.402 77.4 223.868 77.4C224.575 77.4 225.148 77.2067 225.588 76.82C226.042 76.42 226.275 75.9133 226.288 75.3V74.6ZM236.247 69.02C236.807 69.02 237.247 69.1667 237.567 69.46C237.887 69.7533 238.047 70.1533 238.047 70.66C238.047 70.9933 237.981 71.2733 237.847 71.5C237.714 71.7267 237.567 71.9 237.407 72.02C237.261 72.1267 237.174 72.1667 237.147 72.14C236.774 71.82 236.347 71.66 235.867 71.66C235.201 71.66 234.707 71.9333 234.387 72.48C234.067 73.0267 233.907 73.8067 233.907 74.82V77.74C233.907 78.6333 233.494 79.08 232.667 79.08H232.367C231.954 79.08 231.634 78.98 231.407 78.78C231.194 78.58 231.087 78.2333 231.087 77.74V69.46C231.087 69.4067 231.194 69.34 231.407 69.26C231.634 69.18 231.881 69.14 232.147 69.14C232.481 69.14 232.781 69.2267 233.047 69.4C233.327 69.56 233.541 69.8267 233.687 70.2C233.727 70.3333 233.774 70.56 233.827 70.88C234.027 70.2933 234.327 69.84 234.727 69.52C235.141 69.1867 235.647 69.02 236.247 69.02ZM243.134 79.28C242.267 79.28 241.494 79.0667 240.814 78.64C240.134 78.2 239.6 77.5933 239.214 76.82C238.84 76.0467 238.654 75.1533 238.654 74.14C238.654 73.1133 238.84 72.2133 239.214 71.44C239.6 70.6667 240.134 70.0733 240.814 69.66C241.507 69.2333 242.3 69.02 243.194 69.02C243.874 69.02 244.48 69.16 245.014 69.44C245.56 69.7067 245.98 70.06 246.274 70.5V65.42C246.274 65.3667 246.387 65.3 246.614 65.22C246.84 65.14 247.08 65.1 247.334 65.1C247.84 65.1 248.26 65.2733 248.594 65.62C248.927 65.9533 249.094 66.5333 249.094 67.36V77.74C249.094 78.22 248.987 78.5667 248.774 78.78C248.56 78.98 248.254 79.08 247.854 79.08H247.574C247.227 79.08 246.947 79.0067 246.734 78.86C246.534 78.7133 246.407 78.46 246.354 78.1C246.327 77.8067 246.314 77.58 246.314 77.42C245.98 78.0067 245.54 78.4667 244.994 78.8C244.46 79.12 243.84 79.28 243.134 79.28ZM246.294 72.84C246.08 72.3467 245.767 71.9667 245.354 71.7C244.954 71.42 244.46 71.28 243.874 71.28C243.114 71.28 242.5 71.54 242.034 72.06C241.567 72.5667 241.334 73.26 241.334 74.14C241.334 74.9933 241.567 75.6867 242.034 76.22C242.5 76.7533 243.1 77.02 243.834 77.02C244.514 77.02 245.094 76.8 245.574 76.36C246.054 75.92 246.294 75.36 246.294 74.68V72.84ZM258.251 79.28C257.185 79.28 256.391 79 255.871 78.44C255.365 77.88 255.111 77.04 255.111 75.92V71.44H254.611C253.838 71.44 253.451 71.1067 253.451 70.44V70.28C253.451 69.5867 253.831 69.24 254.591 69.24H255.111V68C255.111 67.0933 255.531 66.64 256.371 66.64H256.631C257.031 66.64 257.338 66.7467 257.551 66.96C257.765 67.16 257.871 67.5067 257.871 68V69.24H259.571C260.331 69.24 260.711 69.5667 260.711 70.22V70.4C260.711 71.0933 260.325 71.44 259.551 71.44H257.831V75.6C257.831 76.0933 257.911 76.46 258.071 76.7C258.245 76.9267 258.525 77.04 258.911 77.04C259.418 77.04 259.825 76.82 260.131 76.38C260.171 76.3667 260.251 76.4067 260.371 76.5C260.491 76.5933 260.598 76.7267 260.691 76.9C260.785 77.06 260.831 77.2533 260.831 77.48C260.831 77.8933 260.671 78.2533 260.351 78.56C259.871 79.04 259.171 79.28 258.251 79.28ZM267.4 69.02C267.96 69.02 268.4 69.1667 268.72 69.46C269.04 69.7533 269.2 70.1533 269.2 70.66C269.2 70.9933 269.133 71.2733 269 71.5C268.866 71.7267 268.72 71.9 268.56 72.02C268.413 72.1267 268.326 72.1667 268.3 72.14C267.926 71.82 267.5 71.66 267.02 71.66C266.353 71.66 265.86 71.9333 265.54 72.48C265.22 73.0267 265.06 73.8067 265.06 74.82V77.74C265.06 78.6333 264.646 79.08 263.82 79.08H263.52C263.106 79.08 262.786 78.98 262.56 78.78C262.346 78.58 262.24 78.2333 262.24 77.74V69.46C262.24 69.4067 262.346 69.34 262.56 69.26C262.786 69.18 263.033 69.14 263.3 69.14C263.633 69.14 263.933 69.2267 264.2 69.4C264.48 69.56 264.693 69.8267 264.84 70.2C264.88 70.3333 264.926 70.56 264.98 70.88C265.18 70.2933 265.48 69.84 265.88 69.52C266.293 69.1867 266.8 69.02 267.4 69.02ZM269.396 74.2C269.396 73.2133 269.609 72.3267 270.036 71.54C270.476 70.7533 271.083 70.14 271.856 69.7C272.629 69.2467 273.496 69.02 274.456 69.02C275.416 69.02 276.263 69.2267 276.996 69.64C277.729 70.0533 278.296 70.6333 278.696 71.38C279.109 72.1133 279.316 72.9533 279.316 73.9V74.08C279.303 74.3333 279.249 74.52 279.156 74.64C279.063 74.76 278.889 74.82 278.636 74.82H271.876L271.936 75.14C272.083 75.78 272.403 76.2933 272.896 76.68C273.403 77.0533 274.016 77.24 274.736 77.24C275.416 77.24 275.983 77.1133 276.436 76.86C276.889 76.5933 277.236 76.2467 277.476 75.82C277.489 75.7933 277.616 75.8133 277.856 75.88C278.109 75.9333 278.336 76.0533 278.536 76.24C278.749 76.4267 278.856 76.6867 278.856 77.02C278.856 77.2867 278.763 77.5533 278.576 77.82C278.389 78.0867 278.123 78.3267 277.776 78.54C276.963 79.0333 275.923 79.28 274.656 79.28C273.603 79.28 272.676 79.0733 271.876 78.66C271.089 78.2467 270.476 77.66 270.036 76.9C269.609 76.1267 269.396 75.2267 269.396 74.2ZM276.716 73.28C276.676 72.5733 276.449 72.0133 276.036 71.6C275.636 71.1733 275.103 70.96 274.436 70.96C273.769 70.96 273.203 71.18 272.736 71.62C272.283 72.0467 272.009 72.6 271.916 73.28H276.716ZM286.852 69.02C288.065 69.02 288.972 69.3933 289.572 70.14C290.172 70.8867 290.472 71.8533 290.472 73.04V77.74C290.472 78.6333 290.052 79.08 289.212 79.08H288.912C288.512 79.08 288.199 78.98 287.972 78.78C287.759 78.58 287.652 78.2333 287.652 77.74V73.48C287.652 72.8267 287.492 72.3133 287.172 71.94C286.865 71.5667 286.425 71.38 285.852 71.38C285.372 71.38 284.945 71.5 284.572 71.74C284.199 71.9667 283.912 72.2733 283.712 72.66V77.74C283.712 78.6333 283.299 79.08 282.472 79.08H282.172C281.759 79.08 281.439 78.98 281.212 78.78C280.999 78.58 280.892 78.2333 280.892 77.74V69.46C280.892 69.4067 281.005 69.34 281.232 69.26C281.459 69.18 281.699 69.14 281.952 69.14C282.379 69.14 282.745 69.2667 283.052 69.52C283.359 69.7733 283.552 70.1933 283.632 70.78C284.419 69.6067 285.492 69.02 286.852 69.02ZM296.474 79.28C295.607 79.28 294.834 79.0667 294.154 78.64C293.474 78.2 292.94 77.5933 292.554 76.82C292.18 76.0467 291.994 75.1533 291.994 74.14C291.994 73.1133 292.18 72.2133 292.554 71.44C292.94 70.6667 293.474 70.0733 294.154 69.66C294.847 69.2333 295.64 69.02 296.534 69.02C297.214 69.02 297.82 69.16 298.354 69.44C298.9 69.7067 299.32 70.06 299.614 70.5V65.42C299.614 65.3667 299.727 65.3 299.954 65.22C300.18 65.14 300.42 65.1 300.674 65.1C301.18 65.1 301.6 65.2733 301.934 65.62C302.267 65.9533 302.434 66.5333 302.434 67.36V77.74C302.434 78.22 302.327 78.5667 302.114 78.78C301.9 78.98 301.594 79.08 301.194 79.08H300.914C300.567 79.08 300.287 79.0067 300.074 78.86C299.874 78.7133 299.747 78.46 299.694 78.1C299.667 77.8067 299.654 77.58 299.654 77.42C299.32 78.0067 298.88 78.4667 298.334 78.8C297.8 79.12 297.18 79.28 296.474 79.28ZM299.634 72.84C299.42 72.3467 299.107 71.9667 298.694 71.7C298.294 71.42 297.8 71.28 297.214 71.28C296.454 71.28 295.84 71.54 295.374 72.06C294.907 72.5667 294.674 73.26 294.674 74.14C294.674 74.9933 294.907 75.6867 295.374 76.22C295.84 76.7533 296.44 77.02 297.174 77.02C297.854 77.02 298.434 76.8 298.914 76.36C299.394 75.92 299.634 75.36 299.634 74.68V72.84Z" fill="black"/>
<path d="M100.92 169.38V158.42H97.1C96.66 158.42 96.42 158.2 96.42 157.78V157.7C96.42 157.28 96.66 157.06 97.1 157.06H106.22C106.68 157.06 106.92 157.28 106.92 157.7V157.78C106.92 158.2 106.68 158.42 106.22 158.42H102.42V169.38C102.42 169.82 102.2 170.06 101.76 170.06H101.56C101.14 170.06 100.92 169.82 100.92 169.38ZM113.268 160.24C115.748 160.24 116.948 161.94 116.948 164.4V169.38C116.948 169.9 116.688 170.06 116.328 170.06H116.148C115.768 170.06 115.508 169.9 115.508 169.38V164.5C115.508 162.66 114.608 161.54 112.988 161.54C111.288 161.54 110.068 162.7 110.048 164.48V169.38C110.048 169.9 109.788 170.06 109.428 170.06H109.248C108.868 170.06 108.608 169.9 108.608 169.38V156.52C108.608 156.46 108.848 156.36 109.128 156.36C109.588 156.36 110.048 156.6 110.048 157.64V162.2C110.648 161.02 111.768 160.24 113.268 160.24ZM118.828 165.28C118.828 162.38 120.808 160.24 123.548 160.24C126.208 160.24 127.928 162.12 127.928 164.94V165.08C127.928 165.42 127.788 165.54 127.428 165.54H120.208C120.208 165.62 120.208 165.72 120.228 165.82C120.408 167.74 121.788 169.02 123.708 169.02C125.488 169.02 126.328 168.18 126.808 167.26C126.888 167.22 127.628 167.38 127.628 168.02C127.628 168.32 127.388 168.78 126.868 169.2C126.268 169.72 125.168 170.22 123.688 170.22C120.788 170.22 118.828 168.2 118.828 165.28ZM126.508 164.5C126.428 162.64 125.288 161.4 123.548 161.4C121.808 161.4 120.508 162.68 120.248 164.5H126.508ZM138.216 160.24C140.716 160.24 142.616 162.22 142.616 165.2C142.616 168.18 140.756 170.22 138.176 170.22C136.436 170.22 135.236 169.26 134.736 168.22V173.18C134.736 173.68 134.476 173.86 134.116 173.86H133.956C133.576 173.86 133.316 173.68 133.316 173.18V160.54C133.316 160.5 133.536 160.38 133.816 160.38C134.236 160.38 134.636 160.62 134.696 161.46C134.696 161.7 134.716 162.02 134.716 162.28C135.416 161.04 136.556 160.24 138.216 160.24ZM137.916 169C139.876 169 141.196 167.48 141.196 165.22C141.196 163 139.816 161.46 137.956 161.46C136.356 161.46 135.256 162.38 134.716 163.76V165.88C134.716 167.64 136.156 169 137.916 169ZM148.465 160.24C149.325 160.24 149.885 160.66 149.885 161.28C149.885 161.86 149.485 162.1 149.445 162.06C149.205 161.82 148.825 161.66 148.305 161.66C146.745 161.66 146.025 163.2 146.025 165.6V169.38C146.025 169.88 145.765 170.06 145.405 170.06H145.245C144.845 170.06 144.585 169.9 144.585 169.38V160.54C144.585 160.5 144.805 160.38 145.105 160.38C145.505 160.38 145.865 160.58 145.945 161.34C145.965 161.68 145.985 162.02 145.985 162.38C146.365 160.94 147.245 160.24 148.465 160.24ZM150.371 165.22C150.371 162.32 152.371 160.24 155.231 160.24C158.051 160.24 160.051 162.34 160.051 165.26C160.051 168.14 158.051 170.22 155.211 170.22C152.351 170.22 150.371 168.12 150.371 165.22ZM158.651 165.26C158.651 163.06 157.231 161.46 155.231 161.46C153.231 161.46 151.771 163.02 151.771 165.22C151.771 167.42 153.231 169 155.231 169C157.211 169 158.651 167.44 158.651 165.26ZM166.946 160.24C169.446 160.24 171.346 162.22 171.346 165.2C171.346 168.18 169.486 170.22 166.906 170.22C165.166 170.22 163.966 169.26 163.466 168.22V173.18C163.466 173.68 163.206 173.86 162.846 173.86H162.686C162.306 173.86 162.046 173.68 162.046 173.18V160.54C162.046 160.5 162.266 160.38 162.546 160.38C162.966 160.38 163.366 160.62 163.426 161.46C163.426 161.7 163.446 162.02 163.446 162.28C164.146 161.04 165.286 160.24 166.946 160.24ZM166.646 169C168.606 169 169.926 167.48 169.926 165.22C169.926 163 168.546 161.46 166.686 161.46C165.086 161.46 163.986 162.38 163.446 163.76V165.88C163.446 167.64 164.886 169 166.646 169ZM172.715 165.22C172.715 162.32 174.715 160.24 177.575 160.24C180.395 160.24 182.395 162.34 182.395 165.26C182.395 168.14 180.395 170.22 177.555 170.22C174.695 170.22 172.715 168.12 172.715 165.22ZM180.995 165.26C180.995 163.06 179.575 161.46 177.575 161.46C175.575 161.46 174.115 163.02 174.115 165.22C174.115 167.42 175.575 169 177.575 169C179.555 169 180.995 167.44 180.995 165.26ZM188.25 160.24C189.11 160.24 189.67 160.66 189.67 161.28C189.67 161.86 189.27 162.1 189.23 162.06C188.99 161.82 188.61 161.66 188.09 161.66C186.53 161.66 185.81 163.2 185.81 165.6V169.38C185.81 169.88 185.55 170.06 185.19 170.06H185.03C184.63 170.06 184.37 169.9 184.37 169.38V160.54C184.37 160.5 184.59 160.38 184.89 160.38C185.29 160.38 185.65 160.58 185.73 161.34C185.75 161.68 185.77 162.02 185.77 162.38C186.15 160.94 187.03 160.24 188.25 160.24ZM194.524 170.22C192.764 170.22 191.904 169.24 191.904 167.22V161.68H190.964C190.504 161.68 190.344 161.48 190.344 161.14V161C190.344 160.66 190.504 160.46 190.964 160.46H191.904V158.78C191.904 158.28 192.164 158.08 192.544 158.08H192.704C193.084 158.08 193.324 158.26 193.324 158.78V160.46H195.744C196.184 160.46 196.364 160.64 196.364 161V161.12C196.364 161.48 196.184 161.68 195.724 161.68H193.304V167C193.304 168.4 193.724 169 194.724 169C195.364 169 195.844 168.7 196.144 168.26C196.204 168.22 196.544 168.42 196.544 168.92C196.544 169.16 196.444 169.42 196.184 169.66C195.844 169.98 195.304 170.22 194.524 170.22ZM198.059 157.46C198.059 156.86 198.399 156.54 198.979 156.54C199.559 156.54 199.899 156.86 199.899 157.46C199.899 158.04 199.539 158.36 198.959 158.36C198.399 158.36 198.059 158.04 198.059 157.46ZM198.239 169.38V161.08C198.239 160.56 198.499 160.38 198.879 160.38H199.039C199.419 160.38 199.679 160.54 199.679 161.08V169.38C199.679 169.9 199.419 170.06 199.039 170.06H198.879C198.499 170.06 198.239 169.9 198.239 169.38ZM201.739 165.22C201.739 162.32 203.739 160.24 206.599 160.24C209.419 160.24 211.419 162.34 211.419 165.26C211.419 168.14 209.419 170.22 206.579 170.22C203.719 170.22 201.739 168.12 201.739 165.22ZM210.019 165.26C210.019 163.06 208.599 161.46 206.599 161.46C204.599 161.46 203.139 163.02 203.139 165.22C203.139 167.42 204.599 169 206.599 169C208.579 169 210.019 167.44 210.019 165.26ZM218.073 160.24C220.533 160.24 221.733 161.94 221.733 164.38V169.38C221.733 169.9 221.473 170.06 221.113 170.06H220.933C220.553 170.06 220.293 169.9 220.293 169.38V164.5C220.293 162.66 219.413 161.52 217.793 161.52C216.393 161.52 215.353 162.3 214.833 163.44V169.38C214.833 169.9 214.573 170.06 214.213 170.06H214.033C213.653 170.06 213.393 169.9 213.393 169.38V160.54C213.393 160.5 213.633 160.38 213.913 160.38C214.353 160.38 214.753 160.6 214.793 161.58V162.14C215.433 161 216.553 160.24 218.073 160.24ZM229.76 170.1C229.16 170.1 228.92 169.96 228.82 169.6L226.5 160.78C226.48 160.7 226.92 160.36 227.32 160.36C227.64 160.38 227.98 160.58 228.12 161.24L229.82 168.64L231.84 162.32C231.94 161.94 232.2 161.78 232.78 161.78C233.36 161.78 233.6 161.94 233.72 162.32L235.72 168.62L237.4 161.24C237.54 160.54 237.92 160.36 238.22 160.38C238.64 160.38 239 160.72 239 160.78L236.68 169.6C236.6 169.96 236.34 170.1 235.74 170.1C235.12 170.1 234.96 169.96 234.82 169.56L232.76 163.3L230.66 169.56C230.54 169.96 230.36 170.1 229.76 170.1ZM240.677 157.46C240.677 156.86 241.017 156.54 241.597 156.54C242.177 156.54 242.517 156.86 242.517 157.46C242.517 158.04 242.157 158.36 241.577 158.36C241.017 158.36 240.677 158.04 240.677 157.46ZM240.857 169.38V161.08C240.857 160.56 241.117 160.38 241.497 160.38H241.657C242.037 160.38 242.297 160.54 242.297 161.08V169.38C242.297 169.9 242.037 170.06 241.657 170.06H241.497C241.117 170.06 240.857 169.9 240.857 169.38ZM245.715 170.06C245.335 170.06 245.075 169.9 245.075 169.38V156.52C245.075 156.46 245.315 156.36 245.595 156.36C246.055 156.36 246.515 156.6 246.515 157.64V169.38C246.515 169.9 246.255 170.06 245.875 170.06H245.715ZM249.915 170.06C249.535 170.06 249.275 169.9 249.275 169.38V156.52C249.275 156.46 249.515 156.36 249.795 156.36C250.255 156.36 250.715 156.6 250.715 157.64V169.38C250.715 169.9 250.455 170.06 250.075 170.06H249.915ZM256.052 165.12C256.052 162.16 258.192 160.02 261.152 160.02C262.652 160.02 263.692 160.46 264.352 161C265.012 161.54 265.312 162.2 265.312 162.68C265.312 163.82 263.792 164.04 263.732 163.92C263.352 162.98 262.652 162.3 261.272 162.3C259.752 162.3 258.632 163.48 258.632 165.12C258.632 166.8 259.732 168 261.272 168C262.612 168 263.352 167.32 263.732 166.38C263.792 166.26 265.312 166.42 265.312 167.64C265.312 168.1 265.012 168.76 264.332 169.28C263.672 169.84 262.612 170.28 261.152 170.28C258.152 170.28 256.052 168.16 256.052 165.12ZM266.326 165.12C266.326 162.12 268.446 160.02 271.546 160.02C274.626 160.02 276.726 162.12 276.726 165.16C276.726 168.2 274.606 170.28 271.506 170.28C268.406 170.28 266.326 168.2 266.326 165.12ZM274.226 165.16C274.226 163.44 273.106 162.22 271.526 162.22C269.946 162.22 268.806 163.44 268.806 165.12C268.806 166.82 269.946 168.06 271.526 168.06C273.086 168.06 274.226 166.82 274.226 165.16ZM284.29 160.02C286.83 160.02 287.91 161.82 287.91 164.04V168.74C287.91 169.76 287.37 170.08 286.65 170.08H286.35C285.61 170.08 285.09 169.78 285.09 168.74V164.48C285.09 163.18 284.43 162.38 283.29 162.38C282.31 162.38 281.55 162.9 281.15 163.66V168.74C281.15 169.76 280.63 170.08 279.91 170.08H279.61C278.85 170.08 278.33 169.78 278.33 168.74V160.46C278.33 160.36 278.83 160.14 279.39 160.14C280.15 160.14 280.91 160.52 281.07 161.78C281.77 160.74 282.79 160.02 284.29 160.02ZM293.931 170.28C291.791 170.28 290.791 169.14 290.791 166.92V162.44H290.291C289.491 162.44 289.131 162.08 289.131 161.44V161.28C289.131 160.62 289.491 160.24 290.271 160.24H290.791V159C290.791 158.08 291.251 157.64 292.051 157.64H292.311C293.051 157.64 293.551 157.96 293.551 159V160.24H295.251C296.051 160.24 296.391 160.58 296.391 161.22V161.4C296.391 162.08 296.031 162.44 295.231 162.44H293.511V166.6C293.511 167.56 293.811 168.04 294.591 168.04C295.151 168.04 295.551 167.76 295.811 167.38C295.911 167.34 296.511 167.74 296.511 168.48C296.511 168.9 296.351 169.26 296.031 169.56C295.591 170 294.871 170.28 293.931 170.28ZM297.819 157.24C297.819 156.34 298.419 155.78 299.399 155.78C300.379 155.78 300.979 156.34 300.979 157.24C300.979 158.14 300.399 158.7 299.399 158.7C298.439 158.7 297.819 158.14 297.819 157.24ZM297.979 168.74V161.5C297.979 160.48 298.519 160.14 299.239 160.14H299.539C300.279 160.14 300.799 160.46 300.799 161.5V168.74C300.799 169.76 300.279 170.08 299.539 170.08H299.259C298.499 170.08 297.979 169.78 297.979 168.74ZM308.938 160.02C311.478 160.02 312.558 161.82 312.558 164.04V168.74C312.558 169.76 312.018 170.08 311.298 170.08H310.998C310.258 170.08 309.738 169.78 309.738 168.74V164.48C309.738 163.18 309.078 162.38 307.938 162.38C306.958 162.38 306.198 162.9 305.798 163.66V168.74C305.798 169.76 305.278 170.08 304.558 170.08H304.258C303.498 170.08 302.978 169.78 302.978 168.74V160.46C302.978 160.36 303.478 160.14 304.038 160.14C304.798 160.14 305.558 160.52 305.718 161.78C306.418 160.74 307.438 160.02 308.938 160.02ZM322.78 160.14C323.54 160.14 324.06 160.46 324.06 161.5V169.76C324.06 169.86 323.56 170.08 323 170.08C322.4 170.08 321.74 169.86 321.42 169.02C321.38 168.86 321.34 168.7 321.32 168.48C320.64 169.5 319.64 170.26 318.1 170.26C315.56 170.26 314.5 168.48 314.5 166.22V161.5C314.5 160.48 315.02 160.14 315.72 160.14H316.04C316.78 160.14 317.3 160.46 317.3 161.5V165.8C317.3 167.12 317.98 167.9 319.14 167.9C320.1 167.9 320.84 167.38 321.26 166.62V161.5C321.26 160.48 321.76 160.14 322.48 160.14H322.78ZM325.486 165.2C325.486 162.22 327.606 160.02 330.546 160.02C333.446 160.02 335.406 162.04 335.406 164.9V165.08C335.386 165.56 335.246 165.82 334.726 165.82H327.966L328.026 166.14C328.326 167.42 329.386 168.24 330.826 168.24C332.286 168.24 333.126 167.6 333.566 166.82C333.586 166.78 334.946 166.9 334.946 168.02C334.946 168.56 334.566 169.12 333.866 169.54C333.146 169.98 332.106 170.28 330.746 170.28C327.566 170.28 325.486 168.3 325.486 165.2ZM332.806 164.28C332.726 162.86 331.866 161.96 330.526 161.96C329.186 161.96 328.186 162.92 328.006 164.28H332.806ZM101.06 195.28C98.92 195.28 97.92 194.14 97.92 191.92V187.44H97.42C96.62 187.44 96.26 187.08 96.26 186.44V186.28C96.26 185.62 96.62 185.24 97.4 185.24H97.92V184C97.92 183.08 98.38 182.64 99.18 182.64H99.44C100.18 182.64 100.68 182.96 100.68 184V185.24H102.38C103.18 185.24 103.52 185.58 103.52 186.22V186.4C103.52 187.08 103.16 187.44 102.36 187.44H100.64V191.6C100.64 192.56 100.94 193.04 101.72 193.04C102.28 193.04 102.68 192.76 102.94 192.38C103.04 192.34 103.64 192.74 103.64 193.48C103.64 193.9 103.48 194.26 103.16 194.56C102.72 195 102 195.28 101.06 195.28ZM104.431 190.12C104.431 187.12 106.551 185.02 109.651 185.02C112.731 185.02 114.831 187.12 114.831 190.16C114.831 193.2 112.711 195.28 109.611 195.28C106.511 195.28 104.431 193.2 104.431 190.12ZM112.331 190.16C112.331 188.44 111.211 187.22 109.631 187.22C108.051 187.22 106.911 188.44 106.911 190.12C106.911 191.82 108.051 193.06 109.631 193.06C111.191 193.06 112.331 191.82 112.331 190.16ZM124.993 185.02C126.113 185.02 126.793 185.66 126.793 186.66C126.793 187.78 125.933 188.18 125.893 188.14C125.593 187.88 125.153 187.66 124.613 187.66C123.253 187.66 122.653 188.86 122.653 190.82V193.74C122.653 194.76 122.133 195.08 121.413 195.08H121.113C120.353 195.08 119.833 194.78 119.833 193.74V185.46C119.833 185.36 120.313 185.14 120.893 185.14C121.473 185.14 122.113 185.38 122.433 186.2C122.493 186.38 122.533 186.62 122.573 186.88C122.953 185.72 123.773 185.02 124.993 185.02ZM127.995 182.24C127.995 181.34 128.595 180.78 129.575 180.78C130.555 180.78 131.155 181.34 131.155 182.24C131.155 183.14 130.575 183.7 129.575 183.7C128.615 183.7 127.995 183.14 127.995 182.24ZM128.155 193.74V186.5C128.155 185.48 128.695 185.14 129.415 185.14H129.715C130.455 185.14 130.975 185.46 130.975 186.5V193.74C130.975 194.76 130.455 195.08 129.715 195.08H129.435C128.675 195.08 128.155 194.78 128.155 193.74ZM133.374 194.48C132.814 194.1 132.514 193.62 132.514 193.08C132.514 192.36 133.294 191.9 133.374 191.96C134.034 192.7 135.154 193.28 136.594 193.28C137.694 193.28 138.294 192.9 138.294 192.28C138.294 191.52 137.514 191.38 136.214 191.1C134.874 190.82 132.794 190.38 132.794 188.18C132.794 186.28 134.334 185.02 136.854 185.02C138.834 185.02 140.054 185.56 140.554 186.32C140.714 186.56 140.794 186.84 140.794 187.12C140.794 187.86 139.934 188.36 139.894 188.3C139.234 187.54 138.174 186.98 137.034 186.98C135.954 186.98 135.374 187.38 135.374 188C135.374 188.7 136.134 188.84 137.454 189.14C138.834 189.44 141.034 189.88 141.034 192.08C141.034 194.04 139.474 195.22 136.734 195.22C135.194 195.22 134.074 194.92 133.374 194.48ZM142.165 190.2C142.165 187.22 144.285 185.02 147.225 185.02C150.125 185.02 152.085 187.04 152.085 189.9V190.08C152.065 190.56 151.925 190.82 151.405 190.82H144.645L144.705 191.14C145.005 192.42 146.065 193.24 147.505 193.24C148.965 193.24 149.805 192.6 150.245 191.82C150.265 191.78 151.625 191.9 151.625 193.02C151.625 193.56 151.245 194.12 150.545 194.54C149.825 194.98 148.785 195.28 147.425 195.28C144.245 195.28 142.165 193.3 142.165 190.2ZM149.485 189.28C149.405 187.86 148.545 186.96 147.205 186.96C145.865 186.96 144.865 187.92 144.685 189.28H149.485Z" fill="black"/>
<g clip-path="url(#clip0_2248_3199)">
<path d="M41.999 118.808H42C48.902 118.808 55.6487 120.856 61.3867 124.691C67.1247 128.527 71.5959 133.979 74.2344 140.356C76.873 146.734 77.5609 153.752 76.21 160.521C74.859 167.289 71.5302 173.505 66.6455 178.381C61.7608 183.257 55.5394 186.575 48.7686 187.914C41.9977 189.253 34.9816 188.554 28.6084 185.904C22.2352 183.255 16.7907 178.774 12.9648 173.029C9.13898 167.285 7.10329 160.534 7.11523 153.632V153.631C7.11926 149.054 8.02512 144.523 9.78027 140.296C11.5354 136.069 14.1056 132.229 17.3447 128.995C20.5841 125.761 24.429 123.197 28.6592 121.449C32.8893 119.701 37.4221 118.804 41.999 118.808Z" fill="#EDEEF2" stroke="#FF7876"/>
<path d="M34.6304 157.555C34.8623 158.513 36.5813 162.445 32.7252 168.596C28.8692 174.747 41.6041 178.074 41.6041 178.074C41.6041 178.074 53.6839 173.637 54.3339 171.47C58.3293 167.79 46.9004 171.52 49.0843 157.958C43.8805 154.378 34.6406 157.551 34.6406 157.551L34.6304 157.555Z" fill="#EDE7E6"/>
<path d="M37.5371 163.358L37.8616 159.133C37.8672 157.949 38.3409 156.815 39.1794 155.979C40.0178 155.142 41.153 154.672 42.3371 154.669H42.9779C45.4415 154.681 49.1135 154.387 48.7595 158.714C48.4055 163.041 49.026 164.258 49.9577 166.431C50.8894 168.603 47.9234 168.653 47.6253 169.19C47.3035 169.227 46.9799 169.245 46.656 169.244H45.7029C43.8979 169.24 42.1398 168.669 40.6761 167.613C39.2123 166.557 38.1166 165.068 37.5432 163.357" fill="#E3DCDB"/>
<path d="M42.2551 184.261C50.3263 184.261 58.2175 182.028 64.1648 174.871C64.173 174.862 63.1233 173.898 63.1223 173.887C62.0034 171.785 50.2765 164.298 49.4495 165.647C47.8292 168.943 44.8123 169.513 42.5328 169.427C38.7123 169.279 33.777 167.586 33.8676 166.274C29.6911 165.919 21.5599 169.91 18.7637 172.331C22.6981 179.966 34.3863 184.268 42.2602 184.268L42.2551 184.261Z" fill="#FD99B7"/>
<path d="M39.543 142.491C39.543 142.491 43.6778 150.821 49.5275 149.648C49.5275 149.648 45.3439 147.392 45.2178 144.621C45.0916 141.849 42.8712 141.69 42.8712 141.69L39.543 142.491Z" fill="#66382B"/>
<path d="M42.3732 129.775C50.657 129.775 57.3733 135.245 57.3733 143.53C57.373 147.508 55.7924 151.324 52.9792 154.136C50.1661 156.949 46.3508 158.529 42.3727 158.529C38.3945 158.529 34.5794 156.949 31.7664 154.136C28.9535 151.323 27.3731 147.507 27.373 143.529C27.373 135.245 34.0863 129.775 42.3732 129.775Z" fill="#66382B"/>
<path d="M29.352 151.803C29.3998 152.4 29.6205 152.97 29.9872 153.443C30.3538 153.916 30.8504 154.272 31.4163 154.468C31.9821 154.663 32.5927 154.69 33.1733 154.544C33.7539 154.398 34.2794 154.086 34.6854 153.646C35.0915 153.206 35.3605 152.657 35.4596 152.067C35.5587 151.476 35.4835 150.87 35.2434 150.321C35.0032 149.773 34.6084 149.306 34.1073 148.979C33.6062 148.651 33.0205 148.477 32.4218 148.477C31.5741 148.512 30.7751 148.882 30.1997 149.506C29.6243 150.129 29.3195 150.955 29.352 151.803Z" fill="#EFE7E6"/>
<path d="M48.8363 151.642C48.8842 152.239 49.1049 152.809 49.4715 153.282C49.8382 153.756 50.3348 154.112 50.9006 154.307C51.4665 154.503 52.0771 154.529 52.6577 154.383C53.2383 154.237 53.7638 153.925 54.1698 153.485C54.5758 153.045 54.8449 152.496 54.944 151.906C55.0431 151.315 54.9679 150.709 54.7278 150.161C54.4876 149.612 54.0928 149.146 53.5917 148.818C53.0906 148.491 52.5048 148.316 51.9061 148.316C51.0585 148.352 50.2595 148.722 49.6841 149.345C49.1087 149.968 48.8038 150.795 48.8363 151.642Z" fill="#EFE7E6"/>
<path d="M33.3915 141.708H51.2143C52.0048 141.697 52.7763 141.95 53.4062 142.428C53.6804 142.63 53.9049 142.892 54.0624 143.194C54.22 143.496 54.3066 143.83 54.3156 144.17V152.787C54.2822 154.034 53.9648 155.257 53.3875 156.363C52.8103 157.469 51.9884 158.429 50.9844 159.169C48.673 160.922 45.8423 161.853 42.9417 161.814H41.6641C38.7631 161.853 35.932 160.922 33.6204 159.169C32.6162 158.429 31.7943 157.469 31.217 156.363C30.6398 155.257 30.3224 154.034 30.2891 152.787V144.169C30.2984 143.829 30.3852 143.495 30.543 143.193C30.7007 142.891 30.9253 142.63 31.1995 142.428C31.8296 141.95 32.6011 141.696 33.3915 141.708Z" fill="#F7EDEB"/>
<path d="M42.137 140.413C42.137 140.413 38.5881 150.919 31.1862 149.065C23.7843 147.21 31.1862 141.803 31.1862 141.803L42.137 140.413Z" fill="#66382B"/>
<path d="M40.8027 139.552C40.8027 139.552 44.554 150.059 52.378 148.204C60.2021 146.35 52.378 140.943 52.378 140.943L40.8027 139.552Z" fill="#66382B"/>
<path d="M21.2622 138.774C17.5342 144.899 21.0445 150.529 18.8077 154.024C16.571 157.519 27.596 150.695 29.5897 144.704C30.7802 141.604 31.0123 138.218 30.2559 134.984C30.26 134.051 24.9911 132.649 21.2622 138.774Z" fill="#66382B"/>
<path d="M63.257 138.774C66.9849 144.899 63.4747 150.529 65.7115 154.024C67.9482 157.519 56.9232 150.695 54.9295 144.704C53.7393 141.604 53.5076 138.218 54.2643 134.984C54.2602 134.051 59.5291 132.649 63.257 138.774Z" fill="#66382B"/>
<path d="M23.8887 178.076V169.17C25.7724 168.214 27.7397 167.432 29.7659 166.834V176.004H52.8413V166.6C54.7961 167.627 56.6861 168.774 58.5008 170.033V179.899C53.595 183.128 47.967 184.257 42.2465 184.257C35.6448 184.09 29.2468 181.936 23.8887 178.076Z" fill="white"/>
</g>
<g clip-path="url(#clip1_2248_3199)">
<path d="M17.0068 16.0081C23.0194 12.2 30.0381 10.2872 37.1514 10.5188C46.1609 10.8158 54.72 14.529 61.0928 20.9045C67.2667 27.081 70.9407 35.3084 71.4307 44.0081L71.4688 44.8518C71.6971 51.965 69.7813 58.9827 65.9707 64.9934C62.16 71.0043 56.6297 75.7308 50.0986 78.5588C43.5678 81.3868 36.3375 82.1862 29.3467 80.8528C22.3557 79.5193 15.927 76.1139 10.8955 71.0803C5.86417 66.0467 2.46232 59.6168 1.13184 52.6252C-0.198625 45.6338 0.603742 38.404 3.43457 31.8743C6.2655 25.3444 10.9942 19.8162 17.0068 16.0081Z" fill="#EFEEED" stroke="#FF7876"/>
<path d="M52.5548 37.426C52.5548 37.426 54.7233 35.3479 56.199 37.426C57.6748 39.5041 55.687 43.7206 53.8197 44.3982C52.7331 44.793 51.5876 45.0017 50.4315 45.0156L52.5548 37.426ZM20.57 37.426C20.57 37.426 18.4016 35.3479 16.9258 37.426C15.4501 39.5041 17.4378 43.7206 19.3051 44.3982C20.3918 44.793 21.5372 45.0017 22.6933 45.0156L20.57 37.426Z" fill="#F6D6C2"/>
<path d="M20.1342 71.5794H52.4353C53.2261 71.1179 53.8625 70.4326 54.2645 69.6099C54.6665 68.7872 54.8159 67.8639 54.6941 66.9564C54.5378 65.0983 53.8374 63.3274 52.6804 61.8651C51.5233 60.4027 49.9611 59.3138 48.1887 58.7343C44.6951 57.891 41.1412 57.3489 41.1412 57.3489H30.826C30.826 57.3489 18.4025 59.2011 17.6345 65.1343C16.8665 71.0674 20.1342 71.5794 20.1342 71.5794Z" fill="#F3F6F8"/>
<path d="M30.6895 54.9695V60.4659L32.7224 63.4475L35.8998 61.3243L40.5529 61.4598L41.8932 59.9238L41.5317 54.0659L30.6895 54.9695Z" fill="#F6D6C2"/>
<path d="M41.8775 59.201V55.4062C40.1286 56.5171 38.0912 57.088 36.0197 57.0476C34.1013 56.9334 32.2516 56.2925 30.6738 55.1953V55.9182C32.9865 57.8459 35.7291 59.1888 38.67 59.8334C39.2165 59.9696 39.786 59.9863 40.3395 59.8824C40.893 59.7784 41.4177 59.5563 41.8775 59.2311" fill="#E3B99B"/>
<path d="M35.9891 56.7918C26.3816 56.7918 18.6113 48.3137 18.6113 37.8629C18.6113 27.4121 26.3816 18.9341 35.9891 18.9341C45.5966 18.9341 53.3669 27.4121 53.3669 37.8629C53.3669 48.3137 45.5815 56.7918 35.9891 56.7918Z" fill="#F6D6C2"/>
<path d="M27.3916 57.6349C26.721 57.7505 26.061 57.9217 25.4188 58.1469C24.9558 58.3224 24.5118 58.5444 24.0938 58.8095C25.5784 60.6719 26.6882 62.8044 27.3615 65.089C27.8434 67.8297 30.2076 69.9831 36.5172 70.209C42.8268 70.4349 44.8447 67.5737 45.5525 64.7427C46.3207 62.5165 47.4893 60.4496 49.0009 58.6439C48.5853 58.1513 48.0279 57.799 47.4047 57.6349C46.8601 57.4362 46.2823 57.3442 45.7029 57.3639C45.7029 57.3639 43.3086 60.225 37.1195 60.225C33.6923 60.3404 30.3077 59.4392 27.3916 57.6349Z" fill="#5295C2"/>
<path d="M44.634 22.3374C44.634 24.2197 38.9719 25.7708 39.3333 28.7825C39.6948 31.7943 42.6162 30.4992 40.8392 31.7943C39.0623 33.0893 29.8614 32.4719 28.6266 27.382C27.3918 22.2922 31.7588 17.7595 37.2552 17.7595C42.7517 17.7595 44.5738 20.3797 44.5738 22.2771" fill="#42080B"/>
<path d="M27.2099 64.833C27.0084 65.0033 26.8769 65.242 26.8408 65.5033C26.8047 65.7646 26.8664 66.03 27.0141 66.2486C27.5261 67.122 28.0833 67.1521 28.0833 67.1521C28.0649 67.4483 28.112 67.7449 28.2213 68.0208C28.3306 68.2967 28.4995 68.5451 28.7158 68.7483C29.2118 69.0505 29.7967 69.1728 30.3722 69.0947C30.3722 69.0947 30.4626 69.8777 31.7878 70.2241C32.1243 70.3355 32.4815 70.3704 32.8332 70.3261C33.1849 70.2818 33.5223 70.1595 33.8207 69.9681C34.344 70.435 35.0043 70.7202 35.703 70.7812C36.3283 70.7753 36.9391 70.5926 37.4649 70.2542C37.7488 70.4893 38.08 70.6608 38.4359 70.7569C38.7918 70.853 39.1642 70.8716 39.5279 70.8114C40.7477 70.5855 40.8381 69.7422 40.8381 69.7422C41.1515 69.8888 41.4934 69.9647 41.8395 69.9647C42.1855 69.9647 42.5274 69.8888 42.8409 69.7422C43.0938 69.5885 43.2957 69.3637 43.4216 69.0959C43.5475 68.8281 43.5917 68.5291 43.5486 68.2363C43.5486 68.2363 44.8136 68.402 45.3256 67.5737C45.4645 67.2814 45.5238 66.9575 45.4974 66.6349C45.4709 66.3123 45.3597 66.0024 45.175 65.7366C45.175 65.7366 46.3646 65.4504 46.5604 64.5017C46.6169 64.2353 46.6081 63.9592 46.5346 63.697C46.4612 63.4347 46.3254 63.1942 46.1387 62.9959L26.5624 62.9055C26.4532 63.0732 26.3854 63.2643 26.3644 63.4633C26.3435 63.6622 26.37 63.8633 26.4419 64.05C26.6037 64.4242 26.8989 64.7248 27.2701 64.8933" fill="#5295C2"/>
<path d="M38.8369 49.9549C37.8992 49.774 36.9457 49.6882 35.9908 49.6989C35.0359 49.6869 34.0822 49.7726 33.1447 49.9549C32.961 49.9438 32.7815 49.8954 32.6172 49.8127C32.4528 49.73 32.307 49.6147 32.1886 49.4738C32.0703 49.3329 31.9819 49.1694 31.9288 48.9932C31.8757 48.817 31.859 48.6319 31.8798 48.449V45.9041C31.859 45.7213 31.8757 45.5361 31.9288 45.3599C31.9819 45.1837 32.0703 45.0202 32.1886 44.8793C32.307 44.7384 32.4528 44.6231 32.6172 44.5404C32.7815 44.4577 32.961 44.4093 33.1447 44.3982C34.0867 44.5464 35.0375 44.6319 35.9908 44.6542C36.9434 44.641 37.8941 44.5655 38.8369 44.4283C39.0198 44.4415 39.1983 44.4912 39.3616 44.5746C39.5249 44.658 39.6699 44.7733 39.7879 44.9137C39.9058 45.0542 39.9944 45.2169 40.0483 45.3921C40.1023 45.5674 40.1205 45.7518 40.1018 45.9342V48.5394C40.1205 48.7218 40.1023 48.9061 40.0483 49.0814C39.9944 49.2567 39.9058 49.4194 39.7879 49.5598C39.6699 49.7003 39.5249 49.8156 39.3616 49.899C39.1983 49.9823 39.0198 50.0321 38.8369 50.0452" fill="#EE897F"/>
<path d="M35.9892 49.3074C36.9543 49.2914 37.9183 49.3772 38.8654 49.5634C39.1129 49.5261 39.3371 49.3968 39.4935 49.2014C39.6498 49.006 39.7267 48.7588 39.7087 48.5092V45.889C39.7296 45.6356 39.6495 45.3843 39.4859 45.1897C39.3224 44.995 39.0885 44.8729 38.8353 44.85C37.8926 44.9881 36.9418 45.0636 35.9892 45.0759C35.0318 45.0575 34.0764 44.9821 33.128 44.85C32.8858 44.8873 32.6668 45.0155 32.5158 45.2085C32.3647 45.4016 32.2928 45.6449 32.3149 45.889V48.5092C32.2929 48.7573 32.3663 49.0045 32.5202 49.2003C32.6741 49.3962 32.8968 49.526 33.1431 49.5634C34.0953 49.3777 35.0643 49.2919 36.0344 49.3074H35.9892ZM38.8805 50.3464H38.7901C37.8804 50.1868 36.9579 50.1112 36.0344 50.1205C35.1059 50.1131 34.1786 50.1887 33.2636 50.3464C32.7988 50.323 32.3622 50.1167 32.049 49.7725C31.7358 49.4283 31.5716 48.9741 31.592 48.5092V45.889C31.5698 45.4473 31.716 45.0135 32.0011 44.6754C32.2861 44.3372 32.6889 44.1197 33.128 44.0669C34.0714 44.199 35.0218 44.2744 35.9741 44.2928C36.9067 44.2777 37.8372 44.2023 38.76 44.0669C38.9927 44.0727 39.2219 44.1246 39.4345 44.2196C39.647 44.3145 39.8386 44.4506 39.9982 44.6201C40.1579 44.7895 40.2823 44.9889 40.3645 45.2067C40.4466 45.4245 40.4847 45.6564 40.4767 45.889V48.5092C40.4973 48.9717 40.3351 49.4236 40.0251 49.7674C39.7151 50.1112 39.2823 50.3192 38.8202 50.3464" fill="#E17870"/>
<path d="M35.9003 53.6897C35.4435 53.7271 34.9847 53.6488 34.5662 53.4619C34.1476 53.275 33.783 52.9856 33.506 52.6205C32.2561 50.7833 33.7168 47.2445 33.7771 47.0939C33.8229 46.9995 33.9023 46.9255 33.9998 46.8865C34.0973 46.8476 34.2058 46.8463 34.3041 46.8831C34.3973 46.9259 34.4699 47.0034 34.5065 47.0991C34.5431 47.1949 34.5408 47.3011 34.4999 47.3951C34.1234 48.3137 33.3102 50.9339 34.1535 52.1687C34.3747 52.4464 34.6651 52.6609 34.9956 52.7904C35.3261 52.92 35.6849 52.9601 36.0359 52.9066C36.3913 52.9397 36.7493 52.8792 37.0742 52.7313C37.3991 52.5834 37.6796 52.3531 37.8881 52.0633C38.6561 50.7833 37.7375 48.2836 37.3309 47.4252C37.3079 47.3788 37.2942 47.3283 37.2908 47.2766C37.2874 47.2248 37.2943 47.173 37.3111 47.1239C37.328 47.0749 37.3543 47.0297 37.3888 46.991C37.4232 46.9522 37.4649 46.9207 37.5116 46.8982C37.5565 46.8731 37.6061 46.8578 37.6573 46.8534C37.7085 46.849 37.7601 46.8556 37.8085 46.8727C37.857 46.8898 37.9012 46.917 37.9383 46.9526C37.9754 46.9881 38.0045 47.0312 38.0236 47.0789C38.0989 47.2144 39.7102 50.5725 38.5657 52.4699C38.2869 52.8724 37.9089 53.1961 37.4684 53.4098C37.0278 53.6234 36.5396 53.7198 36.0509 53.6897H35.9003Z" fill="#F0A89F"/>
</g>
<defs>
<clipPath id="clip0_2248_3199">
<rect width="72" height="72" fill="white" transform="translate(6 118)"/>
</clipPath>
<clipPath id="clip1_2248_3199">
<rect width="72" height="72" fill="white" transform="translate(0 10)"/>
</clipPath>
</defs>
</svg>
