<svg width="362" height="293" viewBox="0 0 362 293" fill="none" xmlns="http://www.w3.org/2000/svg">
<path d="M172.1 293C253.009 293 318.6 227.41 318.6 146.5C318.6 65.5903 253.009 0 172.1 0C91.1899 0 25.5996 65.5903 25.5996 146.5C25.5996 227.41 91.1899 293 172.1 293Z" fill="#FF7876"/>
<path d="M275.691 250.091C249.905 275.877 215.428 291.119 179.001 292.838C142.574 294.554 106.816 282.625 78.7174 259.38C50.6187 236.135 32.1999 203.246 27.0616 167.142C21.9233 131.038 30.435 94.3163 50.9327 64.1548L172.1 146.5L275.691 250.091Z" fill="#98C091"/>
<path d="M50.9629 64.1104C71.9184 33.2997 103.827 11.6317 140.194 3.5166L172.1 146.5L50.9629 64.1104Z" fill="#F8BB2A"/>
<path d="M3.81961 25.1C3.23961 25.1 2.93961 24.78 2.93961 24.16V14.88C2.59961 15.22 2.11961 15.42 1.59961 15.42C1.13961 15.42 0.739609 15.28 0.439609 15.04C0.159609 14.8 -0.000390597 14.44 -0.000390597 14.04C-0.000390597 13.36 0.519609 12.98 0.579609 13.02C0.879609 13.3 1.23961 13.48 1.75961 13.48C2.61961 13.48 3.27961 12.82 3.37961 11.96H4.07961C4.67961 11.96 4.97961 12.28 4.97961 12.9V24.16C4.97961 24.78 4.67961 25.1 4.07961 25.1H3.81961ZM8.96383 25C8.06383 25 7.68383 24.7 7.68383 23.88V23.38C7.68383 20.72 9.74383 19.54 11.6838 18.58C13.3838 17.74 14.9038 17.1 14.9038 15.7C14.9038 14.36 13.9238 13.56 12.2638 13.56C10.3638 13.56 9.46383 14.72 9.10383 16.04C9.10383 16.1 7.74383 16.12 7.74383 15.04C7.74383 14.36 8.14383 13.56 8.92383 12.92C9.70383 12.28 10.8838 11.8 12.4038 11.8C15.2238 11.8 16.9238 13.26 16.9238 15.66C16.9238 17.98 15.0838 18.9 13.1238 19.8C11.4238 20.56 10.0238 21.28 9.68383 22.66C9.64383 22.84 9.60383 23.04 9.60383 23.24H16.1638C16.8438 23.24 17.1438 23.52 17.1438 24.04V24.16C17.1438 24.7 16.8438 25 16.1638 25H8.96383ZM20.067 25.18C19.987 25.28 19.147 25 19.147 24.44C19.147 24.08 19.287 23.84 19.727 23.38L29.787 11.8C29.867 11.72 30.707 11.94 30.707 12.54C30.707 12.82 30.547 13.16 30.147 13.62L20.067 25.18ZM21.307 18.12C19.527 18.12 18.207 16.82 18.207 15.1V14.92C18.207 13.2 19.547 11.86 21.327 11.86C23.127 11.86 24.447 13.16 24.447 14.88V15.06C24.447 16.78 23.087 18.12 21.307 18.12ZM21.327 16.86C22.247 16.86 22.907 16.16 22.907 15.14V14.84C22.907 13.82 22.227 13.1 21.307 13.1C20.387 13.1 19.727 13.8 19.727 14.84V15.14C19.727 16.14 20.407 16.86 21.327 16.86ZM28.627 25.12C26.827 25.12 25.507 23.82 25.507 22.1V21.92C25.507 20.2 26.867 18.86 28.647 18.86C30.427 18.86 31.747 20.16 31.747 21.88V22.06C31.747 23.78 30.407 25.12 28.627 25.12ZM28.647 23.86C29.547 23.86 30.227 23.16 30.227 22.14V21.84C30.227 20.82 29.547 20.1 28.627 20.1C27.707 20.1 27.047 20.8 27.047 21.84V22.14C27.047 23.14 27.727 23.86 28.647 23.86ZM1.05961 49.3V37.94C1.05961 37.42 1.37961 37.06 1.87961 37.06H8.89961C9.35961 37.06 9.59961 37.28 9.59961 37.66V37.78C9.59961 38.2 9.35961 38.4 8.89961 38.4H2.55961V43.18H7.23961C7.71961 43.18 7.93961 43.38 7.93961 43.78V43.88C7.93961 44.3 7.71961 44.48 7.23961 44.48H2.57961V49.38C2.57961 49.82 2.33961 50.06 1.91961 50.06H1.69961C1.27961 50.06 1.05961 49.8 1.05961 49.3ZM15.1893 40.24C16.0493 40.24 16.6093 40.66 16.6093 41.28C16.6093 41.86 16.2093 42.1 16.1693 42.06C15.9293 41.82 15.5493 41.66 15.0293 41.66C13.4693 41.66 12.7493 43.2 12.7493 45.6V49.38C12.7493 49.88 12.4893 50.06 12.1293 50.06H11.9693C11.5693 50.06 11.3093 49.9 11.3093 49.38V40.54C11.3093 40.5 11.5293 40.38 11.8293 40.38C12.2293 40.38 12.5893 40.58 12.6693 41.34C12.6893 41.68 12.7093 42.02 12.7093 42.38C13.0893 40.94 13.9693 40.24 15.1893 40.24ZM17.096 45.22C17.096 42.32 19.096 40.24 21.956 40.24C24.776 40.24 26.776 42.34 26.776 45.26C26.776 48.14 24.776 50.22 21.936 50.22C19.076 50.22 17.096 48.12 17.096 45.22ZM25.376 45.26C25.376 43.06 23.956 41.46 21.956 41.46C19.956 41.46 18.496 43.02 18.496 45.22C18.496 47.42 19.956 49 21.956 49C23.936 49 25.376 47.44 25.376 45.26ZM39.6707 40.24C42.0107 40.24 43.2107 41.74 43.2107 44.26V49.38C43.2107 49.9 42.9507 50.06 42.5707 50.06H42.4107C42.0307 50.06 41.7707 49.9 41.7707 49.38V44.38C41.7707 42.54 40.9507 41.52 39.3707 41.52C38.2507 41.52 37.1707 42.24 36.7107 43.42V49.38C36.7107 49.9 36.4307 50.06 36.0707 50.06H35.9107C35.5307 50.06 35.2707 49.9 35.2707 49.38V44.26C35.2707 42.52 34.4707 41.52 32.8707 41.52C31.7707 41.52 30.6907 42.24 30.1907 43.42V49.38C30.1907 49.9 29.9307 50.06 29.5707 50.06H29.3907C29.0307 50.06 28.7507 49.9 28.7507 49.38V40.54C28.7507 40.5 28.9907 40.38 29.2707 40.38C29.7107 40.38 30.1107 40.6 30.1507 41.56L30.1707 42.04C30.7907 40.98 31.8707 40.24 33.1907 40.24C34.8107 40.24 35.8907 41.06 36.3507 42.36C36.9307 41.12 38.0907 40.24 39.6707 40.24ZM52.0102 50.22C50.2502 50.22 49.3902 49.24 49.3902 47.22V41.68H48.4502C47.9902 41.68 47.8302 41.48 47.8302 41.14V41C47.8302 40.66 47.9902 40.46 48.4502 40.46H49.3902V38.78C49.3902 38.28 49.6502 38.08 50.0302 38.08H50.1902C50.5702 38.08 50.8102 38.26 50.8102 38.78V40.46H53.2302C53.6702 40.46 53.8502 40.64 53.8502 41V41.12C53.8502 41.48 53.6702 41.68 53.2102 41.68H50.7902V47C50.7902 48.4 51.2102 49 52.2102 49C52.8502 49 53.3302 48.7 53.6302 48.26C53.6902 48.22 54.0302 48.42 54.0302 48.92C54.0302 49.16 53.9302 49.42 53.6702 49.66C53.3302 49.98 52.7902 50.22 52.0102 50.22ZM60.2857 40.24C62.7657 40.24 63.9657 41.94 63.9657 44.4V49.38C63.9657 49.9 63.7057 50.06 63.3457 50.06H63.1657C62.7857 50.06 62.5257 49.9 62.5257 49.38V44.5C62.5257 42.66 61.6257 41.54 60.0057 41.54C58.3057 41.54 57.0857 42.7 57.0657 44.48V49.38C57.0657 49.9 56.8057 50.06 56.4457 50.06H56.2657C55.8857 50.06 55.6257 49.9 55.6257 49.38V36.52C55.6257 36.46 55.8657 36.36 56.1457 36.36C56.6057 36.36 57.0657 36.6 57.0657 37.64V42.2C57.6657 41.02 58.7857 40.24 60.2857 40.24ZM65.846 45.28C65.846 42.38 67.826 40.24 70.566 40.24C73.226 40.24 74.946 42.12 74.946 44.94V45.08C74.946 45.42 74.806 45.54 74.446 45.54H67.226C67.226 45.62 67.226 45.72 67.246 45.82C67.426 47.74 68.806 49.02 70.726 49.02C72.506 49.02 73.346 48.18 73.826 47.26C73.906 47.22 74.646 47.38 74.646 48.02C74.646 48.32 74.406 48.78 73.886 49.2C73.286 49.72 72.186 50.22 70.706 50.22C67.806 50.22 65.846 48.2 65.846 45.28ZM73.526 44.5C73.446 42.64 72.306 41.4 70.566 41.4C68.826 41.4 67.526 42.68 67.266 44.5H73.526ZM81.7332 48.24V49.44C81.7132 49.9 81.4732 50.06 81.1332 50.06H80.9732C80.5932 50.06 80.3332 49.9 80.3332 49.34V36.52C80.3332 36.46 80.5532 36.36 80.8332 36.36C81.2932 36.36 81.7532 36.6 81.7532 37.64V42.22C82.4932 41.02 83.6332 40.24 85.2732 40.24C87.7332 40.24 89.6332 42.22 89.6332 45.2C89.6332 48.18 87.7732 50.22 85.1932 50.22C83.4332 50.22 82.2332 49.3 81.7332 48.24ZM88.2132 45.22C88.2132 43 86.8332 41.46 84.9932 41.46C83.3732 41.46 82.2732 42.38 81.7332 43.76V45.92C81.7532 47.66 83.1732 49 84.9532 49C86.8932 49 88.2132 47.48 88.2132 45.22ZM91.5223 37.46C91.5223 36.86 91.8623 36.54 92.4423 36.54C93.0223 36.54 93.3623 36.86 93.3623 37.46C93.3623 38.04 93.0023 38.36 92.4223 38.36C91.8623 38.36 91.5223 38.04 91.5223 37.46ZM91.7023 49.38V41.08C91.7023 40.56 91.9623 40.38 92.3423 40.38H92.5023C92.8823 40.38 93.1423 40.54 93.1423 41.08V49.38C93.1423 49.9 92.8823 50.06 92.5023 50.06H92.3423C91.9623 50.06 91.7023 49.9 91.7023 49.38ZM99.6815 40.24C100.541 40.24 101.101 40.66 101.101 41.28C101.101 41.86 100.701 42.1 100.661 42.06C100.421 41.82 100.041 41.66 99.5215 41.66C97.9615 41.66 97.2415 43.2 97.2415 45.6V49.38C97.2415 49.88 96.9815 50.06 96.6215 50.06H96.4615C96.0615 50.06 95.8015 49.9 95.8015 49.38V40.54C95.8015 40.5 96.0215 40.38 96.3215 40.38C96.7215 40.38 97.0815 40.58 97.1615 41.34C97.1815 41.68 97.2015 42.02 97.2015 42.38C97.5815 40.94 98.4615 40.24 99.6815 40.24ZM105.956 50.22C104.196 50.22 103.336 49.24 103.336 47.22V41.68H102.396C101.936 41.68 101.776 41.48 101.776 41.14V41C101.776 40.66 101.936 40.46 102.396 40.46H103.336V38.78C103.336 38.28 103.596 38.08 103.976 38.08H104.136C104.516 38.08 104.756 38.26 104.756 38.78V40.46H107.176C107.616 40.46 107.796 40.64 107.796 41V41.12C107.796 41.48 107.616 41.68 107.156 41.68H104.736V47C104.736 48.4 105.156 49 106.156 49C106.796 49 107.276 48.7 107.576 48.26C107.636 48.22 107.976 48.42 107.976 48.92C107.976 49.16 107.876 49.42 107.616 49.66C107.276 49.98 106.736 50.22 105.956 50.22ZM114.231 40.24C116.711 40.24 117.911 41.94 117.911 44.4V49.38C117.911 49.9 117.651 50.06 117.291 50.06H117.111C116.731 50.06 116.471 49.9 116.471 49.38V44.5C116.471 42.66 115.571 41.54 113.951 41.54C112.251 41.54 111.031 42.7 111.011 44.48V49.38C111.011 49.9 110.751 50.06 110.391 50.06H110.211C109.831 50.06 109.571 49.9 109.571 49.38V36.52C109.571 36.46 109.811 36.36 110.091 36.36C110.551 36.36 111.011 36.6 111.011 37.64V42.2C111.611 41.02 112.731 40.24 114.231 40.24ZM0.279609 70.22C0.279609 67.32 2.27961 65.24 5.13961 65.24C7.95961 65.24 9.95961 67.34 9.95961 70.26C9.95961 73.14 7.95961 75.22 5.11961 75.22C2.25961 75.22 0.279609 73.12 0.279609 70.22ZM8.55961 70.26C8.55961 68.06 7.13961 66.46 5.13961 66.46C3.13961 66.46 1.67961 68.02 1.67961 70.22C1.67961 72.42 3.13961 74 5.13961 74C7.11961 74 8.55961 72.44 8.55961 70.26ZM12.7748 74.38V66.68H11.4348C10.9748 66.68 10.8148 66.48 10.8148 66.12V66C10.8148 65.64 10.9748 65.46 11.4348 65.46H12.7748V64.5C12.7748 62.28 13.7948 61.18 15.5548 61.18C16.3148 61.18 16.8348 61.36 17.1748 61.66C17.3948 61.84 17.4948 62.08 17.4948 62.34C17.4948 62.78 17.1748 63.02 17.1348 62.98C16.8548 62.66 16.2748 62.4 15.6948 62.4C14.6548 62.4 14.1548 63.06 14.1548 64.62V65.46H15.9948C16.4548 65.46 16.6348 65.66 16.6348 66V66.12C16.6348 66.48 16.4548 66.68 15.9948 66.68H14.1948V74.38C14.1948 74.88 13.9548 75.06 13.5748 75.06H13.4148C13.0348 75.06 12.7748 74.9 12.7748 74.38ZM24.1196 75.22C22.3596 75.22 21.4996 74.24 21.4996 72.22V66.68H20.5596C20.0996 66.68 19.9396 66.48 19.9396 66.14V66C19.9396 65.66 20.0996 65.46 20.5596 65.46H21.4996V63.78C21.4996 63.28 21.7596 63.08 22.1396 63.08H22.2996C22.6796 63.08 22.9196 63.26 22.9196 63.78V65.46H25.3396C25.7796 65.46 25.9596 65.64 25.9596 66V66.12C25.9596 66.48 25.7796 66.68 25.3196 66.68H22.8996V72C22.8996 73.4 23.3196 74 24.3196 74C24.9596 74 25.4396 73.7 25.7396 73.26C25.7996 73.22 26.1396 73.42 26.1396 73.92C26.1396 74.16 26.0396 74.42 25.7796 74.66C25.4396 74.98 24.8996 75.22 24.1196 75.22ZM32.3951 65.24C34.8751 65.24 36.0751 66.94 36.0751 69.4V74.38C36.0751 74.9 35.8151 75.06 35.4551 75.06H35.2751C34.8951 75.06 34.6351 74.9 34.6351 74.38V69.5C34.6351 67.66 33.7351 66.54 32.1151 66.54C30.4151 66.54 29.1951 67.7 29.1751 69.48V74.38C29.1751 74.9 28.9151 75.06 28.5551 75.06H28.3751C27.9951 75.06 27.7351 74.9 27.7351 74.38V61.52C27.7351 61.46 27.9751 61.36 28.2551 61.36C28.7151 61.36 29.1751 61.6 29.1751 62.64V67.2C29.7751 66.02 30.8951 65.24 32.3951 65.24ZM37.9554 70.28C37.9554 67.38 39.9354 65.24 42.6754 65.24C45.3354 65.24 47.0554 67.12 47.0554 69.94V70.08C47.0554 70.42 46.9154 70.54 46.5554 70.54H39.3354C39.3354 70.62 39.3354 70.72 39.3554 70.82C39.5354 72.74 40.9154 74.02 42.8354 74.02C44.6154 74.02 45.4554 73.18 45.9354 72.26C46.0154 72.22 46.7554 72.38 46.7554 73.02C46.7554 73.32 46.5154 73.78 45.9954 74.2C45.3954 74.72 44.2954 75.22 42.8154 75.22C39.9154 75.22 37.9554 73.2 37.9554 70.28ZM45.6354 69.5C45.5554 67.64 44.4154 66.4 42.6754 66.4C40.9354 66.4 39.6354 67.68 39.3754 69.5H45.6354ZM51.8226 70.2C51.8226 67.34 53.8226 65.24 56.6426 65.24C58.1426 65.24 59.1826 65.78 59.8226 66.4C60.3626 66.9 60.6026 67.48 60.6026 67.84C60.6026 68.48 59.7426 68.6 59.6826 68.52C59.2626 67.42 58.4026 66.48 56.6626 66.48C54.6626 66.48 53.2426 68.04 53.2426 70.2C53.2426 72.4 54.6426 73.98 56.6626 73.98C58.3826 73.98 59.2626 73.04 59.6826 71.94C59.7226 71.86 60.6026 71.96 60.6026 72.64C60.6026 72.96 60.3626 73.52 59.8226 74.04C59.2026 74.7 58.1426 75.22 56.6226 75.22C53.8226 75.22 51.8226 73.12 51.8226 70.2ZM67.1607 65.24C69.6407 65.24 70.8407 66.94 70.8407 69.4V74.38C70.8407 74.9 70.5807 75.06 70.2207 75.06H70.0407C69.6607 75.06 69.4007 74.9 69.4007 74.38V69.5C69.4007 67.66 68.5007 66.54 66.8807 66.54C65.1807 66.54 63.9607 67.7 63.9407 69.48V74.38C63.9407 74.9 63.6807 75.06 63.3207 75.06H63.1407C62.7607 75.06 62.5007 74.9 62.5007 74.38V61.52C62.5007 61.46 62.7407 61.36 63.0207 61.36C63.4807 61.36 63.9407 61.6 63.9407 62.64V67.2C64.5407 66.02 65.6607 65.24 67.1607 65.24ZM73.241 62.46C73.241 61.86 73.581 61.54 74.161 61.54C74.741 61.54 75.081 61.86 75.081 62.46C75.081 63.04 74.721 63.36 74.141 63.36C73.581 63.36 73.241 63.04 73.241 62.46ZM73.421 74.38V66.08C73.421 65.56 73.681 65.38 74.061 65.38H74.221C74.601 65.38 74.861 65.54 74.861 66.08V74.38C74.861 74.9 74.601 75.06 74.221 75.06H74.061C73.681 75.06 73.421 74.9 73.421 74.38ZM78.2798 75.06C77.8998 75.06 77.6398 74.9 77.6398 74.38V61.52C77.6398 61.46 77.8798 61.36 78.1598 61.36C78.6198 61.36 79.0798 61.6 79.0798 62.64V74.38C79.0798 74.9 78.8198 75.06 78.4398 75.06H78.2798ZM85.539 75.22C83.019 75.22 81.139 73.22 81.139 70.22C81.139 67.26 83.019 65.24 85.579 65.24C87.279 65.24 88.479 66.1 89.019 67.08V61.52C89.019 61.46 89.239 61.36 89.519 61.36C89.999 61.36 90.459 61.6 90.459 62.64V74.38C90.459 74.9 90.199 75.06 89.819 75.06H89.679C89.319 75.06 89.059 74.9 89.059 74.42C89.039 74.02 89.039 73.62 89.039 73.18C88.359 74.4 87.219 75.22 85.539 75.22ZM89.019 70.88V68.74C88.499 67.36 87.439 66.46 85.819 66.46C83.899 66.46 82.579 67.96 82.579 70.22C82.579 72.44 83.919 74 85.799 74C87.579 74 89.019 72.66 89.019 70.88Z" fill="black"/>
<path d="M7.65961 198.1C7.13961 198.1 6.81961 197.7 6.81961 197.16V194.54H1.51961C0.739609 194.54 0.259609 194.14 0.259609 193.58V193.14C0.259609 192.7 0.459609 192.38 0.839609 191.86L5.45961 185.88C5.97961 185.16 6.23961 184.96 7.21961 184.96C8.33961 184.96 8.75961 185.34 8.75961 186.3V192.86H10.1796C10.7996 192.86 11.0796 193.12 11.0796 193.66V193.76C11.0796 194.3 10.7996 194.54 10.1796 194.54H8.75961V197.16C8.75961 197.78 8.47961 198.1 7.87961 198.1H7.65961ZM2.11961 192.9H6.89961V186.64L2.11961 192.9ZM14.2087 198.1C13.5287 198.1 12.9687 197.46 13.0687 197.32L18.8087 186.9H12.2487C11.6487 186.9 11.3287 186.62 11.3287 186.06V185.92C11.3287 185.36 11.6487 185.06 12.2487 185.06H19.8087C20.8887 185.06 21.0887 185.52 21.0887 186.04V186.2C21.0887 186.64 20.7887 187.16 20.4887 187.7L15.2687 197.38C14.9687 197.94 14.5887 198.1 14.2087 198.1ZM23.9341 198.18C23.8541 198.28 23.0141 198 23.0141 197.44C23.0141 197.08 23.1541 196.84 23.5941 196.38L33.6541 184.8C33.7341 184.72 34.5741 184.94 34.5741 185.54C34.5741 185.82 34.4141 186.16 34.0141 186.62L23.9341 198.18ZM25.1741 191.12C23.3941 191.12 22.0741 189.82 22.0741 188.1V187.92C22.0741 186.2 23.4141 184.86 25.1941 184.86C26.9941 184.86 28.3141 186.16 28.3141 187.88V188.06C28.3141 189.78 26.9541 191.12 25.1741 191.12ZM25.1941 189.86C26.1141 189.86 26.7741 189.16 26.7741 188.14V187.84C26.7741 186.82 26.0941 186.1 25.1741 186.1C24.2541 186.1 23.5941 186.8 23.5941 187.84V188.14C23.5941 189.14 24.2741 189.86 25.1941 189.86ZM32.4941 198.12C30.6941 198.12 29.3741 196.82 29.3741 195.1V194.92C29.3741 193.2 30.7341 191.86 32.5141 191.86C34.2941 191.86 35.6141 193.16 35.6141 194.88V195.06C35.6141 196.78 34.2741 198.12 32.4941 198.12ZM32.5141 196.86C33.4141 196.86 34.0941 196.16 34.0941 195.14V194.84C34.0941 193.82 33.4141 193.1 32.4941 193.1C31.5741 193.1 30.9141 193.8 30.9141 194.84V195.14C30.9141 196.14 31.5941 196.86 32.5141 196.86ZM1.05961 222.3V210.94C1.05961 210.42 1.37961 210.06 1.87961 210.06H8.89961C9.35961 210.06 9.59961 210.28 9.59961 210.66V210.78C9.59961 211.2 9.35961 211.4 8.89961 211.4H2.55961V216.18H7.23961C7.71961 216.18 7.93961 216.38 7.93961 216.78V216.88C7.93961 217.3 7.71961 217.48 7.23961 217.48H2.57961V222.38C2.57961 222.82 2.33961 223.06 1.91961 223.06H1.69961C1.27961 223.06 1.05961 222.8 1.05961 222.3ZM15.1893 213.24C16.0493 213.24 16.6093 213.66 16.6093 214.28C16.6093 214.86 16.2093 215.1 16.1693 215.06C15.9293 214.82 15.5493 214.66 15.0293 214.66C13.4693 214.66 12.7493 216.2 12.7493 218.6V222.38C12.7493 222.88 12.4893 223.06 12.1293 223.06H11.9693C11.5693 223.06 11.3093 222.9 11.3093 222.38V213.54C11.3093 213.5 11.5293 213.38 11.8293 213.38C12.2293 213.38 12.5893 213.58 12.6693 214.34C12.6893 214.68 12.7093 215.02 12.7093 215.38C13.0893 213.94 13.9693 213.24 15.1893 213.24ZM17.096 218.22C17.096 215.32 19.096 213.24 21.956 213.24C24.776 213.24 26.776 215.34 26.776 218.26C26.776 221.14 24.776 223.22 21.936 223.22C19.076 223.22 17.096 221.12 17.096 218.22ZM25.376 218.26C25.376 216.06 23.956 214.46 21.956 214.46C19.956 214.46 18.496 216.02 18.496 218.22C18.496 220.42 19.956 222 21.956 222C23.936 222 25.376 220.44 25.376 218.26ZM39.6707 213.24C42.0107 213.24 43.2107 214.74 43.2107 217.26V222.38C43.2107 222.9 42.9507 223.06 42.5707 223.06H42.4107C42.0307 223.06 41.7707 222.9 41.7707 222.38V217.38C41.7707 215.54 40.9507 214.52 39.3707 214.52C38.2507 214.52 37.1707 215.24 36.7107 216.42V222.38C36.7107 222.9 36.4307 223.06 36.0707 223.06H35.9107C35.5307 223.06 35.2707 222.9 35.2707 222.38V217.26C35.2707 215.52 34.4707 214.52 32.8707 214.52C31.7707 214.52 30.6907 215.24 30.1907 216.42V222.38C30.1907 222.9 29.9307 223.06 29.5707 223.06H29.3907C29.0307 223.06 28.7507 222.9 28.7507 222.38V213.54C28.7507 213.5 28.9907 213.38 29.2707 213.38C29.7107 213.38 30.1107 213.6 30.1507 214.56L30.1707 215.04C30.7907 213.98 31.8707 213.24 33.1907 213.24C34.8107 213.24 35.8907 214.06 36.3507 215.36C36.9307 214.12 38.0907 213.24 39.6707 213.24ZM52.0102 223.22C50.2502 223.22 49.3902 222.24 49.3902 220.22V214.68H48.4502C47.9902 214.68 47.8302 214.48 47.8302 214.14V214C47.8302 213.66 47.9902 213.46 48.4502 213.46H49.3902V211.78C49.3902 211.28 49.6502 211.08 50.0302 211.08H50.1902C50.5702 211.08 50.8102 211.26 50.8102 211.78V213.46H53.2302C53.6702 213.46 53.8502 213.64 53.8502 214V214.12C53.8502 214.48 53.6702 214.68 53.2102 214.68H50.7902V220C50.7902 221.4 51.2102 222 52.2102 222C52.8502 222 53.3302 221.7 53.6302 221.26C53.6902 221.22 54.0302 221.42 54.0302 221.92C54.0302 222.16 53.9302 222.42 53.6702 222.66C53.3302 222.98 52.7902 223.22 52.0102 223.22ZM60.2857 213.24C62.7657 213.24 63.9657 214.94 63.9657 217.4V222.38C63.9657 222.9 63.7057 223.06 63.3457 223.06H63.1657C62.7857 223.06 62.5257 222.9 62.5257 222.38V217.5C62.5257 215.66 61.6257 214.54 60.0057 214.54C58.3057 214.54 57.0857 215.7 57.0657 217.48V222.38C57.0657 222.9 56.8057 223.06 56.4457 223.06H56.2657C55.8857 223.06 55.6257 222.9 55.6257 222.38V209.52C55.6257 209.46 55.8657 209.36 56.1457 209.36C56.6057 209.36 57.0657 209.6 57.0657 210.64V215.2C57.6657 214.02 58.7857 213.24 60.2857 213.24ZM65.846 218.28C65.846 215.38 67.826 213.24 70.566 213.24C73.226 213.24 74.946 215.12 74.946 217.94V218.08C74.946 218.42 74.806 218.54 74.446 218.54H67.226C67.226 218.62 67.226 218.72 67.246 218.82C67.426 220.74 68.806 222.02 70.726 222.02C72.506 222.02 73.346 221.18 73.826 220.26C73.906 220.22 74.646 220.38 74.646 221.02C74.646 221.32 74.406 221.78 73.886 222.2C73.286 222.72 72.186 223.22 70.706 223.22C67.806 223.22 65.846 221.2 65.846 218.28ZM73.526 217.5C73.446 215.64 72.306 214.4 70.566 214.4C68.826 214.4 67.526 215.68 67.266 217.5H73.526ZM81.7332 221.24V222.44C81.7132 222.9 81.4732 223.06 81.1332 223.06H80.9732C80.5932 223.06 80.3332 222.9 80.3332 222.34V209.52C80.3332 209.46 80.5532 209.36 80.8332 209.36C81.2932 209.36 81.7532 209.6 81.7532 210.64V215.22C82.4932 214.02 83.6332 213.24 85.2732 213.24C87.7332 213.24 89.6332 215.22 89.6332 218.2C89.6332 221.18 87.7732 223.22 85.1932 223.22C83.4332 223.22 82.2332 222.3 81.7332 221.24ZM88.2132 218.22C88.2132 216 86.8332 214.46 84.9932 214.46C83.3732 214.46 82.2732 215.38 81.7332 216.76V218.92C81.7532 220.66 83.1732 222 84.9532 222C86.8932 222 88.2132 220.48 88.2132 218.22ZM91.0023 218.28C91.0023 215.38 92.9823 213.24 95.7223 213.24C98.3823 213.24 100.102 215.12 100.102 217.94V218.08C100.102 218.42 99.9623 218.54 99.6023 218.54H92.3823C92.3823 218.62 92.3823 218.72 92.4023 218.82C92.5823 220.74 93.9623 222.02 95.8823 222.02C97.6623 222.02 98.5023 221.18 98.9823 220.26C99.0623 220.22 99.8023 220.38 99.8023 221.02C99.8023 221.32 99.5623 221.78 99.0423 222.2C98.4423 222.72 97.3423 223.22 95.8623 223.22C92.9623 223.22 91.0023 221.2 91.0023 218.28ZM98.6823 217.5C98.6023 215.64 97.4623 214.4 95.7223 214.4C93.9823 214.4 92.6823 215.68 92.4223 217.5H98.6823ZM105.211 227.2C102.231 227.2 100.751 226.32 100.751 224.6C100.751 223.2 102.131 222.22 103.871 221.9C103.531 221.7 103.271 221.4 103.271 220.94C103.271 220.52 103.511 220.16 103.851 219.92C102.391 219.46 101.431 218.26 101.431 216.78C101.431 214.8 103.071 213.24 105.291 213.24C106.131 213.24 106.931 213.48 107.551 213.9L108.271 212.82C108.551 212.34 108.871 212.2 109.211 212.24C109.671 212.3 109.931 212.76 109.911 212.88L108.331 214.56C108.851 215.14 109.191 215.88 109.191 216.72C109.191 218.66 107.551 220.14 105.311 220.14C105.131 220.14 104.971 220.14 104.791 220.12C104.591 220.26 104.551 220.44 104.551 220.64C104.571 221.28 105.531 221.38 107.151 221.78C108.531 222.12 110.011 222.8 110.011 224.34C110.011 226.12 108.251 227.2 105.211 227.2ZM105.291 219.14C106.731 219.14 107.751 218.18 107.751 216.74C107.751 215.32 106.771 214.32 105.271 214.32C103.831 214.32 102.831 215.3 102.831 216.74C102.831 218.18 103.851 219.14 105.291 219.14ZM105.251 226.16C107.351 226.16 108.611 225.56 108.611 224.44C108.611 223.56 107.611 223.16 106.511 222.88C106.111 222.78 105.711 222.7 105.331 222.6C103.631 222.74 102.151 223.46 102.151 224.58C102.151 225.6 103.231 226.16 105.251 226.16ZM111.171 210.46C111.171 209.86 111.511 209.54 112.091 209.54C112.671 209.54 113.011 209.86 113.011 210.46C113.011 211.04 112.651 211.36 112.071 211.36C111.511 211.36 111.171 211.04 111.171 210.46ZM111.351 222.38V214.08C111.351 213.56 111.611 213.38 111.991 213.38H112.151C112.531 213.38 112.791 213.54 112.791 214.08V222.38C112.791 222.9 112.531 223.06 112.151 223.06H111.991C111.611 223.06 111.351 222.9 111.351 222.38ZM120.13 213.24C122.59 213.24 123.79 214.94 123.79 217.38V222.38C123.79 222.9 123.53 223.06 123.17 223.06H122.99C122.61 223.06 122.35 222.9 122.35 222.38V217.5C122.35 215.66 121.47 214.52 119.85 214.52C118.45 214.52 117.41 215.3 116.89 216.44V222.38C116.89 222.9 116.63 223.06 116.27 223.06H116.09C115.71 223.06 115.45 222.9 115.45 222.38V213.54C115.45 213.5 115.69 213.38 115.97 213.38C116.41 213.38 116.81 213.6 116.85 214.58V215.14C117.49 214 118.61 213.24 120.13 213.24ZM130.95 213.24C133.41 213.24 134.61 214.94 134.61 217.38V222.38C134.61 222.9 134.35 223.06 133.99 223.06H133.81C133.43 223.06 133.17 222.9 133.17 222.38V217.5C133.17 215.66 132.29 214.52 130.67 214.52C129.27 214.52 128.23 215.3 127.71 216.44V222.38C127.71 222.9 127.45 223.06 127.09 223.06H126.91C126.53 223.06 126.27 222.9 126.27 222.38V213.54C126.27 213.5 126.51 213.38 126.79 213.38C127.23 213.38 127.63 213.6 127.67 214.58V215.14C128.31 214 129.43 213.24 130.95 213.24ZM137.011 210.46C137.011 209.86 137.351 209.54 137.931 209.54C138.511 209.54 138.851 209.86 138.851 210.46C138.851 211.04 138.491 211.36 137.911 211.36C137.351 211.36 137.011 211.04 137.011 210.46ZM137.191 222.38V214.08C137.191 213.56 137.451 213.38 137.831 213.38H137.991C138.371 213.38 138.631 213.54 138.631 214.08V222.38C138.631 222.9 138.371 223.06 137.991 223.06H137.831C137.451 223.06 137.191 222.9 137.191 222.38ZM145.97 213.24C148.43 213.24 149.63 214.94 149.63 217.38V222.38C149.63 222.9 149.37 223.06 149.01 223.06H148.83C148.45 223.06 148.19 222.9 148.19 222.38V217.5C148.19 215.66 147.31 214.52 145.69 214.52C144.29 214.52 143.25 215.3 142.73 216.44V222.38C142.73 222.9 142.47 223.06 142.11 223.06H141.93C141.55 223.06 141.29 222.9 141.29 222.38V213.54C141.29 213.5 141.53 213.38 141.81 213.38C142.25 213.38 142.65 213.6 142.69 214.58V215.14C143.33 214 144.45 213.24 145.97 213.24ZM155.27 227.2C152.29 227.2 150.81 226.32 150.81 224.6C150.81 223.2 152.19 222.22 153.93 221.9C153.59 221.7 153.33 221.4 153.33 220.94C153.33 220.52 153.57 220.16 153.91 219.92C152.45 219.46 151.49 218.26 151.49 216.78C151.49 214.8 153.13 213.24 155.35 213.24C156.19 213.24 156.99 213.48 157.61 213.9L158.33 212.82C158.61 212.34 158.93 212.2 159.27 212.24C159.73 212.3 159.99 212.76 159.97 212.88L158.39 214.56C158.91 215.14 159.25 215.88 159.25 216.72C159.25 218.66 157.61 220.14 155.37 220.14C155.19 220.14 155.03 220.14 154.85 220.12C154.65 220.26 154.61 220.44 154.61 220.64C154.63 221.28 155.59 221.38 157.21 221.78C158.59 222.12 160.07 222.8 160.07 224.34C160.07 226.12 158.31 227.2 155.27 227.2ZM155.35 219.14C156.79 219.14 157.81 218.18 157.81 216.74C157.81 215.32 156.83 214.32 155.33 214.32C153.89 214.32 152.89 215.3 152.89 216.74C152.89 218.18 153.91 219.14 155.35 219.14ZM155.31 226.16C157.41 226.16 158.67 225.56 158.67 224.44C158.67 223.56 157.67 223.16 156.57 222.88C156.17 222.78 155.77 222.7 155.39 222.6C153.69 222.74 152.21 223.46 152.21 224.58C152.21 225.6 153.29 226.16 155.31 226.16ZM164.127 218.22C164.127 215.32 166.127 213.24 168.987 213.24C171.807 213.24 173.807 215.34 173.807 218.26C173.807 221.14 171.807 223.22 168.967 223.22C166.107 223.22 164.127 221.12 164.127 218.22ZM172.407 218.26C172.407 216.06 170.987 214.46 168.987 214.46C166.987 214.46 165.527 216.02 165.527 218.22C165.527 220.42 166.987 222 168.987 222C170.967 222 172.407 220.44 172.407 218.26ZM176.622 222.38V214.68H175.282C174.822 214.68 174.662 214.48 174.662 214.12V214C174.662 213.64 174.822 213.46 175.282 213.46H176.622V212.5C176.622 210.28 177.642 209.18 179.402 209.18C180.162 209.18 180.682 209.36 181.022 209.66C181.242 209.84 181.342 210.08 181.342 210.34C181.342 210.78 181.022 211.02 180.982 210.98C180.702 210.66 180.122 210.4 179.542 210.4C178.502 210.4 178.002 211.06 178.002 212.62V213.46H179.842C180.302 213.46 180.482 213.66 180.482 214V214.12C180.482 214.48 180.302 214.68 179.842 214.68H178.042V222.38C178.042 222.88 177.802 223.06 177.422 223.06H177.262C176.882 223.06 176.622 222.9 176.622 222.38ZM5.79961 238.24C8.29961 238.24 10.1996 240.22 10.1996 243.2C10.1996 246.18 8.33961 248.22 5.75961 248.22C4.01961 248.22 2.81961 247.26 2.31961 246.22V251.18C2.31961 251.68 2.05961 251.86 1.69961 251.86H1.53961C1.15961 251.86 0.899609 251.68 0.899609 251.18V238.54C0.899609 238.5 1.11961 238.38 1.39961 238.38C1.81961 238.38 2.21961 238.62 2.27961 239.46C2.27961 239.7 2.29961 240.02 2.29961 240.28C2.99961 239.04 4.13961 238.24 5.79961 238.24ZM5.49961 247C7.45961 247 8.77961 245.48 8.77961 243.22C8.77961 241 7.39961 239.46 5.53961 239.46C3.93961 239.46 2.83961 240.38 2.29961 241.76V243.88C2.29961 245.64 3.73961 247 5.49961 247ZM16.0487 238.24C16.9087 238.24 17.4687 238.66 17.4687 239.28C17.4687 239.86 17.0687 240.1 17.0287 240.06C16.7887 239.82 16.4087 239.66 15.8887 239.66C14.3287 239.66 13.6087 241.2 13.6087 243.6V247.38C13.6087 247.88 13.3487 248.06 12.9887 248.06H12.8287C12.4287 248.06 12.1687 247.9 12.1687 247.38V238.54C12.1687 238.5 12.3887 238.38 12.6887 238.38C13.0887 238.38 13.4487 238.58 13.5287 239.34C13.5487 239.68 13.5687 240.02 13.5687 240.38C13.9487 238.94 14.8287 238.24 16.0487 238.24ZM17.9554 243.28C17.9554 240.38 19.9354 238.24 22.6754 238.24C25.3354 238.24 27.0554 240.12 27.0554 242.94V243.08C27.0554 243.42 26.9154 243.54 26.5554 243.54H19.3354C19.3354 243.62 19.3354 243.72 19.3554 243.82C19.5354 245.74 20.9154 247.02 22.8354 247.02C24.6154 247.02 25.4554 246.18 25.9354 245.26C26.0154 245.22 26.7554 245.38 26.7554 246.02C26.7554 246.32 26.5154 246.78 25.9954 247.2C25.3954 247.72 24.2954 248.22 22.8154 248.22C19.9154 248.22 17.9554 246.2 17.9554 243.28ZM25.6354 242.5C25.5554 240.64 24.4154 239.4 22.6754 239.4C20.9354 239.4 19.6354 240.68 19.3754 242.5H25.6354ZM32.1646 252.2C29.1846 252.2 27.7046 251.32 27.7046 249.6C27.7046 248.2 29.0846 247.22 30.8246 246.9C30.4846 246.7 30.2246 246.4 30.2246 245.94C30.2246 245.52 30.4646 245.16 30.8046 244.92C29.3446 244.46 28.3846 243.26 28.3846 241.78C28.3846 239.8 30.0246 238.24 32.2446 238.24C33.0846 238.24 33.8846 238.48 34.5046 238.9L35.2246 237.82C35.5046 237.34 35.8246 237.2 36.1646 237.24C36.6246 237.3 36.8846 237.76 36.8646 237.88L35.2846 239.56C35.8046 240.14 36.1446 240.88 36.1446 241.72C36.1446 243.66 34.5046 245.14 32.2646 245.14C32.0846 245.14 31.9246 245.14 31.7446 245.12C31.5446 245.26 31.5046 245.44 31.5046 245.64C31.5246 246.28 32.4846 246.38 34.1046 246.78C35.4846 247.12 36.9646 247.8 36.9646 249.34C36.9646 251.12 35.2046 252.2 32.1646 252.2ZM32.2446 244.14C33.6846 244.14 34.7046 243.18 34.7046 241.74C34.7046 240.32 33.7246 239.32 32.2246 239.32C30.7846 239.32 29.7846 240.3 29.7846 241.74C29.7846 243.18 30.8046 244.14 32.2446 244.14ZM32.2046 251.16C34.3046 251.16 35.5646 250.56 35.5646 249.44C35.5646 248.56 34.5646 248.16 33.4646 247.88C33.0646 247.78 32.6646 247.7 32.2846 247.6C30.5846 247.74 29.1046 248.46 29.1046 249.58C29.1046 250.6 30.1846 251.16 32.2046 251.16ZM42.8838 238.24C45.3438 238.24 46.5438 239.94 46.5438 242.38V247.38C46.5438 247.9 46.2838 248.06 45.9238 248.06H45.7438C45.3638 248.06 45.1038 247.9 45.1038 247.38V242.5C45.1038 240.66 44.2238 239.52 42.6038 239.52C41.2038 239.52 40.1638 240.3 39.6438 241.44V247.38C39.6438 247.9 39.3838 248.06 39.0238 248.06H38.8438C38.4638 248.06 38.2038 247.9 38.2038 247.38V238.54C38.2038 238.5 38.4438 238.38 38.7238 238.38C39.1638 238.38 39.5638 238.6 39.6038 239.58V240.14C40.2438 239 41.3638 238.24 42.8838 238.24ZM48.4241 245.54C48.4241 243.38 50.4641 242.46 54.9641 242.4H55.1841V242C55.1841 240.38 54.2441 239.48 52.6041 239.48C51.0841 239.48 50.1641 240.22 49.6841 241.18C49.6441 241.2 48.8041 241.16 48.8041 240.44C48.8041 240.16 49.0041 239.74 49.3841 239.38C50.0041 238.78 51.1041 238.24 52.6841 238.24C55.2241 238.24 56.6041 239.66 56.6041 242.02V247.92C56.6041 247.98 56.3441 248.08 56.0841 248.08C55.6641 248.08 55.3241 247.88 55.2441 247.16C55.2241 246.88 55.2041 246.58 55.2041 246.28C54.5641 247.44 53.2641 248.2 51.6641 248.2C49.6641 248.2 48.4241 247.16 48.4241 245.54ZM55.1841 244.26V243.34L54.8441 243.36C51.3641 243.44 49.8641 244.04 49.8641 245.5C49.8641 246.5 50.6641 247.12 51.9441 247.12C53.7841 247.12 55.1841 245.88 55.1841 244.26ZM63.7627 238.24C66.2227 238.24 67.4227 239.94 67.4227 242.38V247.38C67.4227 247.9 67.1627 248.06 66.8027 248.06H66.6227C66.2427 248.06 65.9827 247.9 65.9827 247.38V242.5C65.9827 240.66 65.1027 239.52 63.4827 239.52C62.0827 239.52 61.0427 240.3 60.5227 241.44V247.38C60.5227 247.9 60.2627 248.06 59.9027 248.06H59.7227C59.3427 248.06 59.0827 247.9 59.0827 247.38V238.54C59.0827 238.5 59.3227 238.38 59.6027 238.38C60.0427 238.38 60.4427 238.6 60.4827 239.58V240.14C61.1227 239 62.2427 238.24 63.7627 238.24ZM69.303 243.2C69.303 240.34 71.303 238.24 74.123 238.24C75.623 238.24 76.663 238.78 77.303 239.4C77.843 239.9 78.083 240.48 78.083 240.84C78.083 241.48 77.223 241.6 77.163 241.52C76.743 240.42 75.883 239.48 74.143 239.48C72.143 239.48 70.723 241.04 70.723 243.2C70.723 245.4 72.123 246.98 74.143 246.98C75.863 246.98 76.743 246.04 77.163 244.94C77.203 244.86 78.083 244.96 78.083 245.64C78.083 245.96 77.843 246.52 77.303 247.04C76.683 247.7 75.623 248.22 74.103 248.22C71.303 248.22 69.303 246.12 69.303 243.2ZM82.2412 251.84C81.8412 251.84 81.4812 251.54 81.5012 251.44L83.1412 247.46C82.7612 247.44 82.5612 247.34 82.4212 247L78.9612 238.8C78.9412 238.68 79.3012 238.36 79.7412 238.36C80.1012 238.38 80.4212 238.6 80.6412 239.22L83.5612 246.52L86.1412 239.28C86.3612 238.54 86.7612 238.36 87.1212 238.38C87.4812 238.38 87.8412 238.68 87.8212 238.78L83.1812 250.98C82.9612 251.66 82.6212 251.84 82.2412 251.84Z" fill="black"/>
<path d="M250.66 94.1C250.14 94.1 249.82 93.7 249.82 93.16V90.54H244.52C243.74 90.54 243.26 90.14 243.26 89.58V89.14C243.26 88.7 243.46 88.38 243.84 87.86L248.46 81.88C248.98 81.16 249.24 80.96 250.22 80.96C251.34 80.96 251.76 81.34 251.76 82.3V88.86H253.18C253.8 88.86 254.08 89.12 254.08 89.66V89.76C254.08 90.3 253.8 90.54 253.18 90.54H251.76V93.16C251.76 93.78 251.48 94.1 250.88 94.1H250.66ZM245.12 88.9H249.9V82.64L245.12 88.9ZM258.226 94.1C257.646 94.1 257.346 93.78 257.346 93.16V83.88C257.006 84.22 256.526 84.42 256.006 84.42C255.546 84.42 255.146 84.28 254.846 84.04C254.566 83.8 254.406 83.44 254.406 83.04C254.406 82.36 254.926 81.98 254.986 82.02C255.286 82.3 255.646 82.48 256.166 82.48C257.026 82.48 257.686 81.82 257.786 80.96H258.486C259.086 80.96 259.386 81.28 259.386 81.9V93.16C259.386 93.78 259.086 94.1 258.486 94.1H258.226ZM263.77 94.18C263.69 94.28 262.85 94 262.85 93.44C262.85 93.08 262.99 92.84 263.43 92.38L273.49 80.8C273.57 80.72 274.41 80.94 274.41 81.54C274.41 81.82 274.25 82.16 273.85 82.62L263.77 94.18ZM265.01 87.12C263.23 87.12 261.91 85.82 261.91 84.1V83.92C261.91 82.2 263.25 80.86 265.03 80.86C266.83 80.86 268.15 82.16 268.15 83.88V84.06C268.15 85.78 266.79 87.12 265.01 87.12ZM265.03 85.86C265.95 85.86 266.61 85.16 266.61 84.14V83.84C266.61 82.82 265.93 82.1 265.01 82.1C264.09 82.1 263.43 82.8 263.43 83.84V84.14C263.43 85.14 264.11 85.86 265.03 85.86ZM272.33 94.12C270.53 94.12 269.21 92.82 269.21 91.1V90.92C269.21 89.2 270.57 87.86 272.35 87.86C274.13 87.86 275.45 89.16 275.45 90.88V91.06C275.45 92.78 274.11 94.12 272.33 94.12ZM272.35 92.86C273.25 92.86 273.93 92.16 273.93 91.14V90.84C273.93 89.82 273.25 89.1 272.33 89.1C271.41 89.1 270.75 89.8 270.75 90.84V91.14C270.75 92.14 271.43 92.86 272.35 92.86ZM244.06 118.3V106.94C244.06 106.42 244.38 106.06 244.88 106.06H251.9C252.36 106.06 252.6 106.28 252.6 106.66V106.78C252.6 107.2 252.36 107.4 251.9 107.4H245.56V112.18H250.24C250.72 112.18 250.94 112.38 250.94 112.78V112.88C250.94 113.3 250.72 113.48 250.24 113.48H245.58V118.38C245.58 118.82 245.34 119.06 244.92 119.06H244.7C244.28 119.06 244.06 118.8 244.06 118.3ZM258.189 109.24C259.049 109.24 259.609 109.66 259.609 110.28C259.609 110.86 259.209 111.1 259.169 111.06C258.929 110.82 258.549 110.66 258.029 110.66C256.469 110.66 255.749 112.2 255.749 114.6V118.38C255.749 118.88 255.489 119.06 255.129 119.06H254.969C254.569 119.06 254.309 118.9 254.309 118.38V109.54C254.309 109.5 254.529 109.38 254.829 109.38C255.229 109.38 255.589 109.58 255.669 110.34C255.689 110.68 255.709 111.02 255.709 111.38C256.089 109.94 256.969 109.24 258.189 109.24ZM260.096 114.22C260.096 111.32 262.096 109.24 264.956 109.24C267.776 109.24 269.776 111.34 269.776 114.26C269.776 117.14 267.776 119.22 264.936 119.22C262.076 119.22 260.096 117.12 260.096 114.22ZM268.376 114.26C268.376 112.06 266.956 110.46 264.956 110.46C262.956 110.46 261.496 112.02 261.496 114.22C261.496 116.42 262.956 118 264.956 118C266.936 118 268.376 116.44 268.376 114.26ZM282.671 109.24C285.011 109.24 286.211 110.74 286.211 113.26V118.38C286.211 118.9 285.951 119.06 285.571 119.06H285.411C285.031 119.06 284.771 118.9 284.771 118.38V113.38C284.771 111.54 283.951 110.52 282.371 110.52C281.251 110.52 280.171 111.24 279.711 112.42V118.38C279.711 118.9 279.431 119.06 279.071 119.06H278.911C278.531 119.06 278.271 118.9 278.271 118.38V113.26C278.271 111.52 277.471 110.52 275.871 110.52C274.771 110.52 273.691 111.24 273.191 112.42V118.38C273.191 118.9 272.931 119.06 272.571 119.06H272.391C272.031 119.06 271.751 118.9 271.751 118.38V109.54C271.751 109.5 271.991 109.38 272.271 109.38C272.711 109.38 273.111 109.6 273.151 110.56L273.171 111.04C273.791 109.98 274.871 109.24 276.191 109.24C277.811 109.24 278.891 110.06 279.351 111.36C279.931 110.12 281.091 109.24 282.671 109.24ZM295.01 119.22C293.25 119.22 292.39 118.24 292.39 116.22V110.68H291.45C290.99 110.68 290.83 110.48 290.83 110.14V110C290.83 109.66 290.99 109.46 291.45 109.46H292.39V107.78C292.39 107.28 292.65 107.08 293.03 107.08H293.19C293.57 107.08 293.81 107.26 293.81 107.78V109.46H296.23C296.67 109.46 296.85 109.64 296.85 110V110.12C296.85 110.48 296.67 110.68 296.21 110.68H293.79V116C293.79 117.4 294.21 118 295.21 118C295.85 118 296.33 117.7 296.63 117.26C296.69 117.22 297.03 117.42 297.03 117.92C297.03 118.16 296.93 118.42 296.67 118.66C296.33 118.98 295.79 119.22 295.01 119.22ZM303.286 109.24C305.766 109.24 306.966 110.94 306.966 113.4V118.38C306.966 118.9 306.706 119.06 306.346 119.06H306.166C305.786 119.06 305.526 118.9 305.526 118.38V113.5C305.526 111.66 304.626 110.54 303.006 110.54C301.306 110.54 300.086 111.7 300.066 113.48V118.38C300.066 118.9 299.806 119.06 299.446 119.06H299.266C298.886 119.06 298.626 118.9 298.626 118.38V105.52C298.626 105.46 298.866 105.36 299.146 105.36C299.606 105.36 300.066 105.6 300.066 106.64V111.2C300.666 110.02 301.786 109.24 303.286 109.24ZM308.846 114.28C308.846 111.38 310.826 109.24 313.566 109.24C316.226 109.24 317.946 111.12 317.946 113.94V114.08C317.946 114.42 317.806 114.54 317.446 114.54H310.226C310.226 114.62 310.226 114.72 310.246 114.82C310.426 116.74 311.806 118.02 313.726 118.02C315.506 118.02 316.346 117.18 316.826 116.26C316.906 116.22 317.646 116.38 317.646 117.02C317.646 117.32 317.406 117.78 316.886 118.2C316.286 118.72 315.186 119.22 313.706 119.22C310.806 119.22 308.846 117.2 308.846 114.28ZM316.526 113.5C316.446 111.64 315.306 110.4 313.566 110.4C311.826 110.4 310.526 111.68 310.266 113.5H316.526ZM323.173 118.22C322.773 117.88 322.593 117.56 322.593 117.26C322.593 116.76 323.153 116.54 323.213 116.56C323.813 117.42 324.893 118.06 326.453 118.06C327.953 118.06 328.833 117.42 328.833 116.48C328.833 115.36 327.793 115.14 326.173 114.78C324.713 114.48 322.873 114.06 322.873 112.12C322.873 110.42 324.293 109.24 326.493 109.24C328.033 109.24 329.073 109.74 329.613 110.32C329.833 110.54 329.973 110.84 329.973 111.08C329.973 111.58 329.393 111.84 329.353 111.8C328.833 111 327.793 110.38 326.513 110.38C325.053 110.38 324.213 111.04 324.213 111.96C324.213 113 325.213 113.24 326.793 113.6C328.353 113.94 330.233 114.36 330.233 116.32C330.233 118.06 328.773 119.22 326.433 119.22C324.873 119.22 323.793 118.76 323.173 118.22ZM335.42 119.22C333.66 119.22 332.8 118.24 332.8 116.22V110.68H331.86C331.4 110.68 331.24 110.48 331.24 110.14V110C331.24 109.66 331.4 109.46 331.86 109.46H332.8V107.78C332.8 107.28 333.06 107.08 333.44 107.08H333.6C333.98 107.08 334.22 107.26 334.22 107.78V109.46H336.64C337.08 109.46 337.26 109.64 337.26 110V110.12C337.26 110.48 337.08 110.68 336.62 110.68H334.2V116C334.2 117.4 334.62 118 335.62 118C336.26 118 336.74 117.7 337.04 117.26C337.1 117.22 337.44 117.42 337.44 117.92C337.44 118.16 337.34 118.42 337.08 118.66C336.74 118.98 336.2 119.22 335.42 119.22ZM338.436 116.54C338.436 114.38 340.476 113.46 344.976 113.4H345.196V113C345.196 111.38 344.256 110.48 342.616 110.48C341.096 110.48 340.176 111.22 339.696 112.18C339.656 112.2 338.816 112.16 338.816 111.44C338.816 111.16 339.016 110.74 339.396 110.38C340.016 109.78 341.116 109.24 342.696 109.24C345.236 109.24 346.616 110.66 346.616 113.02V118.92C346.616 118.98 346.356 119.08 346.096 119.08C345.676 119.08 345.336 118.88 345.256 118.16C345.236 117.88 345.216 117.58 345.216 117.28C344.576 118.44 343.276 119.2 341.676 119.2C339.676 119.2 338.436 118.16 338.436 116.54ZM345.196 115.26V114.34L344.856 114.36C341.376 114.44 339.876 115.04 339.876 116.5C339.876 117.5 340.676 118.12 341.956 118.12C343.796 118.12 345.196 116.88 345.196 115.26ZM352.974 109.24C353.834 109.24 354.394 109.66 354.394 110.28C354.394 110.86 353.994 111.1 353.954 111.06C353.714 110.82 353.334 110.66 352.814 110.66C351.254 110.66 350.534 112.2 350.534 114.6V118.38C350.534 118.88 350.274 119.06 349.914 119.06H349.754C349.354 119.06 349.094 118.9 349.094 118.38V109.54C349.094 109.5 349.314 109.38 349.614 109.38C350.014 109.38 350.374 109.58 350.454 110.34C350.474 110.68 350.494 111.02 350.494 111.38C350.874 109.94 351.754 109.24 352.974 109.24ZM359.249 119.22C357.489 119.22 356.629 118.24 356.629 116.22V110.68H355.689C355.229 110.68 355.069 110.48 355.069 110.14V110C355.069 109.66 355.229 109.46 355.689 109.46H356.629V107.78C356.629 107.28 356.889 107.08 357.269 107.08H357.429C357.809 107.08 358.049 107.26 358.049 107.78V109.46H360.469C360.909 109.46 361.089 109.64 361.089 110V110.12C361.089 110.48 360.909 110.68 360.449 110.68H358.029V116C358.029 117.4 358.449 118 359.449 118C360.089 118 360.569 117.7 360.869 117.26C360.929 117.22 361.269 117.42 361.269 117.92C361.269 118.16 361.169 118.42 360.909 118.66C360.569 118.98 360.029 119.22 359.249 119.22ZM243.28 139.22C243.28 136.32 245.28 134.24 248.14 134.24C250.96 134.24 252.96 136.34 252.96 139.26C252.96 142.14 250.96 144.22 248.12 144.22C245.26 144.22 243.28 142.12 243.28 139.22ZM251.56 139.26C251.56 137.06 250.14 135.46 248.14 135.46C246.14 135.46 244.68 137.02 244.68 139.22C244.68 141.42 246.14 143 248.14 143C250.12 143 251.56 141.44 251.56 139.26ZM255.775 143.38V135.68H254.435C253.975 135.68 253.815 135.48 253.815 135.12V135C253.815 134.64 253.975 134.46 254.435 134.46H255.775V133.5C255.775 131.28 256.795 130.18 258.555 130.18C259.315 130.18 259.835 130.36 260.175 130.66C260.395 130.84 260.495 131.08 260.495 131.34C260.495 131.78 260.175 132.02 260.135 131.98C259.855 131.66 259.275 131.4 258.695 131.4C257.655 131.4 257.155 132.06 257.155 133.62V134.46H258.995C259.455 134.46 259.635 134.66 259.635 135V135.12C259.635 135.48 259.455 135.68 258.995 135.68H257.195V143.38C257.195 143.88 256.955 144.06 256.575 144.06H256.415C256.035 144.06 255.775 143.9 255.775 143.38ZM269.132 134.24C271.632 134.24 273.532 136.22 273.532 139.2C273.532 142.18 271.672 144.22 269.092 144.22C267.352 144.22 266.152 143.26 265.652 142.22V147.18C265.652 147.68 265.392 147.86 265.032 147.86H264.872C264.492 147.86 264.232 147.68 264.232 147.18V134.54C264.232 134.5 264.452 134.38 264.732 134.38C265.152 134.38 265.552 134.62 265.612 135.46C265.612 135.7 265.632 136.02 265.632 136.28C266.332 135.04 267.472 134.24 269.132 134.24ZM268.832 143C270.792 143 272.112 141.48 272.112 139.22C272.112 137 270.732 135.46 268.872 135.46C267.272 135.46 266.172 136.38 265.632 137.76V139.88C265.632 141.64 267.072 143 268.832 143ZM279.381 134.24C280.241 134.24 280.801 134.66 280.801 135.28C280.801 135.86 280.401 136.1 280.361 136.06C280.121 135.82 279.741 135.66 279.221 135.66C277.661 135.66 276.941 137.2 276.941 139.6V143.38C276.941 143.88 276.681 144.06 276.321 144.06H276.161C275.761 144.06 275.501 143.9 275.501 143.38V134.54C275.501 134.5 275.721 134.38 276.021 134.38C276.421 134.38 276.781 134.58 276.861 135.34C276.881 135.68 276.901 136.02 276.901 136.38C277.281 134.94 278.161 134.24 279.381 134.24ZM281.287 139.28C281.287 136.38 283.267 134.24 286.007 134.24C288.667 134.24 290.387 136.12 290.387 138.94V139.08C290.387 139.42 290.247 139.54 289.887 139.54H282.667C282.667 139.62 282.667 139.72 282.687 139.82C282.867 141.74 284.247 143.02 286.167 143.02C287.947 143.02 288.787 142.18 289.267 141.26C289.347 141.22 290.087 141.38 290.087 142.02C290.087 142.32 289.847 142.78 289.327 143.2C288.727 143.72 287.627 144.22 286.147 144.22C283.247 144.22 281.287 142.2 281.287 139.28ZM288.967 138.5C288.887 136.64 287.747 135.4 286.007 135.4C284.267 135.4 282.967 136.68 282.707 138.5H288.967ZM295.497 148.2C292.517 148.2 291.037 147.32 291.037 145.6C291.037 144.2 292.417 143.22 294.157 142.9C293.817 142.7 293.557 142.4 293.557 141.94C293.557 141.52 293.797 141.16 294.137 140.92C292.677 140.46 291.717 139.26 291.717 137.78C291.717 135.8 293.357 134.24 295.577 134.24C296.417 134.24 297.217 134.48 297.837 134.9L298.557 133.82C298.837 133.34 299.157 133.2 299.497 133.24C299.957 133.3 300.217 133.76 300.197 133.88L298.617 135.56C299.137 136.14 299.477 136.88 299.477 137.72C299.477 139.66 297.837 141.14 295.597 141.14C295.417 141.14 295.257 141.14 295.077 141.12C294.877 141.26 294.837 141.44 294.837 141.64C294.857 142.28 295.817 142.38 297.437 142.78C298.817 143.12 300.297 143.8 300.297 145.34C300.297 147.12 298.537 148.2 295.497 148.2ZM295.577 140.14C297.017 140.14 298.037 139.18 298.037 137.74C298.037 136.32 297.057 135.32 295.557 135.32C294.117 135.32 293.117 136.3 293.117 137.74C293.117 139.18 294.137 140.14 295.577 140.14ZM295.537 147.16C297.637 147.16 298.897 146.56 298.897 145.44C298.897 144.56 297.897 144.16 296.797 143.88C296.397 143.78 295.997 143.7 295.617 143.6C293.917 143.74 292.437 144.46 292.437 145.58C292.437 146.6 293.517 147.16 295.537 147.16ZM306.216 134.24C308.676 134.24 309.876 135.94 309.876 138.38V143.38C309.876 143.9 309.616 144.06 309.256 144.06H309.076C308.696 144.06 308.436 143.9 308.436 143.38V138.5C308.436 136.66 307.556 135.52 305.936 135.52C304.536 135.52 303.496 136.3 302.976 137.44V143.38C302.976 143.9 302.716 144.06 302.356 144.06H302.176C301.796 144.06 301.536 143.9 301.536 143.38V134.54C301.536 134.5 301.776 134.38 302.056 134.38C302.496 134.38 302.896 134.6 302.936 135.58V136.14C303.576 135 304.696 134.24 306.216 134.24ZM311.756 141.54C311.756 139.38 313.796 138.46 318.296 138.4H318.516V138C318.516 136.38 317.576 135.48 315.936 135.48C314.416 135.48 313.496 136.22 313.016 137.18C312.976 137.2 312.136 137.16 312.136 136.44C312.136 136.16 312.336 135.74 312.716 135.38C313.336 134.78 314.436 134.24 316.016 134.24C318.556 134.24 319.936 135.66 319.936 138.02V143.92C319.936 143.98 319.676 144.08 319.416 144.08C318.996 144.08 318.656 143.88 318.576 143.16C318.556 142.88 318.536 142.58 318.536 142.28C317.896 143.44 316.596 144.2 314.996 144.2C312.996 144.2 311.756 143.16 311.756 141.54ZM318.516 140.26V139.34L318.176 139.36C314.696 139.44 313.196 140.04 313.196 141.5C313.196 142.5 313.996 143.12 315.276 143.12C317.116 143.12 318.516 141.88 318.516 140.26ZM327.095 134.24C329.555 134.24 330.755 135.94 330.755 138.38V143.38C330.755 143.9 330.495 144.06 330.135 144.06H329.955C329.575 144.06 329.315 143.9 329.315 143.38V138.5C329.315 136.66 328.435 135.52 326.815 135.52C325.415 135.52 324.375 136.3 323.855 137.44V143.38C323.855 143.9 323.595 144.06 323.235 144.06H323.055C322.675 144.06 322.415 143.9 322.415 143.38V134.54C322.415 134.5 322.655 134.38 322.935 134.38C323.375 134.38 323.775 134.6 323.815 135.58V136.14C324.455 135 325.575 134.24 327.095 134.24ZM332.635 139.2C332.635 136.34 334.635 134.24 337.455 134.24C338.955 134.24 339.995 134.78 340.635 135.4C341.175 135.9 341.415 136.48 341.415 136.84C341.415 137.48 340.555 137.6 340.495 137.52C340.075 136.42 339.215 135.48 337.475 135.48C335.475 135.48 334.055 137.04 334.055 139.2C334.055 141.4 335.455 142.98 337.475 142.98C339.195 142.98 340.075 142.04 340.495 140.94C340.535 140.86 341.415 140.96 341.415 141.64C341.415 141.96 341.175 142.52 340.635 143.04C340.015 143.7 338.955 144.22 337.435 144.22C334.635 144.22 332.635 142.12 332.635 139.2ZM345.573 147.84C345.173 147.84 344.813 147.54 344.833 147.44L346.473 143.46C346.093 143.44 345.893 143.34 345.753 143L342.293 134.8C342.273 134.68 342.633 134.36 343.073 134.36C343.433 134.38 343.753 134.6 343.973 135.22L346.893 142.52L349.473 135.28C349.693 134.54 350.093 134.36 350.453 134.38C350.813 134.38 351.173 134.68 351.153 134.78L346.513 146.98C346.293 147.66 345.953 147.84 345.573 147.84Z" fill="black"/>
</svg>
