<svg width="407" height="175" viewBox="0 0 407 175" fill="none" xmlns="http://www.w3.org/2000/svg">
<path d="M65.6619 30.0783C64.9287 24.5276 63.0907 15.0598 59.8357 11.5765L59.1213 10.8125H31.6887L30.9742 11.5765C27.7194 15.0597 25.8801 24.5277 25.1481 30.0783C31.3257 28.4024 38.2387 27.5152 45.405 27.5152C52.5736 27.5153 59.4855 28.4024 65.6619 30.0783ZM39.8271 20.588V16.9297H43.5753V13.1804H47.2347V16.9297H50.9829V20.588H47.2347V24.3362H43.5753V20.588H39.8271ZM36.3367 56.9492C34.3345 57.5395 32.3677 58.3236 30.4197 59.3016C28.9377 60.0456 27.4864 60.8948 26.0685 61.8458C26.0628 61.8491 26.0572 61.8527 26.052 61.8565L26.2351 62.0173L29.859 65.2001C29.8522 65.2047 29.845 65.2091 29.8378 65.2132L31.8225 66.9245L45.1899 78.4481L61.4978 65.1635C61.493 65.1611 61.4883 65.1577 61.4835 65.1553L65.2422 62.061L65.4387 61.9002C63.9923 60.9269 62.5103 60.0587 60.9962 59.3018C58.9833 58.2951 56.937 57.491 54.8625 56.8855H54.5667C56.2098 55.7642 57.7933 54.371 59.241 52.7457C63.3699 48.1082 65.7615 42.3909 66.0476 36.5315L66.0075 34.4003C59.8416 32.5622 52.7806 31.5818 45.4051 31.5818C38.0307 31.5818 30.9685 32.561 24.8041 34.4003L24.7639 36.5315C25.0489 42.3908 27.4404 48.1084 31.5705 52.7459C33.0453 54.4015 34.6608 55.8163 36.3367 56.9492ZM80.1684 77.4686C77.6728 73.5409 74.9183 70.3994 74.8095 70.2704C73.1679 68.39 71.454 66.6809 69.6751 65.1444C69.6691 65.1386 69.6621 65.1327 69.655 65.1267L69.4635 65.2852L61.4999 71.8352L45.1023 85.1897L27.8697 70.3486L21.9843 65.2556L21.8034 65.0994C20.0161 66.6381 18.2929 68.352 16.6405 70.2396C16.2822 70.6182 13.5276 73.5905 11.0025 77.2794C7.04491 83.0666 5.78176 87.4724 7.14438 90.7237C8.38758 93.6865 11.5194 95.1875 16.4514 95.1875H74.968C79.4625 95.1875 82.3755 93.7563 83.6187 90.9521C85.0107 87.741 83.887 83.335 80.1684 77.4686Z" fill="#FF7876"/>
<path d="M206.502 9.30029C214.902 9.30029 221.727 16.1253 221.727 24.5253C221.727 32.9253 214.902 39.7503 206.502 39.7503C198.102 39.7503 191.277 32.9253 191.277 24.5253C191.277 16.1253 198.102 9.30029 206.502 9.30029ZM239.052 63.9003C237.477 60.2253 234.852 56.5503 233.277 52.8753C231.177 47.1003 225.402 43.4253 219.627 43.4253H196.002C184.977 43.4253 180.777 54.9753 177.627 61.2753C174.477 66.5253 172.902 72.3003 171.852 78.6003C171.852 84.3753 173.952 90.1503 178.152 93.8253C183.927 98.0253 190.752 100.65 198.102 101.175C204.927 101.7 211.227 98.5503 211.752 94.3503C212.277 89.6253 209.652 86.4753 203.877 87.0003C198.102 87.5253 191.802 86.4753 186.552 83.8503C181.827 81.7503 187.602 81.7503 188.652 81.7503C191.277 81.7503 193.902 81.2253 196.002 79.6503C197.577 78.6003 196.002 78.6003 194.427 72.8253C192.852 68.1003 194.952 66.5253 196.002 66.0003C198.627 64.9503 200.727 66.5253 202.302 69.6753C203.352 71.7753 204.402 73.3503 205.977 74.9253C207.027 76.5003 208.602 78.0753 210.177 79.1253C212.277 80.1753 214.377 81.2253 216.477 81.2253C217.527 81.2253 219.102 81.2253 220.152 80.7003C218.052 82.2753 211.752 87.0003 215.952 92.2503C218.577 94.8753 223.827 93.8253 226.452 92.7753C230.652 90.6753 234.327 87.5253 237.477 83.8503C242.202 78.6003 242.727 70.2003 239.052 63.9003ZM218.052 79.1253C212.277 79.1253 207.552 74.4003 207.552 68.6253C207.552 62.8503 212.277 58.1253 218.052 58.1253C223.827 58.1253 228.552 62.8503 228.552 68.6253C228.552 74.4003 223.827 79.1253 218.052 79.1253Z" fill="#FF7876"/>
<path d="M361.444 29.3824C361.412 29.8057 361.396 30.2372 361.396 30.6773C361.396 40.3061 369.015 48.1089 378.417 48.1089C387.819 48.1089 395.438 40.3061 395.438 30.6773C395.438 21.0483 387.819 13.2456 378.417 13.2456C374.024 13.2456 370.02 14.9473 367.004 17.7446C365.756 16.3418 363.965 15.4619 361.963 15.4619C358.202 15.4619 355.154 18.583 355.154 22.4346C355.154 26.1035 357.926 29.1084 361.444 29.3824Z" fill="#FF7876"/>
<path d="M391.246 57.2314C388.482 57.2314 385.978 58.3188 384.097 60.0952L363.104 41.9331C360.389 37.6747 357.106 35.2676 353.151 35.2676C340.336 35.2758 327.586 57.2314 327.586 92.5096H373.852C373.098 80.9882 371.858 70.355 370.002 61.4565L380.75 67.1508C380.725 67.4331 380.717 67.7236 380.717 68.0223V72.1644C380.717 73.9989 382.168 75.4847 383.959 75.4847C385.751 75.4847 387.202 73.9989 387.202 72.1644V70.0145C389.609 69.7905 391.173 66.5448 389.155 64.478C389.747 64.1044 390.436 63.8802 391.173 63.8637C393.443 63.8223 395.307 65.6982 395.307 68.0141V89.2641C395.307 91.0986 396.758 92.5844 398.549 92.5844C400.341 92.5844 401.791 91.0986 401.791 89.2641V68.0223C401.783 62.0625 397.066 57.2314 391.246 57.2314Z" fill="#FF7876"/>
<path d="M13.9283 127C13.7383 127 13.5883 126.945 13.4783 126.835C13.3683 126.715 13.3133 126.555 13.3133 126.355V117.76C13.3133 117.42 13.4733 117.25 13.7933 117.25H13.9433C14.2733 117.25 14.4383 117.42 14.4383 117.76V125.965H18.7883C19.1383 125.965 19.3133 126.125 19.3133 126.445V126.505C19.3133 126.835 19.1383 127 18.7883 127H13.9283ZM20.6329 117.595C20.6329 117.375 20.6929 117.205 20.8129 117.085C20.9329 116.965 21.1029 116.905 21.3229 116.905C21.5429 116.905 21.7129 116.965 21.8329 117.085C21.9529 117.205 22.0129 117.375 22.0129 117.595C22.0129 117.815 21.9479 117.985 21.8179 118.105C21.6979 118.215 21.5279 118.27 21.3079 118.27C21.0979 118.27 20.9329 118.215 20.8129 118.105C20.6929 117.985 20.6329 117.815 20.6329 117.595ZM20.7679 120.31C20.7679 119.96 20.9279 119.785 21.2479 119.785H21.3679C21.6879 119.785 21.8479 119.96 21.8479 120.31V126.535C21.8479 126.875 21.6879 127.045 21.3679 127.045H21.2479C20.9279 127.045 20.7679 126.875 20.7679 126.535V120.31ZM23.7373 126.415C23.4473 126.165 23.3023 125.925 23.3023 125.695C23.3023 125.585 23.3323 125.49 23.3923 125.41C23.4623 125.33 23.5373 125.27 23.6173 125.23C23.6973 125.18 23.7473 125.16 23.7673 125.17C24.0073 125.51 24.3323 125.785 24.7423 125.995C25.1523 126.195 25.6373 126.295 26.1973 126.295C26.7573 126.295 27.1923 126.19 27.5023 125.98C27.8223 125.76 27.9823 125.47 27.9823 125.11C27.9823 124.84 27.9023 124.63 27.7423 124.48C27.5923 124.33 27.3873 124.215 27.1273 124.135C26.8773 124.045 26.4973 123.945 25.9873 123.835C25.4973 123.735 25.0823 123.625 24.7423 123.505C24.4023 123.375 24.1123 123.18 23.8723 122.92C23.6323 122.65 23.5123 122.29 23.5123 121.84C23.5123 121.2 23.7573 120.68 24.2473 120.28C24.7473 119.88 25.4073 119.68 26.2273 119.68C26.7673 119.68 27.2373 119.755 27.6373 119.905C28.0373 120.055 28.3473 120.25 28.5673 120.49C28.6473 120.57 28.7123 120.665 28.7623 120.775C28.8123 120.875 28.8373 120.97 28.8373 121.06C28.8373 121.17 28.8023 121.27 28.7323 121.36C28.6723 121.44 28.5973 121.505 28.5073 121.555C28.4273 121.595 28.3823 121.61 28.3723 121.6C28.1723 121.29 27.8823 121.035 27.5023 120.835C27.1223 120.635 26.7023 120.535 26.2423 120.535C25.7023 120.535 25.2773 120.645 24.9673 120.865C24.6673 121.085 24.5173 121.37 24.5173 121.72C24.5173 121.97 24.5923 122.17 24.7423 122.32C24.8923 122.46 25.0923 122.575 25.3423 122.665C25.5923 122.745 25.9623 122.84 26.4523 122.95C26.9823 123.07 27.4173 123.195 27.7573 123.325C28.1073 123.445 28.4073 123.64 28.6573 123.91C28.9073 124.18 29.0323 124.54 29.0323 124.99C29.0323 125.65 28.7723 126.18 28.2523 126.58C27.7423 126.97 27.0523 127.165 26.1823 127.165C25.6323 127.165 25.1523 127.095 24.7423 126.955C24.3323 126.815 23.9973 126.635 23.7373 126.415ZM32.9227 127.165C32.2627 127.165 31.7677 126.98 31.4377 126.61C31.1177 126.24 30.9577 125.675 30.9577 124.915V120.76H30.2527C29.9427 120.76 29.7877 120.625 29.7877 120.355V120.25C29.7877 119.98 29.9427 119.845 30.2527 119.845H30.9577V118.585C30.9577 118.235 31.1177 118.06 31.4377 118.06H31.5577C31.8677 118.06 32.0227 118.235 32.0227 118.585V119.845H33.8377C34.1477 119.845 34.3027 119.98 34.3027 120.25V120.34C34.3027 120.62 34.1427 120.76 33.8227 120.76H32.0077V124.75C32.0077 125.28 32.0927 125.665 32.2627 125.905C32.4327 126.135 32.7027 126.25 33.0727 126.25C33.5327 126.25 33.8877 126.065 34.1377 125.695C34.1577 125.685 34.1927 125.7 34.2427 125.74C34.2927 125.77 34.3377 125.825 34.3777 125.905C34.4177 125.985 34.4377 126.08 34.4377 126.19C34.4377 126.39 34.3477 126.575 34.1677 126.745C33.8677 127.025 33.4527 127.165 32.9227 127.165ZM35.1843 123.46C35.1843 122.74 35.3343 122.095 35.6343 121.525C35.9443 120.945 36.3643 120.495 36.8943 120.175C37.4343 119.845 38.0443 119.68 38.7243 119.68C39.3843 119.68 39.9593 119.83 40.4493 120.13C40.9493 120.42 41.3343 120.83 41.6043 121.36C41.8743 121.89 42.0093 122.505 42.0093 123.205V123.31C42.0093 123.44 41.9793 123.53 41.9193 123.58C41.8693 123.63 41.7743 123.655 41.6343 123.655H36.2193C36.2193 123.745 36.2243 123.815 36.2343 123.865C36.3043 124.585 36.5743 125.165 37.0443 125.605C37.5243 126.045 38.1243 126.265 38.8443 126.265C39.4543 126.265 39.9393 126.145 40.2993 125.905C40.6693 125.665 40.9593 125.345 41.1693 124.945C41.1993 124.935 41.2643 124.95 41.3643 124.99C41.4743 125.02 41.5693 125.08 41.6493 125.17C41.7393 125.26 41.7843 125.375 41.7843 125.515C41.7843 125.635 41.7343 125.775 41.6343 125.935C41.5443 126.095 41.4043 126.25 41.2143 126.4C40.9643 126.62 40.6343 126.805 40.2243 126.955C39.8143 127.095 39.3493 127.165 38.8293 127.165C38.1093 127.165 37.4743 127.01 36.9243 126.7C36.3743 126.39 35.9443 125.955 35.6343 125.395C35.3343 124.825 35.1843 124.18 35.1843 123.46ZM40.9443 122.875C40.9143 122.175 40.6993 121.615 40.2993 121.195C39.8993 120.765 39.3743 120.55 38.7243 120.55C38.0743 120.55 37.5243 120.765 37.0743 121.195C36.6243 121.625 36.3493 122.185 36.2493 122.875H40.9443ZM46.9812 119.68C47.8812 119.68 48.5612 119.96 49.0212 120.52C49.4912 121.08 49.7262 121.835 49.7262 122.785V126.535C49.7262 126.875 49.5712 127.045 49.2612 127.045H49.1262C48.8062 127.045 48.6462 126.875 48.6462 126.535V122.875C48.6462 122.175 48.4812 121.63 48.1512 121.24C47.8312 120.84 47.3712 120.64 46.7712 120.64C46.2612 120.64 45.8112 120.77 45.4212 121.03C45.0412 121.29 44.7512 121.64 44.5512 122.08V126.535C44.5512 126.875 44.3962 127.045 44.0862 127.045H43.9512C43.6312 127.045 43.4712 126.875 43.4712 126.535V119.905C43.4712 119.885 43.5112 119.86 43.5912 119.83C43.6812 119.8 43.7712 119.785 43.8612 119.785C44.2812 119.785 44.5012 120.085 44.5212 120.685V121.105C44.7712 120.665 45.1062 120.32 45.5262 120.07C45.9462 119.81 46.4312 119.68 46.9812 119.68ZM56.3309 127.165C55.6709 127.165 55.1759 126.98 54.8459 126.61C54.5259 126.24 54.3659 125.675 54.3659 124.915V120.76H53.6609C53.3509 120.76 53.1959 120.625 53.1959 120.355V120.25C53.1959 119.98 53.3509 119.845 53.6609 119.845H54.3659V118.585C54.3659 118.235 54.5259 118.06 54.8459 118.06H54.9659C55.2759 118.06 55.4309 118.235 55.4309 118.585V119.845H57.2459C57.5559 119.845 57.7109 119.98 57.7109 120.25V120.34C57.7109 120.62 57.5509 120.76 57.2309 120.76H55.4159V124.75C55.4159 125.28 55.5009 125.665 55.6709 125.905C55.8409 126.135 56.1109 126.25 56.4809 126.25C56.9409 126.25 57.2959 126.065 57.5459 125.695C57.5659 125.685 57.6009 125.7 57.6509 125.74C57.7009 125.77 57.7459 125.825 57.7859 125.905C57.8259 125.985 57.8459 126.08 57.8459 126.19C57.8459 126.39 57.7559 126.575 57.5759 126.745C57.2759 127.025 56.8609 127.165 56.3309 127.165ZM58.5925 123.415C58.5925 122.695 58.7475 122.055 59.0575 121.495C59.3675 120.925 59.7975 120.48 60.3475 120.16C60.8975 119.84 61.5275 119.68 62.2375 119.68C62.9375 119.68 63.5575 119.84 64.0975 120.16C64.6475 120.48 65.0775 120.93 65.3875 121.51C65.6975 122.08 65.8525 122.725 65.8525 123.445C65.8525 124.155 65.6975 124.795 65.3875 125.365C65.0775 125.925 64.6475 126.365 64.0975 126.685C63.5475 127.005 62.9225 127.165 62.2225 127.165C61.5225 127.165 60.8925 127.005 60.3325 126.685C59.7825 126.365 59.3525 125.92 59.0425 125.35C58.7425 124.78 58.5925 124.135 58.5925 123.415ZM64.8025 123.445C64.8025 122.905 64.6925 122.42 64.4725 121.99C64.2525 121.55 63.9475 121.21 63.5575 120.97C63.1675 120.72 62.7275 120.595 62.2375 120.595C61.7475 120.595 61.3025 120.715 60.9025 120.955C60.5125 121.195 60.2025 121.53 59.9725 121.96C59.7525 122.39 59.6425 122.875 59.6425 123.415C59.6425 123.955 59.7525 124.44 59.9725 124.87C60.2025 125.3 60.5125 125.64 60.9025 125.89C61.3025 126.13 61.7475 126.25 62.2375 126.25C62.7275 126.25 63.1675 126.13 63.5575 125.89C63.9475 125.65 64.2525 125.32 64.4725 124.9C64.6925 124.47 64.8025 123.985 64.8025 123.445ZM72.078 127.165C71.418 127.165 70.923 126.98 70.593 126.61C70.273 126.24 70.113 125.675 70.113 124.915V120.76H69.408C69.098 120.76 68.943 120.625 68.943 120.355V120.25C68.943 119.98 69.098 119.845 69.408 119.845H70.113V118.585C70.113 118.235 70.273 118.06 70.593 118.06H70.713C71.023 118.06 71.178 118.235 71.178 118.585V119.845H72.993C73.303 119.845 73.458 119.98 73.458 120.25V120.34C73.458 120.62 73.298 120.76 72.978 120.76H71.163V124.75C71.163 125.28 71.248 125.665 71.418 125.905C71.588 126.135 71.858 126.25 72.228 126.25C72.688 126.25 73.043 126.065 73.293 125.695C73.313 125.685 73.348 125.7 73.398 125.74C73.448 125.77 73.493 125.825 73.533 125.905C73.573 125.985 73.593 126.08 73.593 126.19C73.593 126.39 73.503 126.575 73.323 126.745C73.023 127.025 72.608 127.165 72.078 127.165ZM78.2846 119.68C79.1846 119.68 79.8696 119.965 80.3396 120.535C80.8096 121.095 81.0446 121.85 81.0446 122.8V126.535C81.0446 126.875 80.8896 127.045 80.5796 127.045H80.4446C80.1246 127.045 79.9646 126.875 79.9646 126.535V122.875C79.9646 122.175 79.7996 121.63 79.4696 121.24C79.1396 120.85 78.6746 120.655 78.0746 120.655C77.4346 120.655 76.9096 120.86 76.4996 121.27C76.0896 121.67 75.8796 122.2 75.8696 122.86V126.535C75.8696 126.875 75.7146 127.045 75.4046 127.045H75.2696C74.9496 127.045 74.7896 126.875 74.7896 126.535V116.89C74.7896 116.87 74.8296 116.845 74.9096 116.815C74.9896 116.785 75.0796 116.77 75.1796 116.77C75.6396 116.77 75.8696 117.09 75.8696 117.73V121.15C76.0996 120.69 76.4196 120.33 76.8296 120.07C77.2496 119.81 77.7346 119.68 78.2846 119.68ZM82.4548 123.46C82.4548 122.74 82.6048 122.095 82.9048 121.525C83.2148 120.945 83.6348 120.495 84.1648 120.175C84.7048 119.845 85.3148 119.68 85.9948 119.68C86.6548 119.68 87.2298 119.83 87.7198 120.13C88.2198 120.42 88.6048 120.83 88.8748 121.36C89.1448 121.89 89.2798 122.505 89.2798 123.205V123.31C89.2798 123.44 89.2498 123.53 89.1898 123.58C89.1398 123.63 89.0448 123.655 88.9048 123.655H83.4898C83.4898 123.745 83.4948 123.815 83.5048 123.865C83.5748 124.585 83.8448 125.165 84.3148 125.605C84.7948 126.045 85.3948 126.265 86.1148 126.265C86.7248 126.265 87.2098 126.145 87.5698 125.905C87.9398 125.665 88.2298 125.345 88.4398 124.945C88.4698 124.935 88.5348 124.95 88.6348 124.99C88.7448 125.02 88.8398 125.08 88.9198 125.17C89.0098 125.26 89.0548 125.375 89.0548 125.515C89.0548 125.635 89.0048 125.775 88.9048 125.935C88.8148 126.095 88.6748 126.25 88.4848 126.4C88.2348 126.62 87.9048 126.805 87.4948 126.955C87.0848 127.095 86.6198 127.165 86.0998 127.165C85.3798 127.165 84.7448 127.01 84.1948 126.7C83.6448 126.39 83.2148 125.955 82.9048 125.395C82.6048 124.825 82.4548 124.18 82.4548 123.46ZM88.2148 122.875C88.1848 122.175 87.9698 121.615 87.5698 121.195C87.1698 120.765 86.6448 120.55 85.9948 120.55C85.3448 120.55 84.7948 120.765 84.3448 121.195C83.8948 121.625 83.6198 122.185 83.5198 122.875H88.2148ZM27.5378 139.46C27.5378 138.74 27.6878 138.095 27.9878 137.525C28.2978 136.945 28.7178 136.495 29.2478 136.175C29.7878 135.845 30.3978 135.68 31.0778 135.68C31.7378 135.68 32.3128 135.83 32.8028 136.13C33.3028 136.42 33.6878 136.83 33.9578 137.36C34.2278 137.89 34.3628 138.505 34.3628 139.205V139.31C34.3628 139.44 34.3328 139.53 34.2728 139.58C34.2228 139.63 34.1278 139.655 33.9878 139.655H28.5728C28.5728 139.745 28.5778 139.815 28.5878 139.865C28.6578 140.585 28.9278 141.165 29.3978 141.605C29.8778 142.045 30.4778 142.265 31.1978 142.265C31.8078 142.265 32.2928 142.145 32.6528 141.905C33.0228 141.665 33.3128 141.345 33.5228 140.945C33.5528 140.935 33.6178 140.95 33.7178 140.99C33.8278 141.02 33.9228 141.08 34.0028 141.17C34.0928 141.26 34.1378 141.375 34.1378 141.515C34.1378 141.635 34.0878 141.775 33.9878 141.935C33.8978 142.095 33.7578 142.25 33.5678 142.4C33.3178 142.62 32.9878 142.805 32.5778 142.955C32.1678 143.095 31.7028 143.165 31.1828 143.165C30.4628 143.165 29.8278 143.01 29.2778 142.7C28.7278 142.39 28.2978 141.955 27.9878 141.395C27.6878 140.825 27.5378 140.18 27.5378 139.46ZM33.2978 138.875C33.2678 138.175 33.0528 137.615 32.6528 137.195C32.2528 136.765 31.7278 136.55 31.0778 136.55C30.4278 136.55 29.8778 136.765 29.4278 137.195C28.9778 137.625 28.7028 138.185 28.6028 138.875H33.2978ZM37.5083 139.415L35.0933 136.19C35.0833 136.17 35.0983 136.125 35.1383 136.055C35.1883 135.985 35.2583 135.925 35.3483 135.875C35.4383 135.815 35.5383 135.785 35.6483 135.785C35.8083 135.785 35.9433 135.825 36.0533 135.905C36.1633 135.975 36.2683 136.095 36.3683 136.265L38.2133 138.8L40.0283 136.28C40.2283 135.95 40.4633 135.785 40.7333 135.785C40.8533 135.785 40.9583 135.815 41.0483 135.875C41.1383 135.925 41.2083 135.985 41.2583 136.055C41.3083 136.125 41.3233 136.17 41.3033 136.19L38.8733 139.415L41.2733 142.64C41.2933 142.67 41.2783 142.72 41.2283 142.79C41.1883 142.86 41.1183 142.925 41.0183 142.985C40.9283 143.035 40.8233 143.06 40.7033 143.06C40.5433 143.06 40.4133 143.02 40.3133 142.94C40.2133 142.86 40.1133 142.74 40.0133 142.58L38.1533 140.03L36.3383 142.565C36.1383 142.895 35.9033 143.06 35.6333 143.06C35.5233 143.06 35.4183 143.03 35.3183 142.97C35.2283 142.91 35.1583 142.845 35.1083 142.775C35.0583 142.705 35.0433 142.66 35.0633 142.64L37.5083 139.415ZM46.3116 135.68C46.9316 135.68 47.4916 135.835 47.9916 136.145C48.5016 136.455 48.8966 136.895 49.1766 137.465C49.4666 138.025 49.6116 138.67 49.6116 139.4C49.6116 140.13 49.4666 140.785 49.1766 141.365C48.8966 141.935 48.5016 142.38 47.9916 142.7C47.4916 143.01 46.9216 143.165 46.2816 143.165C45.6716 143.165 45.1366 143.025 44.6766 142.745C44.2266 142.455 43.9016 142.095 43.7016 141.665V145.385C43.7016 145.725 43.5466 145.895 43.2366 145.895H43.1166C42.7966 145.895 42.6366 145.725 42.6366 145.385V135.905C42.6366 135.885 42.6766 135.86 42.7566 135.83C42.8366 135.8 42.9216 135.785 43.0116 135.785C43.4116 135.785 43.6316 136.055 43.6716 136.595L43.6866 137.21C43.9566 136.73 44.3116 136.355 44.7516 136.085C45.1916 135.815 45.7116 135.68 46.3116 135.68ZM46.0866 142.25C46.8266 142.25 47.4216 141.99 47.8716 141.47C48.3216 140.95 48.5466 140.265 48.5466 139.415C48.5466 138.865 48.4416 138.38 48.2316 137.96C48.0216 137.53 47.7316 137.195 47.3616 136.955C46.9916 136.715 46.5766 136.595 46.1166 136.595C45.5366 136.595 45.0366 136.75 44.6166 137.06C44.2066 137.36 43.8966 137.78 43.6866 138.32V139.91C43.6866 140.34 43.7916 140.735 44.0016 141.095C44.2216 141.455 44.5166 141.74 44.8866 141.95C45.2566 142.15 45.6566 142.25 46.0866 142.25ZM50.6384 139.46C50.6384 138.74 50.7884 138.095 51.0884 137.525C51.3984 136.945 51.8184 136.495 52.3484 136.175C52.8884 135.845 53.4984 135.68 54.1784 135.68C54.8384 135.68 55.4134 135.83 55.9034 136.13C56.4034 136.42 56.7884 136.83 57.0584 137.36C57.3284 137.89 57.4634 138.505 57.4634 139.205V139.31C57.4634 139.44 57.4334 139.53 57.3734 139.58C57.3234 139.63 57.2284 139.655 57.0884 139.655H51.6734C51.6734 139.745 51.6784 139.815 51.6884 139.865C51.7584 140.585 52.0284 141.165 52.4984 141.605C52.9784 142.045 53.5784 142.265 54.2984 142.265C54.9084 142.265 55.3934 142.145 55.7534 141.905C56.1234 141.665 56.4134 141.345 56.6234 140.945C56.6534 140.935 56.7184 140.95 56.8184 140.99C56.9284 141.02 57.0234 141.08 57.1034 141.17C57.1934 141.26 57.2384 141.375 57.2384 141.515C57.2384 141.635 57.1884 141.775 57.0884 141.935C56.9984 142.095 56.8584 142.25 56.6684 142.4C56.4184 142.62 56.0884 142.805 55.6784 142.955C55.2684 143.095 54.8034 143.165 54.2834 143.165C53.5634 143.165 52.9284 143.01 52.3784 142.7C51.8284 142.39 51.3984 141.955 51.0884 141.395C50.7884 140.825 50.6384 140.18 50.6384 139.46ZM56.3984 138.875C56.3684 138.175 56.1534 137.615 55.7534 137.195C55.3534 136.765 54.8284 136.55 54.1784 136.55C53.5284 136.55 52.9784 136.765 52.5284 137.195C52.0784 137.625 51.8034 138.185 51.7034 138.875H56.3984ZM61.8353 135.68C62.1553 135.68 62.4103 135.755 62.6003 135.905C62.8003 136.045 62.9003 136.23 62.9003 136.46C62.9003 136.59 62.8753 136.7 62.8253 136.79C62.7853 136.88 62.7353 136.95 62.6753 137C62.6153 137.04 62.5803 137.055 62.5703 137.045C62.3703 136.845 62.0853 136.745 61.7153 136.745C61.1453 136.745 60.7153 137.005 60.4253 137.525C60.1453 138.045 60.0053 138.77 60.0053 139.7V142.535C60.0053 142.875 59.8503 143.045 59.5403 143.045H59.4203C59.0903 143.045 58.9253 142.875 58.9253 142.535V135.905C58.9253 135.885 58.9653 135.86 59.0453 135.83C59.1253 135.8 59.2153 135.785 59.3153 135.785C59.6853 135.785 59.8953 136.025 59.9453 136.505C59.9653 136.845 59.9753 137.105 59.9753 137.285C60.1153 136.755 60.3453 136.355 60.6653 136.085C60.9853 135.815 61.3753 135.68 61.8353 135.68ZM66.5409 143.165C65.8809 143.165 65.3859 142.98 65.0559 142.61C64.7359 142.24 64.5759 141.675 64.5759 140.915V136.76H63.8709C63.5609 136.76 63.4059 136.625 63.4059 136.355V136.25C63.4059 135.98 63.5609 135.845 63.8709 135.845H64.5759V134.585C64.5759 134.235 64.7359 134.06 65.0559 134.06H65.1759C65.4859 134.06 65.6409 134.235 65.6409 134.585V135.845H67.4559C67.7659 135.845 67.9209 135.98 67.9209 136.25V136.34C67.9209 136.62 67.7609 136.76 67.4409 136.76H65.6259V140.75C65.6259 141.28 65.7109 141.665 65.8809 141.905C66.0509 142.135 66.3209 142.25 66.6909 142.25C67.1509 142.25 67.5059 142.065 67.7559 141.695C67.7759 141.685 67.8109 141.7 67.8609 141.74C67.9109 141.77 67.9559 141.825 67.9959 141.905C68.0359 141.985 68.0559 142.08 68.0559 142.19C68.0559 142.39 67.9659 142.575 67.7859 142.745C67.4859 143.025 67.0709 143.165 66.5409 143.165ZM69.1475 142.415C68.8575 142.165 68.7125 141.925 68.7125 141.695C68.7125 141.585 68.7425 141.49 68.8025 141.41C68.8725 141.33 68.9475 141.27 69.0275 141.23C69.1075 141.18 69.1575 141.16 69.1775 141.17C69.4175 141.51 69.7425 141.785 70.1525 141.995C70.5625 142.195 71.0475 142.295 71.6075 142.295C72.1675 142.295 72.6025 142.19 72.9125 141.98C73.2325 141.76 73.3925 141.47 73.3925 141.11C73.3925 140.84 73.3125 140.63 73.1525 140.48C73.0025 140.33 72.7975 140.215 72.5375 140.135C72.2875 140.045 71.9075 139.945 71.3975 139.835C70.9075 139.735 70.4925 139.625 70.1525 139.505C69.8125 139.375 69.5225 139.18 69.2825 138.92C69.0425 138.65 68.9225 138.29 68.9225 137.84C68.9225 137.2 69.1675 136.68 69.6575 136.28C70.1575 135.88 70.8175 135.68 71.6375 135.68C72.1775 135.68 72.6475 135.755 73.0475 135.905C73.4475 136.055 73.7575 136.25 73.9775 136.49C74.0575 136.57 74.1225 136.665 74.1725 136.775C74.2225 136.875 74.2475 136.97 74.2475 137.06C74.2475 137.17 74.2125 137.27 74.1425 137.36C74.0825 137.44 74.0075 137.505 73.9175 137.555C73.8375 137.595 73.7925 137.61 73.7825 137.6C73.5825 137.29 73.2925 137.035 72.9125 136.835C72.5325 136.635 72.1125 136.535 71.6525 136.535C71.1125 136.535 70.6875 136.645 70.3775 136.865C70.0775 137.085 69.9275 137.37 69.9275 137.72C69.9275 137.97 70.0025 138.17 70.1525 138.32C70.3025 138.46 70.5025 138.575 70.7525 138.665C71.0025 138.745 71.3725 138.84 71.8625 138.95C72.3925 139.07 72.8275 139.195 73.1675 139.325C73.5175 139.445 73.8175 139.64 74.0675 139.91C74.3175 140.18 74.4425 140.54 74.4425 140.99C74.4425 141.65 74.1825 142.18 73.6625 142.58C73.1525 142.97 72.4625 143.165 71.5925 143.165C71.0425 143.165 70.5625 143.095 70.1525 142.955C69.7425 142.815 69.4075 142.635 69.1475 142.415Z" fill="#001133"/>
<path d="M41.045 170.09C40.817 170.09 40.631 170.012 40.487 169.856C40.355 169.7 40.289 169.496 40.289 169.244V166.886H35.519C35.171 166.886 34.895 166.808 34.691 166.652C34.487 166.484 34.385 166.274 34.385 166.022V165.626C34.385 165.446 34.421 165.278 34.493 165.122C34.577 164.954 34.715 164.738 34.907 164.474L39.065 159.092C39.305 158.756 39.521 158.534 39.713 158.426C39.917 158.318 40.229 158.264 40.649 158.264C41.153 158.264 41.507 158.36 41.711 158.552C41.927 158.732 42.035 159.038 42.035 159.47V165.374H43.313C43.853 165.374 44.123 165.614 44.123 166.094V166.184C44.123 166.424 44.057 166.604 43.925 166.724C43.793 166.832 43.589 166.886 43.313 166.886H42.035V169.244C42.035 169.808 41.771 170.09 41.243 170.09H41.045ZM40.361 165.41V159.776L36.059 165.41H40.361ZM49.7165 170.216C48.3005 170.216 47.1845 169.916 46.3685 169.316C45.5525 168.716 45.1445 167.912 45.1445 166.904C45.1445 166.22 45.3425 165.632 45.7385 165.14C46.1465 164.636 46.7345 164.258 47.5025 164.006C46.8305 163.79 46.3265 163.46 45.9905 163.016C45.6545 162.56 45.4865 162.014 45.4865 161.378C45.4865 160.742 45.6605 160.178 46.0085 159.686C46.3565 159.194 46.8485 158.81 47.4845 158.534C48.1325 158.258 48.8825 158.12 49.7345 158.12C51.0305 158.12 52.0505 158.414 52.7945 159.002C53.5505 159.578 53.9285 160.358 53.9285 161.342C53.9285 161.966 53.7605 162.506 53.4245 162.962C53.0885 163.418 52.5905 163.76 51.9305 163.988C52.7105 164.228 53.2985 164.6 53.6945 165.104C54.0905 165.596 54.2885 166.196 54.2885 166.904C54.2885 167.552 54.0965 168.128 53.7125 168.632C53.3405 169.124 52.8065 169.514 52.1105 169.802C51.4145 170.078 50.6165 170.216 49.7165 170.216ZM49.7345 163.358C50.5025 163.358 51.0965 163.196 51.5165 162.872C51.9485 162.536 52.1645 162.074 52.1645 161.486C52.1645 160.898 51.9485 160.43 51.5165 160.082C51.0845 159.722 50.4845 159.542 49.7165 159.542C48.9245 159.542 48.3185 159.716 47.8985 160.064C47.4785 160.4 47.2685 160.874 47.2685 161.486C47.2685 162.05 47.4845 162.506 47.9165 162.854C48.3605 163.19 48.9665 163.358 49.7345 163.358ZM49.7345 168.794C50.6225 168.794 51.3005 168.614 51.7685 168.254C52.2365 167.894 52.4705 167.396 52.4705 166.76C52.4705 166.136 52.2245 165.638 51.7325 165.266C51.2405 164.882 50.5685 164.69 49.7165 164.69C48.8525 164.69 48.1745 164.876 47.6825 165.248C47.2025 165.62 46.9625 166.124 46.9625 166.76C46.9625 167.36 47.2085 167.852 47.7005 168.236C48.1925 168.608 48.8705 168.794 49.7345 168.794ZM57.1687 170.162C57.1447 170.198 57.0607 170.192 56.9167 170.144C56.7727 170.096 56.6407 170.018 56.5207 169.91C56.4007 169.79 56.3407 169.652 56.3407 169.496C56.3407 169.34 56.3767 169.196 56.4487 169.064C56.5207 168.92 56.6587 168.746 56.8627 168.542L65.9167 158.12C65.9407 158.096 66.0247 158.108 66.1687 158.156C66.3127 158.192 66.4447 158.264 66.5647 158.372C66.6847 158.48 66.7447 158.618 66.7447 158.786C66.7447 159.05 66.5767 159.374 66.2407 159.758L57.1687 170.162ZM58.2847 163.808C57.7567 163.808 57.2767 163.688 56.8447 163.448C56.4247 163.208 56.0947 162.884 55.8547 162.476C55.6147 162.056 55.4947 161.594 55.4947 161.09V160.928C55.4947 160.424 55.6147 159.962 55.8547 159.542C56.1067 159.11 56.4427 158.774 56.8627 158.534C57.2947 158.294 57.7747 158.174 58.3027 158.174C58.8307 158.174 59.3107 158.294 59.7427 158.534C60.1747 158.774 60.5107 159.104 60.7507 159.524C60.9907 159.932 61.1107 160.388 61.1107 160.892V161.054C61.1107 161.558 60.9847 162.02 60.7327 162.44C60.4927 162.86 60.1567 163.196 59.7247 163.448C59.2927 163.688 58.8127 163.808 58.2847 163.808ZM58.3027 162.674C58.7227 162.674 59.0647 162.53 59.3287 162.242C59.5927 161.954 59.7247 161.582 59.7247 161.126V160.856C59.7247 160.4 59.5867 160.028 59.3107 159.74C59.0467 159.44 58.7047 159.29 58.2847 159.29C57.8647 159.29 57.5227 159.434 57.2587 159.722C56.9947 160.01 56.8627 160.388 56.8627 160.856V161.126C56.8627 161.57 56.9947 161.942 57.2587 162.242C57.5347 162.53 57.8827 162.674 58.3027 162.674ZM64.8727 170.108C64.3447 170.108 63.8647 169.988 63.4327 169.748C63.0007 169.508 62.6647 169.184 62.4247 168.776C62.1847 168.356 62.0647 167.894 62.0647 167.39V167.228C62.0647 166.724 62.1847 166.262 62.4247 165.842C62.6767 165.422 63.0187 165.092 63.4507 164.852C63.8827 164.6 64.3627 164.474 64.8907 164.474C65.4187 164.474 65.8927 164.594 66.3127 164.834C66.7447 165.074 67.0807 165.404 67.3207 165.824C67.5607 166.232 67.6807 166.688 67.6807 167.192V167.354C67.6807 167.858 67.5547 168.326 67.3027 168.758C67.0627 169.178 66.7267 169.508 66.2947 169.748C65.8747 169.988 65.4007 170.108 64.8727 170.108ZM64.8907 168.974C65.2987 168.974 65.6347 168.83 65.8987 168.542C66.1747 168.254 66.3127 167.882 66.3127 167.426V167.156C66.3127 166.7 66.1747 166.328 65.8987 166.04C65.6347 165.74 65.2927 165.59 64.8727 165.59C64.4527 165.59 64.1107 165.734 63.8467 166.022C63.5827 166.31 63.4507 166.688 63.4507 167.156V167.426C63.4507 167.87 63.5827 168.242 63.8467 168.542C64.1227 168.83 64.4707 168.974 64.8907 168.974Z" fill="black"/>
<path d="M178.632 127C178.442 127 178.292 126.945 178.182 126.835C178.072 126.715 178.017 126.555 178.017 126.355V117.76C178.017 117.42 178.177 117.25 178.497 117.25H178.647C178.977 117.25 179.142 117.42 179.142 117.76V125.965H183.492C183.842 125.965 184.017 126.125 184.017 126.445V126.505C184.017 126.835 183.842 127 183.492 127H178.632ZM185.337 117.595C185.337 117.375 185.397 117.205 185.517 117.085C185.637 116.965 185.807 116.905 186.027 116.905C186.247 116.905 186.417 116.965 186.537 117.085C186.657 117.205 186.717 117.375 186.717 117.595C186.717 117.815 186.652 117.985 186.522 118.105C186.402 118.215 186.232 118.27 186.012 118.27C185.802 118.27 185.637 118.215 185.517 118.105C185.397 117.985 185.337 117.815 185.337 117.595ZM185.472 120.31C185.472 119.96 185.632 119.785 185.952 119.785H186.072C186.392 119.785 186.552 119.96 186.552 120.31V126.535C186.552 126.875 186.392 127.045 186.072 127.045H185.952C185.632 127.045 185.472 126.875 185.472 126.535V120.31ZM188.441 126.415C188.151 126.165 188.006 125.925 188.006 125.695C188.006 125.585 188.036 125.49 188.096 125.41C188.166 125.33 188.241 125.27 188.321 125.23C188.401 125.18 188.451 125.16 188.471 125.17C188.711 125.51 189.036 125.785 189.446 125.995C189.856 126.195 190.341 126.295 190.901 126.295C191.461 126.295 191.896 126.19 192.206 125.98C192.526 125.76 192.686 125.47 192.686 125.11C192.686 124.84 192.606 124.63 192.446 124.48C192.296 124.33 192.091 124.215 191.831 124.135C191.581 124.045 191.201 123.945 190.691 123.835C190.201 123.735 189.786 123.625 189.446 123.505C189.106 123.375 188.816 123.18 188.576 122.92C188.336 122.65 188.216 122.29 188.216 121.84C188.216 121.2 188.461 120.68 188.951 120.28C189.451 119.88 190.111 119.68 190.931 119.68C191.471 119.68 191.941 119.755 192.341 119.905C192.741 120.055 193.051 120.25 193.271 120.49C193.351 120.57 193.416 120.665 193.466 120.775C193.516 120.875 193.541 120.97 193.541 121.06C193.541 121.17 193.506 121.27 193.436 121.36C193.376 121.44 193.301 121.505 193.211 121.555C193.131 121.595 193.086 121.61 193.076 121.6C192.876 121.29 192.586 121.035 192.206 120.835C191.826 120.635 191.406 120.535 190.946 120.535C190.406 120.535 189.981 120.645 189.671 120.865C189.371 121.085 189.221 121.37 189.221 121.72C189.221 121.97 189.296 122.17 189.446 122.32C189.596 122.46 189.796 122.575 190.046 122.665C190.296 122.745 190.666 122.84 191.156 122.95C191.686 123.07 192.121 123.195 192.461 123.325C192.811 123.445 193.111 123.64 193.361 123.91C193.611 124.18 193.736 124.54 193.736 124.99C193.736 125.65 193.476 126.18 192.956 126.58C192.446 126.97 191.756 127.165 190.886 127.165C190.336 127.165 189.856 127.095 189.446 126.955C189.036 126.815 188.701 126.635 188.441 126.415ZM197.627 127.165C196.967 127.165 196.472 126.98 196.142 126.61C195.822 126.24 195.662 125.675 195.662 124.915V120.76H194.957C194.647 120.76 194.492 120.625 194.492 120.355V120.25C194.492 119.98 194.647 119.845 194.957 119.845H195.662V118.585C195.662 118.235 195.822 118.06 196.142 118.06H196.262C196.572 118.06 196.727 118.235 196.727 118.585V119.845H198.542C198.852 119.845 199.007 119.98 199.007 120.25V120.34C199.007 120.62 198.847 120.76 198.527 120.76H196.712V124.75C196.712 125.28 196.797 125.665 196.967 125.905C197.137 126.135 197.407 126.25 197.777 126.25C198.237 126.25 198.592 126.065 198.842 125.695C198.862 125.685 198.897 125.7 198.947 125.74C198.997 125.77 199.042 125.825 199.082 125.905C199.122 125.985 199.142 126.08 199.142 126.19C199.142 126.39 199.052 126.575 198.872 126.745C198.572 127.025 198.157 127.165 197.627 127.165ZM199.888 123.46C199.888 122.74 200.038 122.095 200.338 121.525C200.648 120.945 201.068 120.495 201.598 120.175C202.138 119.845 202.748 119.68 203.428 119.68C204.088 119.68 204.663 119.83 205.153 120.13C205.653 120.42 206.038 120.83 206.308 121.36C206.578 121.89 206.713 122.505 206.713 123.205V123.31C206.713 123.44 206.683 123.53 206.623 123.58C206.573 123.63 206.478 123.655 206.338 123.655H200.923C200.923 123.745 200.928 123.815 200.938 123.865C201.008 124.585 201.278 125.165 201.748 125.605C202.228 126.045 202.828 126.265 203.548 126.265C204.158 126.265 204.643 126.145 205.003 125.905C205.373 125.665 205.663 125.345 205.873 124.945C205.903 124.935 205.968 124.95 206.068 124.99C206.178 125.02 206.273 125.08 206.353 125.17C206.443 125.26 206.488 125.375 206.488 125.515C206.488 125.635 206.438 125.775 206.338 125.935C206.248 126.095 206.108 126.25 205.918 126.4C205.668 126.62 205.338 126.805 204.928 126.955C204.518 127.095 204.053 127.165 203.533 127.165C202.813 127.165 202.178 127.01 201.628 126.7C201.078 126.39 200.648 125.955 200.338 125.395C200.038 124.825 199.888 124.18 199.888 123.46ZM205.648 122.875C205.618 122.175 205.403 121.615 205.003 121.195C204.603 120.765 204.078 120.55 203.428 120.55C202.778 120.55 202.228 120.765 201.778 121.195C201.328 121.625 201.053 122.185 200.953 122.875H205.648ZM211.685 119.68C212.585 119.68 213.265 119.96 213.725 120.52C214.195 121.08 214.43 121.835 214.43 122.785V126.535C214.43 126.875 214.275 127.045 213.965 127.045H213.83C213.51 127.045 213.35 126.875 213.35 126.535V122.875C213.35 122.175 213.185 121.63 212.855 121.24C212.535 120.84 212.075 120.64 211.475 120.64C210.965 120.64 210.515 120.77 210.125 121.03C209.745 121.29 209.455 121.64 209.255 122.08V126.535C209.255 126.875 209.1 127.045 208.79 127.045H208.655C208.335 127.045 208.175 126.875 208.175 126.535V119.905C208.175 119.885 208.215 119.86 208.295 119.83C208.385 119.8 208.475 119.785 208.565 119.785C208.985 119.785 209.205 120.085 209.225 120.685V121.105C209.475 120.665 209.81 120.32 210.23 120.07C210.65 119.81 211.135 119.68 211.685 119.68ZM221.035 127.165C220.375 127.165 219.88 126.98 219.55 126.61C219.23 126.24 219.07 125.675 219.07 124.915V120.76H218.365C218.055 120.76 217.9 120.625 217.9 120.355V120.25C217.9 119.98 218.055 119.845 218.365 119.845H219.07V118.585C219.07 118.235 219.23 118.06 219.55 118.06H219.67C219.98 118.06 220.135 118.235 220.135 118.585V119.845H221.95C222.26 119.845 222.415 119.98 222.415 120.25V120.34C222.415 120.62 222.255 120.76 221.935 120.76H220.12V124.75C220.12 125.28 220.205 125.665 220.375 125.905C220.545 126.135 220.815 126.25 221.185 126.25C221.645 126.25 222 126.065 222.25 125.695C222.27 125.685 222.305 125.7 222.355 125.74C222.405 125.77 222.45 125.825 222.49 125.905C222.53 125.985 222.55 126.08 222.55 126.19C222.55 126.39 222.46 126.575 222.28 126.745C221.98 127.025 221.565 127.165 221.035 127.165ZM223.297 123.415C223.297 122.695 223.452 122.055 223.762 121.495C224.072 120.925 224.502 120.48 225.052 120.16C225.602 119.84 226.232 119.68 226.942 119.68C227.642 119.68 228.262 119.84 228.802 120.16C229.352 120.48 229.782 120.93 230.092 121.51C230.402 122.08 230.557 122.725 230.557 123.445C230.557 124.155 230.402 124.795 230.092 125.365C229.782 125.925 229.352 126.365 228.802 126.685C228.252 127.005 227.627 127.165 226.927 127.165C226.227 127.165 225.597 127.005 225.037 126.685C224.487 126.365 224.057 125.92 223.747 125.35C223.447 124.78 223.297 124.135 223.297 123.415ZM229.507 123.445C229.507 122.905 229.397 122.42 229.177 121.99C228.957 121.55 228.652 121.21 228.262 120.97C227.872 120.72 227.432 120.595 226.942 120.595C226.452 120.595 226.007 120.715 225.607 120.955C225.217 121.195 224.907 121.53 224.677 121.96C224.457 122.39 224.347 122.875 224.347 123.415C224.347 123.955 224.457 124.44 224.677 124.87C224.907 125.3 225.217 125.64 225.607 125.89C226.007 126.13 226.452 126.25 226.942 126.25C227.432 126.25 227.872 126.13 228.262 125.89C228.652 125.65 228.957 125.32 229.177 124.9C229.397 124.47 229.507 123.985 229.507 123.445ZM179.236 143.165C178.576 143.165 178.081 142.98 177.751 142.61C177.431 142.24 177.271 141.675 177.271 140.915V136.76H176.566C176.256 136.76 176.101 136.625 176.101 136.355V136.25C176.101 135.98 176.256 135.845 176.566 135.845H177.271V134.585C177.271 134.235 177.431 134.06 177.751 134.06H177.871C178.181 134.06 178.336 134.235 178.336 134.585V135.845H180.151C180.461 135.845 180.616 135.98 180.616 136.25V136.34C180.616 136.62 180.456 136.76 180.136 136.76H178.321V140.75C178.321 141.28 178.406 141.665 178.576 141.905C178.746 142.135 179.016 142.25 179.386 142.25C179.846 142.25 180.201 142.065 180.451 141.695C180.471 141.685 180.506 141.7 180.556 141.74C180.606 141.77 180.651 141.825 180.691 141.905C180.731 141.985 180.751 142.08 180.751 142.19C180.751 142.39 180.661 142.575 180.481 142.745C180.181 143.025 179.766 143.165 179.236 143.165ZM185.442 135.68C186.342 135.68 187.027 135.965 187.497 136.535C187.967 137.095 188.202 137.85 188.202 138.8V142.535C188.202 142.875 188.047 143.045 187.737 143.045H187.602C187.282 143.045 187.122 142.875 187.122 142.535V138.875C187.122 138.175 186.957 137.63 186.627 137.24C186.297 136.85 185.832 136.655 185.232 136.655C184.592 136.655 184.067 136.86 183.657 137.27C183.247 137.67 183.037 138.2 183.027 138.86V142.535C183.027 142.875 182.872 143.045 182.562 143.045H182.427C182.107 143.045 181.947 142.875 181.947 142.535V132.89C181.947 132.87 181.987 132.845 182.067 132.815C182.147 132.785 182.237 132.77 182.337 132.77C182.797 132.77 183.027 133.09 183.027 133.73V137.15C183.257 136.69 183.577 136.33 183.987 136.07C184.407 135.81 184.892 135.68 185.442 135.68ZM189.613 139.46C189.613 138.74 189.763 138.095 190.063 137.525C190.373 136.945 190.793 136.495 191.323 136.175C191.863 135.845 192.473 135.68 193.153 135.68C193.813 135.68 194.388 135.83 194.878 136.13C195.378 136.42 195.763 136.83 196.033 137.36C196.303 137.89 196.438 138.505 196.438 139.205V139.31C196.438 139.44 196.408 139.53 196.348 139.58C196.298 139.63 196.203 139.655 196.063 139.655H190.648C190.648 139.745 190.653 139.815 190.663 139.865C190.733 140.585 191.003 141.165 191.473 141.605C191.953 142.045 192.553 142.265 193.273 142.265C193.883 142.265 194.368 142.145 194.728 141.905C195.098 141.665 195.388 141.345 195.598 140.945C195.628 140.935 195.693 140.95 195.793 140.99C195.903 141.02 195.998 141.08 196.078 141.17C196.168 141.26 196.213 141.375 196.213 141.515C196.213 141.635 196.163 141.775 196.063 141.935C195.973 142.095 195.833 142.25 195.643 142.4C195.393 142.62 195.063 142.805 194.653 142.955C194.243 143.095 193.778 143.165 193.258 143.165C192.538 143.165 191.903 143.01 191.353 142.7C190.803 142.39 190.373 141.955 190.063 141.395C189.763 140.825 189.613 140.18 189.613 139.46ZM195.373 138.875C195.343 138.175 195.128 137.615 194.728 137.195C194.328 136.765 193.803 136.55 193.153 136.55C192.503 136.55 191.953 136.765 191.503 137.195C191.053 137.625 190.778 138.185 190.678 138.875H195.373ZM206.089 135.68C206.959 135.68 207.619 135.945 208.069 136.475C208.519 136.995 208.744 137.735 208.744 138.695V142.535C208.744 142.875 208.584 143.045 208.264 143.045H208.144C207.824 143.045 207.664 142.875 207.664 142.535V138.785C207.664 138.095 207.509 137.565 207.199 137.195C206.899 136.825 206.454 136.64 205.864 136.64C205.434 136.64 205.034 136.77 204.664 137.03C204.304 137.28 204.039 137.625 203.869 138.065V142.535C203.869 142.875 203.709 143.045 203.389 143.045H203.269C202.949 143.045 202.789 142.875 202.789 142.535V138.695C202.789 138.035 202.634 137.53 202.324 137.18C202.024 136.82 201.579 136.64 200.989 136.64C200.569 136.64 200.174 136.77 199.804 137.03C199.444 137.28 199.169 137.625 198.979 138.065V142.535C198.979 142.875 198.824 143.045 198.514 143.045H198.379C198.059 143.045 197.899 142.875 197.899 142.535V135.905C197.899 135.885 197.939 135.86 198.019 135.83C198.109 135.8 198.199 135.785 198.289 135.785C198.709 135.785 198.929 136.08 198.949 136.67L198.964 137.03C199.204 136.62 199.519 136.295 199.909 136.055C200.309 135.805 200.749 135.68 201.229 135.68C201.819 135.68 202.314 135.82 202.714 136.1C203.124 136.38 203.419 136.77 203.599 137.27C203.829 136.79 204.159 136.405 204.589 136.115C205.019 135.825 205.519 135.68 206.089 135.68ZM210.495 142.415C210.205 142.165 210.06 141.925 210.06 141.695C210.06 141.585 210.09 141.49 210.15 141.41C210.22 141.33 210.295 141.27 210.375 141.23C210.455 141.18 210.505 141.16 210.525 141.17C210.765 141.51 211.09 141.785 211.5 141.995C211.91 142.195 212.395 142.295 212.955 142.295C213.515 142.295 213.95 142.19 214.26 141.98C214.58 141.76 214.74 141.47 214.74 141.11C214.74 140.84 214.66 140.63 214.5 140.48C214.35 140.33 214.145 140.215 213.885 140.135C213.635 140.045 213.255 139.945 212.745 139.835C212.255 139.735 211.84 139.625 211.5 139.505C211.16 139.375 210.87 139.18 210.63 138.92C210.39 138.65 210.27 138.29 210.27 137.84C210.27 137.2 210.515 136.68 211.005 136.28C211.505 135.88 212.165 135.68 212.985 135.68C213.525 135.68 213.995 135.755 214.395 135.905C214.795 136.055 215.105 136.25 215.325 136.49C215.405 136.57 215.47 136.665 215.52 136.775C215.57 136.875 215.595 136.97 215.595 137.06C215.595 137.17 215.56 137.27 215.49 137.36C215.43 137.44 215.355 137.505 215.265 137.555C215.185 137.595 215.14 137.61 215.13 137.6C214.93 137.29 214.64 137.035 214.26 136.835C213.88 136.635 213.46 136.535 213 136.535C212.46 136.535 212.035 136.645 211.725 136.865C211.425 137.085 211.275 137.37 211.275 137.72C211.275 137.97 211.35 138.17 211.5 138.32C211.65 138.46 211.85 138.575 212.1 138.665C212.35 138.745 212.72 138.84 213.21 138.95C213.74 139.07 214.175 139.195 214.515 139.325C214.865 139.445 215.165 139.64 215.415 139.91C215.665 140.18 215.79 140.54 215.79 140.99C215.79 141.65 215.53 142.18 215.01 142.58C214.5 142.97 213.81 143.165 212.94 143.165C212.39 143.165 211.91 143.095 211.5 142.955C211.09 142.815 210.755 142.635 210.495 142.415ZM216.829 139.46C216.829 138.74 216.979 138.095 217.279 137.525C217.589 136.945 218.009 136.495 218.539 136.175C219.079 135.845 219.689 135.68 220.369 135.68C221.029 135.68 221.604 135.83 222.094 136.13C222.594 136.42 222.979 136.83 223.249 137.36C223.519 137.89 223.654 138.505 223.654 139.205V139.31C223.654 139.44 223.624 139.53 223.564 139.58C223.514 139.63 223.419 139.655 223.279 139.655H217.864C217.864 139.745 217.869 139.815 217.879 139.865C217.949 140.585 218.219 141.165 218.689 141.605C219.169 142.045 219.769 142.265 220.489 142.265C221.099 142.265 221.584 142.145 221.944 141.905C222.314 141.665 222.604 141.345 222.814 140.945C222.844 140.935 222.909 140.95 223.009 140.99C223.119 141.02 223.214 141.08 223.294 141.17C223.384 141.26 223.429 141.375 223.429 141.515C223.429 141.635 223.379 141.775 223.279 141.935C223.189 142.095 223.049 142.25 222.859 142.4C222.609 142.62 222.279 142.805 221.869 142.955C221.459 143.095 220.994 143.165 220.474 143.165C219.754 143.165 219.119 143.01 218.569 142.7C218.019 142.39 217.589 141.955 217.279 141.395C216.979 140.825 216.829 140.18 216.829 139.46ZM222.589 138.875C222.559 138.175 222.344 137.615 221.944 137.195C221.544 136.765 221.019 136.55 220.369 136.55C219.719 136.55 219.169 136.765 218.719 137.195C218.269 137.625 217.994 138.185 217.894 138.875H222.589ZM225.671 143.045C225.351 143.045 225.191 142.875 225.191 142.535V132.89C225.191 132.87 225.231 132.845 225.311 132.815C225.391 132.785 225.481 132.77 225.581 132.77C226.041 132.77 226.271 133.09 226.271 133.73V142.535C226.271 142.875 226.111 143.045 225.791 143.045H225.671ZM228.911 136.76H227.906C227.736 136.76 227.616 136.725 227.546 136.655C227.476 136.585 227.441 136.48 227.441 136.34V136.25C227.441 136.11 227.476 136.01 227.546 135.95C227.616 135.88 227.736 135.845 227.906 135.845H228.911V135.125C228.911 134.305 229.091 133.685 229.451 133.265C229.811 132.845 230.326 132.635 230.996 132.635C231.536 132.635 231.941 132.755 232.211 132.995C232.371 133.125 232.451 133.295 232.451 133.505C232.451 133.605 232.431 133.695 232.391 133.775C232.351 133.845 232.306 133.9 232.256 133.94C232.216 133.98 232.191 133.995 232.181 133.985C232.071 133.865 231.916 133.765 231.716 133.685C231.516 133.595 231.311 133.55 231.101 133.55C230.711 133.55 230.421 133.685 230.231 133.955C230.041 134.215 229.946 134.635 229.946 135.215V135.845H231.326C231.646 135.845 231.806 135.98 231.806 136.25V136.34C231.806 136.62 231.646 136.76 231.326 136.76H229.976V142.535C229.976 142.875 229.821 143.045 229.511 143.045H229.391C229.071 143.045 228.911 142.875 228.911 142.535V136.76Z" fill="black"/>
<path d="M194.01 170.09C193.782 170.09 193.596 170.012 193.452 169.856C193.32 169.7 193.254 169.496 193.254 169.244V166.886H188.484C188.136 166.886 187.86 166.808 187.656 166.652C187.452 166.484 187.35 166.274 187.35 166.022V165.626C187.35 165.446 187.386 165.278 187.458 165.122C187.542 164.954 187.68 164.738 187.872 164.474L192.03 159.092C192.27 158.756 192.486 158.534 192.678 158.426C192.882 158.318 193.194 158.264 193.614 158.264C194.118 158.264 194.472 158.36 194.676 158.552C194.892 158.732 195 159.038 195 159.47V165.374H196.278C196.818 165.374 197.088 165.614 197.088 166.094V166.184C197.088 166.424 197.022 166.604 196.89 166.724C196.758 166.832 196.554 166.886 196.278 166.886H195V169.244C195 169.808 194.736 170.09 194.208 170.09H194.01ZM193.326 165.41V159.776L189.024 165.41H193.326ZM203.077 170.234C201.553 170.234 200.377 169.748 199.549 168.776C198.721 167.792 198.307 166.478 198.307 164.834V163.646C198.307 162.506 198.505 161.522 198.901 160.694C199.297 159.866 199.861 159.23 200.593 158.786C201.337 158.342 202.207 158.12 203.203 158.12C204.343 158.12 205.267 158.348 205.975 158.804C206.287 159.008 206.521 159.23 206.677 159.47C206.833 159.71 206.911 159.95 206.911 160.19C206.911 160.394 206.839 160.568 206.695 160.712C206.563 160.856 206.413 160.964 206.245 161.036C206.077 161.096 205.987 161.114 205.975 161.09C205.351 160.13 204.457 159.65 203.293 159.65C202.345 159.65 201.601 159.944 201.061 160.532C200.521 161.12 200.221 161.972 200.161 163.088C200.149 163.208 200.143 163.49 200.143 163.934C200.551 163.562 201.043 163.256 201.619 163.016C202.195 162.776 202.807 162.656 203.455 162.656C204.655 162.656 205.609 162.974 206.317 163.61C207.037 164.234 207.397 165.086 207.397 166.166V166.256C207.397 167.012 207.211 167.696 206.839 168.308C206.467 168.908 205.951 169.382 205.291 169.73C204.643 170.066 203.905 170.234 203.077 170.234ZM203.005 168.758C203.773 168.758 204.397 168.542 204.877 168.11C205.369 167.666 205.615 167.096 205.615 166.4V166.292C205.615 165.572 205.393 165.02 204.949 164.636C204.505 164.24 203.875 164.042 203.059 164.042C202.519 164.042 201.991 164.168 201.475 164.42C200.959 164.66 200.521 164.978 200.161 165.374L200.179 165.626C200.275 166.622 200.563 167.396 201.043 167.948C201.523 168.488 202.177 168.758 203.005 168.758ZM210.204 170.162C210.18 170.198 210.096 170.192 209.952 170.144C209.808 170.096 209.676 170.018 209.556 169.91C209.436 169.79 209.376 169.652 209.376 169.496C209.376 169.34 209.412 169.196 209.484 169.064C209.556 168.92 209.694 168.746 209.898 168.542L218.952 158.12C218.976 158.096 219.06 158.108 219.204 158.156C219.348 158.192 219.48 158.264 219.6 158.372C219.72 158.48 219.78 158.618 219.78 158.786C219.78 159.05 219.612 159.374 219.276 159.758L210.204 170.162ZM211.32 163.808C210.792 163.808 210.312 163.688 209.88 163.448C209.46 163.208 209.13 162.884 208.89 162.476C208.65 162.056 208.53 161.594 208.53 161.09V160.928C208.53 160.424 208.65 159.962 208.89 159.542C209.142 159.11 209.478 158.774 209.898 158.534C210.33 158.294 210.81 158.174 211.338 158.174C211.866 158.174 212.346 158.294 212.778 158.534C213.21 158.774 213.546 159.104 213.786 159.524C214.026 159.932 214.146 160.388 214.146 160.892V161.054C214.146 161.558 214.02 162.02 213.768 162.44C213.528 162.86 213.192 163.196 212.76 163.448C212.328 163.688 211.848 163.808 211.32 163.808ZM211.338 162.674C211.758 162.674 212.1 162.53 212.364 162.242C212.628 161.954 212.76 161.582 212.76 161.126V160.856C212.76 160.4 212.622 160.028 212.346 159.74C212.082 159.44 211.74 159.29 211.32 159.29C210.9 159.29 210.558 159.434 210.294 159.722C210.03 160.01 209.898 160.388 209.898 160.856V161.126C209.898 161.57 210.03 161.942 210.294 162.242C210.57 162.53 210.918 162.674 211.338 162.674ZM217.908 170.108C217.38 170.108 216.9 169.988 216.468 169.748C216.036 169.508 215.7 169.184 215.46 168.776C215.22 168.356 215.1 167.894 215.1 167.39V167.228C215.1 166.724 215.22 166.262 215.46 165.842C215.712 165.422 216.054 165.092 216.486 164.852C216.918 164.6 217.398 164.474 217.926 164.474C218.454 164.474 218.928 164.594 219.348 164.834C219.78 165.074 220.116 165.404 220.356 165.824C220.596 166.232 220.716 166.688 220.716 167.192V167.354C220.716 167.858 220.59 168.326 220.338 168.758C220.098 169.178 219.762 169.508 219.33 169.748C218.91 169.988 218.436 170.108 217.908 170.108ZM217.926 168.974C218.334 168.974 218.67 168.83 218.934 168.542C219.21 168.254 219.348 167.882 219.348 167.426V167.156C219.348 166.7 219.21 166.328 218.934 166.04C218.67 165.74 218.328 165.59 217.908 165.59C217.488 165.59 217.146 165.734 216.882 166.022C216.618 166.31 216.486 166.688 216.486 167.156V167.426C216.486 167.87 216.618 168.242 216.882 168.542C217.158 168.83 217.506 168.974 217.926 168.974Z" fill="black"/>
<path d="M319.928 127C319.738 127 319.588 126.945 319.478 126.835C319.368 126.715 319.313 126.555 319.313 126.355V117.76C319.313 117.42 319.473 117.25 319.793 117.25H319.943C320.273 117.25 320.438 117.42 320.438 117.76V125.965H324.788C325.138 125.965 325.313 126.125 325.313 126.445V126.505C325.313 126.835 325.138 127 324.788 127H319.928ZM326.633 117.595C326.633 117.375 326.693 117.205 326.813 117.085C326.933 116.965 327.103 116.905 327.323 116.905C327.543 116.905 327.713 116.965 327.833 117.085C327.953 117.205 328.013 117.375 328.013 117.595C328.013 117.815 327.948 117.985 327.818 118.105C327.698 118.215 327.528 118.27 327.308 118.27C327.098 118.27 326.933 118.215 326.813 118.105C326.693 117.985 326.633 117.815 326.633 117.595ZM326.768 120.31C326.768 119.96 326.928 119.785 327.248 119.785H327.368C327.688 119.785 327.848 119.96 327.848 120.31V126.535C327.848 126.875 327.688 127.045 327.368 127.045H327.248C326.928 127.045 326.768 126.875 326.768 126.535V120.31ZM329.737 126.415C329.447 126.165 329.302 125.925 329.302 125.695C329.302 125.585 329.332 125.49 329.392 125.41C329.462 125.33 329.537 125.27 329.617 125.23C329.697 125.18 329.747 125.16 329.767 125.17C330.007 125.51 330.332 125.785 330.742 125.995C331.152 126.195 331.637 126.295 332.197 126.295C332.757 126.295 333.192 126.19 333.502 125.98C333.822 125.76 333.982 125.47 333.982 125.11C333.982 124.84 333.902 124.63 333.742 124.48C333.592 124.33 333.387 124.215 333.127 124.135C332.877 124.045 332.497 123.945 331.987 123.835C331.497 123.735 331.082 123.625 330.742 123.505C330.402 123.375 330.112 123.18 329.872 122.92C329.632 122.65 329.512 122.29 329.512 121.84C329.512 121.2 329.757 120.68 330.247 120.28C330.747 119.88 331.407 119.68 332.227 119.68C332.767 119.68 333.237 119.755 333.637 119.905C334.037 120.055 334.347 120.25 334.567 120.49C334.647 120.57 334.712 120.665 334.762 120.775C334.812 120.875 334.837 120.97 334.837 121.06C334.837 121.17 334.802 121.27 334.732 121.36C334.672 121.44 334.597 121.505 334.507 121.555C334.427 121.595 334.382 121.61 334.372 121.6C334.172 121.29 333.882 121.035 333.502 120.835C333.122 120.635 332.702 120.535 332.242 120.535C331.702 120.535 331.277 120.645 330.967 120.865C330.667 121.085 330.517 121.37 330.517 121.72C330.517 121.97 330.592 122.17 330.742 122.32C330.892 122.46 331.092 122.575 331.342 122.665C331.592 122.745 331.962 122.84 332.452 122.95C332.982 123.07 333.417 123.195 333.757 123.325C334.107 123.445 334.407 123.64 334.657 123.91C334.907 124.18 335.032 124.54 335.032 124.99C335.032 125.65 334.772 126.18 334.252 126.58C333.742 126.97 333.052 127.165 332.182 127.165C331.632 127.165 331.152 127.095 330.742 126.955C330.332 126.815 329.997 126.635 329.737 126.415ZM338.923 127.165C338.263 127.165 337.768 126.98 337.438 126.61C337.118 126.24 336.958 125.675 336.958 124.915V120.76H336.253C335.943 120.76 335.788 120.625 335.788 120.355V120.25C335.788 119.98 335.943 119.845 336.253 119.845H336.958V118.585C336.958 118.235 337.118 118.06 337.438 118.06H337.558C337.868 118.06 338.023 118.235 338.023 118.585V119.845H339.838C340.148 119.845 340.303 119.98 340.303 120.25V120.34C340.303 120.62 340.143 120.76 339.823 120.76H338.008V124.75C338.008 125.28 338.093 125.665 338.263 125.905C338.433 126.135 338.703 126.25 339.073 126.25C339.533 126.25 339.888 126.065 340.138 125.695C340.158 125.685 340.193 125.7 340.243 125.74C340.293 125.77 340.338 125.825 340.378 125.905C340.418 125.985 340.438 126.08 340.438 126.19C340.438 126.39 340.348 126.575 340.168 126.745C339.868 127.025 339.453 127.165 338.923 127.165ZM341.184 123.46C341.184 122.74 341.334 122.095 341.634 121.525C341.944 120.945 342.364 120.495 342.894 120.175C343.434 119.845 344.044 119.68 344.724 119.68C345.384 119.68 345.959 119.83 346.449 120.13C346.949 120.42 347.334 120.83 347.604 121.36C347.874 121.89 348.009 122.505 348.009 123.205V123.31C348.009 123.44 347.979 123.53 347.919 123.58C347.869 123.63 347.774 123.655 347.634 123.655H342.219C342.219 123.745 342.224 123.815 342.234 123.865C342.304 124.585 342.574 125.165 343.044 125.605C343.524 126.045 344.124 126.265 344.844 126.265C345.454 126.265 345.939 126.145 346.299 125.905C346.669 125.665 346.959 125.345 347.169 124.945C347.199 124.935 347.264 124.95 347.364 124.99C347.474 125.02 347.569 125.08 347.649 125.17C347.739 125.26 347.784 125.375 347.784 125.515C347.784 125.635 347.734 125.775 347.634 125.935C347.544 126.095 347.404 126.25 347.214 126.4C346.964 126.62 346.634 126.805 346.224 126.955C345.814 127.095 345.349 127.165 344.829 127.165C344.109 127.165 343.474 127.01 342.924 126.7C342.374 126.39 341.944 125.955 341.634 125.395C341.334 124.825 341.184 124.18 341.184 123.46ZM346.944 122.875C346.914 122.175 346.699 121.615 346.299 121.195C345.899 120.765 345.374 120.55 344.724 120.55C344.074 120.55 343.524 120.765 343.074 121.195C342.624 121.625 342.349 122.185 342.249 122.875H346.944ZM352.981 119.68C353.881 119.68 354.561 119.96 355.021 120.52C355.491 121.08 355.726 121.835 355.726 122.785V126.535C355.726 126.875 355.571 127.045 355.261 127.045H355.126C354.806 127.045 354.646 126.875 354.646 126.535V122.875C354.646 122.175 354.481 121.63 354.151 121.24C353.831 120.84 353.371 120.64 352.771 120.64C352.261 120.64 351.811 120.77 351.421 121.03C351.041 121.29 350.751 121.64 350.551 122.08V126.535C350.551 126.875 350.396 127.045 350.086 127.045H349.951C349.631 127.045 349.471 126.875 349.471 126.535V119.905C349.471 119.885 349.511 119.86 349.591 119.83C349.681 119.8 349.771 119.785 349.861 119.785C350.281 119.785 350.501 120.085 350.521 120.685V121.105C350.771 120.665 351.106 120.32 351.526 120.07C351.946 119.81 352.431 119.68 352.981 119.68ZM362.331 127.165C361.671 127.165 361.176 126.98 360.846 126.61C360.526 126.24 360.366 125.675 360.366 124.915V120.76H359.661C359.351 120.76 359.196 120.625 359.196 120.355V120.25C359.196 119.98 359.351 119.845 359.661 119.845H360.366V118.585C360.366 118.235 360.526 118.06 360.846 118.06H360.966C361.276 118.06 361.431 118.235 361.431 118.585V119.845H363.246C363.556 119.845 363.711 119.98 363.711 120.25V120.34C363.711 120.62 363.551 120.76 363.231 120.76H361.416V124.75C361.416 125.28 361.501 125.665 361.671 125.905C361.841 126.135 362.111 126.25 362.481 126.25C362.941 126.25 363.296 126.065 363.546 125.695C363.566 125.685 363.601 125.7 363.651 125.74C363.701 125.77 363.746 125.825 363.786 125.905C363.826 125.985 363.846 126.08 363.846 126.19C363.846 126.39 363.756 126.575 363.576 126.745C363.276 127.025 362.861 127.165 362.331 127.165ZM364.593 123.415C364.593 122.695 364.748 122.055 365.058 121.495C365.368 120.925 365.798 120.48 366.348 120.16C366.898 119.84 367.528 119.68 368.238 119.68C368.938 119.68 369.558 119.84 370.098 120.16C370.648 120.48 371.078 120.93 371.388 121.51C371.698 122.08 371.853 122.725 371.853 123.445C371.853 124.155 371.698 124.795 371.388 125.365C371.078 125.925 370.648 126.365 370.098 126.685C369.548 127.005 368.923 127.165 368.223 127.165C367.523 127.165 366.893 127.005 366.333 126.685C365.783 126.365 365.353 125.92 365.043 125.35C364.743 124.78 364.593 124.135 364.593 123.415ZM370.803 123.445C370.803 122.905 370.693 122.42 370.473 121.99C370.253 121.55 369.948 121.21 369.558 120.97C369.168 120.72 368.728 120.595 368.238 120.595C367.748 120.595 367.303 120.715 366.903 120.955C366.513 121.195 366.203 121.53 365.973 121.96C365.753 122.39 365.643 122.875 365.643 123.415C365.643 123.955 365.753 124.44 365.973 124.87C366.203 125.3 366.513 125.64 366.903 125.89C367.303 126.13 367.748 126.25 368.238 126.25C368.728 126.25 369.168 126.13 369.558 125.89C369.948 125.65 370.253 125.32 370.473 124.9C370.693 124.47 370.803 123.985 370.803 123.445ZM378.078 127.165C377.418 127.165 376.923 126.98 376.593 126.61C376.273 126.24 376.113 125.675 376.113 124.915V120.76H375.408C375.098 120.76 374.943 120.625 374.943 120.355V120.25C374.943 119.98 375.098 119.845 375.408 119.845H376.113V118.585C376.113 118.235 376.273 118.06 376.593 118.06H376.713C377.023 118.06 377.178 118.235 377.178 118.585V119.845H378.993C379.303 119.845 379.458 119.98 379.458 120.25V120.34C379.458 120.62 379.298 120.76 378.978 120.76H377.163V124.75C377.163 125.28 377.248 125.665 377.418 125.905C377.588 126.135 377.858 126.25 378.228 126.25C378.688 126.25 379.043 126.065 379.293 125.695C379.313 125.685 379.348 125.7 379.398 125.74C379.448 125.77 379.493 125.825 379.533 125.905C379.573 125.985 379.593 126.08 379.593 126.19C379.593 126.39 379.503 126.575 379.323 126.745C379.023 127.025 378.608 127.165 378.078 127.165ZM384.285 119.68C385.185 119.68 385.87 119.965 386.34 120.535C386.81 121.095 387.045 121.85 387.045 122.8V126.535C387.045 126.875 386.89 127.045 386.58 127.045H386.445C386.125 127.045 385.965 126.875 385.965 126.535V122.875C385.965 122.175 385.8 121.63 385.47 121.24C385.14 120.85 384.675 120.655 384.075 120.655C383.435 120.655 382.91 120.86 382.5 121.27C382.09 121.67 381.88 122.2 381.87 122.86V126.535C381.87 126.875 381.715 127.045 381.405 127.045H381.27C380.95 127.045 380.79 126.875 380.79 126.535V116.89C380.79 116.87 380.83 116.845 380.91 116.815C380.99 116.785 381.08 116.77 381.18 116.77C381.64 116.77 381.87 117.09 381.87 117.73V121.15C382.1 120.69 382.42 120.33 382.83 120.07C383.25 119.81 383.735 119.68 384.285 119.68ZM388.455 123.46C388.455 122.74 388.605 122.095 388.905 121.525C389.215 120.945 389.635 120.495 390.165 120.175C390.705 119.845 391.315 119.68 391.995 119.68C392.655 119.68 393.23 119.83 393.72 120.13C394.22 120.42 394.605 120.83 394.875 121.36C395.145 121.89 395.28 122.505 395.28 123.205V123.31C395.28 123.44 395.25 123.53 395.19 123.58C395.14 123.63 395.045 123.655 394.905 123.655H389.49C389.49 123.745 389.495 123.815 389.505 123.865C389.575 124.585 389.845 125.165 390.315 125.605C390.795 126.045 391.395 126.265 392.115 126.265C392.725 126.265 393.21 126.145 393.57 125.905C393.94 125.665 394.23 125.345 394.44 124.945C394.47 124.935 394.535 124.95 394.635 124.99C394.745 125.02 394.84 125.08 394.92 125.17C395.01 125.26 395.055 125.375 395.055 125.515C395.055 125.635 395.005 125.775 394.905 125.935C394.815 126.095 394.675 126.25 394.485 126.4C394.235 126.62 393.905 126.805 393.495 126.955C393.085 127.095 392.62 127.165 392.1 127.165C391.38 127.165 390.745 127.01 390.195 126.7C389.645 126.39 389.215 125.955 388.905 125.395C388.605 124.825 388.455 124.18 388.455 123.46ZM394.215 122.875C394.185 122.175 393.97 121.615 393.57 121.195C393.17 120.765 392.645 120.55 391.995 120.55C391.345 120.55 390.795 120.765 390.345 121.195C389.895 121.625 389.62 122.185 389.52 122.875H394.215ZM337.969 139.46C337.969 138.74 338.119 138.095 338.419 137.525C338.729 136.945 339.149 136.495 339.679 136.175C340.219 135.845 340.829 135.68 341.509 135.68C342.169 135.68 342.744 135.83 343.234 136.13C343.734 136.42 344.119 136.83 344.389 137.36C344.659 137.89 344.794 138.505 344.794 139.205V139.31C344.794 139.44 344.764 139.53 344.704 139.58C344.654 139.63 344.559 139.655 344.419 139.655H339.004C339.004 139.745 339.009 139.815 339.019 139.865C339.089 140.585 339.359 141.165 339.829 141.605C340.309 142.045 340.909 142.265 341.629 142.265C342.239 142.265 342.724 142.145 343.084 141.905C343.454 141.665 343.744 141.345 343.954 140.945C343.984 140.935 344.049 140.95 344.149 140.99C344.259 141.02 344.354 141.08 344.434 141.17C344.524 141.26 344.569 141.375 344.569 141.515C344.569 141.635 344.519 141.775 344.419 141.935C344.329 142.095 344.189 142.25 343.999 142.4C343.749 142.62 343.419 142.805 343.009 142.955C342.599 143.095 342.134 143.165 341.614 143.165C340.894 143.165 340.259 143.01 339.709 142.7C339.159 142.39 338.729 141.955 338.419 141.395C338.119 140.825 337.969 140.18 337.969 139.46ZM343.729 138.875C343.699 138.175 343.484 137.615 343.084 137.195C342.684 136.765 342.159 136.55 341.509 136.55C340.859 136.55 340.309 136.765 339.859 137.195C339.409 137.625 339.134 138.185 339.034 138.875H343.729ZM346.811 143.045C346.491 143.045 346.331 142.875 346.331 142.535V132.89C346.331 132.87 346.371 132.845 346.451 132.815C346.531 132.785 346.621 132.77 346.721 132.77C347.181 132.77 347.411 133.09 347.411 133.73V142.535C347.411 142.875 347.251 143.045 346.931 143.045H346.811ZM352.255 143.165C351.625 143.165 351.06 143.01 350.56 142.7C350.06 142.38 349.665 141.94 349.375 141.38C349.095 140.81 348.955 140.155 348.955 139.415C348.955 138.685 349.095 138.04 349.375 137.48C349.665 136.91 350.06 136.47 350.56 136.16C351.07 135.84 351.645 135.68 352.285 135.68C352.885 135.68 353.41 135.81 353.86 136.07C354.31 136.33 354.645 136.66 354.865 137.06V132.89C354.865 132.86 354.9 132.835 354.97 132.815C355.05 132.785 355.14 132.77 355.24 132.77C355.71 132.77 355.945 133.09 355.945 133.73V142.535C355.945 142.875 355.785 143.045 355.465 143.045H355.36C355.05 143.045 354.895 142.885 354.895 142.565C354.885 142.365 354.88 142.055 354.88 141.635C354.61 142.115 354.255 142.49 353.815 142.76C353.385 143.03 352.865 143.165 352.255 143.165ZM354.865 138.305C354.665 137.765 354.36 137.345 353.95 137.045C353.55 136.745 353.055 136.595 352.465 136.595C351.745 136.595 351.16 136.855 350.71 137.375C350.26 137.895 350.035 138.575 350.035 139.415C350.035 139.965 350.135 140.455 350.335 140.885C350.545 141.315 350.835 141.65 351.205 141.89C351.575 142.13 351.99 142.25 352.45 142.25C352.89 142.25 353.295 142.15 353.665 141.95C354.035 141.74 354.325 141.46 354.535 141.11C354.755 140.75 354.865 140.35 354.865 139.91V138.305ZM357.422 139.46C357.422 138.74 357.572 138.095 357.872 137.525C358.182 136.945 358.602 136.495 359.132 136.175C359.672 135.845 360.282 135.68 360.962 135.68C361.622 135.68 362.197 135.83 362.687 136.13C363.187 136.42 363.572 136.83 363.842 137.36C364.112 137.89 364.247 138.505 364.247 139.205V139.31C364.247 139.44 364.217 139.53 364.157 139.58C364.107 139.63 364.012 139.655 363.872 139.655H358.457C358.457 139.745 358.462 139.815 358.472 139.865C358.542 140.585 358.812 141.165 359.282 141.605C359.762 142.045 360.362 142.265 361.082 142.265C361.692 142.265 362.177 142.145 362.537 141.905C362.907 141.665 363.197 141.345 363.407 140.945C363.437 140.935 363.502 140.95 363.602 140.99C363.712 141.02 363.807 141.08 363.887 141.17C363.977 141.26 364.022 141.375 364.022 141.515C364.022 141.635 363.972 141.775 363.872 141.935C363.782 142.095 363.642 142.25 363.452 142.4C363.202 142.62 362.872 142.805 362.462 142.955C362.052 143.095 361.587 143.165 361.067 143.165C360.347 143.165 359.712 143.01 359.162 142.7C358.612 142.39 358.182 141.955 357.872 141.395C357.572 140.825 357.422 140.18 357.422 139.46ZM363.182 138.875C363.152 138.175 362.937 137.615 362.537 137.195C362.137 136.765 361.612 136.55 360.962 136.55C360.312 136.55 359.762 136.765 359.312 137.195C358.862 137.625 358.587 138.185 358.487 138.875H363.182ZM368.619 135.68C368.939 135.68 369.194 135.755 369.384 135.905C369.584 136.045 369.684 136.23 369.684 136.46C369.684 136.59 369.659 136.7 369.609 136.79C369.569 136.88 369.519 136.95 369.459 137C369.399 137.04 369.364 137.055 369.354 137.045C369.154 136.845 368.869 136.745 368.499 136.745C367.929 136.745 367.499 137.005 367.209 137.525C366.929 138.045 366.789 138.77 366.789 139.7V142.535C366.789 142.875 366.634 143.045 366.324 143.045H366.204C365.874 143.045 365.709 142.875 365.709 142.535V135.905C365.709 135.885 365.749 135.86 365.829 135.83C365.909 135.8 365.999 135.785 366.099 135.785C366.469 135.785 366.679 136.025 366.729 136.505C366.749 136.845 366.759 137.105 366.759 137.285C366.899 136.755 367.129 136.355 367.449 136.085C367.769 135.815 368.159 135.68 368.619 135.68ZM370.716 142.415C370.426 142.165 370.281 141.925 370.281 141.695C370.281 141.585 370.311 141.49 370.371 141.41C370.441 141.33 370.516 141.27 370.596 141.23C370.676 141.18 370.726 141.16 370.746 141.17C370.986 141.51 371.311 141.785 371.721 141.995C372.131 142.195 372.616 142.295 373.176 142.295C373.736 142.295 374.171 142.19 374.481 141.98C374.801 141.76 374.961 141.47 374.961 141.11C374.961 140.84 374.881 140.63 374.721 140.48C374.571 140.33 374.366 140.215 374.106 140.135C373.856 140.045 373.476 139.945 372.966 139.835C372.476 139.735 372.061 139.625 371.721 139.505C371.381 139.375 371.091 139.18 370.851 138.92C370.611 138.65 370.491 138.29 370.491 137.84C370.491 137.2 370.736 136.68 371.226 136.28C371.726 135.88 372.386 135.68 373.206 135.68C373.746 135.68 374.216 135.755 374.616 135.905C375.016 136.055 375.326 136.25 375.546 136.49C375.626 136.57 375.691 136.665 375.741 136.775C375.791 136.875 375.816 136.97 375.816 137.06C375.816 137.17 375.781 137.27 375.711 137.36C375.651 137.44 375.576 137.505 375.486 137.555C375.406 137.595 375.361 137.61 375.351 137.6C375.151 137.29 374.861 137.035 374.481 136.835C374.101 136.635 373.681 136.535 373.221 136.535C372.681 136.535 372.256 136.645 371.946 136.865C371.646 137.085 371.496 137.37 371.496 137.72C371.496 137.97 371.571 138.17 371.721 138.32C371.871 138.46 372.071 138.575 372.321 138.665C372.571 138.745 372.941 138.84 373.431 138.95C373.961 139.07 374.396 139.195 374.736 139.325C375.086 139.445 375.386 139.64 375.636 139.91C375.886 140.18 376.011 140.54 376.011 140.99C376.011 141.65 375.751 142.18 375.231 142.58C374.721 142.97 374.031 143.165 373.161 143.165C372.611 143.165 372.131 143.095 371.721 142.955C371.311 142.815 370.976 142.635 370.716 142.415Z" fill="black"/>
<path d="M350.165 170.234C349.565 170.234 349.007 170.162 348.491 170.018C347.975 169.886 347.525 169.7 347.141 169.46C346.781 169.232 346.499 168.98 346.295 168.704C346.103 168.428 346.007 168.17 346.007 167.93C346.007 167.738 346.073 167.57 346.205 167.426C346.337 167.27 346.475 167.156 346.619 167.084C346.775 167 346.865 166.976 346.889 167.012C347.225 167.552 347.669 167.978 348.221 168.29C348.785 168.59 349.433 168.74 350.165 168.74C351.017 168.74 351.695 168.536 352.199 168.128C352.703 167.708 352.955 167.144 352.955 166.436C352.955 165.728 352.721 165.176 352.253 164.78C351.797 164.384 351.155 164.186 350.327 164.186C349.223 164.186 348.317 164.45 347.609 164.978C346.853 164.93 346.475 164.546 346.475 163.826V159.398C346.475 159.086 346.559 158.834 346.727 158.642C346.895 158.45 347.129 158.354 347.429 158.354H353.279C353.855 158.354 354.143 158.606 354.143 159.11V159.2C354.143 159.692 353.855 159.938 353.279 159.938H348.113V163.268C348.893 162.92 349.691 162.746 350.507 162.746C351.767 162.746 352.775 163.082 353.531 163.754C354.299 164.414 354.683 165.302 354.683 166.418C354.683 167.186 354.497 167.858 354.125 168.434C353.765 169.01 353.243 169.454 352.559 169.766C351.887 170.078 351.089 170.234 350.165 170.234ZM357.421 170.162C357.397 170.198 357.313 170.192 357.169 170.144C357.025 170.096 356.893 170.018 356.773 169.91C356.653 169.79 356.593 169.652 356.593 169.496C356.593 169.34 356.629 169.196 356.701 169.064C356.773 168.92 356.911 168.746 357.115 168.542L366.169 158.12C366.193 158.096 366.277 158.108 366.421 158.156C366.565 158.192 366.697 158.264 366.817 158.372C366.937 158.48 366.997 158.618 366.997 158.786C366.997 159.05 366.829 159.374 366.493 159.758L357.421 170.162ZM358.537 163.808C358.009 163.808 357.529 163.688 357.097 163.448C356.677 163.208 356.347 162.884 356.107 162.476C355.867 162.056 355.747 161.594 355.747 161.09V160.928C355.747 160.424 355.867 159.962 356.107 159.542C356.359 159.11 356.695 158.774 357.115 158.534C357.547 158.294 358.027 158.174 358.555 158.174C359.083 158.174 359.563 158.294 359.995 158.534C360.427 158.774 360.763 159.104 361.003 159.524C361.243 159.932 361.363 160.388 361.363 160.892V161.054C361.363 161.558 361.237 162.02 360.985 162.44C360.745 162.86 360.409 163.196 359.977 163.448C359.545 163.688 359.065 163.808 358.537 163.808ZM358.555 162.674C358.975 162.674 359.317 162.53 359.581 162.242C359.845 161.954 359.977 161.582 359.977 161.126V160.856C359.977 160.4 359.839 160.028 359.563 159.74C359.299 159.44 358.957 159.29 358.537 159.29C358.117 159.29 357.775 159.434 357.511 159.722C357.247 160.01 357.115 160.388 357.115 160.856V161.126C357.115 161.57 357.247 161.942 357.511 162.242C357.787 162.53 358.135 162.674 358.555 162.674ZM365.125 170.108C364.597 170.108 364.117 169.988 363.685 169.748C363.253 169.508 362.917 169.184 362.677 168.776C362.437 168.356 362.317 167.894 362.317 167.39V167.228C362.317 166.724 362.437 166.262 362.677 165.842C362.929 165.422 363.271 165.092 363.703 164.852C364.135 164.6 364.615 164.474 365.143 164.474C365.671 164.474 366.145 164.594 366.565 164.834C366.997 165.074 367.333 165.404 367.573 165.824C367.813 166.232 367.933 166.688 367.933 167.192V167.354C367.933 167.858 367.807 168.326 367.555 168.758C367.315 169.178 366.979 169.508 366.547 169.748C366.127 169.988 365.653 170.108 365.125 170.108ZM365.143 168.974C365.551 168.974 365.887 168.83 366.151 168.542C366.427 168.254 366.565 167.882 366.565 167.426V167.156C366.565 166.7 366.427 166.328 366.151 166.04C365.887 165.74 365.545 165.59 365.125 165.59C364.705 165.59 364.363 165.734 364.099 166.022C363.835 166.31 363.703 166.688 363.703 167.156V167.426C363.703 167.87 363.835 168.242 364.099 168.542C364.375 168.83 364.723 168.974 365.143 168.974Z" fill="black"/>
</svg>
