<svg preserveAspectRatio="none" overflow="visible" style="display: block;" width="16.5" height="18.1667" viewBox="0 0 16.5 18.1667" fill="none" xmlns="http://www.w3.org/2000/svg">
<path id="Vector" d="M6.58333 8.25V13.25M9.91667 8.25V13.25M14.0833 4.08333V15.75C14.0833 16.192 13.9077 16.6159 13.5952 16.9285C13.2826 17.2411 12.8587 17.4167 12.4167 17.4167H4.08333C3.64131 17.4167 3.21738 17.2411 2.90482 16.9285C2.59226 16.6159 2.41667 16.192 2.41667 15.75V4.08333M0.75 4.08333H15.75M4.91667 4.08333V2.41667C4.91667 1.97464 5.09226 1.55072 5.40482 1.23816C5.71738 0.925595 6.14131 0.75 6.58333 0.75H9.91667C10.3587 0.75 10.7826 0.925595 11.0952 1.23816C11.4077 1.55072 11.5833 1.97464 11.5833 2.41667V4.08333" stroke="#E22F03" stroke-width="1.5" stroke-linecap="round" stroke-linejoin="round"/>
</svg>
