<svg width="200" height="200" viewBox="0 0 200 200" fill="none" xmlns="http://www.w3.org/2000/svg">
<path d="M100 138C114.469 138 125.892 147.88 129.7 160.8H160.923V115.2H168.538C176.915 115.2 183.769 108.36 183.769 100C183.769 91.64 176.915 84.8 168.538 84.8H160.923V39.2H129.7C126.654 52.12 114.469 62 100 62C85.5308 62 74.1077 52.12 70.3 39.2H39.0769V84.8H31.4615C23.0846 84.8 16.2308 91.64 16.2308 100C16.2308 108.36 23.0846 115.2 31.4615 115.2H39.0769V160.8H70.3C74.1077 147.88 85.5308 138 100 138ZM176.154 160.8C176.154 169.16 169.3 176 160.923 176H115.231V168.4C115.231 160.04 108.377 153.2 100 153.2C91.6231 153.2 84.7692 160.04 84.7692 168.4V176H39.0769C30.7 176 23.8462 169.16 23.8462 160.8V129.64C10.9 126.6 1 114.44 1 100C1 85.56 10.9 74.16 23.8462 70.36V39.2C23.8462 30.84 30.7 24 39.0769 24H84.7692V31.6C84.7692 39.96 91.6231 46.8 100 46.8C108.377 46.8 115.231 39.96 115.231 31.6V24H160.923C169.3 24 176.154 30.84 176.154 39.2V70.36C189.1 73.4 199 85.56 199 100C199 114.44 189.1 125.84 176.154 129.64V160.8Z" fill="black"/>
<path d="M61.6667 92H77C81.6 92 84.6667 95.2 84.6667 100C84.6667 104.8 81.6 108 77 108H61.6667C57.0667 108 54 104.8 54 100C54 95.2 57.0667 92 61.6667 92ZM123 92H138.333C142.933 92 146 95.2 146 100C146 104.8 142.933 108 138.333 108H123C118.4 108 115.333 104.8 115.333 100C115.333 95.2 118.4 92 123 92Z" fill="#0061FE"/>
</svg>
