<svg width="200" height="200" viewBox="0 0 200 200" fill="none" xmlns="http://www.w3.org/2000/svg">
<path d="M14.1547 20.8584C21.0724 13.2836 30.9556 9.05701 42.6096 9.05701H157.395C166.568 9.05701 173.956 11.5105 179.732 15.5764C185.428 19.5941 189.092 24.844 191.418 29.7831C193.373 33.9875 194.724 38.4499 195.429 43.0362C195.743 45.045 195.93 47.07 195.994 49.1002V49.3038V183.147C195.994 185.751 194.703 188.183 192.533 189.661C191.461 190.388 190.232 190.848 188.948 191C187.664 191.153 186.362 190.995 185.151 190.54L116.582 164.666L47.9966 190.535C46.7849 190.991 45.4819 191.149 44.1968 190.996C42.9117 190.844 41.6816 190.384 40.6095 189.656C39.5464 188.937 38.6749 187.967 38.0715 186.832C37.468 185.696 37.1509 184.429 37.148 183.142V89.556H11.9946C7.57834 89.556 3.99414 86.0097 3.99414 81.6384V49.3038C3.99414 38.4292 7.33833 28.3313 14.1547 20.8584ZM37.1533 73.7315V49.3092H53.1542V171.662L113.723 148.804C115.558 148.107 117.59 148.107 119.43 148.804L179.999 171.657V49.1967L179.956 48.4467C179.885 47.4511 179.771 46.4592 179.615 45.4736C179.143 42.3672 178.238 39.3429 176.926 36.49C175.433 33.3508 173.353 30.517 170.446 28.4706C167.614 26.4725 163.512 24.8814 157.389 24.8814H42.6043C35.0519 24.8814 29.6329 27.5171 26.0434 31.4491C22.3525 35.5043 19.995 41.5737 19.995 49.3092V73.7369H37.1533V73.7315ZM45.1538 41.3916C47.2765 41.3916 49.314 42.2219 50.8074 43.7058C52.3115 45.195 53.1542 47.2039 53.1542 49.3038H37.1533C37.1533 44.9325 40.7375 41.3916 45.1538 41.3916Z" fill="black"/>
<path d="M81.0123 74.0571C76.5839 74.0571 72.9995 77.5864 72.9995 81.9432H73.0048C73.0048 86.3054 76.5946 89.8293 81.0177 89.8293H149.981C154.41 89.8293 157.994 86.3001 157.994 81.9432C157.994 77.5864 154.41 74.0571 149.981 74.0571H81.0123Z" fill="#0061FE"/>
<path d="M81.0123 106.285C76.5839 106.285 72.9995 109.814 72.9995 114.171H72.9941C72.9941 118.528 76.5839 122.057 81.007 122.057H111.669C116.092 122.057 119.682 118.528 119.682 114.171C119.682 109.814 116.092 106.285 111.669 106.285H81.0123Z" fill="#0061FE"/>
</svg>
