<svg width="200" height="200" viewBox="0 0 200 200" fill="none" xmlns="http://www.w3.org/2000/svg">
<path d="M100 200C85.4748 200 63.4031 198.942 44.9878 195.967C34.1523 194.217 25.4623 191.942 19.168 189.217C12.2477 186.217 4 180.7 4 171.467C4 164 7.99861 150.883 19.2515 138.525C27.8497 129.075 43.552 117.108 70.1231 112.317C56.7165 102 42.9343 83.75 42.9343 52.35C42.9028 45.3956 44.3178 38.5103 47.0896 32.1299C49.8614 25.7496 53.9298 20.013 59.0372 15.2833C69.5889 5.43333 84.1391 0 100 0C115.861 0 130.411 5.43333 140.963 15.2833C146.07 20.013 150.139 25.7496 152.91 32.1299C155.682 38.5103 157.097 45.3956 157.066 52.35C157.066 66.9333 153.852 80.0333 147.533 91.3C142.957 99.4457 136.778 106.583 129.368 112.283C156.164 117.242 171.975 129.183 180.623 138.558C185.488 143.79 189.453 149.787 192.36 156.308C194.706 161.7 196 167.083 196 171.475C196 180.7 187.752 186.217 180.832 189.217C174.538 191.95 165.848 194.217 155.004 195.967C136.605 198.942 114.525 200 100 200ZM22.9162 170.9C24.0014 171.95 29.7113 176.225 52.743 179.442C69.088 181.725 87.8706 182.533 100 182.533C112.129 182.533 130.92 181.725 147.265 179.442C170.297 176.225 175.999 171.95 177.084 170.9C176.833 166.717 173.845 158.15 166.232 149.883C159.203 142.258 145.846 132.408 122.18 128.817C114.233 127.608 110.042 118.775 108.941 114.275C107.071 106.633 111.328 102.942 113.24 101.708C124.609 94.3917 138.166 79.8917 138.166 52.35C138.166 42.775 134.385 33.975 127.531 27.5667C120.552 21.05 110.777 17.4667 100 17.4667C89.2313 17.4667 79.4477 21.05 72.4689 27.5667C69.0781 30.7399 66.3837 34.5808 64.556 38.8467C62.7283 43.1125 61.807 47.7105 61.8504 52.35C61.8504 74.7667 69.9896 91.325 86.0508 101.583C88.0543 102.858 92.487 106.717 90.4668 114.85C90.1412 116.142 87.0525 127.492 77.5527 128.85C54.0118 132.208 40.7221 142.075 33.7266 149.767C26.1468 158.083 23.1833 166.7 22.9245 170.9H22.9162Z" fill="black"/>
<path d="M100.5 163L88 154.967L96.0917 125.903L93.0333 121.608L93.2667 117.206C99.1167 116.931 100.825 116.931 106.667 117.206L106.908 121.608L103.842 125.903L113 154.976L100.5 163Z" fill="#0061FE"/>
</svg>
