<svg width="234" height="40" viewBox="0 0 234 40" fill="none" xmlns="http://www.w3.org/2000/svg">
<ellipse cx="23.3069" cy="19.5693" rx="11.6025" ry="12.487" fill="white"/>
<ellipse cx="21.4969" cy="19.289" rx="9.79254" ry="18.5413" fill="white"/>
<path d="M15.3892 19.3829C15.3892 15.1315 18.8356 11.6851 23.0869 11.6851H23.5289C27.7803 11.6851 31.2267 15.1315 31.2267 19.3829C31.2267 21.5558 29.4652 23.3172 27.2923 23.3172H19.3236C17.1507 23.3172 15.3892 21.5558 15.3892 19.3829Z" fill="#1B66FF"/>
<ellipse cx="19.6816" cy="17.6914" rx="1.4311" ry="2.00225" fill="white"/>
<ellipse cx="27.1227" cy="17.6914" rx="1.4311" ry="2.00225" fill="white"/>
<path d="M33.1631 0C33.4632 8.52894e-06 33.7632 0.0235384 34.0576 0.0820312C35.0599 0.281316 36.605 0.677856 37.4912 1.20215L37.6494 1.33398C37.691 1.36319 37.7292 1.38445 37.7637 1.39844C41.6863 4.44247 44.617 8.70327 45.9873 13.6143C46.1044 14.2826 45.1746 14.3182 44.8623 14.3438C44.093 14.368 43.0491 14.3946 41.9326 14.415H36.6602C36.2243 14.3987 35.8665 14.3756 35.6201 14.3438C34.1684 14.1561 33.2453 13.1947 32.915 12.7256L32.9141 12.7275C31.045 9.82549 27.9287 7.8164 24.3281 7.47559V6.18555C24.328 5.67344 23.9125 5.25879 23.4004 5.25879C22.8883 5.25888 22.4728 5.67349 22.4727 6.18555V7.4502C16.4587 7.84644 11.7022 12.8849 11.7021 19.0449C11.7025 24.989 16.1317 29.888 21.8457 30.5801C21.5894 31.692 20.5553 33.9191 17.8887 36.0303C21.2781 36.1404 30.8436 29.031 33.498 25.1348V25.1406C33.8213 24.653 34.8241 23.6296 36.2461 23.4346C37.6687 23.2396 42.872 23.3533 45.2959 23.4346C45.6731 23.4076 46.4268 23.5321 46.4268 24.2471C46.4268 24.2856 46.4279 24.3184 46.4297 24.3447C45.2769 30.3801 41.8078 35.5936 36.9834 39.0283C36.8745 39.0885 36.7576 39.1423 36.6367 39.1953C36.117 39.3876 35.5435 39.5513 35.0176 39.6797C34.3356 39.8166 33.6825 39.8863 33.25 39.9062C27.9956 39.8985 16.8584 39.8877 14.3428 39.9062C13.0906 39.9155 11.904 39.6519 10.9277 39.3193C10.0871 39.0008 9.36031 38.6302 8.94043 38.3789L8.93848 38.3838C3.88527 34.4266 0.496445 28.4437 0 21.6572L3.39941 20.0029C3.83973 19.7885 3.82346 19.155 3.37305 18.9629L0.0556641 17.5488C0.707753 11.0732 3.99784 5.37543 8.83496 1.54395C9.38664 1.21848 10.4159 0.709065 11.5391 0.365234C12.1306 0.199107 12.7791 0.0679412 13.459 0.00683594C13.5269 0.00402024 13.5942 5.1924e-06 13.6611 0H33.1631ZM23.4023 1.69043C22.6538 1.69043 22.047 2.29694 22.0469 3.04492C22.0472 3.79277 22.6539 4.39941 23.4023 4.39941C24.1507 4.39932 24.7575 3.79271 24.7578 3.04492C24.7576 2.297 24.1508 1.69053 23.4023 1.69043Z" fill="#0061FE"/>
<rect x="6.92896" y="16.0992" width="2.57307" height="5.14283" rx="1.28654" fill="white"/>
<rect x="36.5513" y="16.0992" width="2.57307" height="5.14283" rx="1.28654" fill="#0061FE"/>
<path d="M16.2712 40.0033L33.2446 39.9068L26.3682 38.1238L16.2712 40.0033Z" fill="#0061FE"/>
<path d="M45.9872 13.6373C35.0417 7.05774 26.815 7.45808 24.7576 7.45808C28.8517 8.09865 32.0497 11.4582 33.54 13.4081C34.9591 15.265 46.6644 15.2335 45.9872 13.6373Z" fill="#0200FC"/>
<path d="M20.093 39.9782C24.7016 38.6623 28.5788 32.0759 29.9229 28.9507C21.3641 35.8591 11.9058 38.995 9.40942 38.6386C12.3145 40.5596 17.8671 39.8282 20.093 39.9782Z" fill="#0200FC"/>
<path d="M68.5277 17.5486H65.4169C65.3601 17.1461 65.2441 16.7886 65.0689 16.4761C64.8937 16.1589 64.6688 15.889 64.3942 15.6665C64.1196 15.4439 63.8023 15.2735 63.4425 15.1551C63.0874 15.0367 62.7015 14.9775 62.2848 14.9775C61.532 14.9775 60.8762 15.1646 60.3175 15.5386C59.7588 15.9079 59.3255 16.4477 59.0178 17.1579C58.71 17.8634 58.5561 18.7204 58.5561 19.729C58.5561 20.7659 58.71 21.6371 59.0178 22.3426C59.3303 23.0481 59.7659 23.5808 60.3246 23.9406C60.8833 24.3004 61.5296 24.4804 62.2635 24.4804C62.6754 24.4804 63.0566 24.4259 63.407 24.317C63.7621 24.2081 64.0769 24.0495 64.3516 23.8412C64.6262 23.6281 64.8535 23.37 65.0334 23.067C65.218 22.764 65.3459 22.4183 65.4169 22.0301L68.5277 22.0443C68.4472 22.7119 68.246 23.3558 67.924 23.9761C67.6068 24.5916 67.1783 25.1433 66.6385 25.6309C66.1035 26.1139 65.4643 26.4974 64.7209 26.7815C63.9822 27.0609 63.1465 27.2005 62.2138 27.2005C60.9164 27.2005 59.7564 26.907 58.7337 26.3199C57.7157 25.7327 56.9107 24.8828 56.3189 23.7701C55.7318 22.6575 55.4382 21.3104 55.4382 19.729C55.4382 18.1428 55.7365 16.7933 56.3331 15.6807C56.9297 14.568 57.7393 13.7204 58.7621 13.138C59.7848 12.5509 60.9354 12.2574 62.2138 12.2574C63.0566 12.2574 63.8378 12.3757 64.5575 12.6125C65.282 12.8492 65.9235 13.1949 66.4822 13.6494C67.041 14.0992 67.4955 14.6508 67.8459 15.3042C68.201 15.9576 68.4283 16.7058 68.5277 17.5486ZM71.0761 27.0017V16.0926H74.0094V17.996H74.123C74.3219 17.3189 74.6557 16.8075 75.1244 16.4619C75.5932 16.1115 76.133 15.9363 76.7437 15.9363C76.8953 15.9363 77.0586 15.9458 77.2338 15.9647C77.409 15.9837 77.5629 16.0097 77.6955 16.0429V18.7275C77.5534 18.6849 77.3569 18.647 77.106 18.6139C76.855 18.5808 76.6254 18.5642 76.417 18.5642C75.972 18.5642 75.5742 18.6612 75.2239 18.8554C74.8782 19.0448 74.6036 19.3099 74.4 19.6508C74.2011 19.9917 74.1017 20.3847 74.1017 20.8298V27.0017H71.0761ZM82.458 27.2076C81.762 27.2076 81.1417 27.0869 80.5972 26.8454C80.0527 26.5992 79.6219 26.237 79.3046 25.7588C78.9921 25.2758 78.8359 24.6745 78.8359 23.9548C78.8359 23.3487 78.9471 22.8397 79.1697 22.4278C79.3922 22.0159 79.6952 21.6844 80.0788 21.4335C80.4623 21.1825 80.8979 20.9932 81.3856 20.8653C81.878 20.7375 82.3941 20.6475 82.9339 20.5954C83.5683 20.5291 84.0797 20.4676 84.468 20.4108C84.8562 20.3492 85.1379 20.2593 85.3131 20.1409C85.4883 20.0225 85.5759 19.8473 85.5759 19.6153V19.5727C85.5759 19.1229 85.4339 18.7749 85.1498 18.5287C84.8704 18.2825 84.4727 18.1593 83.9566 18.1593C83.4121 18.1593 82.9789 18.2801 82.6569 18.5216C82.3349 18.7583 82.1219 19.0566 82.0177 19.4165L79.2194 19.1892C79.3614 18.5263 79.6408 17.9534 80.0575 17.4704C80.4741 16.9827 81.0115 16.6087 81.6697 16.3483C82.3326 16.0831 83.0996 15.9505 83.9708 15.9505C84.5769 15.9505 85.1569 16.0216 85.7109 16.1636C86.2696 16.3057 86.7644 16.5258 87.1952 16.8241C87.6308 17.1224 87.9741 17.5059 88.2251 17.9747C88.476 18.4387 88.6015 18.995 88.6015 19.6437V27.0017H85.7322V25.4889H85.6469C85.4718 25.8298 85.2374 26.1305 84.9438 26.3909C84.6503 26.6466 84.2975 26.8478 83.8856 26.9946C83.4737 27.1366 82.9978 27.2076 82.458 27.2076ZM83.3245 25.1196C83.7696 25.1196 84.1626 25.032 84.5035 24.8568C84.8444 24.6769 85.1119 24.4354 85.306 24.1324C85.5002 23.8293 85.5972 23.4861 85.5972 23.1025V21.9449C85.5025 22.0064 85.3723 22.0632 85.2066 22.1153C85.0456 22.1627 84.8633 22.2076 84.6597 22.2503C84.4561 22.2881 84.2525 22.3236 84.0489 22.3568C83.8453 22.3852 83.6607 22.4112 83.495 22.4349C83.1398 22.487 82.8297 22.5699 82.5646 22.6835C82.2994 22.7971 82.0934 22.951 81.9467 23.1451C81.7999 23.3345 81.7265 23.5713 81.7265 23.8554C81.7265 24.2673 81.8756 24.5822 82.1739 24.8C82.477 25.013 82.8605 25.1196 83.3245 25.1196ZM96.2778 27.2147C95.1603 27.2147 94.1992 26.978 93.3942 26.5045C92.5941 26.0263 91.9785 25.3634 91.5477 24.5159C91.1215 23.6683 90.9085 22.693 90.9085 21.5897C90.9085 20.4723 91.1239 19.4922 91.5548 18.6494C91.9904 17.8019 92.6083 17.1414 93.4085 16.6679C94.2086 16.1897 95.1603 15.9505 96.2636 15.9505C97.2153 15.9505 98.0486 16.1234 98.7636 16.469C99.4785 16.8147 100.044 17.3 100.461 17.925C100.878 18.55 101.107 19.2839 101.15 20.1267H98.2948C98.2143 19.5822 98.0013 19.1442 97.6556 18.8128C97.3147 18.4766 96.8673 18.3085 96.3133 18.3085C95.8445 18.3085 95.435 18.4363 95.0846 18.692C94.7389 18.943 94.4691 19.3099 94.2749 19.7929C94.0808 20.2758 93.9837 20.8606 93.9837 21.5471C93.9837 22.2432 94.0784 22.835 94.2678 23.3227C94.462 23.8104 94.7342 24.1821 95.0846 24.4378C95.435 24.6934 95.8445 24.8213 96.3133 24.8213C96.6589 24.8213 96.9691 24.7503 97.2437 24.6082C97.523 24.4662 97.7527 24.2602 97.9326 23.9903C98.1173 23.7157 98.238 23.3866 98.2948 23.0031H101.15C101.103 23.8364 100.875 24.5703 100.468 25.2048C100.066 25.8345 99.5093 26.327 98.7991 26.6821C98.0889 27.0372 97.2484 27.2147 96.2778 27.2147ZM106.229 23.8625L106.236 20.2332H106.676L110.17 16.0926H113.643L108.949 21.5755H108.231L106.229 23.8625ZM103.487 27.0017V12.4562H106.513V27.0017H103.487ZM110.305 27.0017L107.095 22.2503L109.112 20.1125L113.849 27.0017H110.305ZM118.66 12.4562V27.0017H115.585V12.4562H118.66ZM124.559 20.6949V27.0017H121.533V16.0926H124.417V18.0173H124.545C124.786 17.3828 125.191 16.8809 125.759 16.5116C126.327 16.1376 127.016 15.9505 127.826 15.9505C128.583 15.9505 129.244 16.1163 129.807 16.4477C130.371 16.7791 130.809 17.2526 131.121 17.8682C131.434 18.479 131.59 19.2081 131.59 20.0557V27.0017H128.564V20.5954C128.569 19.9278 128.399 19.407 128.053 19.0329C127.707 18.6541 127.232 18.4647 126.625 18.4647C126.218 18.4647 125.858 18.5523 125.546 18.7275C125.238 18.9027 124.997 19.1584 124.822 19.4946C124.651 19.826 124.563 20.2261 124.559 20.6949ZM140.177 16.0926V18.3653H133.608V16.0926H140.177ZM135.099 13.479H138.125V23.6494C138.125 23.9288 138.167 24.1466 138.252 24.3028C138.338 24.4543 138.456 24.5609 138.608 24.6224C138.764 24.684 138.944 24.7147 139.147 24.7147C139.289 24.7147 139.431 24.7029 139.573 24.6792C139.715 24.6508 139.824 24.6295 139.9 24.6153L140.376 26.8667C140.224 26.9141 140.011 26.9685 139.737 27.0301C139.462 27.0964 139.128 27.1366 138.735 27.1508C138.006 27.1792 137.367 27.0822 136.818 26.8596C136.273 26.6371 135.849 26.2915 135.546 25.8227C135.243 25.354 135.094 24.7621 135.099 24.0471V13.479ZM147.402 27.2147C146.28 27.2147 145.314 26.9875 144.505 26.5329C143.7 26.0736 143.079 25.425 142.644 24.5869C142.208 23.7441 141.99 22.7474 141.99 21.5968C141.99 20.4747 142.208 19.4898 142.644 18.6423C143.079 17.7948 143.693 17.1343 144.483 16.6608C145.279 16.1873 146.212 15.9505 147.282 15.9505C148.001 15.9505 148.671 16.0665 149.292 16.2986C149.917 16.5258 150.461 16.8691 150.925 17.3284C151.394 17.7877 151.758 18.3653 152.019 19.0613C152.279 19.7526 152.41 20.5623 152.41 21.4903V22.3213H143.198V20.4463H149.562C149.562 20.0107 149.467 19.6248 149.277 19.2886C149.088 18.9524 148.825 18.6897 148.489 18.5003C148.158 18.3061 147.772 18.2091 147.331 18.2091C146.872 18.2091 146.465 18.3156 146.11 18.5287C145.759 18.737 145.485 19.0187 145.286 19.3738C145.087 19.7242 144.985 20.1148 144.981 20.5457V22.3284C144.981 22.8682 145.08 23.3345 145.279 23.7275C145.482 24.1205 145.769 24.4236 146.138 24.6366C146.508 24.8497 146.945 24.9562 147.452 24.9562C147.788 24.9562 148.096 24.9089 148.375 24.8142C148.655 24.7195 148.894 24.5774 149.093 24.388C149.292 24.1986 149.443 23.9666 149.547 23.692L152.346 23.8767C152.204 24.549 151.912 25.1361 151.472 25.638C151.036 26.1352 150.473 26.5235 149.782 26.8028C149.095 27.0774 148.302 27.2147 147.402 27.2147ZM154.784 27.0017V16.0926H157.717V17.996H157.831C158.03 17.3189 158.363 16.8075 158.832 16.4619C159.301 16.1115 159.841 15.9363 160.452 15.9363C160.603 15.9363 160.766 15.9458 160.942 15.9647C161.117 15.9837 161.271 16.0097 161.403 16.0429V18.7275C161.261 18.6849 161.065 18.647 160.814 18.6139C160.563 18.5808 160.333 18.5642 160.125 18.5642C159.68 18.5642 159.282 18.6612 158.932 18.8554C158.586 19.0448 158.311 19.3099 158.108 19.6508C157.909 19.9917 157.81 20.3847 157.81 20.8298V27.0017H154.784ZM173.87 16.0926L170.056 27.0017H166.647L162.833 16.0926H166.029L168.295 23.898H168.408L170.667 16.0926H173.87ZM175.818 27.0017V16.0926H178.844V27.0017H175.818ZM177.338 14.6863C176.888 14.6863 176.503 14.5372 176.181 14.2389C175.863 13.9359 175.705 13.5736 175.705 13.1522C175.705 12.7356 175.863 12.3781 176.181 12.0798C176.503 11.7768 176.888 11.6253 177.338 11.6253C177.788 11.6253 178.172 11.7768 178.489 12.0798C178.811 12.3781 178.972 12.7356 178.972 13.1522C178.972 13.5736 178.811 13.9359 178.489 14.2389C178.172 14.5372 177.788 14.6863 177.338 14.6863ZM186.639 27.2147C185.517 27.2147 184.551 26.9875 183.741 26.5329C182.936 26.0736 182.316 25.425 181.881 24.5869C181.445 23.7441 181.227 22.7474 181.227 21.5968C181.227 20.4747 181.445 19.4898 181.881 18.6423C182.316 17.7948 182.929 17.1343 183.72 16.6608C184.516 16.1873 185.448 15.9505 186.518 15.9505C187.238 15.9505 187.908 16.0665 188.528 16.2986C189.153 16.5258 189.698 16.8691 190.162 17.3284C190.631 17.7877 190.995 18.3653 191.256 19.0613C191.516 19.7526 191.646 20.5623 191.646 21.4903V22.3213H182.435V20.4463H188.798C188.798 20.0107 188.704 19.6248 188.514 19.2886C188.325 18.9524 188.062 18.6897 187.726 18.5003C187.394 18.3061 187.008 18.2091 186.568 18.2091C186.109 18.2091 185.702 18.3156 185.347 18.5287C184.996 18.737 184.722 19.0187 184.523 19.3738C184.324 19.7242 184.222 20.1148 184.217 20.5457V22.3284C184.217 22.8682 184.317 23.3345 184.516 23.7275C184.719 24.1205 185.006 24.4236 185.375 24.6366C185.744 24.8497 186.182 24.9562 186.689 24.9562C187.025 24.9562 187.333 24.9089 187.612 24.8142C187.892 24.7195 188.131 24.5774 188.329 24.388C188.528 24.1986 188.68 23.9666 188.784 23.692L191.582 23.8767C191.44 24.549 191.149 25.1361 190.709 25.638C190.273 26.1352 189.71 26.5235 189.018 26.8028C188.332 27.0774 187.539 27.2147 186.639 27.2147ZM196.095 27.0017L193.126 16.0926H196.187L197.877 23.4221H197.977L199.738 16.0926H202.742L204.532 23.3795H204.624L206.286 16.0926H209.34L206.379 27.0017H203.175L201.3 20.1409H201.166L199.291 27.0017H196.095ZM211.638 27.1863C211.17 27.1863 210.767 27.0206 210.431 26.6892C210.1 26.353 209.934 25.9505 209.934 25.4818C209.934 25.0178 210.1 24.62 210.431 24.2886C210.767 23.9572 211.17 23.7915 211.638 23.7915C212.093 23.7915 212.491 23.9572 212.832 24.2886C213.172 24.62 213.343 25.0178 213.343 25.4818C213.343 25.7943 213.262 26.0808 213.101 26.3412C212.945 26.5968 212.739 26.8028 212.484 26.9591C212.228 27.1106 211.946 27.1863 211.638 27.1863ZM219.338 27.2076C218.642 27.2076 218.021 27.0869 217.477 26.8454C216.932 26.5992 216.502 26.237 216.184 25.7588C215.872 25.2758 215.716 24.6745 215.716 23.9548C215.716 23.3487 215.827 22.8397 216.049 22.4278C216.272 22.0159 216.575 21.6844 216.958 21.4335C217.342 21.1825 217.778 20.9932 218.265 20.8653C218.758 20.7375 219.274 20.6475 219.814 20.5954C220.448 20.5291 220.959 20.4676 221.348 20.4108C221.736 20.3492 222.018 20.2593 222.193 20.1409C222.368 20.0225 222.456 19.8473 222.456 19.6153V19.5727C222.456 19.1229 222.314 18.7749 222.029 18.5287C221.75 18.2825 221.352 18.1593 220.836 18.1593C220.292 18.1593 219.859 18.2801 219.537 18.5216C219.215 18.7583 219.002 19.0566 218.897 19.4165L216.099 19.1892C216.241 18.5263 216.52 17.9534 216.937 17.4704C217.354 16.9827 217.891 16.6087 218.549 16.3483C219.212 16.0831 219.979 15.9505 220.85 15.9505C221.457 15.9505 222.037 16.0216 222.591 16.1636C223.149 16.3057 223.644 16.5258 224.075 16.8241C224.511 17.1224 224.854 17.5059 225.105 17.9747C225.356 18.4387 225.481 18.995 225.481 19.6437V27.0017H222.612V25.4889H222.527C222.351 25.8298 222.117 26.1305 221.824 26.3909C221.53 26.6466 221.177 26.8478 220.765 26.9946C220.353 27.1366 219.877 27.2076 219.338 27.2076ZM220.204 25.1196C220.649 25.1196 221.042 25.032 221.383 24.8568C221.724 24.6769 221.992 24.4354 222.186 24.1324C222.38 23.8293 222.477 23.4861 222.477 23.1025V21.9449C222.382 22.0064 222.252 22.0632 222.086 22.1153C221.925 22.1627 221.743 22.2076 221.539 22.2503C221.336 22.2881 221.132 22.3236 220.929 22.3568C220.725 22.3852 220.54 22.4112 220.375 22.4349C220.02 22.487 219.709 22.5699 219.444 22.6835C219.179 22.7971 218.973 22.951 218.826 23.1451C218.68 23.3345 218.606 23.5713 218.606 23.8554C218.606 24.2673 218.755 24.5822 219.054 24.8C219.357 25.013 219.74 25.1196 220.204 25.1196ZM228.228 27.0017V16.0926H231.254V27.0017H228.228ZM229.748 14.6863C229.299 14.6863 228.913 14.5372 228.591 14.2389C228.273 13.9359 228.115 13.5736 228.115 13.1522C228.115 12.7356 228.273 12.3781 228.591 12.0798C228.913 11.7768 229.299 11.6253 229.748 11.6253C230.198 11.6253 230.582 11.7768 230.899 12.0798C231.221 12.3781 231.382 12.7356 231.382 13.1522C231.382 13.5736 231.221 13.9359 230.899 14.2389C230.582 14.5372 230.198 14.6863 229.748 14.6863Z" fill="black"/>
</svg>
