<svg width="931" height="491" viewBox="0 0 931 491" fill="none" xmlns="http://www.w3.org/2000/svg">
<rect x="787" y="1" width="121" height="121" rx="60.5" fill="white"/>
<rect x="787" y="1" width="121" height="121" rx="60.5" stroke="#171616" stroke-width="2"/>
<path d="M817.938 54.9091H820.335L824.503 65.0852H824.656L828.824 54.9091H831.221V68H829.342V58.527H829.22L825.359 67.9808H823.8L819.939 58.5206H819.817V68H817.938V54.9091ZM838.171 68.1982C837.203 68.1982 836.37 67.9915 835.671 67.5781C834.977 67.1605 834.44 66.5746 834.061 65.8203C833.686 65.0618 833.498 64.1733 833.498 63.1548C833.498 62.1491 833.686 61.2628 834.061 60.4957C834.44 59.7287 834.968 59.13 835.646 58.6996C836.328 58.2692 837.124 58.054 838.036 58.054C838.59 58.054 839.127 58.1456 839.647 58.3288C840.167 58.5121 840.634 58.7997 841.047 59.1918C841.46 59.5838 841.786 60.093 842.025 60.7195C842.264 61.3416 842.383 62.098 842.383 62.9886V63.6662H834.578V62.2344H840.51C840.51 61.7315 840.408 61.2862 840.203 60.8984C839.999 60.5064 839.711 60.1974 839.34 59.9716C838.974 59.7457 838.544 59.6328 838.049 59.6328C837.512 59.6328 837.044 59.7649 836.643 60.0291C836.247 60.2891 835.94 60.63 835.722 61.0518C835.509 61.4695 835.403 61.9233 835.403 62.4134V63.532C835.403 64.1882 835.518 64.7464 835.748 65.2067C835.982 65.6669 836.308 66.0185 836.726 66.2614C837.144 66.5 837.632 66.6193 838.19 66.6193C838.552 66.6193 838.882 66.5682 839.181 66.4659C839.479 66.3594 839.737 66.2017 839.954 65.9929C840.171 65.7841 840.338 65.5263 840.453 65.2195L842.262 65.5455C842.117 66.0781 841.857 66.5447 841.482 66.9453C841.111 67.3416 840.644 67.6506 840.082 67.8722C839.524 68.0895 838.887 68.1982 838.171 68.1982ZM846.415 62.1705V68H844.504V58.1818H846.338V59.7798H846.46C846.685 59.2599 847.039 58.8423 847.521 58.527C848.006 58.2116 848.618 58.054 849.355 58.054C850.024 58.054 850.61 58.1946 851.113 58.4759C851.616 58.7528 852.006 59.1662 852.283 59.7159C852.56 60.2656 852.698 60.9453 852.698 61.755V68H850.787V61.9851C850.787 61.2734 850.602 60.7173 850.231 60.3168C849.86 59.9119 849.351 59.7095 848.703 59.7095C848.26 59.7095 847.866 59.8054 847.521 59.9972C847.18 60.1889 846.909 60.4702 846.709 60.8409C846.513 61.2074 846.415 61.6506 846.415 62.1705ZM859.844 58.1818V59.7159H854.482V58.1818H859.844ZM855.92 55.8295H857.831V65.1172C857.831 65.4879 857.886 65.767 857.997 65.9545C858.108 66.1378 858.251 66.2635 858.425 66.3317C858.604 66.3956 858.798 66.4276 859.007 66.4276C859.161 66.4276 859.295 66.4169 859.41 66.3956C859.525 66.3743 859.614 66.3572 859.678 66.3445L860.023 67.9233C859.913 67.9659 859.755 68.0085 859.55 68.0511C859.346 68.098 859.09 68.1236 858.783 68.1278C858.281 68.1364 857.812 68.0469 857.377 67.8594C856.942 67.6719 856.591 67.3821 856.322 66.9901C856.054 66.598 855.92 66.1058 855.92 65.5135V55.8295ZM865.989 68.1982C865.068 68.1982 864.265 67.9872 863.579 67.5653C862.893 67.1435 862.36 66.5533 861.981 65.7947C861.602 65.0362 861.412 64.1499 861.412 63.1357C861.412 62.1172 861.602 61.2266 861.981 60.4638C862.36 59.701 862.893 59.1087 863.579 58.6868C864.265 58.2649 865.068 58.054 865.989 58.054C866.909 58.054 867.713 58.2649 868.399 58.6868C869.085 59.1087 869.617 59.701 869.997 60.4638C870.376 61.2266 870.566 62.1172 870.566 63.1357C870.566 64.1499 870.376 65.0362 869.997 65.7947C869.617 66.5533 869.085 67.1435 868.399 67.5653C867.713 67.9872 866.909 68.1982 865.989 68.1982ZM865.995 66.5938C866.592 66.5938 867.086 66.4361 867.478 66.1207C867.87 65.8054 868.16 65.3857 868.347 64.8615C868.539 64.3374 868.635 63.7599 868.635 63.1293C868.635 62.5028 868.539 61.9276 868.347 61.4034C868.16 60.875 867.87 60.451 867.478 60.1314C867.086 59.8118 866.592 59.652 865.995 59.652C865.394 59.652 864.896 59.8118 864.499 60.1314C864.107 60.451 863.816 60.875 863.624 61.4034C863.436 61.9276 863.343 62.5028 863.343 63.1293C863.343 63.7599 863.436 64.3374 863.624 64.8615C863.816 65.3857 864.107 65.8054 864.499 66.1207C864.896 66.4361 865.394 66.5938 865.995 66.5938ZM872.699 68V58.1818H874.546V59.7415H874.648C874.827 59.2131 875.143 58.7976 875.594 58.495C876.05 58.1882 876.566 58.0348 877.141 58.0348C877.261 58.0348 877.401 58.0391 877.563 58.0476C877.729 58.0561 877.859 58.0668 877.953 58.0795V59.9077C877.876 59.8864 877.74 59.8629 877.544 59.8374C877.348 59.8075 877.152 59.7926 876.956 59.7926C876.504 59.7926 876.102 59.8885 875.748 60.0803C875.398 60.2678 875.121 60.5298 874.917 60.8665C874.712 61.1989 874.61 61.5781 874.61 62.0043V68H872.699Z" fill="black"/>
<rect x="248" y="330" width="121" height="121" rx="60.5" fill="white"/>
<rect x="248" y="330" width="121" height="121" rx="60.5" stroke="#171616" stroke-width="2"/>
<path d="M279.332 370.409V383.5H277.357V370.409H279.332ZM283.967 377.67V383.5H282.055V373.682H283.89V375.28H284.011C284.237 374.76 284.591 374.342 285.072 374.027C285.558 373.712 286.17 373.554 286.907 373.554C287.576 373.554 288.162 373.695 288.665 373.976C289.168 374.253 289.557 374.666 289.834 375.216C290.111 375.766 290.25 376.445 290.25 377.255V383.5H288.339V377.485C288.339 376.773 288.153 376.217 287.783 375.817C287.412 375.412 286.903 375.21 286.255 375.21C285.812 375.21 285.418 375.305 285.072 375.497C284.731 375.689 284.461 375.97 284.261 376.341C284.065 376.707 283.967 377.151 283.967 377.67ZM297.396 373.682V375.216H292.033V373.682H297.396ZM293.472 371.33H295.383V380.617C295.383 380.988 295.438 381.267 295.549 381.455C295.66 381.638 295.802 381.763 295.977 381.832C296.156 381.896 296.35 381.928 296.559 381.928C296.712 381.928 296.847 381.917 296.962 381.896C297.077 381.874 297.166 381.857 297.23 381.844L297.575 383.423C297.464 383.466 297.307 383.509 297.102 383.551C296.898 383.598 296.642 383.624 296.335 383.628C295.832 383.636 295.364 383.547 294.929 383.359C294.494 383.172 294.143 382.882 293.874 382.49C293.606 382.098 293.472 381.606 293.472 381.013V371.33ZM303.636 383.698C302.669 383.698 301.836 383.491 301.137 383.078C300.443 382.661 299.906 382.075 299.526 381.32C299.151 380.562 298.964 379.673 298.964 378.655C298.964 377.649 299.151 376.763 299.526 375.996C299.906 375.229 300.434 374.63 301.112 374.2C301.793 373.769 302.59 373.554 303.502 373.554C304.056 373.554 304.593 373.646 305.113 373.829C305.633 374.012 306.1 374.3 306.513 374.692C306.926 375.084 307.252 375.593 307.491 376.219C307.729 376.842 307.849 377.598 307.849 378.489V379.166H300.044V377.734H305.976C305.976 377.232 305.874 376.786 305.669 376.398C305.465 376.006 305.177 375.697 304.806 375.472C304.44 375.246 304.009 375.133 303.515 375.133C302.978 375.133 302.509 375.265 302.109 375.529C301.712 375.789 301.406 376.13 301.188 376.552C300.975 376.969 300.869 377.423 300.869 377.913V379.032C300.869 379.688 300.984 380.246 301.214 380.707C301.448 381.167 301.774 381.518 302.192 381.761C302.609 382 303.097 382.119 303.656 382.119C304.018 382.119 304.348 382.068 304.646 381.966C304.945 381.859 305.203 381.702 305.42 381.493C305.637 381.284 305.803 381.026 305.918 380.719L307.727 381.045C307.582 381.578 307.323 382.045 306.948 382.445C306.577 382.842 306.11 383.151 305.548 383.372C304.989 383.589 304.352 383.698 303.636 383.698ZM309.969 383.5V373.682H311.817V375.241H311.919C312.098 374.713 312.413 374.298 312.865 373.995C313.321 373.688 313.837 373.535 314.412 373.535C314.531 373.535 314.672 373.539 314.834 373.548C315 373.556 315.13 373.567 315.224 373.58V375.408C315.147 375.386 315.011 375.363 314.815 375.337C314.619 375.308 314.422 375.293 314.226 375.293C313.775 375.293 313.372 375.388 313.018 375.58C312.669 375.768 312.392 376.03 312.187 376.366C311.983 376.699 311.881 377.078 311.881 377.504V383.5H309.969ZM318.789 377.67V383.5H316.878V373.682H318.712V375.28H318.834C319.059 374.76 319.413 374.342 319.895 374.027C320.38 373.712 320.992 373.554 321.729 373.554C322.398 373.554 322.984 373.695 323.487 373.976C323.99 374.253 324.38 374.666 324.657 375.216C324.934 375.766 325.072 376.445 325.072 377.255V383.5H323.161V377.485C323.161 376.773 322.976 376.217 322.605 375.817C322.234 375.412 321.725 375.21 321.077 375.21C320.634 375.21 320.24 375.305 319.895 375.497C319.554 375.689 319.283 375.97 319.083 376.341C318.887 376.707 318.789 377.151 318.789 377.67ZM330.493 383.717C329.87 383.717 329.308 383.602 328.805 383.372C328.302 383.138 327.904 382.799 327.61 382.356C327.32 381.913 327.175 381.369 327.175 380.726C327.175 380.172 327.282 379.716 327.495 379.358C327.708 379 327.995 378.717 328.358 378.508C328.72 378.299 329.125 378.141 329.572 378.035C330.02 377.928 330.476 377.847 330.94 377.792C331.528 377.724 332.005 377.668 332.372 377.626C332.738 377.579 333.005 377.504 333.171 377.402C333.337 377.3 333.42 377.134 333.42 376.903V376.859C333.42 376.3 333.263 375.868 332.947 375.561C332.636 375.254 332.172 375.101 331.554 375.101C330.91 375.101 330.403 375.244 330.032 375.529C329.666 375.81 329.412 376.124 329.272 376.469L327.476 376.06C327.689 375.463 328 374.982 328.409 374.615C328.822 374.244 329.297 373.976 329.834 373.81C330.371 373.639 330.936 373.554 331.528 373.554C331.92 373.554 332.336 373.601 332.775 373.695C333.218 373.784 333.631 373.95 334.015 374.193C334.402 374.436 334.72 374.783 334.967 375.235C335.214 375.683 335.338 376.264 335.338 376.98V383.5H333.471V382.158H333.395C333.271 382.405 333.086 382.648 332.839 382.886C332.591 383.125 332.274 383.323 331.886 383.481C331.498 383.638 331.034 383.717 330.493 383.717ZM330.908 382.183C331.437 382.183 331.888 382.079 332.263 381.87C332.642 381.661 332.93 381.388 333.126 381.052C333.326 380.711 333.427 380.347 333.427 379.959V378.693C333.358 378.761 333.226 378.825 333.03 378.885C332.839 378.94 332.619 378.989 332.372 379.032C332.125 379.07 331.884 379.107 331.65 379.141C331.415 379.17 331.219 379.196 331.062 379.217C330.691 379.264 330.352 379.343 330.045 379.454C329.743 379.565 329.5 379.724 329.316 379.933C329.138 380.138 329.048 380.411 329.048 380.751C329.048 381.224 329.223 381.582 329.572 381.825C329.922 382.064 330.367 382.183 330.908 382.183ZM339.795 370.409V383.5H337.883V370.409H339.795ZM275.037 410.5V397.409H279.703C280.717 397.409 281.559 397.584 282.228 397.933C282.901 398.283 283.404 398.766 283.736 399.384C284.069 399.998 284.235 400.707 284.235 401.513C284.235 402.314 284.067 403.019 283.73 403.629C283.398 404.234 282.895 404.705 282.222 405.041C281.552 405.378 280.711 405.546 279.697 405.546H276.162V403.846H279.518C280.157 403.846 280.677 403.754 281.077 403.571C281.482 403.388 281.778 403.121 281.966 402.772C282.153 402.423 282.247 402.003 282.247 401.513C282.247 401.018 282.151 400.59 281.959 400.228C281.772 399.866 281.476 399.589 281.071 399.397C280.67 399.201 280.144 399.103 279.492 399.103H277.012V410.5H275.037ZM281.499 404.594L284.734 410.5H282.484L279.313 404.594H281.499ZM290.593 410.698C289.626 410.698 288.793 410.491 288.094 410.078C287.4 409.661 286.863 409.075 286.483 408.32C286.108 407.562 285.921 406.673 285.921 405.655C285.921 404.649 286.108 403.763 286.483 402.996C286.863 402.229 287.391 401.63 288.069 401.2C288.75 400.769 289.547 400.554 290.459 400.554C291.013 400.554 291.55 400.646 292.07 400.829C292.59 401.012 293.057 401.3 293.47 401.692C293.883 402.084 294.209 402.593 294.448 403.219C294.687 403.842 294.806 404.598 294.806 405.489V406.166H287.001V404.734H292.933C292.933 404.232 292.831 403.786 292.626 403.398C292.422 403.006 292.134 402.697 291.763 402.472C291.397 402.246 290.966 402.133 290.472 402.133C289.935 402.133 289.466 402.265 289.066 402.529C288.669 402.789 288.363 403.13 288.145 403.552C287.932 403.969 287.826 404.423 287.826 404.913V406.032C287.826 406.688 287.941 407.246 288.171 407.707C288.405 408.167 288.731 408.518 289.149 408.761C289.566 409 290.054 409.119 290.613 409.119C290.975 409.119 291.305 409.068 291.603 408.966C291.902 408.859 292.16 408.702 292.377 408.493C292.594 408.284 292.76 408.026 292.875 407.719L294.684 408.045C294.54 408.578 294.28 409.045 293.905 409.445C293.534 409.842 293.067 410.151 292.505 410.372C291.946 410.589 291.309 410.698 290.593 410.698ZM301.599 400.682V402.216H296.051V400.682H301.599ZM297.572 410.5V399.544C297.572 398.93 297.706 398.421 297.975 398.016C298.243 397.607 298.599 397.303 299.042 397.102C299.485 396.898 299.967 396.795 300.487 396.795C300.87 396.795 301.198 396.827 301.471 396.891C301.744 396.951 301.946 397.006 302.078 397.058L301.631 398.604C301.541 398.579 301.426 398.549 301.286 398.515C301.145 398.477 300.975 398.457 300.774 398.457C300.31 398.457 299.978 398.572 299.777 398.803C299.581 399.033 299.483 399.365 299.483 399.8V410.5H297.572ZM307.416 410.698C306.448 410.698 305.615 410.491 304.916 410.078C304.222 409.661 303.685 409.075 303.306 408.32C302.931 407.562 302.743 406.673 302.743 405.655C302.743 404.649 302.931 403.763 303.306 402.996C303.685 402.229 304.213 401.63 304.891 401.2C305.573 400.769 306.37 400.554 307.282 400.554C307.835 400.554 308.372 400.646 308.892 400.829C309.412 401.012 309.879 401.3 310.292 401.692C310.706 402.084 311.032 402.593 311.27 403.219C311.509 403.842 311.628 404.598 311.628 405.489V406.166H303.823V404.734H309.755C309.755 404.232 309.653 403.786 309.448 403.398C309.244 403.006 308.956 402.697 308.585 402.472C308.219 402.246 307.789 402.133 307.294 402.133C306.757 402.133 306.289 402.265 305.888 402.529C305.492 402.789 305.185 403.13 304.968 403.552C304.755 403.969 304.648 404.423 304.648 404.913V406.032C304.648 406.688 304.763 407.246 304.993 407.707C305.228 408.167 305.554 408.518 305.971 408.761C306.389 409 306.877 409.119 307.435 409.119C307.797 409.119 308.127 409.068 308.426 408.966C308.724 408.859 308.982 408.702 309.199 408.493C309.416 408.284 309.583 408.026 309.698 407.719L311.507 408.045C311.362 408.578 311.102 409.045 310.727 409.445C310.356 409.842 309.889 410.151 309.327 410.372C308.769 410.589 308.132 410.698 307.416 410.698ZM313.749 410.5V400.682H315.596V402.241H315.698C315.877 401.713 316.193 401.298 316.644 400.995C317.1 400.688 317.616 400.535 318.191 400.535C318.31 400.535 318.451 400.539 318.613 400.548C318.779 400.556 318.909 400.567 319.003 400.58V402.408C318.926 402.386 318.79 402.363 318.594 402.337C318.398 402.308 318.202 402.293 318.006 402.293C317.554 402.293 317.151 402.388 316.798 402.58C316.448 402.768 316.171 403.03 315.967 403.366C315.762 403.699 315.66 404.078 315.66 404.504V410.5H313.749ZM320.657 410.5V400.682H322.504V402.241H322.606C322.785 401.713 323.101 401.298 323.552 400.995C324.008 400.688 324.524 400.535 325.099 400.535C325.219 400.535 325.359 400.539 325.521 400.548C325.687 400.556 325.817 400.567 325.911 400.58V402.408C325.834 402.386 325.698 402.363 325.502 402.337C325.306 402.308 325.11 402.293 324.914 402.293C324.462 402.293 324.06 402.388 323.706 402.58C323.356 402.768 323.079 403.03 322.875 403.366C322.67 403.699 322.568 404.078 322.568 404.504V410.5H320.657ZM331.445 410.698C330.478 410.698 329.645 410.491 328.946 410.078C328.251 409.661 327.714 409.075 327.335 408.32C326.96 407.562 326.772 406.673 326.772 405.655C326.772 404.649 326.96 403.763 327.335 402.996C327.714 402.229 328.243 401.63 328.92 401.2C329.602 400.769 330.399 400.554 331.311 400.554C331.865 400.554 332.402 400.646 332.922 400.829C333.441 401.012 333.908 401.3 334.321 401.692C334.735 402.084 335.061 402.593 335.299 403.219C335.538 403.842 335.657 404.598 335.657 405.489V406.166H327.853V404.734H333.785C333.785 404.232 333.682 403.786 333.478 403.398C333.273 403.006 332.986 402.697 332.615 402.472C332.248 402.246 331.818 402.133 331.324 402.133C330.787 402.133 330.318 402.265 329.917 402.529C329.521 402.789 329.214 403.13 328.997 403.552C328.784 403.969 328.677 404.423 328.677 404.913V406.032C328.677 406.688 328.792 407.246 329.022 407.707C329.257 408.167 329.583 408.518 330 408.761C330.418 409 330.906 409.119 331.464 409.119C331.826 409.119 332.157 409.068 332.455 408.966C332.753 408.859 333.011 408.702 333.228 408.493C333.446 408.284 333.612 408.026 333.727 407.719L335.536 408.045C335.391 408.578 335.131 409.045 334.756 409.445C334.385 409.842 333.919 410.151 333.356 410.372C332.798 410.589 332.161 410.698 331.445 410.698ZM337.778 410.5V400.682H339.625V402.241H339.728C339.907 401.713 340.222 401.298 340.674 400.995C341.13 400.688 341.645 400.535 342.22 400.535C342.34 400.535 342.48 400.539 342.642 400.548C342.809 400.556 342.938 400.567 343.032 400.58V402.408C342.956 402.386 342.819 402.363 342.623 402.337C342.427 402.308 342.231 402.293 342.035 402.293C341.583 402.293 341.181 402.388 340.827 402.58C340.478 402.768 340.201 403.03 339.996 403.366C339.791 403.699 339.689 404.078 339.689 404.504V410.5H337.778Z" fill="black"/>
<rect x="1" y="167" width="121" height="121" rx="60.5" fill="white"/>
<rect x="1" y="167" width="121" height="121" rx="60.5" stroke="#171616" stroke-width="2"/>
<path d="M20.5263 220.909H22.495V230.19C22.495 231.03 22.3288 231.748 21.9964 232.344C21.6683 232.941 21.206 233.397 20.6094 233.712C20.0128 234.023 19.3139 234.179 18.5128 234.179C17.7756 234.179 17.1129 234.045 16.5249 233.776C15.9411 233.508 15.4787 233.118 15.1378 232.607C14.8011 232.091 14.6328 231.464 14.6328 230.727H16.5952C16.5952 231.089 16.6783 231.403 16.8445 231.667C17.0149 231.931 17.2472 232.138 17.5412 232.287C17.8395 232.432 18.1804 232.504 18.5639 232.504C18.9815 232.504 19.3352 232.417 19.625 232.242C19.919 232.063 20.1428 231.801 20.2962 231.456C20.4496 231.111 20.5263 230.689 20.5263 230.19V220.909ZM29.3521 234.198C28.4316 234.198 27.6284 233.987 26.9423 233.565C26.2562 233.143 25.7235 232.553 25.3443 231.795C24.965 231.036 24.7754 230.15 24.7754 229.136C24.7754 228.117 24.965 227.227 25.3443 226.464C25.7235 225.701 26.2562 225.109 26.9423 224.687C27.6284 224.265 28.4316 224.054 29.3521 224.054C30.2725 224.054 31.0758 224.265 31.7619 224.687C32.448 225.109 32.9806 225.701 33.3599 226.464C33.7392 227.227 33.9288 228.117 33.9288 229.136C33.9288 230.15 33.7392 231.036 33.3599 231.795C32.9806 232.553 32.448 233.143 31.7619 233.565C31.0758 233.987 30.2725 234.198 29.3521 234.198ZM29.3585 232.594C29.9551 232.594 30.4494 232.436 30.8414 232.121C31.2335 231.805 31.5233 231.386 31.7108 230.862C31.9025 230.337 31.9984 229.76 31.9984 229.129C31.9984 228.503 31.9025 227.928 31.7108 227.403C31.5233 226.875 31.2335 226.451 30.8414 226.131C30.4494 225.812 29.9551 225.652 29.3585 225.652C28.7576 225.652 28.2591 225.812 27.8627 226.131C27.4707 226.451 27.1788 226.875 26.987 227.403C26.7995 227.928 26.7058 228.503 26.7058 229.129C26.7058 229.76 26.7995 230.337 26.987 230.862C27.1788 231.386 27.4707 231.805 27.8627 232.121C28.2591 232.436 28.7576 232.594 29.3585 232.594ZM36.2156 234V220.909H38.1268V225.773H38.2418C38.3526 225.569 38.5124 225.332 38.7212 225.064C38.93 224.795 39.2198 224.561 39.5906 224.361C39.9613 224.156 40.4513 224.054 41.0607 224.054C41.8533 224.054 42.5607 224.254 43.1829 224.655C43.805 225.055 44.293 225.633 44.6467 226.387C45.0046 227.141 45.1836 228.049 45.1836 229.11C45.1836 230.171 45.0067 231.081 44.6531 231.839C44.2994 232.594 43.8136 233.175 43.1957 233.585C42.5778 233.989 41.8725 234.192 41.0799 234.192C40.4833 234.192 39.9954 234.092 39.6161 233.891C39.2411 233.691 38.9471 233.457 38.734 233.188C38.521 232.92 38.3569 232.681 38.2418 232.472H38.082V234H36.2156ZM38.0884 229.091C38.0884 229.781 38.1886 230.386 38.3888 230.906C38.5891 231.426 38.8789 231.833 39.2582 232.127C39.6374 232.417 40.1019 232.562 40.6516 232.562C41.2227 232.562 41.6999 232.411 42.0835 232.108C42.467 231.801 42.7567 231.386 42.9528 230.862C43.1531 230.337 43.2532 229.747 43.2532 229.091C43.2532 228.443 43.1552 227.862 42.9592 227.346C42.7674 226.83 42.4776 226.423 42.0898 226.125C41.7063 225.827 41.2269 225.678 40.6516 225.678C40.0977 225.678 39.6289 225.82 39.2454 226.106C38.8661 226.391 38.5785 226.79 38.3825 227.301C38.1864 227.812 38.0884 228.409 38.0884 229.091ZM59.4506 226.579L57.7184 226.886C57.646 226.664 57.5309 226.453 57.3732 226.253C57.2198 226.053 57.011 225.888 56.7468 225.761C56.4826 225.633 56.1523 225.569 55.756 225.569C55.2148 225.569 54.7631 225.69 54.4009 225.933C54.0387 226.172 53.8576 226.481 53.8576 226.86C53.8576 227.188 53.979 227.452 54.2219 227.653C54.4648 227.853 54.8569 228.017 55.3981 228.145L56.9577 228.503C57.8612 228.712 58.5344 229.033 58.9776 229.468C59.4208 229.903 59.6424 230.467 59.6424 231.162C59.6424 231.75 59.4719 232.274 59.131 232.734C58.7944 233.19 58.3235 233.548 57.7184 233.808C57.1175 234.068 56.4208 234.198 55.6282 234.198C54.5288 234.198 53.6317 233.964 52.9371 233.495C52.2425 233.022 51.8164 232.351 51.6587 231.482L53.506 231.2C53.6211 231.682 53.8576 232.046 54.2156 232.293C54.5735 232.536 55.0401 232.658 55.6154 232.658C56.2418 232.658 56.7425 232.528 57.1175 232.268C57.4925 232.004 57.68 231.682 57.68 231.303C57.68 230.996 57.565 230.738 57.3349 230.529C57.109 230.32 56.7617 230.163 56.293 230.056L54.631 229.692C53.7148 229.483 53.0373 229.151 52.5984 228.695C52.1637 228.239 51.9464 227.661 51.9464 226.962C51.9464 226.383 52.1083 225.876 52.4322 225.441C52.756 225.006 53.2035 224.668 53.7745 224.425C54.3455 224.178 54.9996 224.054 55.7369 224.054C56.7979 224.054 57.6332 224.284 58.2425 224.744C58.8519 225.2 59.2546 225.812 59.4506 226.579ZM65.9753 234.198C65.008 234.198 64.1749 233.991 63.476 233.578C62.7814 233.161 62.2445 232.575 61.8652 231.82C61.4902 231.062 61.3027 230.173 61.3027 229.155C61.3027 228.149 61.4902 227.263 61.8652 226.496C62.2445 225.729 62.7729 225.13 63.4505 224.7C64.1323 224.269 64.9292 224.054 65.8411 224.054C66.3951 224.054 66.932 224.146 67.4519 224.329C67.9718 224.512 68.4384 224.8 68.8517 225.192C69.2651 225.584 69.5911 226.093 69.8297 226.719C70.0684 227.342 70.1877 228.098 70.1877 228.989V229.666H62.383V228.234H68.3148C68.3148 227.732 68.2125 227.286 68.008 226.898C67.8034 226.506 67.5158 226.197 67.1451 225.972C66.7786 225.746 66.3482 225.633 65.8539 225.633C65.3169 225.633 64.8482 225.765 64.4476 226.029C64.0513 226.289 63.7445 226.63 63.5272 227.052C63.3141 227.469 63.2076 227.923 63.2076 228.413V229.532C63.2076 230.188 63.3226 230.746 63.5527 231.207C63.7871 231.667 64.1131 232.018 64.5307 232.261C64.9483 232.5 65.4363 232.619 65.9945 232.619C66.3567 232.619 66.687 232.568 66.9853 232.466C67.2836 232.359 67.5414 232.202 67.7587 231.993C67.976 231.784 68.1422 231.526 68.2573 231.219L70.0662 231.545C69.9213 232.078 69.6614 232.545 69.2864 232.945C68.9157 233.342 68.449 233.651 67.8865 233.872C67.3283 234.089 66.6912 234.198 65.9753 234.198ZM76.5398 234.198C75.5724 234.198 74.7393 233.991 74.0405 233.578C73.3459 233.161 72.8089 232.575 72.4297 231.82C72.0547 231.062 71.8672 230.173 71.8672 229.155C71.8672 228.149 72.0547 227.263 72.4297 226.496C72.8089 225.729 73.3374 225.13 74.0149 224.7C74.6967 224.269 75.4936 224.054 76.4055 224.054C76.9595 224.054 77.4964 224.146 78.0163 224.329C78.5362 224.512 79.0028 224.8 79.4162 225.192C79.8295 225.584 80.1555 226.093 80.3942 226.719C80.6328 227.342 80.7521 228.098 80.7521 228.989V229.666H72.9474V228.234H78.8793C78.8793 227.732 78.777 227.286 78.5724 226.898C78.3679 226.506 78.0803 226.197 77.7095 225.972C77.343 225.746 76.9126 225.633 76.4183 225.633C75.8814 225.633 75.4126 225.765 75.0121 226.029C74.6158 226.289 74.3089 226.63 74.0916 227.052C73.8786 227.469 73.772 227.923 73.772 228.413V229.532C73.772 230.188 73.8871 230.746 74.1172 231.207C74.3516 231.667 74.6776 232.018 75.0952 232.261C75.5128 232.5 76.0007 232.619 76.5589 232.619C76.9212 232.619 77.2514 232.568 77.5497 232.466C77.848 232.359 78.1058 232.202 78.3232 231.993C78.5405 231.784 78.7067 231.526 78.8217 231.219L80.6307 231.545C80.4858 232.078 80.2259 232.545 79.8509 232.945C79.4801 233.342 79.0135 233.651 78.451 233.872C77.8928 234.089 77.2557 234.198 76.5398 234.198ZM84.6305 230.67L84.6177 228.337H84.9501L88.862 224.182H91.1504L86.6887 228.912H86.3883L84.6305 230.67ZM82.8727 234V220.909H84.7839V234H82.8727ZM89.073 234L85.5574 229.334L86.8741 227.998L91.4189 234H89.073ZM96.7195 234.198C95.7521 234.198 94.919 233.991 94.2202 233.578C93.5256 233.161 92.9886 232.575 92.6094 231.82C92.2344 231.062 92.0469 230.173 92.0469 229.155C92.0469 228.149 92.2344 227.263 92.6094 226.496C92.9886 225.729 93.517 225.13 94.1946 224.7C94.8764 224.269 95.6733 224.054 96.5852 224.054C97.1392 224.054 97.6761 224.146 98.196 224.329C98.7159 224.512 99.1825 224.8 99.5959 225.192C100.009 225.584 100.335 226.093 100.574 226.719C100.813 227.342 100.932 228.098 100.932 228.989V229.666H93.1271V228.234H99.0589C99.0589 227.732 98.9567 227.286 98.7521 226.898C98.5476 226.506 98.2599 226.197 97.8892 225.972C97.5227 225.746 97.0923 225.633 96.598 225.633C96.0611 225.633 95.5923 225.765 95.1918 226.029C94.7955 226.289 94.4886 226.63 94.2713 227.052C94.0582 227.469 93.9517 227.923 93.9517 228.413V229.532C93.9517 230.188 94.0668 230.746 94.2969 231.207C94.5312 231.667 94.8572 232.018 95.2749 232.261C95.6925 232.5 96.1804 232.619 96.7386 232.619C97.1009 232.619 97.4311 232.568 97.7294 232.466C98.0277 232.359 98.2855 232.202 98.5028 231.993C98.7202 231.784 98.8864 231.526 99.0014 231.219L100.81 231.545C100.665 232.078 100.406 232.545 100.031 232.945C99.6598 233.342 99.1932 233.651 98.6307 233.872C98.0724 234.089 97.4354 234.198 96.7195 234.198ZM103.052 234V224.182H104.9V225.741H105.002C105.181 225.213 105.496 224.798 105.948 224.495C106.404 224.188 106.92 224.035 107.495 224.035C107.614 224.035 107.755 224.039 107.917 224.048C108.083 224.056 108.213 224.067 108.307 224.08V225.908C108.23 225.886 108.094 225.863 107.898 225.837C107.702 225.808 107.506 225.793 107.309 225.793C106.858 225.793 106.455 225.888 106.101 226.08C105.752 226.268 105.475 226.53 105.27 226.866C105.066 227.199 104.964 227.578 104.964 228.004V234H103.052Z" fill="#171616"/>
<rect x="493" y="167" width="174" height="120" rx="11" fill="white"/>
<rect x="493" y="167" width="174" height="120" rx="11" stroke="#171616" stroke-width="2"/>
<path d="M532.833 208.667V210.333H526.166C524.84 210.333 523.568 210.86 522.63 211.798C521.693 212.736 521.166 214.007 521.166 215.333V220.333C521.166 221.428 521.382 222.511 521.8 223.522C522.219 224.533 522.833 225.452 523.607 226.226C524.381 227 525.299 227.614 526.31 228.032C527.321 228.451 528.405 228.667 529.499 228.667H539.499C540.594 228.667 541.677 228.451 542.688 228.032C543.699 227.614 544.618 227 545.392 226.226C546.166 225.452 546.78 224.533 547.198 223.522C547.617 222.511 547.833 221.428 547.833 220.333V215.333C547.833 214.007 547.306 212.736 546.368 211.798C545.431 210.86 544.159 210.333 542.833 210.333H536.166V208.667H532.833ZM524.499 215.333C524.499 214.891 524.675 214.467 524.988 214.155C525.3 213.842 525.724 213.667 526.166 213.667H542.833C543.275 213.667 543.699 213.842 544.011 214.155C544.324 214.467 544.499 214.891 544.499 215.333V220.333C544.499 221.659 543.973 222.931 543.035 223.869C542.097 224.807 540.825 225.333 539.499 225.333H529.499C528.173 225.333 526.901 224.807 525.964 223.869C525.026 222.931 524.499 221.659 524.499 220.333V215.333ZM530.333 222C530.996 222 531.632 221.737 532.1 221.268C532.569 220.799 532.833 220.163 532.833 219.5C532.833 218.837 532.569 218.201 532.1 217.732C531.632 217.263 530.996 217 530.333 217C529.67 217 529.034 217.263 528.565 217.732C528.096 218.201 527.833 218.837 527.833 219.5C527.833 220.163 528.096 220.799 528.565 221.268C529.034 221.737 529.67 222 530.333 222ZM538.666 222C539.329 222 539.965 221.737 540.434 221.268C540.903 220.799 541.166 220.163 541.166 219.5C541.166 218.837 540.903 218.201 540.434 217.732C539.965 217.263 539.329 217 538.666 217C538.003 217 537.367 217.263 536.898 217.732C536.429 218.201 536.166 218.837 536.166 219.5C536.166 220.163 536.429 220.799 536.898 221.268C537.367 221.737 538.003 222 538.666 222ZM524.499 243.667C524.499 241.015 525.553 238.471 527.428 236.596C529.304 234.72 531.847 233.667 534.499 233.667C537.152 233.667 539.695 234.72 541.57 236.596C543.446 238.471 544.499 241.015 544.499 243.667H547.833C547.833 241.916 547.488 240.182 546.818 238.564C546.148 236.947 545.166 235.477 543.927 234.239C542.689 233.001 541.219 232.018 539.602 231.348C537.984 230.678 536.25 230.333 534.499 230.333C532.748 230.333 531.015 230.678 529.397 231.348C527.779 232.018 526.309 233.001 525.071 234.239C523.833 235.477 522.851 236.947 522.181 238.564C521.511 240.182 521.166 241.916 521.166 243.667H524.499Z" fill="black"/>
<path d="M567.044 220H564.947L569.658 206.909H571.94L576.651 220H574.555L570.854 209.287H570.751L567.044 220ZM567.396 214.874H574.197V216.536H567.396V214.874ZM580.517 206.909V220H578.542V206.909H580.517ZM588.157 206.909H590.554L594.722 217.085H594.875L599.043 206.909H601.44V220H599.56V210.527H599.439L595.578 219.981H594.018L590.158 210.521H590.036V220H588.157V206.909ZM608.294 220.198C607.373 220.198 606.57 219.987 605.884 219.565C605.198 219.143 604.665 218.553 604.286 217.795C603.906 217.036 603.717 216.15 603.717 215.136C603.717 214.117 603.906 213.227 604.286 212.464C604.665 211.701 605.198 211.109 605.884 210.687C606.57 210.265 607.373 210.054 608.294 210.054C609.214 210.054 610.017 210.265 610.703 210.687C611.389 211.109 611.922 211.701 612.301 212.464C612.681 213.227 612.87 214.117 612.87 215.136C612.87 216.15 612.681 217.036 612.301 217.795C611.922 218.553 611.389 219.143 610.703 219.565C610.017 219.987 609.214 220.198 608.294 220.198ZM608.3 218.594C608.896 218.594 609.391 218.436 609.783 218.121C610.175 217.805 610.465 217.386 610.652 216.862C610.844 216.337 610.94 215.76 610.94 215.129C610.94 214.503 610.844 213.928 610.652 213.403C610.465 212.875 610.175 212.451 609.783 212.131C609.391 211.812 608.896 211.652 608.3 211.652C607.699 211.652 607.2 211.812 606.804 212.131C606.412 212.451 606.12 212.875 605.928 213.403C605.741 213.928 605.647 214.503 605.647 215.129C605.647 215.76 605.741 216.337 605.928 216.862C606.12 217.386 606.412 217.805 606.804 218.121C607.2 218.436 607.699 218.594 608.3 218.594ZM619.139 220.198C618.189 220.198 617.371 219.983 616.685 219.553C616.003 219.118 615.479 218.519 615.112 217.756C614.746 216.994 614.562 216.12 614.562 215.136C614.562 214.138 614.75 213.259 615.125 212.496C615.5 211.729 616.028 211.13 616.71 210.7C617.392 210.269 618.195 210.054 619.12 210.054C619.866 210.054 620.531 210.192 621.114 210.469C621.698 210.742 622.169 211.126 622.527 211.62C622.889 212.114 623.104 212.692 623.173 213.352H621.312C621.21 212.892 620.976 212.496 620.609 212.163C620.247 211.831 619.761 211.665 619.152 211.665C618.619 211.665 618.153 211.805 617.752 212.087C617.356 212.364 617.047 212.76 616.825 213.276C616.604 213.787 616.493 214.392 616.493 215.091C616.493 215.807 616.602 216.425 616.819 216.945C617.036 217.464 617.343 217.867 617.739 218.153C618.14 218.438 618.611 218.581 619.152 218.581C619.514 218.581 619.842 218.515 620.136 218.383C620.435 218.246 620.684 218.053 620.884 217.801C621.089 217.55 621.232 217.247 621.312 216.893H623.173C623.104 217.528 622.898 218.095 622.553 218.594C622.207 219.092 621.745 219.484 621.165 219.77C620.59 220.055 619.915 220.198 619.139 220.198ZM626.974 216.67L626.961 214.337H627.294L631.206 210.182H633.494L629.032 214.912H628.732L626.974 216.67ZM625.216 220V206.909H627.128V220H625.216ZM631.417 220L627.901 215.334L629.218 213.998L633.763 220H631.417ZM567.913 233.909V247H565.938V233.909H567.913ZM572.548 241.17V247H570.636V237.182H572.471V238.78H572.592C572.818 238.26 573.172 237.842 573.653 237.527C574.139 237.212 574.751 237.054 575.488 237.054C576.157 237.054 576.743 237.195 577.246 237.476C577.749 237.753 578.138 238.166 578.415 238.716C578.692 239.266 578.831 239.945 578.831 240.755V247H576.92V240.985C576.92 240.273 576.734 239.717 576.364 239.317C575.993 238.912 575.484 238.71 574.836 238.71C574.393 238.71 573.999 238.805 573.653 238.997C573.313 239.189 573.042 239.47 572.842 239.841C572.646 240.207 572.548 240.651 572.548 241.17ZM585.977 237.182V238.716H580.614V237.182H585.977ZM582.053 234.83H583.964V244.117C583.964 244.488 584.019 244.767 584.13 244.955C584.241 245.138 584.384 245.263 584.558 245.332C584.737 245.396 584.931 245.428 585.14 245.428C585.293 245.428 585.428 245.417 585.543 245.396C585.658 245.374 585.747 245.357 585.811 245.344L586.156 246.923C586.045 246.966 585.888 247.009 585.683 247.051C585.479 247.098 585.223 247.124 584.916 247.128C584.413 247.136 583.945 247.047 583.51 246.859C583.075 246.672 582.724 246.382 582.455 245.99C582.187 245.598 582.053 245.106 582.053 244.513V234.83ZM592.218 247.198C591.25 247.198 590.417 246.991 589.718 246.578C589.024 246.161 588.487 245.575 588.107 244.82C587.732 244.062 587.545 243.173 587.545 242.155C587.545 241.149 587.732 240.263 588.107 239.496C588.487 238.729 589.015 238.13 589.693 237.7C590.374 237.269 591.171 237.054 592.083 237.054C592.637 237.054 593.174 237.146 593.694 237.329C594.214 237.512 594.681 237.8 595.094 238.192C595.507 238.584 595.833 239.093 596.072 239.719C596.311 240.342 596.43 241.098 596.43 241.989V242.666H588.625V241.234H594.557C594.557 240.732 594.455 240.286 594.25 239.898C594.046 239.506 593.758 239.197 593.387 238.972C593.021 238.746 592.59 238.633 592.096 238.633C591.559 238.633 591.09 238.765 590.69 239.029C590.294 239.289 589.987 239.63 589.769 240.052C589.556 240.469 589.45 240.923 589.45 241.413V242.532C589.45 243.188 589.565 243.746 589.795 244.207C590.029 244.667 590.355 245.018 590.773 245.261C591.191 245.5 591.678 245.619 592.237 245.619C592.599 245.619 592.929 245.568 593.227 245.466C593.526 245.359 593.784 245.202 594.001 244.993C594.218 244.784 594.384 244.526 594.499 244.219L596.308 244.545C596.164 245.078 595.904 245.545 595.529 245.945C595.158 246.342 594.691 246.651 594.129 246.872C593.57 247.089 592.933 247.198 592.218 247.198ZM598.55 247V237.182H600.398V238.741H600.5C600.679 238.213 600.994 237.798 601.446 237.495C601.902 237.188 602.418 237.035 602.993 237.035C603.112 237.035 603.253 237.039 603.415 237.048C603.581 237.056 603.711 237.067 603.805 237.08V238.908C603.728 238.886 603.592 238.863 603.396 238.837C603.2 238.808 603.004 238.793 602.808 238.793C602.356 238.793 601.953 238.888 601.599 239.08C601.25 239.268 600.973 239.53 600.768 239.866C600.564 240.199 600.462 240.578 600.462 241.004V247H598.55ZM614.157 237.182L610.596 247H608.551L604.984 237.182H607.036L609.522 244.737H609.625L612.105 237.182H614.157ZM615.953 247V237.182H617.864V247H615.953ZM616.918 235.667C616.586 235.667 616.3 235.556 616.061 235.335C615.827 235.109 615.71 234.84 615.71 234.529C615.71 234.214 615.827 233.945 616.061 233.724C616.3 233.498 616.586 233.385 616.918 233.385C617.25 233.385 617.534 233.498 617.768 233.724C618.007 233.945 618.126 234.214 618.126 234.529C618.126 234.84 618.007 235.109 617.768 235.335C617.534 235.556 617.25 235.667 616.918 235.667ZM624.667 247.198C623.699 247.198 622.866 246.991 622.167 246.578C621.473 246.161 620.936 245.575 620.557 244.82C620.182 244.062 619.994 243.173 619.994 242.155C619.994 241.149 620.182 240.263 620.557 239.496C620.936 238.729 621.464 238.13 622.142 237.7C622.824 237.269 623.621 237.054 624.532 237.054C625.086 237.054 625.623 237.146 626.143 237.329C626.663 237.512 627.13 237.8 627.543 238.192C627.956 238.584 628.282 239.093 628.521 239.719C628.76 240.342 628.879 241.098 628.879 241.989V242.666H621.074V241.234H627.006C627.006 240.732 626.904 240.286 626.699 239.898C626.495 239.506 626.207 239.197 625.836 238.972C625.47 238.746 625.04 238.633 624.545 238.633C624.008 238.633 623.54 238.765 623.139 239.029C622.743 239.289 622.436 239.63 622.219 240.052C622.006 240.469 621.899 240.923 621.899 241.413V242.532C621.899 243.188 622.014 243.746 622.244 244.207C622.479 244.667 622.805 245.018 623.222 245.261C623.64 245.5 624.128 245.619 624.686 245.619C625.048 245.619 625.378 245.568 625.677 245.466C625.975 245.359 626.233 245.202 626.45 244.993C626.667 244.784 626.834 244.526 626.949 244.219L628.758 244.545C628.613 245.078 628.353 245.545 627.978 245.945C627.607 246.342 627.14 246.651 626.578 246.872C626.02 247.089 625.383 247.198 624.667 247.198ZM633.111 247L630.221 237.182H632.197L634.121 244.392H634.216L636.147 237.182H638.122L640.04 244.36H640.135L642.047 237.182H644.022L641.139 247H639.189L637.195 239.911H637.048L635.054 247H633.111Z" fill="#171616"/>
<rect x="765" y="167" width="165" height="120" rx="11" fill="white"/>
<rect x="765" y="167" width="165" height="120" rx="11" stroke="#171616" stroke-width="2"/>
<path d="M779.413 220.409V233.5H777.438V220.409H779.413ZM784.048 227.67V233.5H782.136V223.682H783.971V225.28H784.092C784.318 224.76 784.672 224.342 785.153 224.027C785.639 223.712 786.251 223.554 786.988 223.554C787.657 223.554 788.243 223.695 788.746 223.976C789.249 224.253 789.638 224.666 789.915 225.216C790.192 225.766 790.331 226.445 790.331 227.255V233.5H788.42V227.485C788.42 226.773 788.234 226.217 787.864 225.817C787.493 225.412 786.984 225.21 786.336 225.21C785.893 225.21 785.499 225.305 785.153 225.497C784.813 225.689 784.542 225.97 784.342 226.341C784.146 226.707 784.048 227.151 784.048 227.67ZM797.477 223.682V225.216H792.114V223.682H797.477ZM793.553 221.33H795.464V230.617C795.464 230.988 795.519 231.267 795.63 231.455C795.741 231.638 795.884 231.763 796.058 231.832C796.237 231.896 796.431 231.928 796.64 231.928C796.793 231.928 796.928 231.917 797.043 231.896C797.158 231.874 797.247 231.857 797.311 231.844L797.656 233.423C797.545 233.466 797.388 233.509 797.183 233.551C796.979 233.598 796.723 233.624 796.416 233.628C795.913 233.636 795.445 233.547 795.01 233.359C794.575 233.172 794.224 232.882 793.955 232.49C793.687 232.098 793.553 231.606 793.553 231.013V221.33ZM803.718 233.698C802.75 233.698 801.917 233.491 801.218 233.078C800.524 232.661 799.987 232.075 799.607 231.32C799.232 230.562 799.045 229.673 799.045 228.655C799.045 227.649 799.232 226.763 799.607 225.996C799.987 225.229 800.515 224.63 801.193 224.2C801.874 223.769 802.671 223.554 803.583 223.554C804.137 223.554 804.674 223.646 805.194 223.829C805.714 224.012 806.181 224.3 806.594 224.692C807.007 225.084 807.333 225.593 807.572 226.219C807.811 226.842 807.93 227.598 807.93 228.489V229.166H800.125V227.734H806.057C806.057 227.232 805.955 226.786 805.75 226.398C805.546 226.006 805.258 225.697 804.887 225.472C804.521 225.246 804.09 225.133 803.596 225.133C803.059 225.133 802.59 225.265 802.19 225.529C801.794 225.789 801.487 226.13 801.269 226.552C801.056 226.969 800.95 227.423 800.95 227.913V229.032C800.95 229.688 801.065 230.246 801.295 230.707C801.529 231.167 801.855 231.518 802.273 231.761C802.691 232 803.178 232.119 803.737 232.119C804.099 232.119 804.429 232.068 804.727 231.966C805.026 231.859 805.284 231.702 805.501 231.493C805.718 231.284 805.884 231.026 805.999 230.719L807.808 231.045C807.664 231.578 807.404 232.045 807.029 232.445C806.658 232.842 806.191 233.151 805.629 233.372C805.07 233.589 804.433 233.698 803.718 233.698ZM810.05 233.5V223.682H811.898V225.241H812C812.179 224.713 812.494 224.298 812.946 223.995C813.402 223.688 813.918 223.535 814.493 223.535C814.612 223.535 814.753 223.539 814.915 223.548C815.081 223.556 815.211 223.567 815.305 223.58V225.408C815.228 225.386 815.092 225.363 814.896 225.337C814.7 225.308 814.504 225.293 814.308 225.293C813.856 225.293 813.453 225.388 813.099 225.58C812.75 225.768 812.473 226.03 812.268 226.366C812.064 226.699 811.962 227.078 811.962 227.504V233.5H810.05ZM825.657 223.682L822.096 233.5H820.051L816.484 223.682H818.536L821.022 231.237H821.125L823.605 223.682H825.657ZM827.453 233.5V223.682H829.364V233.5H827.453ZM828.418 222.167C828.086 222.167 827.8 222.056 827.561 221.835C827.327 221.609 827.21 221.34 827.21 221.029C827.21 220.714 827.327 220.445 827.561 220.224C827.8 219.998 828.086 219.885 828.418 219.885C828.75 219.885 829.034 219.998 829.268 220.224C829.507 220.445 829.626 220.714 829.626 221.029C829.626 221.34 829.507 221.609 829.268 221.835C829.034 222.056 828.75 222.167 828.418 222.167ZM836.167 233.698C835.199 233.698 834.366 233.491 833.667 233.078C832.973 232.661 832.436 232.075 832.057 231.32C831.682 230.562 831.494 229.673 831.494 228.655C831.494 227.649 831.682 226.763 832.057 225.996C832.436 225.229 832.964 224.63 833.642 224.2C834.324 223.769 835.121 223.554 836.032 223.554C836.586 223.554 837.123 223.646 837.643 223.829C838.163 224.012 838.63 224.3 839.043 224.692C839.456 225.084 839.782 225.593 840.021 226.219C840.26 226.842 840.379 227.598 840.379 228.489V229.166H832.574V227.734H838.506C838.506 227.232 838.404 226.786 838.199 226.398C837.995 226.006 837.707 225.697 837.336 225.472C836.97 225.246 836.54 225.133 836.045 225.133C835.508 225.133 835.04 225.265 834.639 225.529C834.243 225.789 833.936 226.13 833.719 226.552C833.506 226.969 833.399 227.423 833.399 227.913V229.032C833.399 229.688 833.514 230.246 833.744 230.707C833.979 231.167 834.305 231.518 834.722 231.761C835.14 232 835.628 232.119 836.186 232.119C836.548 232.119 836.878 232.068 837.177 231.966C837.475 231.859 837.733 231.702 837.95 231.493C838.167 231.284 838.334 231.026 838.449 230.719L840.258 231.045C840.113 231.578 839.853 232.045 839.478 232.445C839.107 232.842 838.64 233.151 838.078 233.372C837.52 233.589 836.883 233.698 836.167 233.698ZM844.611 233.5L841.721 223.682H843.697L845.621 230.892H845.716L847.647 223.682H849.622L851.54 230.86H851.635L853.547 223.682H855.522L852.639 233.5H850.689L848.695 226.411H848.548L846.554 233.5H844.611ZM862.253 233.5V220.409H866.919C867.933 220.409 868.775 220.584 869.444 220.933C870.117 221.283 870.62 221.766 870.952 222.384C871.285 222.998 871.451 223.707 871.451 224.513C871.451 225.314 871.282 226.019 870.946 226.629C870.613 227.234 870.111 227.705 869.437 228.041C868.768 228.378 867.927 228.546 866.912 228.546H863.378V226.846H866.733C867.373 226.846 867.893 226.754 868.293 226.571C868.698 226.388 868.994 226.121 869.182 225.772C869.369 225.423 869.463 225.003 869.463 224.513C869.463 224.018 869.367 223.59 869.175 223.228C868.988 222.866 868.692 222.589 868.287 222.397C867.886 222.201 867.36 222.103 866.708 222.103H864.228V233.5H862.253ZM868.715 227.594L871.949 233.5H869.699L866.529 227.594H868.715ZM877.809 233.698C876.842 233.698 876.009 233.491 875.31 233.078C874.615 232.661 874.078 232.075 873.699 231.32C873.324 230.562 873.137 229.673 873.137 228.655C873.137 227.649 873.324 226.763 873.699 225.996C874.078 225.229 874.607 224.63 875.284 224.2C875.966 223.769 876.763 223.554 877.675 223.554C878.229 223.554 878.766 223.646 879.286 223.829C879.806 224.012 880.272 224.3 880.686 224.692C881.099 225.084 881.425 225.593 881.664 226.219C881.902 226.842 882.022 227.598 882.022 228.489V229.166H874.217V227.734H880.149C880.149 227.232 880.047 226.786 879.842 226.398C879.637 226.006 879.35 225.697 878.979 225.472C878.613 225.246 878.182 225.133 877.688 225.133C877.151 225.133 876.682 225.265 876.282 225.529C875.885 225.789 875.578 226.13 875.361 226.552C875.148 226.969 875.042 227.423 875.042 227.913V229.032C875.042 229.688 875.157 230.246 875.387 230.707C875.621 231.167 875.947 231.518 876.365 231.761C876.782 232 877.27 232.119 877.828 232.119C878.191 232.119 878.521 232.068 878.819 231.966C879.118 231.859 879.375 231.702 879.593 231.493C879.81 231.284 879.976 231.026 880.091 230.719L881.9 231.045C881.755 231.578 881.495 232.045 881.12 232.445C880.75 232.842 880.283 233.151 879.721 233.372C879.162 233.589 878.525 233.698 877.809 233.698ZM884.142 237.182V223.682H886.009V225.273H886.169C886.279 225.069 886.439 224.832 886.648 224.564C886.857 224.295 887.146 224.061 887.517 223.861C887.888 223.656 888.378 223.554 888.987 223.554C889.78 223.554 890.487 223.754 891.11 224.155C891.732 224.555 892.22 225.133 892.573 225.887C892.931 226.641 893.11 227.549 893.11 228.61C893.11 229.671 892.933 230.581 892.58 231.339C892.226 232.094 891.74 232.675 891.122 233.085C890.504 233.489 889.799 233.692 889.007 233.692C888.41 233.692 887.922 233.592 887.543 233.391C887.168 233.191 886.874 232.957 886.661 232.688C886.448 232.42 886.284 232.181 886.169 231.972H886.053V237.182H884.142ZM886.015 228.591C886.015 229.281 886.115 229.886 886.316 230.406C886.516 230.926 886.806 231.333 887.185 231.627C887.564 231.917 888.029 232.062 888.578 232.062C889.149 232.062 889.627 231.911 890.01 231.608C890.394 231.301 890.683 230.886 890.879 230.362C891.08 229.837 891.18 229.247 891.18 228.591C891.18 227.943 891.082 227.362 890.886 226.846C890.694 226.33 890.404 225.923 890.017 225.625C889.633 225.327 889.154 225.178 888.578 225.178C888.024 225.178 887.556 225.32 887.172 225.606C886.793 225.891 886.505 226.29 886.309 226.801C886.113 227.312 886.015 227.909 886.015 228.591ZM899.387 233.698C898.467 233.698 897.664 233.487 896.977 233.065C896.291 232.643 895.759 232.053 895.379 231.295C895 230.536 894.811 229.65 894.811 228.636C894.811 227.617 895 226.727 895.379 225.964C895.759 225.201 896.291 224.609 896.977 224.187C897.664 223.765 898.467 223.554 899.387 223.554C900.308 223.554 901.111 223.765 901.797 224.187C902.483 224.609 903.016 225.201 903.395 225.964C903.774 226.727 903.964 227.617 903.964 228.636C903.964 229.65 903.774 230.536 903.395 231.295C903.016 232.053 902.483 232.643 901.797 233.065C901.111 233.487 900.308 233.698 899.387 233.698ZM899.394 232.094C899.99 232.094 900.485 231.936 900.877 231.621C901.269 231.305 901.558 230.886 901.746 230.362C901.938 229.837 902.034 229.26 902.034 228.629C902.034 228.003 901.938 227.428 901.746 226.903C901.558 226.375 901.269 225.951 900.877 225.631C900.485 225.312 899.99 225.152 899.394 225.152C898.793 225.152 898.294 225.312 897.898 225.631C897.506 225.951 897.214 226.375 897.022 226.903C896.835 227.428 896.741 228.003 896.741 228.629C896.741 229.26 896.835 229.837 897.022 230.362C897.214 230.886 897.506 231.305 897.898 231.621C898.294 231.936 898.793 232.094 899.394 232.094ZM906.097 233.5V223.682H907.945V225.241H908.047C908.226 224.713 908.541 224.298 908.993 223.995C909.449 223.688 909.964 223.535 910.54 223.535C910.659 223.535 910.8 223.539 910.962 223.548C911.128 223.556 911.258 223.567 911.352 223.58V225.408C911.275 225.386 911.138 225.363 910.942 225.337C910.746 225.308 910.55 225.293 910.354 225.293C909.903 225.293 909.5 225.388 909.146 225.58C908.797 225.768 908.52 226.03 908.315 226.366C908.111 226.699 908.009 227.078 908.009 227.504V233.5H906.097ZM918.169 223.682V225.216H912.806V223.682H918.169ZM914.244 221.33H916.155V230.617C916.155 230.988 916.211 231.267 916.321 231.455C916.432 231.638 916.575 231.763 916.75 231.832C916.929 231.896 917.123 231.928 917.331 231.928C917.485 231.928 917.619 231.917 917.734 231.896C917.849 231.874 917.939 231.857 918.002 231.844L918.348 233.423C918.237 233.466 918.079 233.509 917.875 233.551C917.67 233.598 917.414 233.624 917.108 233.628C916.605 233.636 916.136 233.547 915.701 233.359C915.267 233.172 914.915 232.882 914.647 232.49C914.378 232.098 914.244 231.606 914.244 231.013V221.33Z" fill="#171616"/>
<rect x="240" y="166" width="137" height="122" rx="39" fill="#0061FE"/>
<path d="M316.189 201.512C316.189 199.692 314.715 198.217 312.908 198.217H304.095C302.283 198.217 300.815 199.697 300.815 201.512V202.758H292.537V218.94L294.125 219.22V228.104H322.874V219.225L324.462 218.944V202.762H316.189V201.512ZM303.391 201.512C303.391 201.122 303.706 200.805 304.095 200.805H312.908C313.297 200.805 313.613 201.122 313.613 201.512V202.758H303.391V201.512ZM320.298 225.521H296.706V219.684L304.74 221.109V221.955C304.74 223.453 305.958 224.675 307.449 224.675H309.554C311.046 224.675 312.263 223.453 312.263 221.955V221.109L320.298 219.684V225.521ZM309.682 220.02V221.955C309.682 222.028 309.623 222.088 309.549 222.088H307.445C307.371 222.088 307.312 222.028 307.312 221.955V217.092C307.312 217.019 307.371 216.959 307.445 216.959H309.549C309.623 216.959 309.682 217.019 309.682 217.092V220.02ZM321.886 216.77L312.263 218.476V217.092C312.263 215.594 311.046 214.371 309.554 214.371H307.449C305.958 214.371 304.74 215.594 304.74 217.092V218.476L295.118 216.77V205.35H321.886V216.77Z" fill="white"/>
<path d="M298.526 238.409H300.495V247.69C300.495 248.53 300.329 249.248 299.996 249.844C299.668 250.441 299.206 250.897 298.609 251.212C298.013 251.523 297.314 251.679 296.513 251.679C295.776 251.679 295.113 251.545 294.525 251.276C293.941 251.008 293.479 250.618 293.138 250.107C292.801 249.591 292.633 248.964 292.633 248.227H294.595C294.595 248.589 294.678 248.903 294.844 249.167C295.015 249.431 295.247 249.638 295.541 249.787C295.839 249.932 296.18 250.004 296.564 250.004C296.982 250.004 297.335 249.917 297.625 249.742C297.919 249.563 298.143 249.301 298.296 248.956C298.45 248.611 298.526 248.189 298.526 247.69V238.409ZM307.352 251.698C306.432 251.698 305.628 251.487 304.942 251.065C304.256 250.643 303.724 250.053 303.344 249.295C302.965 248.536 302.775 247.65 302.775 246.636C302.775 245.617 302.965 244.727 303.344 243.964C303.724 243.201 304.256 242.609 304.942 242.187C305.628 241.765 306.432 241.554 307.352 241.554C308.273 241.554 309.076 241.765 309.762 242.187C310.448 242.609 310.981 243.201 311.36 243.964C311.739 244.727 311.929 245.617 311.929 246.636C311.929 247.65 311.739 248.536 311.36 249.295C310.981 250.053 310.448 250.643 309.762 251.065C309.076 251.487 308.273 251.698 307.352 251.698ZM307.358 250.094C307.955 250.094 308.449 249.936 308.841 249.621C309.233 249.305 309.523 248.886 309.711 248.362C309.903 247.837 309.998 247.26 309.998 246.629C309.998 246.003 309.903 245.428 309.711 244.903C309.523 244.375 309.233 243.951 308.841 243.631C308.449 243.312 307.955 243.152 307.358 243.152C306.758 243.152 306.259 243.312 305.863 243.631C305.471 243.951 305.179 244.375 304.987 244.903C304.8 245.428 304.706 246.003 304.706 246.629C304.706 247.26 304.8 247.837 304.987 248.362C305.179 248.886 305.471 249.305 305.863 249.621C306.259 249.936 306.758 250.094 307.358 250.094ZM314.216 251.5V238.409H316.127V243.273H316.242C316.353 243.069 316.512 242.832 316.721 242.564C316.93 242.295 317.22 242.061 317.591 241.861C317.961 241.656 318.451 241.554 319.061 241.554C319.853 241.554 320.561 241.754 321.183 242.155C321.805 242.555 322.293 243.133 322.647 243.887C323.005 244.641 323.184 245.549 323.184 246.61C323.184 247.671 323.007 248.581 322.653 249.339C322.299 250.094 321.814 250.675 321.196 251.085C320.578 251.489 319.873 251.692 319.08 251.692C318.483 251.692 317.995 251.592 317.616 251.391C317.241 251.191 316.947 250.957 316.734 250.688C316.521 250.42 316.357 250.181 316.242 249.972H316.082V251.5H314.216ZM316.088 246.591C316.088 247.281 316.189 247.886 316.389 248.406C316.589 248.926 316.879 249.333 317.258 249.627C317.637 249.917 318.102 250.062 318.652 250.062C319.223 250.062 319.7 249.911 320.083 249.608C320.467 249.301 320.757 248.886 320.953 248.362C321.153 247.837 321.253 247.247 321.253 246.591C321.253 245.943 321.155 245.362 320.959 244.846C320.767 244.33 320.478 243.923 320.09 243.625C319.706 243.327 319.227 243.178 318.652 243.178C318.098 243.178 317.629 243.32 317.245 243.606C316.866 243.891 316.578 244.29 316.382 244.801C316.186 245.312 316.088 245.909 316.088 246.591Z" fill="white"/>
<path d="M380.5 226C379.948 226 379.5 226.448 379.5 227C379.5 227.552 379.948 228 380.5 228V227V226ZM478.5 231.44C478.5 231.992 479.176 232.383 479.655 232.107L487.345 227.667C487.824 227.391 487.824 226.609 487.345 226.333L479.655 221.893C479.176 221.617 478.5 222.008 478.5 222.56V231.44ZM380.5 227V228H479.5V227V226H380.5V227Z" fill="#0061FE"/>
<path d="M308.5 291.5V325.5" stroke="#0061FE" stroke-width="2" stroke-linecap="round" stroke-linejoin="bevel" stroke-dasharray="4 4"/>
<path d="M126.5 226C125.948 226 125.5 226.448 125.5 227C125.5 227.552 125.948 228 126.5 228V227V226ZM226.5 231.44C226.5 231.992 227.176 232.383 227.655 232.107L235.345 227.667C235.824 227.391 235.824 226.609 235.345 226.333L227.655 221.893C227.176 221.617 226.5 222.008 226.5 222.56V231.44ZM126.5 227V228H227.5V227V226H126.5V227Z" fill="#0061FE"/>
<path d="M65.9402 302.5C66.4925 302.5 66.883 301.824 66.6068 301.345L62.1667 293.655C61.8905 293.176 61.1095 293.176 60.8333 293.655L56.3932 301.345C56.117 301.824 56.5075 302.5 57.0598 302.5H65.9402ZM233.5 394.94C233.5 395.492 234.176 395.883 234.655 395.607L242.345 391.167C242.824 390.891 242.824 390.109 242.345 389.833L234.655 385.393C234.176 385.117 233.5 385.508 233.5 386.06V394.94ZM61.5 301.5H60.5V366.5H61.5H62.5V301.5H61.5ZM85.5 390.5V391.5H234.5V390.5V389.5H85.5V390.5ZM61.5 366.5H60.5C60.5 380.307 71.6929 391.5 85.5 391.5V390.5V389.5C72.7975 389.5 62.5 379.203 62.5 366.5H61.5Z" fill="#0061FE"/>
<path d="M671.5 226C670.948 226 670.5 226.448 670.5 227C670.5 227.552 670.948 228 671.5 228V227V226ZM750.5 231.44C750.5 231.992 751.176 232.383 751.655 232.107L759.345 227.667C759.824 227.391 759.824 226.609 759.345 226.333L751.655 221.893C751.176 221.617 750.5 222.008 750.5 222.56V231.44ZM671.5 227V228H751.5V227V226H671.5V227Z" fill="#0061FE"/>
<path d="M671.5 226C670.948 226 670.5 226.448 670.5 227C670.5 227.552 670.948 228 671.5 228V227V226ZM750.5 231.44C750.5 231.992 751.176 232.383 751.655 232.107L759.345 227.667C759.824 227.391 759.824 226.609 759.345 226.333L751.655 221.893C751.176 221.617 750.5 222.008 750.5 222.56V231.44ZM671.5 227V228H751.5V227V226H671.5V227Z" fill="#0061FE"/>
<path d="M848.5 291.5C848.5 290.948 848.052 290.5 847.5 290.5C846.948 290.5 846.5 290.948 846.5 291.5H847.5H848.5ZM553.438 469C552.885 469 552.438 469.448 552.438 470C552.438 470.552 552.885 471 553.438 471V470V469ZM355.562 471C356.115 471 356.562 470.552 356.562 470C356.562 469.448 356.115 469 355.562 469V470V471ZM65.9402 302.5C66.4925 302.5 66.883 301.824 66.6068 301.345L62.1667 293.655C61.8905 293.176 61.1095 293.176 60.8333 293.655L56.3932 301.345C56.117 301.824 56.5075 302.5 57.0598 302.5H65.9402ZM847.5 291.5H846.5V446H847.5H848.5V291.5H847.5ZM823.5 470V469H553.438V470V471H823.5V470ZM355.562 470V469H85.5V470V471H355.562V470ZM61.5 446H62.5V301.5H61.5H60.5V446H61.5ZM85.5 470V469C72.7975 469 62.5 458.703 62.5 446H61.5H60.5C60.5 459.807 71.6929 471 85.5 471V470ZM847.5 446H846.5C846.5 458.703 836.203 469 823.5 469V470V471C837.307 471 848.5 459.807 848.5 446H847.5Z" fill="#0061FE"/>
<path d="M366.675 476.5H364.578L369.289 463.409H371.571L376.282 476.5H374.186L370.485 465.787H370.382L366.675 476.5ZM367.026 471.374H373.828V473.036H367.026V471.374ZM381.997 476.698C381.046 476.698 380.228 476.483 379.542 476.053C378.86 475.618 378.336 475.019 377.97 474.256C377.603 473.494 377.42 472.62 377.42 471.636C377.42 470.638 377.607 469.759 377.982 468.996C378.357 468.229 378.886 467.63 379.568 467.2C380.249 466.769 381.053 466.554 381.977 466.554C382.723 466.554 383.388 466.692 383.972 466.969C384.556 467.242 385.026 467.626 385.384 468.12C385.747 468.614 385.962 469.192 386.03 469.852H384.17C384.068 469.392 383.833 468.996 383.467 468.663C383.105 468.331 382.619 468.165 382.009 468.165C381.477 468.165 381.01 468.305 380.61 468.587C380.213 468.864 379.904 469.26 379.683 469.776C379.461 470.287 379.35 470.892 379.35 471.591C379.35 472.307 379.459 472.925 379.676 473.445C379.894 473.964 380.2 474.367 380.597 474.653C380.997 474.938 381.468 475.081 382.009 475.081C382.372 475.081 382.7 475.015 382.994 474.883C383.292 474.746 383.541 474.553 383.742 474.301C383.946 474.05 384.089 473.747 384.17 473.393H386.03C385.962 474.028 385.755 474.595 385.41 475.094C385.065 475.592 384.602 475.984 384.023 476.27C383.448 476.555 382.772 476.698 381.997 476.698ZM392.657 466.682V468.216H387.294V466.682H392.657ZM388.732 464.33H390.643V473.617C390.643 473.988 390.699 474.267 390.81 474.455C390.92 474.638 391.063 474.763 391.238 474.832C391.417 474.896 391.611 474.928 391.82 474.928C391.973 474.928 392.107 474.917 392.222 474.896C392.337 474.874 392.427 474.857 392.491 474.844L392.836 476.423C392.725 476.466 392.567 476.509 392.363 476.551C392.158 476.598 391.903 476.624 391.596 476.628C391.093 476.636 390.624 476.547 390.19 476.359C389.755 476.172 389.403 475.882 389.135 475.49C388.866 475.098 388.732 474.606 388.732 474.013V464.33ZM394.771 476.5V466.682H396.682V476.5H394.771ZM395.736 465.167C395.404 465.167 395.118 465.056 394.88 464.835C394.645 464.609 394.528 464.34 394.528 464.029C394.528 463.714 394.645 463.445 394.88 463.224C395.118 462.998 395.404 462.885 395.736 462.885C396.069 462.885 396.352 462.998 396.586 463.224C396.825 463.445 396.944 463.714 396.944 464.029C396.944 464.34 396.825 464.609 396.586 464.835C396.352 465.056 396.069 465.167 395.736 465.167ZM403.389 476.698C402.469 476.698 401.665 476.487 400.979 476.065C400.293 475.643 399.761 475.053 399.381 474.295C399.002 473.536 398.812 472.65 398.812 471.636C398.812 470.617 399.002 469.727 399.381 468.964C399.761 468.201 400.293 467.609 400.979 467.187C401.665 466.765 402.469 466.554 403.389 466.554C404.31 466.554 405.113 466.765 405.799 467.187C406.485 467.609 407.018 468.201 407.397 468.964C407.776 469.727 407.966 470.617 407.966 471.636C407.966 472.65 407.776 473.536 407.397 474.295C407.018 475.053 406.485 475.643 405.799 476.065C405.113 476.487 404.31 476.698 403.389 476.698ZM403.396 475.094C403.992 475.094 404.487 474.936 404.879 474.621C405.271 474.305 405.56 473.886 405.748 473.362C405.94 472.837 406.036 472.26 406.036 471.629C406.036 471.003 405.94 470.428 405.748 469.903C405.56 469.375 405.271 468.951 404.879 468.631C404.487 468.312 403.992 468.152 403.396 468.152C402.795 468.152 402.296 468.312 401.9 468.631C401.508 468.951 401.216 469.375 401.024 469.903C400.837 470.428 400.743 471.003 400.743 471.629C400.743 472.26 400.837 472.837 401.024 473.362C401.216 473.886 401.508 474.305 401.9 474.621C402.296 474.936 402.795 475.094 403.396 475.094ZM412.01 470.67V476.5H410.099V466.682H411.934V468.28H412.055C412.281 467.76 412.635 467.342 413.116 467.027C413.602 466.712 414.214 466.554 414.951 466.554C415.62 466.554 416.206 466.695 416.709 466.976C417.211 467.253 417.601 467.666 417.878 468.216C418.155 468.766 418.294 469.445 418.294 470.255V476.5H416.383V470.485C416.383 469.773 416.197 469.217 415.827 468.817C415.456 468.412 414.947 468.21 414.299 468.21C413.856 468.21 413.461 468.305 413.116 468.497C412.775 468.689 412.505 468.97 412.305 469.341C412.108 469.707 412.01 470.151 412.01 470.67ZM423.714 476.717C423.092 476.717 422.53 476.602 422.027 476.372C421.524 476.138 421.126 475.799 420.831 475.356C420.542 474.913 420.397 474.369 420.397 473.726C420.397 473.172 420.503 472.716 420.716 472.358C420.93 472 421.217 471.717 421.579 471.508C421.942 471.299 422.346 471.141 422.794 471.035C423.241 470.928 423.697 470.847 424.162 470.792C424.75 470.724 425.227 470.668 425.594 470.626C425.96 470.579 426.226 470.504 426.393 470.402C426.559 470.3 426.642 470.134 426.642 469.903V469.859C426.642 469.3 426.484 468.868 426.169 468.561C425.858 468.254 425.393 468.101 424.775 468.101C424.132 468.101 423.625 468.244 423.254 468.529C422.888 468.81 422.634 469.124 422.493 469.469L420.697 469.06C420.91 468.463 421.221 467.982 421.631 467.615C422.044 467.244 422.519 466.976 423.056 466.81C423.593 466.639 424.157 466.554 424.75 466.554C425.142 466.554 425.557 466.601 425.996 466.695C426.439 466.784 426.853 466.95 427.236 467.193C427.624 467.436 427.942 467.783 428.189 468.235C428.436 468.683 428.559 469.264 428.559 469.98V476.5H426.693V475.158H426.616C426.493 475.405 426.307 475.648 426.06 475.886C425.813 476.125 425.496 476.323 425.108 476.481C424.72 476.638 424.256 476.717 423.714 476.717ZM424.13 475.183C424.658 475.183 425.11 475.079 425.485 474.87C425.864 474.661 426.152 474.388 426.348 474.052C426.548 473.711 426.648 473.347 426.648 472.959V471.693C426.58 471.761 426.448 471.825 426.252 471.885C426.06 471.94 425.841 471.989 425.594 472.032C425.346 472.07 425.106 472.107 424.871 472.141C424.637 472.17 424.441 472.196 424.283 472.217C423.912 472.264 423.574 472.343 423.267 472.454C422.964 472.565 422.721 472.724 422.538 472.933C422.359 473.138 422.27 473.411 422.27 473.751C422.27 474.224 422.444 474.582 422.794 474.825C423.143 475.064 423.589 475.183 424.13 475.183ZM431.259 476.5V463.409H433.17V468.273H433.285C433.396 468.069 433.555 467.832 433.764 467.564C433.973 467.295 434.263 467.061 434.634 466.861C435.004 466.656 435.494 466.554 436.104 466.554C436.896 466.554 437.604 466.754 438.226 467.155C438.848 467.555 439.336 468.133 439.69 468.887C440.048 469.641 440.227 470.549 440.227 471.61C440.227 472.671 440.05 473.581 439.696 474.339C439.342 475.094 438.857 475.675 438.239 476.085C437.621 476.489 436.915 476.692 436.123 476.692C435.526 476.692 435.038 476.592 434.659 476.391C434.284 476.191 433.99 475.957 433.777 475.688C433.564 475.42 433.4 475.181 433.285 474.972H433.125V476.5H431.259ZM433.131 471.591C433.131 472.281 433.232 472.886 433.432 473.406C433.632 473.926 433.922 474.333 434.301 474.627C434.68 474.917 435.145 475.062 435.695 475.062C436.266 475.062 436.743 474.911 437.126 474.608C437.51 474.301 437.8 473.886 437.996 473.362C438.196 472.837 438.296 472.247 438.296 471.591C438.296 470.943 438.198 470.362 438.002 469.846C437.81 469.33 437.521 468.923 437.133 468.625C436.749 468.327 436.27 468.178 435.695 468.178C435.141 468.178 434.672 468.32 434.288 468.606C433.909 468.891 433.621 469.29 433.425 469.801C433.229 470.312 433.131 470.909 433.131 471.591ZM444.284 463.409V476.5H442.373V463.409H444.284ZM451.087 476.698C450.119 476.698 449.286 476.491 448.587 476.078C447.893 475.661 447.356 475.075 446.977 474.32C446.602 473.562 446.414 472.673 446.414 471.655C446.414 470.649 446.602 469.763 446.977 468.996C447.356 468.229 447.884 467.63 448.562 467.2C449.244 466.769 450.04 466.554 450.952 466.554C451.506 466.554 452.043 466.646 452.563 466.829C453.083 467.012 453.55 467.3 453.963 467.692C454.376 468.084 454.702 468.593 454.941 469.219C455.18 469.842 455.299 470.598 455.299 471.489V472.166H447.494V470.734H453.426C453.426 470.232 453.324 469.786 453.119 469.398C452.915 469.006 452.627 468.697 452.256 468.472C451.89 468.246 451.46 468.133 450.965 468.133C450.428 468.133 449.96 468.265 449.559 468.529C449.163 468.789 448.856 469.13 448.638 469.552C448.425 469.969 448.319 470.423 448.319 470.913V472.032C448.319 472.688 448.434 473.246 448.664 473.707C448.898 474.167 449.224 474.518 449.642 474.761C450.06 475 450.548 475.119 451.106 475.119C451.468 475.119 451.798 475.068 452.097 474.966C452.395 474.859 452.653 474.702 452.87 474.493C453.087 474.284 453.254 474.026 453.369 473.719L455.178 474.045C455.033 474.578 454.773 475.045 454.398 475.445C454.027 475.842 453.56 476.151 452.998 476.372C452.44 476.589 451.803 476.698 451.087 476.698ZM462.337 476.5V463.409H470.455V465.109H464.312V469.098H469.873V470.792H464.312V476.5H462.337ZM476.241 476.698C475.274 476.698 474.441 476.491 473.742 476.078C473.047 475.661 472.51 475.075 472.131 474.32C471.756 473.562 471.568 472.673 471.568 471.655C471.568 470.649 471.756 469.763 472.131 468.996C472.51 468.229 473.039 467.63 473.716 467.2C474.398 466.769 475.195 466.554 476.107 466.554C476.661 466.554 477.198 466.646 477.718 466.829C478.237 467.012 478.704 467.3 479.117 467.692C479.531 468.084 479.857 468.593 480.095 469.219C480.334 469.842 480.453 470.598 480.453 471.489V472.166H472.649V470.734H478.58C478.58 470.232 478.478 469.786 478.274 469.398C478.069 469.006 477.781 468.697 477.411 468.472C477.044 468.246 476.614 468.133 476.119 468.133C475.583 468.133 475.114 468.265 474.713 468.529C474.317 468.789 474.01 469.13 473.793 469.552C473.58 469.969 473.473 470.423 473.473 470.913V472.032C473.473 472.688 473.588 473.246 473.818 473.707C474.053 474.167 474.379 474.518 474.796 474.761C475.214 475 475.702 475.119 476.26 475.119C476.622 475.119 476.953 475.068 477.251 474.966C477.549 474.859 477.807 474.702 478.024 474.493C478.242 474.284 478.408 474.026 478.523 473.719L480.332 474.045C480.187 474.578 479.927 475.045 479.552 475.445C479.181 475.842 478.715 476.151 478.152 476.372C477.594 476.589 476.957 476.698 476.241 476.698ZM486.805 476.698C485.838 476.698 485.005 476.491 484.306 476.078C483.612 475.661 483.075 475.075 482.695 474.32C482.32 473.562 482.133 472.673 482.133 471.655C482.133 470.649 482.32 469.763 482.695 468.996C483.075 468.229 483.603 467.63 484.281 467.2C484.962 466.769 485.759 466.554 486.671 466.554C487.225 466.554 487.762 466.646 488.282 466.829C488.802 467.012 489.268 467.3 489.682 467.692C490.095 468.084 490.421 468.593 490.66 469.219C490.898 469.842 491.018 470.598 491.018 471.489V472.166H483.213V470.734H489.145C489.145 470.232 489.043 469.786 488.838 469.398C488.634 469.006 488.346 468.697 487.975 468.472C487.609 468.246 487.178 468.133 486.684 468.133C486.147 468.133 485.678 468.265 485.278 468.529C484.881 468.789 484.575 469.13 484.357 469.552C484.144 469.969 484.038 470.423 484.038 470.913V472.032C484.038 472.688 484.153 473.246 484.383 473.707C484.617 474.167 484.943 474.518 485.361 474.761C485.778 475 486.266 475.119 486.825 475.119C487.187 475.119 487.517 475.068 487.815 474.966C488.114 474.859 488.371 474.702 488.589 474.493C488.806 474.284 488.972 474.026 489.087 473.719L490.896 474.045C490.751 474.578 490.491 475.045 490.116 475.445C489.746 475.842 489.279 476.151 488.717 476.372C488.158 476.589 487.521 476.698 486.805 476.698ZM496.814 476.692C496.021 476.692 495.314 476.489 494.692 476.085C494.074 475.675 493.588 475.094 493.234 474.339C492.885 473.581 492.71 472.671 492.71 471.61C492.71 470.549 492.887 469.641 493.241 468.887C493.599 468.133 494.089 467.555 494.711 467.155C495.333 466.754 496.038 466.554 496.827 466.554C497.436 466.554 497.926 466.656 498.297 466.861C498.672 467.061 498.961 467.295 499.166 467.564C499.375 467.832 499.537 468.069 499.652 468.273H499.767V463.409H501.678V476.5H499.812V474.972H499.652C499.537 475.181 499.371 475.42 499.153 475.688C498.94 475.957 498.646 476.191 498.271 476.391C497.896 476.592 497.41 476.692 496.814 476.692ZM497.236 475.062C497.785 475.062 498.25 474.917 498.629 474.627C499.013 474.333 499.302 473.926 499.498 473.406C499.699 472.886 499.799 472.281 499.799 471.591C499.799 470.909 499.701 470.312 499.505 469.801C499.309 469.29 499.021 468.891 498.642 468.606C498.263 468.32 497.794 468.178 497.236 468.178C496.66 468.178 496.181 468.327 495.797 468.625C495.414 468.923 495.124 469.33 494.928 469.846C494.736 470.362 494.64 470.943 494.64 471.591C494.64 472.247 494.738 472.837 494.934 473.362C495.131 473.886 495.42 474.301 495.804 474.608C496.192 474.911 496.669 475.062 497.236 475.062ZM504.559 476.5V463.409H506.471V468.273H506.586C506.696 468.069 506.856 467.832 507.065 467.564C507.274 467.295 507.564 467.061 507.934 466.861C508.305 466.656 508.795 466.554 509.404 466.554C510.197 466.554 510.904 466.754 511.527 467.155C512.149 467.555 512.637 468.133 512.99 468.887C513.348 469.641 513.527 470.549 513.527 471.61C513.527 472.671 513.35 473.581 512.997 474.339C512.643 475.094 512.157 475.675 511.539 476.085C510.922 476.489 510.216 476.692 509.424 476.692C508.827 476.692 508.339 476.592 507.96 476.391C507.585 476.191 507.291 475.957 507.078 475.688C506.865 475.42 506.701 475.181 506.586 474.972H506.426V476.5H504.559ZM506.432 471.591C506.432 472.281 506.532 472.886 506.733 473.406C506.933 473.926 507.223 474.333 507.602 474.627C507.981 474.917 508.446 475.062 508.995 475.062C509.566 475.062 510.044 474.911 510.427 474.608C510.811 474.301 511.1 473.886 511.297 473.362C511.497 472.837 511.597 472.247 511.597 471.591C511.597 470.943 511.499 470.362 511.303 469.846C511.111 469.33 510.821 468.923 510.434 468.625C510.05 468.327 509.571 468.178 508.995 468.178C508.441 468.178 507.973 468.32 507.589 468.606C507.21 468.891 506.922 469.29 506.726 469.801C506.53 470.312 506.432 470.909 506.432 471.591ZM518.531 476.717C517.909 476.717 517.346 476.602 516.843 476.372C516.34 476.138 515.942 475.799 515.648 475.356C515.358 474.913 515.213 474.369 515.213 473.726C515.213 473.172 515.32 472.716 515.533 472.358C515.746 472 516.034 471.717 516.396 471.508C516.758 471.299 517.163 471.141 517.61 471.035C518.058 470.928 518.514 470.847 518.978 470.792C519.566 470.724 520.044 470.668 520.41 470.626C520.776 470.579 521.043 470.504 521.209 470.402C521.375 470.3 521.458 470.134 521.458 469.903V469.859C521.458 469.3 521.301 468.868 520.985 468.561C520.674 468.254 520.21 468.101 519.592 468.101C518.948 468.101 518.441 468.244 518.07 468.529C517.704 468.81 517.45 469.124 517.31 469.469L515.514 469.06C515.727 468.463 516.038 467.982 516.447 467.615C516.86 467.244 517.335 466.976 517.872 466.81C518.409 466.639 518.974 466.554 519.566 466.554C519.958 466.554 520.374 466.601 520.813 466.695C521.256 466.784 521.669 466.95 522.053 467.193C522.441 467.436 522.758 467.783 523.005 468.235C523.252 468.683 523.376 469.264 523.376 469.98V476.5H521.509V475.158H521.433C521.309 475.405 521.124 475.648 520.877 475.886C520.629 476.125 520.312 476.323 519.924 476.481C519.536 476.638 519.072 476.717 518.531 476.717ZM518.946 475.183C519.475 475.183 519.926 475.079 520.301 474.87C520.681 474.661 520.968 474.388 521.164 474.052C521.365 473.711 521.465 473.347 521.465 472.959V471.693C521.396 471.761 521.264 471.825 521.068 471.885C520.877 471.94 520.657 471.989 520.41 472.032C520.163 472.07 519.922 472.107 519.688 472.141C519.453 472.17 519.257 472.196 519.1 472.217C518.729 472.264 518.39 472.343 518.083 472.454C517.781 472.565 517.538 472.724 517.355 472.933C517.176 473.138 517.086 473.411 517.086 473.751C517.086 474.224 517.261 474.582 517.61 474.825C517.96 475.064 518.405 475.183 518.946 475.183ZM530.057 476.698C529.107 476.698 528.289 476.483 527.603 476.053C526.921 475.618 526.397 475.019 526.03 474.256C525.664 473.494 525.48 472.62 525.48 471.636C525.48 470.638 525.668 469.759 526.043 468.996C526.418 468.229 526.946 467.63 527.628 467.2C528.31 466.769 529.113 466.554 530.038 466.554C530.784 466.554 531.449 466.692 532.032 466.969C532.616 467.242 533.087 467.626 533.445 468.12C533.807 468.614 534.022 469.192 534.091 469.852H532.23C532.128 469.392 531.894 468.996 531.527 468.663C531.165 468.331 530.679 468.165 530.07 468.165C529.537 468.165 529.071 468.305 528.67 468.587C528.274 468.864 527.965 469.26 527.743 469.776C527.522 470.287 527.411 470.892 527.411 471.591C527.411 472.307 527.52 472.925 527.737 473.445C527.954 473.964 528.261 474.367 528.657 474.653C529.058 474.938 529.529 475.081 530.07 475.081C530.432 475.081 530.76 475.015 531.054 474.883C531.353 474.746 531.602 474.553 531.802 474.301C532.007 474.05 532.15 473.747 532.23 473.393H534.091C534.022 474.028 533.816 474.595 533.471 475.094C533.125 475.592 532.663 475.984 532.083 476.27C531.508 476.555 530.833 476.698 530.057 476.698ZM537.892 473.17L537.879 470.837H538.212L542.124 466.682H544.412L539.95 471.412H539.65L537.892 473.17ZM536.134 476.5V463.409H538.046V476.5H536.134ZM542.335 476.5L538.819 471.834L540.136 470.498L544.681 476.5H542.335Z" fill="black" fill-opacity="0.8"/>
<path d="M782.5 62.5C783.052 62.5 783.5 62.0523 783.5 61.5C783.5 60.9477 783.052 60.5 782.5 60.5V61.5V62.5ZM607.723 60.5C607.17 60.5 606.723 60.9477 606.723 61.5C606.723 62.0523 607.17 62.5 607.723 62.5V61.5V60.5ZM314.848 62.5C315.4 62.5 315.848 62.0523 315.848 61.5C315.848 60.9477 315.4 60.5 314.848 60.5V61.5V62.5ZM57.0598 152.5C56.5075 152.5 56.117 153.176 56.3932 153.655L60.8333 161.345C61.1095 161.824 61.8905 161.824 62.1667 161.345L66.6068 153.655C66.883 153.176 66.4925 152.5 65.9402 152.5H57.0598ZM782.5 61.5V60.5H607.723V61.5V62.5H782.5V61.5ZM314.848 61.5V60.5H85.5V61.5V62.5H314.848V61.5ZM61.5 85.5H60.5V153.5H61.5H62.5V85.5H61.5ZM85.5 61.5V60.5C71.6929 60.5 60.5 71.6929 60.5 85.5H61.5H62.5C62.5 72.7975 72.7975 62.5 85.5 62.5V61.5Z" fill="#0061FE"/>
<path d="M324.841 68V54.9091H329.507C330.525 54.9091 331.369 55.0945 332.038 55.4652C332.707 55.8359 333.208 56.343 333.54 56.9865C333.873 57.6257 334.039 58.3459 334.039 59.147C334.039 59.9524 333.87 60.6768 333.534 61.3203C333.201 61.9595 332.699 62.4666 332.025 62.8416C331.356 63.2124 330.515 63.3977 329.5 63.3977H326.292V61.723H329.321C329.965 61.723 330.487 61.6122 330.887 61.3906C331.288 61.1648 331.582 60.858 331.77 60.4702C331.957 60.0824 332.051 59.6413 332.051 59.147C332.051 58.6527 331.957 58.2138 331.77 57.8303C331.582 57.4467 331.286 57.1463 330.881 56.929C330.48 56.7116 329.952 56.603 329.296 56.603H326.816V68H324.841ZM340.309 68.1982C339.342 68.1982 338.509 67.9915 337.81 67.5781C337.115 67.1605 336.578 66.5746 336.199 65.8203C335.824 65.0618 335.637 64.1733 335.637 63.1548C335.637 62.1491 335.824 61.2628 336.199 60.4957C336.578 59.7287 337.107 59.13 337.784 58.6996C338.466 58.2692 339.263 58.054 340.175 58.054C340.729 58.054 341.266 58.1456 341.786 58.3288C342.306 58.5121 342.772 58.7997 343.186 59.1918C343.599 59.5838 343.925 60.093 344.164 60.7195C344.402 61.3416 344.522 62.098 344.522 62.9886V63.6662H336.717V62.2344H342.649C342.649 61.7315 342.547 61.2862 342.342 60.8984C342.137 60.5064 341.85 60.1974 341.479 59.9716C341.113 59.7457 340.682 59.6328 340.188 59.6328C339.651 59.6328 339.182 59.7649 338.782 60.0291C338.385 60.2891 338.078 60.63 337.861 61.0518C337.648 61.4695 337.542 61.9233 337.542 62.4134V63.532C337.542 64.1882 337.657 64.7464 337.887 65.2067C338.121 65.6669 338.447 66.0185 338.865 66.2614C339.282 66.5 339.77 66.6193 340.328 66.6193C340.691 66.6193 341.021 66.5682 341.319 66.4659C341.618 66.3594 341.875 66.2017 342.093 65.9929C342.31 65.7841 342.476 65.5263 342.591 65.2195L344.4 65.5455C344.255 66.0781 343.995 66.5447 343.62 66.9453C343.25 67.3416 342.783 67.6506 342.221 67.8722C341.662 68.0895 341.025 68.1982 340.309 68.1982ZM346.642 68V58.1818H348.49V59.7415H348.592C348.771 59.2131 349.086 58.7976 349.538 58.495C349.994 58.1882 350.509 58.0348 351.085 58.0348C351.204 58.0348 351.345 58.0391 351.507 58.0476C351.673 58.0561 351.803 58.0668 351.896 58.0795V59.9077C351.82 59.8864 351.683 59.8629 351.487 59.8374C351.291 59.8075 351.095 59.7926 350.899 59.7926C350.448 59.7926 350.045 59.8885 349.691 60.0803C349.342 60.2678 349.065 60.5298 348.86 60.8665C348.656 61.1989 348.553 61.5781 348.553 62.0043V68H346.642ZM360.908 60.5788L359.175 60.8857C359.103 60.6641 358.988 60.4531 358.83 60.2528C358.677 60.0526 358.468 59.8885 358.204 59.7607C357.94 59.6328 357.609 59.5689 357.213 59.5689C356.672 59.5689 356.22 59.6903 355.858 59.9332C355.496 60.1719 355.315 60.4808 355.315 60.8601C355.315 61.1882 355.436 61.4524 355.679 61.6527C355.922 61.853 356.314 62.017 356.855 62.1449L358.415 62.5028C359.318 62.7116 359.991 63.0334 360.435 63.468C360.878 63.9027 361.099 64.4673 361.099 65.1619C361.099 65.75 360.929 66.2741 360.588 66.7344C360.251 67.1903 359.781 67.5483 359.175 67.8082C358.575 68.0682 357.878 68.1982 357.085 68.1982C355.986 68.1982 355.089 67.9638 354.394 67.495C353.7 67.022 353.273 66.3509 353.116 65.4815L354.963 65.2003C355.078 65.6818 355.315 66.0462 355.673 66.2933C356.031 66.5362 356.497 66.6577 357.072 66.6577C357.699 66.6577 358.2 66.5277 358.575 66.2678C358.95 66.0036 359.137 65.6818 359.137 65.3026C359.137 64.9957 359.022 64.7379 358.792 64.5291C358.566 64.3203 358.219 64.1626 357.75 64.0561L356.088 63.6918C355.172 63.483 354.494 63.1506 354.055 62.6946C353.621 62.2386 353.403 61.6612 353.403 60.9624C353.403 60.3828 353.565 59.8757 353.889 59.4411C354.213 59.0064 354.661 58.6676 355.232 58.4247C355.803 58.1776 356.457 58.054 357.194 58.054C358.255 58.054 359.09 58.2841 359.7 58.7443C360.309 59.2003 360.712 59.8118 360.908 60.5788ZM367.336 68.1982C366.416 68.1982 365.613 67.9872 364.927 67.5653C364.241 67.1435 363.708 66.5533 363.329 65.7947C362.949 65.0362 362.76 64.1499 362.76 63.1357C362.76 62.1172 362.949 61.2266 363.329 60.4638C363.708 59.701 364.241 59.1087 364.927 58.6868C365.613 58.2649 366.416 58.054 367.336 58.054C368.257 58.054 369.06 58.2649 369.746 58.6868C370.432 59.1087 370.965 59.701 371.344 60.4638C371.724 61.2266 371.913 62.1172 371.913 63.1357C371.913 64.1499 371.724 65.0362 371.344 65.7947C370.965 66.5533 370.432 67.1435 369.746 67.5653C369.06 67.9872 368.257 68.1982 367.336 68.1982ZM367.343 66.5938C367.939 66.5938 368.434 66.4361 368.826 66.1207C369.218 65.8054 369.508 65.3857 369.695 64.8615C369.887 64.3374 369.983 63.7599 369.983 63.1293C369.983 62.5028 369.887 61.9276 369.695 61.4034C369.508 60.875 369.218 60.451 368.826 60.1314C368.434 59.8118 367.939 59.652 367.343 59.652C366.742 59.652 366.243 59.8118 365.847 60.1314C365.455 60.451 365.163 60.875 364.971 61.4034C364.784 61.9276 364.69 62.5028 364.69 63.1293C364.69 63.7599 364.784 64.3374 364.971 64.8615C365.163 65.3857 365.455 65.8054 365.847 66.1207C366.243 66.4361 366.742 66.5938 367.343 66.5938ZM375.958 62.1705V68H374.047V58.1818H375.881V59.7798H376.002C376.228 59.2599 376.582 58.8423 377.064 58.527C377.549 58.2116 378.161 58.054 378.898 58.054C379.567 58.054 380.153 58.1946 380.656 58.4759C381.159 58.7528 381.549 59.1662 381.826 59.7159C382.103 60.2656 382.241 60.9453 382.241 61.755V68H380.33V61.9851C380.33 61.2734 380.145 60.7173 379.774 60.3168C379.403 59.9119 378.894 59.7095 378.246 59.7095C377.803 59.7095 377.409 59.8054 377.064 59.9972C376.723 60.1889 376.452 60.4702 376.252 60.8409C376.056 61.2074 375.958 61.6506 375.958 62.1705ZM387.662 68.2173C387.039 68.2173 386.477 68.1023 385.974 67.8722C385.471 67.6378 385.073 67.299 384.779 66.8558C384.489 66.4126 384.344 65.8693 384.344 65.2259C384.344 64.6719 384.451 64.2159 384.664 63.858C384.877 63.5 385.164 63.2166 385.527 63.0078C385.889 62.799 386.294 62.6413 386.741 62.5348C387.189 62.4283 387.645 62.3473 388.109 62.2919C388.697 62.2237 389.174 62.1683 389.541 62.1257C389.907 62.0788 390.174 62.0043 390.34 61.902C390.506 61.7997 390.589 61.6335 390.589 61.4034V61.3587C390.589 60.8004 390.431 60.3679 390.116 60.0611C389.805 59.7543 389.341 59.6009 388.723 59.6009C388.079 59.6009 387.572 59.7436 387.201 60.0291C386.835 60.3104 386.581 60.6236 386.441 60.9688L384.645 60.5597C384.858 59.9631 385.169 59.4815 385.578 59.1151C385.991 58.7443 386.466 58.4759 387.003 58.3097C387.54 58.1392 388.105 58.054 388.697 58.054C389.089 58.054 389.505 58.1009 389.944 58.1946C390.387 58.2841 390.8 58.4503 391.184 58.6932C391.571 58.9361 391.889 59.2834 392.136 59.7351C392.383 60.1825 392.507 60.7642 392.507 61.4801V68H390.64V66.6577H390.564C390.44 66.9048 390.255 67.1477 390.007 67.3864C389.76 67.625 389.443 67.8232 389.055 67.9808C388.667 68.1385 388.203 68.2173 387.662 68.2173ZM388.077 66.6832C388.605 66.6832 389.057 66.5788 389.432 66.37C389.811 66.1612 390.099 65.8885 390.295 65.5518C390.495 65.2109 390.596 64.8466 390.596 64.4588V63.1932C390.527 63.2614 390.395 63.3253 390.199 63.3849C390.007 63.4403 389.788 63.4893 389.541 63.532C389.294 63.5703 389.053 63.6065 388.819 63.6406C388.584 63.6705 388.388 63.696 388.23 63.7173C387.86 63.7642 387.521 63.843 387.214 63.9538C386.912 64.0646 386.669 64.2244 386.485 64.4332C386.306 64.6378 386.217 64.9105 386.217 65.2514C386.217 65.7244 386.392 66.0824 386.741 66.3253C387.091 66.5639 387.536 66.6832 388.077 66.6832ZM396.964 54.9091V68H395.052V54.9091H396.964ZM399.535 68V58.1818H401.446V68H399.535ZM400.5 56.6669C400.168 56.6669 399.882 56.5561 399.643 56.3345C399.409 56.1087 399.292 55.8402 399.292 55.5291C399.292 55.2138 399.409 54.9453 399.643 54.7237C399.882 54.4979 400.168 54.3849 400.5 54.3849C400.832 54.3849 401.116 54.4979 401.35 54.7237C401.589 54.9453 401.708 55.2138 401.708 55.5291C401.708 55.8402 401.589 56.1087 401.35 56.3345C401.116 56.5561 400.832 56.6669 400.5 56.6669ZM403.813 68V66.6896L409.131 59.9332V59.8438H403.985V58.1818H411.515V59.5753L406.401 66.2486V66.3381H411.694V68H403.813ZM417.899 68.1982C416.932 68.1982 416.099 67.9915 415.4 67.5781C414.705 67.1605 414.168 66.5746 413.789 65.8203C413.414 65.0618 413.227 64.1733 413.227 63.1548C413.227 62.1491 413.414 61.2628 413.789 60.4957C414.168 59.7287 414.697 59.13 415.374 58.6996C416.056 58.2692 416.853 58.054 417.765 58.054C418.319 58.054 418.856 58.1456 419.376 58.3288C419.896 58.5121 420.362 58.7997 420.776 59.1918C421.189 59.5838 421.515 60.093 421.754 60.7195C421.992 61.3416 422.112 62.098 422.112 62.9886V63.6662H414.307V62.2344H420.239C420.239 61.7315 420.136 61.2862 419.932 60.8984C419.727 60.5064 419.44 60.1974 419.069 59.9716C418.702 59.7457 418.272 59.6328 417.778 59.6328C417.241 59.6328 416.772 59.7649 416.371 60.0291C415.975 60.2891 415.668 60.63 415.451 61.0518C415.238 61.4695 415.131 61.9233 415.131 62.4134V63.532C415.131 64.1882 415.246 64.7464 415.477 65.2067C415.711 65.6669 416.037 66.0185 416.455 66.2614C416.872 66.5 417.36 66.6193 417.918 66.6193C418.281 66.6193 418.611 66.5682 418.909 66.4659C419.207 66.3594 419.465 66.2017 419.683 65.9929C419.9 65.7841 420.066 65.5263 420.181 65.2195L421.99 65.5455C421.845 66.0781 421.585 66.5447 421.21 66.9453C420.839 67.3416 420.373 67.6506 419.81 67.8722C419.252 68.0895 418.615 68.1982 417.899 68.1982ZM427.907 68.1918C427.115 68.1918 426.407 67.9893 425.785 67.5845C425.167 67.1754 424.682 66.5937 424.328 65.8395C423.979 65.081 423.804 64.1712 423.804 63.1101C423.804 62.049 423.981 61.1413 424.334 60.3871C424.692 59.6328 425.182 59.0554 425.805 58.6548C426.427 58.2543 427.132 58.054 427.92 58.054C428.53 58.054 429.02 58.1562 429.39 58.3608C429.765 58.5611 430.055 58.7955 430.26 59.0639C430.469 59.3324 430.631 59.5689 430.746 59.7734H430.861V54.9091H432.772V68H430.905V66.4723H430.746C430.631 66.6811 430.464 66.9197 430.247 67.1882C430.034 67.4567 429.74 67.6911 429.365 67.8913C428.99 68.0916 428.504 68.1918 427.907 68.1918ZM428.329 66.5618C428.879 66.5618 429.344 66.4169 429.723 66.1271C430.106 65.8331 430.396 65.4261 430.592 64.9062C430.792 64.3864 430.893 63.7812 430.893 63.0909C430.893 62.4091 430.795 61.8125 430.599 61.3011C430.403 60.7898 430.115 60.3913 429.736 60.1058C429.356 59.8203 428.888 59.6776 428.329 59.6776C427.754 59.6776 427.275 59.8267 426.891 60.125C426.508 60.4233 426.218 60.8303 426.022 61.3459C425.83 61.8615 425.734 62.4432 425.734 63.0909C425.734 63.7472 425.832 64.3374 426.028 64.8615C426.224 65.3857 426.514 65.8011 426.898 66.108C427.285 66.4105 427.763 66.5618 428.329 66.5618ZM440.417 68V54.9091H445.083C446.097 54.9091 446.939 55.0838 447.608 55.4332C448.281 55.7827 448.784 56.2663 449.116 56.8842C449.449 57.4979 449.615 58.2074 449.615 59.0128C449.615 59.8139 449.447 60.5192 449.11 61.1286C448.778 61.7337 448.275 62.2045 447.601 62.5412C446.932 62.8778 446.091 63.0462 445.077 63.0462H441.542V61.3459H444.898C445.537 61.3459 446.057 61.2543 446.457 61.071C446.862 60.8878 447.158 60.6214 447.346 60.272C447.533 59.9226 447.627 59.5028 447.627 59.0128C447.627 58.5185 447.531 58.0902 447.339 57.728C447.152 57.3658 446.856 57.0888 446.451 56.897C446.05 56.701 445.524 56.603 444.872 56.603H442.392V68H440.417ZM446.879 62.0938L450.113 68H447.863L444.693 62.0938H446.879ZM455.973 68.1982C455.006 68.1982 454.173 67.9915 453.474 67.5781C452.779 67.1605 452.243 66.5746 451.863 65.8203C451.488 65.0618 451.301 64.1733 451.301 63.1548C451.301 62.1491 451.488 61.2628 451.863 60.4957C452.243 59.7287 452.771 59.13 453.449 58.6996C454.13 58.2692 454.927 58.054 455.839 58.054C456.393 58.054 456.93 58.1456 457.45 58.3288C457.97 58.5121 458.436 58.7997 458.85 59.1918C459.263 59.5838 459.589 60.093 459.828 60.7195C460.066 61.3416 460.186 62.098 460.186 62.9886V63.6662H452.381V62.2344H458.313C458.313 61.7315 458.211 61.2862 458.006 60.8984C457.801 60.5064 457.514 60.1974 457.143 59.9716C456.777 59.7457 456.346 59.6328 455.852 59.6328C455.315 59.6328 454.846 59.7649 454.446 60.0291C454.049 60.2891 453.743 60.63 453.525 61.0518C453.312 61.4695 453.206 61.9233 453.206 62.4134V63.532C453.206 64.1882 453.321 64.7464 453.551 65.2067C453.785 65.6669 454.111 66.0185 454.529 66.2614C454.946 66.5 455.434 66.6193 455.993 66.6193C456.355 66.6193 456.685 66.5682 456.983 66.4659C457.282 66.3594 457.539 66.2017 457.757 65.9929C457.974 65.7841 458.14 65.5263 458.255 65.2195L460.064 65.5455C459.919 66.0781 459.659 66.5447 459.284 66.9453C458.914 67.3416 458.447 67.6506 457.885 67.8722C457.326 68.0895 456.689 68.1982 455.973 68.1982ZM466.442 68.1982C465.492 68.1982 464.673 67.983 463.987 67.5526C463.306 67.1179 462.781 66.5192 462.415 65.7564C462.048 64.9936 461.865 64.12 461.865 63.1357C461.865 62.1385 462.053 61.2585 462.428 60.4957C462.803 59.7287 463.331 59.13 464.013 58.6996C464.695 58.2692 465.498 58.054 466.423 58.054C467.169 58.054 467.833 58.1925 468.417 58.4695C469.001 58.7422 469.472 59.1257 469.83 59.62C470.192 60.1143 470.407 60.6918 470.475 61.3523H468.615C468.513 60.892 468.279 60.4957 467.912 60.1634C467.55 59.831 467.064 59.6648 466.455 59.6648C465.922 59.6648 465.455 59.8054 465.055 60.0866C464.659 60.3636 464.35 60.7599 464.128 61.2756C463.906 61.7869 463.796 62.392 463.796 63.0909C463.796 63.8068 463.904 64.4247 464.122 64.9446C464.339 65.4645 464.646 65.8672 465.042 66.1527C465.443 66.4382 465.914 66.581 466.455 66.581C466.817 66.581 467.145 66.5149 467.439 66.3828C467.737 66.2464 467.987 66.0526 468.187 65.8011C468.392 65.5497 468.534 65.2472 468.615 64.8935H470.475C470.407 65.5284 470.2 66.0952 469.855 66.5938C469.51 67.0923 469.048 67.4844 468.468 67.7699C467.893 68.0554 467.218 68.1982 466.442 68.1982ZM476.655 68.1982C475.734 68.1982 474.931 67.9872 474.245 67.5653C473.559 67.1435 473.026 66.5533 472.647 65.7947C472.268 65.0362 472.078 64.1499 472.078 63.1357C472.078 62.1172 472.268 61.2266 472.647 60.4638C473.026 59.701 473.559 59.1087 474.245 58.6868C474.931 58.2649 475.734 58.054 476.655 58.054C477.575 58.054 478.379 58.2649 479.065 58.6868C479.751 59.1087 480.283 59.701 480.663 60.4638C481.042 61.2266 481.232 62.1172 481.232 63.1357C481.232 64.1499 481.042 65.0362 480.663 65.7947C480.283 66.5533 479.751 67.1435 479.065 67.5653C478.379 67.9872 477.575 68.1982 476.655 68.1982ZM476.661 66.5938C477.258 66.5938 477.752 66.4361 478.144 66.1207C478.536 65.8054 478.826 65.3857 479.013 64.8615C479.205 64.3374 479.301 63.7599 479.301 63.1293C479.301 62.5028 479.205 61.9276 479.013 61.4034C478.826 60.875 478.536 60.451 478.144 60.1314C477.752 59.8118 477.258 59.652 476.661 59.652C476.06 59.652 475.562 59.8118 475.165 60.1314C474.773 60.451 474.482 60.875 474.29 61.4034C474.102 61.9276 474.009 62.5028 474.009 63.1293C474.009 63.7599 474.102 64.3374 474.29 64.8615C474.482 65.3857 474.773 65.8054 475.165 66.1207C475.562 66.4361 476.06 66.5938 476.661 66.5938ZM483.365 68V58.1818H485.199V59.7798H485.321C485.525 59.2386 485.86 58.8168 486.324 58.5142C486.789 58.2074 487.345 58.054 487.993 58.054C488.649 58.054 489.199 58.2074 489.642 58.5142C490.089 58.821 490.42 59.2429 490.633 59.7798H490.735C490.969 59.2557 491.342 58.8381 491.854 58.527C492.365 58.2116 492.974 58.054 493.682 58.054C494.572 58.054 495.299 58.3331 495.861 58.8913C496.428 59.4496 496.711 60.2912 496.711 61.4162V68H494.8V61.5952C494.8 60.9304 494.619 60.4489 494.257 60.1506C493.895 59.8523 493.462 59.7031 492.959 59.7031C492.337 59.7031 491.854 59.8949 491.508 60.2784C491.163 60.6577 490.991 61.1456 490.991 61.7422V68H489.086V61.4737C489.086 60.9411 488.92 60.5128 488.587 60.1889C488.255 59.8651 487.822 59.7031 487.29 59.7031C486.927 59.7031 486.593 59.799 486.286 59.9908C485.983 60.1783 485.738 60.4403 485.551 60.777C485.368 61.1136 485.276 61.5036 485.276 61.9467V68H483.365ZM499.273 68V58.1818H501.108V59.7798H501.229C501.434 59.2386 501.768 58.8168 502.233 58.5142C502.697 58.2074 503.253 58.054 503.901 58.054C504.557 58.054 505.107 58.2074 505.55 58.5142C505.998 58.821 506.328 59.2429 506.541 59.7798H506.643C506.877 59.2557 507.25 58.8381 507.762 58.527C508.273 58.2116 508.882 58.054 509.59 58.054C510.48 58.054 511.207 58.3331 511.77 58.8913C512.336 59.4496 512.62 60.2912 512.62 61.4162V68H510.708V61.5952C510.708 60.9304 510.527 60.4489 510.165 60.1506C509.803 59.8523 509.37 59.7031 508.868 59.7031C508.245 59.7031 507.762 59.8949 507.417 60.2784C507.071 60.6577 506.899 61.1456 506.899 61.7422V68H504.994V61.4737C504.994 60.9411 504.828 60.5128 504.495 60.1889C504.163 59.8651 503.73 59.7031 503.198 59.7031C502.836 59.7031 502.501 59.799 502.194 59.9908C501.892 60.1783 501.647 60.4403 501.459 60.777C501.276 61.1136 501.184 61.5036 501.184 61.9467V68H499.273ZM519.413 68.1982C518.445 68.1982 517.612 67.9915 516.914 67.5781C516.219 67.1605 515.682 66.5746 515.303 65.8203C514.928 65.0618 514.74 64.1733 514.74 63.1548C514.74 62.1491 514.928 61.2628 515.303 60.4957C515.682 59.7287 516.21 59.13 516.888 58.6996C517.57 58.2692 518.367 58.054 519.279 58.054C519.833 58.054 520.369 58.1456 520.889 58.3288C521.409 58.5121 521.876 58.7997 522.289 59.1918C522.703 59.5838 523.029 60.093 523.267 60.7195C523.506 61.3416 523.625 62.098 523.625 62.9886V63.6662H515.82V62.2344H521.752C521.752 61.7315 521.65 61.2862 521.445 60.8984C521.241 60.5064 520.953 60.1974 520.583 59.9716C520.216 59.7457 519.786 59.6328 519.291 59.6328C518.754 59.6328 518.286 59.7649 517.885 60.0291C517.489 60.2891 517.182 60.63 516.965 61.0518C516.752 61.4695 516.645 61.9233 516.645 62.4134V63.532C516.645 64.1882 516.76 64.7464 516.99 65.2067C517.225 65.6669 517.551 66.0185 517.968 66.2614C518.386 66.5 518.874 66.6193 519.432 66.6193C519.794 66.6193 520.124 66.5682 520.423 66.4659C520.721 66.3594 520.979 66.2017 521.196 65.9929C521.414 65.7841 521.58 65.5263 521.695 65.2195L523.504 65.5455C523.359 66.0781 523.099 66.5447 522.724 66.9453C522.353 67.3416 521.887 67.6506 521.324 67.8722C520.766 68.0895 520.129 68.1982 519.413 68.1982ZM527.657 62.1705V68H525.746V58.1818H527.58V59.7798H527.702C527.928 59.2599 528.281 58.8423 528.763 58.527C529.249 58.2116 529.86 58.054 530.597 58.054C531.266 58.054 531.852 58.1946 532.355 58.4759C532.858 58.7528 533.248 59.1662 533.525 59.7159C533.802 60.2656 533.94 60.9453 533.94 61.755V68H532.029V61.9851C532.029 61.2734 531.844 60.7173 531.473 60.3168C531.102 59.9119 530.593 59.7095 529.945 59.7095C529.502 59.7095 529.108 59.8054 528.763 59.9972C528.422 60.1889 528.151 60.4702 527.951 60.8409C527.755 61.2074 527.657 61.6506 527.657 62.1705ZM540.179 68.1918C539.386 68.1918 538.679 67.9893 538.057 67.5845C537.439 67.1754 536.953 66.5937 536.599 65.8395C536.25 65.081 536.075 64.1712 536.075 63.1101C536.075 62.049 536.252 61.1413 536.606 60.3871C536.964 59.6328 537.454 59.0554 538.076 58.6548C538.698 58.2543 539.403 58.054 540.192 58.054C540.801 58.054 541.291 58.1562 541.662 58.3608C542.037 58.5611 542.327 58.7955 542.531 59.0639C542.74 59.3324 542.902 59.5689 543.017 59.7734H543.132V54.9091H545.043V68H543.177V66.4723H543.017C542.902 66.6811 542.736 66.9197 542.518 67.1882C542.305 67.4567 542.011 67.6911 541.636 67.8913C541.261 68.0916 540.776 68.1918 540.179 68.1918ZM540.601 66.5618C541.151 66.5618 541.615 66.4169 541.994 66.1271C542.378 65.8331 542.668 65.4261 542.864 64.9062C543.064 64.3864 543.164 63.7812 543.164 63.0909C543.164 62.4091 543.066 61.8125 542.87 61.3011C542.674 60.7898 542.386 60.3913 542.007 60.1058C541.628 59.8203 541.159 59.6776 540.601 59.6776C540.026 59.6776 539.546 59.8267 539.163 60.125C538.779 60.4233 538.489 60.8303 538.293 61.3459C538.102 61.8615 538.006 62.4432 538.006 63.0909C538.006 63.7472 538.104 64.3374 538.3 64.8615C538.496 65.3857 538.786 65.8011 539.169 66.108C539.557 66.4105 540.034 66.5618 540.601 66.5618ZM550.628 68.2173C550.006 68.2173 549.444 68.1023 548.941 67.8722C548.438 67.6378 548.04 67.299 547.746 66.8558C547.456 66.4126 547.311 65.8693 547.311 65.2259C547.311 64.6719 547.417 64.2159 547.631 63.858C547.844 63.5 548.131 63.2166 548.493 63.0078C548.856 62.799 549.26 62.6413 549.708 62.5348C550.155 62.4283 550.611 62.3473 551.076 62.2919C551.664 62.2237 552.141 62.1683 552.508 62.1257C552.874 62.0788 553.14 62.0043 553.307 61.902C553.473 61.7997 553.556 61.6335 553.556 61.4034V61.3587C553.556 60.8004 553.398 60.3679 553.083 60.0611C552.772 59.7543 552.307 59.6009 551.689 59.6009C551.046 59.6009 550.539 59.7436 550.168 60.0291C549.802 60.3104 549.548 60.6236 549.407 60.9688L547.611 60.5597C547.824 59.9631 548.135 59.4815 548.545 59.1151C548.958 58.7443 549.433 58.4759 549.97 58.3097C550.507 58.1392 551.072 58.054 551.664 58.054C552.056 58.054 552.471 58.1009 552.91 58.1946C553.354 58.2841 553.767 58.4503 554.15 58.6932C554.538 58.9361 554.856 59.2834 555.103 59.7351C555.35 60.1825 555.474 60.7642 555.474 61.4801V68H553.607V66.6577H553.53C553.407 66.9048 553.221 67.1477 552.974 67.3864C552.727 67.625 552.41 67.8232 552.022 67.9808C551.634 68.1385 551.17 68.2173 550.628 68.2173ZM551.044 66.6832C551.572 66.6832 552.024 66.5788 552.399 66.37C552.778 66.1612 553.066 65.8885 553.262 65.5518C553.462 65.2109 553.562 64.8466 553.562 64.4588V63.1932C553.494 63.2614 553.362 63.3253 553.166 63.3849C552.974 63.4403 552.755 63.4893 552.508 63.532C552.26 63.5703 552.02 63.6065 551.785 63.6406C551.551 63.6705 551.355 63.696 551.197 63.7173C550.827 63.7642 550.488 63.843 550.181 63.9538C549.878 64.0646 549.635 64.2244 549.452 64.4332C549.273 64.6378 549.184 64.9105 549.184 65.2514C549.184 65.7244 549.358 66.0824 549.708 66.3253C550.057 66.5639 550.503 66.6832 551.044 66.6832ZM562.602 58.1818V59.7159H557.239V58.1818H562.602ZM558.678 55.8295H560.589V65.1172C560.589 65.4879 560.644 65.767 560.755 65.9545C560.866 66.1378 561.009 66.2635 561.183 66.3317C561.362 66.3956 561.556 66.4276 561.765 66.4276C561.918 66.4276 562.053 66.4169 562.168 66.3956C562.283 66.3743 562.372 66.3572 562.436 66.3445L562.781 67.9233C562.67 67.9659 562.513 68.0085 562.308 68.0511C562.104 68.098 561.848 68.1236 561.541 68.1278C561.038 68.1364 560.57 68.0469 560.135 67.8594C559.7 67.6719 559.349 67.3821 559.08 66.9901C558.812 66.598 558.678 66.1058 558.678 65.5135V55.8295ZM564.716 68V58.1818H566.628V68H564.716ZM565.682 56.6669C565.349 56.6669 565.064 56.5561 564.825 56.3345C564.591 56.1087 564.474 55.8402 564.474 55.5291C564.474 55.2138 564.591 54.9453 564.825 54.7237C565.064 54.4979 565.349 54.3849 565.682 54.3849C566.014 54.3849 566.297 54.4979 566.532 54.7237C566.77 54.9453 566.89 55.2138 566.89 55.5291C566.89 55.8402 566.77 56.1087 566.532 56.3345C566.297 56.5561 566.014 56.6669 565.682 56.6669ZM573.335 68.1982C572.414 68.1982 571.611 67.9872 570.925 67.5653C570.239 67.1435 569.706 66.5533 569.327 65.7947C568.947 65.0362 568.758 64.1499 568.758 63.1357C568.758 62.1172 568.947 61.2266 569.327 60.4638C569.706 59.701 570.239 59.1087 570.925 58.6868C571.611 58.2649 572.414 58.054 573.335 58.054C574.255 58.054 575.058 58.2649 575.744 58.6868C576.43 59.1087 576.963 59.701 577.342 60.4638C577.722 61.2266 577.911 62.1172 577.911 63.1357C577.911 64.1499 577.722 65.0362 577.342 65.7947C576.963 66.5533 576.43 67.1435 575.744 67.5653C575.058 67.9872 574.255 68.1982 573.335 68.1982ZM573.341 66.5938C573.938 66.5938 574.432 66.4361 574.824 66.1207C575.216 65.8054 575.506 65.3857 575.693 64.8615C575.885 64.3374 575.981 63.7599 575.981 63.1293C575.981 62.5028 575.885 61.9276 575.693 61.4034C575.506 60.875 575.216 60.451 574.824 60.1314C574.432 59.8118 573.938 59.652 573.341 59.652C572.74 59.652 572.241 59.8118 571.845 60.1314C571.453 60.451 571.161 60.875 570.969 61.4034C570.782 61.9276 570.688 62.5028 570.688 63.1293C570.688 63.7599 570.782 64.3374 570.969 64.8615C571.161 65.3857 571.453 65.8054 571.845 66.1207C572.241 66.4361 572.74 66.5938 573.341 66.5938ZM581.956 62.1705V68H580.045V58.1818H581.879V59.7798H582.001C582.226 59.2599 582.58 58.8423 583.062 58.527C583.547 58.2116 584.159 58.054 584.896 58.054C585.565 58.054 586.151 58.1946 586.654 58.4759C587.157 58.7528 587.547 59.1662 587.824 59.7159C588.101 60.2656 588.239 60.9453 588.239 61.755V68H586.328V61.9851C586.328 61.2734 586.143 60.7173 585.772 60.3168C585.401 59.9119 584.892 59.7095 584.244 59.7095C583.801 59.7095 583.407 59.8054 583.062 59.9972C582.721 60.1889 582.45 60.4702 582.25 60.8409C582.054 61.2074 581.956 61.6506 581.956 62.1705ZM598.16 60.5788L596.427 60.8857C596.355 60.6641 596.24 60.4531 596.082 60.2528C595.929 60.0526 595.72 59.8885 595.456 59.7607C595.192 59.6328 594.861 59.5689 594.465 59.5689C593.924 59.5689 593.472 59.6903 593.11 59.9332C592.748 60.1719 592.567 60.4808 592.567 60.8601C592.567 61.1882 592.688 61.4524 592.931 61.6527C593.174 61.853 593.566 62.017 594.107 62.1449L595.667 62.5028C596.57 62.7116 597.243 63.0334 597.687 63.468C598.13 63.9027 598.351 64.4673 598.351 65.1619C598.351 65.75 598.181 66.2741 597.84 66.7344C597.503 67.1903 597.032 67.5483 596.427 67.8082C595.827 68.0682 595.13 68.1982 594.337 68.1982C593.238 68.1982 592.341 67.9638 591.646 67.495C590.952 67.022 590.525 66.3509 590.368 65.4815L592.215 65.2003C592.33 65.6818 592.567 66.0462 592.925 66.2933C593.282 66.5362 593.749 66.6577 594.324 66.6577C594.951 66.6577 595.452 66.5277 595.827 66.2678C596.202 66.0036 596.389 65.6818 596.389 65.3026C596.389 64.9957 596.274 64.7379 596.044 64.5291C595.818 64.3203 595.471 64.1626 595.002 64.0561L593.34 63.6918C592.424 63.483 591.746 63.1506 591.307 62.6946C590.873 62.2386 590.655 61.6612 590.655 60.9624C590.655 60.3828 590.817 59.8757 591.141 59.4411C591.465 59.0064 591.912 58.6676 592.483 58.4247C593.055 58.1776 593.709 58.054 594.446 58.054C595.507 58.054 596.342 58.2841 596.952 58.7443C597.561 59.2003 597.964 59.8118 598.16 60.5788Z" fill="black" fill-opacity="0.8"/>
<path d="M847.5 126.5V162.5" stroke="#0061FE" stroke-width="2" stroke-linecap="round" stroke-linejoin="bevel" stroke-dasharray="4 4"/>
</svg>
