<svg width="60" height="60" viewBox="0 0 60 60" fill="none" xmlns="http://www.w3.org/2000/svg">
<path d="M29.3306 4.61328C32.6336 4.42608 35.9316 5.07718 38.9136 6.50488C41.8953 7.93259 44.465 10.0912 46.3823 12.7773C48.2996 15.4636 49.5023 18.5912 49.8774 21.8662C50.2524 25.141 49.7872 28.4574 48.5269 31.5049C47.2663 34.5526 45.2507 37.2333 42.6685 39.2939L42.4429 39.4736V50.4502L42.439 50.6074C42.3999 51.3895 42.0699 52.1325 41.5112 52.6895C40.915 53.2835 40.1059 53.6181 39.2622 53.6182H26.6616C25.8178 53.6182 25.0089 53.2835 24.4126 52.6895C23.8165 52.0953 23.481 51.2895 23.481 50.4502V46.083H19.771C18.0741 46.083 16.4354 45.4646 15.1636 44.3457C13.8922 43.2269 13.0751 41.6834 12.8647 40.0068L12.4585 36.7568L12.0337 36.6719L10.1509 36.2979C9.68949 36.2057 9.25397 36.0124 8.87646 35.7324C8.49957 35.4528 8.18921 35.0933 7.96826 34.6797C7.74736 34.2659 7.6212 33.8081 7.59912 33.3408C7.57714 32.8734 7.65951 32.4059 7.84033 31.9736L10.8882 24.6777L10.8853 24.5498C10.8818 24.3929 10.8801 24.2339 10.8804 24.0762C10.8805 20.7803 11.719 17.5376 13.3179 14.6523C14.9171 11.767 17.2259 9.33164 20.0259 7.57617C22.826 5.82092 26.0278 4.80059 29.3306 4.61328ZM30.4419 8.40625C28.3279 8.40616 26.235 8.8308 24.2896 9.65527C22.3442 10.4798 20.5845 11.6871 19.1177 13.2051C17.651 14.723 16.5062 16.5212 15.7524 18.4902C14.9988 20.4593 14.6514 22.5609 14.731 24.667C14.748 25.1129 14.6741 25.5785 14.4888 26.0195L14.4878 26.0205L11.6919 32.708L13.6763 33.1025L13.9185 33.1602C14.4777 33.318 14.9848 33.6264 15.3823 34.0527C15.836 34.5395 16.1238 35.1575 16.2065 35.8164L16.6733 39.5342C16.768 40.287 17.1356 40.9789 17.7056 41.4805C18.2757 41.9818 19.0106 42.2591 19.771 42.2588H24.1411C24.9849 42.2588 25.7939 42.5935 26.3901 43.1875C26.9863 43.7817 27.3217 44.5875 27.3218 45.4268V49.7939H38.6021V39.1621C38.6022 38.1158 39.118 37.1839 39.897 36.5986C42.5315 34.6224 44.4772 31.8693 45.4565 28.7305L45.6274 28.1396C46.4266 25.1719 46.3335 22.0301 45.353 19.1074C44.3071 15.9899 42.3045 13.2786 39.6284 11.3584C37.1198 9.55847 34.1384 8.53809 31.0591 8.41797L30.4419 8.40625Z" fill="#363C56"/>
<path d="M33.8306 19.4628C33.9317 17.6497 34.7935 15.7576 33.1376 14.3548C32.1694 13.5345 30.9001 13.0476 29.6263 13.0476C28.8424 13.0476 28.6096 13.4353 28.5659 14.1879C28.527 14.8567 28.3499 16.0849 28.7984 16.6539C29.1552 17.1064 29.9377 17.0945 30.4448 17.1081C31.6974 17.1416 32.9497 16.9895 34.184 16.7929C35.7176 16.5487 37.2185 16.1367 38.7511 15.8937C39.6627 15.7491 40.8151 15.4619 41.5323 16.2089C42.446 17.1605 42.8568 18.933 42.7369 20.2138C42.6329 21.3238 42.3439 22.5783 41.83 23.5743C41.1705 24.8523 39.7508 25.7208 38.486 26.2906C36.1573 27.3398 32.8341 27.6222 30.9331 25.5629C29.393 23.8944 30.2548 21.2451 32.04 20.1442C34.0924 18.8786 36.9255 19.1131 39.1697 19.6622C39.6119 19.7703 40.477 20.4331 40.9091 20.135C41.5897 19.6653 41.7449 18.6585 41.816 17.91C41.8657 17.3876 41.9463 16.6852 41.4439 16.3387C40.764 15.8695 39.6573 15.9878 38.9 16.1254C36.7238 16.521 35.4149 17.9853 35.077 20.1396C34.8549 21.5554 34.9421 23.5107 36.2397 24.4133C37.0197 24.9559 37.9845 25.0504 38.9 25.1364C39.4731 25.1903 37.9921 28.0836 37.8582 28.3719C37.6055 28.9157 37.3541 29.4602 37.1001 30.0035C36.9762 30.2684 36.7602 31.0263 36.4629 31.1808C36.3042 31.2634 35.9617 31.0178 35.8444 30.9444C35.1852 30.5322 34.554 30.1398 33.8166 29.8691C32.7895 29.4919 31.6991 29.3563 30.668 29.0023C29.9767 28.7648 29.3447 28.3223 29.3333 27.519C29.3164 26.3317 30.0819 25.1162 30.6262 24.112C31.0296 23.3678 31.4484 22.633 31.84 21.8825C31.8559 21.8521 32.1848 21.3475 32.0447 21.2521C31.8151 21.0957 31.4947 21.1595 31.2168 21.1501C30.7799 21.1353 29.6196 21.1325 29.217 21.1315C27.7649 21.1283 26.2189 21.2835 24.7894 20.9647C24.5721 20.9162 23.4464 20.5539 23.264 20.7885C22.8428 21.3301 22.8611 22.3292 22.6966 22.9764C22.6839 23.0263 22.5417 23.2954 22.5663 23.3472C22.6324 23.4862 23.4916 23.4474 23.5616 23.4492C25.4762 23.4992 27.4914 23.2429 29.217 22.3645C30.8861 21.5149 32.1057 19.8655 32.2214 17.9888C32.2717 17.1739 32.0229 16.8099 31.3191 16.4592" stroke="#363C56" stroke-width="2.80328" stroke-linecap="round"/>
</svg>
