<svg width="60" height="60" viewBox="0 0 60 60" fill="none" xmlns="http://www.w3.org/2000/svg">
<path d="M33.7662 53.916C33.4392 53.5404 33.2376 53.0909 33.184 52.6186C33.1305 52.1463 33.2273 51.6701 33.4634 51.2442C34.083 50.1755 34.3258 48.9537 34.1674 47.7506C34.0377 46.8921 33.7183 46.0649 33.2276 45.3163C32.7432 44.5774 32.0954 43.9333 31.3232 43.4226C28.6914 41.6667 26.8446 39.1405 26.11 36.2916C20.0977 43.2882 22.4034 47.26 25.2828 50.7598C25.6204 51.1701 25.7982 51.6669 25.7893 52.1749C25.7804 52.683 25.5853 53.1746 25.2335 53.5754C24.875 53.9809 24.394 54.2876 23.8466 54.4597C23.3055 54.6284 22.7208 54.6533 22.164 54.5316C18.2743 53.6879 14.6134 52.0817 12.1318 49.5224C10.725 48.1008 9.64201 46.4506 8.94259 44.6632C8.23521 42.8605 7.92102 40.9547 8.01681 39.0477C8.01681 39.0477 7.54864 31.3511 18.0033 23.8107C18.0033 23.8107 30.3587 14.5048 26.0713 7.62375C25.9133 7.28528 25.8665 6.91401 25.9362 6.5529C26.006 6.19179 26.1895 5.85559 26.4655 5.58319C26.7338 5.31612 27.0881 5.12878 27.4804 5.0466C27.8728 4.96443 28.2841 4.99139 28.6585 5.12383L29.1725 5.30508C33.8263 7.91658 37.4636 11.7346 39.5919 16.2422C41.6335 20.6577 41.6194 25.8044 40.2396 30.3886C41.3836 29.4762 42.3375 28.3856 43.0591 27.1606L43.1612 26.9606C43.8582 25.47 46.0512 25.945 46.8749 26.92C47.1776 27.3481 54.9429 37.3665 50.7716 45.8194C49.2465 48.3804 47.0189 50.5589 44.2947 52.1536C42.0088 53.5002 39.4545 54.4473 36.7688 54.9441C36.2137 55.0478 35.6366 55.0066 35.1073 54.8253C34.5733 54.641 34.1085 54.327 33.7662 53.9191V53.916ZM27.5497 29.6637C27.8784 29.5116 28.2592 29.4741 28.6174 29.5585C28.9756 29.6429 29.2853 29.8432 29.4857 30.1199C29.6265 30.3043 29.7181 30.5136 29.7497 30.7386L29.9082 31.8292C29.9786 33.426 29.9574 35.0947 30.6579 36.6291C31.3831 38.204 32.5095 39.5977 33.9386 40.6852C35.7798 41.7606 37.205 43.3116 38.0219 45.1288C38.7963 46.8912 38.9019 48.8474 38.3176 50.6692C40.1054 50.1686 41.7669 49.3653 43.2105 48.3037L43.5731 48.0412C44.7558 47.1756 45.7309 46.0944 46.4349 44.8632C47.1424 43.6351 47.5684 42.2851 47.681 40.8977C47.9098 37.6947 46.6813 34.4791 44.7699 31.6105C43.8969 32.7354 42.6931 33.6073 41.3026 34.1229C40.4332 34.451 39.5109 34.6541 38.5711 34.7166C38.0327 34.7474 37.4959 34.6388 37.0257 34.4041C36.5483 34.1633 36.1568 33.8081 35.8958 33.3792C35.6798 33.0333 35.5564 32.6479 35.535 32.2529C35.5136 31.8579 35.5949 31.4638 35.7726 31.1011C37.2229 28.0637 37.6734 24.6951 37.0574 21.4233C36.3282 17.6801 34.3087 14.2299 31.2775 11.5486C30.7283 18.439 22.7694 24.8544 21.1361 26.2356C20.883 26.4474 20.6199 26.6497 20.3476 26.8419C11.8079 32.9823 12.3923 38.5759 12.3923 38.8227C12.2227 41.0448 12.784 43.2628 14.008 45.2069C15.2928 47.2225 17.1408 48.8849 19.3585 50.0192C16.7994 45.0257 16.7994 39.0321 26.2438 30.4386L27.5532 29.6574L27.5497 29.6637Z" fill="#363C56"/>
</svg>
