<svg width="443" height="443" viewBox="0 0 443 443" fill="none" xmlns="http://www.w3.org/2000/svg">
<g clip-path="url(#clip0_135_4061)">
<path d="M388.292 361.74H55.2321L19.3977 410.496H424.127L388.292 361.74Z" fill="#171B1B"/>
</g>
<g clip-path="url(#clip1_135_4061)">
<path d="M219.192 358.594C169.579 358.594 121.119 331.837 96.8893 284.14C61.1214 215.503 87.6589 131.743 154.579 95.6797L160.348 92.1897C228.423 57.2895 311.497 84.0463 347.264 152.683C383.032 221.32 356.495 305.081 288.421 341.144L283.805 343.471C263.037 353.941 241.115 358.594 219.192 358.594Z" fill="#FE989B"/>
</g>
<g clip-path="url(#clip2_135_4061)">
<path d="M160.682 343.905H284.631V307.939L281.709 305.283H163.515L160.682 307.939V343.905Z" fill="#363C56"/>
<path d="M170.376 284.504C172.761 280.584 173.778 275.984 173.267 271.425L171.51 255.729L173.458 252.484L172.714 245.854L170.203 244.084L160.925 161.216H284.387L275.087 244.265L273.209 247.85L270.695 270.309C270.629 270.902 271.917 272.819 271.904 273.412C271.802 277.294 272.789 281.14 274.781 284.5L280.098 293.494C281.466 295.813 282.465 298.33 283.059 300.956L284.631 307.941H160.682L161.602 302.483C162.147 299.252 163.298 296.158 164.998 293.361L170.376 284.504Z" fill="white"/>
<path d="M160.656 311.374V314.719C160.656 320.697 155.413 325.321 149.481 324.575L68.2767 314.362C60.5454 313.389 53.1606 317.861 50.4399 325.162L48.6086 330.077C45.2026 339.218 49.7715 349.399 58.8654 352.932L158.663 391.706H232.966V321.997L160.655 311.374L160.656 311.374Z" fill="#363C56"/>
<path d="M284.468 311.374C284.468 319.128 291.268 325.125 298.962 324.157L374.53 314.653C383.619 313.51 392.301 318.767 395.499 327.35C399.468 338.003 394.144 349.868 383.546 353.986L286.46 391.706H215.259V321.997L284.468 311.374H284.468Z" fill="#363C56"/>
<path d="M288.011 148.707L219.086 136.769V213.781L299.316 193.882C300.851 193.501 302.209 192.605 303.164 191.344C304.118 190.082 304.611 188.532 304.56 186.951L303.916 166.995C303.622 157.898 296.979 150.26 288.011 148.707Z" fill="white"/>
<path d="M264.458 144.735L251.594 141.52C249.199 140.921 247.073 139.539 245.555 137.594C244.036 135.649 243.211 133.252 243.211 130.784V94.9526H219.971V155.357H265.122L264.458 144.735V144.735Z" fill="white"/>
<path d="M158.13 148.707L227.054 136.769V213.781L146.825 193.882C145.289 193.501 143.931 192.605 142.977 191.344C142.023 190.082 141.53 188.532 141.581 186.951L142.225 166.995C142.518 157.898 149.161 150.26 158.13 148.707Z" fill="white"/>
<path d="M180.797 144.735L193.661 141.52C196.056 140.921 198.182 139.539 199.701 137.594C201.219 135.649 202.044 133.252 202.044 130.784V94.9526H225.284V155.357H180.133L180.797 144.735V144.735Z" fill="white"/>
<path d="M243.431 96.8011L243.329 117.011C243.334 117.511 243.312 118.007 243.25 118.49L242.727 119.229C241.034 121.639 238.793 123.613 236.188 124.987C233.583 126.362 230.688 127.097 227.743 127.134C222.55 127.2 217.565 123.659 213.998 119.888L202.466 107.712L202.302 94.9509L243.431 96.8011Z" fill="#FE989B"/>
<path d="M141.62 187.865L144.056 217.101L139.409 265.566L160.008 287.323L163.145 284.705C165.1 283.073 166.355 280.753 166.651 278.224L171.944 233.034L171.28 182.578L144.032 184.999C143.333 185.061 142.687 185.398 142.235 185.935C141.783 186.472 141.562 187.166 141.62 187.865H141.62Z" fill="white"/>
<path d="M140.515 260.918L115.928 281.203L75.666 302.744L81.863 319.12L134.304 305.078C138.649 303.831 142.695 301.713 146.195 298.854L161.493 286.31C163.672 284.523 163.725 281.207 161.603 279.352L140.515 260.918Z" fill="white"/>
<path d="M275.087 244.265L272.024 271.637C271.957 272.23 271.917 272.819 271.904 273.412C269.89 270.672 265.786 267.167 264.653 266.233C261.24 263.404 257.402 261.107 253.409 259.195C245.37 255.353 236.587 252.989 227.765 251.83C219.628 250.759 211.355 250.812 203.165 250.887C197.14 250.944 191.089 251.073 185.135 252.051C183.86 252.259 174.847 254.096 171.51 255.729L170.204 244.084C170.828 243.685 171.607 243.137 171.744 242.893C183.798 239.41 199.102 239.631 211.771 238.347C232.32 236.267 254.179 240.206 274.759 238.432C274.848 240.268 274.968 242.225 275.087 244.265Z" fill="#FE989B"/>
<path d="M242.19 48.2882C249.929 48.2882 256.212 54.5704 256.212 62.3083V144.963C256.212 148.664 253.207 151.669 249.506 151.669H248.897C245.195 151.669 242.19 148.664 242.19 144.963V48.2882H242.19Z" fill="#363C56"/>
<path d="M222.517 32.5357C226.001 32.5357 228.825 29.712 228.825 26.2288C228.825 22.7456 226.001 19.9219 222.517 19.9219C219.033 19.9219 216.209 22.7456 216.209 26.2288C216.209 29.712 219.033 32.5357 222.517 32.5357Z" fill="#FE989B"/>
<path d="M220.546 28.9806L222.53 28.9788L224.514 28.9771C233.244 28.97 241.163 32.495 246.901 38.2137C252.639 43.9324 256.197 51.8447 256.204 60.6126L256.208 65.7705L256.212 70.9284L250.618 70.9328C250.199 70.9332 249.785 70.8511 249.398 70.6912C249.011 70.5313 248.659 70.2968 248.363 70.001C248.067 69.7052 247.832 69.354 247.671 68.9674C247.511 68.5808 247.428 68.1663 247.428 67.7477L247.422 61.2336C247.413 49.7011 238.055 40.36 226.521 40.3688L222.579 40.3719L218.352 40.3755C206.835 40.3848 197.5 49.7135 197.484 61.2288L197.475 67.9434C197.473 68.748 197.153 69.5194 196.584 70.0882C196.015 70.657 195.243 70.9768 194.438 70.9775L193.684 74.5128L188.994 74.5163V70.9815L188.99 65.8236L188.986 60.6658C188.939 51.8978 192.444 43.9798 198.154 38.2522C203.863 32.5247 211.777 28.9877 220.546 28.9806Z" fill="#363C56"/>
<path d="M255.594 76.4727L252.349 84.2509C251.795 85.6806 251.001 87.0279 250.129 88.2195L249.903 90.7088L249.798 90.8509L249.169 97.2773C248.934 99.8197 247.825 102.278 246.08 104.183L234.9 116.494C232.364 119.273 228.793 120.782 225.062 120.783L220.301 120.789C216.573 120.791 213 119.286 210.458 116.511L201.895 107.117L201.345 107.342L200.529 106.446L200.712 105.82L199.256 104.223C197.51 102.317 196.397 99.9388 196.156 97.3207L195.517 90.8938L193.77 88.5138C192.896 87.2453 192.102 85.9763 191.544 84.5484L188.283 76.7759C188.283 76.6958 188.206 76.6166 188.205 76.5364C187.568 74.4751 188.677 72.2505 190.741 71.6145L193.518 70.6624L192.558 61.1402C191.675 51.6172 197.065 42.5678 205.873 38.9104L222.612 41.1939L239.362 38.8843C247.889 42.454 251.795 50.5983 251.382 59.6791C251.364 60.0685 251.336 60.4573 251.297 60.845L250.354 70.3685L254.298 72.9809C254.376 73.0565 254.455 73.0596 254.616 73.0583C256.598 73.8506 256.387 74.488 255.594 76.4731L255.594 76.4727Z" fill="white"/>
<path d="M257.008 76.721L253.763 84.4992C253.209 85.9288 252.415 87.2762 251.543 88.4677L249.903 90.7087L249.244 86.9093C248.026 81.4924 246.039 80.9361 240.493 80.6877C240.493 80.6877 233.491 82.5919 229.294 81.0197C227.59 80.3819 225.828 77.7616 224.287 77.303C221.062 76.3438 215.699 76.3412 212.898 72.4337C212.898 72.4337 206.287 68.3997 203.36 68.6294C201.075 69.5301 198.691 71.0164 196.277 72.678L195.412 67.0244L193.612 57.6452L230.808 46.4385L252.795 59.9274C252.778 60.3168 252.749 60.7055 252.71 61.0933L251.767 70.6167L254.545 71.5671C254.623 71.6427 254.703 71.6458 254.863 71.6445C256.845 72.4368 257.8 74.7362 257.007 76.7214L257.008 76.721Z" fill="#FE989B"/>
<path d="M196.295 73.4637C196.737 68.343 200.451 64.2333 205.272 63.1249C206.127 62.9288 207.001 62.8296 207.878 62.8293L236.507 62.8067C242.115 62.8023 246.929 66.7992 247.954 72.3125L248.505 75.2705L255.428 66.0259L252.025 47.2799L243.855 38.3173L200.426 38.3513L190.692 51.4242L190.282 66.943L196.295 73.4637H196.295ZM217.76 108.997C217.76 108.997 218.308 109.18 219.13 109.363C220.133 109.637 221.229 109.728 222.233 109.728C223.237 109.728 224.332 109.637 225.336 109.363C225.677 109.295 226.012 109.204 226.34 109.089L226.705 108.997V109.089C226.705 109.089 226.614 109.18 226.34 109.363C226.066 109.545 225.701 109.728 225.427 109.91C224.971 110.093 224.423 110.275 223.967 110.367C223.693 110.458 223.419 110.458 223.145 110.458H222.232C221.958 110.458 221.593 110.458 221.319 110.367C221.045 110.367 220.772 110.275 220.498 110.184C220.041 110.093 219.494 109.91 219.037 109.728C218.581 109.545 218.125 109.363 217.76 108.998L217.76 108.997ZM225.336 102.244C224.879 102.153 224.332 102.153 223.875 102.336L222.233 102.883L220.59 102.336C220.133 102.153 219.586 102.153 219.13 102.244L212.741 103.978L213.015 104.252C213.471 104.8 214.201 105.074 214.932 104.982L220.134 104.708C220.499 104.708 220.773 104.708 221.138 104.89L221.412 105.073C221.686 105.255 221.96 105.347 222.325 105.347C222.599 105.347 222.964 105.256 223.238 105.073L223.512 104.89C223.786 104.799 224.15 104.708 224.424 104.708L229.627 104.982C230.357 104.982 230.996 104.708 231.543 104.252L231.818 103.978L225.338 102.244H225.336ZM225.975 96.2216C226.431 95.8565 226.705 95.4917 226.613 95.3089C226.431 95.035 225.701 95.1266 224.879 95.5829C224.509 95.7733 224.171 96.0194 223.875 96.3128H225.975V96.2216ZM218.308 96.2216C217.851 95.8565 217.578 95.4917 217.669 95.3089C217.851 95.035 218.582 95.1266 219.403 95.5829C219.773 95.7733 220.112 96.0194 220.407 96.3128H218.308V96.2216Z" fill="#363C56"/>
<path d="M226.922 73.1823L240.47 70.527C242.432 70.1051 244.51 70.8133 245.773 72.39L246.904 73.7125L247.281 73.1951L246.57 72.3984C244.29 69.9113 240.994 68.6693 237.681 69.0221L230.329 69.8068C228.716 69.948 227.394 71.0794 226.983 72.6308L226.922 73.1827L226.922 73.1823ZM218.438 73.6067L205.182 69.4908C203.277 68.8574 201.135 69.3354 199.707 70.7647L198.439 71.9558L198.121 71.4007L198.914 70.6859C201.452 68.4621 204.863 67.5866 208.117 68.2979L215.341 69.8794C216.928 70.1954 218.119 71.464 218.359 73.0512L218.438 73.6067ZM228.31 80.6807L228.583 80.86C231.188 82.4003 235.493 82.6385 239.462 81.435L243.126 80.3311L245.684 79.7871L244.538 79.217C243.57 78.7513 241.98 78.8514 240.88 79.4556C239.711 80.1177 238.276 80.6444 236.794 80.9069L236.093 81.0313C233.909 81.4181 231.656 81.408 229.737 81.0198L228.31 80.6812L228.31 80.6807ZM215.983 80.8122L215.71 80.9963C213.1 82.5814 208.792 82.8469 204.823 81.6399L201.158 80.5325L198.6 79.9907L199.748 79.4029C200.717 78.9226 202.309 79.0165 203.407 79.6273C204.576 80.297 206.011 80.8272 207.493 81.0871L208.195 81.2101C210.379 81.5934 212.634 81.5713 214.554 81.1654L215.983 80.8122ZM254.444 112.417C251.052 112.418 247.775 111.184 245.227 108.945C245.052 108.79 244.946 108.571 244.931 108.338C244.917 108.104 244.995 107.874 245.15 107.698C245.304 107.523 245.522 107.415 245.756 107.399C245.989 107.384 246.219 107.461 246.396 107.615C248.621 109.57 251.482 110.647 254.444 110.646C261.17 110.646 266.641 105.175 266.641 98.4498C266.641 91.7251 261.17 86.2538 254.444 86.2538C253.616 86.2538 252.788 86.337 251.985 86.5017C251.871 86.525 251.754 86.5256 251.639 86.5036C251.525 86.4815 251.417 86.4372 251.32 86.3732C251.223 86.3092 251.139 86.2267 251.074 86.1304C251.009 86.0341 250.963 85.9259 250.94 85.8121C250.917 85.6982 250.916 85.5808 250.938 85.4667C250.96 85.3526 251.005 85.2439 251.069 85.1469C251.133 85.0499 251.215 84.9665 251.311 84.9014C251.408 84.8363 251.516 84.7908 251.63 84.7675C252.556 84.5787 253.499 84.4836 254.444 84.4838C262.146 84.4838 268.412 90.7491 268.412 98.4503C268.412 106.151 262.146 112.417 254.444 112.417ZM248.48 152.001H249.921C253.393 152.001 256.212 154.819 256.212 158.29V188.183H242.19V158.29C242.19 154.819 245.008 152.001 248.48 152.001Z" fill="#363C56"/>
<path d="M249.24 155.652C251.257 155.652 252.892 154.017 252.892 152.001C252.892 149.984 251.257 148.349 249.24 148.349C247.223 148.349 245.588 149.984 245.588 152.001C245.588 154.017 247.223 155.652 249.24 155.652Z" fill="#FE989B"/>
<path d="M384.36 367.4L347.008 382.867L327.526 335.83L364.878 320.363C377.859 314.987 392.764 321.161 398.141 334.141C403.517 347.121 397.342 362.024 384.36 367.4Z" fill="#363C56"/>
<path d="M350.718 379.801L334.839 387.272L332.94 389.052L331.395 389.127L314.166 389.972L303.684 390.486L280.076 391.641L237.991 393.699L182.55 393.925L135.073 397.019L123.784 401.002H113.939C110.34 401.002 107.547 397.864 107.959 394.292L108.224 391.995C108.517 389.459 109.437 387.036 110.902 384.946C112.366 382.855 114.329 381.163 116.613 380.022L133.081 371.789L186.197 377.101L203.037 372.059L207.984 373.056L254.209 359.216L256.269 356.12L310.364 339.92L334.048 335.269C341.989 333.71 349.979 337.734 353.454 345.042L359.169 357.063C359.918 358.63 360.409 360.25 360.666 361.883C361.879 369.466 358.018 376.366 350.718 379.801Z" fill="white"/>
<path d="M80.2458 320.362L117.598 335.83L98.1149 382.867L60.7627 367.399C47.7812 362.024 41.6068 347.121 46.9831 334.141C52.3594 321.16 67.2639 314.987 80.2458 320.362Z" fill="#363C56"/>
<path d="M350.134 381.354C345.216 383.789 340.134 386.44 334.839 388.158C333.702 388.529 332.551 388.857 331.395 389.127C330.63 389.308 329.859 389.463 329.085 389.592C324.153 390.415 319.124 390.061 314.166 389.972C311.935 389.928 309.713 389.937 307.522 390.136C306.225 390.256 304.945 390.371 303.684 390.486C295.41 391.22 287.761 391.805 280.076 391.641C273.321 391.49 266.53 390.76 259.257 389.034C241.333 384.789 216.277 385.936 202.231 372.382C202.501 372.276 202.767 372.17 203.037 372.059L256.269 356.12C256.455 356.753 256.658 357.409 256.871 358.072C262.745 374.241 287.216 366.168 302.024 366.925C311.953 367.434 335.561 378.597 345.406 375.777C357.181 372.405 360.612 372.25 360.665 361.883C360.67 361.799 360.67 361.711 360.67 361.622C362.573 372.652 357.522 377.698 350.134 381.354Z" fill="#FE989B"/>
<path d="M111.076 335.27C118.14 336.163 128.903 338.474 134.761 339.922C157.412 345.524 211.825 362.337 240.512 371.309C252.714 375.126 265.562 376.438 278.284 375.165L309.495 372.044C311.16 371.878 312.838 372.187 314.335 372.935L331.661 381.596C332.977 382.255 334.109 383.23 334.953 384.436C335.797 385.641 336.328 387.038 336.496 388.5L337.37 396.067C337.673 398.695 335.618 401.001 332.972 401.001H324.771C322.5 401.001 320.245 400.615 318.104 399.859L313.203 398.129C311.129 397.398 308.916 397.147 306.731 397.397L265.565 402.107L207.135 399.009L122.187 390.1C115.566 389.405 109.109 387.603 103.086 384.769L94.4071 380.686C85.5341 376.51 81.7444 365.92 85.9551 357.064L92.3784 343.951C95.8534 336.642 103.046 334.256 111.076 335.27Z" fill="white"/>
<path d="M41.5302 299.071C40.6798 301.626 39.9184 304.917 39.1021 307.76C38.3894 310.242 34.7488 314.021 36.037 316.174C37.2256 318.16 41.1419 320.149 43.0986 320.788C44.1415 321.128 45.4824 321.899 46.5731 321.543C47.9166 321.105 50.8507 317.923 52.0676 316.953C49.7121 316.189 45.5293 314.933 44.0322 312.851C46.2137 310.844 47.6085 306.364 47.4222 303.464C47.2358 300.563 44.5072 297.206 41.4545 299.312C41.9927 298.482 41.2389 300.026 41.5302 299.071Z" fill="#FE989B"/>
<path d="M42.37 297.362C43.5749 296.769 45.0008 296.198 46.1531 295.447C47.2615 294.725 50.7799 293.647 52.0677 293.581C53.1252 293.528 64.3258 296.786 67.8323 298.048C72.9408 299.885 76.7863 301.316 80.4765 305.435C75.5402 308.679 69.5233 311.401 63.9026 313.32C59.8278 314.712 55.3023 315.128 51.4147 316.7C52.4209 314.109 53.8304 310.387 53.8636 307.527C53.8888 305.357 53.9296 302.645 52.4811 301.251C52.0424 300.829 50.5409 301.214 49.5285 301.585C45.54 304.275 36.7086 300.149 42.37 297.362Z" fill="#FE989B"/>
<path d="M44.995 318.687C41.2796 320.093 38.188 322.735 34.4686 324.233C31.7913 325.311 29.3588 327.044 26.5287 327.792C24.453 328.341 20.5424 328.013 19.6973 330.266C18.5415 333.348 20.9669 333.325 22.9709 333.086C24.9262 332.852 26.936 333.028 28.8758 332.839C36.1145 332.133 41.107 327.345 47.7901 324.742C50.3266 323.754 53.0123 322.767 55.3023 321.436C54.8755 320.552 53.853 318.058 52.8915 317.597C51.9716 317.157 54.5378 315.874 53.4422 316.174C51.6568 316.664 48.601 317.728 46.7962 318.163C46.8135 317.799 44.5992 318.873 44.9954 318.687L44.995 318.687Z" fill="#FE989B"/>
<path d="M50.5648 317.979C50.2624 318.215 53.5382 315.631 53.4417 316.174C60.3125 312.278 62.0425 306.039 70.0142 304.057C72.1298 303.531 74.1767 304.243 76.2732 304.331C78.5738 304.427 80.8381 304.319 83.1179 304.989C90.1843 307.063 90.1564 311.733 85.2104 316.296C82.7447 318.571 80.0656 320.409 77.4773 322.519C74.7455 324.746 72.116 328.341 69.1333 330.133C67.2059 331.291 66.9748 331.354 65.093 330.187C63.0429 328.916 61.0752 327.642 58.8424 326.835C55.3023 325.556 49.1301 322.7 50.5648 317.979Z" fill="white"/>
<path d="M82.222 304.917C74.4043 303.962 71.9324 306.689 68.7549 310.344C66.9262 312.446 65.1471 314.851 63.6065 317.207C61.9399 319.755 61.418 322.097 60.298 324.877C59.1182 324.587 58.6229 325.312 57.4755 324.976C55.7548 324.472 56.166 323.731 54.6862 322.695C53.6091 321.942 52.4657 322.045 51.34 321.448C50.0367 320.755 49.2178 319.271 47.5874 319.13C48.5582 317.775 51.9358 317.351 51.9137 315.75L66.0882 302.418L75.7611 301.541L82.2229 304.918L82.222 304.917Z" fill="#FE989B"/>
<path d="M54.0473 320.014C53.9655 319.922 53.8614 319.853 53.745 319.813C53.6286 319.774 53.504 319.765 53.3832 319.788C47.8538 320.869 42.655 324.567 38.0064 327.653C35.4517 329.349 35.3388 329.283 32.4827 330.113C30.978 330.551 28.646 330.703 27.789 332.742C27.3955 333.679 28.1595 334.296 28.8209 334.961C28.974 335.116 29.8315 335.225 30.048 335.203C33.1635 334.894 36.0613 335.218 39.1574 334.067C42.6811 332.756 45.8989 330.601 49.2902 328.794C52.2177 327.235 54.5864 326.073 57.6077 325.202C57.7192 325.17 57.8213 325.111 57.905 325.031C57.9887 324.95 58.0517 324.851 58.0883 324.741C58.125 324.631 58.1344 324.513 58.1156 324.399C58.0968 324.284 58.0504 324.176 57.9804 324.083C56.914 322.68 54.7352 320.776 54.0473 320.013V320.014Z" fill="#FE989B"/>
<path d="M60.3418 324.676C55.3688 325.286 49.4387 326.461 44.9154 329.075C43.706 329.774 40.2213 332.105 39.5869 333.475C38.2731 336.315 41.3315 335.658 42.9929 335.119C46.5507 333.964 50.0531 332.638 53.6282 331.567C57.8978 330.288 62.6154 330.427 67.0953 331.107L60.3418 324.676Z" fill="white"/>
<path d="M189.207 142.522L195.83 170.246C196.912 174.777 199.577 178.772 203.345 181.512C216.343 190.964 231.221 197.514 246.971 200.718L276.349 206.695L165.083 207.143L168.566 202.251C174.246 191.56 176.836 179.498 176.044 167.418L174.6 145.399L189.208 142.522H189.207Z" fill="#363C56"/>
<path d="M102.868 335.499C80.07 354.753 105.102 382.538 125.444 391.048C114.955 389.627 89.0979 383.105 84.8726 371.791C82.2758 364.838 85.4658 355.477 88.433 349.2C93.0621 339.407 96.6704 336.827 102.868 335.499Z" fill="#FE989B"/>
<path d="M304.526 187.865L302.089 217.101L306.737 265.566L286.138 287.323L283.001 284.705C281.046 283.073 279.791 280.753 279.495 278.224L274.202 233.034L274.866 182.578L302.114 184.999C302.813 185.061 303.459 185.398 303.911 185.935C304.363 186.472 304.584 187.166 304.526 187.865Z" fill="white"/>
<path d="M305.631 260.918L330.218 281.203L370.48 302.744L364.283 319.12L311.842 305.078C307.497 303.831 303.451 301.713 299.95 298.854L284.653 286.31C282.473 284.523 282.421 281.207 284.543 279.352L305.631 260.918Z" fill="white"/>
<path d="M404.615 299.071C405.466 301.626 406.227 304.917 407.043 307.76C407.756 310.242 411.396 314.021 410.108 316.174C408.92 318.16 405.003 320.149 403.047 320.788C402.004 321.128 400.663 321.899 399.572 321.543C398.229 321.105 395.295 317.923 394.078 316.953C396.433 316.189 400.616 314.933 402.113 312.851C399.932 310.844 398.537 306.364 398.723 303.464C398.909 300.563 401.638 297.206 404.691 299.312C404.153 298.482 404.906 300.026 404.615 299.071H404.615Z" fill="#FE989B"/>
<path d="M403.776 297.362C402.571 296.769 401.145 296.198 399.993 295.447C398.884 294.725 395.366 293.647 394.078 293.581C393.02 293.528 381.82 296.786 378.313 298.048C373.205 299.885 369.359 301.316 365.669 305.435C370.605 308.679 376.622 311.401 382.243 313.32C386.318 314.712 390.843 315.128 394.731 316.7C393.725 314.109 392.315 310.387 392.282 307.527C392.257 305.357 392.216 302.645 393.665 301.251C394.103 300.829 395.605 301.214 396.617 301.585C400.606 304.275 409.437 300.149 403.776 297.362Z" fill="#FE989B"/>
<path d="M401.151 318.687C404.866 320.093 407.958 322.735 411.677 324.233C414.354 325.311 416.787 327.044 419.617 327.792C421.693 328.341 425.603 328.013 426.448 330.266C427.604 333.348 425.179 333.325 423.175 333.086C421.219 332.852 419.21 333.028 417.27 332.839C410.031 332.133 405.039 327.345 398.355 324.742C395.819 323.754 393.133 322.767 390.843 321.436C391.27 320.552 392.293 318.058 393.254 317.597C394.174 317.157 391.608 315.874 392.703 316.174C394.489 316.664 397.544 317.728 399.349 318.163C399.332 317.799 401.546 318.873 401.15 318.687L401.151 318.687Z" fill="#FE989B"/>
<path d="M395.581 317.979C395.883 318.215 392.607 315.631 392.704 316.174C385.833 312.278 384.103 306.039 376.131 304.057C374.016 303.531 371.969 304.243 369.872 304.331C367.572 304.427 365.308 304.319 363.028 304.989C355.961 307.063 355.989 311.733 360.935 316.296C363.401 318.571 366.08 320.409 368.668 322.519C371.4 324.746 374.03 328.341 377.012 330.133C378.94 331.291 379.171 331.354 381.053 330.187C383.103 328.916 385.07 327.642 387.303 326.835C390.843 325.556 397.016 322.7 395.581 317.979Z" fill="white"/>
<path d="M363.924 304.917C371.741 303.962 374.213 306.689 377.391 310.344C379.22 312.446 380.999 314.851 382.539 317.207C384.206 319.755 384.728 322.097 385.848 324.877C387.027 324.587 387.523 325.312 388.67 324.976C390.391 324.472 389.98 323.731 391.46 322.695C392.537 321.942 393.68 322.045 394.806 321.448C396.109 320.755 396.928 319.271 398.558 319.13C397.588 317.775 394.21 317.351 394.232 315.75L380.058 302.418L370.385 301.541L363.923 304.918L363.924 304.917Z" fill="#FE989B"/>
<path d="M392.098 320.014C392.266 319.828 392.517 319.74 392.762 319.788C398.292 320.87 403.491 324.567 408.139 327.653C410.694 329.349 410.807 329.283 413.663 330.113C415.167 330.551 417.5 330.703 418.357 332.742C418.75 333.679 417.986 334.296 417.325 334.961C417.172 335.116 416.314 335.225 416.098 335.203C412.982 334.894 410.084 335.219 406.988 334.067C403.464 332.756 400.247 330.601 396.855 328.794C393.928 327.235 391.559 326.073 388.538 325.202C388.426 325.17 388.324 325.111 388.241 325.031C388.157 324.95 388.094 324.851 388.057 324.741C388.021 324.631 388.011 324.513 388.03 324.399C388.049 324.284 388.095 324.176 388.165 324.083C389.232 322.68 391.41 320.776 392.098 320.013V320.014Z" fill="#FE989B"/>
<path d="M385.804 324.676C390.777 325.286 396.707 326.461 401.23 329.075C402.439 329.774 405.924 332.105 406.558 333.475C407.872 336.315 404.814 335.658 403.152 335.119C399.595 333.964 396.092 332.638 392.517 331.567C388.248 330.288 383.53 330.427 379.05 331.107L385.804 324.676Z" fill="white"/>
<path d="M254.141 205.036C247.346 205.036 245.114 216.313 238.205 216.101C246.074 223.418 268.491 210.141 278.355 215.348C280.082 204.859 282.472 195.74 282.472 195.74C282.472 195.74 274.947 205.036 254.141 205.036Z" fill="#FE989B"/>
<path d="M279.951 207.143L222.517 196.077L165.083 207.143L168.955 235.614L170.173 247.197H274.861L276.078 235.614L279.951 207.143Z" fill="#363C56"/>
<path d="M194.449 85.8107C194.426 85.9247 194.381 86.0331 194.316 86.1296C194.251 86.2261 194.167 86.3088 194.07 86.3729C193.973 86.4371 193.864 86.4815 193.75 86.5035C193.636 86.5255 193.518 86.5247 193.404 86.5012C193.072 86.4348 192.736 86.3817 192.399 86.3418C192.076 85.7664 191.789 85.1733 191.545 84.5492L191.523 84.4961C192.275 84.5271 193.028 84.62 193.758 84.7661C194.237 84.8635 194.546 85.3327 194.449 85.8107Z" fill="white"/>
<path d="M201.895 107.119C199.23 110.487 195.246 112.417 190.943 112.417C183.245 112.417 176.977 106.154 176.977 98.452C176.977 90.7503 183.245 84.4828 190.943 84.4828C191.888 84.4851 192.831 84.5799 193.758 84.7661C194.237 84.8634 194.546 85.3326 194.449 85.8107C194.426 85.9247 194.381 86.0331 194.316 86.1296C194.251 86.2261 194.167 86.3088 194.07 86.3729C193.973 86.4371 193.864 86.4814 193.75 86.5034C193.636 86.5254 193.518 86.5247 193.404 86.5011C192.594 86.3394 191.77 86.2564 190.943 86.2533C184.219 86.2533 178.747 91.7241 178.747 98.452C178.747 105.18 184.219 110.646 190.943 110.646C194.746 110.646 198.26 108.92 200.593 105.915C200.624 105.875 200.66 105.839 200.695 105.804L201.895 107.119Z" fill="#363C56"/>
</g>
<defs>
<clipPath id="clip0_135_4061">
<rect width="404.729" height="48.7562" fill="white" transform="translate(19.3977 361.74)"/>
</clipPath>
<clipPath id="clip1_135_4061">
<rect width="281.528" height="281.528" fill="white" transform="translate(80.7361 77.0663)"/>
</clipPath>
<clipPath id="clip2_135_4061">
<rect width="407.35" height="382.186" fill="white" transform="translate(19.3977 19.9219)"/>
</clipPath>
</defs>
</svg>
