<svg width="150" height="150" viewBox="0 0 150 150" fill="none" xmlns="http://www.w3.org/2000/svg">
<path d="M0 75C0 116.421 33.5786 150 75 150C116.421 150 150 116.421 150 75C150 33.5786 116.421 0 75 0C33.5786 0 0 33.5786 0 75ZM127.5 75C127.5 103.995 103.995 127.5 75 127.5C46.0051 127.5 22.5 103.995 22.5 75C22.5 46.0051 46.0051 22.5 75 22.5C103.995 22.5 127.5 46.0051 127.5 75Z" fill="#7E9EF3"/>
<path d="M75 0C59.1616 1.88872e-07 43.7297 5.01412 30.9161 14.3237C18.1025 23.6333 8.56511 36.7605 3.67076 51.8237C-1.22359 66.887 -1.22359 83.113 3.67076 98.1763C8.56511 113.24 18.1025 126.367 30.9161 135.676L44.1413 117.473C35.1718 110.957 28.4956 101.768 25.0695 91.2234C21.6435 80.6791 21.6435 69.3209 25.0695 58.7766C28.4956 48.2323 35.1718 39.0433 44.1413 32.5266C53.1108 26.0099 63.9131 22.5 75 22.5L75 0Z" fill="#D8D8D8"/>
<path d="M59.1841 70.3899C58.9928 69.5898 58.6449 68.9898 58.1405 68.5897C57.6361 68.1897 56.9317 67.9897 56.0273 67.9897C54.6532 67.9897 53.627 68.5201 52.9487 69.5811C52.2704 70.6247 51.9138 72.364 51.879 74.799C52.3312 74.0337 52.9922 73.4424 53.8618 73.0249C54.7315 72.6075 55.6707 72.3988 56.6795 72.3988C57.8274 72.3988 58.8362 72.651 59.7059 73.1554C60.5929 73.6424 61.2799 74.3555 61.7669 75.2947C62.2713 76.2339 62.5235 77.3558 62.5235 78.6603C62.5235 79.8778 62.28 80.9648 61.793 81.9214C61.3234 82.8781 60.619 83.6347 59.6798 84.1912C58.7406 84.7304 57.61 85 56.2882 85C54.4967 85 53.0878 84.6087 52.0617 83.826C51.0529 83.0259 50.3398 81.904 49.9223 80.4604C49.5223 79.0168 49.3223 77.2166 49.3223 75.0599C49.3223 68.6941 51.566 65.5112 56.0533 65.5112C57.7926 65.5112 59.158 65.9808 60.1494 66.92C61.1582 67.8592 61.7496 69.0158 61.9235 70.3899H59.1841ZM56.0273 74.9034C54.9663 74.9034 54.0619 75.2251 53.314 75.8687C52.5834 76.4948 52.2182 77.408 52.2182 78.6081C52.2182 79.8082 52.5574 80.7648 53.2357 81.4779C53.9314 82.1736 54.8967 82.5215 56.1316 82.5215C57.2274 82.5215 58.0883 82.1823 58.7145 81.504C59.358 80.8257 59.6798 79.9212 59.6798 78.7907C59.6798 77.608 59.3667 76.6688 58.7406 75.973C58.1318 75.2599 57.2274 74.9034 56.0273 74.9034ZM65.4352 75.2425C65.4352 72.2335 65.9396 69.8855 66.9484 68.1984C67.9745 66.4939 69.7312 65.6416 72.2184 65.6416C74.7056 65.6416 76.4536 66.4939 77.4624 68.1984C78.4886 69.8855 79.0017 72.2335 79.0017 75.2425C79.0017 78.2863 78.4886 80.6691 77.4624 82.3911C76.4536 84.0956 74.7056 84.9478 72.2184 84.9478C69.7312 84.9478 67.9745 84.0956 66.9484 82.3911C65.9396 80.6691 65.4352 78.2863 65.4352 75.2425ZM76.0797 75.2425C76.0797 73.8337 75.984 72.6423 75.7927 71.6683C75.6188 70.6943 75.2535 69.9029 74.6969 69.2941C74.1404 68.668 73.3142 68.3549 72.2184 68.3549C71.1227 68.3549 70.2965 68.668 69.7399 69.2941C69.1834 69.9029 68.8094 70.6943 68.6181 71.6683C68.4442 72.6423 68.3572 73.8337 68.3572 75.2425C68.3572 76.7035 68.4442 77.9298 68.6181 78.9212C68.792 79.9126 69.1573 80.7126 69.7138 81.3214C70.2878 81.9301 71.1227 82.2345 72.2184 82.2345C73.3142 82.2345 74.1404 81.9301 74.6969 81.3214C75.2709 80.7126 75.6448 79.9126 75.8188 78.9212C75.9927 77.9298 76.0797 76.7035 76.0797 75.2425ZM81.4182 70.5725C81.4182 69.3028 81.7835 68.3114 82.514 67.5983C83.2619 66.8678 84.2185 66.5026 85.3838 66.5026C86.5492 66.5026 87.4971 66.8678 88.2276 67.5983C88.9755 68.3114 89.3494 69.3028 89.3494 70.5725C89.3494 71.8422 88.9755 72.8423 88.2276 73.5728C87.4971 74.3033 86.5492 74.6686 85.3838 74.6686C84.2185 74.6686 83.2619 74.3033 82.514 73.5728C81.7835 72.8423 81.4182 71.8422 81.4182 70.5725ZM97.3328 66.8417L86.9231 85H84.0011L94.4108 66.8417H97.3328ZM85.3838 68.3027C84.2881 68.3027 83.7402 69.0593 83.7402 70.5725C83.7402 72.1031 84.2881 72.8684 85.3838 72.8684C85.9056 72.8684 86.3057 72.6858 86.5839 72.3205C86.8796 71.9379 87.0275 71.3552 87.0275 70.5725C87.0275 69.0593 86.4796 68.3027 85.3838 68.3027ZM92.0366 81.2431C92.0366 79.9734 92.4019 78.982 93.1324 78.2689C93.8803 77.5384 94.8369 77.1732 96.0022 77.1732C97.1502 77.1732 98.0894 77.5384 98.8199 78.2689C99.5678 78.982 99.9418 79.9734 99.9418 81.2431C99.9418 82.5128 99.5678 83.5129 98.8199 84.2434C98.0894 84.9739 97.1502 85.3392 96.0022 85.3392C94.8369 85.3392 93.8803 84.9739 93.1324 84.2434C92.4019 83.5129 92.0366 82.5128 92.0366 81.2431ZM95.9762 78.9733C94.8804 78.9733 94.3325 79.7299 94.3325 81.2431C94.3325 82.7563 94.8804 83.5129 95.9762 83.5129C97.0719 83.5129 97.6198 82.7563 97.6198 81.2431C97.6198 79.7299 97.0719 78.9733 95.9762 78.9733Z" fill="#363C56"/>
</svg>
