<svg width="150" height="150" viewBox="0 0 150 150" fill="none" xmlns="http://www.w3.org/2000/svg">
<path d="M75 0C81.9271 0 88.5677 0.885417 94.9219 2.65625C101.276 4.42708 107.266 6.92708 112.891 10.1563C118.516 13.3854 123.568 17.2917 128.047 21.875C132.526 26.4583 136.432 31.5365 139.766 37.1094C143.099 42.6823 145.625 48.6458 147.344 55C149.063 61.3542 149.948 68.0208 150 75C150 81.9271 149.115 88.5677 147.344 94.9219C145.573 101.276 143.073 107.266 139.844 112.891C136.615 118.516 132.708 123.568 128.125 128.047C123.542 132.526 118.464 136.432 112.891 139.766C107.318 143.099 101.354 145.625 95 147.344C88.6458 149.063 81.9792 149.948 75 150C68.0729 150 61.4323 149.115 55.0781 147.344C48.724 145.573 42.7344 143.073 37.1094 139.844C31.4844 136.615 26.4323 132.708 21.9531 128.125C17.474 123.542 13.5677 118.464 10.2344 112.891C6.90104 107.318 4.375 101.354 2.65625 95C0.9375 88.6458 0.0520833 81.9792 0 75C0 68.0729 0.885417 61.4323 2.65625 55.0781C4.42708 48.724 6.92708 42.7344 10.1563 37.1094C13.3854 31.4844 17.2917 26.4323 21.875 21.9531C26.4583 17.474 31.5365 13.5677 37.1094 10.2344C42.6823 6.90104 48.6458 4.375 55 2.65625C61.3542 0.9375 68.0208 0.0520833 75 0ZM75 140C80.9375 140 86.6667 139.219 92.1875 137.656C97.7083 136.094 102.891 133.906 107.734 131.094C112.578 128.281 116.979 124.896 120.938 120.938C124.896 116.979 128.281 112.604 131.094 107.813C133.906 103.021 136.094 97.8385 137.656 92.2656C139.219 86.6927 140 80.9375 140 75C140 69.0625 139.219 63.3333 137.656 57.8125C136.094 52.2917 133.906 47.1094 131.094 42.2656C128.281 37.4219 124.896 33.0208 120.938 29.0625C116.979 25.1042 112.604 21.7188 107.813 18.9063C103.021 16.0938 97.8385 13.9063 92.2656 12.3438C86.6927 10.7813 80.9375 10 75 10C69.0104 10 63.2552 10.7813 57.7344 12.3438C52.2135 13.9063 47.0573 16.0938 42.2656 18.9063C37.474 21.7188 33.0729 25.1042 29.0625 29.0625C25.0521 33.0208 21.6667 37.3958 18.9063 42.1875C16.1458 46.9792 13.9583 52.1615 12.3438 57.7344C10.7292 63.3073 9.94792 69.0625 10 75C10 80.9375 10.7813 86.6667 12.3438 92.1875C13.9063 97.7083 16.0938 102.891 18.9063 107.734C21.7188 112.578 25.1042 116.979 29.0625 120.938C33.0208 124.896 37.3958 128.281 42.1875 131.094C46.9792 133.906 52.1615 136.094 57.7344 137.656C63.3073 139.219 69.0625 140 75 140ZM70 40H80V90H70V40ZM70 100H80V110H70V100Z" fill="#FE989B"/>
</svg>
