<svg width="249" height="146" viewBox="0 0 249 146" fill="none" xmlns="http://www.w3.org/2000/svg">
<path d="M226.154 45.9533C223.85 40.2001 218.306 36.4132 212.186 36.4132C206.067 36.4132 200.523 40.2001 198.219 45.9533L176.188 101.956H197.787V145.651H226.586V101.956H248.185L226.154 45.9533Z" fill="#D8D8D8"/>
<path d="M212.187 29.1303C220.139 29.1303 226.586 22.6093 226.586 14.5653C226.586 6.52124 220.139 0.000244141 212.187 0.000244141C204.234 0.000244141 197.787 6.52124 197.787 14.5653C197.787 22.6093 204.234 29.1303 212.187 29.1303Z" fill="#D8D8D8"/>
<path d="M138.764 45.9533C136.46 40.2001 130.916 36.4132 124.796 36.4132C118.676 36.4132 113.133 40.2001 110.829 45.9533L88.7974 101.956H110.397V145.651H139.196V101.956H160.795L138.764 45.9533Z" fill="#FE989B"/>
<path d="M124.797 29.1303C132.75 29.1303 139.197 22.6093 139.197 14.5653C139.197 6.52124 132.75 0.000244141 124.797 0.000244141C116.844 0.000244141 110.397 6.52124 110.397 14.5653C110.397 22.6093 116.844 29.1303 124.797 29.1303Z" fill="#FE989B"/>
<path d="M50.5407 45.9531C48.2103 40.1999 42.6028 36.413 36.4126 36.413C30.2225 36.413 24.6149 40.1999 22.2845 45.9531L0 101.956H21.8476V145.651H50.9777V101.956H72.8252L50.5407 45.9531Z" fill="#FE989B"/>
<path d="M36.4132 29.1301C44.4572 29.1301 50.9782 22.6091 50.9782 14.565C50.9782 6.52099 44.4572 0 36.4132 0C28.3691 0 21.8481 6.52099 21.8481 14.565C21.8481 22.6091 28.3691 29.1301 36.4132 29.1301Z" fill="#FE989B"/>
</svg>
